%TF.GenerationSoftware,Altium Limited,Altium Designer,25.0.2 (28)*%
G04 Layer_Color=0*
%FSLAX45Y45*%
%MOMM*%
%TF.SameCoordinates,BFBE90A8-51B7-47FB-822D-EC39B52C7656*%
%TF.FilePolarity,Positive*%
%TF.FileFunction,Plated,1,3,Blind,Drill*%
%TF.Part,Single*%
G01*
G75*
%TA.AperFunction,ViaDrill,NotFilled*%
%ADD119C,0.40640*%
%ADD120C,0.45720*%
D119*
X20605750Y13581380D02*
D03*
X20593050Y13510260D02*
D03*
X20551140Y13451840D02*
D03*
X20386803Y17155161D02*
D03*
X20436333Y13373100D02*
D03*
X20492720Y13414249D02*
D03*
X20312379Y13704062D02*
D03*
X20270724Y13644881D02*
D03*
X20312379Y16775938D02*
D03*
X20605750Y16898621D02*
D03*
X20593050Y16969740D02*
D03*
X20551140Y17028160D02*
D03*
X20492720Y17065752D02*
D03*
X20270724Y16835120D02*
D03*
X20436333Y17106900D02*
D03*
X20386803Y13324840D02*
D03*
X20040219Y9612556D02*
D03*
X20023938Y9536356D02*
D03*
X20008850Y9460156D02*
D03*
X19994881Y9382760D02*
D03*
X20340207Y10298356D02*
D03*
X20045793D02*
D03*
X20192999Y10581640D02*
D03*
X20060413Y10518140D02*
D03*
X20029170Y10449560D02*
D03*
X20030440Y10373360D02*
D03*
X20119849Y10565130D02*
D03*
X20266151D02*
D03*
X20325587Y10518140D02*
D03*
X20356830Y10449560D02*
D03*
X20355560Y10373360D02*
D03*
X20340207Y10222156D02*
D03*
Y10145956D02*
D03*
Y9993556D02*
D03*
Y10069756D02*
D03*
Y9841156D02*
D03*
Y9917356D02*
D03*
Y9688756D02*
D03*
Y9764956D02*
D03*
X20045793Y10145956D02*
D03*
Y10222156D02*
D03*
Y9993556D02*
D03*
Y10069756D02*
D03*
Y9841156D02*
D03*
Y9917356D02*
D03*
Y9688756D02*
D03*
Y9764956D02*
D03*
X20345781Y9612556D02*
D03*
X20362062Y9536356D02*
D03*
X20377150Y9460156D02*
D03*
X20391119Y9382760D02*
D03*
Y9306560D02*
D03*
Y9230360D02*
D03*
Y9154160D02*
D03*
Y9077960D02*
D03*
Y9001760D02*
D03*
X19994881D02*
D03*
Y9077960D02*
D03*
Y9154160D02*
D03*
Y9230360D02*
D03*
Y9306560D02*
D03*
X20391119Y21173441D02*
D03*
Y21249640D02*
D03*
Y21325841D02*
D03*
Y21402040D02*
D03*
Y21478239D02*
D03*
X19994881D02*
D03*
Y21402040D02*
D03*
Y21325841D02*
D03*
Y21249640D02*
D03*
Y21173441D02*
D03*
Y21097240D02*
D03*
X20008850Y21019844D02*
D03*
X20023938Y20943645D02*
D03*
X20040219Y20867444D02*
D03*
X20340207Y20715044D02*
D03*
Y20791245D02*
D03*
Y20562643D02*
D03*
Y20638844D02*
D03*
Y20410245D02*
D03*
Y20486444D02*
D03*
Y20257845D02*
D03*
Y20334044D02*
D03*
X20045793Y20715044D02*
D03*
Y20791245D02*
D03*
Y20562643D02*
D03*
Y20638844D02*
D03*
Y20410245D02*
D03*
Y20486444D02*
D03*
Y20334044D02*
D03*
Y20257845D02*
D03*
Y12053644D02*
D03*
X20340207D02*
D03*
X20030440Y20106641D02*
D03*
X20029170Y20030440D02*
D03*
X20060413Y19961861D02*
D03*
X20119849Y19914870D02*
D03*
X20266151D02*
D03*
X20355560Y20106641D02*
D03*
X20356830Y20030440D02*
D03*
X20325587Y19961861D02*
D03*
X20192999Y19898360D02*
D03*
X20030440Y11978640D02*
D03*
X20029170Y11902440D02*
D03*
X20060413Y11833860D02*
D03*
X20119849Y11786870D02*
D03*
X20266151D02*
D03*
X20355560Y11978640D02*
D03*
X20356830Y11902440D02*
D03*
X20325587Y11833860D02*
D03*
X20192999Y11770360D02*
D03*
X18050256Y12278614D02*
D03*
X18123409Y12304268D02*
D03*
X18177510Y12359640D02*
D03*
X17973039Y12289028D02*
D03*
X17877028Y12385040D02*
D03*
X17866614Y12462256D02*
D03*
X17892268Y12535408D02*
D03*
X17947639Y12589510D02*
D03*
X17915636Y12327636D02*
D03*
Y18152364D02*
D03*
X20192999Y18709641D02*
D03*
X20228560Y16893539D02*
D03*
X20175220Y16949420D02*
D03*
X20121880Y17002760D02*
D03*
X20071191Y17059836D02*
D03*
X20340207Y17283356D02*
D03*
Y17207156D02*
D03*
Y17359557D02*
D03*
Y18350156D02*
D03*
Y18273956D02*
D03*
Y18121556D02*
D03*
Y18197755D02*
D03*
Y17892957D02*
D03*
Y17816756D02*
D03*
Y17969156D02*
D03*
Y18045357D02*
D03*
X20045793Y17207156D02*
D03*
Y17130956D02*
D03*
Y17816756D02*
D03*
Y17740556D02*
D03*
Y17588156D02*
D03*
Y17664355D02*
D03*
Y17359557D02*
D03*
Y17283356D02*
D03*
Y17435756D02*
D03*
Y17511955D02*
D03*
Y18121556D02*
D03*
Y18045357D02*
D03*
Y17892957D02*
D03*
Y17969156D02*
D03*
Y18273956D02*
D03*
Y18197755D02*
D03*
Y18350156D02*
D03*
X20227756Y13584348D02*
D03*
X20173875Y13530467D02*
D03*
X20119994Y13476585D02*
D03*
X20066112Y13422704D02*
D03*
X20045793Y13349043D02*
D03*
X20340207Y13272844D02*
D03*
X20045793Y12739444D02*
D03*
Y12815643D02*
D03*
Y12968044D02*
D03*
Y12891844D02*
D03*
Y13196645D02*
D03*
Y13272844D02*
D03*
Y13120444D02*
D03*
Y13044244D02*
D03*
Y12129844D02*
D03*
Y12206044D02*
D03*
Y12358444D02*
D03*
Y12282244D02*
D03*
Y12587044D02*
D03*
Y12663244D02*
D03*
Y12510844D02*
D03*
Y12434644D02*
D03*
X20340207Y12663244D02*
D03*
Y13120444D02*
D03*
Y13196645D02*
D03*
Y12358444D02*
D03*
Y12434644D02*
D03*
Y12587044D02*
D03*
Y12510844D02*
D03*
Y12206044D02*
D03*
Y12282244D02*
D03*
Y12129844D02*
D03*
X20045793Y18426357D02*
D03*
X20340207D02*
D03*
X20060413Y18646140D02*
D03*
X20029170Y18577560D02*
D03*
X20030440Y18501360D02*
D03*
X20119849Y18693130D02*
D03*
X20266151D02*
D03*
X20325587Y18646140D02*
D03*
X20356830Y18577560D02*
D03*
X20355560Y18501360D02*
D03*
X20340207Y20181644D02*
D03*
X20045793D02*
D03*
X20320000Y16497301D02*
D03*
X20154900Y16195599D02*
D03*
X20231100Y16197580D02*
D03*
X20307300Y16200121D02*
D03*
X19850101Y16195599D02*
D03*
X19926300D02*
D03*
X20078700D02*
D03*
X20002499D02*
D03*
X20167599Y16500398D02*
D03*
X20243800Y16499840D02*
D03*
X20015199Y16500398D02*
D03*
X20091400D02*
D03*
X19939000D02*
D03*
X19697701Y16195599D02*
D03*
X18927669Y16932150D02*
D03*
X18981549Y16878268D02*
D03*
X19089313Y16770506D02*
D03*
X19035431Y16824387D02*
D03*
X19250957Y16608861D02*
D03*
X19304839Y16554980D02*
D03*
X19197075Y16662743D02*
D03*
X19143195Y16716624D02*
D03*
X19574246Y16285571D02*
D03*
X19628127Y16231689D02*
D03*
X19773900Y16195599D02*
D03*
X19466483Y16393335D02*
D03*
X19520364Y16339453D02*
D03*
X19412601Y16447217D02*
D03*
X19358720Y16501099D02*
D03*
X18065562Y17794255D02*
D03*
X18119444Y17740373D02*
D03*
X18227208Y17632610D02*
D03*
X18173326Y17686491D02*
D03*
X18388852Y17470966D02*
D03*
X18442734Y17417084D02*
D03*
X18334972Y17524847D02*
D03*
X18281088Y17578729D02*
D03*
X18712141Y17147676D02*
D03*
X18766023Y17093794D02*
D03*
X18873785Y16986032D02*
D03*
X18819904Y17039912D02*
D03*
X18604378Y17255440D02*
D03*
X18658260Y17201558D02*
D03*
X18550497Y17309322D02*
D03*
X18496616Y17363203D02*
D03*
X19081969Y17194214D02*
D03*
X19135851Y17140332D02*
D03*
X19243613Y17032568D02*
D03*
X19189731Y17086452D02*
D03*
X19405257Y16870924D02*
D03*
X19459138Y16817043D02*
D03*
X19351376Y16924806D02*
D03*
X19297495Y16978688D02*
D03*
X19728548Y16547636D02*
D03*
X19786600Y16500398D02*
D03*
X19862801D02*
D03*
X19620782Y16655399D02*
D03*
X19674664Y16601517D02*
D03*
X19566902Y16709280D02*
D03*
X19513020Y16763162D02*
D03*
X18650916Y17625266D02*
D03*
X18704797Y17571385D02*
D03*
X18812561Y17463622D02*
D03*
X18758679Y17517503D02*
D03*
X18974205Y17301978D02*
D03*
X19028087Y17248096D02*
D03*
X18920325Y17355859D02*
D03*
X18866441Y17409740D02*
D03*
X18435390Y17840791D02*
D03*
X18489272Y17786911D02*
D03*
X18597034Y17679147D02*
D03*
X18543153Y17733029D02*
D03*
X18327628Y17948555D02*
D03*
X18381508Y17894675D02*
D03*
X18273746Y18002437D02*
D03*
X18011682Y17848135D02*
D03*
X18219864Y18056319D02*
D03*
X20078700Y14284401D02*
D03*
X20154900D02*
D03*
X20307300D02*
D03*
X20231100D02*
D03*
X19773900D02*
D03*
X19850101D02*
D03*
X20002499D02*
D03*
X19926300D02*
D03*
X20165060Y13979601D02*
D03*
X20241260D02*
D03*
X20317461D02*
D03*
X20012660D02*
D03*
X20088860D02*
D03*
X19936459D02*
D03*
X19860260D02*
D03*
X18873785Y13493968D02*
D03*
X18927669Y13547850D02*
D03*
X19035431Y13655614D02*
D03*
X18981549Y13601730D02*
D03*
X19197075Y13817258D02*
D03*
X19250957Y13871140D02*
D03*
X19143195Y13763376D02*
D03*
X19089313Y13709494D02*
D03*
X19520364Y14140547D02*
D03*
X19574246Y14194427D02*
D03*
X19697701Y14284401D02*
D03*
X19628127Y14248309D02*
D03*
X19412601Y14032784D02*
D03*
X19466483Y14086665D02*
D03*
X19358720Y13978902D02*
D03*
X19304839Y13925020D02*
D03*
X18011682Y12631864D02*
D03*
X18065562Y12685745D02*
D03*
X18173326Y12793508D02*
D03*
X18119444Y12739627D02*
D03*
X18334972Y12955153D02*
D03*
X18388852Y13009035D02*
D03*
X18281088Y12901271D02*
D03*
X18227208Y12847391D02*
D03*
X18658260Y13278442D02*
D03*
X18712141Y13332324D02*
D03*
X18819904Y13440086D02*
D03*
X18766023Y13386205D02*
D03*
X18550497Y13170679D02*
D03*
X18604378Y13224561D02*
D03*
X18496616Y13116797D02*
D03*
X18442734Y13062917D02*
D03*
X19081969Y13285786D02*
D03*
X19135851Y13339668D02*
D03*
X19243613Y13447430D02*
D03*
X19189731Y13393549D02*
D03*
X19405257Y13609074D02*
D03*
X19459138Y13662956D02*
D03*
X19351376Y13555194D02*
D03*
X19297495Y13501312D02*
D03*
X19728548Y13932364D02*
D03*
X19784061Y13979601D02*
D03*
X19620782Y13824602D02*
D03*
X19674664Y13878484D02*
D03*
X19566902Y13770720D02*
D03*
X19513020Y13716838D02*
D03*
X18650916Y12854733D02*
D03*
X18704797Y12908615D02*
D03*
X18812561Y13016377D02*
D03*
X18758679Y12962497D02*
D03*
X18974205Y13178023D02*
D03*
X19028087Y13231905D02*
D03*
X18920325Y13124141D02*
D03*
X18866441Y13070261D02*
D03*
X18435390Y12639208D02*
D03*
X18489272Y12693089D02*
D03*
X18597034Y12800851D02*
D03*
X18543153Y12746971D02*
D03*
X18327628Y12531445D02*
D03*
X18381508Y12585326D02*
D03*
X18273746Y12477563D02*
D03*
X18219864Y12423682D02*
D03*
X18177510Y18120360D02*
D03*
X18123409Y18175732D02*
D03*
X18050256Y18201385D02*
D03*
X17973039Y18190971D02*
D03*
X17877028Y18094960D02*
D03*
X17947639Y17890491D02*
D03*
X17892268Y17944592D02*
D03*
X17866614Y18017744D02*
D03*
X20391119Y21097240D02*
D03*
X20377150Y21019844D02*
D03*
X20362062Y20943645D02*
D03*
X20345781Y20867444D02*
D03*
D120*
X9357790Y7607810D02*
D03*
X9147090Y8395210D02*
D03*
X7579790Y8877810D02*
D03*
X7369090Y9665210D02*
D03*
X9357790Y11417810D02*
D03*
X9147090Y12205210D02*
D03*
X7579790Y12687810D02*
D03*
X7369090Y13475211D02*
D03*
X9357790Y15227811D02*
D03*
X9147090Y16015210D02*
D03*
X7579790Y16497810D02*
D03*
X7369090Y17285210D02*
D03*
X9357790Y19037810D02*
D03*
X9147090Y19825211D02*
D03*
X7579790Y20307809D02*
D03*
X7369090Y21095210D02*
D03*
X9357790Y22847810D02*
D03*
X9147600Y23634700D02*
D03*
X7579790Y24117810D02*
D03*
X7369600Y24904700D02*
D03*
%TF.MD5,b7f1960c76eec9987be5eac0afcb996d*%
M02*
