%TF.GenerationSoftware,Altium Limited,Altium Designer,25.0.2 (28)*%
G04 Layer_Physical_Order=4*
G04 Layer_Color=16440176*
%FSLAX45Y45*%
%MOMM*%
%TF.SameCoordinates,BFBE90A8-51B7-47FB-822D-EC39B52C7656*%
%TF.FilePolarity,Positive*%
%TF.FileFunction,Copper,L4,Inr,Signal*%
%TF.Part,Single*%
G01*
G75*
%TA.AperFunction,Conductor*%
%ADD20C,0.55880*%
%TA.AperFunction,ComponentPad*%
%ADD27C,1.06680*%
%ADD28C,2.54000*%
%ADD29C,1.52400*%
%TA.AperFunction,ViaPad*%
%ADD30C,1.52400*%
%TA.AperFunction,ComponentPad*%
%ADD31C,1.65000*%
%ADD32C,4.80000*%
%TA.AperFunction,ViaPad*%
%ADD33C,5.08000*%
%ADD34C,0.60960*%
%ADD35C,1.27000*%
%ADD36C,0.50000*%
%ADD49C,0.61976*%
G36*
X13919200Y21539200D02*
X21412199D01*
Y8940800D01*
X13919200D01*
Y3860800D01*
X2590800D01*
Y26619199D01*
X13919200D01*
Y21539200D01*
D02*
G37*
%LPC*%
G36*
X12975989Y25933401D02*
X12966701D01*
Y25666699D01*
X13233400D01*
Y25675989D01*
X13226520Y25719427D01*
X13212930Y25761252D01*
X13192964Y25800436D01*
X13167114Y25836017D01*
X13136017Y25867114D01*
X13100436Y25892963D01*
X13061252Y25912930D01*
X13019426Y25926520D01*
X12975989Y25933401D01*
D02*
G37*
G36*
X12941299D02*
X12932011D01*
X12888574Y25926520D01*
X12846748Y25912930D01*
X12807562Y25892963D01*
X12771983Y25867114D01*
X12740886Y25836017D01*
X12715036Y25800436D01*
X12695070Y25761252D01*
X12681480Y25719427D01*
X12674600Y25675989D01*
Y25666699D01*
X12941299D01*
Y25933401D01*
D02*
G37*
G36*
X3577989D02*
X3568700D01*
Y25666699D01*
X3835400D01*
Y25675989D01*
X3828520Y25719427D01*
X3814930Y25761252D01*
X3794964Y25800436D01*
X3769114Y25836017D01*
X3738017Y25867114D01*
X3702437Y25892963D01*
X3663252Y25912930D01*
X3621426Y25926520D01*
X3577989Y25933401D01*
D02*
G37*
G36*
X3543300D02*
X3534011D01*
X3490574Y25926520D01*
X3448748Y25912930D01*
X3409563Y25892963D01*
X3373983Y25867114D01*
X3342886Y25836017D01*
X3317036Y25800436D01*
X3297070Y25761252D01*
X3283480Y25719427D01*
X3276600Y25675989D01*
Y25666699D01*
X3543300D01*
Y25933401D01*
D02*
G37*
G36*
X13233400Y25641299D02*
X12966701D01*
Y25374600D01*
X12975989D01*
X13019426Y25381480D01*
X13061252Y25395070D01*
X13100436Y25415036D01*
X13136017Y25440886D01*
X13167114Y25471983D01*
X13192964Y25507562D01*
X13212930Y25546748D01*
X13226520Y25588574D01*
X13233400Y25632010D01*
Y25641299D01*
D02*
G37*
G36*
X12941299D02*
X12674600D01*
Y25632010D01*
X12681480Y25588574D01*
X12695070Y25546748D01*
X12715036Y25507562D01*
X12740886Y25471983D01*
X12771983Y25440886D01*
X12807562Y25415036D01*
X12846748Y25395070D01*
X12888574Y25381480D01*
X12932011Y25374600D01*
X12941299D01*
Y25641299D01*
D02*
G37*
G36*
X3835400D02*
X3568700D01*
Y25374600D01*
X3577989D01*
X3621426Y25381480D01*
X3663252Y25395070D01*
X3702437Y25415036D01*
X3738017Y25440886D01*
X3769114Y25471983D01*
X3794964Y25507562D01*
X3814930Y25546748D01*
X3828520Y25588574D01*
X3835400Y25632010D01*
Y25641299D01*
D02*
G37*
G36*
X3543300D02*
X3276600D01*
Y25632010D01*
X3283480Y25588574D01*
X3297070Y25546748D01*
X3317036Y25507562D01*
X3342886Y25471983D01*
X3373983Y25440886D01*
X3409563Y25415036D01*
X3448748Y25395070D01*
X3490574Y25381480D01*
X3534011Y25374600D01*
X3543300D01*
Y25641299D01*
D02*
G37*
G36*
X5093376Y24993600D02*
X5092700D01*
Y24904700D01*
X5181600D01*
Y24905376D01*
X5174676Y24931216D01*
X5161300Y24954384D01*
X5142384Y24973300D01*
X5119216Y24986676D01*
X5093376Y24993600D01*
D02*
G37*
G36*
X5067300D02*
X5066624D01*
X5040784Y24986676D01*
X5017616Y24973300D01*
X4998700Y24954384D01*
X4985324Y24931216D01*
X4978400Y24905376D01*
Y24904700D01*
X5067300D01*
Y24993600D01*
D02*
G37*
G36*
X3567370Y24978360D02*
X3544630D01*
X3522666Y24972475D01*
X3502974Y24961105D01*
X3486895Y24945026D01*
X3475525Y24925334D01*
X3469640Y24903371D01*
Y24880630D01*
X3475525Y24858665D01*
X3486895Y24838974D01*
X3502974Y24822894D01*
X3522666Y24811525D01*
X3544630Y24805640D01*
X3567370D01*
X3589334Y24811525D01*
X3609026Y24822894D01*
X3625105Y24838974D01*
X3636475Y24858665D01*
X3642360Y24880630D01*
Y24903371D01*
X3636475Y24925334D01*
X3625105Y24945026D01*
X3609026Y24961105D01*
X3589334Y24972475D01*
X3567370Y24978360D01*
D02*
G37*
G36*
X5181600Y24879300D02*
X5092700D01*
Y24790401D01*
X5093376D01*
X5119216Y24797324D01*
X5142384Y24810699D01*
X5161300Y24829616D01*
X5174676Y24852785D01*
X5181600Y24878624D01*
Y24879300D01*
D02*
G37*
G36*
X5067300D02*
X4978400D01*
Y24878624D01*
X4985324Y24852785D01*
X4998700Y24829616D01*
X5017616Y24810699D01*
X5040784Y24797324D01*
X5066624Y24790401D01*
X5067300D01*
Y24879300D01*
D02*
G37*
G36*
X6854997Y23949660D02*
X6835603D01*
X6816868Y23944640D01*
X6800072Y23934943D01*
X6786358Y23921228D01*
X6776660Y23904433D01*
X6771640Y23885696D01*
Y23866302D01*
X6776660Y23847568D01*
X6786358Y23830772D01*
X6800072Y23817058D01*
X6816868Y23807359D01*
X6835603Y23802341D01*
X6854997D01*
X6873732Y23807359D01*
X6890528Y23817058D01*
X6904242Y23830772D01*
X6913940Y23847568D01*
X6918960Y23866302D01*
Y23885696D01*
X6913940Y23904433D01*
X6904242Y23921228D01*
X6890528Y23934943D01*
X6873732Y23944640D01*
X6854997Y23949660D01*
D02*
G37*
G36*
X5091370Y23454359D02*
X5068630D01*
X5046666Y23448476D01*
X5026974Y23437105D01*
X5010895Y23421027D01*
X4999525Y23401334D01*
X4993640Y23379370D01*
Y23356630D01*
X4999525Y23334666D01*
X5010895Y23314973D01*
X5026974Y23298895D01*
X5046666Y23287524D01*
X5068630Y23281641D01*
X5091370D01*
X5113334Y23287524D01*
X5133026Y23298895D01*
X5149105Y23314973D01*
X5160475Y23334666D01*
X5166360Y23356630D01*
Y23379370D01*
X5160475Y23401334D01*
X5149105Y23421027D01*
X5133026Y23437105D01*
X5113334Y23448476D01*
X5091370Y23454359D01*
D02*
G37*
G36*
X3567370D02*
X3544630D01*
X3522666Y23448476D01*
X3502974Y23437105D01*
X3486895Y23421027D01*
X3475525Y23401334D01*
X3469640Y23379370D01*
Y23356630D01*
X3475525Y23334666D01*
X3486895Y23314973D01*
X3502974Y23298895D01*
X3522666Y23287524D01*
X3544630Y23281641D01*
X3567370D01*
X3589334Y23287524D01*
X3609026Y23298895D01*
X3625105Y23314973D01*
X3636475Y23334666D01*
X3642360Y23356630D01*
Y23379370D01*
X3636475Y23401334D01*
X3625105Y23421027D01*
X3609026Y23437105D01*
X3589334Y23448476D01*
X3567370Y23454359D01*
D02*
G37*
G36*
X12414384Y22913341D02*
X12398216D01*
X12383279Y22907153D01*
X12371847Y22895721D01*
X12365660Y22880785D01*
Y22864616D01*
X12371847Y22849680D01*
X12383279Y22838248D01*
X12398216Y22832060D01*
X12414384D01*
X12429321Y22838248D01*
X12440753Y22849680D01*
X12446940Y22864616D01*
Y22880785D01*
X12440753Y22895721D01*
X12429321Y22907153D01*
X12414384Y22913341D01*
D02*
G37*
G36*
X8632997Y22679660D02*
X8613603D01*
X8594868Y22674640D01*
X8578072Y22664941D01*
X8564358Y22651228D01*
X8554660Y22634431D01*
X8549640Y22615697D01*
Y22596303D01*
X8554660Y22577568D01*
X8564358Y22560773D01*
X8578072Y22547058D01*
X8594868Y22537360D01*
X8613603Y22532339D01*
X8632997D01*
X8651732Y22537360D01*
X8668528Y22547058D01*
X8682242Y22560773D01*
X8691940Y22577568D01*
X8696960Y22596303D01*
Y22615697D01*
X8691940Y22634431D01*
X8682242Y22651228D01*
X8668528Y22664941D01*
X8651732Y22674640D01*
X8632997Y22679660D01*
D02*
G37*
G36*
X12862097Y22412959D02*
X12842703D01*
X12823969Y22407941D01*
X12807172Y22398242D01*
X12793458Y22384528D01*
X12783760Y22367732D01*
X12778740Y22348997D01*
Y22329604D01*
X12783760Y22310867D01*
X12793458Y22294072D01*
X12807172Y22280357D01*
X12823969Y22270660D01*
X12842703Y22265640D01*
X12862097D01*
X12880832Y22270660D01*
X12897627Y22280357D01*
X12911342Y22294072D01*
X12921040Y22310867D01*
X12926060Y22329604D01*
Y22348997D01*
X12921040Y22367732D01*
X12911342Y22384528D01*
X12897627Y22398242D01*
X12880832Y22407941D01*
X12862097Y22412959D01*
D02*
G37*
G36*
X12203684Y22125940D02*
X12187516D01*
X12172579Y22119753D01*
X12161147Y22108321D01*
X12154960Y22093384D01*
Y22077216D01*
X12161147Y22062279D01*
X12172579Y22050847D01*
X12187516Y22044659D01*
X12203684D01*
X12218621Y22050847D01*
X12230053Y22062279D01*
X12236240Y22077216D01*
Y22093384D01*
X12230053Y22108321D01*
X12218621Y22119753D01*
X12203684Y22125940D01*
D02*
G37*
G36*
X10636384Y21643340D02*
X10620216D01*
X10605279Y21637154D01*
X10593847Y21625722D01*
X10587660Y21610783D01*
Y21594617D01*
X10593847Y21579678D01*
X10605279Y21568246D01*
X10620216Y21562061D01*
X10636384D01*
X10651321Y21568246D01*
X10662753Y21579678D01*
X10668940Y21594617D01*
Y21610783D01*
X10662753Y21625722D01*
X10651321Y21637154D01*
X10636384Y21643340D01*
D02*
G37*
G36*
X11084097Y21142960D02*
X11064703D01*
X11045968Y21137939D01*
X11029172Y21128242D01*
X11015458Y21114528D01*
X11005760Y21097733D01*
X11000740Y21078996D01*
Y21059602D01*
X11005760Y21040868D01*
X11015458Y21024072D01*
X11029172Y21010358D01*
X11045968Y21000661D01*
X11064703Y20995641D01*
X11084097D01*
X11102832Y21000661D01*
X11119628Y21010358D01*
X11133342Y21024072D01*
X11143040Y21040868D01*
X11148060Y21059602D01*
Y21078996D01*
X11143040Y21097733D01*
X11133342Y21114528D01*
X11119628Y21128242D01*
X11102832Y21137939D01*
X11084097Y21142960D01*
D02*
G37*
G36*
X19071989Y21107401D02*
X19062700D01*
Y20840700D01*
X19329401D01*
Y20849989D01*
X19322520Y20893427D01*
X19308929Y20935252D01*
X19288963Y20974437D01*
X19263113Y21010017D01*
X19232018Y21041113D01*
X19196437Y21066965D01*
X19157253Y21086929D01*
X19115427Y21100520D01*
X19071989Y21107401D01*
D02*
G37*
G36*
X19037300D02*
X19028011D01*
X18984573Y21100520D01*
X18942747Y21086929D01*
X18903563Y21066965D01*
X18867982Y21041113D01*
X18836887Y21010017D01*
X18811037Y20974437D01*
X18791071Y20935252D01*
X18777480Y20893427D01*
X18770599Y20849989D01*
Y20840700D01*
X19037300D01*
Y21107401D01*
D02*
G37*
G36*
X10425684Y20855940D02*
X10409516D01*
X10394579Y20849753D01*
X10383147Y20838321D01*
X10376960Y20823384D01*
Y20807216D01*
X10383147Y20792279D01*
X10394579Y20780847D01*
X10409516Y20774660D01*
X10425684D01*
X10440621Y20780847D01*
X10452053Y20792279D01*
X10458240Y20807216D01*
Y20823384D01*
X10452053Y20838321D01*
X10440621Y20849753D01*
X10425684Y20855940D01*
D02*
G37*
G36*
X16396376Y20675600D02*
X16395700D01*
Y20586700D01*
X16484599D01*
Y20587376D01*
X16477676Y20613216D01*
X16464301Y20636385D01*
X16445384Y20655299D01*
X16422215Y20668677D01*
X16396376Y20675600D01*
D02*
G37*
G36*
X15380376D02*
X15379700D01*
Y20586700D01*
X15468600D01*
Y20587376D01*
X15461676Y20613216D01*
X15448300Y20636385D01*
X15429384Y20655299D01*
X15406216Y20668677D01*
X15380376Y20675600D01*
D02*
G37*
G36*
X14872375D02*
X14871700D01*
Y20586700D01*
X14960600D01*
Y20587376D01*
X14953676Y20613216D01*
X14940300Y20636385D01*
X14921384Y20655299D01*
X14898216Y20668677D01*
X14872375Y20675600D01*
D02*
G37*
G36*
X3577989Y20853400D02*
X3568700D01*
Y20586700D01*
X3835400D01*
Y20595988D01*
X3828520Y20639426D01*
X3814930Y20681252D01*
X3794964Y20720438D01*
X3769114Y20756017D01*
X3738017Y20787114D01*
X3702437Y20812964D01*
X3663252Y20832930D01*
X3621426Y20846519D01*
X3577989Y20853400D01*
D02*
G37*
G36*
X3543300D02*
X3534011D01*
X3490574Y20846519D01*
X3448748Y20832930D01*
X3409563Y20812964D01*
X3373983Y20787114D01*
X3342886Y20756017D01*
X3317036Y20720438D01*
X3297070Y20681252D01*
X3283480Y20639426D01*
X3276600Y20595988D01*
Y20586700D01*
X3543300D01*
Y20853400D01*
D02*
G37*
G36*
X14846300Y20675600D02*
X14845624D01*
X14819785Y20668677D01*
X14796616Y20655299D01*
X14777699Y20636385D01*
X14764323Y20613216D01*
X14757401Y20587376D01*
Y20586700D01*
X14846300D01*
Y20675600D01*
D02*
G37*
G36*
X16370300D02*
X16369624D01*
X16343784Y20668677D01*
X16320616Y20655299D01*
X16301700Y20636385D01*
X16288324Y20613216D01*
X16281400Y20587376D01*
Y20586700D01*
X16370300D01*
Y20675600D01*
D02*
G37*
G36*
X15354300D02*
X15353624D01*
X15327785Y20668677D01*
X15304616Y20655299D01*
X15285699Y20636385D01*
X15272324Y20613216D01*
X15265401Y20587376D01*
Y20586700D01*
X15354300D01*
Y20675600D01*
D02*
G37*
G36*
X19329401Y20815300D02*
X19062700D01*
Y20548599D01*
X19071989D01*
X19115427Y20555479D01*
X19157253Y20569070D01*
X19196437Y20589037D01*
X19232018Y20614886D01*
X19263113Y20645982D01*
X19288963Y20681563D01*
X19308929Y20720747D01*
X19322520Y20762573D01*
X19329401Y20806010D01*
Y20815300D01*
D02*
G37*
G36*
X19037300D02*
X18770599D01*
Y20806010D01*
X18777480Y20762573D01*
X18791071Y20720747D01*
X18811037Y20681563D01*
X18836887Y20645982D01*
X18867982Y20614886D01*
X18903563Y20589037D01*
X18942747Y20569070D01*
X18984573Y20555479D01*
X19028011Y20548599D01*
X19037300D01*
Y20815300D01*
D02*
G37*
G36*
X15886369Y20660361D02*
X15863631D01*
X15841666Y20654475D01*
X15821974Y20643105D01*
X15805894Y20627026D01*
X15794525Y20607333D01*
X15788640Y20585370D01*
Y20562630D01*
X15794525Y20540666D01*
X15805894Y20520975D01*
X15821974Y20504895D01*
X15841666Y20493526D01*
X15863631Y20487640D01*
X15886369D01*
X15908334Y20493526D01*
X15928026Y20504895D01*
X15944106Y20520975D01*
X15955475Y20540666D01*
X15961360Y20562630D01*
Y20585370D01*
X15955475Y20607333D01*
X15944106Y20627026D01*
X15928026Y20643105D01*
X15908334Y20654475D01*
X15886369Y20660361D01*
D02*
G37*
G36*
X16484599Y20561301D02*
X16395700D01*
Y20472400D01*
X16396376D01*
X16422215Y20479324D01*
X16445384Y20492700D01*
X16464301Y20511617D01*
X16477676Y20534784D01*
X16484599Y20560625D01*
Y20561301D01*
D02*
G37*
G36*
X16370300D02*
X16281400D01*
Y20560625D01*
X16288324Y20534784D01*
X16301700Y20511617D01*
X16320616Y20492700D01*
X16343784Y20479324D01*
X16369624Y20472400D01*
X16370300D01*
Y20561301D01*
D02*
G37*
G36*
X15468600D02*
X15379700D01*
Y20472400D01*
X15380376D01*
X15406216Y20479324D01*
X15429384Y20492700D01*
X15448300Y20511617D01*
X15461676Y20534784D01*
X15468600Y20560625D01*
Y20561301D01*
D02*
G37*
G36*
X15354300D02*
X15265401D01*
Y20560625D01*
X15272324Y20534784D01*
X15285699Y20511617D01*
X15304616Y20492700D01*
X15327785Y20479324D01*
X15353624Y20472400D01*
X15354300D01*
Y20561301D01*
D02*
G37*
G36*
X14960600D02*
X14871700D01*
Y20472400D01*
X14872375D01*
X14898216Y20479324D01*
X14921384Y20492700D01*
X14940300Y20511617D01*
X14953676Y20534784D01*
X14960600Y20560625D01*
Y20561301D01*
D02*
G37*
G36*
X14846300D02*
X14757401D01*
Y20560625D01*
X14764323Y20534784D01*
X14777699Y20511617D01*
X14796616Y20492700D01*
X14819785Y20479324D01*
X14845624Y20472400D01*
X14846300D01*
Y20561301D01*
D02*
G37*
G36*
X3835400D02*
X3568700D01*
Y20294600D01*
X3577989D01*
X3621426Y20301480D01*
X3663252Y20315070D01*
X3702437Y20335036D01*
X3738017Y20360886D01*
X3769114Y20391983D01*
X3794964Y20427563D01*
X3814930Y20466748D01*
X3828520Y20508574D01*
X3835400Y20552011D01*
Y20561301D01*
D02*
G37*
G36*
X3543300D02*
X3276600D01*
Y20552011D01*
X3283480Y20508574D01*
X3297070Y20466748D01*
X3317036Y20427563D01*
X3342886Y20391983D01*
X3373983Y20360886D01*
X3409563Y20335036D01*
X3448748Y20315070D01*
X3490574Y20301480D01*
X3534011Y20294600D01*
X3543300D01*
Y20561301D01*
D02*
G37*
G36*
X20714375Y20167599D02*
X20713699D01*
Y20078700D01*
X20802600D01*
Y20079376D01*
X20795676Y20105215D01*
X20782300Y20128384D01*
X20763383Y20147301D01*
X20740216Y20160677D01*
X20714375Y20167599D01*
D02*
G37*
G36*
X19698376D02*
X19697701D01*
Y20078700D01*
X19786600D01*
Y20079376D01*
X19779675Y20105215D01*
X19766299Y20128384D01*
X19747385Y20147301D01*
X19724216Y20160677D01*
X19698376Y20167599D01*
D02*
G37*
G36*
X19190376D02*
X19189700D01*
Y20078700D01*
X19278600D01*
Y20079376D01*
X19271677Y20105215D01*
X19258299Y20128384D01*
X19239384Y20147301D01*
X19216216Y20160677D01*
X19190376Y20167599D01*
D02*
G37*
G36*
X16396376D02*
X16395700D01*
Y20078700D01*
X16484599D01*
Y20079376D01*
X16477676Y20105215D01*
X16464301Y20128384D01*
X16445384Y20147301D01*
X16422215Y20160677D01*
X16396376Y20167599D01*
D02*
G37*
G36*
X15888376D02*
X15887700D01*
Y20078700D01*
X15976601D01*
Y20079376D01*
X15969676Y20105215D01*
X15956300Y20128384D01*
X15937384Y20147301D01*
X15914217Y20160677D01*
X15888376Y20167599D01*
D02*
G37*
G36*
X15380376D02*
X15379700D01*
Y20078700D01*
X15468600D01*
Y20079376D01*
X15461676Y20105215D01*
X15448300Y20128384D01*
X15429384Y20147301D01*
X15406216Y20160677D01*
X15380376Y20167599D01*
D02*
G37*
G36*
X14872375D02*
X14871700D01*
Y20078700D01*
X14960600D01*
Y20079376D01*
X14953676Y20105215D01*
X14940300Y20128384D01*
X14921384Y20147301D01*
X14898216Y20160677D01*
X14872375Y20167599D01*
D02*
G37*
G36*
X15862300D02*
X15861624D01*
X15835783Y20160677D01*
X15812616Y20147301D01*
X15793700Y20128384D01*
X15780324Y20105215D01*
X15773399Y20079376D01*
Y20078700D01*
X15862300D01*
Y20167599D01*
D02*
G37*
G36*
X14846300D02*
X14845624D01*
X14819785Y20160677D01*
X14796616Y20147301D01*
X14777699Y20128384D01*
X14764323Y20105215D01*
X14757401Y20079376D01*
Y20078700D01*
X14846300D01*
Y20167599D01*
D02*
G37*
G36*
X20688300D02*
X20687624D01*
X20661784Y20160677D01*
X20638615Y20147301D01*
X20619701Y20128384D01*
X20606323Y20105215D01*
X20599400Y20079376D01*
Y20078700D01*
X20688300D01*
Y20167599D01*
D02*
G37*
G36*
X19672301D02*
X19671625D01*
X19645784Y20160677D01*
X19622617Y20147301D01*
X19603700Y20128384D01*
X19590324Y20105215D01*
X19583400Y20079376D01*
Y20078700D01*
X19672301D01*
Y20167599D01*
D02*
G37*
G36*
X19164301D02*
X19163625D01*
X19137784Y20160677D01*
X19114616Y20147301D01*
X19095700Y20128384D01*
X19082324Y20105215D01*
X19075400Y20079376D01*
Y20078700D01*
X19164301D01*
Y20167599D01*
D02*
G37*
G36*
X16370300D02*
X16369624D01*
X16343784Y20160677D01*
X16320616Y20147301D01*
X16301700Y20128384D01*
X16288324Y20105215D01*
X16281400Y20079376D01*
Y20078700D01*
X16370300D01*
Y20167599D01*
D02*
G37*
G36*
X15354300D02*
X15353624D01*
X15327785Y20160677D01*
X15304616Y20147301D01*
X15285699Y20128384D01*
X15272324Y20105215D01*
X15265401Y20079376D01*
Y20078700D01*
X15354300D01*
Y20167599D01*
D02*
G37*
G36*
X6854997Y20139661D02*
X6835603D01*
X6816868Y20134641D01*
X6800072Y20124942D01*
X6786358Y20111227D01*
X6776660Y20094432D01*
X6771640Y20075697D01*
Y20056303D01*
X6776660Y20037569D01*
X6786358Y20020772D01*
X6800072Y20007059D01*
X6816868Y19997360D01*
X6835603Y19992340D01*
X6854997D01*
X6873732Y19997360D01*
X6890528Y20007059D01*
X6904242Y20020772D01*
X6913940Y20037569D01*
X6918960Y20056303D01*
Y20075697D01*
X6913940Y20094432D01*
X6904242Y20111227D01*
X6890528Y20124942D01*
X6873732Y20134641D01*
X6854997Y20139661D01*
D02*
G37*
G36*
X20204370Y20152361D02*
X20181630D01*
X20159666Y20146475D01*
X20139973Y20135104D01*
X20123895Y20119026D01*
X20112524Y20099335D01*
X20106641Y20077370D01*
Y20054630D01*
X20112524Y20032666D01*
X20123895Y20012975D01*
X20139973Y19996895D01*
X20159666Y19985526D01*
X20181630Y19979640D01*
X20204370D01*
X20226334Y19985526D01*
X20246027Y19996895D01*
X20262105Y20012975D01*
X20273476Y20032666D01*
X20279359Y20054630D01*
Y20077370D01*
X20273476Y20099335D01*
X20262105Y20119026D01*
X20246027Y20135104D01*
X20226334Y20146475D01*
X20204370Y20152361D01*
D02*
G37*
G36*
X20802600Y20053300D02*
X20713699D01*
Y19964400D01*
X20714375D01*
X20740216Y19971324D01*
X20763383Y19984700D01*
X20782300Y20003616D01*
X20795676Y20026784D01*
X20802600Y20052625D01*
Y20053300D01*
D02*
G37*
G36*
X20688300D02*
X20599400D01*
Y20052625D01*
X20606323Y20026784D01*
X20619701Y20003616D01*
X20638615Y19984700D01*
X20661784Y19971324D01*
X20687624Y19964400D01*
X20688300D01*
Y20053300D01*
D02*
G37*
G36*
X19786600D02*
X19697701D01*
Y19964400D01*
X19698376D01*
X19724216Y19971324D01*
X19747385Y19984700D01*
X19766299Y20003616D01*
X19779675Y20026784D01*
X19786600Y20052625D01*
Y20053300D01*
D02*
G37*
G36*
X19672301D02*
X19583400D01*
Y20052625D01*
X19590324Y20026784D01*
X19603700Y20003616D01*
X19622617Y19984700D01*
X19645784Y19971324D01*
X19671625Y19964400D01*
X19672301D01*
Y20053300D01*
D02*
G37*
G36*
X19278600D02*
X19189700D01*
Y19964400D01*
X19190376D01*
X19216216Y19971324D01*
X19239384Y19984700D01*
X19258299Y20003616D01*
X19271677Y20026784D01*
X19278600Y20052625D01*
Y20053300D01*
D02*
G37*
G36*
X19164301D02*
X19075400D01*
Y20052625D01*
X19082324Y20026784D01*
X19095700Y20003616D01*
X19114616Y19984700D01*
X19137784Y19971324D01*
X19163625Y19964400D01*
X19164301D01*
Y20053300D01*
D02*
G37*
G36*
X16484599D02*
X16395700D01*
Y19964400D01*
X16396376D01*
X16422215Y19971324D01*
X16445384Y19984700D01*
X16464301Y20003616D01*
X16477676Y20026784D01*
X16484599Y20052625D01*
Y20053300D01*
D02*
G37*
G36*
X16370300D02*
X16281400D01*
Y20052625D01*
X16288324Y20026784D01*
X16301700Y20003616D01*
X16320616Y19984700D01*
X16343784Y19971324D01*
X16369624Y19964400D01*
X16370300D01*
Y20053300D01*
D02*
G37*
G36*
X15976601D02*
X15887700D01*
Y19964400D01*
X15888376D01*
X15914217Y19971324D01*
X15937384Y19984700D01*
X15956300Y20003616D01*
X15969676Y20026784D01*
X15976601Y20052625D01*
Y20053300D01*
D02*
G37*
G36*
X15862300D02*
X15773399D01*
Y20052625D01*
X15780324Y20026784D01*
X15793700Y20003616D01*
X15812616Y19984700D01*
X15835783Y19971324D01*
X15861624Y19964400D01*
X15862300D01*
Y20053300D01*
D02*
G37*
G36*
X15468600D02*
X15379700D01*
Y19964400D01*
X15380376D01*
X15406216Y19971324D01*
X15429384Y19984700D01*
X15448300Y20003616D01*
X15461676Y20026784D01*
X15468600Y20052625D01*
Y20053300D01*
D02*
G37*
G36*
X15354300D02*
X15265401D01*
Y20052625D01*
X15272324Y20026784D01*
X15285699Y20003616D01*
X15304616Y19984700D01*
X15327785Y19971324D01*
X15353624Y19964400D01*
X15354300D01*
Y20053300D01*
D02*
G37*
G36*
X14960600D02*
X14871700D01*
Y19964400D01*
X14872375D01*
X14898216Y19971324D01*
X14921384Y19984700D01*
X14940300Y20003616D01*
X14953676Y20026784D01*
X14960600Y20052625D01*
Y20053300D01*
D02*
G37*
G36*
X14846300D02*
X14757401D01*
Y20052625D01*
X14764323Y20026784D01*
X14777699Y20003616D01*
X14796616Y19984700D01*
X14819785Y19971324D01*
X14845624Y19964400D01*
X14846300D01*
Y20053300D01*
D02*
G37*
G36*
X3525984Y19890739D02*
X3509816D01*
X3494879Y19884554D01*
X3483447Y19873122D01*
X3477260Y19858183D01*
Y19842017D01*
X3483447Y19827078D01*
X3494879Y19815646D01*
X3509816Y19809460D01*
X3525984D01*
X3540921Y19815646D01*
X3552353Y19827078D01*
X3558540Y19842017D01*
Y19858183D01*
X3552353Y19873122D01*
X3540921Y19884554D01*
X3525984Y19890739D01*
D02*
G37*
G36*
X20714375Y19659599D02*
X20713699D01*
Y19570700D01*
X20802600D01*
Y19571376D01*
X20795676Y19597215D01*
X20782300Y19620384D01*
X20763383Y19639301D01*
X20740216Y19652676D01*
X20714375Y19659599D01*
D02*
G37*
G36*
X20206377D02*
X20205701D01*
Y19570700D01*
X20294600D01*
Y19571376D01*
X20287675Y19597215D01*
X20274300Y19620384D01*
X20255383Y19639301D01*
X20232216Y19652676D01*
X20206377Y19659599D01*
D02*
G37*
G36*
X19698376D02*
X19697701D01*
Y19570700D01*
X19786600D01*
Y19571376D01*
X19779675Y19597215D01*
X19766299Y19620384D01*
X19747385Y19639301D01*
X19724216Y19652676D01*
X19698376Y19659599D01*
D02*
G37*
G36*
X19190376D02*
X19189700D01*
Y19570700D01*
X19278600D01*
Y19571376D01*
X19271677Y19597215D01*
X19258299Y19620384D01*
X19239384Y19639301D01*
X19216216Y19652676D01*
X19190376Y19659599D01*
D02*
G37*
G36*
X18555376D02*
X18554700D01*
Y19570700D01*
X18643600D01*
Y19571376D01*
X18636676Y19597215D01*
X18623300Y19620384D01*
X18604384Y19639301D01*
X18581216Y19652676D01*
X18555376Y19659599D01*
D02*
G37*
G36*
X17539375D02*
X17538699D01*
Y19570700D01*
X17627600D01*
Y19571376D01*
X17620676Y19597215D01*
X17607300Y19620384D01*
X17588383Y19639301D01*
X17565216Y19652676D01*
X17539375Y19659599D01*
D02*
G37*
G36*
X17031377D02*
X17030701D01*
Y19570700D01*
X17119600D01*
Y19571376D01*
X17112675Y19597215D01*
X17099300Y19620384D01*
X17080383Y19639301D01*
X17057216Y19652676D01*
X17031377Y19659599D01*
D02*
G37*
G36*
X16396376D02*
X16395700D01*
Y19570700D01*
X16484599D01*
Y19571376D01*
X16477676Y19597215D01*
X16464301Y19620384D01*
X16445384Y19639301D01*
X16422215Y19652676D01*
X16396376Y19659599D01*
D02*
G37*
G36*
X15888376D02*
X15887700D01*
Y19570700D01*
X15976601D01*
Y19571376D01*
X15969676Y19597215D01*
X15956300Y19620384D01*
X15937384Y19639301D01*
X15914217Y19652676D01*
X15888376Y19659599D01*
D02*
G37*
G36*
X15380376D02*
X15379700D01*
Y19570700D01*
X15468600D01*
Y19571376D01*
X15461676Y19597215D01*
X15448300Y19620384D01*
X15429384Y19639301D01*
X15406216Y19652676D01*
X15380376Y19659599D01*
D02*
G37*
G36*
X12975989Y19837399D02*
X12966701D01*
Y19570700D01*
X13233400D01*
Y19579990D01*
X13226520Y19623425D01*
X13212930Y19665253D01*
X13192964Y19704437D01*
X13167114Y19740018D01*
X13136017Y19771114D01*
X13100436Y19796964D01*
X13061252Y19816930D01*
X13019426Y19830521D01*
X12975989Y19837399D01*
D02*
G37*
G36*
X12941299D02*
X12932011D01*
X12888574Y19830521D01*
X12846748Y19816930D01*
X12807562Y19796964D01*
X12771983Y19771114D01*
X12740886Y19740018D01*
X12715036Y19704437D01*
X12695070Y19665253D01*
X12681480Y19623425D01*
X12674600Y19579990D01*
Y19570700D01*
X12941299D01*
Y19837399D01*
D02*
G37*
G36*
X20688300Y19659599D02*
X20687624D01*
X20661784Y19652676D01*
X20638615Y19639301D01*
X20619701Y19620384D01*
X20606323Y19597215D01*
X20599400Y19571376D01*
Y19570700D01*
X20688300D01*
Y19659599D01*
D02*
G37*
G36*
X20180299D02*
X20179623D01*
X20153784Y19652676D01*
X20130617Y19639301D01*
X20111700Y19620384D01*
X20098325Y19597215D01*
X20091400Y19571376D01*
Y19570700D01*
X20180299D01*
Y19659599D01*
D02*
G37*
G36*
X19672301D02*
X19671625D01*
X19645784Y19652676D01*
X19622617Y19639301D01*
X19603700Y19620384D01*
X19590324Y19597215D01*
X19583400Y19571376D01*
Y19570700D01*
X19672301D01*
Y19659599D01*
D02*
G37*
G36*
X19164301D02*
X19163625D01*
X19137784Y19652676D01*
X19114616Y19639301D01*
X19095700Y19620384D01*
X19082324Y19597215D01*
X19075400Y19571376D01*
Y19570700D01*
X19164301D01*
Y19659599D01*
D02*
G37*
G36*
X18529300D02*
X18528624D01*
X18502785Y19652676D01*
X18479616Y19639301D01*
X18460699Y19620384D01*
X18447324Y19597215D01*
X18440401Y19571376D01*
Y19570700D01*
X18529300D01*
Y19659599D01*
D02*
G37*
G36*
X17513300D02*
X17512624D01*
X17486784Y19652676D01*
X17463615Y19639301D01*
X17444701Y19620384D01*
X17431323Y19597215D01*
X17424400Y19571376D01*
Y19570700D01*
X17513300D01*
Y19659599D01*
D02*
G37*
G36*
X15862300D02*
X15861624D01*
X15835783Y19652676D01*
X15812616Y19639301D01*
X15793700Y19620384D01*
X15780324Y19597215D01*
X15773399Y19571376D01*
Y19570700D01*
X15862300D01*
Y19659599D01*
D02*
G37*
G36*
X17005299D02*
X17004623D01*
X16978784Y19652676D01*
X16955617Y19639301D01*
X16936700Y19620384D01*
X16923325Y19597215D01*
X16916400Y19571376D01*
Y19570700D01*
X17005299D01*
Y19659599D01*
D02*
G37*
G36*
X16370300D02*
X16369624D01*
X16343784Y19652676D01*
X16320616Y19639301D01*
X16301700Y19620384D01*
X16288324Y19597215D01*
X16281400Y19571376D01*
Y19570700D01*
X16370300D01*
Y19659599D01*
D02*
G37*
G36*
X15354300D02*
X15353624D01*
X15327785Y19652676D01*
X15304616Y19639301D01*
X15285699Y19620384D01*
X15272324Y19597215D01*
X15265401Y19571376D01*
Y19570700D01*
X15354300D01*
Y19659599D01*
D02*
G37*
G36*
X18045370Y19644360D02*
X18022630D01*
X18000665Y19638475D01*
X17980974Y19627106D01*
X17964896Y19611026D01*
X17953525Y19591335D01*
X17947639Y19569370D01*
Y19546629D01*
X17953525Y19524666D01*
X17964896Y19504974D01*
X17980974Y19488895D01*
X18000665Y19477525D01*
X18022630Y19471640D01*
X18045370D01*
X18067334Y19477525D01*
X18087025Y19488895D01*
X18103105Y19504974D01*
X18114474Y19524666D01*
X18120360Y19546629D01*
Y19569370D01*
X18114474Y19591335D01*
X18103105Y19611026D01*
X18087025Y19627106D01*
X18067334Y19638475D01*
X18045370Y19644360D01*
D02*
G37*
G36*
X14870370D02*
X14847630D01*
X14825665Y19638475D01*
X14805974Y19627106D01*
X14789896Y19611026D01*
X14778525Y19591335D01*
X14772639Y19569370D01*
Y19546629D01*
X14778525Y19524666D01*
X14789896Y19504974D01*
X14805974Y19488895D01*
X14825665Y19477525D01*
X14847630Y19471640D01*
X14870370D01*
X14892334Y19477525D01*
X14912025Y19488895D01*
X14928105Y19504974D01*
X14939474Y19524666D01*
X14945360Y19546629D01*
Y19569370D01*
X14939474Y19591335D01*
X14928105Y19611026D01*
X14912025Y19627106D01*
X14892334Y19638475D01*
X14870370Y19644360D01*
D02*
G37*
G36*
X20802600Y19545300D02*
X20713699D01*
Y19456400D01*
X20714375D01*
X20740216Y19463324D01*
X20763383Y19476700D01*
X20782300Y19495616D01*
X20795676Y19518784D01*
X20802600Y19544624D01*
Y19545300D01*
D02*
G37*
G36*
X20688300D02*
X20599400D01*
Y19544624D01*
X20606323Y19518784D01*
X20619701Y19495616D01*
X20638615Y19476700D01*
X20661784Y19463324D01*
X20687624Y19456400D01*
X20688300D01*
Y19545300D01*
D02*
G37*
G36*
X20294600D02*
X20205701D01*
Y19456400D01*
X20206377D01*
X20232216Y19463324D01*
X20255383Y19476700D01*
X20274300Y19495616D01*
X20287675Y19518784D01*
X20294600Y19544624D01*
Y19545300D01*
D02*
G37*
G36*
X20180299D02*
X20091400D01*
Y19544624D01*
X20098325Y19518784D01*
X20111700Y19495616D01*
X20130617Y19476700D01*
X20153784Y19463324D01*
X20179623Y19456400D01*
X20180299D01*
Y19545300D01*
D02*
G37*
G36*
X19786600D02*
X19697701D01*
Y19456400D01*
X19698376D01*
X19724216Y19463324D01*
X19747385Y19476700D01*
X19766299Y19495616D01*
X19779675Y19518784D01*
X19786600Y19544624D01*
Y19545300D01*
D02*
G37*
G36*
X19672301D02*
X19583400D01*
Y19544624D01*
X19590324Y19518784D01*
X19603700Y19495616D01*
X19622617Y19476700D01*
X19645784Y19463324D01*
X19671625Y19456400D01*
X19672301D01*
Y19545300D01*
D02*
G37*
G36*
X19278600D02*
X19189700D01*
Y19456400D01*
X19190376D01*
X19216216Y19463324D01*
X19239384Y19476700D01*
X19258299Y19495616D01*
X19271677Y19518784D01*
X19278600Y19544624D01*
Y19545300D01*
D02*
G37*
G36*
X19164301D02*
X19075400D01*
Y19544624D01*
X19082324Y19518784D01*
X19095700Y19495616D01*
X19114616Y19476700D01*
X19137784Y19463324D01*
X19163625Y19456400D01*
X19164301D01*
Y19545300D01*
D02*
G37*
G36*
X18643600D02*
X18554700D01*
Y19456400D01*
X18555376D01*
X18581216Y19463324D01*
X18604384Y19476700D01*
X18623300Y19495616D01*
X18636676Y19518784D01*
X18643600Y19544624D01*
Y19545300D01*
D02*
G37*
G36*
X18529300D02*
X18440401D01*
Y19544624D01*
X18447324Y19518784D01*
X18460699Y19495616D01*
X18479616Y19476700D01*
X18502785Y19463324D01*
X18528624Y19456400D01*
X18529300D01*
Y19545300D01*
D02*
G37*
G36*
X17627600D02*
X17538699D01*
Y19456400D01*
X17539375D01*
X17565216Y19463324D01*
X17588383Y19476700D01*
X17607300Y19495616D01*
X17620676Y19518784D01*
X17627600Y19544624D01*
Y19545300D01*
D02*
G37*
G36*
X17513300D02*
X17424400D01*
Y19544624D01*
X17431323Y19518784D01*
X17444701Y19495616D01*
X17463615Y19476700D01*
X17486784Y19463324D01*
X17512624Y19456400D01*
X17513300D01*
Y19545300D01*
D02*
G37*
G36*
X17119600D02*
X17030701D01*
Y19456400D01*
X17031377D01*
X17057216Y19463324D01*
X17080383Y19476700D01*
X17099300Y19495616D01*
X17112675Y19518784D01*
X17119600Y19544624D01*
Y19545300D01*
D02*
G37*
G36*
X17005299D02*
X16916400D01*
Y19544624D01*
X16923325Y19518784D01*
X16936700Y19495616D01*
X16955617Y19476700D01*
X16978784Y19463324D01*
X17004623Y19456400D01*
X17005299D01*
Y19545300D01*
D02*
G37*
G36*
X16484599D02*
X16395700D01*
Y19456400D01*
X16396376D01*
X16422215Y19463324D01*
X16445384Y19476700D01*
X16464301Y19495616D01*
X16477676Y19518784D01*
X16484599Y19544624D01*
Y19545300D01*
D02*
G37*
G36*
X16370300D02*
X16281400D01*
Y19544624D01*
X16288324Y19518784D01*
X16301700Y19495616D01*
X16320616Y19476700D01*
X16343784Y19463324D01*
X16369624Y19456400D01*
X16370300D01*
Y19545300D01*
D02*
G37*
G36*
X15976601D02*
X15887700D01*
Y19456400D01*
X15888376D01*
X15914217Y19463324D01*
X15937384Y19476700D01*
X15956300Y19495616D01*
X15969676Y19518784D01*
X15976601Y19544624D01*
Y19545300D01*
D02*
G37*
G36*
X15862300D02*
X15773399D01*
Y19544624D01*
X15780324Y19518784D01*
X15793700Y19495616D01*
X15812616Y19476700D01*
X15835783Y19463324D01*
X15861624Y19456400D01*
X15862300D01*
Y19545300D01*
D02*
G37*
G36*
X15468600D02*
X15379700D01*
Y19456400D01*
X15380376D01*
X15406216Y19463324D01*
X15429384Y19476700D01*
X15448300Y19495616D01*
X15461676Y19518784D01*
X15468600Y19544624D01*
Y19545300D01*
D02*
G37*
G36*
X15354300D02*
X15265401D01*
Y19544624D01*
X15272324Y19518784D01*
X15285699Y19495616D01*
X15304616Y19476700D01*
X15327785Y19463324D01*
X15353624Y19456400D01*
X15354300D01*
Y19545300D01*
D02*
G37*
G36*
X13233400D02*
X12966701D01*
Y19278600D01*
X12975989D01*
X13019426Y19285480D01*
X13061252Y19299071D01*
X13100436Y19319035D01*
X13136017Y19344885D01*
X13167114Y19375983D01*
X13192964Y19411563D01*
X13212930Y19450748D01*
X13226520Y19492574D01*
X13233400Y19536011D01*
Y19545300D01*
D02*
G37*
G36*
X12941299D02*
X12674600D01*
Y19536011D01*
X12681480Y19492574D01*
X12695070Y19450748D01*
X12715036Y19411563D01*
X12740886Y19375983D01*
X12771983Y19344885D01*
X12807562Y19319035D01*
X12846748Y19299071D01*
X12888574Y19285480D01*
X12932011Y19278600D01*
X12941299D01*
Y19545300D01*
D02*
G37*
G36*
X20714375Y19151601D02*
X20713699D01*
Y19062700D01*
X20802600D01*
Y19063376D01*
X20795676Y19089217D01*
X20782300Y19112384D01*
X20763383Y19131300D01*
X20740216Y19144676D01*
X20714375Y19151601D01*
D02*
G37*
G36*
X20206377D02*
X20205701D01*
Y19062700D01*
X20294600D01*
Y19063376D01*
X20287675Y19089217D01*
X20274300Y19112384D01*
X20255383Y19131300D01*
X20232216Y19144676D01*
X20206377Y19151601D01*
D02*
G37*
G36*
X19698376D02*
X19697701D01*
Y19062700D01*
X19786600D01*
Y19063376D01*
X19779675Y19089217D01*
X19766299Y19112384D01*
X19747385Y19131300D01*
X19724216Y19144676D01*
X19698376Y19151601D01*
D02*
G37*
G36*
X18555376D02*
X18554700D01*
Y19062700D01*
X18643600D01*
Y19063376D01*
X18636676Y19089217D01*
X18623300Y19112384D01*
X18604384Y19131300D01*
X18581216Y19144676D01*
X18555376Y19151601D01*
D02*
G37*
G36*
X18047375D02*
X18046700D01*
Y19062700D01*
X18135600D01*
Y19063376D01*
X18128676Y19089217D01*
X18115300Y19112384D01*
X18096384Y19131300D01*
X18073216Y19144676D01*
X18047375Y19151601D01*
D02*
G37*
G36*
X17539375D02*
X17538699D01*
Y19062700D01*
X17627600D01*
Y19063376D01*
X17620676Y19089217D01*
X17607300Y19112384D01*
X17588383Y19131300D01*
X17565216Y19144676D01*
X17539375Y19151601D01*
D02*
G37*
G36*
X17031377D02*
X17030701D01*
Y19062700D01*
X17119600D01*
Y19063376D01*
X17112675Y19089217D01*
X17099300Y19112384D01*
X17080383Y19131300D01*
X17057216Y19144676D01*
X17031377Y19151601D01*
D02*
G37*
G36*
X16396376D02*
X16395700D01*
Y19062700D01*
X16484599D01*
Y19063376D01*
X16477676Y19089217D01*
X16464301Y19112384D01*
X16445384Y19131300D01*
X16422215Y19144676D01*
X16396376Y19151601D01*
D02*
G37*
G36*
X15380376D02*
X15379700D01*
Y19062700D01*
X15468600D01*
Y19063376D01*
X15461676Y19089217D01*
X15448300Y19112384D01*
X15429384Y19131300D01*
X15406216Y19144676D01*
X15380376Y19151601D01*
D02*
G37*
G36*
X14872375D02*
X14871700D01*
Y19062700D01*
X14960600D01*
Y19063376D01*
X14953676Y19089217D01*
X14940300Y19112384D01*
X14921384Y19131300D01*
X14898216Y19144676D01*
X14872375Y19151601D01*
D02*
G37*
G36*
X18021300D02*
X18020624D01*
X17994785Y19144676D01*
X17971616Y19131300D01*
X17952699Y19112384D01*
X17939323Y19089217D01*
X17932401Y19063376D01*
Y19062700D01*
X18021300D01*
Y19151601D01*
D02*
G37*
G36*
X20688300D02*
X20687624D01*
X20661784Y19144676D01*
X20638615Y19131300D01*
X20619701Y19112384D01*
X20606323Y19089217D01*
X20599400Y19063376D01*
Y19062700D01*
X20688300D01*
Y19151601D01*
D02*
G37*
G36*
X20180299D02*
X20179623D01*
X20153784Y19144676D01*
X20130617Y19131300D01*
X20111700Y19112384D01*
X20098325Y19089217D01*
X20091400Y19063376D01*
Y19062700D01*
X20180299D01*
Y19151601D01*
D02*
G37*
G36*
X19672301D02*
X19671625D01*
X19645784Y19144676D01*
X19622617Y19131300D01*
X19603700Y19112384D01*
X19590324Y19089217D01*
X19583400Y19063376D01*
Y19062700D01*
X19672301D01*
Y19151601D01*
D02*
G37*
G36*
X18529300D02*
X18528624D01*
X18502785Y19144676D01*
X18479616Y19131300D01*
X18460699Y19112384D01*
X18447324Y19089217D01*
X18440401Y19063376D01*
Y19062700D01*
X18529300D01*
Y19151601D01*
D02*
G37*
G36*
X17513300D02*
X17512624D01*
X17486784Y19144676D01*
X17463615Y19131300D01*
X17444701Y19112384D01*
X17431323Y19089217D01*
X17424400Y19063376D01*
Y19062700D01*
X17513300D01*
Y19151601D01*
D02*
G37*
G36*
X14846300D02*
X14845624D01*
X14819785Y19144676D01*
X14796616Y19131300D01*
X14777699Y19112384D01*
X14764323Y19089217D01*
X14757401Y19063376D01*
Y19062700D01*
X14846300D01*
Y19151601D01*
D02*
G37*
G36*
X17005299D02*
X17004623D01*
X16978784Y19144676D01*
X16955617Y19131300D01*
X16936700Y19112384D01*
X16923325Y19089217D01*
X16916400Y19063376D01*
Y19062700D01*
X17005299D01*
Y19151601D01*
D02*
G37*
G36*
X16370300D02*
X16369624D01*
X16343784Y19144676D01*
X16320616Y19131300D01*
X16301700Y19112384D01*
X16288324Y19089217D01*
X16281400Y19063376D01*
Y19062700D01*
X16370300D01*
Y19151601D01*
D02*
G37*
G36*
X15354300D02*
X15353624D01*
X15327785Y19144676D01*
X15304616Y19131300D01*
X15285699Y19112384D01*
X15272324Y19089217D01*
X15265401Y19063376D01*
Y19062700D01*
X15354300D01*
Y19151601D01*
D02*
G37*
G36*
X12414384Y19103340D02*
X12398216D01*
X12383279Y19097153D01*
X12371847Y19085721D01*
X12365660Y19070784D01*
Y19054616D01*
X12371847Y19039679D01*
X12383279Y19028247D01*
X12398216Y19022060D01*
X12414384D01*
X12429321Y19028247D01*
X12440753Y19039679D01*
X12446940Y19054616D01*
Y19070784D01*
X12440753Y19085721D01*
X12429321Y19097153D01*
X12414384Y19103340D01*
D02*
G37*
G36*
X19188370Y19136360D02*
X19165630D01*
X19143666Y19130475D01*
X19123975Y19119106D01*
X19107895Y19103026D01*
X19096526Y19083334D01*
X19090640Y19061369D01*
Y19038631D01*
X19096526Y19016666D01*
X19107895Y18996974D01*
X19123975Y18980894D01*
X19143666Y18969525D01*
X19165630Y18963640D01*
X19188370D01*
X19210333Y18969525D01*
X19230026Y18980894D01*
X19246104Y18996974D01*
X19257475Y19016666D01*
X19263361Y19038631D01*
Y19061369D01*
X19257475Y19083334D01*
X19246104Y19103026D01*
X19230026Y19119106D01*
X19210333Y19130475D01*
X19188370Y19136360D01*
D02*
G37*
G36*
X15886369D02*
X15863631D01*
X15841666Y19130475D01*
X15821974Y19119106D01*
X15805894Y19103026D01*
X15794525Y19083334D01*
X15788640Y19061369D01*
Y19038631D01*
X15794525Y19016666D01*
X15805894Y18996974D01*
X15821974Y18980894D01*
X15841666Y18969525D01*
X15863631Y18963640D01*
X15886369D01*
X15908334Y18969525D01*
X15928026Y18980894D01*
X15944106Y18996974D01*
X15955475Y19016666D01*
X15961360Y19038631D01*
Y19061369D01*
X15955475Y19083334D01*
X15944106Y19103026D01*
X15928026Y19119106D01*
X15908334Y19130475D01*
X15886369Y19136360D01*
D02*
G37*
G36*
X20802600Y19037300D02*
X20713699D01*
Y18948399D01*
X20714375D01*
X20740216Y18955324D01*
X20763383Y18968700D01*
X20782300Y18987616D01*
X20795676Y19010783D01*
X20802600Y19036624D01*
Y19037300D01*
D02*
G37*
G36*
X20688300D02*
X20599400D01*
Y19036624D01*
X20606323Y19010783D01*
X20619701Y18987616D01*
X20638615Y18968700D01*
X20661784Y18955324D01*
X20687624Y18948399D01*
X20688300D01*
Y19037300D01*
D02*
G37*
G36*
X20294600D02*
X20205701D01*
Y18948399D01*
X20206377D01*
X20232216Y18955324D01*
X20255383Y18968700D01*
X20274300Y18987616D01*
X20287675Y19010783D01*
X20294600Y19036624D01*
Y19037300D01*
D02*
G37*
G36*
X20180299D02*
X20091400D01*
Y19036624D01*
X20098325Y19010783D01*
X20111700Y18987616D01*
X20130617Y18968700D01*
X20153784Y18955324D01*
X20179623Y18948399D01*
X20180299D01*
Y19037300D01*
D02*
G37*
G36*
X19786600D02*
X19697701D01*
Y18948399D01*
X19698376D01*
X19724216Y18955324D01*
X19747385Y18968700D01*
X19766299Y18987616D01*
X19779675Y19010783D01*
X19786600Y19036624D01*
Y19037300D01*
D02*
G37*
G36*
X19672301D02*
X19583400D01*
Y19036624D01*
X19590324Y19010783D01*
X19603700Y18987616D01*
X19622617Y18968700D01*
X19645784Y18955324D01*
X19671625Y18948399D01*
X19672301D01*
Y19037300D01*
D02*
G37*
G36*
X18643600D02*
X18554700D01*
Y18948399D01*
X18555376D01*
X18581216Y18955324D01*
X18604384Y18968700D01*
X18623300Y18987616D01*
X18636676Y19010783D01*
X18643600Y19036624D01*
Y19037300D01*
D02*
G37*
G36*
X18529300D02*
X18440401D01*
Y19036624D01*
X18447324Y19010783D01*
X18460699Y18987616D01*
X18479616Y18968700D01*
X18502785Y18955324D01*
X18528624Y18948399D01*
X18529300D01*
Y19037300D01*
D02*
G37*
G36*
X18135600D02*
X18046700D01*
Y18948399D01*
X18047375D01*
X18073216Y18955324D01*
X18096384Y18968700D01*
X18115300Y18987616D01*
X18128676Y19010783D01*
X18135600Y19036624D01*
Y19037300D01*
D02*
G37*
G36*
X18021300D02*
X17932401D01*
Y19036624D01*
X17939323Y19010783D01*
X17952699Y18987616D01*
X17971616Y18968700D01*
X17994785Y18955324D01*
X18020624Y18948399D01*
X18021300D01*
Y19037300D01*
D02*
G37*
G36*
X17627600D02*
X17538699D01*
Y18948399D01*
X17539375D01*
X17565216Y18955324D01*
X17588383Y18968700D01*
X17607300Y18987616D01*
X17620676Y19010783D01*
X17627600Y19036624D01*
Y19037300D01*
D02*
G37*
G36*
X17513300D02*
X17424400D01*
Y19036624D01*
X17431323Y19010783D01*
X17444701Y18987616D01*
X17463615Y18968700D01*
X17486784Y18955324D01*
X17512624Y18948399D01*
X17513300D01*
Y19037300D01*
D02*
G37*
G36*
X17119600D02*
X17030701D01*
Y18948399D01*
X17031377D01*
X17057216Y18955324D01*
X17080383Y18968700D01*
X17099300Y18987616D01*
X17112675Y19010783D01*
X17119600Y19036624D01*
Y19037300D01*
D02*
G37*
G36*
X17005299D02*
X16916400D01*
Y19036624D01*
X16923325Y19010783D01*
X16936700Y18987616D01*
X16955617Y18968700D01*
X16978784Y18955324D01*
X17004623Y18948399D01*
X17005299D01*
Y19037300D01*
D02*
G37*
G36*
X16484599D02*
X16395700D01*
Y18948399D01*
X16396376D01*
X16422215Y18955324D01*
X16445384Y18968700D01*
X16464301Y18987616D01*
X16477676Y19010783D01*
X16484599Y19036624D01*
Y19037300D01*
D02*
G37*
G36*
X16370300D02*
X16281400D01*
Y19036624D01*
X16288324Y19010783D01*
X16301700Y18987616D01*
X16320616Y18968700D01*
X16343784Y18955324D01*
X16369624Y18948399D01*
X16370300D01*
Y19037300D01*
D02*
G37*
G36*
X15468600D02*
X15379700D01*
Y18948399D01*
X15380376D01*
X15406216Y18955324D01*
X15429384Y18968700D01*
X15448300Y18987616D01*
X15461676Y19010783D01*
X15468600Y19036624D01*
Y19037300D01*
D02*
G37*
G36*
X15354300D02*
X15265401D01*
Y19036624D01*
X15272324Y19010783D01*
X15285699Y18987616D01*
X15304616Y18968700D01*
X15327785Y18955324D01*
X15353624Y18948399D01*
X15354300D01*
Y19037300D01*
D02*
G37*
G36*
X14960600D02*
X14871700D01*
Y18948399D01*
X14872375D01*
X14898216Y18955324D01*
X14921384Y18968700D01*
X14940300Y18987616D01*
X14953676Y19010783D01*
X14960600Y19036624D01*
Y19037300D01*
D02*
G37*
G36*
X14846300D02*
X14757401D01*
Y19036624D01*
X14764323Y19010783D01*
X14777699Y18987616D01*
X14796616Y18968700D01*
X14819785Y18955324D01*
X14845624Y18948399D01*
X14846300D01*
Y19037300D01*
D02*
G37*
G36*
X8632997Y18869659D02*
X8613603D01*
X8594868Y18864639D01*
X8578072Y18854942D01*
X8564358Y18841228D01*
X8554660Y18824432D01*
X8549640Y18805698D01*
Y18786304D01*
X8554660Y18767567D01*
X8564358Y18750772D01*
X8578072Y18737057D01*
X8594868Y18727361D01*
X8613603Y18722340D01*
X8632997D01*
X8651732Y18727361D01*
X8668528Y18737057D01*
X8682242Y18750772D01*
X8691940Y18767567D01*
X8696960Y18786304D01*
Y18805698D01*
X8691940Y18824432D01*
X8682242Y18841228D01*
X8668528Y18854942D01*
X8651732Y18864639D01*
X8632997Y18869659D01*
D02*
G37*
G36*
X20714375Y18643600D02*
X20713699D01*
Y18554700D01*
X20802600D01*
Y18555376D01*
X20795676Y18581216D01*
X20782300Y18604384D01*
X20763383Y18623300D01*
X20740216Y18636676D01*
X20714375Y18643600D01*
D02*
G37*
G36*
X19698376D02*
X19697701D01*
Y18554700D01*
X19786600D01*
Y18555376D01*
X19779675Y18581216D01*
X19766299Y18604384D01*
X19747385Y18623300D01*
X19724216Y18636676D01*
X19698376Y18643600D01*
D02*
G37*
G36*
X19190376D02*
X19189700D01*
Y18554700D01*
X19278600D01*
Y18555376D01*
X19271677Y18581216D01*
X19258299Y18604384D01*
X19239384Y18623300D01*
X19216216Y18636676D01*
X19190376Y18643600D01*
D02*
G37*
G36*
X18555376D02*
X18554700D01*
Y18554700D01*
X18643600D01*
Y18555376D01*
X18636676Y18581216D01*
X18623300Y18604384D01*
X18604384Y18623300D01*
X18581216Y18636676D01*
X18555376Y18643600D01*
D02*
G37*
G36*
X18047375D02*
X18046700D01*
Y18554700D01*
X18135600D01*
Y18555376D01*
X18128676Y18581216D01*
X18115300Y18604384D01*
X18096384Y18623300D01*
X18073216Y18636676D01*
X18047375Y18643600D01*
D02*
G37*
G36*
X17539375D02*
X17538699D01*
Y18554700D01*
X17627600D01*
Y18555376D01*
X17620676Y18581216D01*
X17607300Y18604384D01*
X17588383Y18623300D01*
X17565216Y18636676D01*
X17539375Y18643600D01*
D02*
G37*
G36*
X18021300D02*
X18020624D01*
X17994785Y18636676D01*
X17971616Y18623300D01*
X17952699Y18604384D01*
X17939323Y18581216D01*
X17932401Y18555376D01*
Y18554700D01*
X18021300D01*
Y18643600D01*
D02*
G37*
G36*
X20688300D02*
X20687624D01*
X20661784Y18636676D01*
X20638615Y18623300D01*
X20619701Y18604384D01*
X20606323Y18581216D01*
X20599400Y18555376D01*
Y18554700D01*
X20688300D01*
Y18643600D01*
D02*
G37*
G36*
X19672301D02*
X19671625D01*
X19645784Y18636676D01*
X19622617Y18623300D01*
X19603700Y18604384D01*
X19590324Y18581216D01*
X19583400Y18555376D01*
Y18554700D01*
X19672301D01*
Y18643600D01*
D02*
G37*
G36*
X19164301D02*
X19163625D01*
X19137784Y18636676D01*
X19114616Y18623300D01*
X19095700Y18604384D01*
X19082324Y18581216D01*
X19075400Y18555376D01*
Y18554700D01*
X19164301D01*
Y18643600D01*
D02*
G37*
G36*
X18529300D02*
X18528624D01*
X18502785Y18636676D01*
X18479616Y18623300D01*
X18460699Y18604384D01*
X18447324Y18581216D01*
X18440401Y18555376D01*
Y18554700D01*
X18529300D01*
Y18643600D01*
D02*
G37*
G36*
X17513300D02*
X17512624D01*
X17486784Y18636676D01*
X17463615Y18623300D01*
X17444701Y18604384D01*
X17431323Y18581216D01*
X17424400Y18555376D01*
Y18554700D01*
X17513300D01*
Y18643600D01*
D02*
G37*
G36*
X20204370Y18628360D02*
X20181630D01*
X20159666Y18622475D01*
X20139973Y18611105D01*
X20123895Y18595026D01*
X20112524Y18575334D01*
X20106641Y18553371D01*
Y18530630D01*
X20112524Y18508665D01*
X20123895Y18488974D01*
X20139973Y18472894D01*
X20159666Y18461525D01*
X20181630Y18455640D01*
X20204370D01*
X20226334Y18461525D01*
X20246027Y18472894D01*
X20262105Y18488974D01*
X20273476Y18508665D01*
X20279359Y18530630D01*
Y18553371D01*
X20273476Y18575334D01*
X20262105Y18595026D01*
X20246027Y18611105D01*
X20226334Y18622475D01*
X20204370Y18628360D01*
D02*
G37*
G36*
X17029370D02*
X17006630D01*
X16984666Y18622475D01*
X16964973Y18611105D01*
X16948895Y18595026D01*
X16937524Y18575334D01*
X16931641Y18553371D01*
Y18530630D01*
X16937524Y18508665D01*
X16948895Y18488974D01*
X16964973Y18472894D01*
X16984666Y18461525D01*
X17006630Y18455640D01*
X17029370D01*
X17051334Y18461525D01*
X17071027Y18472894D01*
X17087105Y18488974D01*
X17098476Y18508665D01*
X17104359Y18530630D01*
Y18553371D01*
X17098476Y18575334D01*
X17087105Y18595026D01*
X17071027Y18611105D01*
X17051334Y18622475D01*
X17029370Y18628360D01*
D02*
G37*
G36*
X12862097Y18602960D02*
X12842703D01*
X12823969Y18597940D01*
X12807172Y18588242D01*
X12793458Y18574529D01*
X12783760Y18557732D01*
X12778740Y18538997D01*
Y18519603D01*
X12783760Y18500868D01*
X12793458Y18484071D01*
X12807172Y18470358D01*
X12823969Y18460660D01*
X12842703Y18455640D01*
X12862097D01*
X12880832Y18460660D01*
X12897627Y18470358D01*
X12911342Y18484071D01*
X12921040Y18500868D01*
X12926060Y18519603D01*
Y18538997D01*
X12921040Y18557732D01*
X12911342Y18574529D01*
X12897627Y18588242D01*
X12880832Y18597940D01*
X12862097Y18602960D01*
D02*
G37*
G36*
X20802600Y18529300D02*
X20713699D01*
Y18440401D01*
X20714375D01*
X20740216Y18447324D01*
X20763383Y18460699D01*
X20782300Y18479616D01*
X20795676Y18502785D01*
X20802600Y18528624D01*
Y18529300D01*
D02*
G37*
G36*
X20688300D02*
X20599400D01*
Y18528624D01*
X20606323Y18502785D01*
X20619701Y18479616D01*
X20638615Y18460699D01*
X20661784Y18447324D01*
X20687624Y18440401D01*
X20688300D01*
Y18529300D01*
D02*
G37*
G36*
X19786600D02*
X19697701D01*
Y18440401D01*
X19698376D01*
X19724216Y18447324D01*
X19747385Y18460699D01*
X19766299Y18479616D01*
X19779675Y18502785D01*
X19786600Y18528624D01*
Y18529300D01*
D02*
G37*
G36*
X19672301D02*
X19583400D01*
Y18528624D01*
X19590324Y18502785D01*
X19603700Y18479616D01*
X19622617Y18460699D01*
X19645784Y18447324D01*
X19671625Y18440401D01*
X19672301D01*
Y18529300D01*
D02*
G37*
G36*
X19278600D02*
X19189700D01*
Y18440401D01*
X19190376D01*
X19216216Y18447324D01*
X19239384Y18460699D01*
X19258299Y18479616D01*
X19271677Y18502785D01*
X19278600Y18528624D01*
Y18529300D01*
D02*
G37*
G36*
X19164301D02*
X19075400D01*
Y18528624D01*
X19082324Y18502785D01*
X19095700Y18479616D01*
X19114616Y18460699D01*
X19137784Y18447324D01*
X19163625Y18440401D01*
X19164301D01*
Y18529300D01*
D02*
G37*
G36*
X18643600D02*
X18554700D01*
Y18440401D01*
X18555376D01*
X18581216Y18447324D01*
X18604384Y18460699D01*
X18623300Y18479616D01*
X18636676Y18502785D01*
X18643600Y18528624D01*
Y18529300D01*
D02*
G37*
G36*
X18529300D02*
X18440401D01*
Y18528624D01*
X18447324Y18502785D01*
X18460699Y18479616D01*
X18479616Y18460699D01*
X18502785Y18447324D01*
X18528624Y18440401D01*
X18529300D01*
Y18529300D01*
D02*
G37*
G36*
X18135600D02*
X18046700D01*
Y18440401D01*
X18047375D01*
X18073216Y18447324D01*
X18096384Y18460699D01*
X18115300Y18479616D01*
X18128676Y18502785D01*
X18135600Y18528624D01*
Y18529300D01*
D02*
G37*
G36*
X18021300D02*
X17932401D01*
Y18528624D01*
X17939323Y18502785D01*
X17952699Y18479616D01*
X17971616Y18460699D01*
X17994785Y18447324D01*
X18020624Y18440401D01*
X18021300D01*
Y18529300D01*
D02*
G37*
G36*
X17627600D02*
X17538699D01*
Y18440401D01*
X17539375D01*
X17565216Y18447324D01*
X17588383Y18460699D01*
X17607300Y18479616D01*
X17620676Y18502785D01*
X17627600Y18528624D01*
Y18529300D01*
D02*
G37*
G36*
X17513300D02*
X17424400D01*
Y18528624D01*
X17431323Y18502785D01*
X17444701Y18479616D01*
X17463615Y18460699D01*
X17486784Y18447324D01*
X17512624Y18440401D01*
X17513300D01*
Y18529300D01*
D02*
G37*
G36*
X12203174Y18316451D02*
X12187006D01*
X12172069Y18310263D01*
X12160637Y18298831D01*
X12154450Y18283894D01*
Y18267726D01*
X12160637Y18252789D01*
X12172069Y18241357D01*
X12187006Y18235170D01*
X12203174D01*
X12218111Y18241357D01*
X12229543Y18252789D01*
X12235730Y18267726D01*
Y18283894D01*
X12229543Y18298831D01*
X12218111Y18310263D01*
X12203174Y18316451D01*
D02*
G37*
G36*
X18555376Y18135600D02*
X18554700D01*
Y18046700D01*
X18643600D01*
Y18047375D01*
X18636676Y18073216D01*
X18623300Y18096384D01*
X18604384Y18115300D01*
X18581216Y18128676D01*
X18555376Y18135600D01*
D02*
G37*
G36*
X17539375D02*
X17538699D01*
Y18046700D01*
X17627600D01*
Y18047375D01*
X17620676Y18073216D01*
X17607300Y18096384D01*
X17588383Y18115300D01*
X17565216Y18128676D01*
X17539375Y18135600D01*
D02*
G37*
G36*
X17031377D02*
X17030701D01*
Y18046700D01*
X17119600D01*
Y18047375D01*
X17112675Y18073216D01*
X17099300Y18096384D01*
X17080383Y18115300D01*
X17057216Y18128676D01*
X17031377Y18135600D01*
D02*
G37*
G36*
X17005299D02*
X17004623D01*
X16978784Y18128676D01*
X16955617Y18115300D01*
X16936700Y18096384D01*
X16923325Y18073216D01*
X16916400Y18047375D01*
Y18046700D01*
X17005299D01*
Y18135600D01*
D02*
G37*
G36*
X18529300D02*
X18528624D01*
X18502785Y18128676D01*
X18479616Y18115300D01*
X18460699Y18096384D01*
X18447324Y18073216D01*
X18440401Y18047375D01*
Y18046700D01*
X18529300D01*
Y18135600D01*
D02*
G37*
G36*
X17513300D02*
X17512624D01*
X17486784Y18128676D01*
X17463615Y18115300D01*
X17444701Y18096384D01*
X17431323Y18073216D01*
X17424400Y18047375D01*
Y18046700D01*
X17513300D01*
Y18135600D01*
D02*
G37*
G36*
X18045370Y18120360D02*
X18022630D01*
X18000665Y18114474D01*
X17980974Y18103105D01*
X17964896Y18087025D01*
X17953525Y18067334D01*
X17947639Y18045370D01*
Y18022630D01*
X17953525Y18000665D01*
X17964896Y17980974D01*
X17980974Y17964896D01*
X18000665Y17953525D01*
X18022630Y17947639D01*
X18045370D01*
X18067334Y17953525D01*
X18087025Y17964896D01*
X18103105Y17980974D01*
X18114474Y18000665D01*
X18120360Y18022630D01*
Y18045370D01*
X18114474Y18067334D01*
X18103105Y18087025D01*
X18087025Y18103105D01*
X18067334Y18114474D01*
X18045370Y18120360D01*
D02*
G37*
G36*
X18643600Y18021300D02*
X18554700D01*
Y17932401D01*
X18555376D01*
X18581216Y17939323D01*
X18604384Y17952699D01*
X18623300Y17971616D01*
X18636676Y17994785D01*
X18643600Y18020624D01*
Y18021300D01*
D02*
G37*
G36*
X18529300D02*
X18440401D01*
Y18020624D01*
X18447324Y17994785D01*
X18460699Y17971616D01*
X18479616Y17952699D01*
X18502785Y17939323D01*
X18528624Y17932401D01*
X18529300D01*
Y18021300D01*
D02*
G37*
G36*
X17627600D02*
X17538699D01*
Y17932401D01*
X17539375D01*
X17565216Y17939323D01*
X17588383Y17952699D01*
X17607300Y17971616D01*
X17620676Y17994785D01*
X17627600Y18020624D01*
Y18021300D01*
D02*
G37*
G36*
X17513300D02*
X17424400D01*
Y18020624D01*
X17431323Y17994785D01*
X17444701Y17971616D01*
X17463615Y17952699D01*
X17486784Y17939323D01*
X17512624Y17932401D01*
X17513300D01*
Y18021300D01*
D02*
G37*
G36*
X17119600D02*
X17030701D01*
Y17932401D01*
X17031377D01*
X17057216Y17939323D01*
X17080383Y17952699D01*
X17099300Y17971616D01*
X17112675Y17994785D01*
X17119600Y18020624D01*
Y18021300D01*
D02*
G37*
G36*
X17005299D02*
X16916400D01*
Y18020624D01*
X16923325Y17994785D01*
X16936700Y17971616D01*
X16955617Y17952699D01*
X16978784Y17939323D01*
X17004623Y17932401D01*
X17005299D01*
Y18021300D01*
D02*
G37*
G36*
X10636384Y17833340D02*
X10620216D01*
X10605279Y17827153D01*
X10593847Y17815721D01*
X10587660Y17800784D01*
Y17784616D01*
X10593847Y17769679D01*
X10605279Y17758247D01*
X10620216Y17752060D01*
X10636384D01*
X10651321Y17758247D01*
X10662753Y17769679D01*
X10668940Y17784616D01*
Y17800784D01*
X10662753Y17815721D01*
X10651321Y17827153D01*
X10636384Y17833340D01*
D02*
G37*
G36*
X20595087Y17860400D02*
X20586900D01*
Y17607701D01*
X20839600D01*
Y17615887D01*
X20833064Y17657149D01*
X20820155Y17696878D01*
X20801190Y17734100D01*
X20776636Y17767897D01*
X20747096Y17797437D01*
X20713300Y17821991D01*
X20676077Y17840956D01*
X20636348Y17853865D01*
X20595087Y17860400D01*
D02*
G37*
G36*
X20561501D02*
X20553313D01*
X20512051Y17853865D01*
X20472322Y17840956D01*
X20435100Y17821991D01*
X20401303Y17797437D01*
X20371764Y17767897D01*
X20347209Y17734100D01*
X20328244Y17696878D01*
X20315335Y17657149D01*
X20308800Y17615887D01*
Y17607701D01*
X20561501D01*
Y17860400D01*
D02*
G37*
G36*
X20839600Y17582301D02*
X20586900D01*
Y17329601D01*
X20595087D01*
X20636348Y17336134D01*
X20676077Y17349043D01*
X20713300Y17368010D01*
X20747096Y17392564D01*
X20776636Y17422104D01*
X20801190Y17455901D01*
X20820155Y17493121D01*
X20833064Y17532852D01*
X20839600Y17574113D01*
Y17582301D01*
D02*
G37*
G36*
X20561501D02*
X20308800D01*
Y17574113D01*
X20315335Y17532852D01*
X20328244Y17493121D01*
X20347209Y17455901D01*
X20371764Y17422104D01*
X20401303Y17392564D01*
X20435100Y17368010D01*
X20472322Y17349043D01*
X20512051Y17336134D01*
X20553313Y17329601D01*
X20561501D01*
Y17582301D01*
D02*
G37*
G36*
X3792684Y17388840D02*
X3776516D01*
X3761579Y17382652D01*
X3750147Y17371220D01*
X3743960Y17356284D01*
Y17340115D01*
X3750147Y17325179D01*
X3761579Y17313747D01*
X3776516Y17307561D01*
X3792684D01*
X3807621Y17313747D01*
X3819053Y17325179D01*
X3825240Y17340115D01*
Y17356284D01*
X3819053Y17371220D01*
X3807621Y17382652D01*
X3792684Y17388840D01*
D02*
G37*
G36*
X3381636Y17410429D02*
X3378200D01*
Y17259300D01*
X3529330D01*
Y17262737D01*
X3523034Y17294388D01*
X3510684Y17324203D01*
X3492755Y17351036D01*
X3469936Y17373856D01*
X3443103Y17391785D01*
X3413288Y17404134D01*
X3381636Y17410429D01*
D02*
G37*
G36*
X3352800D02*
X3349364D01*
X3317712Y17404134D01*
X3287897Y17391785D01*
X3261064Y17373856D01*
X3238245Y17351036D01*
X3220316Y17324203D01*
X3207966Y17294388D01*
X3201670Y17262737D01*
Y17259300D01*
X3352800D01*
Y17410429D01*
D02*
G37*
G36*
X11084097Y17332961D02*
X11064703D01*
X11045968Y17327940D01*
X11029172Y17318242D01*
X11015458Y17304527D01*
X11005760Y17287732D01*
X11000740Y17268997D01*
Y17249603D01*
X11005760Y17230869D01*
X11015458Y17214072D01*
X11029172Y17200359D01*
X11045968Y17190660D01*
X11064703Y17185640D01*
X11084097D01*
X11102832Y17190660D01*
X11119628Y17200359D01*
X11133342Y17214072D01*
X11143040Y17230869D01*
X11148060Y17249603D01*
Y17268997D01*
X11143040Y17287732D01*
X11133342Y17304527D01*
X11119628Y17318242D01*
X11102832Y17327940D01*
X11084097Y17332961D01*
D02*
G37*
G36*
X3529330Y17233900D02*
X3378200D01*
Y17082770D01*
X3381636D01*
X3413288Y17089066D01*
X3443103Y17101416D01*
X3469936Y17119345D01*
X3492755Y17142165D01*
X3510684Y17168997D01*
X3523034Y17198811D01*
X3529330Y17230464D01*
Y17233900D01*
D02*
G37*
G36*
X3352800D02*
X3201670D01*
Y17230464D01*
X3207966Y17198811D01*
X3220316Y17168997D01*
X3238245Y17142165D01*
X3261064Y17119345D01*
X3287897Y17101416D01*
X3317712Y17089066D01*
X3349364Y17082770D01*
X3352800D01*
Y17233900D01*
D02*
G37*
G36*
X10425174Y17046449D02*
X10409006D01*
X10394069Y17040263D01*
X10382637Y17028831D01*
X10376450Y17013895D01*
Y16997726D01*
X10382637Y16982790D01*
X10394069Y16971358D01*
X10409006Y16965170D01*
X10425174D01*
X10440111Y16971358D01*
X10451543Y16982790D01*
X10457730Y16997726D01*
Y17013895D01*
X10451543Y17028831D01*
X10440111Y17040263D01*
X10425174Y17046449D01*
D02*
G37*
G36*
X13254184Y22506940D02*
X13238016D01*
X13223079Y22500752D01*
X13211647Y22489320D01*
X13205460Y22474384D01*
Y22458215D01*
X13211647Y22443279D01*
X13223079Y22431847D01*
X13238016Y22425661D01*
X13254184D01*
X13258514Y22427454D01*
X13365572D01*
X13461253Y22331772D01*
Y19481799D01*
X13464211Y19466934D01*
X13472630Y19454330D01*
X16190932Y16736032D01*
X16203534Y16727611D01*
X16218401Y16724654D01*
X20378845D01*
X20384290Y16704333D01*
X20375305Y16699146D01*
X20358054Y16681894D01*
X20345856Y16660767D01*
X20339540Y16637199D01*
Y16612801D01*
X20345856Y16589235D01*
X20358054Y16568106D01*
X20375305Y16550854D01*
X20396434Y16538655D01*
X20420001Y16532339D01*
X20444398D01*
X20467966Y16538655D01*
X20489095Y16550854D01*
X20506346Y16568106D01*
X20518546Y16589235D01*
X20524860Y16612801D01*
Y16637199D01*
X20518546Y16660767D01*
X20506346Y16681894D01*
X20489095Y16699146D01*
X20480110Y16704333D01*
X20485555Y16724654D01*
X20631633D01*
X20642053Y16706606D01*
X20659305Y16689354D01*
X20680434Y16677155D01*
X20704001Y16670840D01*
X20728400D01*
X20751965Y16677155D01*
X20773094Y16689354D01*
X20790346Y16706606D01*
X20802545Y16727734D01*
X20808859Y16751302D01*
Y16775699D01*
X20802545Y16799266D01*
X20790346Y16820395D01*
X20773094Y16837646D01*
X20751965Y16849844D01*
X20728400Y16856160D01*
X20704001D01*
X20680434Y16849844D01*
X20659305Y16837646D01*
X20642053Y16820395D01*
X20631633Y16802347D01*
X20485555D01*
X20480110Y16822667D01*
X20489095Y16827853D01*
X20506346Y16845107D01*
X20518546Y16866234D01*
X20524860Y16889801D01*
Y16914198D01*
X20518546Y16937766D01*
X20506346Y16958894D01*
X20489095Y16976146D01*
X20467966Y16988345D01*
X20444398Y16994659D01*
X20420001D01*
X20396434Y16988345D01*
X20375305Y16976146D01*
X20358054Y16958894D01*
X20345856Y16937766D01*
X20339540Y16914198D01*
Y16889801D01*
X20345856Y16866234D01*
X20358054Y16845107D01*
X20375305Y16827853D01*
X20384290Y16822667D01*
X20378845Y16802347D01*
X16234491D01*
X13538947Y19497891D01*
Y22347862D01*
X13535989Y22362729D01*
X13527570Y22375331D01*
X13409131Y22493768D01*
X13396529Y22502190D01*
X13381664Y22505147D01*
X13258514D01*
X13254184Y22506940D01*
D02*
G37*
G36*
X3568700Y16524615D02*
Y16459200D01*
X3634115D01*
X3629374Y16476894D01*
X3619008Y16494847D01*
X3604347Y16509508D01*
X3586393Y16519875D01*
X3568700Y16524615D01*
D02*
G37*
G36*
X3543300D02*
X3525607Y16519875D01*
X3507653Y16509508D01*
X3492992Y16494847D01*
X3482626Y16476894D01*
X3477885Y16459200D01*
X3543300D01*
Y16524615D01*
D02*
G37*
G36*
X20728400Y16579160D02*
X20704001D01*
X20680434Y16572845D01*
X20659305Y16560648D01*
X20642053Y16543394D01*
X20629855Y16522266D01*
X20623540Y16498698D01*
Y16474301D01*
X20629855Y16450735D01*
X20642053Y16429607D01*
X20659305Y16412354D01*
X20680434Y16400156D01*
X20704001Y16393840D01*
X20728400D01*
X20751965Y16400156D01*
X20773094Y16412354D01*
X20790346Y16429607D01*
X20802545Y16450735D01*
X20808859Y16474301D01*
Y16498698D01*
X20802545Y16522266D01*
X20790346Y16543394D01*
X20773094Y16560648D01*
X20751965Y16572845D01*
X20728400Y16579160D01*
D02*
G37*
G36*
X3187631Y16510001D02*
X3162369D01*
X3139030Y16500333D01*
X3121167Y16482471D01*
X3111500Y16459131D01*
Y16433868D01*
X3121167Y16410530D01*
X3139030Y16392667D01*
X3162369Y16383000D01*
X3187631D01*
X3210970Y16392667D01*
X3228833Y16410530D01*
X3238500Y16433868D01*
Y16459131D01*
X3228833Y16482471D01*
X3210970Y16500333D01*
X3187631Y16510001D01*
D02*
G37*
G36*
X3634115Y16433800D02*
X3568700D01*
Y16368385D01*
X3586393Y16373126D01*
X3604347Y16383492D01*
X3619008Y16398154D01*
X3629374Y16416107D01*
X3634115Y16433800D01*
D02*
G37*
G36*
X3543300D02*
X3477885D01*
X3482626Y16416107D01*
X3492992Y16398154D01*
X3507653Y16383492D01*
X3525607Y16373126D01*
X3543300Y16368385D01*
Y16433800D01*
D02*
G37*
G36*
X3378200Y16397615D02*
Y16332201D01*
X3443615D01*
X3438874Y16349893D01*
X3428508Y16367847D01*
X3413847Y16382507D01*
X3395893Y16392874D01*
X3378200Y16397615D01*
D02*
G37*
G36*
X3352800D02*
X3335107Y16392874D01*
X3317153Y16382507D01*
X3302492Y16367847D01*
X3292126Y16349893D01*
X3287385Y16332201D01*
X3352800D01*
Y16397615D01*
D02*
G37*
G36*
X2997131Y16383000D02*
X2971869D01*
X2948530Y16373334D01*
X2930667Y16355470D01*
X2921000Y16332130D01*
Y16306870D01*
X2930667Y16283530D01*
X2948530Y16265668D01*
X2971869Y16256000D01*
X2997131D01*
X3020470Y16265668D01*
X3038333Y16283530D01*
X3048000Y16306870D01*
Y16332130D01*
X3038333Y16355470D01*
X3020470Y16373334D01*
X2997131Y16383000D01*
D02*
G37*
G36*
X3443615Y16306799D02*
X3378200D01*
Y16241385D01*
X3395893Y16246126D01*
X3413847Y16256493D01*
X3428508Y16271153D01*
X3438874Y16289107D01*
X3443615Y16306799D01*
D02*
G37*
G36*
X3352800D02*
X3287385D01*
X3292126Y16289107D01*
X3302492Y16271153D01*
X3317153Y16256493D01*
X3335107Y16246126D01*
X3352800Y16241385D01*
Y16306799D01*
D02*
G37*
G36*
X3568700Y16270615D02*
Y16205200D01*
X3634115D01*
X3629374Y16222893D01*
X3619008Y16240846D01*
X3604347Y16255508D01*
X3586393Y16265874D01*
X3568700Y16270615D01*
D02*
G37*
G36*
X3543300D02*
X3525607Y16265874D01*
X3507653Y16255508D01*
X3492992Y16240846D01*
X3482626Y16222893D01*
X3477885Y16205200D01*
X3543300D01*
Y16270615D01*
D02*
G37*
G36*
X6854997Y16329660D02*
X6835603D01*
X6816868Y16324640D01*
X6800072Y16314941D01*
X6786358Y16301228D01*
X6776660Y16284431D01*
X6771640Y16265697D01*
Y16246303D01*
X6776660Y16227568D01*
X6786358Y16210773D01*
X6800072Y16197058D01*
X6816868Y16187360D01*
X6835603Y16182339D01*
X6854997D01*
X6873732Y16187360D01*
X6890528Y16197058D01*
X6904242Y16210773D01*
X6913940Y16227568D01*
X6918960Y16246303D01*
Y16265697D01*
X6913940Y16284431D01*
X6904242Y16301228D01*
X6890528Y16314941D01*
X6873732Y16324640D01*
X6854997Y16329660D01*
D02*
G37*
G36*
X3187631Y16256000D02*
X3162369D01*
X3139030Y16246333D01*
X3121167Y16228470D01*
X3111500Y16205132D01*
Y16179869D01*
X3121167Y16156531D01*
X3139030Y16138667D01*
X3162369Y16128999D01*
X3187631D01*
X3210970Y16138667D01*
X3228833Y16156531D01*
X3238500Y16179869D01*
Y16205132D01*
X3228833Y16228470D01*
X3210970Y16246333D01*
X3187631Y16256000D01*
D02*
G37*
G36*
X3634115Y16179800D02*
X3568700D01*
Y16114384D01*
X3586393Y16119125D01*
X3604347Y16129492D01*
X3619008Y16144153D01*
X3629374Y16162106D01*
X3634115Y16179800D01*
D02*
G37*
G36*
X3543300D02*
X3477885D01*
X3482626Y16162106D01*
X3492992Y16144153D01*
X3507653Y16129492D01*
X3525607Y16119125D01*
X3543300Y16114384D01*
Y16179800D01*
D02*
G37*
G36*
X3378200Y16143616D02*
Y16078200D01*
X3443615D01*
X3438874Y16095892D01*
X3428508Y16113847D01*
X3413847Y16128508D01*
X3395893Y16138873D01*
X3378200Y16143616D01*
D02*
G37*
G36*
X3352800D02*
X3335107Y16138873D01*
X3317153Y16128508D01*
X3302492Y16113847D01*
X3292126Y16095892D01*
X3287385Y16078200D01*
X3352800D01*
Y16143616D01*
D02*
G37*
G36*
X2997131Y16128999D02*
X2971869D01*
X2948530Y16119333D01*
X2930667Y16101469D01*
X2921000Y16078131D01*
Y16052869D01*
X2930667Y16029530D01*
X2948530Y16011667D01*
X2971869Y16002000D01*
X2997131D01*
X3020470Y16011667D01*
X3038333Y16029530D01*
X3048000Y16052869D01*
Y16078131D01*
X3038333Y16101469D01*
X3020470Y16119333D01*
X2997131Y16128999D01*
D02*
G37*
G36*
X3443615Y16052800D02*
X3378200D01*
Y15987386D01*
X3395893Y15992126D01*
X3413847Y16002492D01*
X3428508Y16017152D01*
X3438874Y16035107D01*
X3443615Y16052800D01*
D02*
G37*
G36*
X3352800D02*
X3287385D01*
X3292126Y16035107D01*
X3302492Y16017152D01*
X3317153Y16002492D01*
X3335107Y15992126D01*
X3352800Y15987386D01*
Y16052800D01*
D02*
G37*
G36*
X13279584Y18303239D02*
X13263416D01*
X13248479Y18297054D01*
X13237047Y18285622D01*
X13230859Y18270683D01*
Y18254517D01*
X13237047Y18239578D01*
X13248479Y18228146D01*
X13263416Y18221960D01*
X13279584D01*
X13283914Y18223753D01*
X13852309D01*
X15894031Y16182031D01*
X15906635Y16173611D01*
X15921500Y16170654D01*
X20378845D01*
X20384290Y16150334D01*
X20375305Y16145148D01*
X20358054Y16127895D01*
X20345856Y16106766D01*
X20339540Y16083199D01*
Y16058801D01*
X20345856Y16035236D01*
X20358054Y16014107D01*
X20375305Y15996854D01*
X20384290Y15991667D01*
X20378845Y15971347D01*
X14119090D01*
X12676669Y17413770D01*
X12664066Y17422189D01*
X12649200Y17425146D01*
X11480514D01*
X11476184Y17426939D01*
X11460016D01*
X11445079Y17420753D01*
X11433647Y17409322D01*
X11427460Y17394383D01*
Y17378217D01*
X11433647Y17363280D01*
X11445079Y17351846D01*
X11460016Y17345660D01*
X11476184D01*
X11480514Y17347453D01*
X12633109D01*
X14075531Y15905031D01*
X14088133Y15896611D01*
X14103000Y15893654D01*
X20378845D01*
X20384290Y15873334D01*
X20375305Y15868147D01*
X20358054Y15850896D01*
X20345856Y15829765D01*
X20339540Y15806200D01*
Y15781801D01*
X20345856Y15758235D01*
X20358054Y15737106D01*
X20375305Y15719855D01*
X20384290Y15714667D01*
X20378845Y15694347D01*
X14055299D01*
X14040434Y15691389D01*
X14027832Y15682970D01*
X13227409Y14882547D01*
X13223079Y14880753D01*
X13211647Y14869321D01*
X13205460Y14854384D01*
Y14838216D01*
X13211647Y14823279D01*
X13223079Y14811847D01*
X13238016Y14805659D01*
X13254184D01*
X13269121Y14811847D01*
X13280553Y14823279D01*
X13282347Y14827609D01*
X14071391Y15616653D01*
X20350523D01*
X20358940Y15596333D01*
X20345857Y15583252D01*
X20331653Y15558649D01*
X20324300Y15531206D01*
Y15529701D01*
X20432199D01*
X20540100D01*
Y15531206D01*
X20532747Y15558649D01*
X20518541Y15583252D01*
X20505460Y15596333D01*
X20513876Y15616653D01*
X20631633D01*
X20642053Y15598605D01*
X20659305Y15581354D01*
X20680434Y15569154D01*
X20704001Y15562840D01*
X20728400D01*
X20751965Y15569154D01*
X20773094Y15581354D01*
X20790346Y15598605D01*
X20802545Y15619736D01*
X20808859Y15643301D01*
Y15667699D01*
X20802545Y15691266D01*
X20790346Y15712395D01*
X20773094Y15729646D01*
X20751965Y15741846D01*
X20728400Y15748160D01*
X20704001D01*
X20680434Y15741846D01*
X20659305Y15729646D01*
X20642053Y15712395D01*
X20631633Y15694347D01*
X20485555D01*
X20480110Y15714667D01*
X20489095Y15719855D01*
X20506346Y15737106D01*
X20518546Y15758235D01*
X20524860Y15781801D01*
Y15806200D01*
X20518546Y15829765D01*
X20506346Y15850896D01*
X20489095Y15868147D01*
X20480110Y15873334D01*
X20485555Y15893654D01*
X20631633D01*
X20642053Y15875606D01*
X20659305Y15858354D01*
X20680434Y15846155D01*
X20704001Y15839841D01*
X20728400D01*
X20751965Y15846155D01*
X20773094Y15858354D01*
X20790346Y15875606D01*
X20802545Y15896735D01*
X20808859Y15920300D01*
Y15944699D01*
X20802545Y15968265D01*
X20790346Y15989394D01*
X20773094Y16006647D01*
X20751965Y16018845D01*
X20728400Y16025160D01*
X20704001D01*
X20680434Y16018845D01*
X20659305Y16006647D01*
X20642053Y15989394D01*
X20631633Y15971347D01*
X20485555D01*
X20480110Y15991667D01*
X20489095Y15996854D01*
X20506346Y16014107D01*
X20518546Y16035236D01*
X20524860Y16058801D01*
Y16083199D01*
X20518546Y16106766D01*
X20506346Y16127895D01*
X20489095Y16145148D01*
X20480110Y16150334D01*
X20485555Y16170654D01*
X20631633D01*
X20642053Y16152606D01*
X20659305Y16135355D01*
X20680434Y16123155D01*
X20704001Y16116840D01*
X20728400D01*
X20751965Y16123155D01*
X20773094Y16135355D01*
X20790346Y16152606D01*
X20802545Y16173735D01*
X20808859Y16197301D01*
Y16221700D01*
X20802545Y16245267D01*
X20790346Y16266396D01*
X20773094Y16283647D01*
X20751965Y16295845D01*
X20728400Y16302161D01*
X20704001D01*
X20680434Y16295845D01*
X20659305Y16283647D01*
X20642053Y16266396D01*
X20631633Y16248347D01*
X20485555D01*
X20480110Y16268668D01*
X20489095Y16273854D01*
X20506346Y16291106D01*
X20518546Y16312234D01*
X20524860Y16335802D01*
Y16360199D01*
X20518546Y16383766D01*
X20506346Y16404895D01*
X20489095Y16422147D01*
X20467966Y16434344D01*
X20444398Y16440660D01*
X20420001D01*
X20396434Y16434344D01*
X20375305Y16422147D01*
X20358054Y16404895D01*
X20345856Y16383766D01*
X20339540Y16360199D01*
Y16335802D01*
X20345856Y16312234D01*
X20358054Y16291106D01*
X20375305Y16273854D01*
X20384290Y16268668D01*
X20378845Y16248347D01*
X15937590D01*
X13895869Y18290070D01*
X13883266Y18298489D01*
X13868401Y18301447D01*
X13283914D01*
X13279584Y18303239D01*
D02*
G37*
G36*
X3568700Y16016615D02*
Y15951199D01*
X3634115D01*
X3629374Y15968893D01*
X3619008Y15986847D01*
X3604347Y16001508D01*
X3586393Y16011874D01*
X3568700Y16016615D01*
D02*
G37*
G36*
X3543300D02*
X3525607Y16011874D01*
X3507653Y16001508D01*
X3492992Y15986847D01*
X3482626Y15968893D01*
X3477885Y15951199D01*
X3543300D01*
Y16016615D01*
D02*
G37*
G36*
X3187631Y16002000D02*
X3162369D01*
X3139030Y15992332D01*
X3121167Y15974471D01*
X3111500Y15951131D01*
Y15925870D01*
X3121167Y15902530D01*
X3139030Y15884666D01*
X3162369Y15875000D01*
X3187631D01*
X3210970Y15884666D01*
X3228833Y15902530D01*
X3238500Y15925870D01*
Y15951131D01*
X3228833Y15974471D01*
X3210970Y15992332D01*
X3187631Y16002000D01*
D02*
G37*
G36*
X3634115Y15925800D02*
X3568700D01*
Y15860385D01*
X3586393Y15865126D01*
X3604347Y15875491D01*
X3619008Y15890154D01*
X3629374Y15908107D01*
X3634115Y15925800D01*
D02*
G37*
G36*
X3543300D02*
X3477885D01*
X3482626Y15908107D01*
X3492992Y15890154D01*
X3507653Y15875491D01*
X3525607Y15865126D01*
X3543300Y15860385D01*
Y15925800D01*
D02*
G37*
G36*
X3378200Y15889615D02*
Y15824200D01*
X3443615D01*
X3438874Y15841893D01*
X3428508Y15859846D01*
X3413847Y15874509D01*
X3395893Y15884874D01*
X3378200Y15889615D01*
D02*
G37*
G36*
X3352800D02*
X3335107Y15884874D01*
X3317153Y15874509D01*
X3302492Y15859846D01*
X3292126Y15841893D01*
X3287385Y15824200D01*
X3352800D01*
Y15889615D01*
D02*
G37*
G36*
X2997131Y15875000D02*
X2971869D01*
X2948530Y15865334D01*
X2930667Y15847470D01*
X2921000Y15824130D01*
Y15798869D01*
X2930667Y15775529D01*
X2948530Y15757668D01*
X2971869Y15748000D01*
X2997131D01*
X3020470Y15757668D01*
X3038333Y15775529D01*
X3048000Y15798869D01*
Y15824130D01*
X3038333Y15847470D01*
X3020470Y15865334D01*
X2997131Y15875000D01*
D02*
G37*
G36*
X3443615Y15798801D02*
X3378200D01*
Y15733385D01*
X3395893Y15738126D01*
X3413847Y15748492D01*
X3428508Y15763153D01*
X3438874Y15781107D01*
X3443615Y15798801D01*
D02*
G37*
G36*
X3352800D02*
X3287385D01*
X3292126Y15781107D01*
X3302492Y15763153D01*
X3317153Y15748492D01*
X3335107Y15738126D01*
X3352800Y15733385D01*
Y15798801D01*
D02*
G37*
G36*
X3568700Y15762614D02*
Y15697200D01*
X3634115D01*
X3629374Y15714893D01*
X3619008Y15732848D01*
X3604347Y15747508D01*
X3586393Y15757874D01*
X3568700Y15762614D01*
D02*
G37*
G36*
X3543300D02*
X3525607Y15757874D01*
X3507653Y15747508D01*
X3492992Y15732848D01*
X3482626Y15714893D01*
X3477885Y15697200D01*
X3543300D01*
Y15762614D01*
D02*
G37*
G36*
X3187631Y15748000D02*
X3162369D01*
X3139030Y15738333D01*
X3121167Y15720470D01*
X3111500Y15697131D01*
Y15671869D01*
X3121167Y15648531D01*
X3139030Y15630667D01*
X3162369Y15621001D01*
X3187631D01*
X3210970Y15630667D01*
X3228833Y15648531D01*
X3238500Y15671869D01*
Y15697131D01*
X3228833Y15720470D01*
X3210970Y15738333D01*
X3187631Y15748000D01*
D02*
G37*
G36*
X3634115Y15671800D02*
X3568700D01*
Y15606384D01*
X3586393Y15611127D01*
X3604347Y15621492D01*
X3619008Y15636153D01*
X3629374Y15654108D01*
X3634115Y15671800D01*
D02*
G37*
G36*
X3543300D02*
X3477885D01*
X3482626Y15654108D01*
X3492992Y15636153D01*
X3507653Y15621492D01*
X3525607Y15611127D01*
X3543300Y15606384D01*
Y15671800D01*
D02*
G37*
G36*
X3378200Y15635616D02*
Y15570200D01*
X3443615D01*
X3438874Y15587894D01*
X3428508Y15605847D01*
X3413847Y15620508D01*
X3395893Y15630875D01*
X3378200Y15635616D01*
D02*
G37*
G36*
X3352800D02*
X3335107Y15630875D01*
X3317153Y15620508D01*
X3302492Y15605847D01*
X3292126Y15587894D01*
X3287385Y15570200D01*
X3352800D01*
Y15635616D01*
D02*
G37*
G36*
X2997131Y15621001D02*
X2971869D01*
X2948530Y15611333D01*
X2930667Y15593469D01*
X2921000Y15570131D01*
Y15544868D01*
X2930667Y15521530D01*
X2948530Y15503667D01*
X2971869Y15494000D01*
X2997131D01*
X3020470Y15503667D01*
X3038333Y15521530D01*
X3048000Y15544868D01*
Y15570131D01*
X3038333Y15593469D01*
X3020470Y15611333D01*
X2997131Y15621001D01*
D02*
G37*
G36*
X3443615Y15544800D02*
X3378200D01*
Y15479385D01*
X3395893Y15484126D01*
X3413847Y15494492D01*
X3428508Y15509154D01*
X3438874Y15527107D01*
X3443615Y15544800D01*
D02*
G37*
G36*
X3352800D02*
X3287385D01*
X3292126Y15527107D01*
X3302492Y15509154D01*
X3317153Y15494492D01*
X3335107Y15484126D01*
X3352800Y15479385D01*
Y15544800D01*
D02*
G37*
G36*
X3568700Y15508615D02*
Y15443201D01*
X3634115D01*
X3629374Y15460893D01*
X3619008Y15478847D01*
X3604347Y15493507D01*
X3586393Y15503874D01*
X3568700Y15508615D01*
D02*
G37*
G36*
X3543300D02*
X3525607Y15503874D01*
X3507653Y15493507D01*
X3492992Y15478847D01*
X3482626Y15460893D01*
X3477885Y15443201D01*
X3543300D01*
Y15508615D01*
D02*
G37*
G36*
X20540100Y15504301D02*
X20444899D01*
Y15409100D01*
X20446405D01*
X20473848Y15416454D01*
X20498453Y15430659D01*
X20518541Y15450748D01*
X20532747Y15475352D01*
X20540100Y15502795D01*
Y15504301D01*
D02*
G37*
G36*
X20419499D02*
X20324300D01*
Y15502795D01*
X20331653Y15475352D01*
X20345857Y15450748D01*
X20365948Y15430659D01*
X20390552Y15416454D01*
X20417995Y15409100D01*
X20419499D01*
Y15504301D01*
D02*
G37*
G36*
X20730405Y15486400D02*
X20728899D01*
Y15391200D01*
X20824100D01*
Y15392705D01*
X20816747Y15420148D01*
X20802541Y15444753D01*
X20782452Y15464842D01*
X20757848Y15479047D01*
X20730405Y15486400D01*
D02*
G37*
G36*
X20703499D02*
X20701994D01*
X20674551Y15479047D01*
X20649948Y15464842D01*
X20629858Y15444753D01*
X20615652Y15420148D01*
X20608299Y15392705D01*
Y15391200D01*
X20703499D01*
Y15486400D01*
D02*
G37*
G36*
X3187631Y15494000D02*
X3162369D01*
X3139030Y15484332D01*
X3121167Y15466470D01*
X3111500Y15443130D01*
Y15417870D01*
X3121167Y15394530D01*
X3139030Y15376666D01*
X3162369Y15367000D01*
X3187631D01*
X3210970Y15376666D01*
X3228833Y15394530D01*
X3238500Y15417870D01*
Y15443130D01*
X3228833Y15466470D01*
X3210970Y15484332D01*
X3187631Y15494000D01*
D02*
G37*
G36*
X3634115Y15417799D02*
X3568700D01*
Y15352385D01*
X3586393Y15357126D01*
X3604347Y15367493D01*
X3619008Y15382153D01*
X3629374Y15400107D01*
X3634115Y15417799D01*
D02*
G37*
G36*
X3543300D02*
X3477885D01*
X3482626Y15400107D01*
X3492992Y15382153D01*
X3507653Y15367493D01*
X3525607Y15357126D01*
X3543300Y15352385D01*
Y15417799D01*
D02*
G37*
G36*
X3378200Y15381615D02*
Y15316200D01*
X3443615D01*
X3438874Y15333893D01*
X3428508Y15351846D01*
X3413847Y15366508D01*
X3395893Y15376874D01*
X3378200Y15381615D01*
D02*
G37*
G36*
X3352800D02*
X3335107Y15376874D01*
X3317153Y15366508D01*
X3302492Y15351846D01*
X3292126Y15333893D01*
X3287385Y15316200D01*
X3352800D01*
Y15381615D01*
D02*
G37*
G36*
X20824100Y15365800D02*
X20728899D01*
Y15270599D01*
X20730405D01*
X20757848Y15277953D01*
X20782452Y15292159D01*
X20802541Y15312248D01*
X20816747Y15336852D01*
X20824100Y15364294D01*
Y15365800D01*
D02*
G37*
G36*
X20703499D02*
X20608299D01*
Y15364294D01*
X20615652Y15336852D01*
X20629858Y15312248D01*
X20649948Y15292159D01*
X20674551Y15277953D01*
X20701994Y15270599D01*
X20703499D01*
Y15365800D01*
D02*
G37*
G36*
X20446405Y15347900D02*
X20444899D01*
Y15252701D01*
X20540100D01*
Y15254205D01*
X20532747Y15281648D01*
X20518541Y15306252D01*
X20498453Y15326341D01*
X20473848Y15340547D01*
X20446405Y15347900D01*
D02*
G37*
G36*
X20419499D02*
X20417995D01*
X20390552Y15340547D01*
X20365948Y15326341D01*
X20345857Y15306252D01*
X20331653Y15281648D01*
X20324300Y15254205D01*
Y15252701D01*
X20419499D01*
Y15347900D01*
D02*
G37*
G36*
X2997131Y15367000D02*
X2971869D01*
X2948530Y15357333D01*
X2930667Y15339470D01*
X2921000Y15316132D01*
Y15290869D01*
X2930667Y15267529D01*
X2948530Y15249667D01*
X2971869Y15239999D01*
X2997131D01*
X3020470Y15249667D01*
X3038333Y15267529D01*
X3048000Y15290869D01*
Y15316132D01*
X3038333Y15339470D01*
X3020470Y15357333D01*
X2997131Y15367000D01*
D02*
G37*
G36*
X3443615Y15290800D02*
X3378200D01*
Y15225385D01*
X3395893Y15230125D01*
X3413847Y15240492D01*
X3428508Y15255153D01*
X3438874Y15273106D01*
X3443615Y15290800D01*
D02*
G37*
G36*
X3352800D02*
X3287385D01*
X3292126Y15273106D01*
X3302492Y15255153D01*
X3317153Y15240492D01*
X3335107Y15230125D01*
X3352800Y15225385D01*
Y15290800D01*
D02*
G37*
G36*
X12414384Y15293340D02*
X12398216D01*
X12383279Y15287154D01*
X12371847Y15275722D01*
X12365660Y15260783D01*
Y15244617D01*
X12371847Y15229678D01*
X12383279Y15218246D01*
X12398216Y15212061D01*
X12414384D01*
X12429321Y15218246D01*
X12440753Y15229678D01*
X12446940Y15244617D01*
Y15260783D01*
X12440753Y15275722D01*
X12429321Y15287154D01*
X12414384Y15293340D01*
D02*
G37*
G36*
X3568700Y15254614D02*
Y15189200D01*
X3634115D01*
X3629374Y15206892D01*
X3619008Y15224847D01*
X3604347Y15239508D01*
X3586393Y15249873D01*
X3568700Y15254614D01*
D02*
G37*
G36*
X3543300D02*
X3525607Y15249873D01*
X3507653Y15239508D01*
X3492992Y15224847D01*
X3482626Y15206892D01*
X3477885Y15189200D01*
X3543300D01*
Y15254614D01*
D02*
G37*
G36*
X20540100Y15227301D02*
X20444899D01*
Y15132100D01*
X20446405D01*
X20473848Y15139453D01*
X20498453Y15153659D01*
X20518541Y15173747D01*
X20532747Y15198352D01*
X20540100Y15225795D01*
Y15227301D01*
D02*
G37*
G36*
X20419499D02*
X20324300D01*
Y15225795D01*
X20331653Y15198352D01*
X20345857Y15173747D01*
X20365948Y15153659D01*
X20390552Y15139453D01*
X20417995Y15132100D01*
X20419499D01*
Y15227301D01*
D02*
G37*
G36*
X20730405Y15209399D02*
X20728899D01*
Y15114200D01*
X20824100D01*
Y15115704D01*
X20816747Y15143147D01*
X20802541Y15167752D01*
X20782452Y15187842D01*
X20757848Y15202048D01*
X20730405Y15209399D01*
D02*
G37*
G36*
X20703499D02*
X20701994D01*
X20674551Y15202048D01*
X20649948Y15187842D01*
X20629858Y15167752D01*
X20615652Y15143147D01*
X20608299Y15115704D01*
Y15114200D01*
X20703499D01*
Y15209399D01*
D02*
G37*
G36*
X3187631Y15239999D02*
X3162369D01*
X3139030Y15230333D01*
X3121167Y15212469D01*
X3111500Y15189131D01*
Y15163869D01*
X3121167Y15140530D01*
X3139030Y15122667D01*
X3162369Y15113000D01*
X3187631D01*
X3210970Y15122667D01*
X3228833Y15140530D01*
X3238500Y15163869D01*
Y15189131D01*
X3228833Y15212469D01*
X3210970Y15230333D01*
X3187631Y15239999D01*
D02*
G37*
G36*
X3634115Y15163800D02*
X3568700D01*
Y15098386D01*
X3586393Y15103127D01*
X3604347Y15113492D01*
X3619008Y15128152D01*
X3629374Y15146107D01*
X3634115Y15163800D01*
D02*
G37*
G36*
X3543300D02*
X3477885D01*
X3482626Y15146107D01*
X3492992Y15128152D01*
X3507653Y15113492D01*
X3525607Y15103127D01*
X3543300Y15098386D01*
Y15163800D01*
D02*
G37*
G36*
X3378200Y15127615D02*
Y15062199D01*
X3443615D01*
X3438874Y15079893D01*
X3428508Y15097847D01*
X3413847Y15112508D01*
X3395893Y15122874D01*
X3378200Y15127615D01*
D02*
G37*
G36*
X3352800D02*
X3335107Y15122874D01*
X3317153Y15112508D01*
X3302492Y15097847D01*
X3292126Y15079893D01*
X3287385Y15062199D01*
X3352800D01*
Y15127615D01*
D02*
G37*
G36*
X20824100Y15088800D02*
X20728899D01*
Y14993600D01*
X20730405D01*
X20757848Y15000954D01*
X20782452Y15015160D01*
X20802541Y15035248D01*
X20816747Y15059853D01*
X20824100Y15087296D01*
Y15088800D01*
D02*
G37*
G36*
X20703499D02*
X20608299D01*
Y15087296D01*
X20615652Y15059853D01*
X20629858Y15035248D01*
X20649948Y15015160D01*
X20674551Y15000954D01*
X20701994Y14993600D01*
X20703499D01*
Y15088800D01*
D02*
G37*
G36*
X2997131Y15113000D02*
X2971869D01*
X2948530Y15103333D01*
X2930667Y15085471D01*
X2921000Y15062131D01*
Y15036868D01*
X2930667Y15013530D01*
X2948530Y14995667D01*
X2971869Y14986000D01*
X2997131D01*
X3020470Y14995667D01*
X3038333Y15013530D01*
X3048000Y15036868D01*
Y15062131D01*
X3038333Y15085471D01*
X3020470Y15103333D01*
X2997131Y15113000D01*
D02*
G37*
G36*
X20446405Y15070900D02*
X20444899D01*
Y14975700D01*
X20540100D01*
Y14977205D01*
X20532747Y15004648D01*
X20518541Y15029253D01*
X20498453Y15049342D01*
X20473848Y15063547D01*
X20446405Y15070900D01*
D02*
G37*
G36*
X20419499D02*
X20417995D01*
X20390552Y15063547D01*
X20365948Y15049342D01*
X20345857Y15029253D01*
X20331653Y15004648D01*
X20324300Y14977205D01*
Y14975700D01*
X20419499D01*
Y15070900D01*
D02*
G37*
G36*
X3443615Y15036800D02*
X3378200D01*
Y14971385D01*
X3395893Y14976126D01*
X3413847Y14986491D01*
X3428508Y15001154D01*
X3438874Y15019107D01*
X3443615Y15036800D01*
D02*
G37*
G36*
X3352800D02*
X3287385D01*
X3292126Y15019107D01*
X3302492Y15001154D01*
X3317153Y14986491D01*
X3335107Y14976126D01*
X3352800Y14971385D01*
Y15036800D01*
D02*
G37*
G36*
X3568700Y15000615D02*
Y14935201D01*
X3634115D01*
X3629374Y14952893D01*
X3619008Y14970847D01*
X3604347Y14985509D01*
X3586393Y14995874D01*
X3568700Y15000615D01*
D02*
G37*
G36*
X3543300D02*
X3525607Y14995874D01*
X3507653Y14985509D01*
X3492992Y14970847D01*
X3482626Y14952893D01*
X3477885Y14935201D01*
X3543300D01*
Y15000615D01*
D02*
G37*
G36*
X8632997Y15059660D02*
X8613603D01*
X8594868Y15054640D01*
X8578072Y15044942D01*
X8564358Y15031229D01*
X8554660Y15014432D01*
X8549640Y14995697D01*
Y14976303D01*
X8554660Y14957568D01*
X8564358Y14940771D01*
X8578072Y14927058D01*
X8594868Y14917360D01*
X8613603Y14912340D01*
X8632997D01*
X8651732Y14917360D01*
X8668528Y14927058D01*
X8682242Y14940771D01*
X8691940Y14957568D01*
X8696960Y14976303D01*
Y14995697D01*
X8691940Y15014432D01*
X8682242Y15031229D01*
X8668528Y15044942D01*
X8651732Y15054640D01*
X8632997Y15059660D01*
D02*
G37*
G36*
X3187631Y14986000D02*
X3162369D01*
X3139030Y14976334D01*
X3121167Y14958470D01*
X3111500Y14935130D01*
Y14909869D01*
X3121167Y14886530D01*
X3139030Y14868668D01*
X3162369Y14859000D01*
X3187631D01*
X3210970Y14868668D01*
X3228833Y14886530D01*
X3238500Y14909869D01*
Y14935130D01*
X3228833Y14958470D01*
X3210970Y14976334D01*
X3187631Y14986000D01*
D02*
G37*
G36*
X3634115Y14909801D02*
X3568700D01*
Y14844385D01*
X3586393Y14849126D01*
X3604347Y14859492D01*
X3619008Y14874153D01*
X3629374Y14892107D01*
X3634115Y14909801D01*
D02*
G37*
G36*
X3543300D02*
X3477885D01*
X3482626Y14892107D01*
X3492992Y14874153D01*
X3507653Y14859492D01*
X3525607Y14849126D01*
X3543300Y14844385D01*
Y14909801D01*
D02*
G37*
G36*
X3378200Y14873615D02*
Y14808200D01*
X3443615D01*
X3438874Y14825893D01*
X3428508Y14843848D01*
X3413847Y14858508D01*
X3395893Y14868874D01*
X3378200Y14873615D01*
D02*
G37*
G36*
X3352800D02*
X3335107Y14868874D01*
X3317153Y14858508D01*
X3302492Y14843848D01*
X3292126Y14825893D01*
X3287385Y14808200D01*
X3352800D01*
Y14873615D01*
D02*
G37*
G36*
X2997131Y14859000D02*
X2971869D01*
X2948530Y14849333D01*
X2930667Y14831470D01*
X2921000Y14808131D01*
Y14782869D01*
X2930667Y14759531D01*
X2948530Y14741667D01*
X2971869Y14732001D01*
X2997131D01*
X3020470Y14741667D01*
X3038333Y14759531D01*
X3048000Y14782869D01*
Y14808131D01*
X3038333Y14831470D01*
X3020470Y14849333D01*
X2997131Y14859000D01*
D02*
G37*
G36*
X20540100Y14950301D02*
X20432199D01*
X20324300D01*
Y14948795D01*
X20331653Y14921352D01*
X20345857Y14896748D01*
X20358940Y14883667D01*
X20350523Y14863347D01*
X14392700D01*
X14377834Y14860390D01*
X14365231Y14851968D01*
X13128409Y13615147D01*
X11480514D01*
X11476184Y13616940D01*
X11460016D01*
X11445079Y13610753D01*
X11433647Y13599321D01*
X11427460Y13584384D01*
Y13568216D01*
X11433647Y13553279D01*
X11445079Y13541847D01*
X11460016Y13535660D01*
X11476184D01*
X11480514Y13537453D01*
X13144501D01*
X13159366Y13540411D01*
X13171970Y13548831D01*
X14408791Y14785654D01*
X20378845D01*
X20384290Y14765334D01*
X20375305Y14760147D01*
X20358054Y14742896D01*
X20345856Y14721767D01*
X20339540Y14698199D01*
Y14673801D01*
X20345856Y14650235D01*
X20358054Y14629106D01*
X20375305Y14611855D01*
X20384290Y14606667D01*
X20378845Y14586346D01*
X14953900D01*
X14939034Y14583389D01*
X14926431Y14574969D01*
X13383731Y13032269D01*
X13375311Y13019666D01*
X13372353Y13004800D01*
Y11217491D01*
X13227409Y11072547D01*
X13223079Y11070753D01*
X13211647Y11059321D01*
X13205460Y11044384D01*
Y11028216D01*
X13211647Y11013279D01*
X13223079Y11001847D01*
X13238016Y10995660D01*
X13254184D01*
X13269121Y11001847D01*
X13280553Y11013279D01*
X13282347Y11017610D01*
X13438669Y11173931D01*
X13447089Y11186534D01*
X13450047Y11201400D01*
Y12988708D01*
X14969991Y14508653D01*
X20378845D01*
X20384290Y14488335D01*
X20375305Y14483147D01*
X20358054Y14465895D01*
X20345856Y14444766D01*
X20339540Y14421199D01*
Y14396802D01*
X20345856Y14373235D01*
X20358054Y14352106D01*
X20375305Y14334854D01*
X20384290Y14329668D01*
X20378845Y14309348D01*
X15705600D01*
X15690733Y14306389D01*
X15678131Y14297969D01*
X13726631Y12346469D01*
X13718211Y12333866D01*
X13715253Y12319000D01*
Y10468191D01*
X13052209Y9805147D01*
X11480514D01*
X11476184Y9806940D01*
X11460016D01*
X11445079Y9800753D01*
X11433647Y9789321D01*
X11427460Y9774384D01*
Y9758216D01*
X11433647Y9743279D01*
X11445079Y9731847D01*
X11460016Y9725660D01*
X11476184D01*
X11480514Y9727453D01*
X13068300D01*
X13083167Y9730411D01*
X13095769Y9738831D01*
X13781569Y10424631D01*
X13789989Y10437234D01*
X13792947Y10452100D01*
Y12302909D01*
X15721690Y14231654D01*
X20378845D01*
X20384290Y14211334D01*
X20375305Y14206146D01*
X20358054Y14188895D01*
X20345856Y14167764D01*
X20339540Y14144199D01*
Y14119801D01*
X20345856Y14096234D01*
X20358054Y14075105D01*
X20375305Y14057854D01*
X20396434Y14045654D01*
X20420001Y14039340D01*
X20444398D01*
X20467966Y14045654D01*
X20489095Y14057854D01*
X20506346Y14075105D01*
X20518546Y14096234D01*
X20524860Y14119801D01*
Y14144199D01*
X20518546Y14167764D01*
X20506346Y14188895D01*
X20489095Y14206146D01*
X20480110Y14211334D01*
X20485555Y14231654D01*
X20631633D01*
X20642053Y14213606D01*
X20659305Y14196355D01*
X20680434Y14184155D01*
X20704001Y14177840D01*
X20728400D01*
X20751965Y14184155D01*
X20773094Y14196355D01*
X20790346Y14213606D01*
X20802545Y14234735D01*
X20808859Y14258301D01*
Y14282700D01*
X20802545Y14306265D01*
X20790346Y14327396D01*
X20773094Y14344646D01*
X20751965Y14356845D01*
X20728400Y14363161D01*
X20704001D01*
X20680434Y14356845D01*
X20659305Y14344646D01*
X20642053Y14327396D01*
X20631633Y14309348D01*
X20485555D01*
X20480110Y14329668D01*
X20489095Y14334854D01*
X20506346Y14352106D01*
X20518546Y14373235D01*
X20524860Y14396802D01*
Y14421199D01*
X20518546Y14444766D01*
X20506346Y14465895D01*
X20489095Y14483147D01*
X20480110Y14488335D01*
X20485555Y14508653D01*
X20631633D01*
X20642053Y14490607D01*
X20659305Y14473354D01*
X20680434Y14461156D01*
X20704001Y14454840D01*
X20728400D01*
X20751965Y14461156D01*
X20773094Y14473354D01*
X20790346Y14490607D01*
X20802545Y14511736D01*
X20808859Y14535301D01*
Y14559698D01*
X20802545Y14583266D01*
X20790346Y14604395D01*
X20773094Y14621648D01*
X20751965Y14633846D01*
X20728400Y14640160D01*
X20704001D01*
X20680434Y14633846D01*
X20659305Y14621648D01*
X20642053Y14604395D01*
X20631633Y14586346D01*
X20485555D01*
X20480110Y14606667D01*
X20489095Y14611855D01*
X20506346Y14629106D01*
X20518546Y14650235D01*
X20524860Y14673801D01*
Y14698199D01*
X20518546Y14721767D01*
X20506346Y14742896D01*
X20489095Y14760147D01*
X20480110Y14765334D01*
X20485555Y14785654D01*
X20631633D01*
X20642053Y14767606D01*
X20659305Y14750354D01*
X20680434Y14738155D01*
X20704001Y14731841D01*
X20728400D01*
X20751965Y14738155D01*
X20773094Y14750354D01*
X20790346Y14767606D01*
X20802545Y14788734D01*
X20808859Y14812302D01*
Y14836699D01*
X20802545Y14860266D01*
X20790346Y14881395D01*
X20773094Y14898647D01*
X20751965Y14910844D01*
X20728400Y14917160D01*
X20704001D01*
X20680434Y14910844D01*
X20659305Y14898647D01*
X20642053Y14881395D01*
X20631633Y14863347D01*
X20513876D01*
X20505460Y14883667D01*
X20518541Y14896748D01*
X20532747Y14921352D01*
X20540100Y14948795D01*
Y14950301D01*
D02*
G37*
G36*
X3443615Y14782800D02*
X3378200D01*
Y14717384D01*
X3395893Y14722125D01*
X3413847Y14732492D01*
X3428508Y14747153D01*
X3438874Y14765108D01*
X3443615Y14782800D01*
D02*
G37*
G36*
X3352800D02*
X3287385D01*
X3292126Y14765108D01*
X3302492Y14747153D01*
X3317153Y14732492D01*
X3335107Y14722125D01*
X3352800Y14717384D01*
Y14782800D01*
D02*
G37*
G36*
X3568700Y14746616D02*
Y14681200D01*
X3634115D01*
X3629374Y14698894D01*
X3619008Y14716847D01*
X3604347Y14731508D01*
X3586393Y14741875D01*
X3568700Y14746616D01*
D02*
G37*
G36*
X3543300D02*
X3525607Y14741875D01*
X3507653Y14731508D01*
X3492992Y14716847D01*
X3482626Y14698894D01*
X3477885Y14681200D01*
X3543300D01*
Y14746616D01*
D02*
G37*
G36*
X12862097Y14792960D02*
X12842703D01*
X12823969Y14787939D01*
X12807172Y14778242D01*
X12793458Y14764528D01*
X12783760Y14747733D01*
X12778740Y14728996D01*
Y14709602D01*
X12783760Y14690868D01*
X12793458Y14674072D01*
X12807172Y14660358D01*
X12823969Y14650661D01*
X12842703Y14645641D01*
X12862097D01*
X12880832Y14650661D01*
X12897627Y14660358D01*
X12911342Y14674072D01*
X12921040Y14690868D01*
X12926060Y14709602D01*
Y14728996D01*
X12921040Y14747733D01*
X12911342Y14764528D01*
X12897627Y14778242D01*
X12880832Y14787939D01*
X12862097Y14792960D01*
D02*
G37*
G36*
X3187631Y14732001D02*
X3162369D01*
X3139030Y14722333D01*
X3121167Y14704469D01*
X3111500Y14681131D01*
Y14655869D01*
X3121167Y14632530D01*
X3139030Y14614667D01*
X3162369Y14605000D01*
X3187631D01*
X3210970Y14614667D01*
X3228833Y14632530D01*
X3238500Y14655869D01*
Y14681131D01*
X3228833Y14704469D01*
X3210970Y14722333D01*
X3187631Y14732001D01*
D02*
G37*
G36*
X3634115Y14655800D02*
X3568700D01*
Y14590385D01*
X3586393Y14595126D01*
X3604347Y14605492D01*
X3619008Y14620152D01*
X3629374Y14638107D01*
X3634115Y14655800D01*
D02*
G37*
G36*
X3543300D02*
X3477885D01*
X3482626Y14638107D01*
X3492992Y14620152D01*
X3507653Y14605492D01*
X3525607Y14595126D01*
X3543300Y14590385D01*
Y14655800D01*
D02*
G37*
G36*
X3378200Y14619615D02*
Y14554201D01*
X3443615D01*
X3438874Y14571893D01*
X3428508Y14589847D01*
X3413847Y14604507D01*
X3395893Y14614874D01*
X3378200Y14619615D01*
D02*
G37*
G36*
X3352800D02*
X3335107Y14614874D01*
X3317153Y14604507D01*
X3302492Y14589847D01*
X3292126Y14571893D01*
X3287385Y14554201D01*
X3352800D01*
Y14619615D01*
D02*
G37*
G36*
X2997131Y14605000D02*
X2971869D01*
X2948530Y14595332D01*
X2930667Y14577470D01*
X2921000Y14554131D01*
Y14528870D01*
X2930667Y14505530D01*
X2948530Y14487666D01*
X2971869Y14478000D01*
X2997131D01*
X3020470Y14487666D01*
X3038333Y14505530D01*
X3048000Y14528870D01*
Y14554131D01*
X3038333Y14577470D01*
X3020470Y14595332D01*
X2997131Y14605000D01*
D02*
G37*
G36*
X3443615Y14528799D02*
X3378200D01*
Y14463385D01*
X3395893Y14468126D01*
X3413847Y14478493D01*
X3428508Y14493153D01*
X3438874Y14511107D01*
X3443615Y14528799D01*
D02*
G37*
G36*
X3352800D02*
X3287385D01*
X3292126Y14511107D01*
X3302492Y14493153D01*
X3317153Y14478493D01*
X3335107Y14468126D01*
X3352800Y14463385D01*
Y14528799D01*
D02*
G37*
G36*
X3568700Y14492615D02*
Y14427200D01*
X3634115D01*
X3629374Y14444893D01*
X3619008Y14462846D01*
X3604347Y14477509D01*
X3586393Y14487874D01*
X3568700Y14492615D01*
D02*
G37*
G36*
X3187700D02*
Y14427200D01*
X3253115D01*
X3248374Y14444893D01*
X3238008Y14462846D01*
X3223347Y14477509D01*
X3205393Y14487874D01*
X3187700Y14492615D01*
D02*
G37*
G36*
X3543300D02*
X3525607Y14487874D01*
X3507653Y14477509D01*
X3492992Y14462846D01*
X3482626Y14444893D01*
X3477885Y14427200D01*
X3543300D01*
Y14492615D01*
D02*
G37*
G36*
X3162300D02*
X3144607Y14487874D01*
X3126653Y14477509D01*
X3111992Y14462846D01*
X3101626Y14444893D01*
X3096885Y14427200D01*
X3162300D01*
Y14492615D01*
D02*
G37*
G36*
X12203684Y14505940D02*
X12187516D01*
X12172579Y14499753D01*
X12161147Y14488321D01*
X12154960Y14473384D01*
Y14457216D01*
X12161147Y14442279D01*
X12172579Y14430847D01*
X12187516Y14424660D01*
X12203684D01*
X12218621Y14430847D01*
X12230053Y14442279D01*
X12236240Y14457216D01*
Y14473384D01*
X12230053Y14488321D01*
X12218621Y14499753D01*
X12203684Y14505940D01*
D02*
G37*
G36*
X3253115Y14401801D02*
X3187700D01*
Y14336385D01*
X3205393Y14341125D01*
X3223347Y14351492D01*
X3238008Y14366153D01*
X3248374Y14384106D01*
X3253115Y14401801D01*
D02*
G37*
G36*
X3634115D02*
X3568700D01*
Y14336385D01*
X3586393Y14341125D01*
X3604347Y14351492D01*
X3619008Y14366153D01*
X3629374Y14384106D01*
X3634115Y14401801D01*
D02*
G37*
G36*
X3543300D02*
X3477885D01*
X3482626Y14384106D01*
X3492992Y14366153D01*
X3507653Y14351492D01*
X3525607Y14341125D01*
X3543300Y14336385D01*
Y14401801D01*
D02*
G37*
G36*
X3162300D02*
X3096885D01*
X3101626Y14384106D01*
X3111992Y14366153D01*
X3126653Y14351492D01*
X3144607Y14341125D01*
X3162300Y14336385D01*
Y14401801D01*
D02*
G37*
G36*
X3378200Y14365614D02*
Y14300200D01*
X3443615D01*
X3438874Y14317892D01*
X3428508Y14335847D01*
X3413847Y14350508D01*
X3395893Y14360873D01*
X3378200Y14365614D01*
D02*
G37*
G36*
X2997200D02*
Y14300200D01*
X3062615D01*
X3057874Y14317892D01*
X3047508Y14335847D01*
X3032847Y14350508D01*
X3014893Y14360873D01*
X2997200Y14365614D01*
D02*
G37*
G36*
X3352800D02*
X3335107Y14360873D01*
X3317153Y14350508D01*
X3302492Y14335847D01*
X3292126Y14317892D01*
X3287385Y14300200D01*
X3352800D01*
Y14365614D01*
D02*
G37*
G36*
X2971800D02*
X2954107Y14360873D01*
X2936153Y14350508D01*
X2921492Y14335847D01*
X2911126Y14317892D01*
X2906385Y14300200D01*
X2971800D01*
Y14365614D01*
D02*
G37*
G36*
X3062615Y14274800D02*
X2997200D01*
Y14209386D01*
X3014893Y14214127D01*
X3032847Y14224492D01*
X3047508Y14239153D01*
X3057874Y14257108D01*
X3062615Y14274800D01*
D02*
G37*
G36*
X3443615D02*
X3378200D01*
Y14209386D01*
X3395893Y14214127D01*
X3413847Y14224492D01*
X3428508Y14239153D01*
X3438874Y14257108D01*
X3443615Y14274800D01*
D02*
G37*
G36*
X3352800D02*
X3287385D01*
X3292126Y14257108D01*
X3302492Y14239153D01*
X3317153Y14224492D01*
X3335107Y14214127D01*
X3352800Y14209386D01*
Y14274800D01*
D02*
G37*
G36*
X2971800D02*
X2906385D01*
X2911126Y14257108D01*
X2921492Y14239153D01*
X2936153Y14224492D01*
X2954107Y14214127D01*
X2971800Y14209386D01*
Y14274800D01*
D02*
G37*
G36*
X3568700Y14238615D02*
Y14173199D01*
X3634115D01*
X3629374Y14190894D01*
X3619008Y14208847D01*
X3604347Y14223508D01*
X3586393Y14233875D01*
X3568700Y14238615D01*
D02*
G37*
G36*
X3543300D02*
X3525607Y14233875D01*
X3507653Y14223508D01*
X3492992Y14208847D01*
X3482626Y14190894D01*
X3477885Y14173199D01*
X3543300D01*
Y14238615D01*
D02*
G37*
G36*
X3187631Y14224001D02*
X3162369D01*
X3139030Y14214333D01*
X3121167Y14196471D01*
X3111500Y14173131D01*
Y14147868D01*
X3121167Y14124530D01*
X3139030Y14106667D01*
X3162369Y14097000D01*
X3187631D01*
X3210970Y14106667D01*
X3228833Y14124530D01*
X3238500Y14147868D01*
Y14173131D01*
X3228833Y14196471D01*
X3210970Y14214333D01*
X3187631Y14224001D01*
D02*
G37*
G36*
X3634115Y14147800D02*
X3568700D01*
Y14082385D01*
X3586393Y14087126D01*
X3604347Y14097491D01*
X3619008Y14112154D01*
X3629374Y14130107D01*
X3634115Y14147800D01*
D02*
G37*
G36*
X3543300D02*
X3477885D01*
X3482626Y14130107D01*
X3492992Y14112154D01*
X3507653Y14097491D01*
X3525607Y14087126D01*
X3543300Y14082385D01*
Y14147800D01*
D02*
G37*
G36*
X3378200Y14111615D02*
Y14046201D01*
X3443615D01*
X3438874Y14063893D01*
X3428508Y14081847D01*
X3413847Y14096507D01*
X3395893Y14106874D01*
X3378200Y14111615D01*
D02*
G37*
G36*
X3352800D02*
X3335107Y14106874D01*
X3317153Y14096507D01*
X3302492Y14081847D01*
X3292126Y14063893D01*
X3287385Y14046201D01*
X3352800D01*
Y14111615D01*
D02*
G37*
G36*
X2997131Y14097000D02*
X2971869D01*
X2948530Y14087334D01*
X2930667Y14069470D01*
X2921000Y14046130D01*
Y14020869D01*
X2930667Y13997530D01*
X2948530Y13979668D01*
X2971869Y13970000D01*
X2997131D01*
X3020470Y13979668D01*
X3038333Y13997530D01*
X3048000Y14020869D01*
Y14046130D01*
X3038333Y14069470D01*
X3020470Y14087334D01*
X2997131Y14097000D01*
D02*
G37*
G36*
X3443615Y14020799D02*
X3378200D01*
Y13955385D01*
X3395893Y13960126D01*
X3413847Y13970493D01*
X3428508Y13985153D01*
X3438874Y14003107D01*
X3443615Y14020799D01*
D02*
G37*
G36*
X3352800D02*
X3287385D01*
X3292126Y14003107D01*
X3302492Y13985153D01*
X3317153Y13970493D01*
X3335107Y13960126D01*
X3352800Y13955385D01*
Y14020799D01*
D02*
G37*
G36*
X10636384Y14023340D02*
X10620216D01*
X10605279Y14017152D01*
X10593847Y14005721D01*
X10587660Y13990784D01*
Y13974615D01*
X10593847Y13959679D01*
X10605279Y13948247D01*
X10620216Y13942059D01*
X10636384D01*
X10651321Y13948247D01*
X10662753Y13959679D01*
X10668940Y13974615D01*
Y13990784D01*
X10662753Y14005721D01*
X10651321Y14017152D01*
X10636384Y14023340D01*
D02*
G37*
G36*
X3568700Y13984615D02*
Y13919200D01*
X3634115D01*
X3629374Y13936893D01*
X3619008Y13954848D01*
X3604347Y13969508D01*
X3586393Y13979874D01*
X3568700Y13984615D01*
D02*
G37*
G36*
X3543300D02*
X3525607Y13979874D01*
X3507653Y13969508D01*
X3492992Y13954848D01*
X3482626Y13936893D01*
X3477885Y13919200D01*
X3543300D01*
Y13984615D01*
D02*
G37*
G36*
X20728400Y14086160D02*
X20704001D01*
X20680434Y14079845D01*
X20659305Y14067645D01*
X20642053Y14050395D01*
X20629855Y14029266D01*
X20623540Y14005699D01*
Y13981300D01*
X20629855Y13957735D01*
X20642053Y13936606D01*
X20659305Y13919354D01*
X20680434Y13907155D01*
X20704001Y13900841D01*
X20728400D01*
X20751965Y13907155D01*
X20773094Y13919354D01*
X20790346Y13936606D01*
X20802545Y13957735D01*
X20808859Y13981300D01*
Y14005699D01*
X20802545Y14029266D01*
X20790346Y14050395D01*
X20773094Y14067645D01*
X20751965Y14079845D01*
X20728400Y14086160D01*
D02*
G37*
G36*
X3187631Y13970000D02*
X3162369D01*
X3139030Y13960333D01*
X3121167Y13942470D01*
X3111500Y13919131D01*
Y13893869D01*
X3121167Y13870531D01*
X3139030Y13852667D01*
X3162369Y13842999D01*
X3187631D01*
X3210970Y13852667D01*
X3228833Y13870531D01*
X3238500Y13893869D01*
Y13919131D01*
X3228833Y13942470D01*
X3210970Y13960333D01*
X3187631Y13970000D01*
D02*
G37*
G36*
X3634115Y13893800D02*
X3568700D01*
Y13828384D01*
X3586393Y13833125D01*
X3604347Y13843492D01*
X3619008Y13858153D01*
X3629374Y13876106D01*
X3634115Y13893800D01*
D02*
G37*
G36*
X3543300D02*
X3477885D01*
X3482626Y13876106D01*
X3492992Y13858153D01*
X3507653Y13843492D01*
X3525607Y13833125D01*
X3543300Y13828384D01*
Y13893800D01*
D02*
G37*
G36*
X3378200Y13857616D02*
Y13792200D01*
X3443615D01*
X3438874Y13809892D01*
X3428508Y13827847D01*
X3413847Y13842508D01*
X3395893Y13852875D01*
X3378200Y13857616D01*
D02*
G37*
G36*
X3352800D02*
X3335107Y13852875D01*
X3317153Y13842508D01*
X3302492Y13827847D01*
X3292126Y13809892D01*
X3287385Y13792200D01*
X3352800D01*
Y13857616D01*
D02*
G37*
G36*
X2997131Y13842999D02*
X2971869D01*
X2948530Y13833333D01*
X2930667Y13815469D01*
X2921000Y13792131D01*
Y13766869D01*
X2930667Y13743530D01*
X2948530Y13725667D01*
X2971869Y13716000D01*
X2997131D01*
X3020470Y13725667D01*
X3038333Y13743530D01*
X3048000Y13766869D01*
Y13792131D01*
X3038333Y13815469D01*
X3020470Y13833333D01*
X2997131Y13842999D01*
D02*
G37*
G36*
X3443615Y13766800D02*
X3378200D01*
Y13701385D01*
X3395893Y13706126D01*
X3413847Y13716492D01*
X3428508Y13731152D01*
X3438874Y13749107D01*
X3443615Y13766800D01*
D02*
G37*
G36*
X3352800D02*
X3287385D01*
X3292126Y13749107D01*
X3302492Y13731152D01*
X3317153Y13716492D01*
X3335107Y13706126D01*
X3352800Y13701385D01*
Y13766800D01*
D02*
G37*
G36*
X3568700Y13730615D02*
Y13665199D01*
X3634115D01*
X3629374Y13682893D01*
X3619008Y13700847D01*
X3604347Y13715508D01*
X3586393Y13725874D01*
X3568700Y13730615D01*
D02*
G37*
G36*
X3543300D02*
X3525607Y13725874D01*
X3507653Y13715508D01*
X3492992Y13700847D01*
X3482626Y13682893D01*
X3477885Y13665199D01*
X3543300D01*
Y13730615D01*
D02*
G37*
G36*
X20444398Y13947659D02*
X20420001D01*
X20396434Y13941345D01*
X20375305Y13929147D01*
X20358054Y13911896D01*
X20345856Y13890765D01*
X20339540Y13867200D01*
Y13842801D01*
X20345856Y13819235D01*
X20358054Y13798106D01*
X20375305Y13780853D01*
X20384290Y13775667D01*
X20378845Y13755347D01*
X16104100D01*
X16089233Y13752390D01*
X16076633Y13743970D01*
X14082231Y11749569D01*
X14073811Y11736966D01*
X14070853Y11722100D01*
Y9807791D01*
X13612331Y9349269D01*
X13603911Y9336666D01*
X13600954Y9321800D01*
Y6543891D01*
X13052209Y5995147D01*
X11480514D01*
X11476184Y5996940D01*
X11460016D01*
X11445079Y5990753D01*
X11433647Y5979321D01*
X11427460Y5964384D01*
Y5948216D01*
X11433647Y5933279D01*
X11445079Y5921847D01*
X11460016Y5915660D01*
X11476184D01*
X11480514Y5917453D01*
X13068300D01*
X13083167Y5920411D01*
X13095769Y5928831D01*
X13667268Y6500331D01*
X13675690Y6512934D01*
X13678647Y6527800D01*
Y9305709D01*
X14137169Y9764231D01*
X14145589Y9776834D01*
X14148547Y9791700D01*
Y11706009D01*
X16120190Y13677654D01*
X20378845D01*
X20384290Y13657333D01*
X20375305Y13652145D01*
X20358054Y13634894D01*
X20345856Y13613766D01*
X20339540Y13590199D01*
Y13565800D01*
X20345856Y13542235D01*
X20358054Y13521106D01*
X20375305Y13503854D01*
X20396434Y13491655D01*
X20420001Y13485339D01*
X20444398D01*
X20467966Y13491655D01*
X20489095Y13503854D01*
X20506346Y13521106D01*
X20518546Y13542235D01*
X20524860Y13565800D01*
Y13590199D01*
X20518546Y13613766D01*
X20506346Y13634894D01*
X20489095Y13652145D01*
X20480110Y13657333D01*
X20485555Y13677654D01*
X20631633D01*
X20642053Y13659605D01*
X20659305Y13642354D01*
X20680434Y13630154D01*
X20704001Y13623840D01*
X20728400D01*
X20751965Y13630154D01*
X20773094Y13642354D01*
X20790346Y13659605D01*
X20802545Y13680734D01*
X20808859Y13704301D01*
Y13728699D01*
X20802545Y13752266D01*
X20790346Y13773395D01*
X20773094Y13790646D01*
X20751965Y13802844D01*
X20728400Y13809160D01*
X20704001D01*
X20680434Y13802844D01*
X20659305Y13790646D01*
X20642053Y13773395D01*
X20631633Y13755347D01*
X20485555D01*
X20480110Y13775667D01*
X20489095Y13780853D01*
X20506346Y13798106D01*
X20518546Y13819235D01*
X20524860Y13842801D01*
Y13867200D01*
X20518546Y13890765D01*
X20506346Y13911896D01*
X20489095Y13929147D01*
X20467966Y13941345D01*
X20444398Y13947659D01*
D02*
G37*
G36*
X3187631Y13716000D02*
X3162369D01*
X3139030Y13706332D01*
X3121167Y13688470D01*
X3111500Y13665131D01*
Y13639870D01*
X3121167Y13616530D01*
X3139030Y13598666D01*
X3162369Y13589000D01*
X3187631D01*
X3210970Y13598666D01*
X3228833Y13616530D01*
X3238500Y13639870D01*
Y13665131D01*
X3228833Y13688470D01*
X3210970Y13706332D01*
X3187631Y13716000D01*
D02*
G37*
G36*
X3634115Y13639799D02*
X3568700D01*
Y13574385D01*
X3586393Y13579126D01*
X3604347Y13589491D01*
X3619008Y13604153D01*
X3629374Y13622107D01*
X3634115Y13639799D01*
D02*
G37*
G36*
X3543300D02*
X3477885D01*
X3482626Y13622107D01*
X3492992Y13604153D01*
X3507653Y13589491D01*
X3525607Y13579126D01*
X3543300Y13574385D01*
Y13639799D01*
D02*
G37*
G36*
X3378200Y13603615D02*
Y13538200D01*
X3443615D01*
X3438874Y13555893D01*
X3428508Y13573846D01*
X3413847Y13588509D01*
X3395893Y13598874D01*
X3378200Y13603615D01*
D02*
G37*
G36*
X3352800D02*
X3335107Y13598874D01*
X3317153Y13588509D01*
X3302492Y13573846D01*
X3292126Y13555893D01*
X3287385Y13538200D01*
X3352800D01*
Y13603615D01*
D02*
G37*
G36*
X2997131Y13589000D02*
X2971869D01*
X2948530Y13579333D01*
X2930667Y13561470D01*
X2921000Y13538132D01*
Y13512869D01*
X2930667Y13489529D01*
X2948530Y13471667D01*
X2971869Y13462000D01*
X2997131D01*
X3020470Y13471667D01*
X3038333Y13489529D01*
X3048000Y13512869D01*
Y13538132D01*
X3038333Y13561470D01*
X3020470Y13579333D01*
X2997131Y13589000D01*
D02*
G37*
G36*
X3443615Y13512801D02*
X3378200D01*
Y13447385D01*
X3395893Y13452126D01*
X3413847Y13462492D01*
X3428508Y13477153D01*
X3438874Y13495107D01*
X3443615Y13512801D01*
D02*
G37*
G36*
X3352800D02*
X3287385D01*
X3292126Y13495107D01*
X3302492Y13477153D01*
X3317153Y13462492D01*
X3335107Y13452126D01*
X3352800Y13447385D01*
Y13512801D01*
D02*
G37*
G36*
X3568700Y13476614D02*
Y13411200D01*
X3634115D01*
X3629374Y13428893D01*
X3619008Y13446848D01*
X3604347Y13461508D01*
X3586393Y13471873D01*
X3568700Y13476614D01*
D02*
G37*
G36*
X3543300D02*
X3525607Y13471873D01*
X3507653Y13461508D01*
X3492992Y13446848D01*
X3482626Y13428893D01*
X3477885Y13411200D01*
X3543300D01*
Y13476614D01*
D02*
G37*
G36*
X11084097Y13522960D02*
X11064703D01*
X11045968Y13517940D01*
X11029172Y13508241D01*
X11015458Y13494528D01*
X11005760Y13477731D01*
X11000740Y13458997D01*
Y13439603D01*
X11005760Y13420868D01*
X11015458Y13404073D01*
X11029172Y13390358D01*
X11045968Y13380659D01*
X11064703Y13375639D01*
X11084097D01*
X11102832Y13380659D01*
X11119628Y13390358D01*
X11133342Y13404073D01*
X11143040Y13420868D01*
X11148060Y13439603D01*
Y13458997D01*
X11143040Y13477731D01*
X11133342Y13494528D01*
X11119628Y13508241D01*
X11102832Y13517940D01*
X11084097Y13522960D01*
D02*
G37*
G36*
X3187631Y13462000D02*
X3162369D01*
X3139030Y13452333D01*
X3121167Y13434470D01*
X3111500Y13411131D01*
Y13385869D01*
X3121167Y13362531D01*
X3139030Y13344667D01*
X3162369Y13335001D01*
X3187631D01*
X3210970Y13344667D01*
X3228833Y13362531D01*
X3238500Y13385869D01*
Y13411131D01*
X3228833Y13434470D01*
X3210970Y13452333D01*
X3187631Y13462000D01*
D02*
G37*
G36*
X3634115Y13385800D02*
X3568700D01*
Y13320386D01*
X3586393Y13325127D01*
X3604347Y13335492D01*
X3619008Y13350153D01*
X3629374Y13368108D01*
X3634115Y13385800D01*
D02*
G37*
G36*
X3543300D02*
X3477885D01*
X3482626Y13368108D01*
X3492992Y13350153D01*
X3507653Y13335492D01*
X3525607Y13325127D01*
X3543300Y13320386D01*
Y13385800D01*
D02*
G37*
G36*
X3378200Y13349615D02*
Y13284200D01*
X3443615D01*
X3438874Y13301894D01*
X3428508Y13319847D01*
X3413847Y13334508D01*
X3395893Y13344875D01*
X3378200Y13349615D01*
D02*
G37*
G36*
X3352800D02*
X3335107Y13344875D01*
X3317153Y13334508D01*
X3302492Y13319847D01*
X3292126Y13301894D01*
X3287385Y13284200D01*
X3352800D01*
Y13349615D01*
D02*
G37*
G36*
X2997131Y13335001D02*
X2971869D01*
X2948530Y13325333D01*
X2930667Y13307471D01*
X2921000Y13284131D01*
Y13258868D01*
X2930667Y13235530D01*
X2948530Y13217667D01*
X2971869Y13208000D01*
X2997131D01*
X3020470Y13217667D01*
X3038333Y13235530D01*
X3048000Y13258868D01*
Y13284131D01*
X3038333Y13307471D01*
X3020470Y13325333D01*
X2997131Y13335001D01*
D02*
G37*
G36*
X3443615Y13258800D02*
X3378200D01*
Y13193385D01*
X3395893Y13198126D01*
X3413847Y13208492D01*
X3428508Y13223154D01*
X3438874Y13241107D01*
X3443615Y13258800D01*
D02*
G37*
G36*
X3352800D02*
X3287385D01*
X3292126Y13241107D01*
X3302492Y13223154D01*
X3317153Y13208492D01*
X3335107Y13198126D01*
X3352800Y13193385D01*
Y13258800D01*
D02*
G37*
G36*
X3568700Y13222615D02*
Y13157201D01*
X3634115D01*
X3629374Y13174893D01*
X3619008Y13192847D01*
X3604347Y13207507D01*
X3586393Y13217874D01*
X3568700Y13222615D01*
D02*
G37*
G36*
X3543300D02*
X3525607Y13217874D01*
X3507653Y13207507D01*
X3492992Y13192847D01*
X3482626Y13174893D01*
X3477885Y13157201D01*
X3543300D01*
Y13222615D01*
D02*
G37*
G36*
X10425684Y13235941D02*
X10409516D01*
X10394579Y13229753D01*
X10383147Y13218321D01*
X10376960Y13203384D01*
Y13187216D01*
X10383147Y13172279D01*
X10394579Y13160847D01*
X10409516Y13154660D01*
X10425684D01*
X10440621Y13160847D01*
X10452053Y13172279D01*
X10458240Y13187216D01*
Y13203384D01*
X10452053Y13218321D01*
X10440621Y13229753D01*
X10425684Y13235941D01*
D02*
G37*
G36*
X3187631Y13208000D02*
X3162369D01*
X3139030Y13198334D01*
X3121167Y13180470D01*
X3111500Y13157130D01*
Y13131870D01*
X3121167Y13108530D01*
X3139030Y13090668D01*
X3162369Y13081000D01*
X3187631D01*
X3210970Y13090668D01*
X3228833Y13108530D01*
X3238500Y13131870D01*
Y13157130D01*
X3228833Y13180470D01*
X3210970Y13198334D01*
X3187631Y13208000D01*
D02*
G37*
G36*
X3634115Y13131799D02*
X3568700D01*
Y13066385D01*
X3586393Y13071126D01*
X3604347Y13081493D01*
X3619008Y13096153D01*
X3629374Y13114107D01*
X3634115Y13131799D01*
D02*
G37*
G36*
X3543300D02*
X3477885D01*
X3482626Y13114107D01*
X3492992Y13096153D01*
X3507653Y13081493D01*
X3525607Y13071126D01*
X3543300Y13066385D01*
Y13131799D01*
D02*
G37*
G36*
X3378200Y13095615D02*
Y13030200D01*
X3443615D01*
X3438874Y13047893D01*
X3428508Y13065846D01*
X3413847Y13080508D01*
X3395893Y13090874D01*
X3378200Y13095615D01*
D02*
G37*
G36*
X3352800D02*
X3335107Y13090874D01*
X3317153Y13080508D01*
X3302492Y13065846D01*
X3292126Y13047893D01*
X3287385Y13030200D01*
X3352800D01*
Y13095615D01*
D02*
G37*
G36*
X2997131Y13081000D02*
X2971869D01*
X2948530Y13071333D01*
X2930667Y13053470D01*
X2921000Y13030132D01*
Y13004869D01*
X2930667Y12981531D01*
X2948530Y12963667D01*
X2971869Y12953999D01*
X2997131D01*
X3020470Y12963667D01*
X3038333Y12981531D01*
X3048000Y13004869D01*
Y13030132D01*
X3038333Y13053470D01*
X3020470Y13071333D01*
X2997131Y13081000D01*
D02*
G37*
G36*
X3443615Y13004800D02*
X3378200D01*
Y12939384D01*
X3395893Y12944125D01*
X3413847Y12954492D01*
X3428508Y12969153D01*
X3438874Y12987106D01*
X3443615Y13004800D01*
D02*
G37*
G36*
X3352800D02*
X3287385D01*
X3292126Y12987106D01*
X3302492Y12969153D01*
X3317153Y12954492D01*
X3335107Y12944125D01*
X3352800Y12939384D01*
Y13004800D01*
D02*
G37*
G36*
X3568700Y12968616D02*
Y12903200D01*
X3634115D01*
X3629374Y12920892D01*
X3619008Y12938847D01*
X3604347Y12953508D01*
X3586393Y12963873D01*
X3568700Y12968616D01*
D02*
G37*
G36*
X3543300D02*
X3525607Y12963873D01*
X3507653Y12953508D01*
X3492992Y12938847D01*
X3482626Y12920892D01*
X3477885Y12903200D01*
X3543300D01*
Y12968616D01*
D02*
G37*
G36*
X20595087Y13150400D02*
X20586899D01*
Y12897701D01*
X20839600D01*
Y12905887D01*
X20833064Y12947148D01*
X20820155Y12986877D01*
X20801190Y13024100D01*
X20776636Y13057896D01*
X20747096Y13087436D01*
X20713300Y13111990D01*
X20676077Y13130956D01*
X20636348Y13143864D01*
X20595087Y13150400D01*
D02*
G37*
G36*
X20561499D02*
X20553313D01*
X20512051Y13143864D01*
X20472322Y13130956D01*
X20435100Y13111990D01*
X20401303Y13087436D01*
X20371764Y13057896D01*
X20347209Y13024100D01*
X20328244Y12986877D01*
X20315335Y12947148D01*
X20308800Y12905887D01*
Y12897701D01*
X20561499D01*
Y13150400D01*
D02*
G37*
G36*
X3187631Y12953999D02*
X3162369D01*
X3139030Y12944333D01*
X3121167Y12926469D01*
X3111500Y12903131D01*
Y12877869D01*
X3121167Y12854530D01*
X3139030Y12836667D01*
X3162369Y12827000D01*
X3187631D01*
X3210970Y12836667D01*
X3228833Y12854530D01*
X3238500Y12877869D01*
Y12903131D01*
X3228833Y12926469D01*
X3210970Y12944333D01*
X3187631Y12953999D01*
D02*
G37*
G36*
X3634115Y12877800D02*
X3568700D01*
Y12812386D01*
X3586393Y12817126D01*
X3604347Y12827492D01*
X3619008Y12842152D01*
X3629374Y12860107D01*
X3634115Y12877800D01*
D02*
G37*
G36*
X3543300D02*
X3477885D01*
X3482626Y12860107D01*
X3492992Y12842152D01*
X3507653Y12827492D01*
X3525607Y12817126D01*
X3543300Y12812386D01*
Y12877800D01*
D02*
G37*
G36*
X3378200Y12841615D02*
Y12776200D01*
X3443615D01*
X3438874Y12793893D01*
X3428508Y12811847D01*
X3413847Y12826508D01*
X3395893Y12836874D01*
X3378200Y12841615D01*
D02*
G37*
G36*
X3352800D02*
X3335107Y12836874D01*
X3317153Y12826508D01*
X3302492Y12811847D01*
X3292126Y12793893D01*
X3287385Y12776200D01*
X3352800D01*
Y12841615D01*
D02*
G37*
G36*
X2997131Y12827000D02*
X2971869D01*
X2948530Y12817332D01*
X2930667Y12799470D01*
X2921000Y12776131D01*
Y12750869D01*
X2930667Y12727530D01*
X2948530Y12709667D01*
X2971869Y12700000D01*
X2997131D01*
X3020470Y12709667D01*
X3038333Y12727530D01*
X3048000Y12750869D01*
Y12776131D01*
X3038333Y12799470D01*
X3020470Y12817332D01*
X2997131Y12827000D01*
D02*
G37*
G36*
X3443615Y12750800D02*
X3378200D01*
Y12685385D01*
X3395893Y12690126D01*
X3413847Y12700492D01*
X3428508Y12715153D01*
X3438874Y12733107D01*
X3443615Y12750800D01*
D02*
G37*
G36*
X3352800D02*
X3287385D01*
X3292126Y12733107D01*
X3302492Y12715153D01*
X3317153Y12700492D01*
X3335107Y12690126D01*
X3352800Y12685385D01*
Y12750800D01*
D02*
G37*
G36*
X3568700Y12714615D02*
Y12649200D01*
X3634115D01*
X3629374Y12666893D01*
X3619008Y12684847D01*
X3604347Y12699508D01*
X3586393Y12709874D01*
X3568700Y12714615D01*
D02*
G37*
G36*
X3543300D02*
X3525607Y12709874D01*
X3507653Y12699508D01*
X3492992Y12684847D01*
X3482626Y12666893D01*
X3477885Y12649200D01*
X3543300D01*
Y12714615D01*
D02*
G37*
G36*
X20839600Y12872301D02*
X20586899D01*
Y12619600D01*
X20595087D01*
X20636348Y12626135D01*
X20676077Y12639044D01*
X20713300Y12658009D01*
X20747096Y12682564D01*
X20776636Y12712103D01*
X20801190Y12745900D01*
X20820155Y12783122D01*
X20833064Y12822852D01*
X20839600Y12864111D01*
Y12872301D01*
D02*
G37*
G36*
X20561499D02*
X20308800D01*
Y12864111D01*
X20315335Y12822852D01*
X20328244Y12783122D01*
X20347209Y12745900D01*
X20371764Y12712103D01*
X20401303Y12682564D01*
X20435100Y12658009D01*
X20472322Y12639044D01*
X20512051Y12626135D01*
X20553313Y12619600D01*
X20561499D01*
Y12872301D01*
D02*
G37*
G36*
X3187631Y12700000D02*
X3162369D01*
X3139030Y12690333D01*
X3121167Y12672470D01*
X3111500Y12649131D01*
Y12623869D01*
X3121167Y12600530D01*
X3139030Y12582667D01*
X3162369Y12573000D01*
X3187631D01*
X3210970Y12582667D01*
X3228833Y12600530D01*
X3238500Y12623869D01*
Y12649131D01*
X3228833Y12672470D01*
X3210970Y12690333D01*
X3187631Y12700000D01*
D02*
G37*
G36*
X3634115Y12623800D02*
X3568700D01*
Y12558385D01*
X3586393Y12563126D01*
X3604347Y12573492D01*
X3619008Y12588153D01*
X3629374Y12606107D01*
X3634115Y12623800D01*
D02*
G37*
G36*
X3543300D02*
X3477885D01*
X3482626Y12606107D01*
X3492992Y12588153D01*
X3507653Y12573492D01*
X3525607Y12563126D01*
X3543300Y12558385D01*
Y12623800D01*
D02*
G37*
G36*
X3378200Y12587615D02*
Y12522200D01*
X3443615D01*
X3438874Y12539893D01*
X3428508Y12557847D01*
X3413847Y12572508D01*
X3395893Y12582874D01*
X3378200Y12587615D01*
D02*
G37*
G36*
X3352800D02*
X3335107Y12582874D01*
X3317153Y12572508D01*
X3302492Y12557847D01*
X3292126Y12539893D01*
X3287385Y12522200D01*
X3352800D01*
Y12587615D01*
D02*
G37*
G36*
X18555376Y12547600D02*
X18554700D01*
Y12458700D01*
X18643600D01*
Y12459376D01*
X18636676Y12485216D01*
X18623300Y12508384D01*
X18604384Y12527300D01*
X18581216Y12540676D01*
X18555376Y12547600D01*
D02*
G37*
G36*
X17539375D02*
X17538699D01*
Y12458700D01*
X17627600D01*
Y12459376D01*
X17620676Y12485216D01*
X17607300Y12508384D01*
X17588383Y12527300D01*
X17565216Y12540676D01*
X17539375Y12547600D01*
D02*
G37*
G36*
X17031377D02*
X17030701D01*
Y12458700D01*
X17119600D01*
Y12459376D01*
X17112675Y12485216D01*
X17099300Y12508384D01*
X17080383Y12527300D01*
X17057216Y12540676D01*
X17031377Y12547600D01*
D02*
G37*
G36*
X12975989Y12725400D02*
X12966701D01*
Y12458700D01*
X13233400D01*
Y12467989D01*
X13226520Y12511426D01*
X13212930Y12553252D01*
X13192964Y12592437D01*
X13167114Y12628017D01*
X13136017Y12659114D01*
X13100436Y12684964D01*
X13061252Y12704930D01*
X13019426Y12718520D01*
X12975989Y12725400D01*
D02*
G37*
G36*
X12941299D02*
X12932011D01*
X12888574Y12718520D01*
X12846748Y12704930D01*
X12807562Y12684964D01*
X12771983Y12659114D01*
X12740886Y12628017D01*
X12715036Y12592437D01*
X12695070Y12553252D01*
X12681480Y12511426D01*
X12674600Y12467989D01*
Y12458700D01*
X12941299D01*
Y12725400D01*
D02*
G37*
G36*
X17513300Y12547600D02*
X17512624D01*
X17486784Y12540676D01*
X17463615Y12527300D01*
X17444701Y12508384D01*
X17431323Y12485216D01*
X17424400Y12459376D01*
Y12458700D01*
X17513300D01*
Y12547600D01*
D02*
G37*
G36*
X17005299D02*
X17004623D01*
X16978784Y12540676D01*
X16955617Y12527300D01*
X16936700Y12508384D01*
X16923325Y12485216D01*
X16916400Y12459376D01*
Y12458700D01*
X17005299D01*
Y12547600D01*
D02*
G37*
G36*
X18529300D02*
X18528624D01*
X18502785Y12540676D01*
X18479616Y12527300D01*
X18460699Y12508384D01*
X18447324Y12485216D01*
X18440401Y12459376D01*
Y12458700D01*
X18529300D01*
Y12547600D01*
D02*
G37*
G36*
X2997131Y12573000D02*
X2971869D01*
X2948530Y12563333D01*
X2930667Y12545470D01*
X2921000Y12522131D01*
Y12496869D01*
X2930667Y12473530D01*
X2948530Y12455667D01*
X2971869Y12446000D01*
X2997131D01*
X3020470Y12455667D01*
X3038333Y12473530D01*
X3048000Y12496869D01*
Y12522131D01*
X3038333Y12545470D01*
X3020470Y12563333D01*
X2997131Y12573000D01*
D02*
G37*
G36*
X3443615Y12496800D02*
X3378200D01*
Y12431385D01*
X3395893Y12436126D01*
X3413847Y12446492D01*
X3428508Y12461153D01*
X3438874Y12479107D01*
X3443615Y12496800D01*
D02*
G37*
G36*
X3352800D02*
X3287385D01*
X3292126Y12479107D01*
X3302492Y12461153D01*
X3317153Y12446492D01*
X3335107Y12436126D01*
X3352800Y12431385D01*
Y12496800D01*
D02*
G37*
G36*
X3568700Y12460615D02*
Y12395200D01*
X3634115D01*
X3629374Y12412893D01*
X3619008Y12430847D01*
X3604347Y12445508D01*
X3586393Y12455874D01*
X3568700Y12460615D01*
D02*
G37*
G36*
X3543300D02*
X3525607Y12455874D01*
X3507653Y12445508D01*
X3492992Y12430847D01*
X3482626Y12412893D01*
X3477885Y12395200D01*
X3543300D01*
Y12460615D01*
D02*
G37*
G36*
X6854997Y12519660D02*
X6835603D01*
X6816868Y12514640D01*
X6800072Y12504942D01*
X6786358Y12491228D01*
X6776660Y12474432D01*
X6771640Y12455697D01*
Y12436303D01*
X6776660Y12417568D01*
X6786358Y12400772D01*
X6800072Y12387058D01*
X6816868Y12377360D01*
X6835603Y12372340D01*
X6854997D01*
X6873732Y12377360D01*
X6890528Y12387058D01*
X6904242Y12400772D01*
X6913940Y12417568D01*
X6918960Y12436303D01*
Y12455697D01*
X6913940Y12474432D01*
X6904242Y12491228D01*
X6890528Y12504942D01*
X6873732Y12514640D01*
X6854997Y12519660D01*
D02*
G37*
G36*
X18045370Y12532360D02*
X18022630D01*
X18000665Y12526475D01*
X17980974Y12515105D01*
X17964896Y12499026D01*
X17953525Y12479334D01*
X17947639Y12457370D01*
Y12434630D01*
X17953525Y12412666D01*
X17964896Y12392974D01*
X17980974Y12376895D01*
X18000665Y12365525D01*
X18022630Y12359640D01*
X18045370D01*
X18067334Y12365525D01*
X18087025Y12376895D01*
X18103105Y12392974D01*
X18114474Y12412666D01*
X18120360Y12434630D01*
Y12457370D01*
X18114474Y12479334D01*
X18103105Y12499026D01*
X18087025Y12515105D01*
X18067334Y12526475D01*
X18045370Y12532360D01*
D02*
G37*
G36*
X18643600Y12433300D02*
X18554700D01*
Y12344400D01*
X18555376D01*
X18581216Y12351324D01*
X18604384Y12364700D01*
X18623300Y12383616D01*
X18636676Y12406784D01*
X18643600Y12432624D01*
Y12433300D01*
D02*
G37*
G36*
X18529300D02*
X18440401D01*
Y12432624D01*
X18447324Y12406784D01*
X18460699Y12383616D01*
X18479616Y12364700D01*
X18502785Y12351324D01*
X18528624Y12344400D01*
X18529300D01*
Y12433300D01*
D02*
G37*
G36*
X17627600D02*
X17538699D01*
Y12344400D01*
X17539375D01*
X17565216Y12351324D01*
X17588383Y12364700D01*
X17607300Y12383616D01*
X17620676Y12406784D01*
X17627600Y12432624D01*
Y12433300D01*
D02*
G37*
G36*
X17513300D02*
X17424400D01*
Y12432624D01*
X17431323Y12406784D01*
X17444701Y12383616D01*
X17463615Y12364700D01*
X17486784Y12351324D01*
X17512624Y12344400D01*
X17513300D01*
Y12433300D01*
D02*
G37*
G36*
X17119600D02*
X17030701D01*
Y12344400D01*
X17031377D01*
X17057216Y12351324D01*
X17080383Y12364700D01*
X17099300Y12383616D01*
X17112675Y12406784D01*
X17119600Y12432624D01*
Y12433300D01*
D02*
G37*
G36*
X17005299D02*
X16916400D01*
Y12432624D01*
X16923325Y12406784D01*
X16936700Y12383616D01*
X16955617Y12364700D01*
X16978784Y12351324D01*
X17004623Y12344400D01*
X17005299D01*
Y12433300D01*
D02*
G37*
G36*
X3187631Y12446000D02*
X3162369D01*
X3139030Y12436333D01*
X3121167Y12418470D01*
X3111500Y12395131D01*
Y12369869D01*
X3121167Y12346530D01*
X3139030Y12328667D01*
X3162369Y12319000D01*
X3187631D01*
X3210970Y12328667D01*
X3228833Y12346530D01*
X3238500Y12369869D01*
Y12395131D01*
X3228833Y12418470D01*
X3210970Y12436333D01*
X3187631Y12446000D01*
D02*
G37*
G36*
X3634115Y12369800D02*
X3568700D01*
Y12304385D01*
X3586393Y12309126D01*
X3604347Y12319492D01*
X3619008Y12334153D01*
X3629374Y12352107D01*
X3634115Y12369800D01*
D02*
G37*
G36*
X3543300D02*
X3477885D01*
X3482626Y12352107D01*
X3492992Y12334153D01*
X3507653Y12319492D01*
X3525607Y12309126D01*
X3543300Y12304385D01*
Y12369800D01*
D02*
G37*
G36*
X3378200Y12333615D02*
Y12268200D01*
X3443615D01*
X3438874Y12285893D01*
X3428508Y12303847D01*
X3413847Y12318508D01*
X3395893Y12328874D01*
X3378200Y12333615D01*
D02*
G37*
G36*
X3352800D02*
X3335107Y12328874D01*
X3317153Y12318508D01*
X3302492Y12303847D01*
X3292126Y12285893D01*
X3287385Y12268200D01*
X3352800D01*
Y12333615D01*
D02*
G37*
G36*
X2997131Y12319000D02*
X2971869D01*
X2948530Y12309333D01*
X2930667Y12291470D01*
X2921000Y12268131D01*
Y12242869D01*
X2930667Y12219530D01*
X2948530Y12201667D01*
X2971869Y12192000D01*
X2997131D01*
X3020470Y12201667D01*
X3038333Y12219530D01*
X3048000Y12242869D01*
Y12268131D01*
X3038333Y12291470D01*
X3020470Y12309333D01*
X2997131Y12319000D01*
D02*
G37*
G36*
X3443615Y12242800D02*
X3378200D01*
Y12177385D01*
X3395893Y12182126D01*
X3413847Y12192492D01*
X3428508Y12207153D01*
X3438874Y12225107D01*
X3443615Y12242800D01*
D02*
G37*
G36*
X3352800D02*
X3287385D01*
X3292126Y12225107D01*
X3302492Y12207153D01*
X3317153Y12192492D01*
X3335107Y12182126D01*
X3352800Y12177385D01*
Y12242800D01*
D02*
G37*
G36*
X13233400Y12433300D02*
X12966701D01*
Y12166600D01*
X12975989D01*
X13019426Y12173480D01*
X13061252Y12187070D01*
X13100436Y12207036D01*
X13136017Y12232886D01*
X13167114Y12263983D01*
X13192964Y12299563D01*
X13212930Y12338748D01*
X13226520Y12380574D01*
X13233400Y12424011D01*
Y12433300D01*
D02*
G37*
G36*
X12941299D02*
X12674600D01*
Y12424011D01*
X12681480Y12380574D01*
X12695070Y12338748D01*
X12715036Y12299563D01*
X12740886Y12263983D01*
X12771983Y12232886D01*
X12807562Y12207036D01*
X12846748Y12187070D01*
X12888574Y12173480D01*
X12932011Y12166600D01*
X12941299D01*
Y12433300D01*
D02*
G37*
G36*
X20714375Y12039600D02*
X20713699D01*
Y11950700D01*
X20802600D01*
Y11951376D01*
X20795676Y11977216D01*
X20782300Y12000384D01*
X20763383Y12019300D01*
X20740216Y12032676D01*
X20714375Y12039600D01*
D02*
G37*
G36*
X19698376D02*
X19697701D01*
Y11950700D01*
X19786600D01*
Y11951376D01*
X19779675Y11977216D01*
X19766299Y12000384D01*
X19747385Y12019300D01*
X19724216Y12032676D01*
X19698376Y12039600D01*
D02*
G37*
G36*
X19190376D02*
X19189700D01*
Y11950700D01*
X19278600D01*
Y11951376D01*
X19271677Y11977216D01*
X19258299Y12000384D01*
X19239384Y12019300D01*
X19216216Y12032676D01*
X19190376Y12039600D01*
D02*
G37*
G36*
X18555376D02*
X18554700D01*
Y11950700D01*
X18643600D01*
Y11951376D01*
X18636676Y11977216D01*
X18623300Y12000384D01*
X18604384Y12019300D01*
X18581216Y12032676D01*
X18555376Y12039600D01*
D02*
G37*
G36*
X18047375D02*
X18046700D01*
Y11950700D01*
X18135600D01*
Y11951376D01*
X18128676Y11977216D01*
X18115300Y12000384D01*
X18096384Y12019300D01*
X18073216Y12032676D01*
X18047375Y12039600D01*
D02*
G37*
G36*
X17539375D02*
X17538699D01*
Y11950700D01*
X17627600D01*
Y11951376D01*
X17620676Y11977216D01*
X17607300Y12000384D01*
X17588383Y12019300D01*
X17565216Y12032676D01*
X17539375Y12039600D01*
D02*
G37*
G36*
X18021300D02*
X18020624D01*
X17994785Y12032676D01*
X17971616Y12019300D01*
X17952699Y12000384D01*
X17939323Y11977216D01*
X17932401Y11951376D01*
Y11950700D01*
X18021300D01*
Y12039600D01*
D02*
G37*
G36*
X17513300D02*
X17512624D01*
X17486784Y12032676D01*
X17463615Y12019300D01*
X17444701Y12000384D01*
X17431323Y11977216D01*
X17424400Y11951376D01*
Y11950700D01*
X17513300D01*
Y12039600D01*
D02*
G37*
G36*
X19672301D02*
X19671625D01*
X19645784Y12032676D01*
X19622617Y12019300D01*
X19603700Y12000384D01*
X19590324Y11977216D01*
X19583400Y11951376D01*
Y11950700D01*
X19672301D01*
Y12039600D01*
D02*
G37*
G36*
X19164301D02*
X19163625D01*
X19137784Y12032676D01*
X19114616Y12019300D01*
X19095700Y12000384D01*
X19082324Y11977216D01*
X19075400Y11951376D01*
Y11950700D01*
X19164301D01*
Y12039600D01*
D02*
G37*
G36*
X20688300D02*
X20687624D01*
X20661784Y12032676D01*
X20638615Y12019300D01*
X20619701Y12000384D01*
X20606323Y11977216D01*
X20599400Y11951376D01*
Y11950700D01*
X20688300D01*
Y12039600D01*
D02*
G37*
G36*
X18529300D02*
X18528624D01*
X18502785Y12032676D01*
X18479616Y12019300D01*
X18460699Y12000384D01*
X18447324Y11977216D01*
X18440401Y11951376D01*
Y11950700D01*
X18529300D01*
Y12039600D01*
D02*
G37*
G36*
X3525984Y11953240D02*
X3509816D01*
X3494879Y11947053D01*
X3483447Y11935621D01*
X3477260Y11920684D01*
Y11904516D01*
X3483447Y11889579D01*
X3494879Y11878147D01*
X3509816Y11871960D01*
X3525984D01*
X3540921Y11878147D01*
X3552353Y11889579D01*
X3558540Y11904516D01*
Y11920684D01*
X3552353Y11935621D01*
X3540921Y11947053D01*
X3525984Y11953240D01*
D02*
G37*
G36*
X20204370Y12024360D02*
X20181630D01*
X20159666Y12018475D01*
X20139973Y12007105D01*
X20123895Y11991026D01*
X20112524Y11971334D01*
X20106641Y11949370D01*
Y11926630D01*
X20112524Y11904666D01*
X20123895Y11884974D01*
X20139973Y11868895D01*
X20159666Y11857525D01*
X20181630Y11851640D01*
X20204370D01*
X20226334Y11857525D01*
X20246027Y11868895D01*
X20262105Y11884974D01*
X20273476Y11904666D01*
X20279359Y11926630D01*
Y11949370D01*
X20273476Y11971334D01*
X20262105Y11991026D01*
X20246027Y12007105D01*
X20226334Y12018475D01*
X20204370Y12024360D01*
D02*
G37*
G36*
X17029370D02*
X17006630D01*
X16984666Y12018475D01*
X16964973Y12007105D01*
X16948895Y11991026D01*
X16937524Y11971334D01*
X16931641Y11949370D01*
Y11926630D01*
X16937524Y11904666D01*
X16948895Y11884974D01*
X16964973Y11868895D01*
X16984666Y11857525D01*
X17006630Y11851640D01*
X17029370D01*
X17051334Y11857525D01*
X17071027Y11868895D01*
X17087105Y11884974D01*
X17098476Y11904666D01*
X17104359Y11926630D01*
Y11949370D01*
X17098476Y11971334D01*
X17087105Y11991026D01*
X17071027Y12007105D01*
X17051334Y12018475D01*
X17029370Y12024360D01*
D02*
G37*
G36*
X20802600Y11925300D02*
X20713699D01*
Y11836400D01*
X20714375D01*
X20740216Y11843324D01*
X20763383Y11856700D01*
X20782300Y11875616D01*
X20795676Y11898784D01*
X20802600Y11924624D01*
Y11925300D01*
D02*
G37*
G36*
X20688300D02*
X20599400D01*
Y11924624D01*
X20606323Y11898784D01*
X20619701Y11875616D01*
X20638615Y11856700D01*
X20661784Y11843324D01*
X20687624Y11836400D01*
X20688300D01*
Y11925300D01*
D02*
G37*
G36*
X19786600D02*
X19697701D01*
Y11836400D01*
X19698376D01*
X19724216Y11843324D01*
X19747385Y11856700D01*
X19766299Y11875616D01*
X19779675Y11898784D01*
X19786600Y11924624D01*
Y11925300D01*
D02*
G37*
G36*
X19672301D02*
X19583400D01*
Y11924624D01*
X19590324Y11898784D01*
X19603700Y11875616D01*
X19622617Y11856700D01*
X19645784Y11843324D01*
X19671625Y11836400D01*
X19672301D01*
Y11925300D01*
D02*
G37*
G36*
X19278600D02*
X19189700D01*
Y11836400D01*
X19190376D01*
X19216216Y11843324D01*
X19239384Y11856700D01*
X19258299Y11875616D01*
X19271677Y11898784D01*
X19278600Y11924624D01*
Y11925300D01*
D02*
G37*
G36*
X19164301D02*
X19075400D01*
Y11924624D01*
X19082324Y11898784D01*
X19095700Y11875616D01*
X19114616Y11856700D01*
X19137784Y11843324D01*
X19163625Y11836400D01*
X19164301D01*
Y11925300D01*
D02*
G37*
G36*
X18643600D02*
X18554700D01*
Y11836400D01*
X18555376D01*
X18581216Y11843324D01*
X18604384Y11856700D01*
X18623300Y11875616D01*
X18636676Y11898784D01*
X18643600Y11924624D01*
Y11925300D01*
D02*
G37*
G36*
X18529300D02*
X18440401D01*
Y11924624D01*
X18447324Y11898784D01*
X18460699Y11875616D01*
X18479616Y11856700D01*
X18502785Y11843324D01*
X18528624Y11836400D01*
X18529300D01*
Y11925300D01*
D02*
G37*
G36*
X18135600D02*
X18046700D01*
Y11836400D01*
X18047375D01*
X18073216Y11843324D01*
X18096384Y11856700D01*
X18115300Y11875616D01*
X18128676Y11898784D01*
X18135600Y11924624D01*
Y11925300D01*
D02*
G37*
G36*
X18021300D02*
X17932401D01*
Y11924624D01*
X17939323Y11898784D01*
X17952699Y11875616D01*
X17971616Y11856700D01*
X17994785Y11843324D01*
X18020624Y11836400D01*
X18021300D01*
Y11925300D01*
D02*
G37*
G36*
X17627600D02*
X17538699D01*
Y11836400D01*
X17539375D01*
X17565216Y11843324D01*
X17588383Y11856700D01*
X17607300Y11875616D01*
X17620676Y11898784D01*
X17627600Y11924624D01*
Y11925300D01*
D02*
G37*
G36*
X17513300D02*
X17424400D01*
Y11924624D01*
X17431323Y11898784D01*
X17444701Y11875616D01*
X17463615Y11856700D01*
X17486784Y11843324D01*
X17512624Y11836400D01*
X17513300D01*
Y11925300D01*
D02*
G37*
G36*
X3381636Y11619230D02*
X3378200D01*
Y11468100D01*
X3529330D01*
Y11471536D01*
X3523034Y11503188D01*
X3510684Y11533003D01*
X3492755Y11559836D01*
X3469936Y11582655D01*
X3443103Y11600584D01*
X3413288Y11612934D01*
X3381636Y11619230D01*
D02*
G37*
G36*
X3352800D02*
X3349364D01*
X3317712Y11612934D01*
X3287897Y11600584D01*
X3261064Y11582655D01*
X3238245Y11559836D01*
X3220316Y11533003D01*
X3207966Y11503188D01*
X3201670Y11471536D01*
Y11468100D01*
X3352800D01*
Y11619230D01*
D02*
G37*
G36*
X20714375Y11531600D02*
X20713699D01*
Y11442700D01*
X20802600D01*
Y11443376D01*
X20795676Y11469216D01*
X20782300Y11492384D01*
X20763383Y11511300D01*
X20740216Y11524676D01*
X20714375Y11531600D01*
D02*
G37*
G36*
X20206377D02*
X20205701D01*
Y11442700D01*
X20294600D01*
Y11443376D01*
X20287675Y11469216D01*
X20274300Y11492384D01*
X20255383Y11511300D01*
X20232216Y11524676D01*
X20206377Y11531600D01*
D02*
G37*
G36*
X19698376D02*
X19697701D01*
Y11442700D01*
X19786600D01*
Y11443376D01*
X19779675Y11469216D01*
X19766299Y11492384D01*
X19747385Y11511300D01*
X19724216Y11524676D01*
X19698376Y11531600D01*
D02*
G37*
G36*
X18555376D02*
X18554700D01*
Y11442700D01*
X18643600D01*
Y11443376D01*
X18636676Y11469216D01*
X18623300Y11492384D01*
X18604384Y11511300D01*
X18581216Y11524676D01*
X18555376Y11531600D01*
D02*
G37*
G36*
X18047375D02*
X18046700D01*
Y11442700D01*
X18135600D01*
Y11443376D01*
X18128676Y11469216D01*
X18115300Y11492384D01*
X18096384Y11511300D01*
X18073216Y11524676D01*
X18047375Y11531600D01*
D02*
G37*
G36*
X17539375D02*
X17538699D01*
Y11442700D01*
X17627600D01*
Y11443376D01*
X17620676Y11469216D01*
X17607300Y11492384D01*
X17588383Y11511300D01*
X17565216Y11524676D01*
X17539375Y11531600D01*
D02*
G37*
G36*
X17031377D02*
X17030701D01*
Y11442700D01*
X17119600D01*
Y11443376D01*
X17112675Y11469216D01*
X17099300Y11492384D01*
X17080383Y11511300D01*
X17057216Y11524676D01*
X17031377Y11531600D01*
D02*
G37*
G36*
X16396376D02*
X16395700D01*
Y11442700D01*
X16484599D01*
Y11443376D01*
X16477676Y11469216D01*
X16464301Y11492384D01*
X16445384Y11511300D01*
X16422215Y11524676D01*
X16396376Y11531600D01*
D02*
G37*
G36*
X15380376D02*
X15379700D01*
Y11442700D01*
X15468600D01*
Y11443376D01*
X15461676Y11469216D01*
X15448300Y11492384D01*
X15429384Y11511300D01*
X15406216Y11524676D01*
X15380376Y11531600D01*
D02*
G37*
G36*
X14872375D02*
X14871700D01*
Y11442700D01*
X14960600D01*
Y11443376D01*
X14953676Y11469216D01*
X14940300Y11492384D01*
X14921384Y11511300D01*
X14898216Y11524676D01*
X14872375Y11531600D01*
D02*
G37*
G36*
X18021300D02*
X18020624D01*
X17994785Y11524676D01*
X17971616Y11511300D01*
X17952699Y11492384D01*
X17939323Y11469216D01*
X17932401Y11443376D01*
Y11442700D01*
X18021300D01*
Y11531600D01*
D02*
G37*
G36*
X17513300D02*
X17512624D01*
X17486784Y11524676D01*
X17463615Y11511300D01*
X17444701Y11492384D01*
X17431323Y11469216D01*
X17424400Y11443376D01*
Y11442700D01*
X17513300D01*
Y11531600D01*
D02*
G37*
G36*
X14846300D02*
X14845624D01*
X14819785Y11524676D01*
X14796616Y11511300D01*
X14777699Y11492384D01*
X14764323Y11469216D01*
X14757401Y11443376D01*
Y11442700D01*
X14846300D01*
Y11531600D01*
D02*
G37*
G36*
X20180299D02*
X20179623D01*
X20153784Y11524676D01*
X20130617Y11511300D01*
X20111700Y11492384D01*
X20098325Y11469216D01*
X20091400Y11443376D01*
Y11442700D01*
X20180299D01*
Y11531600D01*
D02*
G37*
G36*
X19672301D02*
X19671625D01*
X19645784Y11524676D01*
X19622617Y11511300D01*
X19603700Y11492384D01*
X19590324Y11469216D01*
X19583400Y11443376D01*
Y11442700D01*
X19672301D01*
Y11531600D01*
D02*
G37*
G36*
X17005299D02*
X17004623D01*
X16978784Y11524676D01*
X16955617Y11511300D01*
X16936700Y11492384D01*
X16923325Y11469216D01*
X16916400Y11443376D01*
Y11442700D01*
X17005299D01*
Y11531600D01*
D02*
G37*
G36*
X16370300D02*
X16369624D01*
X16343784Y11524676D01*
X16320616Y11511300D01*
X16301700Y11492384D01*
X16288324Y11469216D01*
X16281400Y11443376D01*
Y11442700D01*
X16370300D01*
Y11531600D01*
D02*
G37*
G36*
X15354300D02*
X15353624D01*
X15327785Y11524676D01*
X15304616Y11511300D01*
X15285699Y11492384D01*
X15272324Y11469216D01*
X15265401Y11443376D01*
Y11442700D01*
X15354300D01*
Y11531600D01*
D02*
G37*
G36*
X20688300D02*
X20687624D01*
X20661784Y11524676D01*
X20638615Y11511300D01*
X20619701Y11492384D01*
X20606323Y11469216D01*
X20599400Y11443376D01*
Y11442700D01*
X20688300D01*
Y11531600D01*
D02*
G37*
G36*
X18529300D02*
X18528624D01*
X18502785Y11524676D01*
X18479616Y11511300D01*
X18460699Y11492384D01*
X18447324Y11469216D01*
X18440401Y11443376D01*
Y11442700D01*
X18529300D01*
Y11531600D01*
D02*
G37*
G36*
X12414384Y11483340D02*
X12398216D01*
X12383279Y11477153D01*
X12371847Y11465721D01*
X12365660Y11450784D01*
Y11434616D01*
X12371847Y11419679D01*
X12383279Y11408247D01*
X12398216Y11402060D01*
X12414384D01*
X12429321Y11408247D01*
X12440753Y11419679D01*
X12446940Y11434616D01*
Y11450784D01*
X12440753Y11465721D01*
X12429321Y11477153D01*
X12414384Y11483340D01*
D02*
G37*
G36*
X19188370Y11516360D02*
X19165630D01*
X19143666Y11510475D01*
X19123975Y11499105D01*
X19107895Y11483026D01*
X19096526Y11463334D01*
X19090640Y11441370D01*
Y11418630D01*
X19096526Y11396666D01*
X19107895Y11376974D01*
X19123975Y11360895D01*
X19143666Y11349525D01*
X19165630Y11343640D01*
X19188370D01*
X19210333Y11349525D01*
X19230026Y11360895D01*
X19246104Y11376974D01*
X19257475Y11396666D01*
X19263361Y11418630D01*
Y11441370D01*
X19257475Y11463334D01*
X19246104Y11483026D01*
X19230026Y11499105D01*
X19210333Y11510475D01*
X19188370Y11516360D01*
D02*
G37*
G36*
X15886369D02*
X15863631D01*
X15841666Y11510475D01*
X15821974Y11499105D01*
X15805894Y11483026D01*
X15794525Y11463334D01*
X15788640Y11441370D01*
Y11418630D01*
X15794525Y11396666D01*
X15805894Y11376974D01*
X15821974Y11360895D01*
X15841666Y11349525D01*
X15863631Y11343640D01*
X15886369D01*
X15908334Y11349525D01*
X15928026Y11360895D01*
X15944106Y11376974D01*
X15955475Y11396666D01*
X15961360Y11418630D01*
Y11441370D01*
X15955475Y11463334D01*
X15944106Y11483026D01*
X15928026Y11499105D01*
X15908334Y11510475D01*
X15886369Y11516360D01*
D02*
G37*
G36*
X20802600Y11417300D02*
X20713699D01*
Y11328400D01*
X20714375D01*
X20740216Y11335324D01*
X20763383Y11348700D01*
X20782300Y11367616D01*
X20795676Y11390784D01*
X20802600Y11416624D01*
Y11417300D01*
D02*
G37*
G36*
X20688300D02*
X20599400D01*
Y11416624D01*
X20606323Y11390784D01*
X20619701Y11367616D01*
X20638615Y11348700D01*
X20661784Y11335324D01*
X20687624Y11328400D01*
X20688300D01*
Y11417300D01*
D02*
G37*
G36*
X20294600D02*
X20205701D01*
Y11328400D01*
X20206377D01*
X20232216Y11335324D01*
X20255383Y11348700D01*
X20274300Y11367616D01*
X20287675Y11390784D01*
X20294600Y11416624D01*
Y11417300D01*
D02*
G37*
G36*
X20180299D02*
X20091400D01*
Y11416624D01*
X20098325Y11390784D01*
X20111700Y11367616D01*
X20130617Y11348700D01*
X20153784Y11335324D01*
X20179623Y11328400D01*
X20180299D01*
Y11417300D01*
D02*
G37*
G36*
X19786600D02*
X19697701D01*
Y11328400D01*
X19698376D01*
X19724216Y11335324D01*
X19747385Y11348700D01*
X19766299Y11367616D01*
X19779675Y11390784D01*
X19786600Y11416624D01*
Y11417300D01*
D02*
G37*
G36*
X19672301D02*
X19583400D01*
Y11416624D01*
X19590324Y11390784D01*
X19603700Y11367616D01*
X19622617Y11348700D01*
X19645784Y11335324D01*
X19671625Y11328400D01*
X19672301D01*
Y11417300D01*
D02*
G37*
G36*
X18643600D02*
X18554700D01*
Y11328400D01*
X18555376D01*
X18581216Y11335324D01*
X18604384Y11348700D01*
X18623300Y11367616D01*
X18636676Y11390784D01*
X18643600Y11416624D01*
Y11417300D01*
D02*
G37*
G36*
X18529300D02*
X18440401D01*
Y11416624D01*
X18447324Y11390784D01*
X18460699Y11367616D01*
X18479616Y11348700D01*
X18502785Y11335324D01*
X18528624Y11328400D01*
X18529300D01*
Y11417300D01*
D02*
G37*
G36*
X18135600D02*
X18046700D01*
Y11328400D01*
X18047375D01*
X18073216Y11335324D01*
X18096384Y11348700D01*
X18115300Y11367616D01*
X18128676Y11390784D01*
X18135600Y11416624D01*
Y11417300D01*
D02*
G37*
G36*
X18021300D02*
X17932401D01*
Y11416624D01*
X17939323Y11390784D01*
X17952699Y11367616D01*
X17971616Y11348700D01*
X17994785Y11335324D01*
X18020624Y11328400D01*
X18021300D01*
Y11417300D01*
D02*
G37*
G36*
X17627600D02*
X17538699D01*
Y11328400D01*
X17539375D01*
X17565216Y11335324D01*
X17588383Y11348700D01*
X17607300Y11367616D01*
X17620676Y11390784D01*
X17627600Y11416624D01*
Y11417300D01*
D02*
G37*
G36*
X17513300D02*
X17424400D01*
Y11416624D01*
X17431323Y11390784D01*
X17444701Y11367616D01*
X17463615Y11348700D01*
X17486784Y11335324D01*
X17512624Y11328400D01*
X17513300D01*
Y11417300D01*
D02*
G37*
G36*
X17119600D02*
X17030701D01*
Y11328400D01*
X17031377D01*
X17057216Y11335324D01*
X17080383Y11348700D01*
X17099300Y11367616D01*
X17112675Y11390784D01*
X17119600Y11416624D01*
Y11417300D01*
D02*
G37*
G36*
X17005299D02*
X16916400D01*
Y11416624D01*
X16923325Y11390784D01*
X16936700Y11367616D01*
X16955617Y11348700D01*
X16978784Y11335324D01*
X17004623Y11328400D01*
X17005299D01*
Y11417300D01*
D02*
G37*
G36*
X16484599D02*
X16395700D01*
Y11328400D01*
X16396376D01*
X16422215Y11335324D01*
X16445384Y11348700D01*
X16464301Y11367616D01*
X16477676Y11390784D01*
X16484599Y11416624D01*
Y11417300D01*
D02*
G37*
G36*
X16370300D02*
X16281400D01*
Y11416624D01*
X16288324Y11390784D01*
X16301700Y11367616D01*
X16320616Y11348700D01*
X16343784Y11335324D01*
X16369624Y11328400D01*
X16370300D01*
Y11417300D01*
D02*
G37*
G36*
X15468600D02*
X15379700D01*
Y11328400D01*
X15380376D01*
X15406216Y11335324D01*
X15429384Y11348700D01*
X15448300Y11367616D01*
X15461676Y11390784D01*
X15468600Y11416624D01*
Y11417300D01*
D02*
G37*
G36*
X15354300D02*
X15265401D01*
Y11416624D01*
X15272324Y11390784D01*
X15285699Y11367616D01*
X15304616Y11348700D01*
X15327785Y11335324D01*
X15353624Y11328400D01*
X15354300D01*
Y11417300D01*
D02*
G37*
G36*
X14960600D02*
X14871700D01*
Y11328400D01*
X14872375D01*
X14898216Y11335324D01*
X14921384Y11348700D01*
X14940300Y11367616D01*
X14953676Y11390784D01*
X14960600Y11416624D01*
Y11417300D01*
D02*
G37*
G36*
X14846300D02*
X14757401D01*
Y11416624D01*
X14764323Y11390784D01*
X14777699Y11367616D01*
X14796616Y11348700D01*
X14819785Y11335324D01*
X14845624Y11328400D01*
X14846300D01*
Y11417300D01*
D02*
G37*
G36*
X3529330Y11442700D02*
X3378200D01*
Y11291570D01*
X3381636D01*
X3413288Y11297866D01*
X3443103Y11310216D01*
X3469936Y11328145D01*
X3492755Y11350964D01*
X3510684Y11377797D01*
X3523034Y11407612D01*
X3529330Y11439264D01*
Y11442700D01*
D02*
G37*
G36*
X3352800D02*
X3201670D01*
Y11439264D01*
X3207966Y11407612D01*
X3220316Y11377797D01*
X3238245Y11350964D01*
X3261064Y11328145D01*
X3287897Y11310216D01*
X3317712Y11297866D01*
X3349364Y11291570D01*
X3352800D01*
Y11442700D01*
D02*
G37*
G36*
X8632997Y11249660D02*
X8613603D01*
X8594868Y11244640D01*
X8578072Y11234942D01*
X8564358Y11221228D01*
X8554660Y11204432D01*
X8549640Y11185697D01*
Y11166303D01*
X8554660Y11147568D01*
X8564358Y11130772D01*
X8578072Y11117058D01*
X8594868Y11107360D01*
X8613603Y11102340D01*
X8632997D01*
X8651732Y11107360D01*
X8668528Y11117058D01*
X8682242Y11130772D01*
X8691940Y11147568D01*
X8696960Y11166303D01*
Y11185697D01*
X8691940Y11204432D01*
X8682242Y11221228D01*
X8668528Y11234942D01*
X8651732Y11244640D01*
X8632997Y11249660D01*
D02*
G37*
G36*
X20714375Y11023600D02*
X20713699D01*
Y10934700D01*
X20802600D01*
Y10935376D01*
X20795676Y10961216D01*
X20782300Y10984384D01*
X20763383Y11003300D01*
X20740216Y11016676D01*
X20714375Y11023600D01*
D02*
G37*
G36*
X20206377D02*
X20205701D01*
Y10934700D01*
X20294600D01*
Y10935376D01*
X20287675Y10961216D01*
X20274300Y10984384D01*
X20255383Y11003300D01*
X20232216Y11016676D01*
X20206377Y11023600D01*
D02*
G37*
G36*
X19698376D02*
X19697701D01*
Y10934700D01*
X19786600D01*
Y10935376D01*
X19779675Y10961216D01*
X19766299Y10984384D01*
X19747385Y11003300D01*
X19724216Y11016676D01*
X19698376Y11023600D01*
D02*
G37*
G36*
X19190376D02*
X19189700D01*
Y10934700D01*
X19278600D01*
Y10935376D01*
X19271677Y10961216D01*
X19258299Y10984384D01*
X19239384Y11003300D01*
X19216216Y11016676D01*
X19190376Y11023600D01*
D02*
G37*
G36*
X18555376D02*
X18554700D01*
Y10934700D01*
X18643600D01*
Y10935376D01*
X18636676Y10961216D01*
X18623300Y10984384D01*
X18604384Y11003300D01*
X18581216Y11016676D01*
X18555376Y11023600D01*
D02*
G37*
G36*
X17539375D02*
X17538699D01*
Y10934700D01*
X17627600D01*
Y10935376D01*
X17620676Y10961216D01*
X17607300Y10984384D01*
X17588383Y11003300D01*
X17565216Y11016676D01*
X17539375Y11023600D01*
D02*
G37*
G36*
X17031377D02*
X17030701D01*
Y10934700D01*
X17119600D01*
Y10935376D01*
X17112675Y10961216D01*
X17099300Y10984384D01*
X17080383Y11003300D01*
X17057216Y11016676D01*
X17031377Y11023600D01*
D02*
G37*
G36*
X16396376D02*
X16395700D01*
Y10934700D01*
X16484599D01*
Y10935376D01*
X16477676Y10961216D01*
X16464301Y10984384D01*
X16445384Y11003300D01*
X16422215Y11016676D01*
X16396376Y11023600D01*
D02*
G37*
G36*
X15888376D02*
X15887700D01*
Y10934700D01*
X15976601D01*
Y10935376D01*
X15969676Y10961216D01*
X15956300Y10984384D01*
X15937384Y11003300D01*
X15914217Y11016676D01*
X15888376Y11023600D01*
D02*
G37*
G36*
X15380376D02*
X15379700D01*
Y10934700D01*
X15468600D01*
Y10935376D01*
X15461676Y10961216D01*
X15448300Y10984384D01*
X15429384Y11003300D01*
X15406216Y11016676D01*
X15380376Y11023600D01*
D02*
G37*
G36*
X15862300D02*
X15861624D01*
X15835783Y11016676D01*
X15812616Y11003300D01*
X15793700Y10984384D01*
X15780324Y10961216D01*
X15773399Y10935376D01*
Y10934700D01*
X15862300D01*
Y11023600D01*
D02*
G37*
G36*
X17513300D02*
X17512624D01*
X17486784Y11016676D01*
X17463615Y11003300D01*
X17444701Y10984384D01*
X17431323Y10961216D01*
X17424400Y10935376D01*
Y10934700D01*
X17513300D01*
Y11023600D01*
D02*
G37*
G36*
X20180299D02*
X20179623D01*
X20153784Y11016676D01*
X20130617Y11003300D01*
X20111700Y10984384D01*
X20098325Y10961216D01*
X20091400Y10935376D01*
Y10934700D01*
X20180299D01*
Y11023600D01*
D02*
G37*
G36*
X19672301D02*
X19671625D01*
X19645784Y11016676D01*
X19622617Y11003300D01*
X19603700Y10984384D01*
X19590324Y10961216D01*
X19583400Y10935376D01*
Y10934700D01*
X19672301D01*
Y11023600D01*
D02*
G37*
G36*
X19164301D02*
X19163625D01*
X19137784Y11016676D01*
X19114616Y11003300D01*
X19095700Y10984384D01*
X19082324Y10961216D01*
X19075400Y10935376D01*
Y10934700D01*
X19164301D01*
Y11023600D01*
D02*
G37*
G36*
X17005299D02*
X17004623D01*
X16978784Y11016676D01*
X16955617Y11003300D01*
X16936700Y10984384D01*
X16923325Y10961216D01*
X16916400Y10935376D01*
Y10934700D01*
X17005299D01*
Y11023600D01*
D02*
G37*
G36*
X16370300D02*
X16369624D01*
X16343784Y11016676D01*
X16320616Y11003300D01*
X16301700Y10984384D01*
X16288324Y10961216D01*
X16281400Y10935376D01*
Y10934700D01*
X16370300D01*
Y11023600D01*
D02*
G37*
G36*
X15354300D02*
X15353624D01*
X15327785Y11016676D01*
X15304616Y11003300D01*
X15285699Y10984384D01*
X15272324Y10961216D01*
X15265401Y10935376D01*
Y10934700D01*
X15354300D01*
Y11023600D01*
D02*
G37*
G36*
X20688300D02*
X20687624D01*
X20661784Y11016676D01*
X20638615Y11003300D01*
X20619701Y10984384D01*
X20606323Y10961216D01*
X20599400Y10935376D01*
Y10934700D01*
X20688300D01*
Y11023600D01*
D02*
G37*
G36*
X18529300D02*
X18528624D01*
X18502785Y11016676D01*
X18479616Y11003300D01*
X18460699Y10984384D01*
X18447324Y10961216D01*
X18440401Y10935376D01*
Y10934700D01*
X18529300D01*
Y11023600D01*
D02*
G37*
G36*
X18045370Y11008360D02*
X18022630D01*
X18000665Y11002475D01*
X17980974Y10991105D01*
X17964896Y10975026D01*
X17953525Y10955334D01*
X17947639Y10933370D01*
Y10910630D01*
X17953525Y10888666D01*
X17964896Y10868974D01*
X17980974Y10852895D01*
X18000665Y10841525D01*
X18022630Y10835640D01*
X18045370D01*
X18067334Y10841525D01*
X18087025Y10852895D01*
X18103105Y10868974D01*
X18114474Y10888666D01*
X18120360Y10910630D01*
Y10933370D01*
X18114474Y10955334D01*
X18103105Y10975026D01*
X18087025Y10991105D01*
X18067334Y11002475D01*
X18045370Y11008360D01*
D02*
G37*
G36*
X14870370D02*
X14847630D01*
X14825665Y11002475D01*
X14805974Y10991105D01*
X14789896Y10975026D01*
X14778525Y10955334D01*
X14772639Y10933370D01*
Y10910630D01*
X14778525Y10888666D01*
X14789896Y10868974D01*
X14805974Y10852895D01*
X14825665Y10841525D01*
X14847630Y10835640D01*
X14870370D01*
X14892334Y10841525D01*
X14912025Y10852895D01*
X14928105Y10868974D01*
X14939474Y10888666D01*
X14945360Y10910630D01*
Y10933370D01*
X14939474Y10955334D01*
X14928105Y10975026D01*
X14912025Y10991105D01*
X14892334Y11002475D01*
X14870370Y11008360D01*
D02*
G37*
G36*
X12862097Y10982960D02*
X12842703D01*
X12823969Y10977940D01*
X12807172Y10968242D01*
X12793458Y10954528D01*
X12783760Y10937732D01*
X12778740Y10918997D01*
Y10899603D01*
X12783760Y10880868D01*
X12793458Y10864072D01*
X12807172Y10850358D01*
X12823969Y10840660D01*
X12842703Y10835640D01*
X12862097D01*
X12880832Y10840660D01*
X12897627Y10850358D01*
X12911342Y10864072D01*
X12921040Y10880868D01*
X12926060Y10899603D01*
Y10918997D01*
X12921040Y10937732D01*
X12911342Y10954528D01*
X12897627Y10968242D01*
X12880832Y10977940D01*
X12862097Y10982960D01*
D02*
G37*
G36*
X20802600Y10909300D02*
X20713699D01*
Y10820400D01*
X20714375D01*
X20740216Y10827324D01*
X20763383Y10840700D01*
X20782300Y10859616D01*
X20795676Y10882784D01*
X20802600Y10908624D01*
Y10909300D01*
D02*
G37*
G36*
X20688300D02*
X20599400D01*
Y10908624D01*
X20606323Y10882784D01*
X20619701Y10859616D01*
X20638615Y10840700D01*
X20661784Y10827324D01*
X20687624Y10820400D01*
X20688300D01*
Y10909300D01*
D02*
G37*
G36*
X20294600D02*
X20205701D01*
Y10820400D01*
X20206377D01*
X20232216Y10827324D01*
X20255383Y10840700D01*
X20274300Y10859616D01*
X20287675Y10882784D01*
X20294600Y10908624D01*
Y10909300D01*
D02*
G37*
G36*
X20180299D02*
X20091400D01*
Y10908624D01*
X20098325Y10882784D01*
X20111700Y10859616D01*
X20130617Y10840700D01*
X20153784Y10827324D01*
X20179623Y10820400D01*
X20180299D01*
Y10909300D01*
D02*
G37*
G36*
X19786600D02*
X19697701D01*
Y10820400D01*
X19698376D01*
X19724216Y10827324D01*
X19747385Y10840700D01*
X19766299Y10859616D01*
X19779675Y10882784D01*
X19786600Y10908624D01*
Y10909300D01*
D02*
G37*
G36*
X19672301D02*
X19583400D01*
Y10908624D01*
X19590324Y10882784D01*
X19603700Y10859616D01*
X19622617Y10840700D01*
X19645784Y10827324D01*
X19671625Y10820400D01*
X19672301D01*
Y10909300D01*
D02*
G37*
G36*
X19278600D02*
X19189700D01*
Y10820400D01*
X19190376D01*
X19216216Y10827324D01*
X19239384Y10840700D01*
X19258299Y10859616D01*
X19271677Y10882784D01*
X19278600Y10908624D01*
Y10909300D01*
D02*
G37*
G36*
X19164301D02*
X19075400D01*
Y10908624D01*
X19082324Y10882784D01*
X19095700Y10859616D01*
X19114616Y10840700D01*
X19137784Y10827324D01*
X19163625Y10820400D01*
X19164301D01*
Y10909300D01*
D02*
G37*
G36*
X18643600D02*
X18554700D01*
Y10820400D01*
X18555376D01*
X18581216Y10827324D01*
X18604384Y10840700D01*
X18623300Y10859616D01*
X18636676Y10882784D01*
X18643600Y10908624D01*
Y10909300D01*
D02*
G37*
G36*
X18529300D02*
X18440401D01*
Y10908624D01*
X18447324Y10882784D01*
X18460699Y10859616D01*
X18479616Y10840700D01*
X18502785Y10827324D01*
X18528624Y10820400D01*
X18529300D01*
Y10909300D01*
D02*
G37*
G36*
X17627600D02*
X17538699D01*
Y10820400D01*
X17539375D01*
X17565216Y10827324D01*
X17588383Y10840700D01*
X17607300Y10859616D01*
X17620676Y10882784D01*
X17627600Y10908624D01*
Y10909300D01*
D02*
G37*
G36*
X17513300D02*
X17424400D01*
Y10908624D01*
X17431323Y10882784D01*
X17444701Y10859616D01*
X17463615Y10840700D01*
X17486784Y10827324D01*
X17512624Y10820400D01*
X17513300D01*
Y10909300D01*
D02*
G37*
G36*
X17119600D02*
X17030701D01*
Y10820400D01*
X17031377D01*
X17057216Y10827324D01*
X17080383Y10840700D01*
X17099300Y10859616D01*
X17112675Y10882784D01*
X17119600Y10908624D01*
Y10909300D01*
D02*
G37*
G36*
X17005299D02*
X16916400D01*
Y10908624D01*
X16923325Y10882784D01*
X16936700Y10859616D01*
X16955617Y10840700D01*
X16978784Y10827324D01*
X17004623Y10820400D01*
X17005299D01*
Y10909300D01*
D02*
G37*
G36*
X16484599D02*
X16395700D01*
Y10820400D01*
X16396376D01*
X16422215Y10827324D01*
X16445384Y10840700D01*
X16464301Y10859616D01*
X16477676Y10882784D01*
X16484599Y10908624D01*
Y10909300D01*
D02*
G37*
G36*
X16370300D02*
X16281400D01*
Y10908624D01*
X16288324Y10882784D01*
X16301700Y10859616D01*
X16320616Y10840700D01*
X16343784Y10827324D01*
X16369624Y10820400D01*
X16370300D01*
Y10909300D01*
D02*
G37*
G36*
X15976601D02*
X15887700D01*
Y10820400D01*
X15888376D01*
X15914217Y10827324D01*
X15937384Y10840700D01*
X15956300Y10859616D01*
X15969676Y10882784D01*
X15976601Y10908624D01*
Y10909300D01*
D02*
G37*
G36*
X15862300D02*
X15773399D01*
Y10908624D01*
X15780324Y10882784D01*
X15793700Y10859616D01*
X15812616Y10840700D01*
X15835783Y10827324D01*
X15861624Y10820400D01*
X15862300D01*
Y10909300D01*
D02*
G37*
G36*
X15468600D02*
X15379700D01*
Y10820400D01*
X15380376D01*
X15406216Y10827324D01*
X15429384Y10840700D01*
X15448300Y10859616D01*
X15461676Y10882784D01*
X15468600Y10908624D01*
Y10909300D01*
D02*
G37*
G36*
X15354300D02*
X15265401D01*
Y10908624D01*
X15272324Y10882784D01*
X15285699Y10859616D01*
X15304616Y10840700D01*
X15327785Y10827324D01*
X15353624Y10820400D01*
X15354300D01*
Y10909300D01*
D02*
G37*
G36*
X12203684Y10695940D02*
X12187516D01*
X12172579Y10689753D01*
X12161147Y10678321D01*
X12154960Y10663384D01*
Y10647216D01*
X12161147Y10632279D01*
X12172579Y10620847D01*
X12187516Y10614660D01*
X12203684D01*
X12218621Y10620847D01*
X12230053Y10632279D01*
X12236240Y10647216D01*
Y10663384D01*
X12230053Y10678321D01*
X12218621Y10689753D01*
X12203684Y10695940D01*
D02*
G37*
G36*
X20714375Y10515600D02*
X20713699D01*
Y10426700D01*
X20802600D01*
Y10427376D01*
X20795676Y10453216D01*
X20782300Y10476384D01*
X20763383Y10495300D01*
X20740216Y10508676D01*
X20714375Y10515600D01*
D02*
G37*
G36*
X19698376D02*
X19697701D01*
Y10426700D01*
X19786600D01*
Y10427376D01*
X19779675Y10453216D01*
X19766299Y10476384D01*
X19747385Y10495300D01*
X19724216Y10508676D01*
X19698376Y10515600D01*
D02*
G37*
G36*
X19190376D02*
X19189700D01*
Y10426700D01*
X19278600D01*
Y10427376D01*
X19271677Y10453216D01*
X19258299Y10476384D01*
X19239384Y10495300D01*
X19216216Y10508676D01*
X19190376Y10515600D01*
D02*
G37*
G36*
X16396376D02*
X16395700D01*
Y10426700D01*
X16484599D01*
Y10427376D01*
X16477676Y10453216D01*
X16464301Y10476384D01*
X16445384Y10495300D01*
X16422215Y10508676D01*
X16396376Y10515600D01*
D02*
G37*
G36*
X15888376D02*
X15887700D01*
Y10426700D01*
X15976601D01*
Y10427376D01*
X15969676Y10453216D01*
X15956300Y10476384D01*
X15937384Y10495300D01*
X15914217Y10508676D01*
X15888376Y10515600D01*
D02*
G37*
G36*
X15380376D02*
X15379700D01*
Y10426700D01*
X15468600D01*
Y10427376D01*
X15461676Y10453216D01*
X15448300Y10476384D01*
X15429384Y10495300D01*
X15406216Y10508676D01*
X15380376Y10515600D01*
D02*
G37*
G36*
X14872375D02*
X14871700D01*
Y10426700D01*
X14960600D01*
Y10427376D01*
X14953676Y10453216D01*
X14940300Y10476384D01*
X14921384Y10495300D01*
X14898216Y10508676D01*
X14872375Y10515600D01*
D02*
G37*
G36*
X15862300D02*
X15861624D01*
X15835783Y10508676D01*
X15812616Y10495300D01*
X15793700Y10476384D01*
X15780324Y10453216D01*
X15773399Y10427376D01*
Y10426700D01*
X15862300D01*
Y10515600D01*
D02*
G37*
G36*
X14846300D02*
X14845624D01*
X14819785Y10508676D01*
X14796616Y10495300D01*
X14777699Y10476384D01*
X14764323Y10453216D01*
X14757401Y10427376D01*
Y10426700D01*
X14846300D01*
Y10515600D01*
D02*
G37*
G36*
X19672301D02*
X19671625D01*
X19645784Y10508676D01*
X19622617Y10495300D01*
X19603700Y10476384D01*
X19590324Y10453216D01*
X19583400Y10427376D01*
Y10426700D01*
X19672301D01*
Y10515600D01*
D02*
G37*
G36*
X19164301D02*
X19163625D01*
X19137784Y10508676D01*
X19114616Y10495300D01*
X19095700Y10476384D01*
X19082324Y10453216D01*
X19075400Y10427376D01*
Y10426700D01*
X19164301D01*
Y10515600D01*
D02*
G37*
G36*
X16370300D02*
X16369624D01*
X16343784Y10508676D01*
X16320616Y10495300D01*
X16301700Y10476384D01*
X16288324Y10453216D01*
X16281400Y10427376D01*
Y10426700D01*
X16370300D01*
Y10515600D01*
D02*
G37*
G36*
X15354300D02*
X15353624D01*
X15327785Y10508676D01*
X15304616Y10495300D01*
X15285699Y10476384D01*
X15272324Y10453216D01*
X15265401Y10427376D01*
Y10426700D01*
X15354300D01*
Y10515600D01*
D02*
G37*
G36*
X20688300D02*
X20687624D01*
X20661784Y10508676D01*
X20638615Y10495300D01*
X20619701Y10476384D01*
X20606323Y10453216D01*
X20599400Y10427376D01*
Y10426700D01*
X20688300D01*
Y10515600D01*
D02*
G37*
G36*
X20204370Y10500360D02*
X20181630D01*
X20159666Y10494475D01*
X20139973Y10483105D01*
X20123895Y10467026D01*
X20112524Y10447334D01*
X20106641Y10425370D01*
Y10402630D01*
X20112524Y10380666D01*
X20123895Y10360974D01*
X20139973Y10344895D01*
X20159666Y10333525D01*
X20181630Y10327640D01*
X20204370D01*
X20226334Y10333525D01*
X20246027Y10344895D01*
X20262105Y10360974D01*
X20273476Y10380666D01*
X20279359Y10402630D01*
Y10425370D01*
X20273476Y10447334D01*
X20262105Y10467026D01*
X20246027Y10483105D01*
X20226334Y10494475D01*
X20204370Y10500360D01*
D02*
G37*
G36*
X20802600Y10401300D02*
X20713699D01*
Y10312400D01*
X20714375D01*
X20740216Y10319324D01*
X20763383Y10332700D01*
X20782300Y10351616D01*
X20795676Y10374784D01*
X20802600Y10400624D01*
Y10401300D01*
D02*
G37*
G36*
X20688300D02*
X20599400D01*
Y10400624D01*
X20606323Y10374784D01*
X20619701Y10351616D01*
X20638615Y10332700D01*
X20661784Y10319324D01*
X20687624Y10312400D01*
X20688300D01*
Y10401300D01*
D02*
G37*
G36*
X19786600D02*
X19697701D01*
Y10312400D01*
X19698376D01*
X19724216Y10319324D01*
X19747385Y10332700D01*
X19766299Y10351616D01*
X19779675Y10374784D01*
X19786600Y10400624D01*
Y10401300D01*
D02*
G37*
G36*
X19672301D02*
X19583400D01*
Y10400624D01*
X19590324Y10374784D01*
X19603700Y10351616D01*
X19622617Y10332700D01*
X19645784Y10319324D01*
X19671625Y10312400D01*
X19672301D01*
Y10401300D01*
D02*
G37*
G36*
X19278600D02*
X19189700D01*
Y10312400D01*
X19190376D01*
X19216216Y10319324D01*
X19239384Y10332700D01*
X19258299Y10351616D01*
X19271677Y10374784D01*
X19278600Y10400624D01*
Y10401300D01*
D02*
G37*
G36*
X19164301D02*
X19075400D01*
Y10400624D01*
X19082324Y10374784D01*
X19095700Y10351616D01*
X19114616Y10332700D01*
X19137784Y10319324D01*
X19163625Y10312400D01*
X19164301D01*
Y10401300D01*
D02*
G37*
G36*
X16484599D02*
X16395700D01*
Y10312400D01*
X16396376D01*
X16422215Y10319324D01*
X16445384Y10332700D01*
X16464301Y10351616D01*
X16477676Y10374784D01*
X16484599Y10400624D01*
Y10401300D01*
D02*
G37*
G36*
X16370300D02*
X16281400D01*
Y10400624D01*
X16288324Y10374784D01*
X16301700Y10351616D01*
X16320616Y10332700D01*
X16343784Y10319324D01*
X16369624Y10312400D01*
X16370300D01*
Y10401300D01*
D02*
G37*
G36*
X15976601D02*
X15887700D01*
Y10312400D01*
X15888376D01*
X15914217Y10319324D01*
X15937384Y10332700D01*
X15956300Y10351616D01*
X15969676Y10374784D01*
X15976601Y10400624D01*
Y10401300D01*
D02*
G37*
G36*
X15862300D02*
X15773399D01*
Y10400624D01*
X15780324Y10374784D01*
X15793700Y10351616D01*
X15812616Y10332700D01*
X15835783Y10319324D01*
X15861624Y10312400D01*
X15862300D01*
Y10401300D01*
D02*
G37*
G36*
X15468600D02*
X15379700D01*
Y10312400D01*
X15380376D01*
X15406216Y10319324D01*
X15429384Y10332700D01*
X15448300Y10351616D01*
X15461676Y10374784D01*
X15468600Y10400624D01*
Y10401300D01*
D02*
G37*
G36*
X15354300D02*
X15265401D01*
Y10400624D01*
X15272324Y10374784D01*
X15285699Y10351616D01*
X15304616Y10332700D01*
X15327785Y10319324D01*
X15353624Y10312400D01*
X15354300D01*
Y10401300D01*
D02*
G37*
G36*
X14960600D02*
X14871700D01*
Y10312400D01*
X14872375D01*
X14898216Y10319324D01*
X14921384Y10332700D01*
X14940300Y10351616D01*
X14953676Y10374784D01*
X14960600Y10400624D01*
Y10401300D01*
D02*
G37*
G36*
X14846300D02*
X14757401D01*
Y10400624D01*
X14764323Y10374784D01*
X14777699Y10351616D01*
X14796616Y10332700D01*
X14819785Y10319324D01*
X14845624Y10312400D01*
X14846300D01*
Y10401300D01*
D02*
G37*
G36*
X10636384Y10213340D02*
X10620216D01*
X10605279Y10207153D01*
X10593847Y10195721D01*
X10587660Y10180784D01*
Y10164616D01*
X10593847Y10149679D01*
X10605279Y10138247D01*
X10620216Y10132060D01*
X10636384D01*
X10651321Y10138247D01*
X10662753Y10149679D01*
X10668940Y10164616D01*
Y10180784D01*
X10662753Y10195721D01*
X10651321Y10207153D01*
X10636384Y10213340D01*
D02*
G37*
G36*
X16396376Y10007600D02*
X16395700D01*
Y9918700D01*
X16484599D01*
Y9919376D01*
X16477676Y9945216D01*
X16464301Y9968384D01*
X16445384Y9987300D01*
X16422215Y10000676D01*
X16396376Y10007600D01*
D02*
G37*
G36*
X15380376D02*
X15379700D01*
Y9918700D01*
X15468600D01*
Y9919376D01*
X15461676Y9945216D01*
X15448300Y9968384D01*
X15429384Y9987300D01*
X15406216Y10000676D01*
X15380376Y10007600D01*
D02*
G37*
G36*
X14872375D02*
X14871700D01*
Y9918700D01*
X14960600D01*
Y9919376D01*
X14953676Y9945216D01*
X14940300Y9968384D01*
X14921384Y9987300D01*
X14898216Y10000676D01*
X14872375Y10007600D01*
D02*
G37*
G36*
X3577989Y10185400D02*
X3568700D01*
Y9918700D01*
X3835400D01*
Y9927989D01*
X3828520Y9971426D01*
X3814930Y10013252D01*
X3794964Y10052437D01*
X3769114Y10088017D01*
X3738017Y10119114D01*
X3702437Y10144964D01*
X3663252Y10164930D01*
X3621426Y10178520D01*
X3577989Y10185400D01*
D02*
G37*
G36*
X3543300D02*
X3534011D01*
X3490574Y10178520D01*
X3448748Y10164930D01*
X3409563Y10144964D01*
X3373983Y10119114D01*
X3342886Y10088017D01*
X3317036Y10052437D01*
X3297070Y10013252D01*
X3283480Y9971426D01*
X3276600Y9927989D01*
Y9918700D01*
X3543300D01*
Y10185400D01*
D02*
G37*
G36*
X14846300Y10007600D02*
X14845624D01*
X14819785Y10000676D01*
X14796616Y9987300D01*
X14777699Y9968384D01*
X14764323Y9945216D01*
X14757401Y9919376D01*
Y9918700D01*
X14846300D01*
Y10007600D01*
D02*
G37*
G36*
X16370300D02*
X16369624D01*
X16343784Y10000676D01*
X16320616Y9987300D01*
X16301700Y9968384D01*
X16288324Y9945216D01*
X16281400Y9919376D01*
Y9918700D01*
X16370300D01*
Y10007600D01*
D02*
G37*
G36*
X15354300D02*
X15353624D01*
X15327785Y10000676D01*
X15304616Y9987300D01*
X15285699Y9968384D01*
X15272324Y9945216D01*
X15265401Y9919376D01*
Y9918700D01*
X15354300D01*
Y10007600D01*
D02*
G37*
G36*
X15886369Y9992360D02*
X15863631D01*
X15841666Y9986475D01*
X15821974Y9975105D01*
X15805894Y9959026D01*
X15794525Y9939334D01*
X15788640Y9917370D01*
Y9894630D01*
X15794525Y9872666D01*
X15805894Y9852974D01*
X15821974Y9836895D01*
X15841666Y9825525D01*
X15863631Y9819640D01*
X15886369D01*
X15908334Y9825525D01*
X15928026Y9836895D01*
X15944106Y9852974D01*
X15955475Y9872666D01*
X15961360Y9894630D01*
Y9917370D01*
X15955475Y9939334D01*
X15944106Y9959026D01*
X15928026Y9975105D01*
X15908334Y9986475D01*
X15886369Y9992360D01*
D02*
G37*
G36*
X16484599Y9893300D02*
X16395700D01*
Y9804400D01*
X16396376D01*
X16422215Y9811324D01*
X16445384Y9824700D01*
X16464301Y9843616D01*
X16477676Y9866784D01*
X16484599Y9892624D01*
Y9893300D01*
D02*
G37*
G36*
X16370300D02*
X16281400D01*
Y9892624D01*
X16288324Y9866784D01*
X16301700Y9843616D01*
X16320616Y9824700D01*
X16343784Y9811324D01*
X16369624Y9804400D01*
X16370300D01*
Y9893300D01*
D02*
G37*
G36*
X15468600D02*
X15379700D01*
Y9804400D01*
X15380376D01*
X15406216Y9811324D01*
X15429384Y9824700D01*
X15448300Y9843616D01*
X15461676Y9866784D01*
X15468600Y9892624D01*
Y9893300D01*
D02*
G37*
G36*
X15354300D02*
X15265401D01*
Y9892624D01*
X15272324Y9866784D01*
X15285699Y9843616D01*
X15304616Y9824700D01*
X15327785Y9811324D01*
X15353624Y9804400D01*
X15354300D01*
Y9893300D01*
D02*
G37*
G36*
X14960600D02*
X14871700D01*
Y9804400D01*
X14872375D01*
X14898216Y9811324D01*
X14921384Y9824700D01*
X14940300Y9843616D01*
X14953676Y9866784D01*
X14960600Y9892624D01*
Y9893300D01*
D02*
G37*
G36*
X14846300D02*
X14757401D01*
Y9892624D01*
X14764323Y9866784D01*
X14777699Y9843616D01*
X14796616Y9824700D01*
X14819785Y9811324D01*
X14845624Y9804400D01*
X14846300D01*
Y9893300D01*
D02*
G37*
G36*
X19071989Y9931400D02*
X19062700D01*
Y9664700D01*
X19329401D01*
Y9673989D01*
X19322520Y9717426D01*
X19308929Y9759252D01*
X19288963Y9798437D01*
X19263113Y9834017D01*
X19232018Y9865114D01*
X19196437Y9890964D01*
X19157253Y9910930D01*
X19115427Y9924520D01*
X19071989Y9931400D01*
D02*
G37*
G36*
X19037300D02*
X19028011D01*
X18984573Y9924520D01*
X18942747Y9910930D01*
X18903563Y9890964D01*
X18867982Y9865114D01*
X18836887Y9834017D01*
X18811037Y9798437D01*
X18791071Y9759252D01*
X18777480Y9717426D01*
X18770599Y9673989D01*
Y9664700D01*
X19037300D01*
Y9931400D01*
D02*
G37*
G36*
X3835400Y9893300D02*
X3568700D01*
Y9626600D01*
X3577989D01*
X3621426Y9633480D01*
X3663252Y9647070D01*
X3702437Y9667036D01*
X3738017Y9692886D01*
X3769114Y9723983D01*
X3794964Y9759563D01*
X3814930Y9798748D01*
X3828520Y9840574D01*
X3835400Y9884011D01*
Y9893300D01*
D02*
G37*
G36*
X3543300D02*
X3276600D01*
Y9884011D01*
X3283480Y9840574D01*
X3297070Y9798748D01*
X3317036Y9759563D01*
X3342886Y9723983D01*
X3373983Y9692886D01*
X3409563Y9667036D01*
X3448748Y9647070D01*
X3490574Y9633480D01*
X3534011Y9626600D01*
X3543300D01*
Y9893300D01*
D02*
G37*
G36*
X11084097Y9712960D02*
X11064703D01*
X11045968Y9707940D01*
X11029172Y9698242D01*
X11015458Y9684528D01*
X11005760Y9667732D01*
X11000740Y9648997D01*
Y9629603D01*
X11005760Y9610868D01*
X11015458Y9594072D01*
X11029172Y9580358D01*
X11045968Y9570660D01*
X11064703Y9565640D01*
X11084097D01*
X11102832Y9570660D01*
X11119628Y9580358D01*
X11133342Y9594072D01*
X11143040Y9610868D01*
X11148060Y9629603D01*
Y9648997D01*
X11143040Y9667732D01*
X11133342Y9684528D01*
X11119628Y9698242D01*
X11102832Y9707940D01*
X11084097Y9712960D01*
D02*
G37*
G36*
X19329401Y9639300D02*
X19062700D01*
Y9372600D01*
X19071989D01*
X19115427Y9379480D01*
X19157253Y9393070D01*
X19196437Y9413036D01*
X19232018Y9438886D01*
X19263113Y9469983D01*
X19288963Y9505563D01*
X19308929Y9544748D01*
X19322520Y9586574D01*
X19329401Y9630011D01*
Y9639300D01*
D02*
G37*
G36*
X19037300D02*
X18770599D01*
Y9630011D01*
X18777480Y9586574D01*
X18791071Y9544748D01*
X18811037Y9505563D01*
X18836887Y9469983D01*
X18867982Y9438886D01*
X18903563Y9413036D01*
X18942747Y9393070D01*
X18984573Y9379480D01*
X19028011Y9372600D01*
X19037300D01*
Y9639300D01*
D02*
G37*
G36*
X10425684Y9425940D02*
X10409516D01*
X10394579Y9419753D01*
X10383147Y9408321D01*
X10376960Y9393384D01*
Y9377216D01*
X10383147Y9362279D01*
X10394579Y9350847D01*
X10409516Y9344660D01*
X10425684D01*
X10440621Y9350847D01*
X10452053Y9362279D01*
X10458240Y9377216D01*
Y9393384D01*
X10452053Y9408321D01*
X10440621Y9419753D01*
X10425684Y9425940D01*
D02*
G37*
G36*
X6854997Y8709660D02*
X6835603D01*
X6816868Y8704640D01*
X6800072Y8694942D01*
X6786358Y8681228D01*
X6776660Y8664432D01*
X6771640Y8645697D01*
Y8626303D01*
X6776660Y8607568D01*
X6786358Y8590772D01*
X6800072Y8577058D01*
X6816868Y8567360D01*
X6835603Y8562340D01*
X6854997D01*
X6873732Y8567360D01*
X6890528Y8577058D01*
X6904242Y8590772D01*
X6913940Y8607568D01*
X6918960Y8626303D01*
Y8645697D01*
X6913940Y8664432D01*
X6904242Y8681228D01*
X6890528Y8694942D01*
X6873732Y8704640D01*
X6854997Y8709660D01*
D02*
G37*
G36*
X12414384Y7673340D02*
X12398216D01*
X12383279Y7667153D01*
X12371847Y7655721D01*
X12365660Y7640784D01*
Y7624616D01*
X12371847Y7609679D01*
X12383279Y7598247D01*
X12398216Y7592060D01*
X12414384D01*
X12429321Y7598247D01*
X12440753Y7609679D01*
X12446940Y7624616D01*
Y7640784D01*
X12440753Y7655721D01*
X12429321Y7667153D01*
X12414384Y7673340D01*
D02*
G37*
G36*
X8632997Y7439660D02*
X8613603D01*
X8594868Y7434640D01*
X8578072Y7424942D01*
X8564358Y7411228D01*
X8554660Y7394432D01*
X8549640Y7375697D01*
Y7356303D01*
X8554660Y7337568D01*
X8564358Y7320772D01*
X8578072Y7307058D01*
X8594868Y7297360D01*
X8613603Y7292340D01*
X8632997D01*
X8651732Y7297360D01*
X8668528Y7307058D01*
X8682242Y7320772D01*
X8691940Y7337568D01*
X8696960Y7356303D01*
Y7375697D01*
X8691940Y7394432D01*
X8682242Y7411228D01*
X8668528Y7424942D01*
X8651732Y7434640D01*
X8632997Y7439660D01*
D02*
G37*
G36*
X5093376Y7213600D02*
X5092700D01*
Y7124700D01*
X5181600D01*
Y7125376D01*
X5174676Y7151216D01*
X5161300Y7174384D01*
X5142384Y7193300D01*
X5119216Y7206676D01*
X5093376Y7213600D01*
D02*
G37*
G36*
X5067300D02*
X5066624D01*
X5040784Y7206676D01*
X5017616Y7193300D01*
X4998700Y7174384D01*
X4985324Y7151216D01*
X4978400Y7125376D01*
Y7124700D01*
X5067300D01*
Y7213600D01*
D02*
G37*
G36*
X12862097Y7172960D02*
X12842703D01*
X12823969Y7167940D01*
X12807172Y7158242D01*
X12793458Y7144528D01*
X12783760Y7127732D01*
X12778740Y7108997D01*
Y7089603D01*
X12783760Y7070868D01*
X12793458Y7054072D01*
X12807172Y7040358D01*
X12823969Y7030660D01*
X12842703Y7025640D01*
X12862097D01*
X12880832Y7030660D01*
X12897627Y7040358D01*
X12911342Y7054072D01*
X12921040Y7070868D01*
X12926060Y7089603D01*
Y7108997D01*
X12921040Y7127732D01*
X12911342Y7144528D01*
X12897627Y7158242D01*
X12880832Y7167940D01*
X12862097Y7172960D01*
D02*
G37*
G36*
X3567370Y7198360D02*
X3544630D01*
X3522666Y7192475D01*
X3502974Y7181105D01*
X3486895Y7165026D01*
X3475525Y7145334D01*
X3469640Y7123370D01*
Y7100630D01*
X3475525Y7078666D01*
X3486895Y7058974D01*
X3502974Y7042895D01*
X3522666Y7031525D01*
X3544630Y7025640D01*
X3567370D01*
X3589334Y7031525D01*
X3609026Y7042895D01*
X3625105Y7058974D01*
X3636475Y7078666D01*
X3642360Y7100630D01*
Y7123370D01*
X3636475Y7145334D01*
X3625105Y7165026D01*
X3609026Y7181105D01*
X3589334Y7192475D01*
X3567370Y7198360D01*
D02*
G37*
G36*
X5181600Y7099300D02*
X5092700D01*
Y7010400D01*
X5093376D01*
X5119216Y7017324D01*
X5142384Y7030700D01*
X5161300Y7049616D01*
X5174676Y7072784D01*
X5181600Y7098624D01*
Y7099300D01*
D02*
G37*
G36*
X5067300D02*
X4978400D01*
Y7098624D01*
X4985324Y7072784D01*
X4998700Y7049616D01*
X5017616Y7030700D01*
X5040784Y7017324D01*
X5066624Y7010400D01*
X5067300D01*
Y7099300D01*
D02*
G37*
G36*
X12203684Y6885940D02*
X12187516D01*
X12172579Y6879753D01*
X12161147Y6868321D01*
X12154960Y6853384D01*
Y6837216D01*
X12161147Y6822279D01*
X12172579Y6810847D01*
X12187516Y6804660D01*
X12203684D01*
X12218621Y6810847D01*
X12230053Y6822279D01*
X12236240Y6837216D01*
Y6853384D01*
X12230053Y6868321D01*
X12218621Y6879753D01*
X12203684Y6885940D01*
D02*
G37*
G36*
X10636384Y6403340D02*
X10620216D01*
X10605279Y6397153D01*
X10593847Y6385721D01*
X10587660Y6370784D01*
Y6354616D01*
X10593847Y6339679D01*
X10605279Y6328247D01*
X10620216Y6322060D01*
X10636384D01*
X10651321Y6328247D01*
X10662753Y6339679D01*
X10668940Y6354616D01*
Y6370784D01*
X10662753Y6385721D01*
X10651321Y6397153D01*
X10636384Y6403340D01*
D02*
G37*
G36*
X11084097Y5902960D02*
X11064703D01*
X11045968Y5897940D01*
X11029172Y5888242D01*
X11015458Y5874528D01*
X11005760Y5857732D01*
X11000740Y5838997D01*
Y5819603D01*
X11005760Y5800868D01*
X11015458Y5784072D01*
X11029172Y5770358D01*
X11045968Y5760660D01*
X11064703Y5755640D01*
X11084097D01*
X11102832Y5760660D01*
X11119628Y5770358D01*
X11133342Y5784072D01*
X11143040Y5800868D01*
X11148060Y5819603D01*
Y5838997D01*
X11143040Y5857732D01*
X11133342Y5874528D01*
X11119628Y5888242D01*
X11102832Y5897940D01*
X11084097Y5902960D01*
D02*
G37*
G36*
X10425684Y5615940D02*
X10409516D01*
X10394579Y5609753D01*
X10383147Y5598321D01*
X10376960Y5583384D01*
Y5567216D01*
X10383147Y5552279D01*
X10394579Y5540847D01*
X10409516Y5534660D01*
X10425684D01*
X10440621Y5540847D01*
X10452053Y5552279D01*
X10458240Y5567216D01*
Y5583384D01*
X10452053Y5598321D01*
X10440621Y5609753D01*
X10425684Y5615940D01*
D02*
G37*
G36*
X5091370Y5674360D02*
X5068630D01*
X5046666Y5668475D01*
X5026974Y5657105D01*
X5010895Y5641026D01*
X4999525Y5621334D01*
X4993640Y5599370D01*
Y5576630D01*
X4999525Y5554666D01*
X5010895Y5534974D01*
X5026974Y5518895D01*
X5046666Y5507525D01*
X5068630Y5501640D01*
X5091370D01*
X5113334Y5507525D01*
X5133026Y5518895D01*
X5149105Y5534974D01*
X5160475Y5554666D01*
X5166360Y5576630D01*
Y5599370D01*
X5160475Y5621334D01*
X5149105Y5641026D01*
X5133026Y5657105D01*
X5113334Y5668475D01*
X5091370Y5674360D01*
D02*
G37*
G36*
X3567370D02*
X3544630D01*
X3522666Y5668475D01*
X3502974Y5657105D01*
X3486895Y5641026D01*
X3475525Y5621334D01*
X3469640Y5599370D01*
Y5576630D01*
X3475525Y5554666D01*
X3486895Y5534974D01*
X3502974Y5518895D01*
X3522666Y5507525D01*
X3544630Y5501640D01*
X3567370D01*
X3589334Y5507525D01*
X3609026Y5518895D01*
X3625105Y5534974D01*
X3636475Y5554666D01*
X3642360Y5576630D01*
Y5599370D01*
X3636475Y5621334D01*
X3625105Y5641026D01*
X3609026Y5657105D01*
X3589334Y5668475D01*
X3567370Y5674360D01*
D02*
G37*
G36*
X12975989Y5105400D02*
X12966701D01*
Y4838700D01*
X13233400D01*
Y4847989D01*
X13226520Y4891426D01*
X13212930Y4933252D01*
X13192964Y4972437D01*
X13167114Y5008017D01*
X13136017Y5039114D01*
X13100436Y5064964D01*
X13061252Y5084930D01*
X13019426Y5098520D01*
X12975989Y5105400D01*
D02*
G37*
G36*
X12941299D02*
X12932011D01*
X12888574Y5098520D01*
X12846748Y5084930D01*
X12807562Y5064964D01*
X12771983Y5039114D01*
X12740886Y5008017D01*
X12715036Y4972437D01*
X12695070Y4933252D01*
X12681480Y4891426D01*
X12674600Y4847989D01*
Y4838700D01*
X12941299D01*
Y5105400D01*
D02*
G37*
G36*
X3577989D02*
X3568700D01*
Y4838700D01*
X3835400D01*
Y4847989D01*
X3828520Y4891426D01*
X3814930Y4933252D01*
X3794964Y4972437D01*
X3769114Y5008017D01*
X3738017Y5039114D01*
X3702437Y5064964D01*
X3663252Y5084930D01*
X3621426Y5098520D01*
X3577989Y5105400D01*
D02*
G37*
G36*
X3543300D02*
X3534011D01*
X3490574Y5098520D01*
X3448748Y5084930D01*
X3409563Y5064964D01*
X3373983Y5039114D01*
X3342886Y5008017D01*
X3317036Y4972437D01*
X3297070Y4933252D01*
X3283480Y4891426D01*
X3276600Y4847989D01*
Y4838700D01*
X3543300D01*
Y5105400D01*
D02*
G37*
G36*
X13233400Y4813300D02*
X12966701D01*
Y4546600D01*
X12975989D01*
X13019426Y4553480D01*
X13061252Y4567070D01*
X13100436Y4587036D01*
X13136017Y4612886D01*
X13167114Y4643983D01*
X13192964Y4679563D01*
X13212930Y4718748D01*
X13226520Y4760574D01*
X13233400Y4804011D01*
Y4813300D01*
D02*
G37*
G36*
X12941299D02*
X12674600D01*
Y4804011D01*
X12681480Y4760574D01*
X12695070Y4718748D01*
X12715036Y4679563D01*
X12740886Y4643983D01*
X12771983Y4612886D01*
X12807562Y4587036D01*
X12846748Y4567070D01*
X12888574Y4553480D01*
X12932011Y4546600D01*
X12941299D01*
Y4813300D01*
D02*
G37*
G36*
X3835400D02*
X3568700D01*
Y4546600D01*
X3577989D01*
X3621426Y4553480D01*
X3663252Y4567070D01*
X3702437Y4587036D01*
X3738017Y4612886D01*
X3769114Y4643983D01*
X3794964Y4679563D01*
X3814930Y4718748D01*
X3828520Y4760574D01*
X3835400Y4804011D01*
Y4813300D01*
D02*
G37*
G36*
X3543300D02*
X3276600D01*
Y4804011D01*
X3283480Y4760574D01*
X3297070Y4718748D01*
X3317036Y4679563D01*
X3342886Y4643983D01*
X3373983Y4612886D01*
X3409563Y4587036D01*
X3448748Y4567070D01*
X3490574Y4553480D01*
X3534011Y4546600D01*
X3543300D01*
Y4813300D01*
D02*
G37*
%LPD*%
D20*
X13271500Y18262601D02*
X13868401D01*
X15921500Y16209500D01*
X20741600D01*
X13754100Y12319000D02*
X15705600Y14270500D01*
X13754100Y10452100D02*
Y12319000D01*
X13068300Y9766300D02*
X13754100Y10452100D01*
X13411200Y13004800D02*
X14953900Y14547501D01*
X13246100Y11036300D02*
X13411200Y11201400D01*
Y13004800D01*
X16104100Y13716499D02*
X20716200D01*
X14109700Y11722100D02*
X16104100Y13716499D01*
X14109700Y9791700D02*
Y11722100D01*
X13500101Y19481799D02*
X16218401Y16763499D01*
X13381664Y22466299D02*
X13500101Y22347862D01*
Y19481799D02*
Y22347862D01*
X13246100Y22466299D02*
X13381664D01*
X13639799Y9321800D02*
X14109700Y9791700D01*
X13068300Y5956300D02*
X13639799Y6527800D01*
Y9321800D01*
X11468100Y5956300D02*
X13068300D01*
X15705600Y14270500D02*
X20716200D01*
X11468100Y9766300D02*
X13068300D01*
X14953900Y14547501D02*
X20716200D01*
X14392700Y14824500D02*
X20716200D01*
X13144501Y13576300D02*
X14392700Y14824500D01*
X11468100Y13576300D02*
X13144501D01*
X16218401Y16763499D02*
X20741600D01*
X14103000Y15932500D02*
X20741600D01*
X11468100Y17386301D02*
X12649200D01*
X14103000Y15932500D01*
X14055299Y15655499D02*
X20741600D01*
X13246100Y14846300D02*
X14055299Y15655499D01*
D27*
X3365500Y12255500D02*
D03*
Y12509500D02*
D03*
X3556000Y12382500D02*
D03*
X3365500Y12763500D02*
D03*
X3556000Y12636500D02*
D03*
X3365500Y13017500D02*
D03*
X3556000Y12890500D02*
D03*
X3365500Y13271500D02*
D03*
X3556000Y13144501D02*
D03*
X3365500Y13525500D02*
D03*
X3556000Y13398500D02*
D03*
X3365500Y13779500D02*
D03*
X3556000Y13652499D02*
D03*
X3365500Y14033501D02*
D03*
X3556000Y13906500D02*
D03*
X3365500Y14287500D02*
D03*
X3556000Y14160500D02*
D03*
X3365500Y14541499D02*
D03*
X3556000Y14414500D02*
D03*
X3365500Y14795500D02*
D03*
X3556000Y14668500D02*
D03*
X3365500Y15049500D02*
D03*
X3556000Y14922501D02*
D03*
X3365500Y15303500D02*
D03*
X3556000Y15176500D02*
D03*
X3365500Y15557500D02*
D03*
X3556000Y15430499D02*
D03*
X3365500Y15811501D02*
D03*
X3556000Y15684500D02*
D03*
X3365500Y16065500D02*
D03*
X3556000Y15938499D02*
D03*
X3365500Y16319501D02*
D03*
X3556000Y16192500D02*
D03*
Y16446500D02*
D03*
X2984500Y12255500D02*
D03*
Y12509500D02*
D03*
X3175000Y12382500D02*
D03*
X2984500Y12763500D02*
D03*
X3175000Y12636500D02*
D03*
X2984500Y13017500D02*
D03*
X3175000Y12890500D02*
D03*
X2984500Y13271500D02*
D03*
X3175000Y13144501D02*
D03*
X2984500Y13525500D02*
D03*
X3175000Y13398500D02*
D03*
X2984500Y13779500D02*
D03*
X3175000Y13652499D02*
D03*
X2984500Y14033501D02*
D03*
X3175000Y13906500D02*
D03*
X2984500Y14287500D02*
D03*
X3175000Y14160500D02*
D03*
X2984500Y14541499D02*
D03*
X3175000Y14414500D02*
D03*
X2984500Y14795500D02*
D03*
X3175000Y14668500D02*
D03*
X2984500Y15049500D02*
D03*
X3175000Y14922501D02*
D03*
X2984500Y15303500D02*
D03*
X3175000Y15176500D02*
D03*
X2984500Y15557500D02*
D03*
X3175000Y15430499D02*
D03*
X2984500Y15811501D02*
D03*
X3175000Y15684500D02*
D03*
X2984500Y16065500D02*
D03*
X3175000Y15938499D02*
D03*
X2984500Y16319501D02*
D03*
X3175000Y16192500D02*
D03*
Y16446500D02*
D03*
D28*
X3365500Y11455400D02*
D03*
Y17246600D02*
D03*
D29*
X16383000Y19050000D02*
D03*
Y19558000D02*
D03*
Y20066000D02*
D03*
Y20574001D02*
D03*
X15875000Y19050000D02*
D03*
Y19558000D02*
D03*
Y20066000D02*
D03*
Y20574001D02*
D03*
X15367000Y19050000D02*
D03*
Y19558000D02*
D03*
Y20066000D02*
D03*
Y20574001D02*
D03*
X14859000Y19050000D02*
D03*
Y19558000D02*
D03*
Y20066000D02*
D03*
Y20574001D02*
D03*
X18542000Y12446000D02*
D03*
Y11938000D02*
D03*
Y11430000D02*
D03*
Y10922000D02*
D03*
X18034000Y12446000D02*
D03*
Y11938000D02*
D03*
Y11430000D02*
D03*
Y10922000D02*
D03*
X17525999Y12446000D02*
D03*
Y11938000D02*
D03*
Y11430000D02*
D03*
Y10922000D02*
D03*
X17017999Y12446000D02*
D03*
Y11938000D02*
D03*
Y11430000D02*
D03*
Y10922000D02*
D03*
X20700999Y11938000D02*
D03*
Y11430000D02*
D03*
Y10922000D02*
D03*
Y10414000D02*
D03*
X20192999Y11938000D02*
D03*
Y11430000D02*
D03*
Y10922000D02*
D03*
Y10414000D02*
D03*
X19685001Y11938000D02*
D03*
Y11430000D02*
D03*
Y10922000D02*
D03*
Y10414000D02*
D03*
X19177000Y11938000D02*
D03*
Y11430000D02*
D03*
Y10922000D02*
D03*
Y10414000D02*
D03*
X20700999Y18542000D02*
D03*
Y19050000D02*
D03*
Y19558000D02*
D03*
Y20066000D02*
D03*
X20192999Y18542000D02*
D03*
Y19050000D02*
D03*
Y19558000D02*
D03*
Y20066000D02*
D03*
X19685001Y18542000D02*
D03*
Y19050000D02*
D03*
Y19558000D02*
D03*
Y20066000D02*
D03*
X19177000Y18542000D02*
D03*
Y19050000D02*
D03*
Y19558000D02*
D03*
Y20066000D02*
D03*
X16383000Y11430000D02*
D03*
Y10922000D02*
D03*
Y10414000D02*
D03*
Y9906000D02*
D03*
X15875000Y11430000D02*
D03*
Y10922000D02*
D03*
Y10414000D02*
D03*
Y9906000D02*
D03*
X15367000Y11430000D02*
D03*
Y10922000D02*
D03*
Y10414000D02*
D03*
Y9906000D02*
D03*
X14859000Y11430000D02*
D03*
Y10922000D02*
D03*
Y10414000D02*
D03*
Y9906000D02*
D03*
X18542000Y18034000D02*
D03*
Y18542000D02*
D03*
Y19050000D02*
D03*
Y19558000D02*
D03*
X18034000Y18034000D02*
D03*
Y18542000D02*
D03*
Y19050000D02*
D03*
Y19558000D02*
D03*
X17525999Y18034000D02*
D03*
Y18542000D02*
D03*
Y19050000D02*
D03*
Y19558000D02*
D03*
X17017999Y18034000D02*
D03*
Y18542000D02*
D03*
Y19050000D02*
D03*
Y19558000D02*
D03*
D30*
X3556000Y7112000D02*
D03*
Y23367999D02*
D03*
Y24892000D02*
D03*
X5080000D02*
D03*
Y23367999D02*
D03*
X3556000Y5588000D02*
D03*
X5080000D02*
D03*
Y7112000D02*
D03*
D31*
X20716200Y13716499D02*
D03*
Y13993500D02*
D03*
Y14270500D02*
D03*
Y14547501D02*
D03*
Y14824500D02*
D03*
Y15101500D02*
D03*
Y15378500D02*
D03*
Y15655499D02*
D03*
Y15932500D02*
D03*
Y16209500D02*
D03*
Y16486501D02*
D03*
Y16763499D02*
D03*
X20432201Y13578000D02*
D03*
Y13855000D02*
D03*
Y14132001D02*
D03*
Y14409000D02*
D03*
Y14686000D02*
D03*
Y14963000D02*
D03*
Y16625000D02*
D03*
Y16902000D02*
D03*
Y16071001D02*
D03*
Y16348000D02*
D03*
Y15794000D02*
D03*
Y15517000D02*
D03*
Y15239999D02*
D03*
D32*
X20574200Y17595000D02*
D03*
Y12885001D02*
D03*
D33*
X19050000Y20828000D02*
D03*
Y9652000D02*
D03*
X12953999Y19558000D02*
D03*
Y12446000D02*
D03*
X3556000Y20574001D02*
D03*
Y9906000D02*
D03*
Y25654001D02*
D03*
X12953999D02*
D03*
Y4826000D02*
D03*
X3556000D02*
D03*
D34*
X16037560Y9865360D02*
D03*
X16038831Y9941560D02*
D03*
X16007588Y10010140D02*
D03*
X15948152Y10057130D02*
D03*
X15801848D02*
D03*
X15712440Y9865360D02*
D03*
X15711169Y9941560D02*
D03*
X15742412Y10010140D02*
D03*
X15875000Y10073640D02*
D03*
X15727679Y9712960D02*
D03*
X16022321D02*
D03*
X15727679Y9789160D02*
D03*
X16022321D02*
D03*
Y9636760D02*
D03*
X15727679D02*
D03*
X16038068Y9560560D02*
D03*
X16053816Y9484360D02*
D03*
X16069563Y9408160D02*
D03*
X15711932Y9560560D02*
D03*
X15696184Y9484360D02*
D03*
X15680437Y9408160D02*
D03*
X16069563Y9255760D02*
D03*
Y9331960D02*
D03*
Y9103360D02*
D03*
Y9179560D02*
D03*
Y9027160D02*
D03*
X15680437Y9255760D02*
D03*
Y9331960D02*
D03*
Y9103360D02*
D03*
Y9179560D02*
D03*
Y9027160D02*
D03*
X18181320Y10805160D02*
D03*
X17886681D02*
D03*
X17875504Y9585960D02*
D03*
X17859756Y9509760D02*
D03*
X17844008Y9433560D02*
D03*
X17830800Y9357360D02*
D03*
X18034000Y11089640D02*
D03*
X17901411Y11026140D02*
D03*
X17870171Y10957560D02*
D03*
X17871440Y10881360D02*
D03*
X17960847Y11073130D02*
D03*
X18107152D02*
D03*
X18166588Y11026140D02*
D03*
X18197830Y10957560D02*
D03*
X18196561Y10881360D02*
D03*
X18181320Y10652760D02*
D03*
Y10576560D02*
D03*
Y10500360D02*
D03*
Y10728960D02*
D03*
Y10347960D02*
D03*
Y10271760D02*
D03*
Y10195560D02*
D03*
Y10424160D02*
D03*
Y10043160D02*
D03*
Y9966960D02*
D03*
Y9890760D02*
D03*
Y10119360D02*
D03*
Y9738360D02*
D03*
Y9814560D02*
D03*
X17886681D02*
D03*
Y9738360D02*
D03*
Y10119360D02*
D03*
Y9890760D02*
D03*
Y9966960D02*
D03*
Y10043160D02*
D03*
Y10424160D02*
D03*
Y10195560D02*
D03*
Y10271760D02*
D03*
Y10347960D02*
D03*
Y10728960D02*
D03*
Y10500360D02*
D03*
Y10576560D02*
D03*
Y10652760D02*
D03*
X18181320Y9662160D02*
D03*
X18192496Y9585960D02*
D03*
X18208244Y9509760D02*
D03*
X18223991Y9433560D02*
D03*
X18237199Y9357360D02*
D03*
Y9281160D02*
D03*
Y9204960D02*
D03*
Y9128760D02*
D03*
Y9052560D02*
D03*
Y8976360D02*
D03*
X17886681Y9662160D02*
D03*
X17830800Y9281160D02*
D03*
Y9204960D02*
D03*
Y9128760D02*
D03*
Y9052560D02*
D03*
Y8976360D02*
D03*
X6096000Y14224001D02*
D03*
X3048000Y10160000D02*
D03*
X9144000Y14224001D02*
D03*
X8636000Y21336000D02*
D03*
X16764000Y11176000D02*
D03*
X5080000Y24384000D02*
D03*
X13716000Y25400000D02*
D03*
X3048000Y6096000D02*
D03*
X19812000Y15239999D02*
D03*
X9144000Y26416000D02*
D03*
X8636000Y25400000D02*
D03*
X15239999Y18288000D02*
D03*
X16764000Y17272000D02*
D03*
X6096000Y22352000D02*
D03*
X10160000Y26416000D02*
D03*
X12192000Y4064000D02*
D03*
X16764000Y13208000D02*
D03*
X6604000Y7112000D02*
D03*
X9652000Y9144000D02*
D03*
X3048000Y22352000D02*
D03*
X15748000Y15239999D02*
D03*
X4064000Y10160000D02*
D03*
X17780000Y17272000D02*
D03*
X7620000Y11176000D02*
D03*
X9652000Y7112000D02*
D03*
X15748000Y11176000D02*
D03*
X14732001D02*
D03*
X12192000Y6096000D02*
D03*
X13716000Y17272000D02*
D03*
X20828000D02*
D03*
X10668000Y9144000D02*
D03*
X15239999Y12192000D02*
D03*
X11709400Y21336000D02*
D03*
X19812000Y19303999D02*
D03*
X4572000Y25400000D02*
D03*
X8128000Y6096000D02*
D03*
X20828000Y21336000D02*
D03*
X4572000D02*
D03*
X12192000Y12192000D02*
D03*
X4572000Y23367999D02*
D03*
X11684000Y5080000D02*
D03*
X7620000Y21336000D02*
D03*
X11176000Y8140700D02*
D03*
X5588000Y25400000D02*
D03*
X15239999Y16256000D02*
D03*
X12700000Y21336000D02*
D03*
X8636000Y9144000D02*
D03*
X5080000Y8128000D02*
D03*
X11684000Y9144000D02*
D03*
X4064000Y22352000D02*
D03*
X5588000Y19303999D02*
D03*
X5080000Y4064000D02*
D03*
X11176000Y16256000D02*
D03*
X17780000Y11176000D02*
D03*
X10668000Y19303999D02*
D03*
X7112000Y26416000D02*
D03*
X6096000Y10160000D02*
D03*
X12217400Y20320000D02*
D03*
X14732001Y21336000D02*
D03*
X7620000Y5080000D02*
D03*
X8636000Y7112000D02*
D03*
X5588000Y15239999D02*
D03*
X12192000Y26416000D02*
D03*
X11176000D02*
D03*
X4064000Y24384000D02*
D03*
X7620000Y17272000D02*
D03*
X8128000Y26416000D02*
D03*
X15748000Y13208000D02*
D03*
X20828000Y11176000D02*
D03*
X14224001Y16256000D02*
D03*
X5588000Y13208000D02*
D03*
X7112000Y14224001D02*
D03*
X9652000Y15239999D02*
D03*
X11684000D02*
D03*
X6604000D02*
D03*
X15748000Y19303999D02*
D03*
X5588000Y7112000D02*
D03*
X8128000Y10160000D02*
D03*
X12700000Y5080000D02*
D03*
X7620000Y15239999D02*
D03*
X16256000Y18288000D02*
D03*
X8636000Y17272000D02*
D03*
X5080000Y22352000D02*
D03*
X4064000Y8128000D02*
D03*
X13716000Y13208000D02*
D03*
X5588000Y23367999D02*
D03*
X3048000Y8128000D02*
D03*
X8128000Y4064000D02*
D03*
X14732001Y17272000D02*
D03*
X10668000Y15239999D02*
D03*
X9652000Y5080000D02*
D03*
X7112000Y8128000D02*
D03*
X14732001Y19303999D02*
D03*
X13208000Y4064000D02*
D03*
X17780000Y19303999D02*
D03*
X11176000Y20320000D02*
D03*
X8128000Y14224001D02*
D03*
X10668000Y13208000D02*
D03*
X3556000Y21336000D02*
D03*
X17780000Y15239999D02*
D03*
X13716000Y9144000D02*
D03*
X7112000Y22352000D02*
D03*
X8128000Y18288000D02*
D03*
X14732001Y15239999D02*
D03*
X18288000Y12192000D02*
D03*
X8636000Y5080000D02*
D03*
X14224001Y18288000D02*
D03*
X12192000Y24384000D02*
D03*
X13208000D02*
D03*
X4572000Y5080000D02*
D03*
X6096000Y20320000D02*
D03*
X10668000Y25400000D02*
D03*
X6604000Y19303999D02*
D03*
X5080000Y20320000D02*
D03*
X8128000Y16256000D02*
D03*
X17272000Y12192000D02*
D03*
X4064000Y6096000D02*
D03*
X13208000Y20320000D02*
D03*
X19812000Y11176000D02*
D03*
X11176000Y24384000D02*
D03*
X16764000Y19303999D02*
D03*
X7620000Y7112000D02*
D03*
X12192000Y8128000D02*
D03*
X7112000Y10160000D02*
D03*
X3556000Y11176000D02*
D03*
X19303999Y20320000D02*
D03*
X5588000Y5080000D02*
D03*
X11239500Y10160000D02*
D03*
X8636000Y13208000D02*
D03*
X6096000Y6096000D02*
D03*
X20828000Y19303999D02*
D03*
X19303999Y18288000D02*
D03*
X13208000Y12192000D02*
D03*
X16764000Y9144000D02*
D03*
X12700000D02*
D03*
X18288000Y18288000D02*
D03*
X7112000Y20320000D02*
D03*
X19812000Y13208000D02*
D03*
X5588000Y17272000D02*
D03*
X5080000Y12192000D02*
D03*
X16764000Y15239999D02*
D03*
X3048000Y24384000D02*
D03*
X7620000Y19303999D02*
D03*
X4572000Y13208000D02*
D03*
X11684000D02*
D03*
X10160000Y4064000D02*
D03*
Y24384000D02*
D03*
X13716000Y5080000D02*
D03*
X11684000Y25400000D02*
D03*
X5080000Y6096000D02*
D03*
X19303999Y10160000D02*
D03*
Y12192000D02*
D03*
X7112000Y4064000D02*
D03*
X3556000Y9144000D02*
D03*
X6096000Y8128000D02*
D03*
X7112000Y6096000D02*
D03*
X17780000Y13208000D02*
D03*
X4572000Y9144000D02*
D03*
X8128000Y20320000D02*
D03*
X12192000Y14224001D02*
D03*
X4064000Y4064000D02*
D03*
X13208000Y26416000D02*
D03*
X12700000Y19303999D02*
D03*
X7620000Y23367999D02*
D03*
X9144000Y4064000D02*
D03*
X12700000Y25400000D02*
D03*
X18796001Y21336000D02*
D03*
X5080000Y26416000D02*
D03*
X14224001Y12192000D02*
D03*
X19812000Y17272000D02*
D03*
X4064000Y26416000D02*
D03*
X20828000Y15239999D02*
D03*
X5588000Y9144000D02*
D03*
X11176000Y4064000D02*
D03*
X8128000Y12192000D02*
D03*
X20828000Y9144000D02*
D03*
Y13208000D02*
D03*
X3048000Y26416000D02*
D03*
X3556000Y19303999D02*
D03*
X6604000Y25400000D02*
D03*
X12700000Y15239999D02*
D03*
X13208000Y16256000D02*
D03*
X12700000Y13208000D02*
D03*
X6096000Y26416000D02*
D03*
Y18288000D02*
D03*
X9144000Y16256000D02*
D03*
X10160000Y10160000D02*
D03*
X14732001Y9144000D02*
D03*
X16256000Y12192000D02*
D03*
X9652000Y25400000D02*
D03*
X11176000Y12192000D02*
D03*
X10668000Y7112000D02*
D03*
X6096000Y4064000D02*
D03*
X18796001Y15239999D02*
D03*
X17272000Y18288000D02*
D03*
X3048000Y4064000D02*
D03*
X4572000Y7112000D02*
D03*
X9144000Y24384000D02*
D03*
X12192000Y16256000D02*
D03*
X16764000Y21336000D02*
D03*
X11684000Y17272000D02*
D03*
X6604000Y21336000D02*
D03*
X11684000Y19303999D02*
D03*
X6604000Y5080000D02*
D03*
X4572000Y15239999D02*
D03*
X5080000Y18288000D02*
D03*
X18796001Y9144000D02*
D03*
X16069563Y21452840D02*
D03*
Y21300439D02*
D03*
Y21376640D02*
D03*
Y21148039D02*
D03*
Y21224240D02*
D03*
X15680437Y21452840D02*
D03*
Y21300439D02*
D03*
Y21376640D02*
D03*
Y21148039D02*
D03*
Y21224240D02*
D03*
X16069563Y21071840D02*
D03*
X16053816Y20995641D02*
D03*
X16038068Y20919440D02*
D03*
X15680437Y21071840D02*
D03*
X15696184Y20995641D02*
D03*
X15711932Y20919440D02*
D03*
X16022321Y20843240D02*
D03*
X15727679D02*
D03*
Y20690840D02*
D03*
X16022321D02*
D03*
X15727679Y20767039D02*
D03*
X16022321D02*
D03*
X18237199Y21503641D02*
D03*
Y21427440D02*
D03*
Y21351241D02*
D03*
Y21275040D02*
D03*
Y21198840D02*
D03*
X18181320Y20817841D02*
D03*
X17830800Y21503641D02*
D03*
Y21427440D02*
D03*
Y21351241D02*
D03*
Y21275040D02*
D03*
Y21198840D02*
D03*
Y21122639D02*
D03*
X17844008Y21046440D02*
D03*
X17859756Y20970239D02*
D03*
X17875504Y20894040D02*
D03*
X17886681Y20817841D02*
D03*
X18181320Y19827240D02*
D03*
Y19903439D02*
D03*
Y19979640D02*
D03*
Y19751041D02*
D03*
Y20132040D02*
D03*
Y20208240D02*
D03*
Y20284441D02*
D03*
Y20055840D02*
D03*
Y20436839D02*
D03*
Y20513040D02*
D03*
Y20589240D02*
D03*
Y20360640D02*
D03*
Y20741640D02*
D03*
Y20665440D02*
D03*
X17886681D02*
D03*
Y20741640D02*
D03*
Y20360640D02*
D03*
Y20589240D02*
D03*
Y20513040D02*
D03*
Y20436839D02*
D03*
Y20055840D02*
D03*
Y20284441D02*
D03*
Y20208240D02*
D03*
Y20132040D02*
D03*
Y19751041D02*
D03*
Y19979640D02*
D03*
Y19903439D02*
D03*
Y19827240D02*
D03*
X15875000Y20406360D02*
D03*
X16007588Y20469859D02*
D03*
X16038831Y20538440D02*
D03*
X16037560Y20614639D02*
D03*
X15948152Y20422870D02*
D03*
X15801848D02*
D03*
X15742412Y20469859D02*
D03*
X15711169Y20538440D02*
D03*
X15712440Y20614639D02*
D03*
X17871440Y19598640D02*
D03*
X17870171Y19522440D02*
D03*
X17901411Y19453860D02*
D03*
X17960847Y19406870D02*
D03*
X18107152D02*
D03*
X18196561Y19598640D02*
D03*
X18197830Y19522440D02*
D03*
X18166588Y19453860D02*
D03*
X18034000Y19390359D02*
D03*
X15756636Y11311636D02*
D03*
X15788640Y11573510D02*
D03*
X15733269Y11519408D02*
D03*
X15707614Y11446256D02*
D03*
X15718028Y11369040D02*
D03*
X15814040Y11273028D02*
D03*
X16018510Y11343640D02*
D03*
X15964407Y11288268D02*
D03*
X15891257Y11262614D02*
D03*
X15707614Y19033743D02*
D03*
X15733269Y18960593D02*
D03*
X15788640Y18906490D02*
D03*
X15718028Y19110960D02*
D03*
X15814040Y19206972D02*
D03*
X15891257Y19217386D02*
D03*
X15964407Y19191731D02*
D03*
X16018510Y19136360D02*
D03*
X15756636Y19168364D02*
D03*
X20792609Y18648680D02*
D03*
X20868640D02*
D03*
X20967700Y18943320D02*
D03*
X20816827D02*
D03*
X20893027D02*
D03*
X16244827D02*
D03*
X16778227D02*
D03*
X16854427D02*
D03*
X16930627D02*
D03*
X16549628D02*
D03*
X16625827D02*
D03*
X16702026D02*
D03*
X16473427D02*
D03*
X16071851Y18661888D02*
D03*
X16217645Y18648680D02*
D03*
X16292322D02*
D03*
X16366998D02*
D03*
X16441673D02*
D03*
X16516350D02*
D03*
X16665195D02*
D03*
X16739362D02*
D03*
X16813530D02*
D03*
X16887698D02*
D03*
X16142970D02*
D03*
X16590771D02*
D03*
X18679160Y18943320D02*
D03*
X19046951D02*
D03*
X18826480D02*
D03*
X18900140D02*
D03*
X18973801D02*
D03*
X18752820D02*
D03*
X18859500Y18648680D02*
D03*
X19088100D02*
D03*
X19011900D02*
D03*
X18783299D02*
D03*
X18707100D02*
D03*
X20469859D02*
D03*
X20617180D02*
D03*
X20543520D02*
D03*
X20323048D02*
D03*
X17932401D02*
D03*
X17703799D02*
D03*
X17627600D02*
D03*
X17780000D02*
D03*
X18440401D02*
D03*
X18211800D02*
D03*
X18135600D02*
D03*
X18288000D02*
D03*
X19583400D02*
D03*
X19354800D02*
D03*
X19278600D02*
D03*
X19431000D02*
D03*
X20447000Y18943320D02*
D03*
X20599400D02*
D03*
X20523199D02*
D03*
X20294600D02*
D03*
X19939000D02*
D03*
X20091400D02*
D03*
X20015199D02*
D03*
X19786600D02*
D03*
X18288000D02*
D03*
X18440401D02*
D03*
X18364200D02*
D03*
X18135600D02*
D03*
X17780000D02*
D03*
X17932401D02*
D03*
X17856200D02*
D03*
X17627600D02*
D03*
X17272000D02*
D03*
X17424400D02*
D03*
X17348199D02*
D03*
X17119600D02*
D03*
X19453860D02*
D03*
X19601180D02*
D03*
X19527521D02*
D03*
X19307048D02*
D03*
X20062952Y18647664D02*
D03*
X19842480D02*
D03*
X19768820D02*
D03*
X19916141D02*
D03*
X17148048Y18648680D02*
D03*
X17368520D02*
D03*
X17442180D02*
D03*
X17294859D02*
D03*
X18707100Y11831320D02*
D03*
X18783299D02*
D03*
X19011900D02*
D03*
X19088100D02*
D03*
X18859500D02*
D03*
X19916141D02*
D03*
X19768820D02*
D03*
X19842480D02*
D03*
X20062952D02*
D03*
X19453860Y11536680D02*
D03*
X19601180D02*
D03*
X19527521D02*
D03*
X19307048D02*
D03*
X16590771Y11831320D02*
D03*
X16142970D02*
D03*
X19278600D02*
D03*
X19507201D02*
D03*
X19583400D02*
D03*
X19431000D02*
D03*
X18135600D02*
D03*
X18364200D02*
D03*
X18440401D02*
D03*
X18288000D02*
D03*
X17627600D02*
D03*
X17856200D02*
D03*
X17932401D02*
D03*
X17780000D02*
D03*
X16887698D02*
D03*
X16813530D02*
D03*
X16739362D02*
D03*
X16665195D02*
D03*
X16516350D02*
D03*
X16441673D02*
D03*
X16366998D02*
D03*
X17424400Y11536680D02*
D03*
X17195799D02*
D03*
X17119600D02*
D03*
X17272000D02*
D03*
X20447000D02*
D03*
X20294600D02*
D03*
X20370799D02*
D03*
X20599400D02*
D03*
X19939000D02*
D03*
X19786600D02*
D03*
X19862801D02*
D03*
X20091400D02*
D03*
X17294859Y11831320D02*
D03*
X17442180D02*
D03*
X17368520D02*
D03*
X17148302D02*
D03*
X18288000Y11536680D02*
D03*
X18135600D02*
D03*
X18211800D02*
D03*
X18440401D02*
D03*
X20323048Y11831320D02*
D03*
X20893027Y11536680D02*
D03*
X20816827D02*
D03*
X20543520Y11831320D02*
D03*
X20617180D02*
D03*
X20469859D02*
D03*
X18752820Y11536680D02*
D03*
X18973801D02*
D03*
X18900140D02*
D03*
X18826480D02*
D03*
X19046951D02*
D03*
X18679160D02*
D03*
X17932401D02*
D03*
X17703799D02*
D03*
X17627600D02*
D03*
X17780000D02*
D03*
X16473427D02*
D03*
X16702026D02*
D03*
X16625827D02*
D03*
X16549628D02*
D03*
X16930627D02*
D03*
X16854427D02*
D03*
X16778227D02*
D03*
X20858479Y16642081D02*
D03*
X20848320Y16344772D02*
D03*
X20924519D02*
D03*
X21000720D02*
D03*
X21068217Y16379378D02*
D03*
X21122098Y16433258D02*
D03*
X21175980Y16487140D02*
D03*
X21221700Y16548100D02*
D03*
Y16624300D02*
D03*
Y16700500D02*
D03*
Y16776700D02*
D03*
Y16852901D02*
D03*
Y16929100D02*
D03*
Y17005299D02*
D03*
Y17081500D02*
D03*
Y17157700D02*
D03*
Y17233900D02*
D03*
Y17310100D02*
D03*
Y17386301D02*
D03*
Y17462500D02*
D03*
Y17538699D02*
D03*
Y17614900D02*
D03*
Y17691100D02*
D03*
Y17767300D02*
D03*
Y17843500D02*
D03*
Y17919701D02*
D03*
Y17995900D02*
D03*
Y18072099D02*
D03*
Y18148300D02*
D03*
Y18224500D02*
D03*
Y18300700D02*
D03*
Y18376900D02*
D03*
Y18453101D02*
D03*
Y18529300D02*
D03*
Y18605499D02*
D03*
X20916901Y16692880D02*
D03*
Y16769080D02*
D03*
Y16845280D02*
D03*
Y16921480D02*
D03*
Y16997681D02*
D03*
Y17073880D02*
D03*
Y17150079D02*
D03*
Y17226280D02*
D03*
Y17302480D02*
D03*
Y17378680D02*
D03*
Y17454880D02*
D03*
Y17531081D02*
D03*
Y17607280D02*
D03*
Y17683479D02*
D03*
Y17759680D02*
D03*
Y17835880D02*
D03*
Y17912080D02*
D03*
Y17988280D02*
D03*
Y18064481D02*
D03*
Y18140680D02*
D03*
Y18216879D02*
D03*
Y18293080D02*
D03*
Y18369279D02*
D03*
Y18445480D02*
D03*
Y18521680D02*
D03*
X21221700Y18681700D02*
D03*
X21195386Y18753735D02*
D03*
X21141502Y18807617D02*
D03*
X21087622Y18861497D02*
D03*
X21033740Y18915379D02*
D03*
X20967700Y11541760D02*
D03*
X20916901Y18597881D02*
D03*
X16014326Y18702492D02*
D03*
X15960445Y18756374D02*
D03*
X16168626Y18964555D02*
D03*
X16060864Y11407682D02*
D03*
X16114745Y11461563D02*
D03*
X15852682Y11615864D02*
D03*
X15906563Y11669745D02*
D03*
Y18810255D02*
D03*
X15852682Y18864136D02*
D03*
X16060864Y19072318D02*
D03*
X16114745Y19018437D02*
D03*
X20822920Y14135226D02*
D03*
X20899120D02*
D03*
X20975320D02*
D03*
X21150038Y13993402D02*
D03*
X21042274Y14101164D02*
D03*
X21096156Y14047282D02*
D03*
X20850861Y13832840D02*
D03*
X20916901Y13792200D02*
D03*
Y13716000D02*
D03*
Y13639799D02*
D03*
Y13563600D02*
D03*
Y13487399D02*
D03*
Y13411200D02*
D03*
Y13335001D02*
D03*
Y13258800D02*
D03*
Y13182600D02*
D03*
Y13106400D02*
D03*
Y13030200D02*
D03*
Y12953999D02*
D03*
Y12877800D02*
D03*
Y12801601D02*
D03*
Y12725400D02*
D03*
Y12649200D02*
D03*
Y12573000D02*
D03*
Y12496800D02*
D03*
Y12420600D02*
D03*
Y12344400D02*
D03*
Y12268200D02*
D03*
Y12192000D02*
D03*
Y12115800D02*
D03*
Y12039600D02*
D03*
Y11963400D02*
D03*
X21203920Y13939520D02*
D03*
X21221700Y13868401D02*
D03*
Y13792200D02*
D03*
Y13716000D02*
D03*
Y13639799D02*
D03*
Y13563600D02*
D03*
Y13487399D02*
D03*
Y13411200D02*
D03*
Y13335001D02*
D03*
Y13258800D02*
D03*
Y13182600D02*
D03*
Y13106400D02*
D03*
Y13030200D02*
D03*
Y12953999D02*
D03*
Y12877800D02*
D03*
Y12801601D02*
D03*
Y12725400D02*
D03*
Y12649200D02*
D03*
Y12573000D02*
D03*
Y12496800D02*
D03*
Y12420600D02*
D03*
Y12344400D02*
D03*
Y12268200D02*
D03*
Y12192000D02*
D03*
Y12115800D02*
D03*
Y12039600D02*
D03*
Y11963400D02*
D03*
Y11887200D02*
D03*
X21023108Y11585482D02*
D03*
X21076990Y11639363D02*
D03*
X21184753Y11747126D02*
D03*
X21130872Y11693245D02*
D03*
X21221700Y11811000D02*
D03*
X20916901Y11887200D02*
D03*
X20868640Y11831320D02*
D03*
X20792609D02*
D03*
X16244827Y11536680D02*
D03*
X16292322Y11831320D02*
D03*
X16217645D02*
D03*
X16071851Y11818620D02*
D03*
X16169640Y11516360D02*
D03*
X15960445Y11723627D02*
D03*
X16014326Y11777508D02*
D03*
X18237199Y21122639D02*
D03*
X18223991Y21046440D02*
D03*
X18208244Y20970239D02*
D03*
X18192496Y20894040D02*
D03*
X18181320Y19674840D02*
D03*
X17886681D02*
D03*
X13271500Y18262601D02*
D03*
X3517900Y19850101D02*
D03*
X11468100Y5956300D02*
D03*
Y9766300D02*
D03*
X13246100Y11036300D02*
D03*
X11468100Y13576300D02*
D03*
X13246100Y22466299D02*
D03*
X11468100Y17386301D02*
D03*
X13246100Y14846300D02*
D03*
X10417600Y5575300D02*
D03*
X10628300Y6362700D02*
D03*
X12195600Y6845300D02*
D03*
X12406300Y7632700D02*
D03*
X10417600Y9385300D02*
D03*
X10628300Y10172700D02*
D03*
X12195600Y10655300D02*
D03*
X12406300Y11442700D02*
D03*
X10417600Y13195300D02*
D03*
X10628300Y13982700D02*
D03*
X12195600Y14465300D02*
D03*
X12406300Y15252699D02*
D03*
X10417090Y17005811D02*
D03*
X10628300Y17792700D02*
D03*
X12195090Y18275810D02*
D03*
X12406300Y19062700D02*
D03*
X10417600Y20815300D02*
D03*
X10628300Y21602699D02*
D03*
X12195600Y22085300D02*
D03*
X12406300Y22872701D02*
D03*
X3517900Y11912600D02*
D03*
X3784600Y17348199D02*
D03*
D35*
X7670800Y13538200D02*
D03*
X8026400Y25120599D02*
D03*
X9804400Y23850600D02*
D03*
X8026400Y21310600D02*
D03*
X9804400Y20040601D02*
D03*
X8026400Y17500600D02*
D03*
X9804400Y16230600D02*
D03*
Y12420600D02*
D03*
X8026400Y9880600D02*
D03*
X9804400Y8610600D02*
D03*
X11074400Y5372100D02*
D03*
X12852400Y6642100D02*
D03*
X11074400Y9182100D02*
D03*
X12852400Y10452100D02*
D03*
Y21882100D02*
D03*
X11074400Y20612100D02*
D03*
X12852400Y18072099D02*
D03*
X11074400Y16802100D02*
D03*
X12852400Y14262100D02*
D03*
X11074400Y12992101D02*
D03*
X12852400Y22339301D02*
D03*
Y18529300D02*
D03*
Y14719299D02*
D03*
Y10909300D02*
D03*
Y7099300D02*
D03*
X8623300Y7366000D02*
D03*
Y11176000D02*
D03*
Y22606000D02*
D03*
Y14986000D02*
D03*
Y18796001D02*
D03*
X11074400Y5829300D02*
D03*
Y9639300D02*
D03*
Y21069299D02*
D03*
Y17259300D02*
D03*
Y13449300D02*
D03*
X6845300Y8636000D02*
D03*
Y12446000D02*
D03*
Y20066000D02*
D03*
Y23875999D02*
D03*
Y16256000D02*
D03*
D36*
X12003000Y7044000D02*
D03*
X11873000D02*
D03*
X12003000Y7434000D02*
D03*
X11873000D02*
D03*
X12003000Y7304000D02*
D03*
X11873000D02*
D03*
X12003000Y7174000D02*
D03*
X11873000D02*
D03*
X12003000Y10854000D02*
D03*
X11873000D02*
D03*
X12003000Y11244000D02*
D03*
X11873000D02*
D03*
X12003000Y11114000D02*
D03*
X11873000D02*
D03*
X12003000Y10984000D02*
D03*
X11873000D02*
D03*
X12003000Y22284000D02*
D03*
X11873000D02*
D03*
X12003000Y22674001D02*
D03*
X11873000D02*
D03*
X12003000Y22544000D02*
D03*
X11873000D02*
D03*
X12003000Y22414000D02*
D03*
X11873000D02*
D03*
X12003000Y18474001D02*
D03*
X11873000D02*
D03*
X12003000Y18864000D02*
D03*
X11873000D02*
D03*
X12003000Y18734000D02*
D03*
X11873000D02*
D03*
X12003000Y18603999D02*
D03*
X11873000D02*
D03*
X12003000Y14664000D02*
D03*
X11873000D02*
D03*
X12003000Y15053999D02*
D03*
X11873000D02*
D03*
X12003000Y14924001D02*
D03*
X11873000D02*
D03*
X12003000Y14794000D02*
D03*
X11873000D02*
D03*
X8955000Y8196000D02*
D03*
X8825000D02*
D03*
X8955000Y7806000D02*
D03*
X8825000D02*
D03*
X8955000Y7936000D02*
D03*
X8825000D02*
D03*
X8955000Y8066000D02*
D03*
X8825000D02*
D03*
X8955000Y23436000D02*
D03*
X8825000D02*
D03*
X8955000Y23046001D02*
D03*
X8825000D02*
D03*
X8955000Y23175999D02*
D03*
X8825000D02*
D03*
X8955000Y23306000D02*
D03*
X8825000D02*
D03*
X8955000Y19625999D02*
D03*
X8825000D02*
D03*
X8955000Y19236000D02*
D03*
X8825000D02*
D03*
X8955000Y19366000D02*
D03*
X8825000D02*
D03*
X8955000Y19496001D02*
D03*
X8825000D02*
D03*
X8955000Y12006000D02*
D03*
X8825000D02*
D03*
X8955000Y11616000D02*
D03*
X8825000D02*
D03*
X8955000Y11746000D02*
D03*
X8825000D02*
D03*
X8955000Y11876000D02*
D03*
X8825000D02*
D03*
X8955000Y15816000D02*
D03*
X8825000D02*
D03*
X8955000Y15425999D02*
D03*
X8825000D02*
D03*
X8955000Y15556000D02*
D03*
X8825000D02*
D03*
X8955000Y15686000D02*
D03*
X8825000D02*
D03*
X10225000Y5774000D02*
D03*
X10095000D02*
D03*
X10225000Y6164000D02*
D03*
X10095000D02*
D03*
X10225000Y6034000D02*
D03*
X10095000D02*
D03*
X10225000Y5904000D02*
D03*
X10095000D02*
D03*
X10225000Y9584000D02*
D03*
X10095000D02*
D03*
X10225000Y9974000D02*
D03*
X10095000D02*
D03*
X10225000Y9844000D02*
D03*
X10095000D02*
D03*
X10225000Y9714000D02*
D03*
X10095000D02*
D03*
X10225000Y21014000D02*
D03*
X10095000D02*
D03*
X10225000Y21403999D02*
D03*
X10095000D02*
D03*
X10225000Y21274001D02*
D03*
X10095000D02*
D03*
X10225000Y21144000D02*
D03*
X10095000D02*
D03*
X10225000Y17203999D02*
D03*
X10095000D02*
D03*
X10225000Y17594000D02*
D03*
X10095000D02*
D03*
X10225000Y17464000D02*
D03*
X10095000D02*
D03*
X10225000Y17334000D02*
D03*
X10095000D02*
D03*
X10225000Y13394000D02*
D03*
X10095000D02*
D03*
X10225000Y13784000D02*
D03*
X10095000D02*
D03*
X10225000Y13653999D02*
D03*
X10095000D02*
D03*
X10225000Y13524001D02*
D03*
X10095000D02*
D03*
X7177000Y24706000D02*
D03*
X7047000D02*
D03*
X7177000Y24316000D02*
D03*
X7047000D02*
D03*
X7177000Y24446001D02*
D03*
X7047000D02*
D03*
X7177000Y24575999D02*
D03*
X7047000D02*
D03*
X7177000Y20896001D02*
D03*
X7047000D02*
D03*
X7177000Y20506000D02*
D03*
X7047000D02*
D03*
X7177000Y20636000D02*
D03*
X7047000D02*
D03*
X7177000Y20766000D02*
D03*
X7047000D02*
D03*
X7177000Y9466000D02*
D03*
X7047000D02*
D03*
X7177000Y9076000D02*
D03*
X7047000D02*
D03*
X7177000Y9206000D02*
D03*
X7047000D02*
D03*
X7177000Y9336000D02*
D03*
X7047000D02*
D03*
X7177000Y13275999D02*
D03*
X7047000D02*
D03*
X7177000Y12886000D02*
D03*
X7047000D02*
D03*
X7177000Y13016000D02*
D03*
X7047000D02*
D03*
X7177000Y13146001D02*
D03*
X7047000D02*
D03*
X7177000Y17086000D02*
D03*
X7047000D02*
D03*
X7177000Y16696001D02*
D03*
X7047000D02*
D03*
X7177000Y16825999D02*
D03*
X7047000D02*
D03*
X7177000Y16956000D02*
D03*
X7047000D02*
D03*
D49*
X18935699Y18648680D02*
D03*
X18630901D02*
D03*
X20396201Y18648172D02*
D03*
X17856200D02*
D03*
X18364200D02*
D03*
X19507201D02*
D03*
X20370799Y18943828D02*
D03*
X19862801D02*
D03*
X18211800D02*
D03*
X17703799D02*
D03*
X17195799D02*
D03*
X19380200Y18942812D02*
D03*
X19989799Y18648172D02*
D03*
X17221201D02*
D03*
X18630901Y11831828D02*
D03*
X18935699D02*
D03*
X19989799D02*
D03*
X19380200Y11536172D02*
D03*
X19354800Y11831828D02*
D03*
X18211800D02*
D03*
X17703799D02*
D03*
X17348199Y11536172D02*
D03*
X20523199D02*
D03*
X20015199D02*
D03*
X17221201Y11831828D02*
D03*
X18364200Y11536172D02*
D03*
X20396201Y11830812D02*
D03*
X17856200Y11536172D02*
D03*
%TF.MD5,6db69205104e3551c4e2f8a8b3d7e9cf*%
M02*
