%TF.GenerationSoftware,Altium Limited,Altium Designer,25.0.2 (28)*%
G04 Layer_Color=128*
%FSLAX45Y45*%
%MOMM*%
%TF.SameCoordinates,BFBE90A8-51B7-47FB-822D-EC39B52C7656*%
%TF.FilePolarity,Positive*%
%TF.FileFunction,Paste,Bot*%
%TF.Part,Single*%
G01*
G75*
%TA.AperFunction,SMDPad,CuDef*%
%ADD10R,2.03200X4.57200*%
%ADD11R,1.45000X1.20000*%
%ADD12R,1.20000X1.45000*%
%ADD13R,0.95000X1.40000*%
G04:AMPARAMS|DCode=15|XSize=0.55mm|YSize=1.25mm|CornerRadius=0.0495mm|HoleSize=0mm|Usage=FLASHONLY|Rotation=90.000|XOffset=0mm|YOffset=0mm|HoleType=Round|Shape=RoundedRectangle|*
%AMROUNDEDRECTD15*
21,1,0.55000,1.15100,0,0,90.0*
21,1,0.45100,1.25000,0,0,90.0*
1,1,0.09900,0.57550,0.22550*
1,1,0.09900,0.57550,-0.22550*
1,1,0.09900,-0.57550,-0.22550*
1,1,0.09900,-0.57550,0.22550*
%
%ADD15ROUNDEDRECTD15*%
%ADD16R,3.04800X2.28600*%
%ADD17R,1.40000X0.95000*%
%ADD18R,1.45000X1.30000*%
%ADD19R,1.00000X1.35000*%
%ADD50R,1.27000X4.57200*%
%TA.AperFunction,OtherPad,Pad U19-9 (119.38mm,72.39mm)*%
G04:AMPARAMS|DCode=83|XSize=2.49mm|YSize=3mm|CornerRadius=0.0498mm|HoleSize=0mm|Usage=FLASHONLY|Rotation=0.000|XOffset=0mm|YOffset=0mm|HoleType=Round|Shape=RoundedRectangle|*
%AMROUNDEDRECTD83*
21,1,2.49000,2.90040,0,0,0.0*
21,1,2.39040,3.00000,0,0,0.0*
1,1,0.09960,1.19520,-1.45020*
1,1,0.09960,-1.19520,-1.45020*
1,1,0.09960,-1.19520,1.45020*
1,1,0.09960,1.19520,1.45020*
%
%ADD83ROUNDEDRECTD83*%
%TA.AperFunction,OtherPad,Pad U17-9 (119.38mm,110.49mm)*%
G04:AMPARAMS|DCode=84|XSize=2.49mm|YSize=3mm|CornerRadius=0.0498mm|HoleSize=0mm|Usage=FLASHONLY|Rotation=0.000|XOffset=0mm|YOffset=0mm|HoleType=Round|Shape=RoundedRectangle|*
%AMROUNDEDRECTD84*
21,1,2.49000,2.90040,0,0,0.0*
21,1,2.39040,3.00000,0,0,0.0*
1,1,0.09960,1.19520,-1.45020*
1,1,0.09960,-1.19520,-1.45020*
1,1,0.09960,-1.19520,1.45020*
1,1,0.09960,1.19520,1.45020*
%
%ADD84ROUNDEDRECTD84*%
%TA.AperFunction,OtherPad,Pad U11-9 (119.38mm,224.79mm)*%
G04:AMPARAMS|DCode=85|XSize=2.49mm|YSize=3mm|CornerRadius=0.0498mm|HoleSize=0mm|Usage=FLASHONLY|Rotation=0.000|XOffset=0mm|YOffset=0mm|HoleType=Round|Shape=RoundedRectangle|*
%AMROUNDEDRECTD85*
21,1,2.49000,2.90040,0,0,0.0*
21,1,2.39040,3.00000,0,0,0.0*
1,1,0.09960,1.19520,-1.45020*
1,1,0.09960,-1.19520,-1.45020*
1,1,0.09960,-1.19520,1.45020*
1,1,0.09960,1.19520,1.45020*
%
%ADD85ROUNDEDRECTD85*%
%TA.AperFunction,OtherPad,Pad U13-9 (119.38mm,186.69mm)*%
G04:AMPARAMS|DCode=86|XSize=2.49mm|YSize=3mm|CornerRadius=0.0498mm|HoleSize=0mm|Usage=FLASHONLY|Rotation=0.000|XOffset=0mm|YOffset=0mm|HoleType=Round|Shape=RoundedRectangle|*
%AMROUNDEDRECTD86*
21,1,2.49000,2.90040,0,0,0.0*
21,1,2.39040,3.00000,0,0,0.0*
1,1,0.09960,1.19520,-1.45020*
1,1,0.09960,-1.19520,-1.45020*
1,1,0.09960,-1.19520,1.45020*
1,1,0.09960,1.19520,1.45020*
%
%ADD86ROUNDEDRECTD86*%
%TA.AperFunction,OtherPad,Pad U15-9 (119.38mm,148.59mm)*%
G04:AMPARAMS|DCode=87|XSize=2.49mm|YSize=3mm|CornerRadius=0.0498mm|HoleSize=0mm|Usage=FLASHONLY|Rotation=0.000|XOffset=0mm|YOffset=0mm|HoleType=Round|Shape=RoundedRectangle|*
%AMROUNDEDRECTD87*
21,1,2.49000,2.90040,0,0,0.0*
21,1,2.39040,3.00000,0,0,0.0*
1,1,0.09960,1.19520,-1.45020*
1,1,0.09960,-1.19520,-1.45020*
1,1,0.09960,-1.19520,1.45020*
1,1,0.09960,1.19520,1.45020*
%
%ADD87ROUNDEDRECTD87*%
%TA.AperFunction,OtherPad,Pad U20-9 (101.6mm,59.69mm)*%
G04:AMPARAMS|DCode=88|XSize=2.49mm|YSize=3mm|CornerRadius=0.0498mm|HoleSize=0mm|Usage=FLASHONLY|Rotation=0.000|XOffset=0mm|YOffset=0mm|HoleType=Round|Shape=RoundedRectangle|*
%AMROUNDEDRECTD88*
21,1,2.49000,2.90040,0,0,0.0*
21,1,2.39040,3.00000,0,0,0.0*
1,1,0.09960,1.19520,-1.45020*
1,1,0.09960,-1.19520,-1.45020*
1,1,0.09960,-1.19520,1.45020*
1,1,0.09960,1.19520,1.45020*
%
%ADD88ROUNDEDRECTD88*%
%TA.AperFunction,OtherPad,Pad U18-9 (101.6mm,97.79mm)*%
G04:AMPARAMS|DCode=89|XSize=2.49mm|YSize=3mm|CornerRadius=0.0498mm|HoleSize=0mm|Usage=FLASHONLY|Rotation=0.000|XOffset=0mm|YOffset=0mm|HoleType=Round|Shape=RoundedRectangle|*
%AMROUNDEDRECTD89*
21,1,2.49000,2.90040,0,0,0.0*
21,1,2.39040,3.00000,0,0,0.0*
1,1,0.09960,1.19520,-1.45020*
1,1,0.09960,-1.19520,-1.45020*
1,1,0.09960,-1.19520,1.45020*
1,1,0.09960,1.19520,1.45020*
%
%ADD89ROUNDEDRECTD89*%
%TA.AperFunction,OtherPad,Pad U12-9 (101.6mm,212.09mm)*%
G04:AMPARAMS|DCode=90|XSize=2.49mm|YSize=3mm|CornerRadius=0.0498mm|HoleSize=0mm|Usage=FLASHONLY|Rotation=0.000|XOffset=0mm|YOffset=0mm|HoleType=Round|Shape=RoundedRectangle|*
%AMROUNDEDRECTD90*
21,1,2.49000,2.90040,0,0,0.0*
21,1,2.39040,3.00000,0,0,0.0*
1,1,0.09960,1.19520,-1.45020*
1,1,0.09960,-1.19520,-1.45020*
1,1,0.09960,-1.19520,1.45020*
1,1,0.09960,1.19520,1.45020*
%
%ADD90ROUNDEDRECTD90*%
%TA.AperFunction,OtherPad,Pad U14-9 (101.6mm,173.99mm)*%
G04:AMPARAMS|DCode=91|XSize=2.49mm|YSize=3mm|CornerRadius=0.0498mm|HoleSize=0mm|Usage=FLASHONLY|Rotation=0.000|XOffset=0mm|YOffset=0mm|HoleType=Round|Shape=RoundedRectangle|*
%AMROUNDEDRECTD91*
21,1,2.49000,2.90040,0,0,0.0*
21,1,2.39040,3.00000,0,0,0.0*
1,1,0.09960,1.19520,-1.45020*
1,1,0.09960,-1.19520,-1.45020*
1,1,0.09960,-1.19520,1.45020*
1,1,0.09960,1.19520,1.45020*
%
%ADD91ROUNDEDRECTD91*%
%TA.AperFunction,OtherPad,Pad U16-9 (101.6mm,135.89mm)*%
G04:AMPARAMS|DCode=92|XSize=2.49mm|YSize=3mm|CornerRadius=0.0498mm|HoleSize=0mm|Usage=FLASHONLY|Rotation=0.000|XOffset=0mm|YOffset=0mm|HoleType=Round|Shape=RoundedRectangle|*
%AMROUNDEDRECTD92*
21,1,2.49000,2.90040,0,0,0.0*
21,1,2.39040,3.00000,0,0,0.0*
1,1,0.09960,1.19520,-1.45020*
1,1,0.09960,-1.19520,-1.45020*
1,1,0.09960,-1.19520,1.45020*
1,1,0.09960,1.19520,1.45020*
%
%ADD92ROUNDEDRECTD92*%
D10*
X16167101Y9182100D02*
D03*
X15582899D02*
D03*
X15875000D02*
D03*
X18034000D02*
D03*
Y21297900D02*
D03*
X15875000D02*
D03*
X15582899D02*
D03*
X16167101D02*
D03*
D11*
X11468100Y7148500D02*
D03*
Y6948500D02*
D03*
Y10958500D02*
D03*
Y10758500D02*
D03*
Y22388499D02*
D03*
Y22188499D02*
D03*
Y18578500D02*
D03*
Y18378500D02*
D03*
Y14768500D02*
D03*
Y14568500D02*
D03*
X9690100Y5878500D02*
D03*
Y5678500D02*
D03*
Y9688500D02*
D03*
Y9488500D02*
D03*
Y21118500D02*
D03*
Y20918500D02*
D03*
Y17308501D02*
D03*
Y17108501D02*
D03*
Y13498500D02*
D03*
Y13298500D02*
D03*
D12*
X12206300Y7632700D02*
D03*
X12406300D02*
D03*
X12206300Y11442700D02*
D03*
X12406300D02*
D03*
X12206300Y22872701D02*
D03*
X12406300D02*
D03*
X12206300Y19062700D02*
D03*
X12406300D02*
D03*
X12206300Y15252699D02*
D03*
X12406300D02*
D03*
X11012500Y7137400D02*
D03*
X11212500D02*
D03*
X11012500Y10947400D02*
D03*
X11212500D02*
D03*
X11012500Y22377400D02*
D03*
X11212500D02*
D03*
X11012500Y18567400D02*
D03*
X11212500D02*
D03*
X11012500Y14757401D02*
D03*
X11212500D02*
D03*
X10428300Y13982700D02*
D03*
X10628300D02*
D03*
X9234500Y21107401D02*
D03*
X9434500D02*
D03*
X9234500Y17297400D02*
D03*
X9434500D02*
D03*
X9234500Y5867400D02*
D03*
X9434500D02*
D03*
X9234500Y9677400D02*
D03*
X9434500D02*
D03*
X10428300Y6362700D02*
D03*
X10628300D02*
D03*
X10428300Y10172700D02*
D03*
X10628300D02*
D03*
X10428300Y21602699D02*
D03*
X10628300D02*
D03*
X10428300Y17792700D02*
D03*
X10628300D02*
D03*
X9234500Y13487399D02*
D03*
X9434500D02*
D03*
D13*
X12010600Y6845300D02*
D03*
X12195600D02*
D03*
X12010600Y10655300D02*
D03*
X12195600D02*
D03*
X12010600Y22085300D02*
D03*
X12195600D02*
D03*
X12010600Y18275301D02*
D03*
X12195600D02*
D03*
X12010600Y14465300D02*
D03*
X12195600D02*
D03*
X10232600Y5575300D02*
D03*
X10417600D02*
D03*
X10232600Y9385300D02*
D03*
X10417600D02*
D03*
X10232600Y20815300D02*
D03*
X10417600D02*
D03*
X10232600Y17005299D02*
D03*
X10417600D02*
D03*
X10232600Y13195300D02*
D03*
X10417600D02*
D03*
D15*
X11675500Y7048500D02*
D03*
Y7175500D02*
D03*
Y7302500D02*
D03*
Y7429500D02*
D03*
X12200500Y7048500D02*
D03*
Y7175500D02*
D03*
Y7302500D02*
D03*
Y7429500D02*
D03*
X11675500Y10858500D02*
D03*
Y10985500D02*
D03*
Y11112500D02*
D03*
Y11239500D02*
D03*
X12200500Y10858500D02*
D03*
Y10985500D02*
D03*
Y11112500D02*
D03*
Y11239500D02*
D03*
X11675500Y22288499D02*
D03*
Y22415500D02*
D03*
Y22542500D02*
D03*
Y22669501D02*
D03*
X12200500Y22288499D02*
D03*
Y22415500D02*
D03*
Y22542500D02*
D03*
Y22669501D02*
D03*
X11675500Y18478500D02*
D03*
Y18605499D02*
D03*
Y18732500D02*
D03*
Y18859500D02*
D03*
X12200500Y18478500D02*
D03*
Y18605499D02*
D03*
Y18732500D02*
D03*
Y18859500D02*
D03*
X11675500Y14668500D02*
D03*
Y14795500D02*
D03*
Y14922501D02*
D03*
Y15049500D02*
D03*
X12200500Y14668500D02*
D03*
Y14795500D02*
D03*
Y14922501D02*
D03*
Y15049500D02*
D03*
X9897500Y5778500D02*
D03*
Y5905500D02*
D03*
Y6032500D02*
D03*
Y6159500D02*
D03*
X10422500Y5778500D02*
D03*
Y5905500D02*
D03*
Y6032500D02*
D03*
Y6159500D02*
D03*
X9897500Y9588500D02*
D03*
Y9715500D02*
D03*
Y9842500D02*
D03*
Y9969500D02*
D03*
X10422500Y9588500D02*
D03*
Y9715500D02*
D03*
Y9842500D02*
D03*
Y9969500D02*
D03*
X9897500Y21018500D02*
D03*
Y21145500D02*
D03*
Y21272501D02*
D03*
Y21399500D02*
D03*
X10422500Y21018500D02*
D03*
Y21145500D02*
D03*
Y21272501D02*
D03*
Y21399500D02*
D03*
X9897500Y17208501D02*
D03*
Y17335500D02*
D03*
Y17462500D02*
D03*
Y17589500D02*
D03*
X10422500Y17208501D02*
D03*
Y17335500D02*
D03*
Y17462500D02*
D03*
Y17589500D02*
D03*
X9897500Y13398500D02*
D03*
Y13525500D02*
D03*
Y13652499D02*
D03*
Y13779500D02*
D03*
X10422500Y13398500D02*
D03*
Y13525500D02*
D03*
Y13652499D02*
D03*
Y13779500D02*
D03*
D16*
X11010900Y15582899D02*
D03*
Y15125700D02*
D03*
X12852400Y6642100D02*
D03*
Y7099300D02*
D03*
Y10452100D02*
D03*
Y10909300D02*
D03*
Y21882100D02*
D03*
Y22339301D02*
D03*
Y18072099D02*
D03*
Y18529300D02*
D03*
Y14262100D02*
D03*
Y14719299D02*
D03*
X11074400Y5372100D02*
D03*
Y5829300D02*
D03*
Y9182100D02*
D03*
Y9639300D02*
D03*
Y20612100D02*
D03*
Y21069299D02*
D03*
Y16802100D02*
D03*
Y17259300D02*
D03*
X9232900Y6692900D02*
D03*
Y6235700D02*
D03*
Y10502900D02*
D03*
Y10045700D02*
D03*
Y21932899D02*
D03*
Y21475700D02*
D03*
Y18122900D02*
D03*
Y17665700D02*
D03*
X11074400Y12992101D02*
D03*
Y13449300D02*
D03*
X9232900Y14312900D02*
D03*
Y13855701D02*
D03*
X11010900Y19392900D02*
D03*
Y18935699D02*
D03*
Y11772900D02*
D03*
Y11315700D02*
D03*
Y23202901D02*
D03*
Y22745700D02*
D03*
Y7962900D02*
D03*
Y7505700D02*
D03*
D17*
X11468100Y7451300D02*
D03*
Y7636300D02*
D03*
Y11261300D02*
D03*
Y11446300D02*
D03*
Y22691299D02*
D03*
Y22876300D02*
D03*
Y18881300D02*
D03*
Y19066299D02*
D03*
Y15071300D02*
D03*
Y15256300D02*
D03*
X12407900Y7153700D02*
D03*
Y6968700D02*
D03*
Y10963700D02*
D03*
Y10778700D02*
D03*
Y22393700D02*
D03*
Y22208701D02*
D03*
Y18583701D02*
D03*
Y18398700D02*
D03*
Y14773700D02*
D03*
Y14588699D02*
D03*
X10629900Y21123700D02*
D03*
Y20938699D02*
D03*
Y5883700D02*
D03*
Y5698700D02*
D03*
Y9693700D02*
D03*
Y9508700D02*
D03*
Y17313699D02*
D03*
Y17128700D02*
D03*
X9690100Y6181300D02*
D03*
Y6366300D02*
D03*
Y9991300D02*
D03*
Y10176300D02*
D03*
Y21421300D02*
D03*
Y21606300D02*
D03*
Y17611301D02*
D03*
Y17796300D02*
D03*
X10629900Y13503700D02*
D03*
Y13318700D02*
D03*
X9690100Y13801300D02*
D03*
Y13986301D02*
D03*
D18*
X5588000Y8407501D02*
D03*
Y8572501D02*
D03*
Y9677501D02*
D03*
Y9842501D02*
D03*
Y10947501D02*
D03*
Y11112501D02*
D03*
Y12217501D02*
D03*
Y12382501D02*
D03*
Y13487502D02*
D03*
Y13652501D02*
D03*
Y14757501D02*
D03*
Y14922501D02*
D03*
Y16027501D02*
D03*
Y16192500D02*
D03*
Y17297501D02*
D03*
Y17462502D02*
D03*
Y18567500D02*
D03*
Y18732501D02*
D03*
Y19837502D02*
D03*
Y20002501D02*
D03*
D19*
X5424000Y8572500D02*
D03*
X5244000D02*
D03*
X5424000Y12382500D02*
D03*
X5244000D02*
D03*
X5424000Y14922501D02*
D03*
X5244000D02*
D03*
X5424000Y11112500D02*
D03*
X5244000D02*
D03*
X5424000Y9842500D02*
D03*
X5244000D02*
D03*
X5424000Y16192500D02*
D03*
X5244000D02*
D03*
X5424000Y13652499D02*
D03*
X5244000D02*
D03*
X5424000Y17462500D02*
D03*
X5244000D02*
D03*
X5424000Y20002499D02*
D03*
X5244000D02*
D03*
X5424000Y18732500D02*
D03*
X5244000D02*
D03*
D50*
X18288000Y9182100D02*
D03*
X17780000D02*
D03*
X20447000D02*
D03*
X19939000D02*
D03*
X20447000Y21297900D02*
D03*
X19939000D02*
D03*
X18288000D02*
D03*
X17780000D02*
D03*
D83*
X11938000Y7239000D02*
D03*
D84*
Y11049000D02*
D03*
D85*
Y22478999D02*
D03*
D86*
Y18669000D02*
D03*
D87*
Y14859000D02*
D03*
D88*
X10160000Y5969000D02*
D03*
D89*
Y9779000D02*
D03*
D90*
Y21209000D02*
D03*
D91*
Y17399001D02*
D03*
D92*
Y13589000D02*
D03*
%TF.MD5,fbe92048a5cc67c51b9f8774495afc5b*%
M02*
