%TF.GenerationSoftware,Altium Limited,Altium Designer,25.0.2 (28)*%
G04 Layer_Color=0*
%FSLAX45Y45*%
%MOMM*%
%TF.SameCoordinates,BFBE90A8-51B7-47FB-822D-EC39B52C7656*%
%TF.FilePolarity,Positive*%
%TF.FileFunction,Plated,1,6,PTH,Drill*%
%TF.Part,Single*%
G01*
G75*
%TA.AperFunction,ComponentDrill*%
%ADD97C,0.86360*%
%ADD98C,0.91440*%
%TA.AperFunction,OtherDrill,Pad Free-Vs+ (35.56mm,71.12mm)*%
%ADD99C,0.91440*%
%TA.AperFunction,OtherDrill,Pad Free-Ve (35.56mm,233.68mm)*%
%ADD100C,0.91440*%
%TA.AperFunction,ComponentDrill*%
%ADD101C,1.09000*%
%ADD102C,3.20000*%
%TA.AperFunction,OtherDrill,Pad Free-Vs+ (35.56mm,248.92mm)*%
%ADD103C,0.91440*%
%TA.AperFunction,OtherDrill,Pad Free-Vg (50.8mm,248.92mm)*%
%ADD104C,0.91440*%
%TA.AperFunction,OtherDrill,Pad Free-Vs- (50.8mm,233.68mm)*%
%ADD105C,0.91440*%
%TA.AperFunction,OtherDrill,Pad Free-Ve (35.56mm,55.88mm)*%
%ADD106C,0.91440*%
%TA.AperFunction,OtherDrill,Pad Free-Vs- (50.8mm,55.88mm)*%
%ADD107C,0.91440*%
%TA.AperFunction,OtherDrill,Pad Free-Vg (50.8mm,71.12mm)*%
%ADD108C,0.91440*%
%TA.AperFunction,OtherDrill,Pad Free-4.5mm (190.5mm,208.28mm)*%
%ADD109C,4.57200*%
%TA.AperFunction,OtherDrill,Pad Free-4.5mm (190.5mm,96.52mm)*%
%ADD110C,4.57200*%
%TA.AperFunction,OtherDrill,Pad Free-4.5mm (129.54mm,195.58mm)*%
%ADD111C,4.57200*%
%TA.AperFunction,OtherDrill,Pad Free-4.5mm (129.54mm,124.46mm)*%
%ADD112C,4.57200*%
%TA.AperFunction,OtherDrill,Pad Free-4.5mm (35.56mm,205.74mm)*%
%ADD113C,4.57200*%
%TA.AperFunction,OtherDrill,Pad Free-4.5mm (35.56mm,99.06mm)*%
%ADD114C,4.57200*%
%TA.AperFunction,OtherDrill,Pad Free-4.5mm (35.56mm,256.54mm)*%
%ADD115C,4.57200*%
%TA.AperFunction,OtherDrill,Pad Free-4.5mm (129.54mm,256.54mm)*%
%ADD116C,4.57200*%
%TA.AperFunction,OtherDrill,Pad Free-4.5mm (129.54mm,48.26mm)*%
%ADD117C,4.57200*%
%TA.AperFunction,OtherDrill,Pad Free-4.5mm (35.56mm,48.26mm)*%
%ADD118C,4.57200*%
%TA.AperFunction,ViaDrill,NotFilled*%
%ADD119C,0.40640*%
%ADD120C,0.45720*%
%ADD121C,0.91440*%
%ADD122C,0.20000*%
D97*
X3365500Y12255500D02*
D03*
Y12509500D02*
D03*
X3556000Y12382500D02*
D03*
X3365500Y12763500D02*
D03*
X3556000Y12636500D02*
D03*
X3365500Y13017500D02*
D03*
X3556000Y12890500D02*
D03*
X3365500Y13271500D02*
D03*
X3556000Y13144501D02*
D03*
X3365500Y13525500D02*
D03*
X3556000Y13398500D02*
D03*
X3365500Y13779500D02*
D03*
X3556000Y13652499D02*
D03*
X3365500Y14033501D02*
D03*
X3556000Y13906500D02*
D03*
X3365500Y14287500D02*
D03*
X3556000Y14160500D02*
D03*
X3365500Y14541499D02*
D03*
X3556000Y14414500D02*
D03*
X3365500Y14795500D02*
D03*
X3556000Y14668500D02*
D03*
X3365500Y15049500D02*
D03*
X3556000Y14922501D02*
D03*
X3365500Y15303500D02*
D03*
X3556000Y15176500D02*
D03*
X3365500Y15557500D02*
D03*
X3556000Y15430499D02*
D03*
X3365500Y15811501D02*
D03*
X3556000Y15684500D02*
D03*
X3365500Y16065500D02*
D03*
X3556000Y15938499D02*
D03*
X3365500Y16319501D02*
D03*
X3556000Y16192500D02*
D03*
Y16446500D02*
D03*
X2984500Y12255500D02*
D03*
Y12509500D02*
D03*
X3175000Y12382500D02*
D03*
X2984500Y12763500D02*
D03*
X3175000Y12636500D02*
D03*
X2984500Y13017500D02*
D03*
X3175000Y12890500D02*
D03*
X2984500Y13271500D02*
D03*
X3175000Y13144501D02*
D03*
X2984500Y13525500D02*
D03*
X3175000Y13398500D02*
D03*
X2984500Y13779500D02*
D03*
X3175000Y13652499D02*
D03*
X2984500Y14033501D02*
D03*
X3175000Y13906500D02*
D03*
X2984500Y14287500D02*
D03*
X3175000Y14160500D02*
D03*
X2984500Y14541499D02*
D03*
X3175000Y14414500D02*
D03*
X2984500Y14795500D02*
D03*
X3175000Y14668500D02*
D03*
X2984500Y15049500D02*
D03*
X3175000Y14922501D02*
D03*
X2984500Y15303500D02*
D03*
X3175000Y15176500D02*
D03*
X2984500Y15557500D02*
D03*
X3175000Y15430499D02*
D03*
X2984500Y15811501D02*
D03*
X3175000Y15684500D02*
D03*
X2984500Y16065500D02*
D03*
X3175000Y15938499D02*
D03*
X2984500Y16319501D02*
D03*
X3175000Y16192500D02*
D03*
Y16446500D02*
D03*
D98*
X16383000Y19050000D02*
D03*
Y19558000D02*
D03*
Y20066000D02*
D03*
Y20574001D02*
D03*
X15875000Y19050000D02*
D03*
Y19558000D02*
D03*
Y20066000D02*
D03*
Y20574001D02*
D03*
X15367000Y19050000D02*
D03*
Y19558000D02*
D03*
Y20066000D02*
D03*
Y20574001D02*
D03*
X14859000Y19050000D02*
D03*
Y19558000D02*
D03*
Y20066000D02*
D03*
Y20574001D02*
D03*
X18542000Y12446000D02*
D03*
Y11938000D02*
D03*
Y11430000D02*
D03*
Y10922000D02*
D03*
X18034000Y12446000D02*
D03*
Y11938000D02*
D03*
Y11430000D02*
D03*
Y10922000D02*
D03*
X17525999Y12446000D02*
D03*
Y11938000D02*
D03*
Y11430000D02*
D03*
Y10922000D02*
D03*
X17017999Y12446000D02*
D03*
Y11938000D02*
D03*
Y11430000D02*
D03*
Y10922000D02*
D03*
X20700999Y11938000D02*
D03*
Y11430000D02*
D03*
Y10922000D02*
D03*
Y10414000D02*
D03*
X20192999Y11938000D02*
D03*
Y11430000D02*
D03*
Y10922000D02*
D03*
Y10414000D02*
D03*
X19685001Y11938000D02*
D03*
Y11430000D02*
D03*
Y10922000D02*
D03*
Y10414000D02*
D03*
X19177000Y11938000D02*
D03*
Y11430000D02*
D03*
Y10922000D02*
D03*
Y10414000D02*
D03*
X20700999Y18542000D02*
D03*
Y19050000D02*
D03*
Y19558000D02*
D03*
Y20066000D02*
D03*
X20192999Y18542000D02*
D03*
Y19050000D02*
D03*
Y19558000D02*
D03*
Y20066000D02*
D03*
X19685001Y18542000D02*
D03*
Y19050000D02*
D03*
Y19558000D02*
D03*
Y20066000D02*
D03*
X19177000Y18542000D02*
D03*
Y19050000D02*
D03*
Y19558000D02*
D03*
Y20066000D02*
D03*
X16383000Y11430000D02*
D03*
Y10922000D02*
D03*
Y10414000D02*
D03*
Y9906000D02*
D03*
X15875000Y11430000D02*
D03*
Y10922000D02*
D03*
Y10414000D02*
D03*
Y9906000D02*
D03*
X15367000Y11430000D02*
D03*
Y10922000D02*
D03*
Y10414000D02*
D03*
Y9906000D02*
D03*
X14859000Y11430000D02*
D03*
Y10922000D02*
D03*
Y10414000D02*
D03*
Y9906000D02*
D03*
X18542000Y18034000D02*
D03*
Y18542000D02*
D03*
Y19050000D02*
D03*
Y19558000D02*
D03*
X18034000Y18034000D02*
D03*
Y18542000D02*
D03*
Y19050000D02*
D03*
Y19558000D02*
D03*
X17525999Y18034000D02*
D03*
Y18542000D02*
D03*
Y19050000D02*
D03*
Y19558000D02*
D03*
X17017999Y18034000D02*
D03*
Y18542000D02*
D03*
Y19050000D02*
D03*
Y19558000D02*
D03*
D99*
X3556000Y7112000D02*
D03*
D100*
Y23367999D02*
D03*
D101*
X20716200Y13716499D02*
D03*
Y13993500D02*
D03*
Y14270500D02*
D03*
Y14547501D02*
D03*
Y14824500D02*
D03*
Y15101500D02*
D03*
Y15378500D02*
D03*
Y15655499D02*
D03*
Y15932500D02*
D03*
Y16209500D02*
D03*
Y16486501D02*
D03*
Y16763499D02*
D03*
X20432201Y13578000D02*
D03*
Y13855000D02*
D03*
Y14132001D02*
D03*
Y14409000D02*
D03*
Y14686000D02*
D03*
Y14963000D02*
D03*
Y16625000D02*
D03*
Y16902000D02*
D03*
Y16071001D02*
D03*
Y16348000D02*
D03*
Y15794000D02*
D03*
Y15517000D02*
D03*
Y15239999D02*
D03*
D102*
X20574200Y17595000D02*
D03*
Y12885001D02*
D03*
D103*
X3556000Y24892000D02*
D03*
D104*
X5080000D02*
D03*
D105*
Y23367999D02*
D03*
D106*
X3556000Y5588000D02*
D03*
D107*
X5080000D02*
D03*
D108*
Y7112000D02*
D03*
D109*
X19050000Y20828000D02*
D03*
D110*
Y9652000D02*
D03*
D111*
X12953999Y19558000D02*
D03*
D112*
Y12446000D02*
D03*
D113*
X3556000Y20574001D02*
D03*
D114*
Y9906000D02*
D03*
D115*
Y25654001D02*
D03*
D116*
X12953999D02*
D03*
D117*
Y4826000D02*
D03*
D118*
X3556000D02*
D03*
D119*
X6096000Y14224001D02*
D03*
X3048000Y10160000D02*
D03*
X9144000Y14224001D02*
D03*
X8636000Y21336000D02*
D03*
X16764000Y11176000D02*
D03*
X5080000Y24384000D02*
D03*
X13716000Y25400000D02*
D03*
X3048000Y6096000D02*
D03*
X19812000Y15239999D02*
D03*
X9144000Y26416000D02*
D03*
X8636000Y25400000D02*
D03*
X15239999Y18288000D02*
D03*
X16764000Y17272000D02*
D03*
X6096000Y22352000D02*
D03*
X10160000Y26416000D02*
D03*
X12192000Y4064000D02*
D03*
X16764000Y13208000D02*
D03*
X6604000Y7112000D02*
D03*
X9652000Y9144000D02*
D03*
X3048000Y22352000D02*
D03*
X15748000Y15239999D02*
D03*
X4064000Y10160000D02*
D03*
X17780000Y17272000D02*
D03*
X7620000Y11176000D02*
D03*
X9652000Y7112000D02*
D03*
X15748000Y11176000D02*
D03*
X14732001D02*
D03*
X12192000Y6096000D02*
D03*
X13716000Y17272000D02*
D03*
X20828000D02*
D03*
X10668000Y9144000D02*
D03*
X15239999Y12192000D02*
D03*
X11709400Y21336000D02*
D03*
X19812000Y19303999D02*
D03*
X4572000Y25400000D02*
D03*
X8128000Y6096000D02*
D03*
X20828000Y21336000D02*
D03*
X4572000D02*
D03*
X12192000Y12192000D02*
D03*
X4572000Y23367999D02*
D03*
X11684000Y5080000D02*
D03*
X7620000Y21336000D02*
D03*
X11176000Y8140700D02*
D03*
X5588000Y25400000D02*
D03*
X15239999Y16256000D02*
D03*
X12700000Y21336000D02*
D03*
X8636000Y9144000D02*
D03*
X5080000Y8128000D02*
D03*
X11684000Y9144000D02*
D03*
X4064000Y22352000D02*
D03*
X5588000Y19303999D02*
D03*
X5080000Y4064000D02*
D03*
X11176000Y16256000D02*
D03*
X17780000Y11176000D02*
D03*
X10668000Y19303999D02*
D03*
X7112000Y26416000D02*
D03*
X6096000Y10160000D02*
D03*
X12217400Y20320000D02*
D03*
X14732001Y21336000D02*
D03*
X7620000Y5080000D02*
D03*
X8636000Y7112000D02*
D03*
X5588000Y15239999D02*
D03*
X12192000Y26416000D02*
D03*
X11176000D02*
D03*
X4064000Y24384000D02*
D03*
X7620000Y17272000D02*
D03*
X8128000Y26416000D02*
D03*
X15748000Y13208000D02*
D03*
X20828000Y11176000D02*
D03*
X14224001Y16256000D02*
D03*
X5588000Y13208000D02*
D03*
X7112000Y14224001D02*
D03*
X9652000Y15239999D02*
D03*
X11684000D02*
D03*
X6604000D02*
D03*
X15748000Y19303999D02*
D03*
X5588000Y7112000D02*
D03*
X8128000Y10160000D02*
D03*
X12700000Y5080000D02*
D03*
X7620000Y15239999D02*
D03*
X16256000Y18288000D02*
D03*
X8636000Y17272000D02*
D03*
X5080000Y22352000D02*
D03*
X4064000Y8128000D02*
D03*
X13716000Y13208000D02*
D03*
X5588000Y23367999D02*
D03*
X3048000Y8128000D02*
D03*
X8128000Y4064000D02*
D03*
X14732001Y17272000D02*
D03*
X10668000Y15239999D02*
D03*
X9652000Y5080000D02*
D03*
X7112000Y8128000D02*
D03*
X14732001Y19303999D02*
D03*
X13208000Y4064000D02*
D03*
X17780000Y19303999D02*
D03*
X11176000Y20320000D02*
D03*
X8128000Y14224001D02*
D03*
X10668000Y13208000D02*
D03*
X3556000Y21336000D02*
D03*
X17780000Y15239999D02*
D03*
X13716000Y9144000D02*
D03*
X7112000Y22352000D02*
D03*
X8128000Y18288000D02*
D03*
X14732001Y15239999D02*
D03*
X18288000Y12192000D02*
D03*
X8636000Y5080000D02*
D03*
X14224001Y18288000D02*
D03*
X12192000Y24384000D02*
D03*
X13208000D02*
D03*
X4572000Y5080000D02*
D03*
X6096000Y20320000D02*
D03*
X10668000Y25400000D02*
D03*
X6604000Y19303999D02*
D03*
X5080000Y20320000D02*
D03*
X8128000Y16256000D02*
D03*
X17272000Y12192000D02*
D03*
X4064000Y6096000D02*
D03*
X13208000Y20320000D02*
D03*
X19812000Y11176000D02*
D03*
X11176000Y24384000D02*
D03*
X16764000Y19303999D02*
D03*
X7620000Y7112000D02*
D03*
X12192000Y8128000D02*
D03*
X7112000Y10160000D02*
D03*
X3556000Y11176000D02*
D03*
X19303999Y20320000D02*
D03*
X5588000Y5080000D02*
D03*
X11239500Y10160000D02*
D03*
X8636000Y13208000D02*
D03*
X6096000Y6096000D02*
D03*
X20828000Y19303999D02*
D03*
X19303999Y18288000D02*
D03*
X13208000Y12192000D02*
D03*
X16764000Y9144000D02*
D03*
X12700000D02*
D03*
X18288000Y18288000D02*
D03*
X7112000Y20320000D02*
D03*
X19812000Y13208000D02*
D03*
X5588000Y17272000D02*
D03*
X5080000Y12192000D02*
D03*
X16764000Y15239999D02*
D03*
X3048000Y24384000D02*
D03*
X7620000Y19303999D02*
D03*
X4572000Y13208000D02*
D03*
X11684000D02*
D03*
X10160000Y4064000D02*
D03*
Y24384000D02*
D03*
X13716000Y5080000D02*
D03*
X11684000Y25400000D02*
D03*
X5080000Y6096000D02*
D03*
X19303999Y10160000D02*
D03*
Y12192000D02*
D03*
X7112000Y4064000D02*
D03*
X3556000Y9144000D02*
D03*
X6096000Y8128000D02*
D03*
X7112000Y6096000D02*
D03*
X17780000Y13208000D02*
D03*
X4572000Y9144000D02*
D03*
X8128000Y20320000D02*
D03*
X12192000Y14224001D02*
D03*
X4064000Y4064000D02*
D03*
X13208000Y26416000D02*
D03*
X12700000Y19303999D02*
D03*
X7620000Y23367999D02*
D03*
X9144000Y4064000D02*
D03*
X12700000Y25400000D02*
D03*
X18796001Y21336000D02*
D03*
X5080000Y26416000D02*
D03*
X14224001Y12192000D02*
D03*
X19812000Y17272000D02*
D03*
X4064000Y26416000D02*
D03*
X20828000Y15239999D02*
D03*
X5588000Y9144000D02*
D03*
X11176000Y4064000D02*
D03*
X8128000Y12192000D02*
D03*
X20828000Y9144000D02*
D03*
Y13208000D02*
D03*
X3048000Y26416000D02*
D03*
X3556000Y19303999D02*
D03*
X6604000Y25400000D02*
D03*
X12700000Y15239999D02*
D03*
X13208000Y16256000D02*
D03*
X12700000Y13208000D02*
D03*
X6096000Y26416000D02*
D03*
Y18288000D02*
D03*
X9144000Y16256000D02*
D03*
X10160000Y10160000D02*
D03*
X14732001Y9144000D02*
D03*
X16256000Y12192000D02*
D03*
X9652000Y25400000D02*
D03*
X11176000Y12192000D02*
D03*
X10668000Y7112000D02*
D03*
X6096000Y4064000D02*
D03*
X18796001Y15239999D02*
D03*
X17272000Y18288000D02*
D03*
X3048000Y4064000D02*
D03*
X4572000Y7112000D02*
D03*
X9144000Y24384000D02*
D03*
X12192000Y16256000D02*
D03*
X16764000Y21336000D02*
D03*
X11684000Y17272000D02*
D03*
X6604000Y21336000D02*
D03*
X11684000Y19303999D02*
D03*
X6604000Y5080000D02*
D03*
X4572000Y15239999D02*
D03*
X5080000Y18288000D02*
D03*
X18796001Y9144000D02*
D03*
D120*
X3517900Y19850101D02*
D03*
Y11912600D02*
D03*
X3784600Y17348199D02*
D03*
D121*
X7670800Y13538200D02*
D03*
X8026400Y25120599D02*
D03*
X9804400Y23850600D02*
D03*
X8026400Y21310600D02*
D03*
X9804400Y20040601D02*
D03*
X8026400Y17500600D02*
D03*
X9804400Y16230600D02*
D03*
Y12420600D02*
D03*
X8026400Y9880600D02*
D03*
X9804400Y8610600D02*
D03*
X11074400Y5372100D02*
D03*
X12852400Y6642100D02*
D03*
X11074400Y9182100D02*
D03*
X12852400Y10452100D02*
D03*
Y21882100D02*
D03*
X11074400Y20612100D02*
D03*
X12852400Y18072099D02*
D03*
X11074400Y16802100D02*
D03*
X12852400Y14262100D02*
D03*
X11074400Y12992101D02*
D03*
D122*
X12003000Y7044000D02*
D03*
X11873000D02*
D03*
X12003000Y7434000D02*
D03*
X11873000D02*
D03*
X12003000Y7304000D02*
D03*
X11873000D02*
D03*
X12003000Y7174000D02*
D03*
X11873000D02*
D03*
X12003000Y10854000D02*
D03*
X11873000D02*
D03*
X12003000Y11244000D02*
D03*
X11873000D02*
D03*
X12003000Y11114000D02*
D03*
X11873000D02*
D03*
X12003000Y10984000D02*
D03*
X11873000D02*
D03*
X12003000Y22284000D02*
D03*
X11873000D02*
D03*
X12003000Y22674001D02*
D03*
X11873000D02*
D03*
X12003000Y22544000D02*
D03*
X11873000D02*
D03*
X12003000Y22414000D02*
D03*
X11873000D02*
D03*
X12003000Y18474001D02*
D03*
X11873000D02*
D03*
X12003000Y18864000D02*
D03*
X11873000D02*
D03*
X12003000Y18734000D02*
D03*
X11873000D02*
D03*
X12003000Y18603999D02*
D03*
X11873000D02*
D03*
X12003000Y14664000D02*
D03*
X11873000D02*
D03*
X12003000Y15053999D02*
D03*
X11873000D02*
D03*
X12003000Y14924001D02*
D03*
X11873000D02*
D03*
X12003000Y14794000D02*
D03*
X11873000D02*
D03*
X8955000Y8196000D02*
D03*
X8825000D02*
D03*
X8955000Y7806000D02*
D03*
X8825000D02*
D03*
X8955000Y7936000D02*
D03*
X8825000D02*
D03*
X8955000Y8066000D02*
D03*
X8825000D02*
D03*
X8955000Y23436000D02*
D03*
X8825000D02*
D03*
X8955000Y23046001D02*
D03*
X8825000D02*
D03*
X8955000Y23175999D02*
D03*
X8825000D02*
D03*
X8955000Y23306000D02*
D03*
X8825000D02*
D03*
X8955000Y19625999D02*
D03*
X8825000D02*
D03*
X8955000Y19236000D02*
D03*
X8825000D02*
D03*
X8955000Y19366000D02*
D03*
X8825000D02*
D03*
X8955000Y19496001D02*
D03*
X8825000D02*
D03*
X8955000Y12006000D02*
D03*
X8825000D02*
D03*
X8955000Y11616000D02*
D03*
X8825000D02*
D03*
X8955000Y11746000D02*
D03*
X8825000D02*
D03*
X8955000Y11876000D02*
D03*
X8825000D02*
D03*
X8955000Y15816000D02*
D03*
X8825000D02*
D03*
X8955000Y15425999D02*
D03*
X8825000D02*
D03*
X8955000Y15556000D02*
D03*
X8825000D02*
D03*
X8955000Y15686000D02*
D03*
X8825000D02*
D03*
X10225000Y5774000D02*
D03*
X10095000D02*
D03*
X10225000Y6164000D02*
D03*
X10095000D02*
D03*
X10225000Y6034000D02*
D03*
X10095000D02*
D03*
X10225000Y5904000D02*
D03*
X10095000D02*
D03*
X10225000Y9584000D02*
D03*
X10095000D02*
D03*
X10225000Y9974000D02*
D03*
X10095000D02*
D03*
X10225000Y9844000D02*
D03*
X10095000D02*
D03*
X10225000Y9714000D02*
D03*
X10095000D02*
D03*
X10225000Y21014000D02*
D03*
X10095000D02*
D03*
X10225000Y21403999D02*
D03*
X10095000D02*
D03*
X10225000Y21274001D02*
D03*
X10095000D02*
D03*
X10225000Y21144000D02*
D03*
X10095000D02*
D03*
X10225000Y17203999D02*
D03*
X10095000D02*
D03*
X10225000Y17594000D02*
D03*
X10095000D02*
D03*
X10225000Y17464000D02*
D03*
X10095000D02*
D03*
X10225000Y17334000D02*
D03*
X10095000D02*
D03*
X10225000Y13394000D02*
D03*
X10095000D02*
D03*
X10225000Y13784000D02*
D03*
X10095000D02*
D03*
X10225000Y13653999D02*
D03*
X10095000D02*
D03*
X10225000Y13524001D02*
D03*
X10095000D02*
D03*
X7177000Y24706000D02*
D03*
X7047000D02*
D03*
X7177000Y24316000D02*
D03*
X7047000D02*
D03*
X7177000Y24446001D02*
D03*
X7047000D02*
D03*
X7177000Y24575999D02*
D03*
X7047000D02*
D03*
X7177000Y20896001D02*
D03*
X7047000D02*
D03*
X7177000Y20506000D02*
D03*
X7047000D02*
D03*
X7177000Y20636000D02*
D03*
X7047000D02*
D03*
X7177000Y20766000D02*
D03*
X7047000D02*
D03*
X7177000Y9466000D02*
D03*
X7047000D02*
D03*
X7177000Y9076000D02*
D03*
X7047000D02*
D03*
X7177000Y9206000D02*
D03*
X7047000D02*
D03*
X7177000Y9336000D02*
D03*
X7047000D02*
D03*
X7177000Y13275999D02*
D03*
X7047000D02*
D03*
X7177000Y12886000D02*
D03*
X7047000D02*
D03*
X7177000Y13016000D02*
D03*
X7047000D02*
D03*
X7177000Y13146001D02*
D03*
X7047000D02*
D03*
X7177000Y17086000D02*
D03*
X7047000D02*
D03*
X7177000Y16696001D02*
D03*
X7047000D02*
D03*
X7177000Y16825999D02*
D03*
X7047000D02*
D03*
X7177000Y16956000D02*
D03*
X7047000D02*
D03*
%TF.MD5,71646a2b26c28583c989502ce3661376*%
M02*
