%TF.GenerationSoftware,Altium Limited,Altium Designer,25.0.2 (28)*%
G04 Layer_Color=32896*
%FSLAX45Y45*%
%MOMM*%
%TF.SameCoordinates,BFBE90A8-51B7-47FB-822D-EC39B52C7656*%
%TF.FilePolarity,Positive*%
%TF.FileFunction,Legend,Bot*%
%TF.Part,Single*%
G01*
G75*
%TA.AperFunction,NonConductor*%
%ADD51C,0.25400*%
%ADD52C,0.08000*%
%ADD53C,0.20000*%
%ADD54C,0.30480*%
%ADD56C,0.20320*%
D51*
X20307300Y15595599D02*
X20370799Y15659100D01*
X20485100D02*
X20624800Y15519400D01*
X20789900D01*
X20916901Y15392400D01*
Y15074899D02*
Y15392400D01*
X20802600Y14960600D02*
X20916901Y15074899D01*
X20624800Y14960600D02*
X20802600D01*
X20485100Y14820900D02*
X20624800Y14960600D01*
X20307300Y14884399D02*
X20370799Y14820900D01*
X20307300Y14884399D02*
Y15595599D01*
X2857500Y14224001D02*
Y14338300D01*
X3225800Y14541499D02*
X3276600Y14592300D01*
Y16395700D01*
X3441700Y16560800D01*
X3594100D01*
X3670300Y16484599D01*
Y12344400D02*
Y16484599D01*
X3467100Y12141200D02*
X3670300Y12344400D01*
X3327400Y12141200D02*
X3467100D01*
X3263900Y12204700D02*
X3327400Y12141200D01*
X3263900Y12204700D02*
Y14236700D01*
X3225800Y14274800D02*
X3263900Y14236700D01*
X3213100Y14274800D02*
X3225800D01*
X2857500Y14224001D02*
X2921000Y14160500D01*
X3022600D01*
X3136900Y14274800D01*
X3213100D01*
X3136900Y14541499D02*
X3225800D01*
X3009900Y14414500D02*
X3136900Y14541499D01*
X2933700Y14414500D02*
X3009900D01*
X2857500Y14338300D02*
X2933700Y14414500D01*
X13303250Y11093450D02*
X13411200Y11201400D01*
Y13004800D01*
X16104100Y13716499D02*
X20586200D01*
X14109700Y11722100D02*
X16104100Y13716499D01*
X14109700Y9791700D02*
Y11722100D01*
X13639799Y9321800D02*
X14109700Y9791700D01*
X13639799Y6527800D02*
Y9321800D01*
X13068300Y5956300D02*
X13639799Y6527800D01*
X11531600Y5956300D02*
X13068300D01*
X15705600Y14270500D02*
X20591000D01*
X13754100Y12319000D02*
X15705600Y14270500D01*
X13754100Y10452100D02*
Y12319000D01*
X13068300Y9766300D02*
X13754100Y10452100D01*
X11544300Y9766300D02*
X13068300D01*
X14392700Y14824500D02*
X20595799D01*
X13144501Y13576300D02*
X14392700Y14824500D01*
X11544300Y13576300D02*
X13144501D01*
X14953900Y14547501D02*
X20593401D01*
X13411200Y13004800D02*
X14953900Y14547501D01*
X14055299Y15655499D02*
X20595799D01*
X13296899Y14897099D02*
X14055299Y15655499D01*
X14103000Y15932500D02*
X20592700D01*
X12649200Y17386301D02*
X14103000Y15932500D01*
X11531600Y17386301D02*
X12649200D01*
X15921500Y16209500D02*
X20591000D01*
X13868401Y18262601D02*
X15921500Y16209500D01*
X13335001Y18262601D02*
X13868401D01*
X16218401Y16763499D02*
X20586700D01*
X13500101Y19481799D02*
X16218401Y16763499D01*
X13500101Y19481799D02*
Y22352000D01*
X13385800Y22466299D02*
X13500101Y22352000D01*
X13296899Y22466299D02*
X13385800D01*
X10706100Y15011400D02*
Y15087601D01*
Y15011400D02*
X10782300D01*
X10706100Y15697200D02*
X10782300D01*
X10706100Y15621001D02*
Y15697200D01*
X11315700Y15621001D02*
Y15697200D01*
X11239500D02*
X11315700D01*
X11239500Y15011400D02*
X11315700D01*
Y15087601D01*
X13157201Y7137400D02*
Y7213600D01*
X13081000D02*
X13157201D01*
X13081000Y6527800D02*
X13157201D01*
Y6604000D01*
X12547600Y6527800D02*
Y6604000D01*
Y6527800D02*
X12623800D01*
X12547600Y7213600D02*
X12623800D01*
X12547600Y7137400D02*
Y7213600D01*
X13157201Y10947400D02*
Y11023600D01*
X13081000D02*
X13157201D01*
X13081000Y10337800D02*
X13157201D01*
Y10414000D01*
X12547600Y10337800D02*
Y10414000D01*
Y10337800D02*
X12623800D01*
X12547600Y11023600D02*
X12623800D01*
X12547600Y10947400D02*
Y11023600D01*
X13157201Y22377400D02*
Y22453600D01*
X13081000D02*
X13157201D01*
X13081000Y21767799D02*
X13157201D01*
Y21844000D01*
X12547600Y21767799D02*
Y21844000D01*
Y21767799D02*
X12623800D01*
X12547600Y22453600D02*
X12623800D01*
X12547600Y22377400D02*
Y22453600D01*
X13157201Y18567400D02*
Y18643600D01*
X13081000D02*
X13157201D01*
X13081000Y17957800D02*
X13157201D01*
Y18034000D01*
X12547600Y17957800D02*
Y18034000D01*
Y17957800D02*
X12623800D01*
X12547600Y18643600D02*
X12623800D01*
X12547600Y18567400D02*
Y18643600D01*
X13157201Y14757401D02*
Y14833600D01*
X13081000D02*
X13157201D01*
X13081000Y14147800D02*
X13157201D01*
Y14224001D01*
X12547600Y14147800D02*
Y14224001D01*
Y14147800D02*
X12623800D01*
X12547600Y14833600D02*
X12623800D01*
X12547600Y14757401D02*
Y14833600D01*
X11379200Y5867400D02*
Y5943600D01*
X11303000D02*
X11379200D01*
X11303000Y5257800D02*
X11379200D01*
Y5334000D01*
X10769600Y5257800D02*
Y5334000D01*
Y5257800D02*
X10845800D01*
X10769600Y5943600D02*
X10845800D01*
X10769600Y5867400D02*
Y5943600D01*
X11379200Y9677400D02*
Y9753600D01*
X11303000D02*
X11379200D01*
X11303000Y9067800D02*
X11379200D01*
Y9144000D01*
X10769600Y9067800D02*
Y9144000D01*
Y9067800D02*
X10845800D01*
X10769600Y9753600D02*
X10845800D01*
X10769600Y9677400D02*
Y9753600D01*
X11379200Y21107401D02*
Y21183600D01*
X11303000D02*
X11379200D01*
X11303000Y20497800D02*
X11379200D01*
Y20574001D01*
X10769600Y20497800D02*
Y20574001D01*
Y20497800D02*
X10845800D01*
X10769600Y21183600D02*
X10845800D01*
X10769600Y21107401D02*
Y21183600D01*
X11379200Y17297400D02*
Y17373599D01*
X11303000D02*
X11379200D01*
X11303000Y16687801D02*
X11379200D01*
Y16764000D01*
X10769600Y16687801D02*
Y16764000D01*
Y16687801D02*
X10845800D01*
X10769600Y17373599D02*
X10845800D01*
X10769600Y17297400D02*
Y17373599D01*
X8928100Y6121400D02*
Y6197600D01*
Y6121400D02*
X9004300D01*
X8928100Y6807200D02*
X9004300D01*
X8928100Y6731000D02*
Y6807200D01*
X9537700Y6731000D02*
Y6807200D01*
X9461500D02*
X9537700D01*
X9461500Y6121400D02*
X9537700D01*
Y6197600D01*
X8928100Y9931400D02*
Y10007600D01*
Y9931400D02*
X9004300D01*
X8928100Y10617200D02*
X9004300D01*
X8928100Y10541000D02*
Y10617200D01*
X9537700Y10541000D02*
Y10617200D01*
X9461500D02*
X9537700D01*
X9461500Y9931400D02*
X9537700D01*
Y10007600D01*
X8928100Y21361400D02*
Y21437601D01*
Y21361400D02*
X9004300D01*
X8928100Y22047200D02*
X9004300D01*
X8928100Y21971001D02*
Y22047200D01*
X9537700Y21971001D02*
Y22047200D01*
X9461500D02*
X9537700D01*
X9461500Y21361400D02*
X9537700D01*
Y21437601D01*
X8928100Y17551401D02*
Y17627600D01*
Y17551401D02*
X9004300D01*
X8928100Y18237199D02*
X9004300D01*
X8928100Y18161000D02*
Y18237199D01*
X9537700Y18161000D02*
Y18237199D01*
X9461500D02*
X9537700D01*
X9461500Y17551401D02*
X9537700D01*
Y17627600D01*
X11379200Y13487399D02*
Y13563600D01*
X11303000D02*
X11379200D01*
X11303000Y12877800D02*
X11379200D01*
Y12953999D01*
X10769600Y12877800D02*
Y12953999D01*
Y12877800D02*
X10845800D01*
X10769600Y13563600D02*
X10845800D01*
X10769600Y13487399D02*
Y13563600D01*
X8928100Y13741400D02*
Y13817599D01*
Y13741400D02*
X9004300D01*
X8928100Y14427200D02*
X9004300D01*
X8928100Y14350999D02*
Y14427200D01*
X9537700Y14350999D02*
Y14427200D01*
X9461500D02*
X9537700D01*
X9461500Y13741400D02*
X9537700D01*
Y13817599D01*
X10706100Y18821400D02*
Y18897600D01*
Y18821400D02*
X10782300D01*
X10706100Y19507201D02*
X10782300D01*
X10706100Y19431000D02*
Y19507201D01*
X11315700Y19431000D02*
Y19507201D01*
X11239500D02*
X11315700D01*
X11239500Y18821400D02*
X11315700D01*
Y18897600D01*
X10706100Y11201400D02*
Y11277600D01*
Y11201400D02*
X10782300D01*
X10706100Y11887200D02*
X10782300D01*
X10706100Y11811000D02*
Y11887200D01*
X11315700Y11811000D02*
Y11887200D01*
X11239500D02*
X11315700D01*
X11239500Y11201400D02*
X11315700D01*
Y11277600D01*
X10706100Y22631400D02*
Y22707600D01*
Y22631400D02*
X10782300D01*
X10706100Y23317200D02*
X10782300D01*
X10706100Y23241000D02*
Y23317200D01*
X11315700Y23241000D02*
Y23317200D01*
X11239500D02*
X11315700D01*
X11239500Y22631400D02*
X11315700D01*
Y22707600D01*
X10706100Y7391400D02*
Y7467600D01*
Y7391400D02*
X10782300D01*
X10706100Y8077200D02*
X10782300D01*
X10706100Y8001000D02*
Y8077200D01*
X11315700Y8001000D02*
Y8077200D01*
X11239500D02*
X11315700D01*
X11239500Y7391400D02*
X11315700D01*
Y7467600D01*
X13502280Y6489700D02*
X13430460Y6417881D01*
X13394551Y6381972D02*
X13322733Y6310153D01*
X13144501Y10096500D02*
X13042934D01*
X12992149D02*
X12890582D01*
X12839799D02*
X12738231D01*
X12687448D02*
X12585881D01*
X12535097D02*
X12433530D01*
X12382746D02*
X12281179D01*
X12230396D02*
X12128828D01*
X12078045D02*
X11976478D01*
X11925694D02*
X11824127D01*
X11773343D02*
X11671776D01*
X11620993D02*
X11519426D01*
X11468642D02*
X11367075D01*
X11316291D02*
X11214724D01*
X13476878Y10363200D02*
X13405060Y10291381D01*
X13369151Y10255472D02*
X13297331Y10183653D01*
X13261423Y10147744D02*
X13189604Y10075925D01*
X12649200Y8409579D02*
X12721019Y8337760D01*
X12756928Y8301850D02*
X12828748Y8230031D01*
X12864656Y8194122D02*
X12936475Y8122303D01*
X12972385Y8086394D02*
X13044205Y8014575D01*
X13080113Y7978666D02*
X13151932Y7906847D01*
X13187840Y7870937D02*
X13259660Y7799119D01*
X13295569Y7763209D02*
X13367387Y7691390D01*
X13403297Y7655481D02*
X13475116Y7583662D01*
X12598400Y8407400D02*
X12496833D01*
X12446049D02*
X12344482D01*
X12293699D02*
X12192131D01*
X12141348D02*
X12039781D01*
X11988997D02*
X11887430D01*
X11836646D02*
X11735079D01*
X11684296D02*
X11582728D01*
X11531945D02*
X11430378D01*
X11379594D02*
X11278027D01*
X11227243D02*
X11125676D01*
X11074893D02*
X10973326D01*
X10922542D02*
X10820975D01*
X10770191D02*
X10668624D01*
X10617841D02*
X10516273D01*
X10465490D02*
X10363923D01*
X13512801Y7543800D02*
Y7442233D01*
Y7391449D02*
Y7289882D01*
Y7239098D02*
Y7137531D01*
Y7086748D02*
Y6985180D01*
Y6934397D02*
Y6832830D01*
Y6782046D02*
Y6680479D01*
Y6629695D02*
Y6528128D01*
X13284200Y6286500D02*
X13182632D01*
X13131850D02*
X13030283D01*
X12979498D02*
X12877931D01*
X12827148D02*
X12725581D01*
X12674797D02*
X12573230D01*
X12522446D02*
X12420879D01*
X12370096D02*
X12268528D01*
X12217745D02*
X12116178D01*
X12065394D02*
X11963827D01*
X11913043D02*
X11811476D01*
X11760693D02*
X11659126D01*
X11608342D02*
X11506775D01*
X11455991D02*
X11354424D01*
X11303641D02*
X11202073D01*
X10350500Y7139579D02*
X10422319Y7067760D01*
X10458228Y7031850D02*
X10530047Y6960031D01*
X10565956Y6924122D02*
X10637775Y6852303D01*
X10673685Y6816394D02*
X10745504Y6744575D01*
X10781413Y6708666D02*
X10853232Y6636847D01*
X10889141Y6600937D02*
X10960960Y6529119D01*
X10996869Y6493209D02*
X11068688Y6421390D01*
X11104598Y6385481D02*
X11176416Y6313662D01*
X10350500Y8356600D02*
Y8255033D01*
Y8204249D02*
Y8102682D01*
Y8051899D02*
Y7950331D01*
Y7899548D02*
Y7797981D01*
Y7747197D02*
Y7645630D01*
Y7594846D02*
Y7493279D01*
Y7442496D02*
Y7340928D01*
Y7290145D02*
Y7188578D01*
X10401300Y7035800D02*
X10299733D01*
X10248949D02*
X10147382D01*
X10096599D02*
X9995031D01*
X9944248D02*
X9842681D01*
X9791897D02*
X9690330D01*
X9639546D02*
X9537979D01*
X9487196D02*
X9385628D01*
X9334845D02*
X9233278D01*
X9182494D02*
X9080927D01*
X9030143D02*
X8928576D01*
X8877793D02*
X8776226D01*
X8725442D02*
X8623875D01*
X8573091D02*
X8471524D01*
X8470900Y6997700D02*
Y6896133D01*
Y6845349D02*
Y6743782D01*
Y6692999D02*
Y6591431D01*
Y6540648D02*
Y6439081D01*
Y6388297D02*
Y6286730D01*
Y6235946D02*
Y6134379D01*
Y6083596D02*
Y5982028D01*
Y5931245D02*
Y5829678D01*
Y5778894D02*
Y5677327D01*
Y5626543D02*
Y5524976D01*
Y5474193D02*
Y5372626D01*
Y5321842D02*
Y5220275D01*
Y5169491D02*
Y5067924D01*
Y5017141D02*
Y4915573D01*
X11531600Y4902200D02*
X11430033D01*
X11379249D02*
X11277682D01*
X11226899D02*
X11125331D01*
X11074548D02*
X10972981D01*
X10922197D02*
X10820630D01*
X10769846D02*
X10668279D01*
X10617496D02*
X10515928D01*
X10465145D02*
X10363578D01*
X10312794D02*
X10211227D01*
X10160443D02*
X10058876D01*
X10008093D02*
X9906526D01*
X9855742D02*
X9754175D01*
X9703391D02*
X9601824D01*
X9551041D02*
X9449473D01*
X9398690D02*
X9297123D01*
X9246339D02*
X9144772D01*
X9093988D02*
X8992421D01*
X8941638D02*
X8840070D01*
X8789287D02*
X8687720D01*
X8636936D02*
X8535369D01*
X11569700Y6248400D02*
Y6146833D01*
Y6096049D02*
Y5994482D01*
Y5943698D02*
Y5842131D01*
Y5791348D02*
Y5689780D01*
Y5638997D02*
Y5537430D01*
Y5486646D02*
Y5385079D01*
Y5334295D02*
Y5232728D01*
Y5181945D02*
Y5080377D01*
Y5029594D02*
Y4928027D01*
X12623800Y12270379D02*
X12695619Y12198560D01*
X12731528Y12162650D02*
X12803346Y12090831D01*
X12839256Y12054922D02*
X12911075Y11983103D01*
X12946985Y11947194D02*
X13018803Y11875375D01*
X13054713Y11839466D02*
X13126532Y11767647D01*
X13162440Y11731737D02*
X13234261Y11659919D01*
X13270169Y11624009D02*
X13341988Y11552190D01*
X13377898Y11516281D02*
X13449716Y11444462D01*
X12585700Y12293600D02*
X12484133D01*
X12433349D02*
X12331782D01*
X12280999D02*
X12179431D01*
X12128648D02*
X12027081D01*
X11976297D02*
X11874730D01*
X11823946D02*
X11722379D01*
X11671596D02*
X11570028D01*
X11519245D02*
X11417678D01*
X11366894D02*
X11265327D01*
X11214543D02*
X11112976D01*
X11062193D02*
X10960626D01*
X10909842D02*
X10808275D01*
X10757491D02*
X10655924D01*
X10605141D02*
X10503573D01*
X10452790D02*
X10351223D01*
X13487399Y11417300D02*
Y11315733D01*
Y11264949D02*
Y11163382D01*
Y11112598D02*
Y11011031D01*
Y10960248D02*
Y10858680D01*
Y10807897D02*
Y10706330D01*
Y10655546D02*
Y10553979D01*
Y10503195D02*
Y10401628D01*
X10350500Y10949579D02*
X10422319Y10877760D01*
X10458228Y10841850D02*
X10530047Y10770031D01*
X10565956Y10734122D02*
X10637775Y10662303D01*
X10673685Y10626394D02*
X10745504Y10554575D01*
X10781413Y10518666D02*
X10853232Y10446847D01*
X10889141Y10410937D02*
X10960960Y10339119D01*
X10996869Y10303209D02*
X11068688Y10231390D01*
X11104598Y10195481D02*
X11176416Y10123662D01*
X10312400Y12293600D02*
Y12192033D01*
Y12141249D02*
Y12039682D01*
Y11988899D02*
Y11887331D01*
Y11836548D02*
Y11734981D01*
Y11684197D02*
Y11582630D01*
Y11531846D02*
Y11430279D01*
Y11379496D02*
Y11277928D01*
Y11227145D02*
Y11125578D01*
Y11074794D02*
Y10973227D01*
X10350500Y10883900D02*
X10248933D01*
X10198149D02*
X10096582D01*
X10045799D02*
X9944231D01*
X9893448D02*
X9791881D01*
X9741097D02*
X9639530D01*
X9588746D02*
X9487179D01*
X9436396D02*
X9334828D01*
X9284045D02*
X9182478D01*
X9131694D02*
X9030127D01*
X8979343D02*
X8877776D01*
X8826993D02*
X8725426D01*
X8674642D02*
X8573075D01*
X8534400Y10871200D02*
Y10769633D01*
Y10718849D02*
Y10617282D01*
Y10566498D02*
Y10464931D01*
Y10414148D02*
Y10312580D01*
Y10261797D02*
Y10160230D01*
Y10109446D02*
Y10007879D01*
Y9957095D02*
Y9855528D01*
Y9804745D02*
Y9703177D01*
Y9652394D02*
Y9550827D01*
Y9500043D02*
Y9398476D01*
Y9347693D02*
Y9246125D01*
Y9195342D02*
Y9093775D01*
Y9042991D02*
Y8941424D01*
Y8890640D02*
Y8789073D01*
X11531600Y8750300D02*
X11430033D01*
X11379249D02*
X11277682D01*
X11226899D02*
X11125331D01*
X11074548D02*
X10972981D01*
X10922197D02*
X10820630D01*
X10769846D02*
X10668279D01*
X10617496D02*
X10515928D01*
X10465145D02*
X10363578D01*
X10312794D02*
X10211227D01*
X10160443D02*
X10058876D01*
X10008093D02*
X9906526D01*
X9855742D02*
X9754175D01*
X9703391D02*
X9601824D01*
X9551041D02*
X9449473D01*
X9398690D02*
X9297123D01*
X9246339D02*
X9144772D01*
X9093988D02*
X8992421D01*
X8941638D02*
X8840070D01*
X8789287D02*
X8687720D01*
X8636936D02*
X8535369D01*
X11569700Y10058400D02*
Y9956833D01*
Y9906049D02*
Y9804482D01*
Y9753699D02*
Y9652131D01*
Y9601348D02*
Y9499781D01*
Y9448997D02*
Y9347430D01*
Y9296646D02*
Y9195079D01*
Y9144296D02*
Y9042728D01*
Y8991945D02*
Y8890378D01*
Y8839594D02*
Y8738027D01*
X12623800Y15991479D02*
X12695619Y15919659D01*
X12731528Y15883749D02*
X12803346Y15811931D01*
X12839256Y15776022D02*
X12911075Y15704202D01*
X12946985Y15668294D02*
X13018803Y15596475D01*
X13054713Y15560567D02*
X13126532Y15488747D01*
X13162440Y15452837D02*
X13234261Y15381020D01*
X13270169Y15345110D02*
X13341988Y15273289D01*
X13377898Y15237381D02*
X13449716Y15165562D01*
X12598400Y16027400D02*
X12496833D01*
X12446049D02*
X12344482D01*
X12293699D02*
X12192131D01*
X12141348D02*
X12039781D01*
X11988997D02*
X11887430D01*
X11836646D02*
X11735079D01*
X11684296D02*
X11582728D01*
X11531945D02*
X11430378D01*
X11379594D02*
X11278027D01*
X11227243D02*
X11125676D01*
X11074893D02*
X10973326D01*
X10922542D02*
X10820975D01*
X10770191D02*
X10668624D01*
X10617841D02*
X10516273D01*
X10465490D02*
X10363923D01*
X13449300Y15113000D02*
Y15011433D01*
Y14960649D02*
Y14859082D01*
Y14808299D02*
Y14706731D01*
Y14655948D02*
Y14554381D01*
Y14503596D02*
Y14402029D01*
Y14351247D02*
Y14249680D01*
Y14198895D02*
Y14097328D01*
Y14046545D02*
Y13944978D01*
X13435976Y13906500D02*
X13334409D01*
X13283624D02*
X13182059D01*
X13131274D02*
X13029707D01*
X12978925D02*
X12877357D01*
X12826573D02*
X12725006D01*
X12674223D02*
X12572655D01*
X12521872D02*
X12420305D01*
X12369521D02*
X12267954D01*
X12217170D02*
X12115603D01*
X12064820D02*
X11963252D01*
X11912469D02*
X11810902D01*
X11760118D02*
X11658551D01*
X11607767D02*
X11506200D01*
X11455417D02*
X11353850D01*
X11303066D02*
X11201499D01*
X10350500Y14759579D02*
X10422319Y14687759D01*
X10458228Y14651849D02*
X10530047Y14580031D01*
X10565956Y14544122D02*
X10637775Y14472302D01*
X10673685Y14436394D02*
X10745504Y14364575D01*
X10781413Y14328667D02*
X10853232Y14256847D01*
X10889141Y14220937D02*
X10960960Y14149120D01*
X10996869Y14113210D02*
X11068688Y14041389D01*
X11104598Y14005481D02*
X11176416Y13933662D01*
X10350500Y15976601D02*
Y15875034D01*
Y15824249D02*
Y15722682D01*
Y15671899D02*
Y15570331D01*
Y15519548D02*
Y15417981D01*
Y15367197D02*
Y15265630D01*
Y15214845D02*
Y15113280D01*
Y15062495D02*
Y14960928D01*
Y14910146D02*
Y14808578D01*
Y14693900D02*
X10248933D01*
X10198149D02*
X10096582D01*
X10045799D02*
X9944231D01*
X9893448D02*
X9791881D01*
X9741097D02*
X9639530D01*
X9588746D02*
X9487179D01*
X9436396D02*
X9334828D01*
X9284045D02*
X9182478D01*
X9131694D02*
X9030127D01*
X8979343D02*
X8877776D01*
X8826993D02*
X8725426D01*
X8674642D02*
X8573075D01*
X8534400Y14681200D02*
Y14579633D01*
Y14528848D02*
Y14427283D01*
Y14376498D02*
Y14274931D01*
Y14224149D02*
Y14122581D01*
Y14071797D02*
Y13970230D01*
Y13919446D02*
Y13817879D01*
Y13767096D02*
Y13665527D01*
Y13614745D02*
Y13513177D01*
Y13462395D02*
Y13360828D01*
Y13310043D02*
Y13208476D01*
Y13157693D02*
Y13056126D01*
Y13005342D02*
Y12903775D01*
Y12852991D02*
Y12751424D01*
Y12700641D02*
Y12599073D01*
X11531600Y12560300D02*
X11430033D01*
X11379249D02*
X11277682D01*
X11226899D02*
X11125331D01*
X11074548D02*
X10972981D01*
X10922197D02*
X10820630D01*
X10769846D02*
X10668279D01*
X10617496D02*
X10515928D01*
X10465145D02*
X10363578D01*
X10312794D02*
X10211227D01*
X10160443D02*
X10058876D01*
X10008093D02*
X9906526D01*
X9855742D02*
X9754175D01*
X9703391D02*
X9601824D01*
X9551041D02*
X9449473D01*
X9398690D02*
X9297123D01*
X9246339D02*
X9144772D01*
X9093988D02*
X8992421D01*
X8941638D02*
X8840070D01*
X8789287D02*
X8687720D01*
X8636936D02*
X8535369D01*
X11569700Y13868401D02*
Y13766833D01*
Y13716049D02*
Y13614482D01*
Y13563698D02*
Y13462131D01*
Y13411348D02*
Y13309779D01*
Y13258997D02*
Y13157430D01*
Y13106647D02*
Y13005080D01*
Y12954295D02*
Y12852728D01*
Y12801945D02*
Y12700377D01*
Y12649594D02*
Y12548027D01*
X10390779Y19888200D02*
X10318960Y19816380D01*
X13157201Y19864980D02*
X13229019Y19793159D01*
X13264928Y19757249D02*
X13336748Y19685431D01*
X13119099Y19888200D02*
X13017532D01*
X12966750D02*
X12865182D01*
X12814400D02*
X12712831D01*
X12662048D02*
X12560481D01*
X12509697D02*
X12408130D01*
X12357346D02*
X12255779D01*
X12204996D02*
X12103428D01*
X12052645D02*
X11951078D01*
X11900294D02*
X11798727D01*
X11747943D02*
X11646376D01*
X11595593D02*
X11494026D01*
X11443242D02*
X11341675D01*
X11290891D02*
X11189324D01*
X11138541D02*
X11036973D01*
X10986190D02*
X10884623D01*
X10833839D02*
X10732272D01*
X10681488D02*
X10579921D01*
X10529138D02*
X10427570D01*
X13360400Y19646899D02*
Y19545332D01*
Y19494550D02*
Y19392982D01*
Y19342200D02*
Y19240631D01*
Y19189848D02*
Y19088281D01*
Y19037497D02*
Y18935930D01*
Y18885146D02*
Y18783578D01*
Y18732796D02*
Y18631229D01*
Y18580444D02*
Y18478877D01*
Y18428094D02*
Y18326527D01*
Y18275743D02*
Y18174176D01*
Y18123393D02*
Y18021826D01*
Y17971042D02*
Y17869475D01*
Y17818690D02*
Y17717123D01*
X13309599Y17716499D02*
X13208034D01*
X13157249D02*
X13055682D01*
X13004900D02*
X12903331D01*
X12852548D02*
X12750981D01*
X12700197D02*
X12598630D01*
X12547846D02*
X12446279D01*
X12395496D02*
X12293928D01*
X12243145D02*
X12141578D01*
X12090794D02*
X11989227D01*
X11938443D02*
X11836876D01*
X11786093D02*
X11684526D01*
X11633742D02*
X11532175D01*
X11481391D02*
X11379824D01*
X11329041D02*
X11227473D01*
X10350500Y18569579D02*
X10422319Y18497760D01*
X10458228Y18461850D02*
X10530047Y18390031D01*
X10565956Y18354121D02*
X10637775Y18282303D01*
X10673685Y18246394D02*
X10745504Y18174574D01*
X10781413Y18138666D02*
X10853232Y18066847D01*
X10889141Y18030937D02*
X10960960Y17959119D01*
X10996869Y17923209D02*
X11068688Y17851390D01*
X11104598Y17815482D02*
X11176416Y17743661D01*
X10325100Y19773900D02*
Y19672333D01*
Y19621548D02*
Y19519981D01*
Y19469199D02*
Y19367632D01*
Y19316849D02*
Y19215280D01*
Y19164497D02*
Y19062930D01*
Y19012146D02*
Y18910579D01*
Y18859795D02*
Y18758228D01*
Y18707445D02*
Y18605878D01*
X10350500Y18503900D02*
X10248933D01*
X10198149D02*
X10096582D01*
X10045799D02*
X9944231D01*
X9893448D02*
X9791881D01*
X9741097D02*
X9639530D01*
X9588746D02*
X9487179D01*
X9436396D02*
X9334828D01*
X9284045D02*
X9182478D01*
X9131694D02*
X9030127D01*
X8979343D02*
X8877776D01*
X8826993D02*
X8725426D01*
X8674642D02*
X8573075D01*
X8534400Y18491200D02*
Y18389633D01*
Y18338849D02*
Y18237282D01*
Y18186499D02*
Y18084930D01*
Y18034148D02*
Y17932581D01*
Y17881796D02*
Y17780231D01*
Y17729446D02*
Y17627879D01*
Y17577097D02*
Y17475528D01*
Y17424745D02*
Y17323178D01*
Y17272394D02*
Y17170827D01*
Y17120042D02*
Y17018475D01*
Y16967693D02*
Y16866125D01*
Y16815343D02*
Y16713776D01*
Y16662991D02*
Y16561424D01*
Y16510641D02*
Y16409073D01*
X11531600Y16370300D02*
X11430033D01*
X11379249D02*
X11277682D01*
X11226899D02*
X11125331D01*
X11074548D02*
X10972981D01*
X10922197D02*
X10820630D01*
X10769846D02*
X10668279D01*
X10617496D02*
X10515928D01*
X10465145D02*
X10363578D01*
X10312794D02*
X10211227D01*
X10160443D02*
X10058876D01*
X10008093D02*
X9906526D01*
X9855742D02*
X9754175D01*
X9703391D02*
X9601824D01*
X9551041D02*
X9449473D01*
X9398690D02*
X9297123D01*
X9246339D02*
X9144772D01*
X9093988D02*
X8992421D01*
X8941638D02*
X8840070D01*
X8789287D02*
X8687720D01*
X8636936D02*
X8535369D01*
X11569700Y17678400D02*
Y17576833D01*
Y17526048D02*
Y17424483D01*
Y17373698D02*
Y17272131D01*
Y17221349D02*
Y17119780D01*
Y17068997D02*
Y16967430D01*
Y16916646D02*
Y16815079D01*
Y16764294D02*
Y16662727D01*
Y16611945D02*
Y16510378D01*
Y16459595D02*
Y16358028D01*
X11569700Y21488400D02*
Y21386833D01*
Y21336049D02*
Y21234482D01*
Y21183699D02*
Y21082130D01*
Y21031348D02*
Y20929781D01*
Y20878996D02*
Y20777431D01*
Y20726646D02*
Y20625079D01*
Y20574297D02*
Y20472728D01*
Y20421945D02*
Y20320378D01*
Y20269594D02*
Y20168027D01*
X11531600Y20180299D02*
X11430033D01*
X11379249D02*
X11277682D01*
X11226899D02*
X11125331D01*
X11074548D02*
X10972981D01*
X10922197D02*
X10820630D01*
X10769846D02*
X10668279D01*
X10617496D02*
X10515928D01*
X10465145D02*
X10363578D01*
X10312794D02*
X10211227D01*
X10160443D02*
X10058876D01*
X10008093D02*
X9906526D01*
X9855742D02*
X9754175D01*
X9703391D02*
X9601824D01*
X9551041D02*
X9449473D01*
X9398690D02*
X9297123D01*
X9246339D02*
X9144772D01*
X9093988D02*
X8992421D01*
X8941638D02*
X8840070D01*
X8789287D02*
X8687720D01*
X8636936D02*
X8535369D01*
X8534400Y22301199D02*
Y22199632D01*
Y22148849D02*
Y22047282D01*
Y21996498D02*
Y21894931D01*
Y21844148D02*
Y21742580D01*
Y21691797D02*
Y21590230D01*
Y21539445D02*
Y21437878D01*
Y21387096D02*
Y21285529D01*
Y21234744D02*
Y21133177D01*
Y21082394D02*
Y20980827D01*
Y20930043D02*
Y20828476D01*
Y20777693D02*
Y20676125D01*
Y20625342D02*
Y20523775D01*
Y20472990D02*
Y20371423D01*
Y20320641D02*
Y20219073D01*
X10350500Y22313901D02*
X10248933D01*
X10198149D02*
X10096582D01*
X10045799D02*
X9944231D01*
X9893448D02*
X9791881D01*
X9741097D02*
X9639530D01*
X9588746D02*
X9487179D01*
X9436396D02*
X9334828D01*
X9284045D02*
X9182478D01*
X9131694D02*
X9030127D01*
X8979343D02*
X8877776D01*
X8826993D02*
X8725426D01*
X8674642D02*
X8573075D01*
X10350500Y23596600D02*
Y23495033D01*
Y23444249D02*
Y23342682D01*
Y23291898D02*
Y23190331D01*
Y23139548D02*
Y23037981D01*
Y22987196D02*
Y22885629D01*
Y22834846D02*
Y22733279D01*
Y22682495D02*
Y22580928D01*
Y22530145D02*
Y22428577D01*
X10350500Y22379579D02*
X10422319Y22307761D01*
X10458228Y22271851D02*
X10530047Y22200031D01*
X10565956Y22164122D02*
X10637775Y22092303D01*
X10673685Y22056393D02*
X10745504Y21984575D01*
X10781413Y21948666D02*
X10853232Y21876846D01*
X10889141Y21840936D02*
X10960960Y21769119D01*
X10996869Y21733209D02*
X11068688Y21661391D01*
X11104598Y21625481D02*
X11176416Y21553662D01*
X13435976Y21526500D02*
X13334409D01*
X13283624D02*
X13182059D01*
X13131274D02*
X13029707D01*
X12978925D02*
X12877357D01*
X12826573D02*
X12725006D01*
X12674223D02*
X12572655D01*
X12521872D02*
X12420305D01*
X12369521D02*
X12267954D01*
X12217170D02*
X12115603D01*
X12064820D02*
X11963252D01*
X11912469D02*
X11810902D01*
X11760118D02*
X11658551D01*
X11607767D02*
X11506200D01*
X11455417D02*
X11353850D01*
X11303066D02*
X11201499D01*
X13449300Y22733000D02*
Y22631433D01*
Y22580649D02*
Y22479082D01*
Y22428297D02*
Y22326730D01*
Y22275948D02*
Y22174380D01*
Y22123598D02*
Y22022031D01*
Y21971246D02*
Y21869679D01*
Y21818895D02*
Y21717328D01*
Y21666545D02*
Y21564977D01*
X12598400Y23647400D02*
X12496833D01*
X12446049D02*
X12344482D01*
X12293699D02*
X12192131D01*
X12141348D02*
X12039781D01*
X11988997D02*
X11887430D01*
X11836646D02*
X11735079D01*
X11684296D02*
X11582728D01*
X11531945D02*
X11430378D01*
X11379594D02*
X11278027D01*
X11227243D02*
X11125676D01*
X11074893D02*
X10973326D01*
X10922542D02*
X10820975D01*
X10770191D02*
X10668624D01*
X10617841D02*
X10516273D01*
X10465490D02*
X10363923D01*
X12623800Y23611479D02*
X12695619Y23539661D01*
X12731528Y23503751D02*
X12803346Y23431931D01*
X12839256Y23396022D02*
X12911075Y23324203D01*
X12946985Y23288293D02*
X13018803Y23216475D01*
X13054713Y23180566D02*
X13126532Y23108746D01*
X13162440Y23072836D02*
X13234261Y23001019D01*
X13270169Y22965109D02*
X13341988Y22893291D01*
X13377898Y22857381D02*
X13449716Y22785562D01*
X21120059Y16878267D02*
X21145451Y16852875D01*
Y16802092D01*
X21120059Y16776700D01*
X21018492D01*
X20993100Y16802092D01*
Y16852875D01*
X21018492Y16878267D01*
X21145451Y16929051D02*
X20993100D01*
X21069275D01*
Y17030618D01*
X21145451D01*
X20993100D01*
Y17081401D02*
X21094667D01*
X21145451Y17132185D01*
X21094667Y17182970D01*
X20993100D01*
X21069275D01*
Y17081401D01*
X20993100Y17233752D02*
X21145451D01*
X20993100Y17335320D01*
X21145451D01*
X20993100Y17386102D02*
X21145451D01*
X20993100Y17487669D01*
X21145451D01*
Y17640021D02*
Y17538454D01*
X20993100D01*
Y17640021D01*
X21069275Y17538454D02*
Y17589236D01*
X21145451Y17690804D02*
X20993100D01*
Y17792372D01*
Y17995506D02*
Y18046289D01*
Y18020898D01*
X21145451D01*
X21120059Y17995506D01*
X20993100Y18224033D02*
Y18122466D01*
X21094667Y18224033D01*
X21120059D01*
X21145451Y18198640D01*
Y18147858D01*
X21120059Y18122466D01*
Y12369767D02*
X21145451Y12344375D01*
Y12293592D01*
X21120059Y12268200D01*
X21018492D01*
X20993100Y12293592D01*
Y12344375D01*
X21018492Y12369767D01*
X21145451Y12420551D02*
X20993100D01*
X21069275D01*
Y12522118D01*
X21145451D01*
X20993100D01*
Y12572901D02*
X21094667D01*
X21145451Y12623685D01*
X21094667Y12674469D01*
X20993100D01*
X21069275D01*
Y12572901D01*
X20993100Y12725252D02*
X21145451D01*
X20993100Y12826819D01*
X21145451D01*
X20993100Y12877603D02*
X21145451D01*
X20993100Y12979170D01*
X21145451D01*
Y13131522D02*
Y13029955D01*
X20993100D01*
Y13131522D01*
X21069275Y13029955D02*
Y13080737D01*
X21145451Y13182304D02*
X20993100D01*
Y13283871D01*
Y13487006D02*
Y13537788D01*
Y13512398D01*
X21145451D01*
X21120059Y13487006D01*
X21018492Y13613965D02*
X20993100Y13639357D01*
Y13690140D01*
X21018492Y13715532D01*
X21120059D01*
X21145451Y13690140D01*
Y13639357D01*
X21120059Y13613965D01*
X21094667D01*
X21069275Y13639357D01*
Y13715532D01*
X20802600Y16903700D02*
X20751817D01*
X20777208D01*
Y17056052D01*
X20802600Y17030659D01*
X20675641Y16903700D02*
X20624858D01*
X20650249D01*
Y17056052D01*
X20675641Y17030659D01*
X21069299Y16433800D02*
X21018517D01*
X21043909D01*
Y16586151D01*
X21069299Y16560759D01*
X20840775Y16433800D02*
X20942342D01*
X20840775Y16535367D01*
Y16560759D01*
X20866167Y16586151D01*
X20916949D01*
X20942342Y16560759D01*
X21069226Y16144099D02*
X21018442D01*
X21043834D01*
Y16296451D01*
X21069226Y16271059D01*
X20942267D02*
X20916875Y16296451D01*
X20866092D01*
X20840700Y16271059D01*
Y16245667D01*
X20866092Y16220274D01*
X20891483D01*
X20866092D01*
X20840700Y16194884D01*
Y16169492D01*
X20866092Y16144099D01*
X20916875D01*
X20942267Y16169492D01*
X21069226Y15867101D02*
X21018442D01*
X21043834D01*
Y16019450D01*
X21069226Y15994060D01*
X20866092Y15867101D02*
Y16019450D01*
X20942267Y15943275D01*
X20840700D01*
X21069226Y15590100D02*
X21018442D01*
X21043834D01*
Y15742451D01*
X21069226Y15717059D01*
X20840700Y15742451D02*
X20942267D01*
Y15666277D01*
X20891483Y15691667D01*
X20866092D01*
X20840700Y15666277D01*
Y15615492D01*
X20866092Y15590100D01*
X20916875D01*
X20942267Y15615492D01*
X21069226Y14759100D02*
X21018442D01*
X21043834D01*
Y14911452D01*
X21069226Y14886060D01*
X20840700Y14911452D02*
X20891483Y14886060D01*
X20942267Y14835275D01*
Y14784492D01*
X20916875Y14759100D01*
X20866092D01*
X20840700Y14784492D01*
Y14809885D01*
X20866092Y14835275D01*
X20942267D01*
X21069226Y14482100D02*
X21018442D01*
X21043834D01*
Y14634451D01*
X21069226Y14609059D01*
X20942267Y14634451D02*
X20840700D01*
Y14609059D01*
X20942267Y14507492D01*
Y14482100D01*
X21069226Y14205099D02*
X21018442D01*
X21043834D01*
Y14357451D01*
X21069226Y14332059D01*
X20942267D02*
X20916875Y14357451D01*
X20866092D01*
X20840700Y14332059D01*
Y14306667D01*
X20866092Y14281274D01*
X20840700Y14255882D01*
Y14230492D01*
X20866092Y14205099D01*
X20916875D01*
X20942267Y14230492D01*
Y14255882D01*
X20916875Y14281274D01*
X20942267Y14306667D01*
Y14332059D01*
X20916875Y14281274D02*
X20866092D01*
X21069299Y13881100D02*
X21018517D01*
X21043909D01*
Y14033450D01*
X21069299Y14008060D01*
X20942342Y13906493D02*
X20916949Y13881100D01*
X20866167D01*
X20840775Y13906493D01*
Y14008060D01*
X20866167Y14033450D01*
X20916949D01*
X20942342Y14008060D01*
Y13982668D01*
X20916949Y13957275D01*
X20840775D01*
X20739133Y13423900D02*
X20840700D01*
X20739133Y13525467D01*
Y13550859D01*
X20764525Y13576251D01*
X20815308D01*
X20840700Y13550859D01*
X20688348D02*
X20662956Y13576251D01*
X20612173D01*
X20586781Y13550859D01*
Y13449292D01*
X20612173Y13423900D01*
X20662956D01*
X20688348Y13449292D01*
Y13550859D01*
X20116800Y15287659D02*
X20142192Y15313051D01*
X20192976D01*
X20218367Y15287659D01*
Y15186092D01*
X20192976Y15160699D01*
X20142192D01*
X20116800Y15186092D01*
Y15236876D01*
X20167584D01*
X20218401Y13500101D02*
X20167616D01*
X20193008D01*
Y13652451D01*
X20218401Y13627058D01*
X20091441D02*
X20066049Y13652451D01*
X20015266D01*
X19989874Y13627058D01*
Y13525491D01*
X20015266Y13500101D01*
X20066049D01*
X20091441Y13525491D01*
Y13627058D01*
X20218401Y13754092D02*
X20193008Y13728700D01*
X20142226D01*
X20116833Y13754092D01*
Y13855659D01*
X20142226Y13881052D01*
X20193008D01*
X20218401Y13855659D01*
Y13830267D01*
X20193008Y13804875D01*
X20116833D01*
X20218401Y14173158D02*
X20193008Y14198550D01*
X20142226D01*
X20116833Y14173158D01*
Y14147768D01*
X20142226Y14122375D01*
X20116833Y14096983D01*
Y14071593D01*
X20142226Y14046201D01*
X20193008D01*
X20218401Y14071593D01*
Y14096983D01*
X20193008Y14122375D01*
X20218401Y14147768D01*
Y14173158D01*
X20193008Y14122375D02*
X20142226D01*
X20218401Y14477951D02*
X20116833D01*
Y14452559D01*
X20218401Y14350992D01*
Y14325600D01*
X20116833Y14757352D02*
X20167616Y14731960D01*
X20218401Y14681175D01*
Y14630392D01*
X20193008Y14605000D01*
X20142226D01*
X20116833Y14630392D01*
Y14655783D01*
X20142226Y14681175D01*
X20218401D01*
X20116833Y15862251D02*
X20218401D01*
Y15786075D01*
X20167616Y15811467D01*
X20142226D01*
X20116833Y15786075D01*
Y15735292D01*
X20142226Y15709900D01*
X20193008D01*
X20218401Y15735292D01*
X20142226Y15989301D02*
Y16141650D01*
X20218401Y16065475D01*
X20116833D01*
X20218401Y16395659D02*
X20193008Y16421051D01*
X20142226D01*
X20116833Y16395659D01*
Y16370267D01*
X20142226Y16344875D01*
X20167616D01*
X20142226D01*
X20116833Y16319482D01*
Y16294092D01*
X20142226Y16268700D01*
X20193008D01*
X20218401Y16294092D01*
X20116833Y16598900D02*
X20218401D01*
X20116833Y16700467D01*
Y16725859D01*
X20142226Y16751251D01*
X20193008D01*
X20218401Y16725859D01*
X20192999Y16827499D02*
X20142216D01*
X20167609D01*
Y16979851D01*
X20192999Y16954459D01*
X3200400Y16586200D02*
X3149617D01*
X3175008D01*
Y16738551D01*
X3200400Y16713159D01*
X2933733Y16459200D02*
X3035300D01*
X2933733Y16560767D01*
Y16586159D01*
X2959125Y16611551D01*
X3009908D01*
X3035300Y16586159D01*
X2768625Y15989301D02*
Y16141650D01*
X2844800Y16065475D01*
X2743233D01*
Y15887651D02*
X2794017Y15862259D01*
X2844800Y15811475D01*
Y15760692D01*
X2819408Y15735300D01*
X2768625D01*
X2743233Y15760692D01*
Y15786082D01*
X2768625Y15811475D01*
X2844800D01*
Y15608260D02*
X2819408Y15633652D01*
X2768625D01*
X2743233Y15608260D01*
Y15582867D01*
X2768625Y15557475D01*
X2743233Y15532083D01*
Y15506693D01*
X2768625Y15481300D01*
X2819408D01*
X2844800Y15506693D01*
Y15532083D01*
X2819408Y15557475D01*
X2844800Y15582867D01*
Y15608260D01*
X2819408Y15557475D02*
X2768625D01*
X2819400Y15227299D02*
X2768617D01*
X2794008D01*
Y15379651D01*
X2819400Y15354259D01*
X2692441D02*
X2667049Y15379651D01*
X2616266D01*
X2590874Y15354259D01*
Y15252692D01*
X2616266Y15227299D01*
X2667049D01*
X2692441Y15252692D01*
Y15354259D01*
X2819400Y14973300D02*
X2768617D01*
X2794008D01*
Y15125652D01*
X2819400Y15100259D01*
X2590874Y14973300D02*
X2692441D01*
X2590874Y15074867D01*
Y15100259D01*
X2616266Y15125652D01*
X2667049D01*
X2692441Y15100259D01*
X2819400Y14719299D02*
X2768617D01*
X2794008D01*
Y14871651D01*
X2819400Y14846259D01*
X2616266Y14719299D02*
Y14871651D01*
X2692441Y14795474D01*
X2590874D01*
X2819400Y14465300D02*
X2768617D01*
X2794008D01*
Y14617651D01*
X2819400Y14592259D01*
X2590874Y14617651D02*
X2641658Y14592259D01*
X2692441Y14541475D01*
Y14490692D01*
X2667049Y14465300D01*
X2616266D01*
X2590874Y14490692D01*
Y14516083D01*
X2616266Y14541475D01*
X2692441D01*
X2667033Y14338258D02*
X2692425Y14363651D01*
X2743208D01*
X2768600Y14338258D01*
Y14236691D01*
X2743208Y14211301D01*
X2692425D01*
X2667033Y14236691D01*
Y14287476D01*
X2717817D01*
X2819400Y13957300D02*
X2768617D01*
X2794008D01*
Y14109651D01*
X2819400Y14084259D01*
X2692441D02*
X2667049Y14109651D01*
X2616266D01*
X2590874Y14084259D01*
Y14058867D01*
X2616266Y14033475D01*
X2590874Y14008083D01*
Y13982692D01*
X2616266Y13957300D01*
X2667049D01*
X2692441Y13982692D01*
Y14008083D01*
X2667049Y14033475D01*
X2692441Y14058867D01*
Y14084259D01*
X2667049Y14033475D02*
X2616266D01*
X2743233Y13703300D02*
X2844800D01*
X2743233Y13804868D01*
Y13830260D01*
X2768625Y13855650D01*
X2819408D01*
X2844800Y13830260D01*
X2692449D02*
X2667057Y13855650D01*
X2616274D01*
X2590882Y13830260D01*
Y13728693D01*
X2616274Y13703300D01*
X2667057D01*
X2692449Y13728693D01*
Y13830260D01*
X3327400Y23139400D02*
Y23240967D01*
Y23291750D02*
Y23393318D01*
Y23444101D02*
Y23545668D01*
Y23596452D02*
Y23698019D01*
Y23748804D02*
Y23850369D01*
Y23901154D02*
Y24002721D01*
Y24053503D02*
Y24155070D01*
Y24205855D02*
Y24307422D01*
Y24358206D02*
Y24459773D01*
Y24510556D02*
Y24612123D01*
Y24662907D02*
Y24764474D01*
Y24815257D02*
Y24916824D01*
Y24967609D02*
Y25069176D01*
X5334000Y23152100D02*
Y23253667D01*
Y23304449D02*
Y23406018D01*
Y23456801D02*
Y23558368D01*
Y23609152D02*
Y23710719D01*
Y23761504D02*
Y23863071D01*
Y23913853D02*
Y24015421D01*
Y24066203D02*
Y24167770D01*
Y24218555D02*
Y24320122D01*
Y24370906D02*
Y24472473D01*
Y24523256D02*
Y24624823D01*
Y24675607D02*
Y24777174D01*
Y24827959D02*
Y24929526D01*
Y24980309D02*
Y25081876D01*
X5283200Y25095200D02*
X5181633D01*
X5130849D02*
X5029282D01*
X4978499D02*
X4876931D01*
X4826148D02*
X4724581D01*
X4673797D02*
X4572230D01*
X4521446D02*
X4419879D01*
X4369096D02*
X4267528D01*
X4216745D02*
X4115178D01*
X4064394D02*
X3962827D01*
X3912043D02*
X3810476D01*
X3759693D02*
X3658126D01*
X3607342D02*
X3505775D01*
X3454991D02*
X3353424D01*
X5295900Y23126700D02*
X5194333D01*
X5143549D02*
X5041982D01*
X4991199D02*
X4889631D01*
X4838848D02*
X4737281D01*
X4686497D02*
X4584930D01*
X4534146D02*
X4432579D01*
X4381796D02*
X4280228D01*
X4229445D02*
X4127878D01*
X4077094D02*
X3975527D01*
X3924743D02*
X3823176D01*
X3772393D02*
X3670826D01*
X3620042D02*
X3518475D01*
X3467691D02*
X3366124D01*
X5295900Y5346700D02*
X5194333D01*
X5143549D02*
X5041982D01*
X4991199D02*
X4889631D01*
X4838848D02*
X4737281D01*
X4686497D02*
X4584930D01*
X4534146D02*
X4432579D01*
X4381796D02*
X4280228D01*
X4229445D02*
X4127878D01*
X4077094D02*
X3975527D01*
X3924743D02*
X3823176D01*
X3772393D02*
X3670826D01*
X3620042D02*
X3518475D01*
X3467691D02*
X3366124D01*
X5283200Y7315200D02*
X5181633D01*
X5130849D02*
X5029282D01*
X4978499D02*
X4876931D01*
X4826148D02*
X4724581D01*
X4673797D02*
X4572230D01*
X4521446D02*
X4419879D01*
X4369096D02*
X4267528D01*
X4216745D02*
X4115178D01*
X4064394D02*
X3962827D01*
X3912043D02*
X3810476D01*
X3759693D02*
X3658126D01*
X3607342D02*
X3505775D01*
X3454991D02*
X3353424D01*
X5334000Y5372100D02*
Y5473667D01*
Y5524451D02*
Y5626018D01*
Y5676801D02*
Y5778369D01*
Y5829152D02*
Y5930719D01*
Y5981503D02*
Y6083070D01*
Y6133854D02*
Y6235421D01*
Y6286204D02*
Y6387772D01*
Y6438555D02*
Y6540122D01*
Y6590906D02*
Y6692473D01*
Y6743257D02*
Y6844824D01*
Y6895607D02*
Y6997174D01*
Y7047958D02*
Y7149525D01*
Y7200309D02*
Y7301876D01*
X3327400Y5359400D02*
Y5460967D01*
Y5511751D02*
Y5613318D01*
Y5664101D02*
Y5765669D01*
Y5816452D02*
Y5918019D01*
Y5968803D02*
Y6070370D01*
Y6121154D02*
Y6222721D01*
Y6273504D02*
Y6375072D01*
Y6425855D02*
Y6527422D01*
Y6578206D02*
Y6679773D01*
Y6730557D02*
Y6832124D01*
Y6882907D02*
Y6984474D01*
Y7035258D02*
Y7136825D01*
Y7187609D02*
Y7289176D01*
X5715000Y8115300D02*
Y8216867D01*
Y8267651D02*
Y8369218D01*
Y8420001D02*
Y8521569D01*
Y8572352D02*
Y8673919D01*
Y8724703D02*
Y8826270D01*
Y8877054D02*
Y8978621D01*
X5702300Y9017000D02*
X5600733D01*
X5549949D02*
X5448382D01*
X5397599D02*
X5296031D01*
X5245248D02*
X5143681D01*
X5092897D02*
X4991330D01*
X4978400Y8102600D02*
Y8204167D01*
Y8254950D02*
Y8356518D01*
Y8407301D02*
Y8508868D01*
Y8559652D02*
Y8661219D01*
Y8712003D02*
Y8813570D01*
Y8864353D02*
Y8965921D01*
X5702300Y8064500D02*
X5600733D01*
X5549949D02*
X5448382D01*
X5397599D02*
X5296031D01*
X5245248D02*
X5143681D01*
X5092897D02*
X4991330D01*
X5715000Y9398000D02*
Y9499567D01*
Y9550350D02*
Y9651918D01*
Y9702701D02*
Y9804268D01*
Y9855052D02*
Y9956619D01*
Y10007403D02*
Y10108970D01*
Y10159753D02*
Y10261321D01*
X5702300Y10287000D02*
X5600733D01*
X5549949D02*
X5448382D01*
X5397599D02*
X5296031D01*
X5245248D02*
X5143681D01*
X5092897D02*
X4991330D01*
X4965700Y9398000D02*
Y9499567D01*
Y9550350D02*
Y9651918D01*
Y9702701D02*
Y9804268D01*
Y9855052D02*
Y9956619D01*
Y10007403D02*
Y10108970D01*
Y10159753D02*
Y10261321D01*
X5702300Y9359900D02*
X5600733D01*
X5549949D02*
X5448382D01*
X5397599D02*
X5296031D01*
X5245248D02*
X5143681D01*
X5092897D02*
X4991330D01*
X5715000Y10668000D02*
Y10769567D01*
Y10820351D02*
Y10921918D01*
Y10972701D02*
Y11074269D01*
Y11125052D02*
Y11226619D01*
Y11277403D02*
Y11378970D01*
Y11429754D02*
Y11531321D01*
X5702300Y11557000D02*
X5600733D01*
X5549949D02*
X5448382D01*
X5397599D02*
X5296031D01*
X5245248D02*
X5143681D01*
X5092897D02*
X4991330D01*
X4965700Y10668000D02*
Y10769567D01*
Y10820351D02*
Y10921918D01*
Y10972701D02*
Y11074269D01*
Y11125052D02*
Y11226619D01*
Y11277403D02*
Y11378970D01*
Y11429754D02*
Y11531321D01*
X5702300Y10629900D02*
X5600733D01*
X5549949D02*
X5448382D01*
X5397599D02*
X5296031D01*
X5245248D02*
X5143681D01*
X5092897D02*
X4991330D01*
X5715000Y11938000D02*
Y12039567D01*
Y12090350D02*
Y12191918D01*
Y12242701D02*
Y12344268D01*
Y12395052D02*
Y12496619D01*
Y12547403D02*
Y12648970D01*
Y12699753D02*
Y12801321D01*
X5702300Y12827000D02*
X5600733D01*
X5549949D02*
X5448382D01*
X5397599D02*
X5296031D01*
X5245248D02*
X5143681D01*
X5092897D02*
X4991330D01*
X4965700Y11938000D02*
Y12039567D01*
Y12090350D02*
Y12191918D01*
Y12242701D02*
Y12344268D01*
Y12395052D02*
Y12496619D01*
Y12547403D02*
Y12648970D01*
Y12699753D02*
Y12801321D01*
X5702300Y11899900D02*
X5600733D01*
X5549949D02*
X5448382D01*
X5397599D02*
X5296031D01*
X5245248D02*
X5143681D01*
X5092897D02*
X4991330D01*
X5727700Y13195300D02*
Y13296867D01*
Y13347650D02*
Y13449219D01*
Y13500002D02*
Y13601569D01*
Y13652351D02*
Y13753918D01*
Y13804703D02*
Y13906270D01*
Y13957053D02*
Y14058621D01*
X5702300Y14097000D02*
X5600733D01*
X5549949D02*
X5448382D01*
X5397599D02*
X5296031D01*
X5245248D02*
X5143681D01*
X5092897D02*
X4991330D01*
X4978400Y13195300D02*
Y13296867D01*
Y13347650D02*
Y13449219D01*
Y13500002D02*
Y13601569D01*
Y13652351D02*
Y13753918D01*
Y13804703D02*
Y13906270D01*
Y13957053D02*
Y14058621D01*
X5702300Y13157201D02*
X5600733D01*
X5549949D02*
X5448382D01*
X5397599D02*
X5296031D01*
X5245248D02*
X5143681D01*
X5092897D02*
X4991330D01*
X5715000Y14478000D02*
Y14579567D01*
Y14630350D02*
Y14731918D01*
Y14782701D02*
Y14884268D01*
Y14935052D02*
Y15036620D01*
Y15087402D02*
Y15188969D01*
Y15239754D02*
Y15341321D01*
X5702300Y15367000D02*
X5600733D01*
X5549949D02*
X5448382D01*
X5397599D02*
X5296031D01*
X5245248D02*
X5143681D01*
X5092897D02*
X4991330D01*
X4965700Y14478000D02*
Y14579567D01*
Y14630350D02*
Y14731918D01*
Y14782701D02*
Y14884268D01*
Y14935052D02*
Y15036620D01*
Y15087402D02*
Y15188969D01*
Y15239754D02*
Y15341321D01*
X5702300Y14439900D02*
X5600733D01*
X5549949D02*
X5448382D01*
X5397599D02*
X5296031D01*
X5245248D02*
X5143681D01*
X5092897D02*
X4991330D01*
X5715000Y15748000D02*
Y15849567D01*
Y15900351D02*
Y16001918D01*
Y16052701D02*
Y16154269D01*
Y16205052D02*
Y16306619D01*
Y16357404D02*
Y16458971D01*
Y16509753D02*
Y16611320D01*
X5702300Y16637000D02*
X5600733D01*
X5549949D02*
X5448382D01*
X5397599D02*
X5296031D01*
X5245248D02*
X5143681D01*
X5092897D02*
X4991330D01*
X4965700Y15748000D02*
Y15849567D01*
Y15900351D02*
Y16001918D01*
Y16052701D02*
Y16154269D01*
Y16205052D02*
Y16306619D01*
Y16357404D02*
Y16458971D01*
Y16509753D02*
Y16611320D01*
X5702300Y15709900D02*
X5600733D01*
X5549949D02*
X5448382D01*
X5397599D02*
X5296031D01*
X5245248D02*
X5143681D01*
X5092897D02*
X4991330D01*
X5715000Y17017999D02*
Y17119566D01*
Y17170351D02*
Y17271918D01*
Y17322701D02*
Y17424268D01*
Y17475052D02*
Y17576619D01*
Y17627403D02*
Y17728970D01*
Y17779753D02*
Y17881322D01*
X5702300Y17907001D02*
X5600733D01*
X5549949D02*
X5448382D01*
X5397599D02*
X5296031D01*
X5245248D02*
X5143681D01*
X5092897D02*
X4991330D01*
X4965700Y17017999D02*
Y17119566D01*
Y17170351D02*
Y17271918D01*
Y17322701D02*
Y17424268D01*
Y17475052D02*
Y17576619D01*
Y17627403D02*
Y17728970D01*
Y17779753D02*
Y17881322D01*
X5702300Y16979900D02*
X5600733D01*
X5549949D02*
X5448382D01*
X5397599D02*
X5296031D01*
X5245248D02*
X5143681D01*
X5092897D02*
X4991330D01*
X5715000Y18275301D02*
Y18376868D01*
Y18427650D02*
Y18529218D01*
Y18580000D02*
Y18681567D01*
Y18732352D02*
Y18833919D01*
Y18884703D02*
Y18986270D01*
Y19037053D02*
Y19138622D01*
X5702300Y19177000D02*
X5600733D01*
X5549949D02*
X5448382D01*
X5397599D02*
X5296031D01*
X5245248D02*
X5143681D01*
X5092897D02*
X4991330D01*
X4978400Y18275301D02*
Y18376868D01*
Y18427650D02*
Y18529218D01*
Y18580000D02*
Y18681567D01*
Y18732352D02*
Y18833919D01*
Y18884703D02*
Y18986270D01*
Y19037053D02*
Y19138622D01*
X5702300Y18224500D02*
X5600733D01*
X5549949D02*
X5448382D01*
X5397599D02*
X5296031D01*
X5245248D02*
X5143681D01*
X5092897D02*
X4991330D01*
X5702300Y19519901D02*
X5600733D01*
X5549949D02*
X5448382D01*
X5397599D02*
X5296031D01*
X5245248D02*
X5143681D01*
X5092897D02*
X4991330D01*
X4965700Y19558000D02*
Y19659567D01*
Y19710350D02*
Y19811919D01*
Y19862701D02*
Y19964268D01*
Y20015051D02*
Y20116618D01*
Y20167403D02*
Y20268970D01*
Y20319753D02*
Y20421321D01*
X5702300Y20447000D02*
X5600733D01*
X5549949D02*
X5448382D01*
X5397599D02*
X5296031D01*
X5245248D02*
X5143681D01*
X5092897D02*
X4991330D01*
X5715000Y19558000D02*
Y19659567D01*
Y19710350D02*
Y19811919D01*
Y19862701D02*
Y19964268D01*
Y20015051D02*
Y20116618D01*
Y20167403D02*
Y20268970D01*
Y20319753D02*
Y20421321D01*
X13741441Y8559833D02*
X13716049Y8585225D01*
Y8636008D01*
X13741441Y8661400D01*
X13843008D01*
X13868401Y8636008D01*
Y8585225D01*
X13843008Y8559833D01*
X13716049Y8509049D02*
X13868401D01*
X13792226D01*
Y8407482D01*
X13716049D01*
X13868401D01*
Y8356699D02*
X13766833D01*
X13716049Y8305915D01*
X13766833Y8255131D01*
X13868401D01*
X13792226D01*
Y8356699D01*
X13868401Y8204348D02*
X13716049D01*
X13868401Y8102781D01*
X13716049D01*
X13868401Y8051997D02*
X13716049D01*
X13868401Y7950430D01*
X13716049D01*
Y7798079D02*
Y7899646D01*
X13868401D01*
Y7798079D01*
X13792226Y7899646D02*
Y7848863D01*
X13716049Y7747296D02*
X13868401D01*
Y7645728D01*
Y7442594D02*
Y7391811D01*
Y7417202D01*
X13716049D01*
X13741441Y7442594D01*
X13843008Y7315635D02*
X13868401Y7290243D01*
Y7239460D01*
X13843008Y7214068D01*
X13741441D01*
X13716049Y7239460D01*
Y7290243D01*
X13741441Y7315635D01*
X13766833D01*
X13792226Y7290243D01*
Y7214068D01*
X13868401Y6960150D02*
X13817616Y7010934D01*
X13766833D01*
X13716049Y6960150D01*
Y6883975D02*
Y6782408D01*
Y6833192D01*
X13868401D01*
Y6731624D02*
X13817616Y6680841D01*
X13766833D01*
X13716049Y6731624D01*
X17030733Y13906459D02*
X17056125Y13931851D01*
X17106908D01*
X17132300Y13906459D01*
Y13804892D01*
X17106908Y13779500D01*
X17056125D01*
X17030733Y13804892D01*
X16979948Y13931851D02*
Y13779500D01*
Y13855675D01*
X16878381D01*
Y13931851D01*
Y13779500D01*
X16827599D02*
Y13881067D01*
X16776814Y13931851D01*
X16726031Y13881067D01*
Y13779500D01*
Y13855675D01*
X16827599D01*
X16675249Y13779500D02*
Y13931851D01*
X16573682Y13779500D01*
Y13931851D01*
X16522897Y13779500D02*
Y13931851D01*
X16421330Y13779500D01*
Y13931851D01*
X16268979D02*
X16370546D01*
Y13779500D01*
X16268979D01*
X16370546Y13855675D02*
X16319763D01*
X16218196Y13931851D02*
Y13779500D01*
X16116628D01*
X15811926D02*
X15913493D01*
X15811926Y13881067D01*
Y13906459D01*
X15837318Y13931851D01*
X15888103D01*
X15913493Y13906459D01*
X15761143D02*
X15735751Y13931851D01*
X15684969D01*
X15659576Y13906459D01*
Y13804892D01*
X15684969Y13779500D01*
X15735751D01*
X15761143Y13804892D01*
Y13906459D01*
X16459233Y14452559D02*
X16484625Y14477951D01*
X16535408D01*
X16560800Y14452559D01*
Y14350992D01*
X16535408Y14325600D01*
X16484625D01*
X16459233Y14350992D01*
X16408449Y14477951D02*
Y14325600D01*
Y14401775D01*
X16306882D01*
Y14477951D01*
Y14325600D01*
X16256099D02*
Y14427167D01*
X16205315Y14477951D01*
X16154530Y14427167D01*
Y14325600D01*
Y14401775D01*
X16256099D01*
X16103748Y14325600D02*
Y14477951D01*
X16002180Y14325600D01*
Y14477951D01*
X15951398Y14325600D02*
Y14477951D01*
X15849831Y14325600D01*
Y14477951D01*
X15697479D02*
X15799046D01*
Y14325600D01*
X15697479D01*
X15799046Y14401775D02*
X15748264D01*
X15646696Y14477951D02*
Y14325600D01*
X15545128D01*
X15341994D02*
X15291211D01*
X15316602D01*
Y14477951D01*
X15341994Y14452559D01*
X15215034D02*
X15189642Y14477951D01*
X15138860D01*
X15113467Y14452559D01*
Y14427167D01*
X15138860Y14401775D01*
X15113467Y14376382D01*
Y14350992D01*
X15138860Y14325600D01*
X15189642D01*
X15215034Y14350992D01*
Y14376382D01*
X15189642Y14401775D01*
X15215034Y14427167D01*
Y14452559D01*
X15189642Y14401775D02*
X15138860D01*
X15963933Y14731960D02*
X15989325Y14757352D01*
X16040108D01*
X16065500Y14731960D01*
Y14630392D01*
X16040108Y14605000D01*
X15989325D01*
X15963933Y14630392D01*
X15913148Y14757352D02*
Y14605000D01*
Y14681175D01*
X15811581D01*
Y14757352D01*
Y14605000D01*
X15760799D02*
Y14706567D01*
X15710014Y14757352D01*
X15659232Y14706567D01*
Y14605000D01*
Y14681175D01*
X15760799D01*
X15608447Y14605000D02*
Y14757352D01*
X15506882Y14605000D01*
Y14757352D01*
X15456097Y14605000D02*
Y14757352D01*
X15354530Y14605000D01*
Y14757352D01*
X15202179D02*
X15303746D01*
Y14605000D01*
X15202179D01*
X15303746Y14681175D02*
X15252963D01*
X15151396Y14757352D02*
Y14605000D01*
X15049828D01*
X14846693D02*
X14795911D01*
X14821301D01*
Y14757352D01*
X14846693Y14731960D01*
X14719736Y14757352D02*
X14618169D01*
Y14731960D01*
X14719736Y14630392D01*
Y14605000D01*
X15735333Y15024059D02*
X15760725Y15049451D01*
X15811508D01*
X15836900Y15024059D01*
Y14922491D01*
X15811508Y14897099D01*
X15760725D01*
X15735333Y14922491D01*
X15684549Y15049451D02*
Y14897099D01*
Y14973276D01*
X15582982D01*
Y15049451D01*
Y14897099D01*
X15532199D02*
Y14998666D01*
X15481415Y15049451D01*
X15430630Y14998666D01*
Y14897099D01*
Y14973276D01*
X15532199D01*
X15379848Y14897099D02*
Y15049451D01*
X15278281Y14897099D01*
Y15049451D01*
X15227496Y14897099D02*
Y15049451D01*
X15125929Y14897099D01*
Y15049451D01*
X14973579D02*
X15075146D01*
Y14897099D01*
X14973579D01*
X15075146Y14973276D02*
X15024364D01*
X14922797Y15049451D02*
Y14897099D01*
X14821228D01*
X14618094D02*
X14567311D01*
X14592702D01*
Y15049451D01*
X14618094Y15024059D01*
X14389568Y15049451D02*
X14440352Y15024059D01*
X14491135Y14973276D01*
Y14922491D01*
X14465742Y14897099D01*
X14414960D01*
X14389568Y14922491D01*
Y14947884D01*
X14414960Y14973276D01*
X14491135D01*
X15430533Y15532059D02*
X15455925Y15557451D01*
X15506708D01*
X15532100Y15532059D01*
Y15430492D01*
X15506708Y15405099D01*
X15455925D01*
X15430533Y15430492D01*
X15379749Y15557451D02*
Y15405099D01*
Y15481274D01*
X15278181D01*
Y15557451D01*
Y15405099D01*
X15227399D02*
Y15506667D01*
X15176614Y15557451D01*
X15125832Y15506667D01*
Y15405099D01*
Y15481274D01*
X15227399D01*
X15075047Y15405099D02*
Y15557451D01*
X14973482Y15405099D01*
Y15557451D01*
X14922697Y15405099D02*
Y15557451D01*
X14821130Y15405099D01*
Y15557451D01*
X14668779D02*
X14770346D01*
Y15405099D01*
X14668779D01*
X14770346Y15481274D02*
X14719563D01*
X14617996Y15557451D02*
Y15405099D01*
X14516428D01*
X14313293D02*
X14262511D01*
X14287901D01*
Y15557451D01*
X14313293Y15532059D01*
X14084769Y15557451D02*
X14186336D01*
Y15481274D01*
X14135551Y15506667D01*
X14110159D01*
X14084769Y15481274D01*
Y15430492D01*
X14110159Y15405099D01*
X14160944D01*
X14186336Y15430492D01*
X13220734Y16586159D02*
X13246124Y16611551D01*
X13296909D01*
X13322301Y16586159D01*
Y16484592D01*
X13296909Y16459200D01*
X13246124D01*
X13220734Y16484592D01*
X13169949Y16611551D02*
Y16459200D01*
Y16535374D01*
X13068382D01*
Y16611551D01*
Y16459200D01*
X13017599D02*
Y16560767D01*
X12966815Y16611551D01*
X12916031Y16560767D01*
Y16459200D01*
Y16535374D01*
X13017599D01*
X12865248Y16459200D02*
Y16611551D01*
X12763681Y16459200D01*
Y16611551D01*
X12712897Y16459200D02*
Y16611551D01*
X12611330Y16459200D01*
Y16611551D01*
X12458979D02*
X12560546D01*
Y16459200D01*
X12458979D01*
X12560546Y16535374D02*
X12509763D01*
X12408196Y16611551D02*
Y16459200D01*
X12306628D01*
X12103494D02*
X12052711D01*
X12078102D01*
Y16611551D01*
X12103494Y16586159D01*
X11900360Y16459200D02*
Y16611551D01*
X11976535Y16535374D01*
X11874968D01*
X13233434Y20726360D02*
X13258826Y20751752D01*
X13309608D01*
X13335001Y20726360D01*
Y20624792D01*
X13309608Y20599400D01*
X13258826D01*
X13233434Y20624792D01*
X13182649Y20751752D02*
Y20599400D01*
Y20675575D01*
X13081082D01*
Y20751752D01*
Y20599400D01*
X13030299D02*
Y20700967D01*
X12979515Y20751752D01*
X12928731Y20700967D01*
Y20599400D01*
Y20675575D01*
X13030299D01*
X12877948Y20599400D02*
Y20751752D01*
X12776381Y20599400D01*
Y20751752D01*
X12725597Y20599400D02*
Y20751752D01*
X12624030Y20599400D01*
Y20751752D01*
X12471679D02*
X12573246D01*
Y20599400D01*
X12471679D01*
X12573246Y20675575D02*
X12522463D01*
X12420896Y20751752D02*
Y20599400D01*
X12319328D01*
X12116194D02*
X12065411D01*
X12090802D01*
Y20751752D01*
X12116194Y20726360D01*
X11887668Y20599400D02*
X11989235D01*
X11887668Y20700967D01*
Y20726360D01*
X11913060Y20751752D01*
X11963843D01*
X11989235Y20726360D01*
X11633750Y20599400D02*
X11684534Y20650183D01*
Y20700967D01*
X11633750Y20751752D01*
X11557575D02*
X11456008D01*
X11506792D01*
Y20599400D01*
X11405224D02*
X11354441Y20650183D01*
Y20700967D01*
X11405224Y20751752D01*
X16484633Y18084760D02*
X16510025Y18110152D01*
X16560808D01*
X16586200Y18084760D01*
Y17983192D01*
X16560808Y17957800D01*
X16510025D01*
X16484633Y17983192D01*
X16433849Y18110152D02*
Y17957800D01*
Y18033975D01*
X16332281D01*
Y18110152D01*
Y17957800D01*
X16281499D02*
Y18059367D01*
X16230714Y18110152D01*
X16179932Y18059367D01*
Y17957800D01*
Y18033975D01*
X16281499D01*
X16129147Y17957800D02*
Y18110152D01*
X16027580Y17957800D01*
Y18110152D01*
X15976797Y17957800D02*
Y18110152D01*
X15875230Y17957800D01*
Y18110152D01*
X15722879D02*
X15824446D01*
Y17957800D01*
X15722879D01*
X15824446Y18033975D02*
X15773663D01*
X15672096Y18110152D02*
Y17957800D01*
X15570528D01*
X15367393D02*
X15316611D01*
X15342001D01*
Y18110152D01*
X15367393Y18084760D01*
X15240434Y17957800D02*
X15189651D01*
X15215044D01*
Y18110152D01*
X15240434Y18084760D01*
X17195833Y16535359D02*
X17221225Y16560751D01*
X17272008D01*
X17297400Y16535359D01*
Y16433792D01*
X17272008Y16408400D01*
X17221225D01*
X17195833Y16433792D01*
X17145049Y16560751D02*
Y16408400D01*
Y16484575D01*
X17043481D01*
Y16560751D01*
Y16408400D01*
X16992699D02*
Y16509967D01*
X16941914Y16560751D01*
X16891132Y16509967D01*
Y16408400D01*
Y16484575D01*
X16992699D01*
X16840347Y16408400D02*
Y16560751D01*
X16738782Y16408400D01*
Y16560751D01*
X16687997Y16408400D02*
Y16560751D01*
X16586430Y16408400D01*
Y16560751D01*
X16434079D02*
X16535646D01*
Y16408400D01*
X16434079D01*
X16535646Y16484575D02*
X16484863D01*
X16383296Y16560751D02*
Y16408400D01*
X16281728D01*
X16078593D02*
X16027811D01*
X16053201D01*
Y16560751D01*
X16078593Y16535359D01*
X15951636D02*
X15926244Y16560751D01*
X15875459D01*
X15850069Y16535359D01*
Y16509967D01*
X15875459Y16484575D01*
X15900851D01*
X15875459D01*
X15850069Y16459183D01*
Y16433792D01*
X15875459Y16408400D01*
X15926244D01*
X15951636Y16433792D01*
X16601349Y9397975D02*
X16652133D01*
X16626741D01*
Y9271017D01*
X16652133Y9245625D01*
X16677524D01*
X16702916Y9271017D01*
X16550566Y9245625D02*
X16499782D01*
X16525174D01*
Y9397975D01*
X16550566Y9372583D01*
X16423607Y9271017D02*
X16398215Y9245625D01*
X16347430D01*
X16322038Y9271017D01*
Y9372583D01*
X16347430Y9397975D01*
X16398215D01*
X16423607Y9372583D01*
Y9347192D01*
X16398215Y9321800D01*
X16322038D01*
X17025620Y12946330D02*
X16924052D01*
X16974837D01*
Y12793980D01*
X16873270Y12920940D02*
X16847878Y12946330D01*
X16797095D01*
X16771703Y12920940D01*
Y12895547D01*
X16797095Y12870155D01*
X16771703Y12844763D01*
Y12819373D01*
X16797095Y12793980D01*
X16847878D01*
X16873270Y12819373D01*
Y12844763D01*
X16847878Y12870155D01*
X16873270Y12895547D01*
Y12920940D01*
X16847878Y12870155D02*
X16797095D01*
X20566380Y9913669D02*
X20667947D01*
X20617163D01*
Y10066020D01*
X20718732D02*
X20769514D01*
X20744122D01*
Y9913669D01*
X20718732Y9939061D01*
X20845689D02*
X20871082Y9913669D01*
X20921864D01*
X20947256Y9939061D01*
Y10040628D01*
X20921864Y10066020D01*
X20871082D01*
X20845689Y10040628D01*
Y9939061D01*
X18630891Y9397975D02*
X18681676D01*
X18656284D01*
Y9271017D01*
X18681676Y9245625D01*
X18707066D01*
X18732458Y9271017D01*
X18580109Y9372583D02*
X18554716Y9397975D01*
X18503934D01*
X18478542Y9372583D01*
Y9347192D01*
X18503934Y9321800D01*
X18478542Y9296408D01*
Y9271017D01*
X18503934Y9245625D01*
X18554716D01*
X18580109Y9271017D01*
Y9296408D01*
X18554716Y9321800D01*
X18580109Y9347192D01*
Y9372583D01*
X18554716Y9321800D02*
X18503934D01*
X17462492Y21501076D02*
X17513275D01*
X17487883D01*
Y21374117D01*
X17513275Y21348724D01*
X17538667D01*
X17564059Y21374117D01*
X17411708Y21475684D02*
X17386316Y21501076D01*
X17335533D01*
X17310141Y21475684D01*
Y21450291D01*
X17335533Y21424899D01*
X17360925D01*
X17335533D01*
X17310141Y21399509D01*
Y21374117D01*
X17335533Y21348724D01*
X17386316D01*
X17411708Y21374117D01*
X15303471Y21501076D02*
X15354256D01*
X15328864D01*
Y21374117D01*
X15354256Y21348724D01*
X15379646D01*
X15405038Y21374117D01*
X15252689Y21348724D02*
X15201904D01*
X15227296D01*
Y21501076D01*
X15252689Y21475684D01*
X15024161Y21348724D02*
X15125729D01*
X15024161Y21450291D01*
Y21475684D01*
X15049553Y21501076D01*
X15100337D01*
X15125729Y21475684D01*
X14993620Y11930331D02*
X14892053D01*
X14942838D01*
Y11777980D01*
X14841269D02*
X14790486D01*
X14815877D01*
Y11930331D01*
X14841269Y11904939D01*
X14714310Y11803372D02*
X14688919Y11777980D01*
X14638135D01*
X14612743Y11803372D01*
Y11904939D01*
X14638135Y11930331D01*
X14688919D01*
X14714310Y11904939D01*
Y11879547D01*
X14688919Y11854155D01*
X14612743D01*
X5598160Y8745220D02*
Y8897571D01*
X5521985D01*
X5496593Y8872179D01*
Y8821395D01*
X5521985Y8796003D01*
X5598160D01*
X5547377D02*
X5496593Y8745220D01*
X5344242D02*
X5445809D01*
X5344242Y8846787D01*
Y8872179D01*
X5369634Y8897571D01*
X5420417D01*
X5445809Y8872179D01*
X5293459D02*
X5268067Y8897571D01*
X5217283D01*
X5191891Y8872179D01*
Y8770612D01*
X5217283Y8745220D01*
X5268067D01*
X5293459Y8770612D01*
Y8872179D01*
X5572760Y10015220D02*
Y10167571D01*
X5496585D01*
X5471193Y10142179D01*
Y10091395D01*
X5496585Y10066003D01*
X5572760D01*
X5521977D02*
X5471193Y10015220D01*
X5420409D02*
X5369626D01*
X5395017D01*
Y10167571D01*
X5420409Y10142179D01*
X5293450Y10040612D02*
X5268059Y10015220D01*
X5217275D01*
X5191883Y10040612D01*
Y10142179D01*
X5217275Y10167571D01*
X5268059D01*
X5293450Y10142179D01*
Y10116787D01*
X5268059Y10091395D01*
X5191883D01*
X5572760Y11285220D02*
Y11437571D01*
X5496585D01*
X5471193Y11412179D01*
Y11361395D01*
X5496585Y11336003D01*
X5572760D01*
X5521977D02*
X5471193Y11285220D01*
X5420409D02*
X5369626D01*
X5395017D01*
Y11437571D01*
X5420409Y11412179D01*
X5293450D02*
X5268059Y11437571D01*
X5217275D01*
X5191883Y11412179D01*
Y11386787D01*
X5217275Y11361395D01*
X5191883Y11336003D01*
Y11310612D01*
X5217275Y11285220D01*
X5268059D01*
X5293450Y11310612D01*
Y11336003D01*
X5268059Y11361395D01*
X5293450Y11386787D01*
Y11412179D01*
X5268059Y11361395D02*
X5217275D01*
X5572760Y12555220D02*
Y12707571D01*
X5496585D01*
X5471193Y12682179D01*
Y12631395D01*
X5496585Y12606003D01*
X5572760D01*
X5521977D02*
X5471193Y12555220D01*
X5420409D02*
X5369626D01*
X5395017D01*
Y12707571D01*
X5420409Y12682179D01*
X5293450Y12707571D02*
X5191883D01*
Y12682179D01*
X5293450Y12580612D01*
Y12555220D01*
X5572760Y13825220D02*
Y13977571D01*
X5496585D01*
X5471193Y13952179D01*
Y13901395D01*
X5496585Y13876003D01*
X5572760D01*
X5521977D02*
X5471193Y13825220D01*
X5420409D02*
X5369626D01*
X5395017D01*
Y13977571D01*
X5420409Y13952179D01*
X5191883Y13977571D02*
X5242667Y13952179D01*
X5293450Y13901395D01*
Y13850612D01*
X5268059Y13825220D01*
X5217275D01*
X5191883Y13850612D01*
Y13876003D01*
X5217275Y13901395D01*
X5293450D01*
X5572760Y15095219D02*
Y15247571D01*
X5496585D01*
X5471193Y15222179D01*
Y15171394D01*
X5496585Y15146004D01*
X5572760D01*
X5521977D02*
X5471193Y15095219D01*
X5420409D02*
X5369626D01*
X5395017D01*
Y15247571D01*
X5420409Y15222179D01*
X5191883Y15247571D02*
X5293450D01*
Y15171394D01*
X5242667Y15196786D01*
X5217275D01*
X5191883Y15171394D01*
Y15120612D01*
X5217275Y15095219D01*
X5268059D01*
X5293450Y15120612D01*
X5572760Y16365221D02*
Y16517570D01*
X5496585D01*
X5471193Y16492178D01*
Y16441396D01*
X5496585Y16416003D01*
X5572760D01*
X5521977D02*
X5471193Y16365221D01*
X5420409D02*
X5369626D01*
X5395017D01*
Y16517570D01*
X5420409Y16492178D01*
X5217275Y16365221D02*
Y16517570D01*
X5293450Y16441396D01*
X5191883D01*
X5572760Y17635220D02*
Y17787572D01*
X5496585D01*
X5471193Y17762180D01*
Y17711395D01*
X5496585Y17686003D01*
X5572760D01*
X5521977D02*
X5471193Y17635220D01*
X5420409D02*
X5369626D01*
X5395017D01*
Y17787572D01*
X5420409Y17762180D01*
X5293450D02*
X5268059Y17787572D01*
X5217275D01*
X5191883Y17762180D01*
Y17736787D01*
X5217275Y17711395D01*
X5242667D01*
X5217275D01*
X5191883Y17686003D01*
Y17660612D01*
X5217275Y17635220D01*
X5268059D01*
X5293450Y17660612D01*
X5572760Y18905220D02*
Y19057571D01*
X5496585D01*
X5471193Y19032179D01*
Y18981395D01*
X5496585Y18956003D01*
X5572760D01*
X5521977D02*
X5471193Y18905220D01*
X5420409D02*
X5369626D01*
X5395017D01*
Y19057571D01*
X5420409Y19032179D01*
X5191883Y18905220D02*
X5293450D01*
X5191883Y19006787D01*
Y19032179D01*
X5217275Y19057571D01*
X5268059D01*
X5293450Y19032179D01*
X5521960Y20175220D02*
Y20327571D01*
X5445785D01*
X5420393Y20302179D01*
Y20251395D01*
X5445785Y20226003D01*
X5521960D01*
X5471177D02*
X5420393Y20175220D01*
X5369609D02*
X5318826D01*
X5344217D01*
Y20327571D01*
X5369609Y20302179D01*
X5242650Y20175220D02*
X5191867D01*
X5217259D01*
Y20327571D01*
X5242650Y20302179D01*
X5549867Y8280383D02*
X5575259Y8305775D01*
X5626042D01*
X5651434Y8280383D01*
Y8178817D01*
X5626042Y8153425D01*
X5575259D01*
X5549867Y8178817D01*
X5397516Y8153425D02*
X5499083D01*
X5397516Y8254992D01*
Y8280383D01*
X5422908Y8305775D01*
X5473692D01*
X5499083Y8280383D01*
X5346733D02*
X5321341Y8305775D01*
X5270557D01*
X5245166Y8280383D01*
Y8178817D01*
X5270557Y8153425D01*
X5321341D01*
X5346733Y8178817D01*
Y8280383D01*
X5575271Y9537683D02*
X5600663Y9563075D01*
X5651446D01*
X5676838Y9537683D01*
Y9436117D01*
X5651446Y9410725D01*
X5600663D01*
X5575271Y9436117D01*
X5524488Y9410725D02*
X5473704D01*
X5499096D01*
Y9563075D01*
X5524488Y9537683D01*
X5397529Y9436117D02*
X5372137Y9410725D01*
X5321353D01*
X5295961Y9436117D01*
Y9537683D01*
X5321353Y9563075D01*
X5372137D01*
X5397529Y9537683D01*
Y9512292D01*
X5372137Y9486900D01*
X5295961D01*
X5575271Y10807683D02*
X5600663Y10833075D01*
X5651446D01*
X5676838Y10807683D01*
Y10706117D01*
X5651446Y10680725D01*
X5600663D01*
X5575271Y10706117D01*
X5524488Y10680725D02*
X5473704D01*
X5499096D01*
Y10833075D01*
X5524488Y10807683D01*
X5397529D02*
X5372137Y10833075D01*
X5321353D01*
X5295961Y10807683D01*
Y10782292D01*
X5321353Y10756900D01*
X5295961Y10731508D01*
Y10706117D01*
X5321353Y10680725D01*
X5372137D01*
X5397529Y10706117D01*
Y10731508D01*
X5372137Y10756900D01*
X5397529Y10782292D01*
Y10807683D01*
X5372137Y10756900D02*
X5321353D01*
X5575271Y12077683D02*
X5600663Y12103075D01*
X5651446D01*
X5676838Y12077683D01*
Y11976117D01*
X5651446Y11950725D01*
X5600663D01*
X5575271Y11976117D01*
X5524488Y11950725D02*
X5473704D01*
X5499096D01*
Y12103075D01*
X5524488Y12077683D01*
X5397529Y12103075D02*
X5295961D01*
Y12077683D01*
X5397529Y11976117D01*
Y11950725D01*
X5359371Y13500082D02*
X5384763Y13525475D01*
X5435546D01*
X5460938Y13500082D01*
Y13398517D01*
X5435546Y13373125D01*
X5384763D01*
X5359371Y13398517D01*
X5308588Y13373125D02*
X5257804D01*
X5283196D01*
Y13525475D01*
X5308588Y13500082D01*
X5080061Y13525475D02*
X5130845Y13500082D01*
X5181629Y13449300D01*
Y13398517D01*
X5156237Y13373125D01*
X5105453D01*
X5080061Y13398517D01*
Y13423907D01*
X5105453Y13449300D01*
X5181629D01*
X5575271Y14617683D02*
X5600663Y14643076D01*
X5651446D01*
X5676838Y14617683D01*
Y14516116D01*
X5651446Y14490726D01*
X5600663D01*
X5575271Y14516116D01*
X5524488Y14490726D02*
X5473704D01*
X5499096D01*
Y14643076D01*
X5524488Y14617683D01*
X5295961Y14643076D02*
X5397529D01*
Y14566901D01*
X5346745Y14592291D01*
X5321353D01*
X5295961Y14566901D01*
Y14516116D01*
X5321353Y14490726D01*
X5372137D01*
X5397529Y14516116D01*
X5575271Y15887683D02*
X5600663Y15913075D01*
X5651446D01*
X5676838Y15887683D01*
Y15786118D01*
X5651446Y15760725D01*
X5600663D01*
X5575271Y15786118D01*
X5524488Y15760725D02*
X5473704D01*
X5499096D01*
Y15913075D01*
X5524488Y15887683D01*
X5321353Y15760725D02*
Y15913075D01*
X5397529Y15836900D01*
X5295961D01*
X5575271Y17157683D02*
X5600663Y17183075D01*
X5651446D01*
X5676838Y17157683D01*
Y17056117D01*
X5651446Y17030725D01*
X5600663D01*
X5575271Y17056117D01*
X5524488Y17030725D02*
X5473704D01*
X5499096D01*
Y17183075D01*
X5524488Y17157683D01*
X5397529D02*
X5372137Y17183075D01*
X5321353D01*
X5295961Y17157683D01*
Y17132292D01*
X5321353Y17106900D01*
X5346745D01*
X5321353D01*
X5295961Y17081508D01*
Y17056117D01*
X5321353Y17030725D01*
X5372137D01*
X5397529Y17056117D01*
X5575271Y18427682D02*
X5600663Y18453075D01*
X5651446D01*
X5676838Y18427682D01*
Y18326117D01*
X5651446Y18300725D01*
X5600663D01*
X5575271Y18326117D01*
X5524488Y18300725D02*
X5473704D01*
X5499096D01*
Y18453075D01*
X5524488Y18427682D01*
X5295961Y18300725D02*
X5397529D01*
X5295961Y18402292D01*
Y18427682D01*
X5321353Y18453075D01*
X5372137D01*
X5397529Y18427682D01*
X5549879Y19697684D02*
X5575271Y19723074D01*
X5626055D01*
X5651446Y19697684D01*
Y19596117D01*
X5626055Y19570724D01*
X5575271D01*
X5549879Y19596117D01*
X5499096Y19570724D02*
X5448312D01*
X5473704D01*
Y19723074D01*
X5499096Y19697684D01*
X5372137Y19570724D02*
X5321353D01*
X5346745D01*
Y19723074D01*
X5372137Y19697684D01*
D52*
X16751300Y10655300D02*
Y12712700D01*
X18808701D01*
Y10655300D02*
Y12712700D01*
X16751300Y10655300D02*
X18808701D01*
X18910300Y10147300D02*
Y12204700D01*
X20967700D01*
Y10147300D02*
Y12204700D01*
X18910300Y10147300D02*
X20967700D01*
X14592300Y9639300D02*
Y11696700D01*
X16649699D01*
Y9639300D02*
Y11696700D01*
X14592300Y9639300D02*
X16649699D01*
D53*
X11540600Y7536300D02*
Y7551300D01*
X11395600Y7536300D02*
Y7551300D01*
X11540600Y11346300D02*
Y11361300D01*
X11395600Y11346300D02*
Y11361300D01*
X11540600Y22776300D02*
Y22791299D01*
X11395600Y22776300D02*
Y22791299D01*
X11540600Y18966299D02*
Y18981300D01*
X11395600Y18966299D02*
Y18981300D01*
X11540600Y15156300D02*
Y15171300D01*
X11395600Y15156300D02*
Y15171300D01*
X12335400Y7053700D02*
Y7068700D01*
X12480400Y7053700D02*
Y7068700D01*
X12335400Y10863700D02*
Y10878700D01*
X12480400Y10863700D02*
Y10878700D01*
X12335400Y22293700D02*
Y22308701D01*
X12480400Y22293700D02*
Y22308701D01*
X12335400Y18483701D02*
Y18498700D01*
X12480400Y18483701D02*
Y18498700D01*
X12335400Y14673700D02*
Y14688699D01*
X12480400Y14673700D02*
Y14688699D01*
X12095600Y6772800D02*
X12110600D01*
X12095600Y6917800D02*
X12110600D01*
X12095600Y10582800D02*
X12110600D01*
X12095600Y10727800D02*
X12110600D01*
X12095600Y22012801D02*
X12110600D01*
X12095600Y22157800D02*
X12110600D01*
X12095600Y18202800D02*
X12110600D01*
X12095600Y18347800D02*
X12110600D01*
X12095600Y14392799D02*
X12110600D01*
X12095600Y14537801D02*
X12110600D01*
X12296300Y7570200D02*
X12316300D01*
X12296300Y7695200D02*
X12316300D01*
X12296300Y11380200D02*
X12316300D01*
X12296300Y11505200D02*
X12316300D01*
X12296300Y22810201D02*
X12316300D01*
X12296300Y22935201D02*
X12316300D01*
X12296300Y19000200D02*
X12316300D01*
X12296300Y19125200D02*
X12316300D01*
X12296300Y15190199D02*
X12316300D01*
X12296300Y15315199D02*
X12316300D01*
X11102500Y7074900D02*
X11122500D01*
X11102500Y7199900D02*
X11122500D01*
X11102500Y10884900D02*
X11122500D01*
X11102500Y11009900D02*
X11122500D01*
X11102500Y22314900D02*
X11122500D01*
X11102500Y22439900D02*
X11122500D01*
X11102500Y18504900D02*
X11122500D01*
X11102500Y18629900D02*
X11122500D01*
X11102500Y14694901D02*
X11122500D01*
X11102500Y14819901D02*
X11122500D01*
X11405600Y7038500D02*
Y7058500D01*
X11530600Y7038500D02*
Y7058500D01*
X11405600Y10848500D02*
Y10868500D01*
X11530600Y10848500D02*
Y10868500D01*
X11405600Y22278500D02*
Y22298500D01*
X11530600Y22278500D02*
Y22298500D01*
X11405600Y18468500D02*
Y18488499D01*
X11530600Y18468500D02*
Y18488499D01*
X11405600Y14658501D02*
Y14678500D01*
X11530600Y14658501D02*
Y14678500D01*
X11630500Y6989000D02*
X11850500D01*
X11818000D02*
X12058000D01*
X11825500Y7486500D02*
X12050500D01*
X11630500Y10799000D02*
X11850500D01*
X11818000D02*
X12058000D01*
X11825500Y11296500D02*
X12050500D01*
X11630500Y22228999D02*
X11850500D01*
X11818000D02*
X12058000D01*
X11825500Y22726500D02*
X12050500D01*
X11630500Y18419000D02*
X11850500D01*
X11818000D02*
X12058000D01*
X11825500Y18916499D02*
X12050500D01*
X11630500Y14609000D02*
X11850500D01*
X11818000D02*
X12058000D01*
X11825500Y15106500D02*
X12050500D01*
X10518300Y13920200D02*
X10538300D01*
X10518300Y14045200D02*
X10538300D01*
X9324500Y21044901D02*
X9344500D01*
X9324500Y21169901D02*
X9344500D01*
X9324500Y17234900D02*
X9344500D01*
X9324500Y17359900D02*
X9344500D01*
X9324500Y5804900D02*
X9344500D01*
X9324500Y5929900D02*
X9344500D01*
X9324500Y9614900D02*
X9344500D01*
X9324500Y9739900D02*
X9344500D01*
X9627600Y5768500D02*
Y5788500D01*
X9752600Y5768500D02*
Y5788500D01*
X9627600Y9578500D02*
Y9598500D01*
X9752600Y9578500D02*
Y9598500D01*
X9627600Y21008501D02*
Y21028500D01*
X9752600Y21008501D02*
Y21028500D01*
X9627600Y17198500D02*
Y17218500D01*
X9752600Y17198500D02*
Y17218500D01*
X10317600Y5502800D02*
X10332600D01*
X10317600Y5647800D02*
X10332600D01*
X10317600Y9312800D02*
X10332600D01*
X10317600Y9457800D02*
X10332600D01*
X10317600Y20742799D02*
X10332600D01*
X10317600Y20887801D02*
X10332600D01*
X10317600Y16932800D02*
X10332600D01*
X10317600Y17077800D02*
X10332600D01*
X10557400Y21023700D02*
Y21038699D01*
X10702400Y21023700D02*
Y21038699D01*
X10557400Y5783700D02*
Y5798700D01*
X10702400Y5783700D02*
Y5798700D01*
X10557400Y9593700D02*
Y9608700D01*
X10702400Y9593700D02*
Y9608700D01*
X10557400Y17213699D02*
Y17228700D01*
X10702400Y17213699D02*
Y17228700D01*
X10518300Y6300200D02*
X10538300D01*
X10518300Y6425200D02*
X10538300D01*
X10518300Y10110200D02*
X10538300D01*
X10518300Y10235200D02*
X10538300D01*
X10518300Y21540199D02*
X10538300D01*
X10518300Y21665199D02*
X10538300D01*
X10518300Y17730200D02*
X10538300D01*
X10518300Y17855200D02*
X10538300D01*
X9852500Y5719000D02*
X10072500D01*
X10040000D02*
X10280000D01*
X10047500Y6216500D02*
X10272500D01*
X9852500Y9529000D02*
X10072500D01*
X10040000D02*
X10280000D01*
X10047500Y10026500D02*
X10272500D01*
X9852500Y20959000D02*
X10072500D01*
X10040000D02*
X10280000D01*
X10047500Y21456500D02*
X10272500D01*
X9852500Y17149001D02*
X10072500D01*
X10040000D02*
X10280000D01*
X10047500Y17646500D02*
X10272500D01*
X9762600Y6266300D02*
Y6281300D01*
X9617600Y6266300D02*
Y6281300D01*
X9762600Y10076300D02*
Y10091300D01*
X9617600Y10076300D02*
Y10091300D01*
X9762600Y21506300D02*
Y21521300D01*
X9617600Y21506300D02*
Y21521300D01*
X9762600Y17696300D02*
Y17711301D01*
X9617600Y17696300D02*
Y17711301D01*
X10557400Y13403700D02*
Y13418700D01*
X10702400Y13403700D02*
Y13418700D01*
X9762600Y13886301D02*
Y13901300D01*
X9617600Y13886301D02*
Y13901300D01*
X10317600Y13122800D02*
X10332600D01*
X10317600Y13267799D02*
X10332600D01*
X9852500Y13339000D02*
X10072500D01*
X10040000D02*
X10280000D01*
X10047500Y13836501D02*
X10272500D01*
X9324500Y13424899D02*
X9344500D01*
X9324500Y13549899D02*
X9344500D01*
X9627600Y13388499D02*
Y13408501D01*
X9752600Y13388499D02*
Y13408501D01*
X5324000Y8630000D02*
X5344000D01*
X5324000Y8515000D02*
X5344000D01*
X5324000Y12440000D02*
X5344000D01*
X5324000Y12325000D02*
X5344000D01*
X5324000Y14980000D02*
X5344000D01*
X5324000Y14864999D02*
X5344000D01*
X5324000Y11170000D02*
X5344000D01*
X5324000Y11055000D02*
X5344000D01*
X5324000Y9900000D02*
X5344000D01*
X5324000Y9785000D02*
X5344000D01*
X5324000Y16250000D02*
X5344000D01*
X5324000Y16135001D02*
X5344000D01*
X5324000Y13710001D02*
X5344000D01*
X5324000Y13595000D02*
X5344000D01*
X5324000Y17520000D02*
X5344000D01*
X5324000Y17405000D02*
X5344000D01*
X5324000Y20060001D02*
X5344000D01*
X5324000Y19945000D02*
X5344000D01*
X5324000Y18789999D02*
X5344000D01*
X5324000Y18675000D02*
X5344000D01*
D54*
X12733020Y8518291D02*
Y8653714D01*
X12665309Y8721426D01*
X12597597Y8653714D01*
Y8518291D01*
Y8619859D01*
X12733020D01*
X12529886Y8518291D02*
Y8653714D01*
X12496030D01*
X12462174Y8619859D01*
Y8518291D01*
Y8619859D01*
X12428319Y8653714D01*
X12394463Y8619859D01*
Y8518291D01*
X12326752Y8450580D02*
Y8653714D01*
X12225184D01*
X12191329Y8619859D01*
Y8552147D01*
X12225184Y8518291D01*
X12326752D01*
X11920483D02*
X11852772D01*
X11886627D01*
Y8721426D01*
X11920483Y8687570D01*
X11751205Y8552147D02*
X11717349Y8518291D01*
X11649637D01*
X11615782Y8552147D01*
Y8687570D01*
X11649637Y8721426D01*
X11717349D01*
X11751205Y8687570D01*
Y8653714D01*
X11717349Y8619859D01*
X11615782D01*
X9659620Y7222891D02*
Y7358314D01*
X9591909Y7426026D01*
X9524197Y7358314D01*
Y7222891D01*
Y7324459D01*
X9659620D01*
X9456486Y7222891D02*
Y7358314D01*
X9422630D01*
X9388774Y7324459D01*
Y7222891D01*
Y7324459D01*
X9354919Y7358314D01*
X9321063Y7324459D01*
Y7222891D01*
X9253352Y7155180D02*
Y7358314D01*
X9151784D01*
X9117929Y7324459D01*
Y7256747D01*
X9151784Y7222891D01*
X9253352D01*
X8711660D02*
X8847083D01*
X8711660Y7358314D01*
Y7392170D01*
X8745516Y7426026D01*
X8813227D01*
X8847083Y7392170D01*
X8643949D02*
X8610093Y7426026D01*
X8542382D01*
X8508526Y7392170D01*
Y7256747D01*
X8542382Y7222891D01*
X8610093D01*
X8643949Y7256747D01*
Y7392170D01*
X12669520Y11883791D02*
Y12019214D01*
X12601809Y12086926D01*
X12534097Y12019214D01*
Y11883791D01*
Y11985359D01*
X12669520D01*
X12466386Y11883791D02*
Y12019214D01*
X12432530D01*
X12398674Y11985359D01*
Y11883791D01*
Y11985359D01*
X12364819Y12019214D01*
X12330963Y11985359D01*
Y11883791D01*
X12263252Y11816080D02*
Y12019214D01*
X12161684D01*
X12127829Y11985359D01*
Y11917647D01*
X12161684Y11883791D01*
X12263252D01*
X11856983D02*
X11789272D01*
X11823127D01*
Y12086926D01*
X11856983Y12053070D01*
X11687705Y12086926D02*
X11552282D01*
Y12053070D01*
X11687705Y11917647D01*
Y11883791D01*
X9685020Y11020191D02*
Y11155614D01*
X9617309Y11223326D01*
X9549597Y11155614D01*
Y11020191D01*
Y11121759D01*
X9685020D01*
X9481886Y11020191D02*
Y11155614D01*
X9448030D01*
X9414174Y11121759D01*
Y11020191D01*
Y11121759D01*
X9380319Y11155614D01*
X9346463Y11121759D01*
Y11020191D01*
X9278752Y10952480D02*
Y11155614D01*
X9177184D01*
X9143329Y11121759D01*
Y11054047D01*
X9177184Y11020191D01*
X9278752D01*
X8872483D02*
X8804772D01*
X8838627D01*
Y11223326D01*
X8872483Y11189470D01*
X8703205D02*
X8669349Y11223326D01*
X8601637D01*
X8567782Y11189470D01*
Y11155614D01*
X8601637Y11121759D01*
X8567782Y11087903D01*
Y11054047D01*
X8601637Y11020191D01*
X8669349D01*
X8703205Y11054047D01*
Y11087903D01*
X8669349Y11121759D01*
X8703205Y11155614D01*
Y11189470D01*
X8669349Y11121759D02*
X8601637D01*
X12606020Y15719191D02*
Y15854614D01*
X12538309Y15922327D01*
X12470597Y15854614D01*
Y15719191D01*
Y15820760D01*
X12606020D01*
X12402886Y15719191D02*
Y15854614D01*
X12369030D01*
X12335174Y15820760D01*
Y15719191D01*
Y15820760D01*
X12301319Y15854614D01*
X12267463Y15820760D01*
Y15719191D01*
X12199752Y15651480D02*
Y15854614D01*
X12098184D01*
X12064329Y15820760D01*
Y15753047D01*
X12098184Y15719191D01*
X12199752D01*
X11793483D02*
X11725772D01*
X11759627D01*
Y15922327D01*
X11793483Y15888470D01*
X11488782Y15922327D02*
X11624205D01*
Y15820760D01*
X11556493Y15854614D01*
X11522637D01*
X11488782Y15820760D01*
Y15753047D01*
X11522637Y15719191D01*
X11590349D01*
X11624205Y15753047D01*
X9685020Y14842891D02*
Y14978314D01*
X9617309Y15046027D01*
X9549597Y14978314D01*
Y14842891D01*
Y14944460D01*
X9685020D01*
X9481886Y14842891D02*
Y14978314D01*
X9448030D01*
X9414174Y14944460D01*
Y14842891D01*
Y14944460D01*
X9380319Y14978314D01*
X9346463Y14944460D01*
Y14842891D01*
X9278752Y14775180D02*
Y14978314D01*
X9177184D01*
X9143329Y14944460D01*
Y14876747D01*
X9177184Y14842891D01*
X9278752D01*
X8872483D02*
X8804772D01*
X8838627D01*
Y15046027D01*
X8872483Y15012170D01*
X8567782Y15046027D02*
X8635493Y15012170D01*
X8703205Y14944460D01*
Y14876747D01*
X8669349Y14842891D01*
X8601637D01*
X8567782Y14876747D01*
Y14910603D01*
X8601637Y14944460D01*
X8703205D01*
X13101320Y20024490D02*
Y20159914D01*
X13033609Y20227626D01*
X12965897Y20159914D01*
Y20024490D01*
Y20126059D01*
X13101320D01*
X12898186Y20024490D02*
Y20159914D01*
X12864330D01*
X12830473Y20126059D01*
Y20024490D01*
Y20126059D01*
X12796619Y20159914D01*
X12762763Y20126059D01*
Y20024490D01*
X12695052Y19956779D02*
Y20159914D01*
X12593484D01*
X12559629Y20126059D01*
Y20058347D01*
X12593484Y20024490D01*
X12695052D01*
X12288783D02*
X12221072D01*
X12254927D01*
Y20227626D01*
X12288783Y20193770D01*
X12119505D02*
X12085649Y20227626D01*
X12017937D01*
X11984082Y20193770D01*
Y20159914D01*
X12017937Y20126059D01*
X12051793D01*
X12017937D01*
X11984082Y20092203D01*
Y20058347D01*
X12017937Y20024490D01*
X12085649D01*
X12119505Y20058347D01*
X9685020Y18640192D02*
Y18775613D01*
X9617309Y18843326D01*
X9549597Y18775613D01*
Y18640192D01*
Y18741759D01*
X9685020D01*
X9481886Y18640192D02*
Y18775613D01*
X9448030D01*
X9414174Y18741759D01*
Y18640192D01*
Y18741759D01*
X9380319Y18775613D01*
X9346463Y18741759D01*
Y18640192D01*
X9278752Y18572479D02*
Y18775613D01*
X9177184D01*
X9143329Y18741759D01*
Y18674046D01*
X9177184Y18640192D01*
X9278752D01*
X8872483D02*
X8804772D01*
X8838627D01*
Y18843326D01*
X8872483Y18809470D01*
X8601637Y18640192D02*
Y18843326D01*
X8703205Y18741759D01*
X8567782D01*
X9685020Y22450191D02*
Y22585614D01*
X9617309Y22653326D01*
X9549597Y22585614D01*
Y22450191D01*
Y22551759D01*
X9685020D01*
X9481886Y22450191D02*
Y22585614D01*
X9448030D01*
X9414174Y22551759D01*
Y22450191D01*
Y22551759D01*
X9380319Y22585614D01*
X9346463Y22551759D01*
Y22450191D01*
X9278752Y22382480D02*
Y22585614D01*
X9177184D01*
X9143329Y22551759D01*
Y22484047D01*
X9177184Y22450191D01*
X9278752D01*
X8872483D02*
X8804772D01*
X8838627D01*
Y22653326D01*
X8872483Y22619470D01*
X8567782Y22450191D02*
X8703205D01*
X8567782Y22585614D01*
Y22619470D01*
X8601637Y22653326D01*
X8669349D01*
X8703205Y22619470D01*
X12517120Y23783691D02*
Y23919115D01*
X12449409Y23986826D01*
X12381697Y23919115D01*
Y23783691D01*
Y23885258D01*
X12517120D01*
X12313986Y23783691D02*
Y23919115D01*
X12280130D01*
X12246274Y23885258D01*
Y23783691D01*
Y23885258D01*
X12212419Y23919115D01*
X12178563Y23885258D01*
Y23783691D01*
X12110852Y23715981D02*
Y23919115D01*
X12009284D01*
X11975429Y23885258D01*
Y23817548D01*
X12009284Y23783691D01*
X12110852D01*
X11704583D02*
X11636872D01*
X11670727D01*
Y23986826D01*
X11704583Y23952969D01*
X11535305Y23783691D02*
X11467593D01*
X11501449D01*
Y23986826D01*
X11535305Y23952969D01*
X4563986Y7565759D02*
X4597841Y7599614D01*
X4665553D01*
X4699408Y7565759D01*
Y7531903D01*
X4665553Y7498047D01*
X4597841D01*
X4563986Y7464191D01*
Y7430336D01*
X4597841Y7396480D01*
X4665553D01*
X4699408Y7430336D01*
X4462419Y7396480D02*
X4394707D01*
X4360851Y7430336D01*
Y7498047D01*
X4394707Y7531903D01*
X4462419D01*
X4496274Y7498047D01*
Y7430336D01*
X4462419Y7396480D01*
X4293140Y7531903D02*
Y7430336D01*
X4259284Y7396480D01*
X4157717D01*
Y7531903D01*
X4090006D02*
Y7396480D01*
Y7464191D01*
X4056150Y7498047D01*
X4022294Y7531903D01*
X3988439D01*
X3751449D02*
X3853016D01*
X3886872Y7498047D01*
Y7430336D01*
X3853016Y7396480D01*
X3751449D01*
X3582170D02*
X3649882D01*
X3683737Y7430336D01*
Y7498047D01*
X3649882Y7531903D01*
X3582170D01*
X3548314Y7498047D01*
Y7464191D01*
X3683737D01*
X3480603Y7396480D02*
X3379036D01*
X3345180Y7430336D01*
X3379036Y7464191D01*
X3446747D01*
X3480603Y7498047D01*
X3446747Y7531903D01*
X3345180D01*
X4563986Y23008958D02*
X4597841Y23042815D01*
X4665553D01*
X4699408Y23008958D01*
Y22975104D01*
X4665553Y22941248D01*
X4597841D01*
X4563986Y22907391D01*
Y22873537D01*
X4597841Y22839680D01*
X4665553D01*
X4699408Y22873537D01*
X4462419Y22839680D02*
X4394707D01*
X4360851Y22873537D01*
Y22941248D01*
X4394707Y22975104D01*
X4462419D01*
X4496274Y22941248D01*
Y22873537D01*
X4462419Y22839680D01*
X4293140Y22975104D02*
Y22873537D01*
X4259284Y22839680D01*
X4157717D01*
Y22975104D01*
X4090006D02*
Y22839680D01*
Y22907391D01*
X4056150Y22941248D01*
X4022294Y22975104D01*
X3988439D01*
X3751449D02*
X3853016D01*
X3886872Y22941248D01*
Y22873537D01*
X3853016Y22839680D01*
X3751449D01*
X3582170D02*
X3649882D01*
X3683737Y22873537D01*
Y22941248D01*
X3649882Y22975104D01*
X3582170D01*
X3548314Y22941248D01*
Y22907391D01*
X3683737D01*
X3480603Y22839680D02*
X3379036D01*
X3345180Y22873537D01*
X3379036Y22907391D01*
X3446747D01*
X3480603Y22941248D01*
X3446747Y22975104D01*
X3345180D01*
X4236720Y24643047D02*
X4101297D01*
X4169009Y24710759D02*
Y24575336D01*
X3898163Y24744614D02*
X4033586D01*
Y24643047D01*
X3965874Y24676903D01*
X3932019D01*
X3898163Y24643047D01*
Y24575336D01*
X3932019Y24541479D01*
X3999730D01*
X4033586Y24575336D01*
X3830452Y24710759D02*
X3796596Y24744614D01*
X3728884D01*
X3695029Y24710759D01*
Y24575336D01*
X3728884Y24541479D01*
X3796596D01*
X3830452Y24575336D01*
Y24710759D01*
X3627317Y24744614D02*
Y24609190D01*
X3559606Y24541479D01*
X3491894Y24609190D01*
Y24744614D01*
X5015697Y24698059D02*
X5049553Y24731914D01*
X5117264D01*
X5151120Y24698059D01*
Y24562636D01*
X5117264Y24528780D01*
X5049553D01*
X5015697Y24562636D01*
Y24630347D01*
X5083409D01*
X4947986Y24528780D02*
Y24731914D01*
X4812563Y24528780D01*
Y24731914D01*
X4744852D02*
Y24528780D01*
X4643284D01*
X4609429Y24562636D01*
Y24698059D01*
X4643284Y24731914D01*
X4744852D01*
X4020820Y23614346D02*
X3885397D01*
X3953109Y23682059D02*
Y23546635D01*
X3682263Y23715913D02*
X3817686D01*
Y23614346D01*
X3749974Y23648203D01*
X3716119D01*
X3682263Y23614346D01*
Y23546635D01*
X3716119Y23512781D01*
X3783830D01*
X3817686Y23546635D01*
X3614552Y23715913D02*
Y23580492D01*
X3546840Y23512781D01*
X3479129Y23580492D01*
Y23715913D01*
X5138420Y23614346D02*
X5002997D01*
X4799863Y23715913D02*
X4935286D01*
Y23614346D01*
X4867574Y23648203D01*
X4833719D01*
X4799863Y23614346D01*
Y23546635D01*
X4833719Y23512781D01*
X4901430D01*
X4935286Y23546635D01*
X4732152Y23682059D02*
X4698296Y23715913D01*
X4630584D01*
X4596729Y23682059D01*
Y23546635D01*
X4630584Y23512781D01*
X4698296D01*
X4732152Y23546635D01*
Y23682059D01*
X4529017Y23715913D02*
Y23580492D01*
X4461306Y23512781D01*
X4393594Y23580492D01*
Y23715913D01*
X5138420Y5834347D02*
X5002997D01*
X4799863Y5935914D02*
X4935286D01*
Y5834347D01*
X4867574Y5868203D01*
X4833719D01*
X4799863Y5834347D01*
Y5766636D01*
X4833719Y5732780D01*
X4901430D01*
X4935286Y5766636D01*
X4732152Y5902059D02*
X4698296Y5935914D01*
X4630584D01*
X4596729Y5902059D01*
Y5766636D01*
X4630584Y5732780D01*
X4698296D01*
X4732152Y5766636D01*
Y5902059D01*
X4529017Y5935914D02*
Y5800491D01*
X4461306Y5732780D01*
X4393594Y5800491D01*
Y5935914D01*
X4020820Y5834347D02*
X3885397D01*
X3953109Y5902059D02*
Y5766636D01*
X3682263Y5935914D02*
X3817686D01*
Y5834347D01*
X3749974Y5868203D01*
X3716119D01*
X3682263Y5834347D01*
Y5766636D01*
X3716119Y5732780D01*
X3783830D01*
X3817686Y5766636D01*
X3614552Y5935914D02*
Y5800491D01*
X3546840Y5732780D01*
X3479129Y5800491D01*
Y5935914D01*
X5015697Y6918059D02*
X5049553Y6951914D01*
X5117264D01*
X5151120Y6918059D01*
Y6782636D01*
X5117264Y6748780D01*
X5049553D01*
X5015697Y6782636D01*
Y6850347D01*
X5083409D01*
X4947986Y6748780D02*
Y6951914D01*
X4812563Y6748780D01*
Y6951914D01*
X4744852D02*
Y6748780D01*
X4643284D01*
X4609429Y6782636D01*
Y6918059D01*
X4643284Y6951914D01*
X4744852D01*
X4236720Y6863047D02*
X4101297D01*
X4169009Y6930759D02*
Y6795336D01*
X3898163Y6964614D02*
X4033586D01*
Y6863047D01*
X3965874Y6896903D01*
X3932019D01*
X3898163Y6863047D01*
Y6795336D01*
X3932019Y6761480D01*
X3999730D01*
X4033586Y6795336D01*
X3830452Y6930759D02*
X3796596Y6964614D01*
X3728884D01*
X3695029Y6930759D01*
Y6795336D01*
X3728884Y6761480D01*
X3796596D01*
X3830452Y6795336D01*
Y6930759D01*
X3627317Y6964614D02*
Y6829191D01*
X3559606Y6761480D01*
X3491894Y6829191D01*
Y6964614D01*
D56*
X17749519Y11958320D02*
X17901871D01*
Y12034495D01*
X17876479Y12059887D01*
X17825694D01*
X17800304Y12034495D01*
Y11958320D01*
Y12009103D02*
X17749519Y12059887D01*
X17901871Y12212238D02*
Y12110671D01*
X17825694D01*
Y12161454D01*
Y12110671D01*
X17749519D01*
X17825694Y12263021D02*
Y12364589D01*
X17876479Y12313805D02*
X17774911D01*
X17901871Y12415372D02*
X17749519D01*
Y12491548D01*
X17774911Y12516939D01*
X17876479D01*
X17901871Y12491548D01*
Y12415372D01*
X17876479Y12669290D02*
X17901871Y12643898D01*
Y12593115D01*
X17876479Y12567723D01*
X17774911D01*
X17749519Y12593115D01*
Y12643898D01*
X17774911Y12669290D01*
X17749519Y10688320D02*
X17901871D01*
Y10764495D01*
X17876479Y10789887D01*
X17825694D01*
X17800304Y10764495D01*
Y10688320D01*
Y10739103D02*
X17749519Y10789887D01*
X17901871Y10942238D02*
Y10840671D01*
X17825694D01*
Y10891454D01*
Y10840671D01*
X17749519D01*
X17101772Y12059920D02*
X16949420D01*
Y12136095D01*
X16974812Y12161487D01*
X17076379D01*
X17101772Y12136095D01*
Y12059920D01*
X17076379Y12313838D02*
X17101772Y12288446D01*
Y12237663D01*
X17076379Y12212271D01*
X16974812D01*
X16949420Y12237663D01*
Y12288446D01*
X16974812Y12313838D01*
X19908521Y11450320D02*
X20060870D01*
Y11526495D01*
X20035480Y11551887D01*
X19984695D01*
X19959303Y11526495D01*
Y11450320D01*
Y11501103D02*
X19908521Y11551887D01*
X20060870Y11704238D02*
Y11602671D01*
X19984695D01*
Y11653454D01*
Y11602671D01*
X19908521D01*
X19984695Y11755021D02*
Y11856589D01*
X20035480Y11805805D02*
X19933913D01*
X20060870Y11907372D02*
X19908521D01*
Y11983548D01*
X19933913Y12008939D01*
X20035480D01*
X20060870Y11983548D01*
Y11907372D01*
X20035480Y12161290D02*
X20060870Y12135898D01*
Y12085115D01*
X20035480Y12059723D01*
X19933913D01*
X19908521Y12085115D01*
Y12135898D01*
X19933913Y12161290D01*
X19908521Y10180320D02*
X20060870D01*
Y10256495D01*
X20035480Y10281887D01*
X19984695D01*
X19959303Y10256495D01*
Y10180320D01*
Y10231103D02*
X19908521Y10281887D01*
X20060870Y10434238D02*
Y10332671D01*
X19984695D01*
Y10383454D01*
Y10332671D01*
X19908521D01*
X19260771Y11551920D02*
X19108420D01*
Y11628095D01*
X19133812Y11653487D01*
X19235379D01*
X19260771Y11628095D01*
Y11551920D01*
X19235379Y11805838D02*
X19260771Y11780446D01*
Y11729663D01*
X19235379Y11704271D01*
X19133812D01*
X19108420Y11729663D01*
Y11780446D01*
X19133812Y11805838D01*
X15590520Y10942320D02*
X15742871D01*
Y11018495D01*
X15717479Y11043887D01*
X15666695D01*
X15641302Y11018495D01*
Y10942320D01*
Y10993103D02*
X15590520Y11043887D01*
X15742871Y11196238D02*
Y11094671D01*
X15666695D01*
Y11145454D01*
Y11094671D01*
X15590520D01*
X15666695Y11247021D02*
Y11348589D01*
X15717479Y11297805D02*
X15615912D01*
X15742871Y11399372D02*
X15590520D01*
Y11475548D01*
X15615912Y11500939D01*
X15717479D01*
X15742871Y11475548D01*
Y11399372D01*
X15717479Y11653290D02*
X15742871Y11627898D01*
Y11577115D01*
X15717479Y11551723D01*
X15615912D01*
X15590520Y11577115D01*
Y11627898D01*
X15615912Y11653290D01*
X15590520Y9672320D02*
X15742871D01*
Y9748495D01*
X15717479Y9773887D01*
X15666695D01*
X15641302Y9748495D01*
Y9672320D01*
Y9723103D02*
X15590520Y9773887D01*
X15742871Y9926238D02*
Y9824671D01*
X15666695D01*
Y9875454D01*
Y9824671D01*
X15590520D01*
X14942770Y11043920D02*
X14790421D01*
Y11120095D01*
X14815813Y11145487D01*
X14917380D01*
X14942770Y11120095D01*
Y11043920D01*
X14917380Y11297838D02*
X14942770Y11272446D01*
Y11221663D01*
X14917380Y11196271D01*
X14815813D01*
X14790421Y11221663D01*
Y11272446D01*
X14815813Y11297838D01*
X10291179Y6413479D02*
Y6307680D01*
X10270019Y6286521D01*
X10227699D01*
X10206539Y6307680D01*
Y6413479D01*
X10079580Y6286521D02*
X10164220D01*
X10079580Y6371160D01*
Y6392320D01*
X10100740Y6413479D01*
X10143060D01*
X10164220Y6392320D01*
X10037261D02*
X10016101Y6413479D01*
X9973781D01*
X9952621Y6392320D01*
Y6307680D01*
X9973781Y6286521D01*
X10016101D01*
X10037261Y6307680D01*
Y6392320D01*
X12058599Y7683479D02*
Y7577680D01*
X12037439Y7556521D01*
X11995119D01*
X11973959Y7577680D01*
Y7683479D01*
X11931640Y7556521D02*
X11889320D01*
X11910480D01*
Y7683479D01*
X11931640Y7662320D01*
X11825841Y7577680D02*
X11804681Y7556521D01*
X11762361D01*
X11741201Y7577680D01*
Y7662320D01*
X11762361Y7683479D01*
X11804681D01*
X11825841Y7662320D01*
Y7641160D01*
X11804681Y7620000D01*
X11741201D01*
X10280599Y10223479D02*
Y10117680D01*
X10259439Y10096521D01*
X10217119D01*
X10195959Y10117680D01*
Y10223479D01*
X10153640Y10096521D02*
X10111320D01*
X10132480D01*
Y10223479D01*
X10153640Y10202320D01*
X10047841D02*
X10026681Y10223479D01*
X9984361D01*
X9963201Y10202320D01*
Y10181160D01*
X9984361Y10160000D01*
X9963201Y10138840D01*
Y10117680D01*
X9984361Y10096521D01*
X10026681D01*
X10047841Y10117680D01*
Y10138840D01*
X10026681Y10160000D01*
X10047841Y10181160D01*
Y10202320D01*
X10026681Y10160000D02*
X9984361D01*
X12058599Y11493479D02*
Y11387680D01*
X12037439Y11366521D01*
X11995119D01*
X11973959Y11387680D01*
Y11493479D01*
X11931640Y11366521D02*
X11889320D01*
X11910480D01*
Y11493479D01*
X11931640Y11472320D01*
X11825841Y11493479D02*
X11741201D01*
Y11472320D01*
X11825841Y11387680D01*
Y11366521D01*
X10280599Y14033479D02*
Y13927679D01*
X10259439Y13906522D01*
X10217119D01*
X10195959Y13927679D01*
Y14033479D01*
X10153640Y13906522D02*
X10111320D01*
X10132480D01*
Y14033479D01*
X10153640Y14012320D01*
X9963201Y14033479D02*
X10005521Y14012320D01*
X10047841Y13970000D01*
Y13927679D01*
X10026681Y13906522D01*
X9984361D01*
X9963201Y13927679D01*
Y13948840D01*
X9984361Y13970000D01*
X10047841D01*
X12058599Y15303479D02*
Y15197681D01*
X12037439Y15176521D01*
X11995119D01*
X11973959Y15197681D01*
Y15303479D01*
X11931640Y15176521D02*
X11889320D01*
X11910480D01*
Y15303479D01*
X11931640Y15282320D01*
X11741201Y15303479D02*
X11825841D01*
Y15239999D01*
X11783521Y15261160D01*
X11762361D01*
X11741201Y15239999D01*
Y15197681D01*
X11762361Y15176521D01*
X11804681D01*
X11825841Y15197681D01*
X10280599Y17843478D02*
Y17737680D01*
X10259439Y17716521D01*
X10217119D01*
X10195959Y17737680D01*
Y17843478D01*
X10153640Y17716521D02*
X10111320D01*
X10132480D01*
Y17843478D01*
X10153640Y17822321D01*
X9984361Y17716521D02*
Y17843478D01*
X10047841Y17780000D01*
X9963201D01*
X12058599Y19113480D02*
Y19007680D01*
X12037439Y18986520D01*
X11995119D01*
X11973959Y19007680D01*
Y19113480D01*
X11931640Y18986520D02*
X11889320D01*
X11910480D01*
Y19113480D01*
X11931640Y19092320D01*
X11825841D02*
X11804681Y19113480D01*
X11762361D01*
X11741201Y19092320D01*
Y19071159D01*
X11762361Y19050000D01*
X11783521D01*
X11762361D01*
X11741201Y19028841D01*
Y19007680D01*
X11762361Y18986520D01*
X11804681D01*
X11825841Y19007680D01*
X10280599Y21653479D02*
Y21547681D01*
X10259439Y21526521D01*
X10217119D01*
X10195959Y21547681D01*
Y21653479D01*
X10153640Y21526521D02*
X10111320D01*
X10132480D01*
Y21653479D01*
X10153640Y21632320D01*
X9963201Y21526521D02*
X10047841D01*
X9963201Y21611160D01*
Y21632320D01*
X9984361Y21653479D01*
X10026681D01*
X10047841Y21632320D01*
X12037439Y22923479D02*
Y22817680D01*
X12016279Y22796521D01*
X11973959D01*
X11952799Y22817680D01*
Y22923479D01*
X11910480Y22796521D02*
X11868160D01*
X11889320D01*
Y22923479D01*
X11910480Y22902319D01*
X11804681Y22796521D02*
X11762361D01*
X11783521D01*
Y22923479D01*
X11804681Y22902319D01*
X9135458Y5812381D02*
Y5939339D01*
X9071979D01*
X9050819Y5918180D01*
Y5875860D01*
X9071979Y5854700D01*
X9135458D01*
X9093138D02*
X9050819Y5812381D01*
X8966179Y5770061D02*
X8945020D01*
X8923860Y5791221D01*
Y5897020D01*
X8987339D01*
X9008499Y5875860D01*
Y5833540D01*
X8987339Y5812381D01*
X8923860D01*
X8796901D02*
X8881540D01*
X8796901Y5897020D01*
Y5918180D01*
X8818061Y5939339D01*
X8860381D01*
X8881540Y5918180D01*
X8754581D02*
X8733422Y5939339D01*
X8691102D01*
X8669942Y5918180D01*
Y5833540D01*
X8691102Y5812381D01*
X8733422D01*
X8754581Y5833540D01*
Y5918180D01*
X10902878Y7082381D02*
Y7209339D01*
X10839399D01*
X10818239Y7188180D01*
Y7145860D01*
X10839399Y7124700D01*
X10902878D01*
X10860558D02*
X10818239Y7082381D01*
X10733600Y7040061D02*
X10712440D01*
X10691280Y7061221D01*
Y7167020D01*
X10754760D01*
X10775919Y7145860D01*
Y7103540D01*
X10754760Y7082381D01*
X10691280D01*
X10648960D02*
X10606641D01*
X10627801D01*
Y7209339D01*
X10648960Y7188180D01*
X10543161Y7103540D02*
X10522002Y7082381D01*
X10479682D01*
X10458522Y7103540D01*
Y7188180D01*
X10479682Y7209339D01*
X10522002D01*
X10543161Y7188180D01*
Y7167020D01*
X10522002Y7145860D01*
X10458522D01*
X9124878Y9622381D02*
Y9749339D01*
X9061399D01*
X9040239Y9728180D01*
Y9685860D01*
X9061399Y9664700D01*
X9124878D01*
X9082558D02*
X9040239Y9622381D01*
X8955600Y9580061D02*
X8934440D01*
X8913280Y9601221D01*
Y9707020D01*
X8976760D01*
X8997919Y9685860D01*
Y9643540D01*
X8976760Y9622381D01*
X8913280D01*
X8870960D02*
X8828641D01*
X8849801D01*
Y9749339D01*
X8870960Y9728180D01*
X8765161D02*
X8744002Y9749339D01*
X8701682D01*
X8680522Y9728180D01*
Y9707020D01*
X8701682Y9685860D01*
X8680522Y9664700D01*
Y9643540D01*
X8701682Y9622381D01*
X8744002D01*
X8765161Y9643540D01*
Y9664700D01*
X8744002Y9685860D01*
X8765161Y9707020D01*
Y9728180D01*
X8744002Y9685860D02*
X8701682D01*
X10902878Y10892381D02*
Y11019339D01*
X10839399D01*
X10818239Y10998180D01*
Y10955860D01*
X10839399Y10934700D01*
X10902878D01*
X10860558D02*
X10818239Y10892381D01*
X10733600Y10850061D02*
X10712440D01*
X10691280Y10871221D01*
Y10977020D01*
X10754760D01*
X10775919Y10955860D01*
Y10913540D01*
X10754760Y10892381D01*
X10691280D01*
X10648960D02*
X10606641D01*
X10627801D01*
Y11019339D01*
X10648960Y10998180D01*
X10543161Y11019339D02*
X10458522D01*
Y10998180D01*
X10543161Y10913540D01*
Y10892381D01*
X9124878Y13432381D02*
Y13559338D01*
X9061399D01*
X9040239Y13538181D01*
Y13495860D01*
X9061399Y13474699D01*
X9124878D01*
X9082558D02*
X9040239Y13432381D01*
X8955600Y13390060D02*
X8934440D01*
X8913280Y13411221D01*
Y13517020D01*
X8976760D01*
X8997919Y13495860D01*
Y13453540D01*
X8976760Y13432381D01*
X8913280D01*
X8870960D02*
X8828641D01*
X8849801D01*
Y13559338D01*
X8870960Y13538181D01*
X8680522Y13559338D02*
X8722842Y13538181D01*
X8765161Y13495860D01*
Y13453540D01*
X8744002Y13432381D01*
X8701682D01*
X8680522Y13453540D01*
Y13474699D01*
X8701682Y13495860D01*
X8765161D01*
X10902878Y14702380D02*
Y14829340D01*
X10839399D01*
X10818239Y14808180D01*
Y14765860D01*
X10839399Y14744701D01*
X10902878D01*
X10860558D02*
X10818239Y14702380D01*
X10733600Y14660062D02*
X10712440D01*
X10691280Y14681221D01*
Y14787019D01*
X10754760D01*
X10775919Y14765860D01*
Y14723540D01*
X10754760Y14702380D01*
X10691280D01*
X10648960D02*
X10606641D01*
X10627801D01*
Y14829340D01*
X10648960Y14808180D01*
X10458522Y14829340D02*
X10543161D01*
Y14765860D01*
X10500842Y14787019D01*
X10479682D01*
X10458522Y14765860D01*
Y14723540D01*
X10479682Y14702380D01*
X10522002D01*
X10543161Y14723540D01*
X9124878Y17242381D02*
Y17369339D01*
X9061399D01*
X9040239Y17348180D01*
Y17305859D01*
X9061399Y17284700D01*
X9124878D01*
X9082558D02*
X9040239Y17242381D01*
X8955600Y17200061D02*
X8934440D01*
X8913280Y17221220D01*
Y17327020D01*
X8976760D01*
X8997919Y17305859D01*
Y17263541D01*
X8976760Y17242381D01*
X8913280D01*
X8870960D02*
X8828641D01*
X8849801D01*
Y17369339D01*
X8870960Y17348180D01*
X8701682Y17242381D02*
Y17369339D01*
X8765161Y17305859D01*
X8680522D01*
X10902878Y18512381D02*
Y18639339D01*
X10839399D01*
X10818239Y18618179D01*
Y18575861D01*
X10839399Y18554700D01*
X10902878D01*
X10860558D02*
X10818239Y18512381D01*
X10733600Y18470061D02*
X10712440D01*
X10691280Y18491222D01*
Y18597020D01*
X10754760D01*
X10775919Y18575861D01*
Y18533540D01*
X10754760Y18512381D01*
X10691280D01*
X10648960D02*
X10606641D01*
X10627801D01*
Y18639339D01*
X10648960Y18618179D01*
X10543161D02*
X10522002Y18639339D01*
X10479682D01*
X10458522Y18618179D01*
Y18597020D01*
X10479682Y18575861D01*
X10500842D01*
X10479682D01*
X10458522Y18554700D01*
Y18533540D01*
X10479682Y18512381D01*
X10522002D01*
X10543161Y18533540D01*
X9124878Y21052380D02*
Y21179340D01*
X9061399D01*
X9040239Y21158180D01*
Y21115860D01*
X9061399Y21094701D01*
X9124878D01*
X9082558D02*
X9040239Y21052380D01*
X8955600Y21010062D02*
X8934440D01*
X8913280Y21031221D01*
Y21137019D01*
X8976760D01*
X8997919Y21115860D01*
Y21073540D01*
X8976760Y21052380D01*
X8913280D01*
X8870960D02*
X8828641D01*
X8849801D01*
Y21179340D01*
X8870960Y21158180D01*
X8680522Y21052380D02*
X8765161D01*
X8680522Y21137019D01*
Y21158180D01*
X8701682Y21179340D01*
X8744002D01*
X8765161Y21158180D01*
X10881718Y22322382D02*
Y22449339D01*
X10818239D01*
X10797079Y22428180D01*
Y22385860D01*
X10818239Y22364700D01*
X10881718D01*
X10839398D02*
X10797079Y22322382D01*
X10712440Y22280061D02*
X10691280D01*
X10670120Y22301221D01*
Y22407021D01*
X10733600D01*
X10754759Y22385860D01*
Y22343539D01*
X10733600Y22322382D01*
X10670120D01*
X10627800D02*
X10585481D01*
X10606641D01*
Y22449339D01*
X10627800Y22428180D01*
X10522001Y22322382D02*
X10479682D01*
X10500842D01*
Y22449339D01*
X10522001Y22428180D01*
X9759878Y5435621D02*
Y5562579D01*
X9696399D01*
X9675239Y5541420D01*
Y5499100D01*
X9696399Y5477940D01*
X9759878D01*
X9717558D02*
X9675239Y5435621D01*
X9611760D02*
Y5541420D01*
Y5499100D01*
X9632919D01*
X9590600D01*
X9611760D01*
Y5541420D01*
X9590600Y5562579D01*
X9442481Y5435621D02*
X9527120D01*
X9442481Y5520260D01*
Y5541420D01*
X9463641Y5562579D01*
X9505960D01*
X9527120Y5541420D01*
X9400161D02*
X9379002Y5562579D01*
X9336682D01*
X9315522Y5541420D01*
Y5456780D01*
X9336682Y5435621D01*
X9379002D01*
X9400161Y5456780D01*
Y5541420D01*
X11527298Y6705621D02*
Y6832579D01*
X11463819D01*
X11442659Y6811420D01*
Y6769100D01*
X11463819Y6747940D01*
X11527298D01*
X11484979D02*
X11442659Y6705621D01*
X11379180D02*
Y6811420D01*
Y6769100D01*
X11400339D01*
X11358020D01*
X11379180D01*
Y6811420D01*
X11358020Y6832579D01*
X11294540Y6705621D02*
X11252221D01*
X11273381D01*
Y6832579D01*
X11294540Y6811420D01*
X11188741Y6726780D02*
X11167581Y6705621D01*
X11125262D01*
X11104102Y6726780D01*
Y6811420D01*
X11125262Y6832579D01*
X11167581D01*
X11188741Y6811420D01*
Y6790260D01*
X11167581Y6769100D01*
X11104102D01*
X9749298Y9245621D02*
Y9372579D01*
X9685819D01*
X9664659Y9351420D01*
Y9309100D01*
X9685819Y9287940D01*
X9749298D01*
X9706979D02*
X9664659Y9245621D01*
X9601180D02*
Y9351420D01*
Y9309100D01*
X9622339D01*
X9580020D01*
X9601180D01*
Y9351420D01*
X9580020Y9372579D01*
X9516540Y9245621D02*
X9474221D01*
X9495381D01*
Y9372579D01*
X9516540Y9351420D01*
X9410741D02*
X9389581Y9372579D01*
X9347262D01*
X9326102Y9351420D01*
Y9330260D01*
X9347262Y9309100D01*
X9326102Y9287940D01*
Y9266780D01*
X9347262Y9245621D01*
X9389581D01*
X9410741Y9266780D01*
Y9287940D01*
X9389581Y9309100D01*
X9410741Y9330260D01*
Y9351420D01*
X9389581Y9309100D02*
X9347262D01*
X11527298Y10515621D02*
Y10642579D01*
X11463819D01*
X11442659Y10621420D01*
Y10579100D01*
X11463819Y10557940D01*
X11527298D01*
X11484979D02*
X11442659Y10515621D01*
X11379180D02*
Y10621420D01*
Y10579100D01*
X11400339D01*
X11358020D01*
X11379180D01*
Y10621420D01*
X11358020Y10642579D01*
X11294540Y10515621D02*
X11252221D01*
X11273381D01*
Y10642579D01*
X11294540Y10621420D01*
X11188741Y10642579D02*
X11104102D01*
Y10621420D01*
X11188741Y10536780D01*
Y10515621D01*
X9749298Y13055621D02*
Y13182579D01*
X9685819D01*
X9664659Y13161420D01*
Y13119099D01*
X9685819Y13097940D01*
X9749298D01*
X9706979D02*
X9664659Y13055621D01*
X9601180D02*
Y13161420D01*
Y13119099D01*
X9622339D01*
X9580020D01*
X9601180D01*
Y13161420D01*
X9580020Y13182579D01*
X9516540Y13055621D02*
X9474221D01*
X9495381D01*
Y13182579D01*
X9516540Y13161420D01*
X9326102Y13182579D02*
X9368421Y13161420D01*
X9410741Y13119099D01*
Y13076781D01*
X9389581Y13055621D01*
X9347262D01*
X9326102Y13076781D01*
Y13097940D01*
X9347262Y13119099D01*
X9410741D01*
X11527298Y14325621D02*
Y14452579D01*
X11463819D01*
X11442659Y14431419D01*
Y14389101D01*
X11463819Y14367940D01*
X11527298D01*
X11484979D02*
X11442659Y14325621D01*
X11379180D02*
Y14431419D01*
Y14389101D01*
X11400339D01*
X11358020D01*
X11379180D01*
Y14431419D01*
X11358020Y14452579D01*
X11294540Y14325621D02*
X11252221D01*
X11273381D01*
Y14452579D01*
X11294540Y14431419D01*
X11104102Y14452579D02*
X11188741D01*
Y14389101D01*
X11146421Y14410260D01*
X11125262D01*
X11104102Y14389101D01*
Y14346780D01*
X11125262Y14325621D01*
X11167581D01*
X11188741Y14346780D01*
X9749298Y16865620D02*
Y16992580D01*
X9685819D01*
X9664659Y16971420D01*
Y16929100D01*
X9685819Y16907941D01*
X9749298D01*
X9706979D02*
X9664659Y16865620D01*
X9601180D02*
Y16971420D01*
Y16929100D01*
X9622339D01*
X9580020D01*
X9601180D01*
Y16971420D01*
X9580020Y16992580D01*
X9516540Y16865620D02*
X9474221D01*
X9495381D01*
Y16992580D01*
X9516540Y16971420D01*
X9347262Y16865620D02*
Y16992580D01*
X9410741Y16929100D01*
X9326102D01*
X11527298Y18135622D02*
Y18262579D01*
X11463819D01*
X11442659Y18241420D01*
Y18199100D01*
X11463819Y18177940D01*
X11527298D01*
X11484979D02*
X11442659Y18135622D01*
X11379180D02*
Y18241420D01*
Y18199100D01*
X11400339D01*
X11358020D01*
X11379180D01*
Y18241420D01*
X11358020Y18262579D01*
X11294540Y18135622D02*
X11252221D01*
X11273381D01*
Y18262579D01*
X11294540Y18241420D01*
X11188741D02*
X11167581Y18262579D01*
X11125262D01*
X11104102Y18241420D01*
Y18220261D01*
X11125262Y18199100D01*
X11146421D01*
X11125262D01*
X11104102Y18177940D01*
Y18156779D01*
X11125262Y18135622D01*
X11167581D01*
X11188741Y18156779D01*
X9749298Y20675621D02*
Y20802579D01*
X9685819D01*
X9664659Y20781419D01*
Y20739101D01*
X9685819Y20717940D01*
X9749298D01*
X9706979D02*
X9664659Y20675621D01*
X9601180D02*
Y20781419D01*
Y20739101D01*
X9622339D01*
X9580020D01*
X9601180D01*
Y20781419D01*
X9580020Y20802579D01*
X9516540Y20675621D02*
X9474221D01*
X9495381D01*
Y20802579D01*
X9516540Y20781419D01*
X9326102Y20675621D02*
X9410741D01*
X9326102Y20760260D01*
Y20781419D01*
X9347262Y20802579D01*
X9389581D01*
X9410741Y20781419D01*
X11506138Y21945621D02*
Y22072578D01*
X11442659D01*
X11421499Y22051421D01*
Y22009100D01*
X11442659Y21987939D01*
X11506138D01*
X11463819D02*
X11421499Y21945621D01*
X11358020D02*
Y22051421D01*
Y22009100D01*
X11379179D01*
X11336860D01*
X11358020D01*
Y22051421D01*
X11336860Y22072578D01*
X11273380Y21945621D02*
X11231061D01*
X11252221D01*
Y22072578D01*
X11273380Y22051421D01*
X11167581Y21945621D02*
X11125261D01*
X11146421D01*
Y22072578D01*
X11167581Y22051421D01*
X10837258Y6489721D02*
Y6616679D01*
X10773779D01*
X10752619Y6595520D01*
Y6553200D01*
X10773779Y6532040D01*
X10837258D01*
X10794938D02*
X10752619Y6489721D01*
X10646820D02*
X10689139D01*
X10710299Y6510880D01*
Y6553200D01*
X10689139Y6574360D01*
X10646820D01*
X10625660Y6553200D01*
Y6532040D01*
X10710299D01*
X10498701Y6489721D02*
X10583340D01*
X10498701Y6574360D01*
Y6595520D01*
X10519861Y6616679D01*
X10562181D01*
X10583340Y6595520D01*
X10456381D02*
X10435222Y6616679D01*
X10392902D01*
X10371742Y6595520D01*
Y6510880D01*
X10392902Y6489721D01*
X10435222D01*
X10456381Y6510880D01*
Y6595520D01*
X12591978Y7759721D02*
Y7886679D01*
X12528499D01*
X12507339Y7865520D01*
Y7823200D01*
X12528499Y7802040D01*
X12591978D01*
X12549658D02*
X12507339Y7759721D01*
X12401540D02*
X12443860D01*
X12465019Y7780880D01*
Y7823200D01*
X12443860Y7844360D01*
X12401540D01*
X12380380Y7823200D01*
Y7802040D01*
X12465019D01*
X12338060Y7759721D02*
X12295741D01*
X12316901D01*
Y7886679D01*
X12338060Y7865520D01*
X12232261Y7780880D02*
X12211102Y7759721D01*
X12168782D01*
X12147622Y7780880D01*
Y7865520D01*
X12168782Y7886679D01*
X12211102D01*
X12232261Y7865520D01*
Y7844360D01*
X12211102Y7823200D01*
X12147622D01*
X10826678Y10299721D02*
Y10426679D01*
X10763199D01*
X10742039Y10405520D01*
Y10363200D01*
X10763199Y10342040D01*
X10826678D01*
X10784358D02*
X10742039Y10299721D01*
X10636240D02*
X10678560D01*
X10699719Y10320880D01*
Y10363200D01*
X10678560Y10384360D01*
X10636240D01*
X10615080Y10363200D01*
Y10342040D01*
X10699719D01*
X10572760Y10299721D02*
X10530441D01*
X10551601D01*
Y10426679D01*
X10572760Y10405520D01*
X10466961D02*
X10445802Y10426679D01*
X10403482D01*
X10382322Y10405520D01*
Y10384360D01*
X10403482Y10363200D01*
X10382322Y10342040D01*
Y10320880D01*
X10403482Y10299721D01*
X10445802D01*
X10466961Y10320880D01*
Y10342040D01*
X10445802Y10363200D01*
X10466961Y10384360D01*
Y10405520D01*
X10445802Y10363200D02*
X10403482D01*
X12591978Y11569721D02*
Y11696679D01*
X12528499D01*
X12507339Y11675520D01*
Y11633200D01*
X12528499Y11612040D01*
X12591978D01*
X12549658D02*
X12507339Y11569721D01*
X12401540D02*
X12443860D01*
X12465019Y11590880D01*
Y11633200D01*
X12443860Y11654360D01*
X12401540D01*
X12380380Y11633200D01*
Y11612040D01*
X12465019D01*
X12338060Y11569721D02*
X12295741D01*
X12316901D01*
Y11696679D01*
X12338060Y11675520D01*
X12232261Y11696679D02*
X12147622D01*
Y11675520D01*
X12232261Y11590880D01*
Y11569721D01*
X10826678Y14109721D02*
Y14236679D01*
X10763199D01*
X10742039Y14215520D01*
Y14173199D01*
X10763199Y14152040D01*
X10826678D01*
X10784358D02*
X10742039Y14109721D01*
X10636240D02*
X10678560D01*
X10699719Y14130881D01*
Y14173199D01*
X10678560Y14194360D01*
X10636240D01*
X10615080Y14173199D01*
Y14152040D01*
X10699719D01*
X10572760Y14109721D02*
X10530441D01*
X10551601D01*
Y14236679D01*
X10572760Y14215520D01*
X10382322Y14236679D02*
X10424642Y14215520D01*
X10466961Y14173199D01*
Y14130881D01*
X10445802Y14109721D01*
X10403482D01*
X10382322Y14130881D01*
Y14152040D01*
X10403482Y14173199D01*
X10466961D01*
X12591978Y15379721D02*
Y15506679D01*
X12528499D01*
X12507339Y15485519D01*
Y15443201D01*
X12528499Y15422040D01*
X12591978D01*
X12549658D02*
X12507339Y15379721D01*
X12401540D02*
X12443860D01*
X12465019Y15400880D01*
Y15443201D01*
X12443860Y15464360D01*
X12401540D01*
X12380380Y15443201D01*
Y15422040D01*
X12465019D01*
X12338060Y15379721D02*
X12295741D01*
X12316901D01*
Y15506679D01*
X12338060Y15485519D01*
X12147622Y15506679D02*
X12232261D01*
Y15443201D01*
X12189942Y15464360D01*
X12168782D01*
X12147622Y15443201D01*
Y15400880D01*
X12168782Y15379721D01*
X12211102D01*
X12232261Y15400880D01*
X10826678Y17919720D02*
Y18046680D01*
X10763199D01*
X10742039Y18025520D01*
Y17983200D01*
X10763199Y17962041D01*
X10826678D01*
X10784358D02*
X10742039Y17919720D01*
X10636240D02*
X10678560D01*
X10699719Y17940880D01*
Y17983200D01*
X10678560Y18004359D01*
X10636240D01*
X10615080Y17983200D01*
Y17962041D01*
X10699719D01*
X10572760Y17919720D02*
X10530441D01*
X10551601D01*
Y18046680D01*
X10572760Y18025520D01*
X10403482Y17919720D02*
Y18046680D01*
X10466961Y17983200D01*
X10382322D01*
X12591978Y19189722D02*
Y19316679D01*
X12528499D01*
X12507339Y19295520D01*
Y19253200D01*
X12528499Y19232040D01*
X12591978D01*
X12549658D02*
X12507339Y19189722D01*
X12401540D02*
X12443860D01*
X12465019Y19210880D01*
Y19253200D01*
X12443860Y19274361D01*
X12401540D01*
X12380380Y19253200D01*
Y19232040D01*
X12465019D01*
X12338060Y19189722D02*
X12295741D01*
X12316901D01*
Y19316679D01*
X12338060Y19295520D01*
X12232261D02*
X12211102Y19316679D01*
X12168782D01*
X12147622Y19295520D01*
Y19274361D01*
X12168782Y19253200D01*
X12189942D01*
X12168782D01*
X12147622Y19232040D01*
Y19210880D01*
X12168782Y19189722D01*
X12211102D01*
X12232261Y19210880D01*
X10826678Y21729721D02*
Y21856679D01*
X10763199D01*
X10742039Y21835519D01*
Y21793201D01*
X10763199Y21772040D01*
X10826678D01*
X10784358D02*
X10742039Y21729721D01*
X10636240D02*
X10678560D01*
X10699719Y21750880D01*
Y21793201D01*
X10678560Y21814360D01*
X10636240D01*
X10615080Y21793201D01*
Y21772040D01*
X10699719D01*
X10572760Y21729721D02*
X10530441D01*
X10551601D01*
Y21856679D01*
X10572760Y21835519D01*
X10382322Y21729721D02*
X10466961D01*
X10382322Y21814360D01*
Y21835519D01*
X10403482Y21856679D01*
X10445802D01*
X10466961Y21835519D01*
X12570818Y22999721D02*
Y23126678D01*
X12507339D01*
X12486179Y23105521D01*
Y23063200D01*
X12507339Y23042039D01*
X12570818D01*
X12528498D02*
X12486179Y22999721D01*
X12380380D02*
X12422700D01*
X12443859Y23020880D01*
Y23063200D01*
X12422700Y23084360D01*
X12380380D01*
X12359220Y23063200D01*
Y23042039D01*
X12443859D01*
X12316900Y22999721D02*
X12274581D01*
X12295741D01*
Y23126678D01*
X12316900Y23105521D01*
X12211101Y22999721D02*
X12168782D01*
X12189942D01*
Y23126678D01*
X12211101Y23105521D01*
X10409719Y5401720D02*
X10430879Y5422879D01*
X10473198D01*
X10494358Y5401720D01*
Y5317080D01*
X10473198Y5295921D01*
X10430879D01*
X10409719Y5317080D01*
X10303920Y5295921D02*
X10346239D01*
X10367399Y5317080D01*
Y5359400D01*
X10346239Y5380560D01*
X10303920D01*
X10282760Y5359400D01*
Y5338240D01*
X10367399D01*
X10155801Y5295921D02*
X10240440D01*
X10155801Y5380560D01*
Y5401720D01*
X10176961Y5422879D01*
X10219281D01*
X10240440Y5401720D01*
X10113481D02*
X10092322Y5422879D01*
X10050002D01*
X10028842Y5401720D01*
Y5317080D01*
X10050002Y5295921D01*
X10092322D01*
X10113481Y5317080D01*
Y5401720D01*
X12177139Y6671720D02*
X12198299Y6692879D01*
X12240618D01*
X12261778Y6671720D01*
Y6587080D01*
X12240618Y6565921D01*
X12198299D01*
X12177139Y6587080D01*
X12071340Y6565921D02*
X12113660D01*
X12134819Y6587080D01*
Y6629400D01*
X12113660Y6650560D01*
X12071340D01*
X12050180Y6629400D01*
Y6608240D01*
X12134819D01*
X12007860Y6565921D02*
X11965541D01*
X11986701D01*
Y6692879D01*
X12007860Y6671720D01*
X11902061Y6587080D02*
X11880902Y6565921D01*
X11838582D01*
X11817422Y6587080D01*
Y6671720D01*
X11838582Y6692879D01*
X11880902D01*
X11902061Y6671720D01*
Y6650560D01*
X11880902Y6629400D01*
X11817422D01*
X10399139Y9211720D02*
X10420299Y9232879D01*
X10462618D01*
X10483778Y9211720D01*
Y9127080D01*
X10462618Y9105921D01*
X10420299D01*
X10399139Y9127080D01*
X10293340Y9105921D02*
X10335660D01*
X10356819Y9127080D01*
Y9169400D01*
X10335660Y9190560D01*
X10293340D01*
X10272180Y9169400D01*
Y9148240D01*
X10356819D01*
X10229860Y9105921D02*
X10187541D01*
X10208701D01*
Y9232879D01*
X10229860Y9211720D01*
X10124061D02*
X10102902Y9232879D01*
X10060582D01*
X10039422Y9211720D01*
Y9190560D01*
X10060582Y9169400D01*
X10039422Y9148240D01*
Y9127080D01*
X10060582Y9105921D01*
X10102902D01*
X10124061Y9127080D01*
Y9148240D01*
X10102902Y9169400D01*
X10124061Y9190560D01*
Y9211720D01*
X10102902Y9169400D02*
X10060582D01*
X12177139Y10481720D02*
X12198299Y10502879D01*
X12240618D01*
X12261778Y10481720D01*
Y10397080D01*
X12240618Y10375921D01*
X12198299D01*
X12177139Y10397080D01*
X12071340Y10375921D02*
X12113660D01*
X12134819Y10397080D01*
Y10439400D01*
X12113660Y10460560D01*
X12071340D01*
X12050180Y10439400D01*
Y10418240D01*
X12134819D01*
X12007860Y10375921D02*
X11965541D01*
X11986701D01*
Y10502879D01*
X12007860Y10481720D01*
X11902061Y10502879D02*
X11817422D01*
Y10481720D01*
X11902061Y10397080D01*
Y10375921D01*
X10399139Y13021719D02*
X10420299Y13042879D01*
X10462618D01*
X10483778Y13021719D01*
Y12937080D01*
X10462618Y12915921D01*
X10420299D01*
X10399139Y12937080D01*
X10293340Y12915921D02*
X10335660D01*
X10356819Y12937080D01*
Y12979401D01*
X10335660Y13000560D01*
X10293340D01*
X10272180Y12979401D01*
Y12958240D01*
X10356819D01*
X10229860Y12915921D02*
X10187541D01*
X10208701D01*
Y13042879D01*
X10229860Y13021719D01*
X10039422Y13042879D02*
X10081742Y13021719D01*
X10124061Y12979401D01*
Y12937080D01*
X10102902Y12915921D01*
X10060582D01*
X10039422Y12937080D01*
Y12958240D01*
X10060582Y12979401D01*
X10124061D01*
X12177139Y14291721D02*
X12198299Y14312878D01*
X12240618D01*
X12261778Y14291721D01*
Y14207080D01*
X12240618Y14185921D01*
X12198299D01*
X12177139Y14207080D01*
X12071340Y14185921D02*
X12113660D01*
X12134819Y14207080D01*
Y14249400D01*
X12113660Y14270560D01*
X12071340D01*
X12050180Y14249400D01*
Y14228239D01*
X12134819D01*
X12007860Y14185921D02*
X11965541D01*
X11986701D01*
Y14312878D01*
X12007860Y14291721D01*
X11817422Y14312878D02*
X11902061D01*
Y14249400D01*
X11859742Y14270560D01*
X11838582D01*
X11817422Y14249400D01*
Y14207080D01*
X11838582Y14185921D01*
X11880902D01*
X11902061Y14207080D01*
X10399139Y16831720D02*
X10420299Y16852879D01*
X10462618D01*
X10483778Y16831720D01*
Y16747079D01*
X10462618Y16725922D01*
X10420299D01*
X10399139Y16747079D01*
X10293340Y16725922D02*
X10335660D01*
X10356819Y16747079D01*
Y16789400D01*
X10335660Y16810561D01*
X10293340D01*
X10272180Y16789400D01*
Y16768240D01*
X10356819D01*
X10229860Y16725922D02*
X10187541D01*
X10208701D01*
Y16852879D01*
X10229860Y16831720D01*
X10060582Y16725922D02*
Y16852879D01*
X10124061Y16789400D01*
X10039422D01*
X12177139Y18101720D02*
X12198299Y18122879D01*
X12240618D01*
X12261778Y18101720D01*
Y18017081D01*
X12240618Y17995921D01*
X12198299D01*
X12177139Y18017081D01*
X12071340Y17995921D02*
X12113660D01*
X12134819Y18017081D01*
Y18059399D01*
X12113660Y18080560D01*
X12071340D01*
X12050180Y18059399D01*
Y18038240D01*
X12134819D01*
X12007860Y17995921D02*
X11965541D01*
X11986701D01*
Y18122879D01*
X12007860Y18101720D01*
X11902061D02*
X11880902Y18122879D01*
X11838582D01*
X11817422Y18101720D01*
Y18080560D01*
X11838582Y18059399D01*
X11859742D01*
X11838582D01*
X11817422Y18038240D01*
Y18017081D01*
X11838582Y17995921D01*
X11880902D01*
X11902061Y18017081D01*
X10399139Y20641721D02*
X10420299Y20662878D01*
X10462618D01*
X10483778Y20641721D01*
Y20557080D01*
X10462618Y20535921D01*
X10420299D01*
X10399139Y20557080D01*
X10293340Y20535921D02*
X10335660D01*
X10356819Y20557080D01*
Y20599400D01*
X10335660Y20620560D01*
X10293340D01*
X10272180Y20599400D01*
Y20578239D01*
X10356819D01*
X10229860Y20535921D02*
X10187541D01*
X10208701D01*
Y20662878D01*
X10229860Y20641721D01*
X10039422Y20535921D02*
X10124061D01*
X10039422Y20620560D01*
Y20641721D01*
X10060582Y20662878D01*
X10102902D01*
X10124061Y20641721D01*
X12155979Y21911720D02*
X12177139Y21932880D01*
X12219458D01*
X12240618Y21911720D01*
Y21827080D01*
X12219458Y21805920D01*
X12177139D01*
X12155979Y21827080D01*
X12050180Y21805920D02*
X12092500D01*
X12113659Y21827080D01*
Y21869400D01*
X12092500Y21890559D01*
X12050180D01*
X12029020Y21869400D01*
Y21848241D01*
X12113659D01*
X11986700Y21805920D02*
X11944381D01*
X11965541D01*
Y21932880D01*
X11986700Y21911720D01*
X11880901Y21805920D02*
X11838582D01*
X11859742D01*
Y21932880D01*
X11880901Y21911720D01*
X10079498Y6582820D02*
X10100658Y6603979D01*
X10142978D01*
X10164137Y6582820D01*
Y6498180D01*
X10142978Y6477021D01*
X10100658D01*
X10079498Y6498180D01*
X9952539Y6603979D02*
Y6477021D01*
X10016019D01*
X10037179Y6498180D01*
Y6540500D01*
X10016019Y6561660D01*
X9952539D01*
X9825580Y6477021D02*
X9910220D01*
X9825580Y6561660D01*
Y6582820D01*
X9846740Y6603979D01*
X9889060D01*
X9910220Y6582820D01*
X9783261D02*
X9762101Y6603979D01*
X9719781D01*
X9698621Y6582820D01*
Y6498180D01*
X9719781Y6477021D01*
X9762101D01*
X9783261Y6498180D01*
Y6582820D01*
X9592823Y6477021D02*
Y6603979D01*
X9656302Y6540500D01*
X9571663D01*
X9469898Y6963820D02*
X9491058Y6984979D01*
X9533378D01*
X9554537Y6963820D01*
Y6879180D01*
X9533378Y6858021D01*
X9491058D01*
X9469898Y6879180D01*
X9342939Y6984979D02*
Y6858021D01*
X9406419D01*
X9427579Y6879180D01*
Y6921500D01*
X9406419Y6942660D01*
X9342939D01*
X9215980Y6858021D02*
X9300620D01*
X9215980Y6942660D01*
Y6963820D01*
X9237140Y6984979D01*
X9279460D01*
X9300620Y6963820D01*
X9173661D02*
X9152501Y6984979D01*
X9110181D01*
X9089021Y6963820D01*
Y6879180D01*
X9110181Y6858021D01*
X9152501D01*
X9173661Y6879180D01*
Y6963820D01*
X9046702D02*
X9025542Y6984979D01*
X8983223D01*
X8962063Y6963820D01*
Y6942660D01*
X8983223Y6921500D01*
X9004382D01*
X8983223D01*
X8962063Y6900340D01*
Y6879180D01*
X8983223Y6858021D01*
X9025542D01*
X9046702Y6879180D01*
X11044698Y6112920D02*
X11065858Y6134079D01*
X11108178D01*
X11129337Y6112920D01*
Y6028280D01*
X11108178Y6007121D01*
X11065858D01*
X11044698Y6028280D01*
X10917739Y6134079D02*
Y6007121D01*
X10981219D01*
X11002379Y6028280D01*
Y6070600D01*
X10981219Y6091760D01*
X10917739D01*
X10790780Y6007121D02*
X10875420D01*
X10790780Y6091760D01*
Y6112920D01*
X10811940Y6134079D01*
X10854260D01*
X10875420Y6112920D01*
X10748461D02*
X10727301Y6134079D01*
X10684981D01*
X10663821Y6112920D01*
Y6028280D01*
X10684981Y6007121D01*
X10727301D01*
X10748461Y6028280D01*
Y6112920D01*
X10536863Y6007121D02*
X10621502D01*
X10536863Y6091760D01*
Y6112920D01*
X10558023Y6134079D01*
X10600342D01*
X10621502Y6112920D01*
X11302938Y5185820D02*
X11324098Y5206979D01*
X11366418D01*
X11387577Y5185820D01*
Y5101180D01*
X11366418Y5080021D01*
X11324098D01*
X11302938Y5101180D01*
X11175979Y5206979D02*
Y5080021D01*
X11239459D01*
X11260619Y5101180D01*
Y5143500D01*
X11239459Y5164660D01*
X11175979D01*
X11049020Y5080021D02*
X11133660D01*
X11049020Y5164660D01*
Y5185820D01*
X11070180Y5206979D01*
X11112500D01*
X11133660Y5185820D01*
X11006701D02*
X10985541Y5206979D01*
X10943221D01*
X10922061Y5185820D01*
Y5101180D01*
X10943221Y5080021D01*
X10985541D01*
X11006701Y5101180D01*
Y5185820D01*
X10879742Y5080021D02*
X10837422D01*
X10858582D01*
Y5206979D01*
X10879742Y5185820D01*
X11846918Y7852820D02*
X11868078Y7873979D01*
X11910398D01*
X11931558Y7852820D01*
Y7768180D01*
X11910398Y7747021D01*
X11868078D01*
X11846918Y7768180D01*
X11719959Y7873979D02*
Y7747021D01*
X11783439D01*
X11804599Y7768180D01*
Y7810500D01*
X11783439Y7831660D01*
X11719959D01*
X11677640Y7747021D02*
X11635320D01*
X11656480D01*
Y7873979D01*
X11677640Y7852820D01*
X11571841Y7768180D02*
X11550681Y7747021D01*
X11508361D01*
X11487201Y7768180D01*
Y7852820D01*
X11508361Y7873979D01*
X11550681D01*
X11571841Y7852820D01*
Y7831660D01*
X11550681Y7810500D01*
X11487201D01*
X11381402Y7747021D02*
Y7873979D01*
X11444882Y7810500D01*
X11360242D01*
X11200581Y8266819D02*
X11221741Y8287979D01*
X11264060D01*
X11285220Y8266819D01*
Y8182180D01*
X11264060Y8161020D01*
X11221741D01*
X11200581Y8182180D01*
X11073622Y8287979D02*
Y8161020D01*
X11137101D01*
X11158261Y8182180D01*
Y8224499D01*
X11137101Y8245659D01*
X11073622D01*
X11031302Y8161020D02*
X10988983D01*
X11010143D01*
Y8287979D01*
X11031302Y8266819D01*
X10925503Y8182180D02*
X10904343Y8161020D01*
X10862024D01*
X10840864Y8182180D01*
Y8266819D01*
X10862024Y8287979D01*
X10904343D01*
X10925503Y8266819D01*
Y8245659D01*
X10904343Y8224499D01*
X10840864D01*
X10798544Y8266819D02*
X10777385Y8287979D01*
X10735065D01*
X10713905Y8266819D01*
Y8245659D01*
X10735065Y8224499D01*
X10756225D01*
X10735065D01*
X10713905Y8203340D01*
Y8182180D01*
X10735065Y8161020D01*
X10777385D01*
X10798544Y8182180D01*
X12812119Y7382920D02*
X12833278Y7404079D01*
X12875598D01*
X12896758Y7382920D01*
Y7298280D01*
X12875598Y7277121D01*
X12833278D01*
X12812119Y7298280D01*
X12685159Y7404079D02*
Y7277121D01*
X12748639D01*
X12769799Y7298280D01*
Y7340600D01*
X12748639Y7361760D01*
X12685159D01*
X12642840Y7277121D02*
X12600520D01*
X12621680D01*
Y7404079D01*
X12642840Y7382920D01*
X12537041Y7298280D02*
X12515881Y7277121D01*
X12473561D01*
X12452401Y7298280D01*
Y7382920D01*
X12473561Y7404079D01*
X12515881D01*
X12537041Y7382920D01*
Y7361760D01*
X12515881Y7340600D01*
X12452401D01*
X12325442Y7277121D02*
X12410082D01*
X12325442Y7361760D01*
Y7382920D01*
X12346602Y7404079D01*
X12388922D01*
X12410082Y7382920D01*
X13070358Y6455820D02*
X13091518Y6476979D01*
X13133838D01*
X13154997Y6455820D01*
Y6371180D01*
X13133838Y6350021D01*
X13091518D01*
X13070358Y6371180D01*
X12943399Y6476979D02*
Y6350021D01*
X13006879D01*
X13028040Y6371180D01*
Y6413500D01*
X13006879Y6434660D01*
X12943399D01*
X12901080Y6350021D02*
X12858760D01*
X12879919D01*
Y6476979D01*
X12901080Y6455820D01*
X12795281Y6371180D02*
X12774121Y6350021D01*
X12731801D01*
X12710641Y6371180D01*
Y6455820D01*
X12731801Y6476979D01*
X12774121D01*
X12795281Y6455820D01*
Y6434660D01*
X12774121Y6413500D01*
X12710641D01*
X12668322Y6350021D02*
X12626002D01*
X12647162D01*
Y6476979D01*
X12668322Y6455820D01*
X10068918Y10392820D02*
X10090078Y10413979D01*
X10132398D01*
X10153558Y10392820D01*
Y10308180D01*
X10132398Y10287021D01*
X10090078D01*
X10068918Y10308180D01*
X9941959Y10413979D02*
Y10287021D01*
X10005439D01*
X10026599Y10308180D01*
Y10350500D01*
X10005439Y10371660D01*
X9941959D01*
X9899640Y10287021D02*
X9857320D01*
X9878480D01*
Y10413979D01*
X9899640Y10392820D01*
X9793841D02*
X9772681Y10413979D01*
X9730361D01*
X9709201Y10392820D01*
Y10371660D01*
X9730361Y10350500D01*
X9709201Y10329340D01*
Y10308180D01*
X9730361Y10287021D01*
X9772681D01*
X9793841Y10308180D01*
Y10329340D01*
X9772681Y10350500D01*
X9793841Y10371660D01*
Y10392820D01*
X9772681Y10350500D02*
X9730361D01*
X9603402Y10287021D02*
Y10413979D01*
X9666882Y10350500D01*
X9582242D01*
X9459318Y10773820D02*
X9480478Y10794979D01*
X9522798D01*
X9543958Y10773820D01*
Y10689180D01*
X9522798Y10668021D01*
X9480478D01*
X9459318Y10689180D01*
X9332359Y10794979D02*
Y10668021D01*
X9395839D01*
X9416999Y10689180D01*
Y10731500D01*
X9395839Y10752660D01*
X9332359D01*
X9290040Y10668021D02*
X9247720D01*
X9268880D01*
Y10794979D01*
X9290040Y10773820D01*
X9184241D02*
X9163081Y10794979D01*
X9120761D01*
X9099601Y10773820D01*
Y10752660D01*
X9120761Y10731500D01*
X9099601Y10710340D01*
Y10689180D01*
X9120761Y10668021D01*
X9163081D01*
X9184241Y10689180D01*
Y10710340D01*
X9163081Y10731500D01*
X9184241Y10752660D01*
Y10773820D01*
X9163081Y10731500D02*
X9120761D01*
X9057282Y10773820D02*
X9036122Y10794979D01*
X8993802D01*
X8972642Y10773820D01*
Y10752660D01*
X8993802Y10731500D01*
X9014962D01*
X8993802D01*
X8972642Y10710340D01*
Y10689180D01*
X8993802Y10668021D01*
X9036122D01*
X9057282Y10689180D01*
X11034118Y9922920D02*
X11055278Y9944079D01*
X11097598D01*
X11118758Y9922920D01*
Y9838280D01*
X11097598Y9817121D01*
X11055278D01*
X11034118Y9838280D01*
X10907159Y9944079D02*
Y9817121D01*
X10970639D01*
X10991799Y9838280D01*
Y9880600D01*
X10970639Y9901760D01*
X10907159D01*
X10864840Y9817121D02*
X10822520D01*
X10843680D01*
Y9944079D01*
X10864840Y9922920D01*
X10759041D02*
X10737881Y9944079D01*
X10695561D01*
X10674401Y9922920D01*
Y9901760D01*
X10695561Y9880600D01*
X10674401Y9859440D01*
Y9838280D01*
X10695561Y9817121D01*
X10737881D01*
X10759041Y9838280D01*
Y9859440D01*
X10737881Y9880600D01*
X10759041Y9901760D01*
Y9922920D01*
X10737881Y9880600D02*
X10695561D01*
X10547442Y9817121D02*
X10632082D01*
X10547442Y9901760D01*
Y9922920D01*
X10568602Y9944079D01*
X10610922D01*
X10632082Y9922920D01*
X11292358Y8995820D02*
X11313518Y9016979D01*
X11355838D01*
X11376998Y8995820D01*
Y8911180D01*
X11355838Y8890021D01*
X11313518D01*
X11292358Y8911180D01*
X11165399Y9016979D02*
Y8890021D01*
X11228879D01*
X11250039Y8911180D01*
Y8953500D01*
X11228879Y8974660D01*
X11165399D01*
X11123080Y8890021D02*
X11080760D01*
X11101920D01*
Y9016979D01*
X11123080Y8995820D01*
X11017281D02*
X10996121Y9016979D01*
X10953801D01*
X10932641Y8995820D01*
Y8974660D01*
X10953801Y8953500D01*
X10932641Y8932340D01*
Y8911180D01*
X10953801Y8890021D01*
X10996121D01*
X11017281Y8911180D01*
Y8932340D01*
X10996121Y8953500D01*
X11017281Y8974660D01*
Y8995820D01*
X10996121Y8953500D02*
X10953801D01*
X10890322Y8890021D02*
X10848002D01*
X10869162D01*
Y9016979D01*
X10890322Y8995820D01*
X11846918Y11662820D02*
X11868078Y11683979D01*
X11910398D01*
X11931558Y11662820D01*
Y11578180D01*
X11910398Y11557021D01*
X11868078D01*
X11846918Y11578180D01*
X11719959Y11683979D02*
Y11557021D01*
X11783439D01*
X11804599Y11578180D01*
Y11620500D01*
X11783439Y11641660D01*
X11719959D01*
X11677640Y11557021D02*
X11635320D01*
X11656480D01*
Y11683979D01*
X11677640Y11662820D01*
X11571841Y11683979D02*
X11487201D01*
Y11662820D01*
X11571841Y11578180D01*
Y11557021D01*
X11381402D02*
Y11683979D01*
X11444882Y11620500D01*
X11360242D01*
X11200581Y12076819D02*
X11221741Y12097979D01*
X11264060D01*
X11285220Y12076819D01*
Y11992180D01*
X11264060Y11971020D01*
X11221741D01*
X11200581Y11992180D01*
X11073622Y12097979D02*
Y11971020D01*
X11137101D01*
X11158261Y11992180D01*
Y12034499D01*
X11137101Y12055659D01*
X11073622D01*
X11031302Y11971020D02*
X10988983D01*
X11010143D01*
Y12097979D01*
X11031302Y12076819D01*
X10925503Y12097979D02*
X10840864D01*
Y12076819D01*
X10925503Y11992180D01*
Y11971020D01*
X10798544Y12076819D02*
X10777385Y12097979D01*
X10735065D01*
X10713905Y12076819D01*
Y12055659D01*
X10735065Y12034499D01*
X10756225D01*
X10735065D01*
X10713905Y12013340D01*
Y11992180D01*
X10735065Y11971020D01*
X10777385D01*
X10798544Y11992180D01*
X12812119Y11192920D02*
X12833278Y11214079D01*
X12875598D01*
X12896758Y11192920D01*
Y11108280D01*
X12875598Y11087121D01*
X12833278D01*
X12812119Y11108280D01*
X12685159Y11214079D02*
Y11087121D01*
X12748639D01*
X12769799Y11108280D01*
Y11150600D01*
X12748639Y11171760D01*
X12685159D01*
X12642840Y11087121D02*
X12600520D01*
X12621680D01*
Y11214079D01*
X12642840Y11192920D01*
X12537041Y11214079D02*
X12452401D01*
Y11192920D01*
X12537041Y11108280D01*
Y11087121D01*
X12325442D02*
X12410082D01*
X12325442Y11171760D01*
Y11192920D01*
X12346602Y11214079D01*
X12388922D01*
X12410082Y11192920D01*
X13070358Y10265820D02*
X13091518Y10286979D01*
X13133838D01*
X13154997Y10265820D01*
Y10181180D01*
X13133838Y10160021D01*
X13091518D01*
X13070358Y10181180D01*
X12943399Y10286979D02*
Y10160021D01*
X13006879D01*
X13028040Y10181180D01*
Y10223500D01*
X13006879Y10244660D01*
X12943399D01*
X12901080Y10160021D02*
X12858760D01*
X12879919D01*
Y10286979D01*
X12901080Y10265820D01*
X12795281Y10286979D02*
X12710641D01*
Y10265820D01*
X12795281Y10181180D01*
Y10160021D01*
X12668322D02*
X12626002D01*
X12647162D01*
Y10286979D01*
X12668322Y10265820D01*
X10068918Y14202820D02*
X10090078Y14223979D01*
X10132398D01*
X10153558Y14202820D01*
Y14118179D01*
X10132398Y14097021D01*
X10090078D01*
X10068918Y14118179D01*
X9941959Y14223979D02*
Y14097021D01*
X10005439D01*
X10026599Y14118179D01*
Y14160500D01*
X10005439Y14181660D01*
X9941959D01*
X9899640Y14097021D02*
X9857320D01*
X9878480D01*
Y14223979D01*
X9899640Y14202820D01*
X9709201Y14223979D02*
X9751521Y14202820D01*
X9793841Y14160500D01*
Y14118179D01*
X9772681Y14097021D01*
X9730361D01*
X9709201Y14118179D01*
Y14139340D01*
X9730361Y14160500D01*
X9793841D01*
X9603402Y14097021D02*
Y14223979D01*
X9666882Y14160500D01*
X9582242D01*
X9484718Y14583820D02*
X9505878Y14604979D01*
X9548198D01*
X9569358Y14583820D01*
Y14499181D01*
X9548198Y14478021D01*
X9505878D01*
X9484718Y14499181D01*
X9357759Y14604979D02*
Y14478021D01*
X9421239D01*
X9442399Y14499181D01*
Y14541499D01*
X9421239Y14562660D01*
X9357759D01*
X9315440Y14478021D02*
X9273120D01*
X9294280D01*
Y14604979D01*
X9315440Y14583820D01*
X9125001Y14604979D02*
X9167321Y14583820D01*
X9209641Y14541499D01*
Y14499181D01*
X9188481Y14478021D01*
X9146161D01*
X9125001Y14499181D01*
Y14520340D01*
X9146161Y14541499D01*
X9209641D01*
X9082682Y14583820D02*
X9061522Y14604979D01*
X9019202D01*
X8998042Y14583820D01*
Y14562660D01*
X9019202Y14541499D01*
X9040362D01*
X9019202D01*
X8998042Y14520340D01*
Y14499181D01*
X9019202Y14478021D01*
X9061522D01*
X9082682Y14499181D01*
X11034118Y13732919D02*
X11055278Y13754079D01*
X11097598D01*
X11118758Y13732919D01*
Y13648280D01*
X11097598Y13627121D01*
X11055278D01*
X11034118Y13648280D01*
X10907159Y13754079D02*
Y13627121D01*
X10970639D01*
X10991799Y13648280D01*
Y13690601D01*
X10970639Y13711760D01*
X10907159D01*
X10864840Y13627121D02*
X10822520D01*
X10843680D01*
Y13754079D01*
X10864840Y13732919D01*
X10674401Y13754079D02*
X10716721Y13732919D01*
X10759041Y13690601D01*
Y13648280D01*
X10737881Y13627121D01*
X10695561D01*
X10674401Y13648280D01*
Y13669440D01*
X10695561Y13690601D01*
X10759041D01*
X10547442Y13627121D02*
X10632082D01*
X10547442Y13711760D01*
Y13732919D01*
X10568602Y13754079D01*
X10610922D01*
X10632082Y13732919D01*
X11292358Y12805820D02*
X11313518Y12826979D01*
X11355838D01*
X11376998Y12805820D01*
Y12721180D01*
X11355838Y12700021D01*
X11313518D01*
X11292358Y12721180D01*
X11165399Y12826979D02*
Y12700021D01*
X11228879D01*
X11250039Y12721180D01*
Y12763500D01*
X11228879Y12784660D01*
X11165399D01*
X11123080Y12700021D02*
X11080760D01*
X11101920D01*
Y12826979D01*
X11123080Y12805820D01*
X10932641Y12826979D02*
X10974961Y12805820D01*
X11017281Y12763500D01*
Y12721180D01*
X10996121Y12700021D01*
X10953801D01*
X10932641Y12721180D01*
Y12742340D01*
X10953801Y12763500D01*
X11017281D01*
X10890322Y12700021D02*
X10848002D01*
X10869162D01*
Y12826979D01*
X10890322Y12805820D01*
X11846918Y15472820D02*
X11868078Y15493979D01*
X11910398D01*
X11931558Y15472820D01*
Y15388181D01*
X11910398Y15367021D01*
X11868078D01*
X11846918Y15388181D01*
X11719959Y15493979D02*
Y15367021D01*
X11783439D01*
X11804599Y15388181D01*
Y15430499D01*
X11783439Y15451660D01*
X11719959D01*
X11677640Y15367021D02*
X11635320D01*
X11656480D01*
Y15493979D01*
X11677640Y15472820D01*
X11487201Y15493979D02*
X11571841D01*
Y15430499D01*
X11529521Y15451660D01*
X11508361D01*
X11487201Y15430499D01*
Y15388181D01*
X11508361Y15367021D01*
X11550681D01*
X11571841Y15388181D01*
X11381402Y15367021D02*
Y15493979D01*
X11444882Y15430499D01*
X11360242D01*
X11200581Y15886819D02*
X11221741Y15907979D01*
X11264060D01*
X11285220Y15886819D01*
Y15802180D01*
X11264060Y15781020D01*
X11221741D01*
X11200581Y15802180D01*
X11073622Y15907979D02*
Y15781020D01*
X11137101D01*
X11158261Y15802180D01*
Y15844499D01*
X11137101Y15865659D01*
X11073622D01*
X11031302Y15781020D02*
X10988983D01*
X11010143D01*
Y15907979D01*
X11031302Y15886819D01*
X10840864Y15907979D02*
X10925503D01*
Y15844499D01*
X10883183Y15865659D01*
X10862024D01*
X10840864Y15844499D01*
Y15802180D01*
X10862024Y15781020D01*
X10904343D01*
X10925503Y15802180D01*
X10798544Y15886819D02*
X10777385Y15907979D01*
X10735065D01*
X10713905Y15886819D01*
Y15865659D01*
X10735065Y15844499D01*
X10756225D01*
X10735065D01*
X10713905Y15823340D01*
Y15802180D01*
X10735065Y15781020D01*
X10777385D01*
X10798544Y15802180D01*
X12812119Y15002921D02*
X12833278Y15024078D01*
X12875598D01*
X12896758Y15002921D01*
Y14918280D01*
X12875598Y14897121D01*
X12833278D01*
X12812119Y14918280D01*
X12685159Y15024078D02*
Y14897121D01*
X12748639D01*
X12769799Y14918280D01*
Y14960600D01*
X12748639Y14981760D01*
X12685159D01*
X12642840Y14897121D02*
X12600520D01*
X12621680D01*
Y15024078D01*
X12642840Y15002921D01*
X12452401Y15024078D02*
X12537041D01*
Y14960600D01*
X12494721Y14981760D01*
X12473561D01*
X12452401Y14960600D01*
Y14918280D01*
X12473561Y14897121D01*
X12515881D01*
X12537041Y14918280D01*
X12325442Y14897121D02*
X12410082D01*
X12325442Y14981760D01*
Y15002921D01*
X12346602Y15024078D01*
X12388922D01*
X12410082Y15002921D01*
X13070358Y14075819D02*
X13091518Y14096979D01*
X13133838D01*
X13154997Y14075819D01*
Y13991180D01*
X13133838Y13970021D01*
X13091518D01*
X13070358Y13991180D01*
X12943399Y14096979D02*
Y13970021D01*
X13006879D01*
X13028040Y13991180D01*
Y14033501D01*
X13006879Y14054660D01*
X12943399D01*
X12901080Y13970021D02*
X12858760D01*
X12879919D01*
Y14096979D01*
X12901080Y14075819D01*
X12710641Y14096979D02*
X12795281D01*
Y14033501D01*
X12752961Y14054660D01*
X12731801D01*
X12710641Y14033501D01*
Y13991180D01*
X12731801Y13970021D01*
X12774121D01*
X12795281Y13991180D01*
X12668322Y13970021D02*
X12626002D01*
X12647162D01*
Y14096979D01*
X12668322Y14075819D01*
X10068918Y18012820D02*
X10090078Y18033978D01*
X10132398D01*
X10153558Y18012820D01*
Y17928180D01*
X10132398Y17907021D01*
X10090078D01*
X10068918Y17928180D01*
X9941959Y18033978D02*
Y17907021D01*
X10005439D01*
X10026599Y17928180D01*
Y17970500D01*
X10005439Y17991660D01*
X9941959D01*
X9899640Y17907021D02*
X9857320D01*
X9878480D01*
Y18033978D01*
X9899640Y18012820D01*
X9730361Y17907021D02*
Y18033978D01*
X9793841Y17970500D01*
X9709201D01*
X9603402Y17907021D02*
Y18033978D01*
X9666882Y17970500D01*
X9582242D01*
X9459318Y18393820D02*
X9480478Y18414980D01*
X9522798D01*
X9543958Y18393820D01*
Y18309180D01*
X9522798Y18288020D01*
X9480478D01*
X9459318Y18309180D01*
X9332359Y18414980D02*
Y18288020D01*
X9395839D01*
X9416999Y18309180D01*
Y18351500D01*
X9395839Y18372659D01*
X9332359D01*
X9290040Y18288020D02*
X9247720D01*
X9268880D01*
Y18414980D01*
X9290040Y18393820D01*
X9120761Y18288020D02*
Y18414980D01*
X9184241Y18351500D01*
X9099601D01*
X9057282Y18393820D02*
X9036122Y18414980D01*
X8993802D01*
X8972642Y18393820D01*
Y18372659D01*
X8993802Y18351500D01*
X9014962D01*
X8993802D01*
X8972642Y18330341D01*
Y18309180D01*
X8993802Y18288020D01*
X9036122D01*
X9057282Y18309180D01*
X11034118Y17542920D02*
X11055278Y17564079D01*
X11097598D01*
X11118758Y17542920D01*
Y17458279D01*
X11097598Y17437122D01*
X11055278D01*
X11034118Y17458279D01*
X10907159Y17564079D02*
Y17437122D01*
X10970639D01*
X10991799Y17458279D01*
Y17500600D01*
X10970639Y17521761D01*
X10907159D01*
X10864840Y17437122D02*
X10822520D01*
X10843680D01*
Y17564079D01*
X10864840Y17542920D01*
X10695561Y17437122D02*
Y17564079D01*
X10759041Y17500600D01*
X10674401D01*
X10547442Y17437122D02*
X10632082D01*
X10547442Y17521761D01*
Y17542920D01*
X10568602Y17564079D01*
X10610922D01*
X10632082Y17542920D01*
X11292358Y16615820D02*
X11313518Y16636980D01*
X11355838D01*
X11376998Y16615820D01*
Y16531180D01*
X11355838Y16510020D01*
X11313518D01*
X11292358Y16531180D01*
X11165399Y16636980D02*
Y16510020D01*
X11228879D01*
X11250039Y16531180D01*
Y16573500D01*
X11228879Y16594659D01*
X11165399D01*
X11123080Y16510020D02*
X11080760D01*
X11101920D01*
Y16636980D01*
X11123080Y16615820D01*
X10953801Y16510020D02*
Y16636980D01*
X11017281Y16573500D01*
X10932641D01*
X10890322Y16510020D02*
X10848002D01*
X10869162D01*
Y16636980D01*
X10890322Y16615820D01*
X11846918Y19282820D02*
X11868078Y19303979D01*
X11910398D01*
X11931558Y19282820D01*
Y19198180D01*
X11910398Y19177020D01*
X11868078D01*
X11846918Y19198180D01*
X11719959Y19303979D02*
Y19177020D01*
X11783439D01*
X11804599Y19198180D01*
Y19240500D01*
X11783439Y19261659D01*
X11719959D01*
X11677640Y19177020D02*
X11635320D01*
X11656480D01*
Y19303979D01*
X11677640Y19282820D01*
X11571841D02*
X11550681Y19303979D01*
X11508361D01*
X11487201Y19282820D01*
Y19261659D01*
X11508361Y19240500D01*
X11529521D01*
X11508361D01*
X11487201Y19219341D01*
Y19198180D01*
X11508361Y19177020D01*
X11550681D01*
X11571841Y19198180D01*
X11381402Y19177020D02*
Y19303979D01*
X11444882Y19240500D01*
X11360242D01*
X11200581Y19696819D02*
X11221741Y19717979D01*
X11264060D01*
X11285220Y19696819D01*
Y19612180D01*
X11264060Y19591020D01*
X11221741D01*
X11200581Y19612180D01*
X11073622Y19717979D02*
Y19591020D01*
X11137101D01*
X11158261Y19612180D01*
Y19654498D01*
X11137101Y19675659D01*
X11073622D01*
X11031302Y19591020D02*
X10988983D01*
X11010143D01*
Y19717979D01*
X11031302Y19696819D01*
X10925503D02*
X10904343Y19717979D01*
X10862024D01*
X10840864Y19696819D01*
Y19675659D01*
X10862024Y19654498D01*
X10883183D01*
X10862024D01*
X10840864Y19633340D01*
Y19612180D01*
X10862024Y19591020D01*
X10904343D01*
X10925503Y19612180D01*
X10798544Y19696819D02*
X10777385Y19717979D01*
X10735065D01*
X10713905Y19696819D01*
Y19675659D01*
X10735065Y19654498D01*
X10756225D01*
X10735065D01*
X10713905Y19633340D01*
Y19612180D01*
X10735065Y19591020D01*
X10777385D01*
X10798544Y19612180D01*
X12812119Y18812920D02*
X12833278Y18834079D01*
X12875598D01*
X12896758Y18812920D01*
Y18728281D01*
X12875598Y18707121D01*
X12833278D01*
X12812119Y18728281D01*
X12685159Y18834079D02*
Y18707121D01*
X12748639D01*
X12769799Y18728281D01*
Y18770599D01*
X12748639Y18791760D01*
X12685159D01*
X12642840Y18707121D02*
X12600520D01*
X12621680D01*
Y18834079D01*
X12642840Y18812920D01*
X12537041D02*
X12515881Y18834079D01*
X12473561D01*
X12452401Y18812920D01*
Y18791760D01*
X12473561Y18770599D01*
X12494721D01*
X12473561D01*
X12452401Y18749440D01*
Y18728281D01*
X12473561Y18707121D01*
X12515881D01*
X12537041Y18728281D01*
X12325442Y18707121D02*
X12410082D01*
X12325442Y18791760D01*
Y18812920D01*
X12346602Y18834079D01*
X12388922D01*
X12410082Y18812920D01*
X13070358Y17885820D02*
X13091518Y17906979D01*
X13133838D01*
X13154997Y17885820D01*
Y17801180D01*
X13133838Y17780022D01*
X13091518D01*
X13070358Y17801180D01*
X12943399Y17906979D02*
Y17780022D01*
X13006879D01*
X13028040Y17801180D01*
Y17843500D01*
X13006879Y17864661D01*
X12943399D01*
X12901080Y17780022D02*
X12858760D01*
X12879919D01*
Y17906979D01*
X12901080Y17885820D01*
X12795281D02*
X12774121Y17906979D01*
X12731801D01*
X12710641Y17885820D01*
Y17864661D01*
X12731801Y17843500D01*
X12752961D01*
X12731801D01*
X12710641Y17822340D01*
Y17801180D01*
X12731801Y17780022D01*
X12774121D01*
X12795281Y17801180D01*
X12668322Y17780022D02*
X12626002D01*
X12647162D01*
Y17906979D01*
X12668322Y17885820D01*
X10068918Y21822820D02*
X10090078Y21843979D01*
X10132398D01*
X10153558Y21822820D01*
Y21738181D01*
X10132398Y21717021D01*
X10090078D01*
X10068918Y21738181D01*
X9941959Y21843979D02*
Y21717021D01*
X10005439D01*
X10026599Y21738181D01*
Y21780499D01*
X10005439Y21801660D01*
X9941959D01*
X9899640Y21717021D02*
X9857320D01*
X9878480D01*
Y21843979D01*
X9899640Y21822820D01*
X9709201Y21717021D02*
X9793841D01*
X9709201Y21801660D01*
Y21822820D01*
X9730361Y21843979D01*
X9772681D01*
X9793841Y21822820D01*
X9603402Y21717021D02*
Y21843979D01*
X9666882Y21780499D01*
X9582242D01*
X9459318Y22203819D02*
X9480478Y22224979D01*
X9522798D01*
X9543958Y22203819D01*
Y22119180D01*
X9522798Y22098021D01*
X9480478D01*
X9459318Y22119180D01*
X9332359Y22224979D02*
Y22098021D01*
X9395839D01*
X9416999Y22119180D01*
Y22161501D01*
X9395839Y22182660D01*
X9332359D01*
X9290040Y22098021D02*
X9247720D01*
X9268880D01*
Y22224979D01*
X9290040Y22203819D01*
X9099601Y22098021D02*
X9184241D01*
X9099601Y22182660D01*
Y22203819D01*
X9120761Y22224979D01*
X9163081D01*
X9184241Y22203819D01*
X9057282D02*
X9036122Y22224979D01*
X8993802D01*
X8972642Y22203819D01*
Y22182660D01*
X8993802Y22161501D01*
X9014962D01*
X8993802D01*
X8972642Y22140340D01*
Y22119180D01*
X8993802Y22098021D01*
X9036122D01*
X9057282Y22119180D01*
X11034118Y21352921D02*
X11055278Y21374078D01*
X11097598D01*
X11118758Y21352921D01*
Y21268280D01*
X11097598Y21247121D01*
X11055278D01*
X11034118Y21268280D01*
X10907159Y21374078D02*
Y21247121D01*
X10970639D01*
X10991799Y21268280D01*
Y21310600D01*
X10970639Y21331760D01*
X10907159D01*
X10864840Y21247121D02*
X10822520D01*
X10843680D01*
Y21374078D01*
X10864840Y21352921D01*
X10674401Y21247121D02*
X10759041D01*
X10674401Y21331760D01*
Y21352921D01*
X10695561Y21374078D01*
X10737881D01*
X10759041Y21352921D01*
X10547442Y21247121D02*
X10632082D01*
X10547442Y21331760D01*
Y21352921D01*
X10568602Y21374078D01*
X10610922D01*
X10632082Y21352921D01*
X11292358Y20425819D02*
X11313518Y20446979D01*
X11355838D01*
X11376998Y20425819D01*
Y20341180D01*
X11355838Y20320021D01*
X11313518D01*
X11292358Y20341180D01*
X11165399Y20446979D02*
Y20320021D01*
X11228879D01*
X11250039Y20341180D01*
Y20383501D01*
X11228879Y20404660D01*
X11165399D01*
X11123080Y20320021D02*
X11080760D01*
X11101920D01*
Y20446979D01*
X11123080Y20425819D01*
X10932641Y20320021D02*
X11017281D01*
X10932641Y20404660D01*
Y20425819D01*
X10953801Y20446979D01*
X10996121D01*
X11017281Y20425819D01*
X10890322Y20320021D02*
X10848002D01*
X10869162D01*
Y20446979D01*
X10890322Y20425819D01*
X11836338Y23092821D02*
X11857498Y23113979D01*
X11899818D01*
X11920978Y23092821D01*
Y23008180D01*
X11899818Y22987021D01*
X11857498D01*
X11836338Y23008180D01*
X11709379Y23113979D02*
Y22987021D01*
X11772859D01*
X11794019Y23008180D01*
Y23050500D01*
X11772859Y23071660D01*
X11709379D01*
X11667060Y22987021D02*
X11624740D01*
X11645900D01*
Y23113979D01*
X11667060Y23092821D01*
X11561261Y22987021D02*
X11518941D01*
X11540101D01*
Y23113979D01*
X11561261Y23092821D01*
X11391982Y22987021D02*
Y23113979D01*
X11455462Y23050500D01*
X11370822D01*
X11180261Y23506819D02*
X11201421Y23527979D01*
X11243740D01*
X11264900Y23506819D01*
Y23422180D01*
X11243740Y23401019D01*
X11201421D01*
X11180261Y23422180D01*
X11053302Y23527979D02*
Y23401019D01*
X11116781D01*
X11137941Y23422180D01*
Y23464499D01*
X11116781Y23485658D01*
X11053302D01*
X11010982Y23401019D02*
X10968663D01*
X10989823D01*
Y23527979D01*
X11010982Y23506819D01*
X10905183Y23401019D02*
X10862863D01*
X10884023D01*
Y23527979D01*
X10905183Y23506819D01*
X10799384D02*
X10778224Y23527979D01*
X10735905D01*
X10714745Y23506819D01*
Y23485658D01*
X10735905Y23464499D01*
X10757064D01*
X10735905D01*
X10714745Y23443340D01*
Y23422180D01*
X10735905Y23401019D01*
X10778224D01*
X10799384Y23422180D01*
X12801538Y22622920D02*
X12822697Y22644080D01*
X12865018D01*
X12886179Y22622920D01*
Y22538280D01*
X12865018Y22517120D01*
X12822697D01*
X12801538Y22538280D01*
X12674579Y22644080D02*
Y22517120D01*
X12738059D01*
X12759219Y22538280D01*
Y22580600D01*
X12738059Y22601759D01*
X12674579D01*
X12632260Y22517120D02*
X12589940D01*
X12611100D01*
Y22644080D01*
X12632260Y22622920D01*
X12526461Y22517120D02*
X12484141D01*
X12505301D01*
Y22644080D01*
X12526461Y22622920D01*
X12336022Y22517120D02*
X12420662D01*
X12336022Y22601759D01*
Y22622920D01*
X12357182Y22644080D01*
X12399502D01*
X12420662Y22622920D01*
X13059778Y21695821D02*
X13080939Y21716978D01*
X13123257D01*
X13144418Y21695821D01*
Y21611180D01*
X13123257Y21590021D01*
X13080939D01*
X13059778Y21611180D01*
X12932819Y21716978D02*
Y21590021D01*
X12996300D01*
X13017459Y21611180D01*
Y21653500D01*
X12996300Y21674660D01*
X12932819D01*
X12890500Y21590021D02*
X12848180D01*
X12869341D01*
Y21716978D01*
X12890500Y21695821D01*
X12784701Y21590021D02*
X12742381D01*
X12763541D01*
Y21716978D01*
X12784701Y21695821D01*
X12678902Y21590021D02*
X12636582D01*
X12657742D01*
Y21716978D01*
X12678902Y21695821D01*
%TF.MD5,24d12b0e243152ada5ab3be5c9ae7092*%
M02*
