%TF.GenerationSoftware,Altium Limited,Altium Designer,25.0.2 (28)*%
G04 Layer_Color=65535*
%FSLAX45Y45*%
%MOMM*%
%TF.SameCoordinates,851EA07A-CAD4-451F-9E8F-DAFD993EE7E7*%
%TF.FilePolarity,Positive*%
%TF.FileFunction,Legend,Top*%
%TF.Part,Single*%
G01*
G75*
%TA.AperFunction,NonConductor*%
%ADD37C,0.25000*%
%ADD38C,0.20000*%
%ADD39C,0.25400*%
%ADD40C,0.08000*%
%ADD41C,0.20320*%
D37*
X7340400Y3141090D02*
G03*
X7340400Y3141090I-12500J0D01*
G01*
Y6269610D02*
G03*
X7340400Y6269610I-12500J0D01*
G01*
X3140890Y4762500D02*
G03*
X3140890Y4762500I-12500J0D01*
G01*
D38*
X5110600Y4962000D02*
X5125600D01*
X5110600Y4817000D02*
X5125600D01*
X3699400Y4643240D02*
Y4658240D01*
X3844400Y4643240D02*
Y4658240D01*
X4646820Y5313800D02*
Y5328800D01*
X4791820Y5313800D02*
Y5328800D01*
X4345200Y4578500D02*
X4570200D01*
X4337700Y5076000D02*
X4577700D01*
X4150200D02*
X4370200D01*
X4285100Y4479400D02*
X4300100D01*
X4285100Y4334400D02*
X4300100D01*
X3961400Y5082700D02*
Y5102700D01*
X3836400Y5082700D02*
Y5102700D01*
X5548900Y4574700D02*
Y4594700D01*
X5423900Y4574700D02*
Y4594700D01*
X3420100Y4820000D02*
X3440100D01*
X3420100Y4705000D02*
X3440100D01*
D39*
X5499100Y5257800D02*
X5575300D01*
Y5334000D01*
X4889500Y5257800D02*
Y5334000D01*
Y5257800D02*
X4965700D01*
X4889500Y5867400D02*
X4965700D01*
X4889500Y5791200D02*
Y5867400D01*
X5575300Y5791200D02*
Y5867400D01*
X5499100D02*
X5575300D01*
X3886200Y3556000D02*
Y3632200D01*
Y3556000D02*
X3962400D01*
X3886200Y4241800D02*
X3962400D01*
X3886200Y4165600D02*
Y4241800D01*
X4495800Y4165600D02*
Y4241800D01*
X4419600D02*
X4495800D01*
X4419600Y3556000D02*
X4495800D01*
Y3632200D01*
X5257833Y5130783D02*
X5232441Y5156175D01*
X5181658D01*
X5156266Y5130783D01*
Y5029217D01*
X5181658Y5003825D01*
X5232441D01*
X5257833Y5029217D01*
X5410184Y5003825D02*
X5308617D01*
X5410184Y5105392D01*
Y5130783D01*
X5384792Y5156175D01*
X5334008D01*
X5308617Y5130783D01*
X5460967Y5080000D02*
X5562534D01*
X5511751Y5130783D02*
Y5029217D01*
X6705633Y3340075D02*
X6654849D01*
X6680241D01*
Y3213117D01*
X6654849Y3187725D01*
X6629458D01*
X6604066Y3213117D01*
X6756417Y3187725D02*
Y3340075D01*
X6832592D01*
X6857984Y3314683D01*
Y3263900D01*
X6832592Y3238508D01*
X6756417D01*
X6807200D02*
X6857984Y3187725D01*
X7010334Y3340075D02*
X6908767D01*
Y3263900D01*
X6959551D01*
X6908767D01*
Y3187725D01*
X6578658Y6248375D02*
X6527874D01*
X6553266D01*
Y6121417D01*
X6527874Y6096025D01*
X6502482D01*
X6477090Y6121417D01*
X6705617Y6248375D02*
X6654833D01*
X6629441Y6222983D01*
Y6121417D01*
X6654833Y6096025D01*
X6705617D01*
X6731008Y6121417D01*
Y6222983D01*
X6705617Y6248375D01*
X6781792D02*
Y6121417D01*
X6807184Y6096025D01*
X6857967D01*
X6883359Y6121417D01*
Y6248375D01*
X6934143D02*
X7035710D01*
X6984926D01*
Y6096025D01*
X3289341Y4597383D02*
X3263950Y4622775D01*
X3213166D01*
X3187774Y4597383D01*
Y4495817D01*
X3213166Y4470425D01*
X3263950D01*
X3289341Y4495817D01*
X3365517Y4470425D02*
Y4597383D01*
Y4546600D01*
X3340125D01*
X3390908D01*
X3365517D01*
Y4597383D01*
X3390908Y4622775D01*
X3467084Y4470425D02*
X3517867D01*
X3492476D01*
Y4571992D01*
X3467084D01*
X3594043Y4470425D02*
X3644826D01*
X3619434D01*
Y4622775D01*
X3594043D01*
X5118129Y5905483D02*
X5092737Y5930875D01*
X5041954D01*
X5016562Y5905483D01*
Y5803917D01*
X5041954Y5778525D01*
X5092737D01*
X5118129Y5803917D01*
X5168912Y5778525D02*
X5219696D01*
X5194304D01*
Y5930875D01*
X5168912Y5905483D01*
X5295871Y5854700D02*
X5397439D01*
X5346655Y5905483D02*
Y5803917D01*
X4521233Y5664183D02*
X4495841Y5689575D01*
X4445058D01*
X4419666Y5664183D01*
Y5562617D01*
X4445058Y5537225D01*
X4495841D01*
X4521233Y5562617D01*
X4648192Y5537225D02*
X4597408D01*
X4572017Y5562617D01*
Y5613400D01*
X4597408Y5638792D01*
X4648192D01*
X4673584Y5613400D01*
Y5588008D01*
X4572017D01*
X4825934Y5689575D02*
Y5537225D01*
X4749759D01*
X4724367Y5562617D01*
Y5613400D01*
X4749759Y5638792D01*
X4825934D01*
X4584733Y4432283D02*
X4559341Y4457675D01*
X4508558D01*
X4483166Y4432283D01*
Y4330717D01*
X4508558Y4305325D01*
X4559341D01*
X4584733Y4330717D01*
X4737084Y4305325D02*
X4635517D01*
X4737084Y4406892D01*
Y4432283D01*
X4711692Y4457675D01*
X4660908D01*
X4635517Y4432283D01*
X4787867Y4381500D02*
X4889434D01*
X3502369Y5356132D02*
Y5508483D01*
X3578544D01*
X3603936Y5483091D01*
Y5432307D01*
X3578544Y5406915D01*
X3502369D01*
X3553152D02*
X3603936Y5356132D01*
X3654719Y5330740D02*
X3756287D01*
X3832462Y5356132D02*
Y5483091D01*
Y5432307D01*
X3807070D01*
X3857854D01*
X3832462D01*
Y5483091D01*
X3857854Y5508483D01*
X4035596D02*
Y5356132D01*
X3959421D01*
X3934029Y5381524D01*
Y5432307D01*
X3959421Y5457699D01*
X4035596D01*
X6045241Y5778475D02*
X6146808D01*
X6096025D01*
Y5626125D01*
X6197592Y5753083D02*
X6222984Y5778475D01*
X6273767D01*
X6299159Y5753083D01*
Y5651517D01*
X6273767Y5626125D01*
X6222984D01*
X6197592Y5651517D01*
Y5753083D01*
X2730529Y5537175D02*
X2679745D01*
X2705137D01*
Y5410217D01*
X2679745Y5384825D01*
X2654354D01*
X2628962Y5410217D01*
X2781312Y5537175D02*
X2832096D01*
X2806704D01*
Y5384825D01*
X2781312D01*
X2832096D01*
X2908271D02*
Y5537175D01*
X3009839Y5384825D01*
Y5537175D01*
X5118215Y4229117D02*
Y4381467D01*
X5194390D01*
X5219782Y4356075D01*
Y4305292D01*
X5194390Y4279900D01*
X5118215D01*
X5168999D02*
X5219782Y4229117D01*
X5270566Y4203725D02*
X5372133D01*
X5473700Y4178333D02*
X5499092D01*
X5524484Y4203725D01*
Y4330684D01*
X5448308D01*
X5422917Y4305292D01*
Y4254508D01*
X5448308Y4229117D01*
X5524484D01*
X5575267D02*
Y4330684D01*
X5651443D01*
X5676834Y4305292D01*
Y4229117D01*
X5829185Y4381467D02*
Y4229117D01*
X5753010D01*
X5727618Y4254508D01*
Y4305292D01*
X5753010Y4330684D01*
X5829185D01*
X4102129Y3949683D02*
X4076737Y3975075D01*
X4025954D01*
X4000562Y3949683D01*
Y3848117D01*
X4025954Y3822725D01*
X4076737D01*
X4102129Y3848117D01*
X4152912Y3822725D02*
X4203696D01*
X4178304D01*
Y3975075D01*
X4152912Y3949683D01*
X4279871Y3898900D02*
X4381439D01*
X3124527Y4913837D02*
X3123984Y5066186D01*
X3200159Y5066457D01*
X3225641Y5041156D01*
X3225822Y4990373D01*
X3200521Y4964891D01*
X3124346Y4964620D01*
X3175129Y4964800D02*
X3226093Y4914198D01*
X3276967Y4888987D02*
X3378533Y4889349D01*
X3454618Y4915012D02*
X3454166Y5041970D01*
X3454347Y4991186D01*
X3428955Y4991096D01*
X3479738Y4991277D01*
X3454347Y4991186D01*
X3454166Y5041970D01*
X3479467Y5067452D01*
X3556184Y4915373D02*
X3606967Y4915554D01*
X3581576Y4915463D01*
X3581214Y5017030D01*
X3555823Y5016940D01*
X3683142Y4915825D02*
X3733925Y4916006D01*
X3708534Y4915915D01*
X3707992Y5068265D01*
X3682600Y5068175D01*
D40*
X6045200Y3492500D02*
X8102600D01*
X6045200D02*
Y5549900D01*
X8102600D01*
Y3492500D02*
Y5549900D01*
D41*
X7409180Y5595620D02*
X7256829D01*
Y5671795D01*
X7282221Y5697187D01*
X7333005D01*
X7358397Y5671795D01*
Y5595620D01*
Y5646403D02*
X7409180Y5697187D01*
X7256829Y5849538D02*
Y5747971D01*
X7333005D01*
Y5798754D01*
Y5747971D01*
X7409180D01*
X7333005Y5900321D02*
Y6001889D01*
X7282221Y5951105D02*
X7383788D01*
X7256829Y6052672D02*
X7409180D01*
Y6128848D01*
X7383788Y6154239D01*
X7282221D01*
X7256829Y6128848D01*
Y6052672D01*
X7282221Y6306590D02*
X7256829Y6281198D01*
Y6230415D01*
X7282221Y6205023D01*
X7383788D01*
X7409180Y6230415D01*
Y6281198D01*
X7383788Y6306590D01*
X5859829Y4655820D02*
X6012180D01*
Y4731995D01*
X5986788Y4757387D01*
X5885221D01*
X5859829Y4731995D01*
Y4655820D01*
X5885221Y4909738D02*
X5859829Y4884346D01*
Y4833563D01*
X5885221Y4808171D01*
X5986788D01*
X6012180Y4833563D01*
Y4884346D01*
X5986788Y4909738D01*
X7409180Y3208020D02*
X7256829D01*
Y3284195D01*
X7282221Y3309587D01*
X7333005D01*
X7358397Y3284195D01*
Y3208020D01*
Y3258803D02*
X7409180Y3309587D01*
X7256829Y3461938D02*
Y3360371D01*
X7333005D01*
Y3411154D01*
Y3360371D01*
X7409180D01*
%TF.MD5,273b3f7ff7e456246c55ad72f4cc353b*%
M02*
