%TF.GenerationSoftware,Altium Limited,Altium Designer,25.0.2 (28)*%
G04 Layer_Physical_Order=2*
G04 Layer_Color=16711680*
%FSLAX45Y45*%
%MOMM*%
%TF.SameCoordinates,851EA07A-CAD4-451F-9E8F-DAFD993EE7E7*%
%TF.FilePolarity,Positive*%
%TF.FileFunction,Copper,L2,Bot,Signal*%
%TF.Part,Single*%
G01*
G75*
%TA.AperFunction,ConnectorPad*%
%ADD11R,2.41300X5.08000*%
%ADD18R,5.08000X2.41300*%
%TA.AperFunction,ViaPad*%
%ADD31C,1.34620*%
%ADD32C,1.39700*%
%TA.AperFunction,ComponentPad*%
%ADD33C,1.52400*%
%TA.AperFunction,ViaPad*%
%ADD34C,1.01600*%
%ADD35C,0.91440*%
%ADD36C,0.50000*%
G36*
X8242300Y2552700D02*
X2552700D01*
Y6845300D01*
X8242300D01*
Y2552700D01*
D02*
G37*
%LPC*%
G36*
X4345413Y5509260D02*
X4315987D01*
X4287562Y5501644D01*
X4262078Y5486930D01*
X4241270Y5466122D01*
X4226556Y5440638D01*
X4218940Y5412213D01*
Y5382787D01*
X4226556Y5354362D01*
X4241270Y5328878D01*
X4262078Y5308070D01*
X4287562Y5293356D01*
X4315987Y5285740D01*
X4345413D01*
X4373838Y5293356D01*
X4399322Y5308070D01*
X4420130Y5328878D01*
X4434844Y5354362D01*
X4442460Y5382787D01*
Y5412213D01*
X4434844Y5440638D01*
X4420130Y5466122D01*
X4399322Y5486930D01*
X4373838Y5501644D01*
X4345413Y5509260D01*
D02*
G37*
G36*
X7345957Y5420360D02*
X7309843D01*
X7274958Y5411013D01*
X7243682Y5392955D01*
X7218145Y5367418D01*
X7200087Y5336142D01*
X7190740Y5301257D01*
Y5265143D01*
X7200087Y5230258D01*
X7218145Y5198982D01*
X7243682Y5173445D01*
X7274958Y5155387D01*
X7309843Y5146040D01*
X7345957D01*
X7380842Y5155387D01*
X7412118Y5173445D01*
X7437655Y5198982D01*
X7455713Y5230258D01*
X7465060Y5265143D01*
Y5301257D01*
X7455713Y5336142D01*
X7437655Y5367418D01*
X7412118Y5392955D01*
X7380842Y5411013D01*
X7345957Y5420360D01*
D02*
G37*
G36*
X4534017Y5106960D02*
X4511383D01*
X4489521Y5101102D01*
X4469919Y5089785D01*
X4457700Y5077566D01*
X4445481Y5089785D01*
X4425879Y5101102D01*
X4404017Y5106960D01*
X4381383D01*
X4359521Y5101102D01*
X4339919Y5089785D01*
X4323915Y5073781D01*
X4312598Y5054179D01*
X4306740Y5032317D01*
Y5009683D01*
X4312598Y4987821D01*
X4323915Y4968219D01*
X4336134Y4956000D01*
X4323915Y4943781D01*
X4312598Y4924179D01*
X4306740Y4902317D01*
Y4879683D01*
X4312598Y4857821D01*
X4323915Y4838219D01*
X4336134Y4826000D01*
X4323915Y4813781D01*
X4312598Y4794179D01*
X4306740Y4772317D01*
Y4749683D01*
X4312598Y4727821D01*
X4323915Y4708219D01*
X4336134Y4696000D01*
X4323915Y4683781D01*
X4312598Y4664179D01*
X4306740Y4642317D01*
Y4619683D01*
X4312598Y4597821D01*
X4323915Y4578219D01*
X4339919Y4562215D01*
X4359521Y4550898D01*
X4381383Y4545040D01*
X4404017D01*
X4425879Y4550898D01*
X4445481Y4562215D01*
X4457700Y4574434D01*
X4469919Y4562215D01*
X4489521Y4550898D01*
X4511383Y4545040D01*
X4534017D01*
X4555879Y4550898D01*
X4575481Y4562215D01*
X4591485Y4578219D01*
X4602802Y4597821D01*
X4608660Y4619683D01*
Y4642317D01*
X4602802Y4664179D01*
X4591485Y4683781D01*
X4579266Y4696000D01*
X4591485Y4708219D01*
X4602802Y4727821D01*
X4608660Y4749683D01*
Y4772317D01*
X4602802Y4794179D01*
X4591485Y4813781D01*
X4579266Y4826000D01*
X4591485Y4838219D01*
X4602802Y4857821D01*
X4608660Y4879683D01*
Y4902317D01*
X4602802Y4924179D01*
X4591485Y4943781D01*
X4579266Y4956000D01*
X4591485Y4968219D01*
X4602802Y4987821D01*
X4608660Y5009683D01*
Y5032317D01*
X4602802Y5054179D01*
X4591485Y5073781D01*
X4575481Y5089785D01*
X4555879Y5101102D01*
X4534017Y5106960D01*
D02*
G37*
G36*
X5023227Y5259070D02*
X4989453D01*
X4956830Y5250329D01*
X4927580Y5233442D01*
X4903698Y5209560D01*
X4886811Y5180310D01*
X4878070Y5147687D01*
Y5113913D01*
X4886811Y5081290D01*
X4903698Y5052040D01*
X4927580Y5028158D01*
X4956830Y5011271D01*
X4989453Y5002530D01*
X5023227D01*
X5055850Y5011271D01*
X5085100Y5028158D01*
X5108982Y5052040D01*
X5125869Y5081290D01*
X5134610Y5113913D01*
Y5147687D01*
X5125869Y5180310D01*
X5108982Y5209560D01*
X5085100Y5233442D01*
X5055850Y5250329D01*
X5023227Y5259070D01*
D02*
G37*
G36*
X6329957Y4912360D02*
X6293843D01*
X6258958Y4903013D01*
X6227682Y4884955D01*
X6202145Y4859418D01*
X6184087Y4828142D01*
X6174740Y4793257D01*
Y4757143D01*
X6184087Y4722258D01*
X6202145Y4690982D01*
X6227682Y4665445D01*
X6258958Y4647387D01*
X6293843Y4638040D01*
X6329957D01*
X6364842Y4647387D01*
X6396118Y4665445D01*
X6421655Y4690982D01*
X6439713Y4722258D01*
X6449060Y4757143D01*
Y4793257D01*
X6439713Y4828142D01*
X6421655Y4859418D01*
X6396118Y4884955D01*
X6364842Y4903013D01*
X6329957Y4912360D01*
D02*
G37*
G36*
X3966921Y4537710D02*
X3932479D01*
X3899209Y4528796D01*
X3869381Y4511574D01*
X3845026Y4487219D01*
X3827804Y4457391D01*
X3818890Y4424121D01*
Y4389679D01*
X3827804Y4356409D01*
X3845026Y4326581D01*
X3869381Y4302226D01*
X3899209Y4285004D01*
X3932479Y4276090D01*
X3966921D01*
X4000191Y4285004D01*
X4030019Y4302226D01*
X4054374Y4326581D01*
X4071596Y4356409D01*
X4080510Y4389679D01*
Y4424121D01*
X4071596Y4457391D01*
X4054374Y4487219D01*
X4030019Y4511574D01*
X4000191Y4528796D01*
X3966921Y4537710D01*
D02*
G37*
G36*
X7345957Y3896360D02*
X7309843D01*
X7274958Y3887013D01*
X7243682Y3868955D01*
X7218145Y3843418D01*
X7200087Y3812142D01*
X7190740Y3777257D01*
Y3741143D01*
X7200087Y3706258D01*
X7218145Y3674982D01*
X7243682Y3649445D01*
X7274958Y3631387D01*
X7309843Y3622040D01*
X7345957D01*
X7380842Y3631387D01*
X7412118Y3649445D01*
X7437655Y3674982D01*
X7455713Y3706258D01*
X7465060Y3741143D01*
Y3777257D01*
X7455713Y3812142D01*
X7437655Y3843418D01*
X7412118Y3868955D01*
X7380842Y3887013D01*
X7345957Y3896360D01*
D02*
G37*
%LPD*%
D11*
X7766050Y2832100D02*
D03*
X6889750D02*
D03*
Y6578600D02*
D03*
X7766050D02*
D03*
D18*
X2819400Y4324350D02*
D03*
Y5200650D02*
D03*
D31*
X5006340Y5130800D02*
D03*
D32*
X3949700Y4406900D02*
D03*
D33*
X7835900Y5283200D02*
D03*
Y4775200D02*
D03*
Y4267200D02*
D03*
Y3759200D02*
D03*
X7327900Y5283200D02*
D03*
Y4775200D02*
D03*
Y4267200D02*
D03*
Y3759200D02*
D03*
X6819900Y5283200D02*
D03*
Y4775200D02*
D03*
Y4267200D02*
D03*
Y3759200D02*
D03*
X6311900Y5283200D02*
D03*
Y4775200D02*
D03*
Y4267200D02*
D03*
Y3759200D02*
D03*
D34*
X4330700Y5397500D02*
D03*
D35*
X7243638Y3975573D02*
D03*
X7145648Y3903030D02*
D03*
X7097914Y3790843D02*
D03*
X7094766Y3668964D02*
D03*
Y3547044D02*
D03*
Y3425124D02*
D03*
Y3303204D02*
D03*
Y3181284D02*
D03*
Y3059364D02*
D03*
Y2937444D02*
D03*
X7095752Y2815528D02*
D03*
Y2693608D02*
D03*
X7560048Y2734353D02*
D03*
X7561034Y2856269D02*
D03*
Y2978189D02*
D03*
Y3100109D02*
D03*
Y3222029D02*
D03*
Y3343949D02*
D03*
Y3465869D02*
D03*
Y3587789D02*
D03*
Y3709709D02*
D03*
X7548968Y3831031D02*
D03*
X7482280Y3933096D02*
D03*
X7373121Y3987398D02*
D03*
X7095752Y6765739D02*
D03*
Y6643819D02*
D03*
X7094766Y6521903D02*
D03*
Y6399983D02*
D03*
Y6278063D02*
D03*
Y6156143D02*
D03*
Y6034223D02*
D03*
Y5912303D02*
D03*
Y5790383D02*
D03*
Y5668463D02*
D03*
Y5546543D02*
D03*
Y5424623D02*
D03*
Y5302703D02*
D03*
X7118112Y5183039D02*
D03*
X7197583Y5090579D02*
D03*
X7312925Y5051074D02*
D03*
X7432377Y5075483D02*
D03*
X7523060Y5156975D02*
D03*
X7560026Y5273156D02*
D03*
X7561034Y5395072D02*
D03*
Y5516992D02*
D03*
Y5638912D02*
D03*
Y5760832D02*
D03*
Y5882752D02*
D03*
Y6004672D02*
D03*
Y6126592D02*
D03*
Y6248512D02*
D03*
Y6370432D02*
D03*
Y6492352D02*
D03*
X7560048Y6614268D02*
D03*
Y6736188D02*
D03*
D36*
X4392700Y4891000D02*
D03*
X4522700D02*
D03*
X4392700Y4761000D02*
D03*
X4522700D02*
D03*
X4392700Y4631000D02*
D03*
X4522700D02*
D03*
X4392700Y5021000D02*
D03*
X4522700D02*
D03*
%TF.MD5,ab0cb6b2c58ec9aa8f44486280667556*%
M02*
