%TF.GenerationSoftware,Altium Limited,Altium Designer,25.0.2 (28)*%
G04 Layer_Color=0*
%FSLAX45Y45*%
%MOMM*%
%TF.SameCoordinates,851EA07A-CAD4-451F-9E8F-DAFD993EE7E7*%
%TF.FilePolarity,Positive*%
%TF.FileFunction,Plated,1,2,PTH,Drill*%
%TF.Part,Single*%
G01*
G75*
%TA.AperFunction,OtherDrill,Pad Free-2 (50.063mm,51.308mm)*%
%ADD59C,0.76200*%
%TA.AperFunction,OtherDrill,Pad Free-1 (39.497mm,44.069mm)*%
%ADD60C,0.76200*%
%TA.AperFunction,ComponentDrill*%
%ADD61C,1.01600*%
%TA.AperFunction,OtherDrill,Pad Free-3 (43.307mm,53.975mm)*%
%ADD62C,0.71120*%
%TA.AperFunction,ViaDrill,NotFilled*%
%ADD63C,0.60960*%
%ADD64C,0.20000*%
D59*
X5006340Y5130800D02*
D03*
D60*
X3949700Y4406900D02*
D03*
D61*
X7835900Y5283200D02*
D03*
Y4775200D02*
D03*
Y4267200D02*
D03*
Y3759200D02*
D03*
X7327900Y5283200D02*
D03*
Y4775200D02*
D03*
Y4267200D02*
D03*
Y3759200D02*
D03*
X6819900Y5283200D02*
D03*
Y4775200D02*
D03*
Y4267200D02*
D03*
Y3759200D02*
D03*
X6311900Y5283200D02*
D03*
Y4775200D02*
D03*
Y4267200D02*
D03*
Y3759200D02*
D03*
D62*
X4330700Y5397500D02*
D03*
D63*
X7243638Y3975573D02*
D03*
X7145648Y3903030D02*
D03*
X7097914Y3790843D02*
D03*
X7094766Y3668964D02*
D03*
Y3547044D02*
D03*
Y3425124D02*
D03*
Y3303204D02*
D03*
Y3181284D02*
D03*
Y3059364D02*
D03*
Y2937444D02*
D03*
X7095752Y2815528D02*
D03*
Y2693608D02*
D03*
X7560048Y2734353D02*
D03*
X7561034Y2856269D02*
D03*
Y2978189D02*
D03*
Y3100109D02*
D03*
Y3222029D02*
D03*
Y3343949D02*
D03*
Y3465869D02*
D03*
Y3587789D02*
D03*
Y3709709D02*
D03*
X7548968Y3831031D02*
D03*
X7482280Y3933096D02*
D03*
X7373121Y3987398D02*
D03*
X7095752Y6765739D02*
D03*
Y6643819D02*
D03*
X7094766Y6521903D02*
D03*
Y6399983D02*
D03*
Y6278063D02*
D03*
Y6156143D02*
D03*
Y6034223D02*
D03*
Y5912303D02*
D03*
Y5790383D02*
D03*
Y5668463D02*
D03*
Y5546543D02*
D03*
Y5424623D02*
D03*
Y5302703D02*
D03*
X7118112Y5183039D02*
D03*
X7197583Y5090579D02*
D03*
X7312925Y5051074D02*
D03*
X7432377Y5075483D02*
D03*
X7523060Y5156975D02*
D03*
X7560026Y5273156D02*
D03*
X7561034Y5395072D02*
D03*
Y5516992D02*
D03*
Y5638912D02*
D03*
Y5760832D02*
D03*
Y5882752D02*
D03*
Y6004672D02*
D03*
Y6126592D02*
D03*
Y6248512D02*
D03*
Y6370432D02*
D03*
Y6492352D02*
D03*
X7560048Y6614268D02*
D03*
Y6736188D02*
D03*
D64*
X4392700Y4891000D02*
D03*
X4522700D02*
D03*
X4392700Y4761000D02*
D03*
X4522700D02*
D03*
X4392700Y4631000D02*
D03*
X4522700D02*
D03*
X4392700Y5021000D02*
D03*
X4522700D02*
D03*
%TF.MD5,ee46a09a056818e3f0fc84dac0c25c4f*%
M02*
