%TF.GenerationSoftware,Altium Limited,Altium Designer,25.0.2 (28)*%
G04 Layer_Color=8421504*
%FSLAX45Y45*%
%MOMM*%
%TF.SameCoordinates,851EA07A-CAD4-451F-9E8F-DAFD993EE7E7*%
%TF.FilePolarity,Positive*%
%TF.FileFunction,Paste,Top*%
%TF.Part,Single*%
G01*
G75*
%TA.AperFunction,SMDPad,CuDef*%
%ADD10R,0.95000X1.40000*%
%TA.AperFunction,ConnectorPad*%
%ADD11R,2.41300X5.08000*%
%ADD12R,2.28600X5.08000*%
%TA.AperFunction,SMDPad,CuDef*%
%ADD13R,1.40000X0.95000*%
%ADD14R,2.28600X3.04800*%
G04:AMPARAMS|DCode=15|XSize=0.55mm|YSize=1.25mm|CornerRadius=0.0495mm|HoleSize=0mm|Usage=FLASHONLY|Rotation=90.000|XOffset=0mm|YOffset=0mm|HoleType=Round|Shape=RoundedRectangle|*
%AMROUNDEDRECTD15*
21,1,0.55000,1.15100,0,0,90.0*
21,1,0.45100,1.25000,0,0,90.0*
1,1,0.09900,0.57550,0.22550*
1,1,0.09900,0.57550,-0.22550*
1,1,0.09900,-0.57550,-0.22550*
1,1,0.09900,-0.57550,0.22550*
%
%ADD15ROUNDEDRECTD15*%
%ADD17R,1.45000X1.20000*%
%TA.AperFunction,ConnectorPad*%
%ADD18R,5.08000X2.41300*%
%ADD19R,5.08000X2.28600*%
%TA.AperFunction,SMDPad,CuDef*%
%ADD20R,3.04800X2.28600*%
%ADD21R,1.00000X1.35000*%
%TA.AperFunction,OtherPad,Pad U_amp-9 (44.577mm,48.26mm)*%
G04:AMPARAMS|DCode=42|XSize=2.49mm|YSize=3mm|CornerRadius=0.0498mm|HoleSize=0mm|Usage=FLASHONLY|Rotation=0.000|XOffset=0mm|YOffset=0mm|HoleType=Round|Shape=RoundedRectangle|*
%AMROUNDEDRECTD42*
21,1,2.49000,2.90040,0,0,0.0*
21,1,2.39040,3.00000,0,0,0.0*
1,1,0.09960,1.19520,-1.45020*
1,1,0.09960,-1.19520,-1.45020*
1,1,0.09960,-1.19520,1.45020*
1,1,0.09960,1.19520,1.45020*
%
%ADD42ROUNDEDRECTD42*%
D10*
X5025600Y4889500D02*
D03*
X5210600D02*
D03*
X4200100Y4406900D02*
D03*
X4385100D02*
D03*
D11*
X6889750Y2832100D02*
D03*
X7766050D02*
D03*
Y6578600D02*
D03*
X6889750D02*
D03*
D12*
X7327900Y2832100D02*
D03*
Y6578600D02*
D03*
D13*
X3771900Y4558240D02*
D03*
Y4743240D02*
D03*
X4719320Y5228800D02*
D03*
Y5413800D02*
D03*
D14*
X5461000Y5562600D02*
D03*
X5003800D02*
D03*
D15*
X4720200Y4635500D02*
D03*
Y4762500D02*
D03*
Y4889500D02*
D03*
Y5016500D02*
D03*
X4195200Y4635500D02*
D03*
Y4762500D02*
D03*
Y4889500D02*
D03*
Y5016500D02*
D03*
D17*
X3898900Y5192700D02*
D03*
Y4992700D02*
D03*
X5486400Y4684700D02*
D03*
Y4484700D02*
D03*
D18*
X2819400Y5200650D02*
D03*
Y4324350D02*
D03*
D19*
Y4762500D02*
D03*
D20*
X4191000Y3670300D02*
D03*
Y4127500D02*
D03*
D21*
X3340100Y4762500D02*
D03*
X3520100D02*
D03*
D42*
X4457700Y4826000D02*
D03*
%TF.MD5,11f788ec8e604167f693993023669872*%
M02*
