%TF.GenerationSoftware,Altium Limited,Altium Designer,25.0.2 (28)*%
G04 Layer_Physical_Order=1*
G04 Layer_Color=255*
%FSLAX45Y45*%
%MOMM*%
%TF.SameCoordinates,851EA07A-CAD4-451F-9E8F-DAFD993EE7E7*%
%TF.FilePolarity,Positive*%
%TF.FileFunction,Copper,L1,Top,Signal*%
%TF.Part,Single*%
G01*
G75*
%TA.AperFunction,SMDPad,CuDef*%
%ADD10R,0.95000X1.40000*%
%TA.AperFunction,ConnectorPad*%
%ADD11R,2.41300X5.08000*%
%ADD12R,2.28600X5.08000*%
%TA.AperFunction,SMDPad,CuDef*%
%ADD13R,1.40000X0.95000*%
%ADD14R,2.28600X3.04800*%
G04:AMPARAMS|DCode=15|XSize=0.55mm|YSize=1.25mm|CornerRadius=0.0495mm|HoleSize=0mm|Usage=FLASHONLY|Rotation=90.000|XOffset=0mm|YOffset=0mm|HoleType=Round|Shape=RoundedRectangle|*
%AMROUNDEDRECTD15*
21,1,0.55000,1.15100,0,0,90.0*
21,1,0.45100,1.25000,0,0,90.0*
1,1,0.09900,0.57550,0.22550*
1,1,0.09900,0.57550,-0.22550*
1,1,0.09900,-0.57550,-0.22550*
1,1,0.09900,-0.57550,0.22550*
%
%ADD15ROUNDEDRECTD15*%
%TA.AperFunction,SMDPad,SMDef*%
G04:AMPARAMS|DCode=16|XSize=2.95mm|YSize=4.9mm|CornerRadius=0.059mm|HoleSize=0mm|Usage=FLASHONLY|Rotation=0.000|XOffset=0mm|YOffset=0mm|HoleType=Round|Shape=RoundedRectangle|*
%AMROUNDEDRECTD16*
21,1,2.95000,4.78200,0,0,0.0*
21,1,2.83200,4.90000,0,0,0.0*
1,1,0.11800,1.41600,-2.39100*
1,1,0.11800,-1.41600,-2.39100*
1,1,0.11800,-1.41600,2.39100*
1,1,0.11800,1.41600,2.39100*
%
%ADD16ROUNDEDRECTD16*%
%TA.AperFunction,SMDPad,CuDef*%
%ADD17R,1.45000X1.20000*%
%TA.AperFunction,ConnectorPad*%
%ADD18R,5.08000X2.41300*%
%ADD19R,5.08000X2.28600*%
%TA.AperFunction,SMDPad,CuDef*%
%ADD20R,3.04800X2.28600*%
%ADD21R,1.00000X1.35000*%
%TA.AperFunction,Conductor*%
%ADD22C,2.28600*%
%ADD23C,1.34620*%
%ADD24C,0.55880*%
%ADD25C,1.39700*%
%ADD26C,1.14300*%
%ADD27C,0.93980*%
%ADD28C,1.32080*%
%ADD29C,1.44780*%
%ADD30C,1.16840*%
%TA.AperFunction,ViaPad*%
%ADD31C,1.34620*%
%ADD32C,1.39700*%
%TA.AperFunction,ComponentPad*%
%ADD33C,1.52400*%
%TA.AperFunction,ViaPad*%
%ADD34C,1.01600*%
%ADD35C,0.91440*%
%ADD36C,0.50000*%
G36*
X8242300Y2552700D02*
X7503160D01*
Y2823489D01*
X7504008Y2832100D01*
Y3759200D01*
X7500624Y3793557D01*
X7490603Y3826594D01*
X7474328Y3857041D01*
X7452427Y3883727D01*
X7425741Y3905628D01*
X7395294Y3921903D01*
X7362257Y3931924D01*
X7327900Y3935308D01*
X7293543Y3931924D01*
X7260506Y3921903D01*
X7230059Y3905628D01*
X7203373Y3883727D01*
X7181472Y3857041D01*
X7165197Y3826594D01*
X7155176Y3793557D01*
X7151792Y3759200D01*
Y2832100D01*
X7152640Y2823489D01*
Y2552700D01*
X2552700D01*
Y4622800D01*
X3072126D01*
X3073095Y4622607D01*
X3074064Y4622800D01*
X3098800D01*
Y4627867D01*
X3276672Y4668990D01*
X3314700D01*
X3319334Y4669600D01*
X3415500D01*
Y4855400D01*
X3319334D01*
X3314700Y4856010D01*
X3276672D01*
X3098800Y4897133D01*
Y4902200D01*
X3074064D01*
X3073095Y4902393D01*
X3072126Y4902200D01*
X2552700D01*
Y6845300D01*
X7152640D01*
Y6587211D01*
X7151792Y6578600D01*
Y5283200D01*
X7155176Y5248843D01*
X7165197Y5215806D01*
X7181472Y5185359D01*
X7203373Y5158673D01*
X7230059Y5136772D01*
X7260506Y5120497D01*
X7293543Y5110476D01*
X7327900Y5107092D01*
X7362257Y5110476D01*
X7395294Y5120497D01*
X7425741Y5136772D01*
X7452427Y5158673D01*
X7474328Y5185359D01*
X7490603Y5215806D01*
X7500624Y5248843D01*
X7504008Y5283200D01*
Y6578600D01*
X7503160Y6587211D01*
Y6845300D01*
X8242300D01*
Y2552700D01*
D02*
G37*
G36*
X3275025Y4829810D02*
Y4695190D01*
X3073095Y4648505D01*
Y4876495D01*
X3275025Y4829810D01*
D02*
G37*
%LPC*%
G36*
X4252750Y5055405D02*
X4137650D01*
X4126085Y5050614D01*
X4121295Y5039050D01*
Y4993950D01*
X4126085Y4982386D01*
X4137650Y4977595D01*
X4252750D01*
X4264315Y4982386D01*
X4269105Y4993950D01*
Y5039050D01*
X4264315Y5050614D01*
X4252750Y5055405D01*
D02*
G37*
G36*
X5562600Y6203710D02*
X4241800D01*
X4210635Y6199607D01*
X4181595Y6187578D01*
X4156657Y6168443D01*
X3813757Y5825543D01*
X3794622Y5800605D01*
X3782593Y5771565D01*
X3778490Y5740400D01*
Y5578371D01*
X3775169Y5570354D01*
X3770804Y5537200D01*
Y5424010D01*
X3768982Y5419611D01*
X3764399Y5384800D01*
Y5232400D01*
X3765440Y5224496D01*
Y5071740D01*
X3801000D01*
Y4907300D01*
X3868216D01*
X3947855Y4879332D01*
X3976144Y4851044D01*
X3993788Y4839255D01*
X4014600Y4835115D01*
X4195200D01*
X4199677Y4836006D01*
X4252750D01*
X4264592Y4838361D01*
X4274631Y4845069D01*
X4281339Y4855108D01*
X4283695Y4866950D01*
Y4912050D01*
X4281339Y4923892D01*
X4274631Y4933931D01*
X4264592Y4940639D01*
X4252750Y4942994D01*
X4199677D01*
X4195200Y4943885D01*
X4037127D01*
X4024768Y4956244D01*
X3996800Y5035884D01*
Y5071740D01*
X4032360D01*
Y5224496D01*
X4033401Y5232400D01*
Y5384800D01*
X4028818Y5419611D01*
X4026996Y5424010D01*
Y5537200D01*
X4022631Y5570354D01*
X4019310Y5578371D01*
Y5690525D01*
X4291675Y5962890D01*
X5512725D01*
X5696190Y5779424D01*
Y4952924D01*
X5696054Y4952335D01*
X5695450Y4932328D01*
X5693938Y4917376D01*
X5691748Y4905917D01*
X5689352Y4898155D01*
X5688230Y4895763D01*
X5685517Y4895514D01*
X5681554Y4894340D01*
X5660035Y4891507D01*
X5630995Y4879478D01*
X5606057Y4860343D01*
X5551374Y4805660D01*
X5494378D01*
X5486400Y4806710D01*
X5134060D01*
Y4876749D01*
X5135739Y4889500D01*
X5135717Y4889666D01*
Y5130800D01*
Y5349240D01*
X5179060D01*
Y5775960D01*
X4828540D01*
Y5349240D01*
X4876963D01*
Y5130800D01*
Y5004853D01*
X4874331Y5003762D01*
X4856184Y4989838D01*
X4853936Y4988754D01*
X4851343Y4987907D01*
X4843855Y4986178D01*
X4834511Y4984636D01*
X4814804Y4983359D01*
X4808108Y4991000D01*
X4808694Y4993950D01*
Y5039050D01*
X4806339Y5050892D01*
X4799631Y5060931D01*
X4798772Y5061505D01*
Y5155900D01*
X4814720D01*
Y5301700D01*
X4720190D01*
X4719320Y5301815D01*
X4529644D01*
X4397829Y5433629D01*
X4391675Y5444288D01*
X4377488Y5458475D01*
X4360112Y5468507D01*
X4340732Y5473700D01*
X4320668D01*
X4301288Y5468507D01*
X4283912Y5458475D01*
X4269725Y5444288D01*
X4259693Y5426912D01*
X4254500Y5407532D01*
Y5387468D01*
X4259693Y5368088D01*
X4269725Y5350712D01*
X4283912Y5336525D01*
X4294571Y5330371D01*
X4447771Y5177171D01*
X4462893Y5165568D01*
X4480502Y5158273D01*
X4499400Y5155785D01*
X4632248D01*
Y5046980D01*
X4632660Y5043849D01*
X4631705Y5039050D01*
Y4993950D01*
X4634061Y4982108D01*
X4634686Y4981172D01*
X4631945Y4971340D01*
X4624620Y4967635D01*
X4615675Y4972602D01*
Y5065100D01*
X4614428Y5071366D01*
X4610879Y5076679D01*
X4605566Y5080228D01*
X4599300Y5081475D01*
X4316100D01*
X4309834Y5080228D01*
X4304521Y5076679D01*
X4300972Y5071366D01*
X4299725Y5065100D01*
Y4718601D01*
X4290780Y4713634D01*
X4283454Y4717340D01*
X4280713Y4727172D01*
X4281339Y4728108D01*
X4283695Y4739950D01*
Y4785050D01*
X4281339Y4796892D01*
X4274631Y4806931D01*
X4264592Y4813639D01*
X4252750Y4815994D01*
X4199677D01*
X4195200Y4816885D01*
X4022999D01*
X3990979Y4818065D01*
X3958505Y4821072D01*
X3946371Y4822985D01*
X3936686Y4825128D01*
X3929983Y4827237D01*
X3926801Y4828714D01*
X3907555Y4843482D01*
X3885002Y4852824D01*
X3860800Y4856010D01*
X3784650D01*
X3784459Y4855985D01*
X3556025D01*
X3551582Y4855400D01*
X3444700D01*
Y4669600D01*
X3551200D01*
X3556025Y4668965D01*
X3784413D01*
X3784600Y4668940D01*
X3784978Y4668990D01*
X3860800D01*
X3885002Y4672176D01*
X3907555Y4681518D01*
X3926801Y4696286D01*
X3929983Y4697763D01*
X3936686Y4699872D01*
X3946371Y4702015D01*
X3958112Y4703866D01*
X4027131Y4708115D01*
X4080182D01*
X4085192Y4697955D01*
X4080078Y4691289D01*
X4073436Y4675256D01*
X4071171Y4658050D01*
Y4612950D01*
X4071789Y4608257D01*
X4071363Y4605020D01*
Y4538839D01*
X3949700D01*
X3941126Y4537710D01*
X3932479D01*
X3924125Y4535472D01*
X3915552Y4534343D01*
X3907563Y4531034D01*
X3899209Y4528796D01*
X3891720Y4524472D01*
X3883731Y4521162D01*
X3876870Y4515898D01*
X3869381Y4511574D01*
X3863266Y4505459D01*
X3856405Y4500195D01*
X3851141Y4493334D01*
X3845026Y4487219D01*
X3840702Y4479730D01*
X3835438Y4472869D01*
X3832128Y4464880D01*
X3827804Y4457391D01*
X3825566Y4449037D01*
X3822257Y4441048D01*
X3821128Y4432475D01*
X3818890Y4424121D01*
Y4415474D01*
X3817761Y4406900D01*
X3818890Y4398326D01*
Y4389679D01*
X3821128Y4381325D01*
X3822257Y4372752D01*
X3825566Y4364763D01*
X3827804Y4356409D01*
X3832128Y4348920D01*
X3835438Y4340931D01*
X3840702Y4334070D01*
X3845026Y4326581D01*
X3851141Y4320466D01*
X3856405Y4313605D01*
X3863266Y4308341D01*
X3869381Y4302226D01*
X3876870Y4297902D01*
X3883731Y4292638D01*
X3891720Y4289328D01*
X3899209Y4285004D01*
X3907563Y4282766D01*
X3915552Y4279457D01*
X3924125Y4278328D01*
X3932479Y4276090D01*
X3941126D01*
X3949700Y4274961D01*
X3977640D01*
Y3952240D01*
X4404360D01*
Y4302760D01*
X4309731D01*
Y4368800D01*
X4308560Y4377692D01*
Y4436941D01*
X4309621Y4445000D01*
Y4561455D01*
X4316100Y4570525D01*
X4599300D01*
X4605566Y4571772D01*
X4610879Y4575321D01*
X4614428Y4580634D01*
X4615675Y4586900D01*
Y4681432D01*
X4624787Y4685926D01*
X4629411Y4682378D01*
X4644375Y4676179D01*
X4645761Y4674824D01*
X4649173Y4664998D01*
X4646295Y4658050D01*
Y4612950D01*
X4651085Y4601386D01*
X4662650Y4596595D01*
X4777750D01*
X4789315Y4601386D01*
X4794105Y4612950D01*
Y4653218D01*
X4804265Y4657427D01*
X4838796Y4622896D01*
X4857366Y4608646D01*
X4878993Y4599688D01*
X4902200Y4596633D01*
X4948405D01*
X4950286Y4596219D01*
X5007724Y4595046D01*
X5033839Y4593141D01*
X5042288Y4592076D01*
X5047648Y4591112D01*
X5059495Y4582022D01*
X5088535Y4569993D01*
X5119700Y4565890D01*
X5352940D01*
Y4563740D01*
X5619860D01*
Y4566812D01*
X5631865Y4568392D01*
X5660905Y4580421D01*
X5685843Y4599557D01*
X5741076Y4654790D01*
X5818024D01*
X5818795Y4654665D01*
X5819326Y4654790D01*
X6185336D01*
X6186099Y4654629D01*
X6247573Y4653960D01*
X6258958Y4647387D01*
X6293843Y4638040D01*
X6329957D01*
X6364842Y4647387D01*
X6396118Y4665445D01*
X6421655Y4690982D01*
X6439713Y4722258D01*
X6449060Y4757143D01*
Y4793257D01*
X6439713Y4828142D01*
X6421655Y4859418D01*
X6396118Y4884955D01*
X6364842Y4903013D01*
X6329957Y4912360D01*
X6293843D01*
X6258958Y4903013D01*
X6249148Y4897349D01*
X6185227Y4895755D01*
X6184583Y4895610D01*
X5995435D01*
X5995127Y4895688D01*
X5976721Y4896657D01*
X5965108Y4898706D01*
X5957015Y4901404D01*
X5951814Y4904205D01*
X5948399Y4906999D01*
X5945605Y4910414D01*
X5942804Y4915615D01*
X5940106Y4923709D01*
X5938057Y4935321D01*
X5937088Y4953727D01*
X5937010Y4954035D01*
Y5829300D01*
X5932908Y5860465D01*
X5920878Y5889505D01*
X5901743Y5914443D01*
X5647743Y6168443D01*
X5622805Y6187578D01*
X5593765Y6199607D01*
X5562600Y6203710D01*
D02*
G37*
%LPD*%
G36*
X4002706Y4940908D02*
X3963192Y4901394D01*
X3872312Y4933310D01*
X3970790Y5031788D01*
X4002706Y4940908D01*
D02*
G37*
G36*
X4890939Y4840078D02*
X4885524Y4844159D01*
X4877882Y4847811D01*
X4868013Y4851034D01*
X4855918Y4853826D01*
X4841595Y4856189D01*
X4806270Y4859627D01*
X4762038Y4861345D01*
X4736581Y4861560D01*
Y4917440D01*
X4762038Y4917655D01*
X4841595Y4922811D01*
X4855918Y4925174D01*
X4868013Y4927966D01*
X4877882Y4931189D01*
X4885524Y4934841D01*
X4890939Y4938922D01*
Y4840078D01*
D02*
G37*
G36*
X5876188Y4928260D02*
X5879694Y4908398D01*
X5885536Y4890872D01*
X5893714Y4875682D01*
X5904230Y4862830D01*
X5917082Y4852314D01*
X5932272Y4844136D01*
X5949798Y4838294D01*
X5969660Y4834788D01*
X5991860Y4833620D01*
X5816600Y4716780D01*
X5691200Y4833620D01*
X5703926Y4834788D01*
X5715313Y4838294D01*
X5725360Y4844136D01*
X5734067Y4852314D01*
X5741435Y4862830D01*
X5747463Y4875682D01*
X5752152Y4890872D01*
X5755501Y4908398D01*
X5757510Y4928260D01*
X5758180Y4950460D01*
X5875020D01*
X5876188Y4928260D01*
D02*
G37*
G36*
X3913396Y4806385D02*
X3920604Y4803038D01*
X3929990Y4800086D01*
X3941553Y4797527D01*
X3955293Y4795361D01*
X3989306Y4792212D01*
X4032030Y4790637D01*
X4056657Y4790440D01*
Y4734560D01*
X4032030Y4734363D01*
X3955293Y4729639D01*
X3941553Y4727473D01*
X3929990Y4724914D01*
X3920604Y4721962D01*
X3913396Y4718615D01*
X3908366Y4714875D01*
Y4810125D01*
X3913396Y4806385D01*
D02*
G37*
G36*
X6265418Y4714819D02*
X6264173Y4715191D01*
X6261457Y4715525D01*
X6251613Y4716074D01*
X6186776Y4716780D01*
Y4833620D01*
X6265418Y4835581D01*
Y4714819D01*
D02*
G37*
G36*
X5078417Y4644965D02*
X5074734Y4647510D01*
X5069050Y4649787D01*
X5061366Y4651796D01*
X5051681Y4653538D01*
X5039995Y4655011D01*
X5010621Y4657155D01*
X4951554Y4658360D01*
Y4714240D01*
X4973244Y4714374D01*
X5051681Y4719062D01*
X5061366Y4720804D01*
X5069050Y4722813D01*
X5074734Y4725090D01*
X5078417Y4727635D01*
Y4644965D01*
D02*
G37*
D10*
X5025600Y4889500D02*
D03*
X5210600D02*
D03*
X4200100Y4406900D02*
D03*
X4385100D02*
D03*
D11*
X6889750Y2832100D02*
D03*
X7766050D02*
D03*
Y6578600D02*
D03*
X6889750D02*
D03*
D12*
X7327900Y2832100D02*
D03*
Y6578600D02*
D03*
D13*
X3771900Y4558240D02*
D03*
Y4743240D02*
D03*
X4719320Y5228800D02*
D03*
Y5413800D02*
D03*
D14*
X5461000Y5562600D02*
D03*
X5003800D02*
D03*
D15*
X4720200Y4635500D02*
D03*
Y4762500D02*
D03*
Y4889500D02*
D03*
Y5016500D02*
D03*
X4195200Y4635500D02*
D03*
Y4762500D02*
D03*
Y4889500D02*
D03*
Y5016500D02*
D03*
D16*
X4457700Y4826000D02*
D03*
D17*
X3898900Y5192700D02*
D03*
Y4992700D02*
D03*
X5486400Y4684700D02*
D03*
Y4484700D02*
D03*
D18*
X2819400Y5200650D02*
D03*
Y4324350D02*
D03*
D19*
Y4762500D02*
D03*
D20*
X4191000Y3670300D02*
D03*
Y4127500D02*
D03*
D21*
X3340100Y4762500D02*
D03*
X3520100D02*
D03*
D22*
X7327900Y2832100D02*
Y3759200D01*
Y5283200D02*
Y6578600D01*
D23*
X5006340Y4889500D02*
Y5130800D01*
Y5560060D01*
X5003800Y5562600D02*
X5006340Y5560060D01*
X3784650Y4762500D02*
X3860800D01*
X3784600Y4762450D02*
X3784650Y4762500D01*
X3556025Y4762475D02*
X3784575D01*
X2819400Y4762500D02*
X3314700D01*
D24*
X4720199Y4889500D02*
X4940300D01*
X3898900Y4992700D02*
X3911400D01*
X4014600Y4889500D01*
X4195200D01*
X4902200Y4686300D02*
X5119700D01*
X4826440Y4762060D02*
X4902200Y4686300D01*
X4720200Y4762500D02*
X4720640Y4762060D01*
X4826440D01*
X3860800Y4762500D02*
X4195200D01*
D25*
X4940300Y4889500D02*
X5003800D01*
X4177792Y4127500D02*
Y4368800D01*
X3949700Y4406900D02*
X4152900D01*
D26*
X4715510Y5046980D02*
Y5207000D01*
X4190492Y4445000D02*
Y4605020D01*
D27*
X4330700Y5397500D02*
X4499400Y5228800D01*
X4719320D01*
D28*
X3898900Y5384800D02*
Y5537200D01*
X3556000Y4762500D02*
X3556025Y4762475D01*
X3784575D02*
X3784600Y4762450D01*
D29*
X3898900Y5232400D02*
Y5384800D01*
D30*
Y5537200D02*
Y5740400D01*
X5816600Y4775200D02*
X6311900D01*
X5691200D02*
X5816600D01*
X3898900Y5740400D02*
X4241800Y6083300D01*
X5562600D01*
X5816600Y5829300D01*
Y4775200D02*
Y5829300D01*
X5119700Y4686300D02*
X5486400D01*
X5600700Y4684700D02*
X5691200Y4775200D01*
X5486400Y4684700D02*
X5600700D01*
D31*
X5006340Y5130800D02*
D03*
D32*
X3949700Y4406900D02*
D03*
D33*
X7835900Y5283200D02*
D03*
Y4775200D02*
D03*
Y4267200D02*
D03*
Y3759200D02*
D03*
X7327900Y5283200D02*
D03*
Y4775200D02*
D03*
Y4267200D02*
D03*
Y3759200D02*
D03*
X6819900Y5283200D02*
D03*
Y4775200D02*
D03*
Y4267200D02*
D03*
Y3759200D02*
D03*
X6311900Y5283200D02*
D03*
Y4775200D02*
D03*
Y4267200D02*
D03*
Y3759200D02*
D03*
D34*
X4330700Y5397500D02*
D03*
D35*
X7243638Y3975573D02*
D03*
X7145648Y3903030D02*
D03*
X7097914Y3790843D02*
D03*
X7094766Y3668964D02*
D03*
Y3547044D02*
D03*
Y3425124D02*
D03*
Y3303204D02*
D03*
Y3181284D02*
D03*
Y3059364D02*
D03*
Y2937444D02*
D03*
X7095752Y2815528D02*
D03*
Y2693608D02*
D03*
X7560048Y2734353D02*
D03*
X7561034Y2856269D02*
D03*
Y2978189D02*
D03*
Y3100109D02*
D03*
Y3222029D02*
D03*
Y3343949D02*
D03*
Y3465869D02*
D03*
Y3587789D02*
D03*
Y3709709D02*
D03*
X7548968Y3831031D02*
D03*
X7482280Y3933096D02*
D03*
X7373121Y3987398D02*
D03*
X7095752Y6765739D02*
D03*
Y6643819D02*
D03*
X7094766Y6521903D02*
D03*
Y6399983D02*
D03*
Y6278063D02*
D03*
Y6156143D02*
D03*
Y6034223D02*
D03*
Y5912303D02*
D03*
Y5790383D02*
D03*
Y5668463D02*
D03*
Y5546543D02*
D03*
Y5424623D02*
D03*
Y5302703D02*
D03*
X7118112Y5183039D02*
D03*
X7197583Y5090579D02*
D03*
X7312925Y5051074D02*
D03*
X7432377Y5075483D02*
D03*
X7523060Y5156975D02*
D03*
X7560026Y5273156D02*
D03*
X7561034Y5395072D02*
D03*
Y5516992D02*
D03*
Y5638912D02*
D03*
Y5760832D02*
D03*
Y5882752D02*
D03*
Y6004672D02*
D03*
Y6126592D02*
D03*
Y6248512D02*
D03*
Y6370432D02*
D03*
Y6492352D02*
D03*
X7560048Y6614268D02*
D03*
Y6736188D02*
D03*
D36*
X4392700Y4891000D02*
D03*
X4522700D02*
D03*
X4392700Y4761000D02*
D03*
X4522700D02*
D03*
X4392700Y4631000D02*
D03*
X4522700D02*
D03*
X4392700Y5021000D02*
D03*
X4522700D02*
D03*
%TF.MD5,a9f2711c25c143a8662ce4774eabdbf8*%
M02*
