%TF.GenerationSoftware,Altium Limited,Altium Designer,25.0.2 (28)*%
G04 Layer_Physical_Order=2*
G04 Layer_Color=16711680*
%FSLAX45Y45*%
%MOMM*%
%TF.SameCoordinates,44E48E83-7C08-43AE-99C3-F3FE45A01566*%
%TF.FilePolarity,Positive*%
%TF.FileFunction,Copper,L2,Bot,Signal*%
%TF.Part,Single*%
G01*
G75*
%TA.AperFunction,Conductor*%
%ADD10C,0.38100*%
%TA.AperFunction,ComponentPad*%
%ADD11C,2.54000*%
%ADD12C,1.06680*%
G36*
X8991600Y2603500D02*
X2603500D01*
Y5867400D01*
X8991600D01*
Y2603500D01*
D02*
G37*
%LPC*%
G36*
X7251700Y5793115D02*
Y5727700D01*
X7317115D01*
X7312374Y5745393D01*
X7302008Y5763347D01*
X7287347Y5778008D01*
X7269393Y5788374D01*
X7251700Y5793115D01*
D02*
G37*
G36*
X6997700D02*
Y5727700D01*
X7063115D01*
X7058374Y5745393D01*
X7048008Y5763347D01*
X7033347Y5778008D01*
X7015393Y5788374D01*
X6997700Y5793115D01*
D02*
G37*
G36*
X5981700D02*
Y5727700D01*
X6047115D01*
X6042374Y5745393D01*
X6032008Y5763347D01*
X6017347Y5778008D01*
X5999393Y5788374D01*
X5981700Y5793115D01*
D02*
G37*
G36*
X4965700D02*
Y5727700D01*
X5031115D01*
X5026374Y5745393D01*
X5016008Y5763347D01*
X5001347Y5778008D01*
X4983393Y5788374D01*
X4965700Y5793115D01*
D02*
G37*
G36*
X4711700D02*
Y5727700D01*
X4777115D01*
X4772374Y5745393D01*
X4762008Y5763347D01*
X4747347Y5778008D01*
X4729393Y5788374D01*
X4711700Y5793115D01*
D02*
G37*
G36*
X3695700D02*
Y5727700D01*
X3761115D01*
X3756374Y5745393D01*
X3746008Y5763347D01*
X3731347Y5778008D01*
X3713393Y5788374D01*
X3695700Y5793115D01*
D02*
G37*
G36*
X7505700D02*
Y5727700D01*
X7571115D01*
X7566374Y5745393D01*
X7556008Y5763347D01*
X7541347Y5778008D01*
X7523393Y5788374D01*
X7505700Y5793115D01*
D02*
G37*
G36*
X6743700D02*
Y5727700D01*
X6809115D01*
X6804374Y5745393D01*
X6794008Y5763347D01*
X6779347Y5778008D01*
X6761393Y5788374D01*
X6743700Y5793115D01*
D02*
G37*
G36*
X6235700D02*
Y5727700D01*
X6301115D01*
X6296374Y5745393D01*
X6286008Y5763347D01*
X6271347Y5778008D01*
X6253393Y5788374D01*
X6235700Y5793115D01*
D02*
G37*
G36*
X5727700D02*
Y5727700D01*
X5793115D01*
X5788374Y5745393D01*
X5778008Y5763347D01*
X5763347Y5778008D01*
X5745393Y5788374D01*
X5727700Y5793115D01*
D02*
G37*
G36*
X5219700D02*
Y5727700D01*
X5285115D01*
X5280374Y5745393D01*
X5270008Y5763347D01*
X5255347Y5778008D01*
X5237393Y5788374D01*
X5219700Y5793115D01*
D02*
G37*
G36*
X4457700D02*
Y5727700D01*
X4523115D01*
X4518374Y5745393D01*
X4508008Y5763347D01*
X4493347Y5778008D01*
X4475393Y5788374D01*
X4457700Y5793115D01*
D02*
G37*
G36*
X3949700D02*
Y5727700D01*
X4015115D01*
X4010374Y5745393D01*
X4000008Y5763347D01*
X3985347Y5778008D01*
X3967393Y5788374D01*
X3949700Y5793115D01*
D02*
G37*
G36*
X7759700D02*
Y5727700D01*
X7825115D01*
X7820374Y5745393D01*
X7810008Y5763347D01*
X7795347Y5778008D01*
X7777393Y5788374D01*
X7759700Y5793115D01*
D02*
G37*
G36*
X6489700D02*
Y5727700D01*
X6555115D01*
X6550374Y5745393D01*
X6540008Y5763347D01*
X6525347Y5778008D01*
X6507393Y5788374D01*
X6489700Y5793115D01*
D02*
G37*
G36*
X5473700D02*
Y5727700D01*
X5539115D01*
X5534374Y5745393D01*
X5524008Y5763347D01*
X5509347Y5778008D01*
X5491393Y5788374D01*
X5473700Y5793115D01*
D02*
G37*
G36*
X4203700D02*
Y5727700D01*
X4269115D01*
X4264374Y5745393D01*
X4254008Y5763347D01*
X4239347Y5778008D01*
X4221393Y5788374D01*
X4203700Y5793115D01*
D02*
G37*
G36*
X6972300D02*
X6954607Y5788374D01*
X6936653Y5778008D01*
X6921992Y5763347D01*
X6911626Y5745393D01*
X6906885Y5727700D01*
X6972300D01*
Y5793115D01*
D02*
G37*
G36*
X4686300D02*
X4668607Y5788374D01*
X4650653Y5778008D01*
X4635992Y5763347D01*
X4625626Y5745393D01*
X4620885Y5727700D01*
X4686300D01*
Y5793115D01*
D02*
G37*
G36*
X3670300D02*
X3652607Y5788374D01*
X3634653Y5778008D01*
X3619992Y5763347D01*
X3609626Y5745393D01*
X3604885Y5727700D01*
X3670300D01*
Y5793115D01*
D02*
G37*
G36*
X7226300D02*
X7208607Y5788374D01*
X7190653Y5778008D01*
X7175992Y5763347D01*
X7165626Y5745393D01*
X7160885Y5727700D01*
X7226300D01*
Y5793115D01*
D02*
G37*
G36*
X5956300D02*
X5938607Y5788374D01*
X5920653Y5778008D01*
X5905992Y5763347D01*
X5895626Y5745393D01*
X5890885Y5727700D01*
X5956300D01*
Y5793115D01*
D02*
G37*
G36*
X4940300D02*
X4922607Y5788374D01*
X4904653Y5778008D01*
X4889992Y5763347D01*
X4879626Y5745393D01*
X4874885Y5727700D01*
X4940300D01*
Y5793115D01*
D02*
G37*
G36*
X6718300D02*
X6700607Y5788374D01*
X6682653Y5778008D01*
X6667992Y5763347D01*
X6657626Y5745393D01*
X6652885Y5727700D01*
X6718300D01*
Y5793115D01*
D02*
G37*
G36*
X4432300D02*
X4414607Y5788374D01*
X4396653Y5778008D01*
X4381992Y5763347D01*
X4371626Y5745393D01*
X4366885Y5727700D01*
X4432300D01*
Y5793115D01*
D02*
G37*
G36*
X7480300D02*
X7462607Y5788374D01*
X7444653Y5778008D01*
X7429992Y5763347D01*
X7419626Y5745393D01*
X7414885Y5727700D01*
X7480300D01*
Y5793115D01*
D02*
G37*
G36*
X6210300D02*
X6192607Y5788374D01*
X6174653Y5778008D01*
X6159992Y5763347D01*
X6149626Y5745393D01*
X6144885Y5727700D01*
X6210300D01*
Y5793115D01*
D02*
G37*
G36*
X5702300D02*
X5684607Y5788374D01*
X5666653Y5778008D01*
X5651992Y5763347D01*
X5641626Y5745393D01*
X5636885Y5727700D01*
X5702300D01*
Y5793115D01*
D02*
G37*
G36*
X5194300D02*
X5176607Y5788374D01*
X5158653Y5778008D01*
X5143992Y5763347D01*
X5133626Y5745393D01*
X5128885Y5727700D01*
X5194300D01*
Y5793115D01*
D02*
G37*
G36*
X3924300D02*
X3906607Y5788374D01*
X3888653Y5778008D01*
X3873992Y5763347D01*
X3863626Y5745393D01*
X3858885Y5727700D01*
X3924300D01*
Y5793115D01*
D02*
G37*
G36*
X4178300D02*
X4160607Y5788374D01*
X4142653Y5778008D01*
X4127992Y5763347D01*
X4117626Y5745393D01*
X4112885Y5727700D01*
X4178300D01*
Y5793115D01*
D02*
G37*
G36*
X6464300D02*
X6446607Y5788374D01*
X6428653Y5778008D01*
X6413992Y5763347D01*
X6403626Y5745393D01*
X6398885Y5727700D01*
X6464300D01*
Y5793115D01*
D02*
G37*
G36*
X7734300D02*
X7716607Y5788374D01*
X7698653Y5778008D01*
X7683992Y5763347D01*
X7673626Y5745393D01*
X7668885Y5727700D01*
X7734300D01*
Y5793115D01*
D02*
G37*
G36*
X5448300D02*
X5430607Y5788374D01*
X5412653Y5778008D01*
X5397992Y5763347D01*
X5387626Y5745393D01*
X5382885Y5727700D01*
X5448300D01*
Y5793115D01*
D02*
G37*
G36*
X4269115Y5702300D02*
X4203700D01*
Y5636885D01*
X4221393Y5641626D01*
X4239347Y5651992D01*
X4254008Y5666653D01*
X4264374Y5684607D01*
X4269115Y5702300D01*
D02*
G37*
G36*
X4015115D02*
X3949700D01*
Y5636885D01*
X3967393Y5641626D01*
X3985347Y5651992D01*
X4000008Y5666653D01*
X4010374Y5684607D01*
X4015115Y5702300D01*
D02*
G37*
G36*
X3761115D02*
X3695700D01*
Y5636885D01*
X3713393Y5641626D01*
X3731347Y5651992D01*
X3746008Y5666653D01*
X3756374Y5684607D01*
X3761115Y5702300D01*
D02*
G37*
G36*
X7825115D02*
X7759700D01*
Y5636885D01*
X7777393Y5641626D01*
X7795347Y5651992D01*
X7810008Y5666653D01*
X7820374Y5684607D01*
X7825115Y5702300D01*
D02*
G37*
G36*
X7571115D02*
X7505700D01*
Y5636885D01*
X7523393Y5641626D01*
X7541347Y5651992D01*
X7556008Y5666653D01*
X7566374Y5684607D01*
X7571115Y5702300D01*
D02*
G37*
G36*
X7317115D02*
X7251700D01*
Y5636885D01*
X7269393Y5641626D01*
X7287347Y5651992D01*
X7302008Y5666653D01*
X7312374Y5684607D01*
X7317115Y5702300D01*
D02*
G37*
G36*
X7063115D02*
X6997700D01*
Y5636885D01*
X7015393Y5641626D01*
X7033347Y5651992D01*
X7048008Y5666653D01*
X7058374Y5684607D01*
X7063115Y5702300D01*
D02*
G37*
G36*
X6809115D02*
X6743700D01*
Y5636885D01*
X6761393Y5641626D01*
X6779347Y5651992D01*
X6794008Y5666653D01*
X6804374Y5684607D01*
X6809115Y5702300D01*
D02*
G37*
G36*
X6555115D02*
X6489700D01*
Y5636885D01*
X6507393Y5641626D01*
X6525347Y5651992D01*
X6540008Y5666653D01*
X6550374Y5684607D01*
X6555115Y5702300D01*
D02*
G37*
G36*
X6301115D02*
X6235700D01*
Y5636885D01*
X6253393Y5641626D01*
X6271347Y5651992D01*
X6286008Y5666653D01*
X6296374Y5684607D01*
X6301115Y5702300D01*
D02*
G37*
G36*
X6047115D02*
X5981700D01*
Y5636885D01*
X5999393Y5641626D01*
X6017347Y5651992D01*
X6032008Y5666653D01*
X6042374Y5684607D01*
X6047115Y5702300D01*
D02*
G37*
G36*
X5793115D02*
X5727700D01*
Y5636885D01*
X5745393Y5641626D01*
X5763347Y5651992D01*
X5778008Y5666653D01*
X5788374Y5684607D01*
X5793115Y5702300D01*
D02*
G37*
G36*
X5539115D02*
X5473700D01*
Y5636885D01*
X5491393Y5641626D01*
X5509347Y5651992D01*
X5524008Y5666653D01*
X5534374Y5684607D01*
X5539115Y5702300D01*
D02*
G37*
G36*
X5285115D02*
X5219700D01*
Y5636885D01*
X5237393Y5641626D01*
X5255347Y5651992D01*
X5270008Y5666653D01*
X5280374Y5684607D01*
X5285115Y5702300D01*
D02*
G37*
G36*
X5031115D02*
X4965700D01*
Y5636885D01*
X4983393Y5641626D01*
X5001347Y5651992D01*
X5016008Y5666653D01*
X5026374Y5684607D01*
X5031115Y5702300D01*
D02*
G37*
G36*
X4777115D02*
X4711700D01*
Y5636885D01*
X4729393Y5641626D01*
X4747347Y5651992D01*
X4762008Y5666653D01*
X4772374Y5684607D01*
X4777115Y5702300D01*
D02*
G37*
G36*
X4523115D02*
X4457700D01*
Y5636885D01*
X4475393Y5641626D01*
X4493347Y5651992D01*
X4508008Y5666653D01*
X4518374Y5684607D01*
X4523115Y5702300D01*
D02*
G37*
G36*
X4178300D02*
X4112885D01*
X4117626Y5684607D01*
X4127992Y5666653D01*
X4142653Y5651992D01*
X4160607Y5641626D01*
X4178300Y5636885D01*
Y5702300D01*
D02*
G37*
G36*
X3924300D02*
X3858885D01*
X3863626Y5684607D01*
X3873992Y5666653D01*
X3888653Y5651992D01*
X3906607Y5641626D01*
X3924300Y5636885D01*
Y5702300D01*
D02*
G37*
G36*
X3670300D02*
X3604885D01*
X3609626Y5684607D01*
X3619992Y5666653D01*
X3634653Y5651992D01*
X3652607Y5641626D01*
X3670300Y5636885D01*
Y5702300D01*
D02*
G37*
G36*
X7734300D02*
X7668885D01*
X7673626Y5684607D01*
X7683992Y5666653D01*
X7698653Y5651992D01*
X7716607Y5641626D01*
X7734300Y5636885D01*
Y5702300D01*
D02*
G37*
G36*
X7480300D02*
X7414885D01*
X7419626Y5684607D01*
X7429992Y5666653D01*
X7444653Y5651992D01*
X7462607Y5641626D01*
X7480300Y5636885D01*
Y5702300D01*
D02*
G37*
G36*
X7226300D02*
X7160885D01*
X7165626Y5684607D01*
X7175992Y5666653D01*
X7190653Y5651992D01*
X7208607Y5641626D01*
X7226300Y5636885D01*
Y5702300D01*
D02*
G37*
G36*
X6972300D02*
X6906885D01*
X6911626Y5684607D01*
X6921992Y5666653D01*
X6936653Y5651992D01*
X6954607Y5641626D01*
X6972300Y5636885D01*
Y5702300D01*
D02*
G37*
G36*
X6718300D02*
X6652885D01*
X6657626Y5684607D01*
X6667992Y5666653D01*
X6682653Y5651992D01*
X6700607Y5641626D01*
X6718300Y5636885D01*
Y5702300D01*
D02*
G37*
G36*
X6464300D02*
X6398885D01*
X6403626Y5684607D01*
X6413992Y5666653D01*
X6428653Y5651992D01*
X6446607Y5641626D01*
X6464300Y5636885D01*
Y5702300D01*
D02*
G37*
G36*
X6210300D02*
X6144885D01*
X6149626Y5684607D01*
X6159992Y5666653D01*
X6174653Y5651992D01*
X6192607Y5641626D01*
X6210300Y5636885D01*
Y5702300D01*
D02*
G37*
G36*
X5956300D02*
X5890885D01*
X5895626Y5684607D01*
X5905992Y5666653D01*
X5920653Y5651992D01*
X5938607Y5641626D01*
X5956300Y5636885D01*
Y5702300D01*
D02*
G37*
G36*
X5702300D02*
X5636885D01*
X5641626Y5684607D01*
X5651992Y5666653D01*
X5666653Y5651992D01*
X5684607Y5641626D01*
X5702300Y5636885D01*
Y5702300D01*
D02*
G37*
G36*
X5448300D02*
X5382885D01*
X5387626Y5684607D01*
X5397992Y5666653D01*
X5412653Y5651992D01*
X5430607Y5641626D01*
X5448300Y5636885D01*
Y5702300D01*
D02*
G37*
G36*
X5194300D02*
X5128885D01*
X5133626Y5684607D01*
X5143992Y5666653D01*
X5158653Y5651992D01*
X5176607Y5641626D01*
X5194300Y5636885D01*
Y5702300D01*
D02*
G37*
G36*
X4940300D02*
X4874885D01*
X4879626Y5684607D01*
X4889992Y5666653D01*
X4904653Y5651992D01*
X4922607Y5641626D01*
X4940300Y5636885D01*
Y5702300D01*
D02*
G37*
G36*
X4686300D02*
X4620885D01*
X4625626Y5684607D01*
X4635992Y5666653D01*
X4650653Y5651992D01*
X4668607Y5641626D01*
X4686300Y5636885D01*
Y5702300D01*
D02*
G37*
G36*
X4432300D02*
X4366885D01*
X4371626Y5684607D01*
X4381992Y5666653D01*
X4396653Y5651992D01*
X4414607Y5641626D01*
X4432300Y5636885D01*
Y5702300D01*
D02*
G37*
G36*
X7632700Y5602615D02*
Y5537200D01*
X7698115D01*
X7693374Y5554893D01*
X7683008Y5572847D01*
X7668347Y5587508D01*
X7650393Y5597874D01*
X7632700Y5602615D01*
D02*
G37*
G36*
X6616700D02*
Y5537200D01*
X6682115D01*
X6677374Y5554893D01*
X6667008Y5572847D01*
X6652347Y5587508D01*
X6634393Y5597874D01*
X6616700Y5602615D01*
D02*
G37*
G36*
X5346700D02*
Y5537200D01*
X5412115D01*
X5407374Y5554893D01*
X5397008Y5572847D01*
X5382347Y5587508D01*
X5364393Y5597874D01*
X5346700Y5602615D01*
D02*
G37*
G36*
X4330700D02*
Y5537200D01*
X4396115D01*
X4391374Y5554893D01*
X4381008Y5572847D01*
X4366347Y5587508D01*
X4348393Y5597874D01*
X4330700Y5602615D01*
D02*
G37*
G36*
X8690236Y5688330D02*
X8686800D01*
Y5537200D01*
X8837930D01*
Y5540636D01*
X8831634Y5572288D01*
X8819284Y5602103D01*
X8801355Y5628936D01*
X8778536Y5651755D01*
X8751703Y5669684D01*
X8721888Y5682034D01*
X8690236Y5688330D01*
D02*
G37*
G36*
X7886700Y5602615D02*
Y5537200D01*
X7952115D01*
X7947374Y5554893D01*
X7937008Y5572847D01*
X7922347Y5587508D01*
X7904393Y5597874D01*
X7886700Y5602615D01*
D02*
G37*
G36*
X7378700D02*
Y5537200D01*
X7444115D01*
X7439374Y5554893D01*
X7429008Y5572847D01*
X7414347Y5587508D01*
X7396393Y5597874D01*
X7378700Y5602615D01*
D02*
G37*
G36*
X6870700D02*
Y5537200D01*
X6936115D01*
X6931374Y5554893D01*
X6921008Y5572847D01*
X6906347Y5587508D01*
X6888393Y5597874D01*
X6870700Y5602615D01*
D02*
G37*
G36*
X6362700D02*
Y5537200D01*
X6428115D01*
X6423374Y5554893D01*
X6413008Y5572847D01*
X6398347Y5587508D01*
X6380393Y5597874D01*
X6362700Y5602615D01*
D02*
G37*
G36*
X5600700D02*
Y5537200D01*
X5666115D01*
X5661374Y5554893D01*
X5651008Y5572847D01*
X5636347Y5587508D01*
X5618393Y5597874D01*
X5600700Y5602615D01*
D02*
G37*
G36*
X5092700D02*
Y5537200D01*
X5158115D01*
X5153374Y5554893D01*
X5143008Y5572847D01*
X5128347Y5587508D01*
X5110393Y5597874D01*
X5092700Y5602615D01*
D02*
G37*
G36*
X4584700D02*
Y5537200D01*
X4650115D01*
X4645374Y5554893D01*
X4635008Y5572847D01*
X4620347Y5587508D01*
X4602393Y5597874D01*
X4584700Y5602615D01*
D02*
G37*
G36*
X4076700D02*
Y5537200D01*
X4142115D01*
X4137374Y5554893D01*
X4127008Y5572847D01*
X4112347Y5587508D01*
X4094393Y5597874D01*
X4076700Y5602615D01*
D02*
G37*
G36*
X2899036Y5688330D02*
X2895600D01*
Y5537200D01*
X3046730D01*
Y5540636D01*
X3040434Y5572288D01*
X3028084Y5602103D01*
X3010155Y5628936D01*
X2987336Y5651755D01*
X2960503Y5669684D01*
X2930688Y5682034D01*
X2899036Y5688330D01*
D02*
G37*
G36*
X7124700Y5602615D02*
Y5537200D01*
X7190115D01*
X7185374Y5554893D01*
X7175008Y5572847D01*
X7160347Y5587508D01*
X7142393Y5597874D01*
X7124700Y5602615D01*
D02*
G37*
G36*
X6108700D02*
Y5537200D01*
X6174115D01*
X6169374Y5554893D01*
X6159008Y5572847D01*
X6144347Y5587508D01*
X6126393Y5597874D01*
X6108700Y5602615D01*
D02*
G37*
G36*
X5854700D02*
Y5537200D01*
X5920115D01*
X5915374Y5554893D01*
X5905008Y5572847D01*
X5890347Y5587508D01*
X5872393Y5597874D01*
X5854700Y5602615D01*
D02*
G37*
G36*
X4838700D02*
Y5537200D01*
X4904115D01*
X4899374Y5554893D01*
X4889008Y5572847D01*
X4874347Y5587508D01*
X4856393Y5597874D01*
X4838700Y5602615D01*
D02*
G37*
G36*
X3822700D02*
Y5537200D01*
X3888115D01*
X3883374Y5554893D01*
X3873008Y5572847D01*
X3858347Y5587508D01*
X3840393Y5597874D01*
X3822700Y5602615D01*
D02*
G37*
G36*
X5321300D02*
X5303607Y5597874D01*
X5285653Y5587508D01*
X5270992Y5572847D01*
X5260626Y5554893D01*
X5255885Y5537200D01*
X5321300D01*
Y5602615D01*
D02*
G37*
G36*
X4305300D02*
X4287607Y5597874D01*
X4269653Y5587508D01*
X4254992Y5572847D01*
X4244626Y5554893D01*
X4239885Y5537200D01*
X4305300D01*
Y5602615D01*
D02*
G37*
G36*
X7607300D02*
X7589607Y5597874D01*
X7571653Y5587508D01*
X7556992Y5572847D01*
X7546626Y5554893D01*
X7541885Y5537200D01*
X7607300D01*
Y5602615D01*
D02*
G37*
G36*
X6591300D02*
X6573607Y5597874D01*
X6555653Y5587508D01*
X6540992Y5572847D01*
X6530626Y5554893D01*
X6525885Y5537200D01*
X6591300D01*
Y5602615D01*
D02*
G37*
G36*
X7861300D02*
X7843607Y5597874D01*
X7825653Y5587508D01*
X7810992Y5572847D01*
X7800626Y5554893D01*
X7795885Y5537200D01*
X7861300D01*
Y5602615D01*
D02*
G37*
G36*
X5575300D02*
X5557607Y5597874D01*
X5539653Y5587508D01*
X5524992Y5572847D01*
X5514626Y5554893D01*
X5509885Y5537200D01*
X5575300D01*
Y5602615D01*
D02*
G37*
G36*
X7353300D02*
X7335607Y5597874D01*
X7317653Y5587508D01*
X7302992Y5572847D01*
X7292626Y5554893D01*
X7287885Y5537200D01*
X7353300D01*
Y5602615D01*
D02*
G37*
G36*
X6845300D02*
X6827607Y5597874D01*
X6809653Y5587508D01*
X6794992Y5572847D01*
X6784626Y5554893D01*
X6779885Y5537200D01*
X6845300D01*
Y5602615D01*
D02*
G37*
G36*
X6337300D02*
X6319607Y5597874D01*
X6301653Y5587508D01*
X6286992Y5572847D01*
X6276626Y5554893D01*
X6271885Y5537200D01*
X6337300D01*
Y5602615D01*
D02*
G37*
G36*
X5067300D02*
X5049607Y5597874D01*
X5031653Y5587508D01*
X5016992Y5572847D01*
X5006626Y5554893D01*
X5001885Y5537200D01*
X5067300D01*
Y5602615D01*
D02*
G37*
G36*
X4559300D02*
X4541607Y5597874D01*
X4523653Y5587508D01*
X4508992Y5572847D01*
X4498626Y5554893D01*
X4493885Y5537200D01*
X4559300D01*
Y5602615D01*
D02*
G37*
G36*
X4051300D02*
X4033607Y5597874D01*
X4015653Y5587508D01*
X4000992Y5572847D01*
X3990626Y5554893D01*
X3985885Y5537200D01*
X4051300D01*
Y5602615D01*
D02*
G37*
G36*
X5829300D02*
X5811607Y5597874D01*
X5793653Y5587508D01*
X5778992Y5572847D01*
X5768626Y5554893D01*
X5763885Y5537200D01*
X5829300D01*
Y5602615D01*
D02*
G37*
G36*
X3797300D02*
X3779607Y5597874D01*
X3761653Y5587508D01*
X3746992Y5572847D01*
X3736626Y5554893D01*
X3731885Y5537200D01*
X3797300D01*
Y5602615D01*
D02*
G37*
G36*
X7099300D02*
X7081607Y5597874D01*
X7063653Y5587508D01*
X7048992Y5572847D01*
X7038626Y5554893D01*
X7033885Y5537200D01*
X7099300D01*
Y5602615D01*
D02*
G37*
G36*
X6083300D02*
X6065607Y5597874D01*
X6047653Y5587508D01*
X6032992Y5572847D01*
X6022626Y5554893D01*
X6017885Y5537200D01*
X6083300D01*
Y5602615D01*
D02*
G37*
G36*
X4813300D02*
X4795607Y5597874D01*
X4777653Y5587508D01*
X4762992Y5572847D01*
X4752626Y5554893D01*
X4747885Y5537200D01*
X4813300D01*
Y5602615D01*
D02*
G37*
G36*
X2870200Y5688330D02*
X2866764D01*
X2835112Y5682034D01*
X2805297Y5669684D01*
X2778464Y5651755D01*
X2755645Y5628936D01*
X2737716Y5602103D01*
X2725366Y5572288D01*
X2719070Y5540636D01*
Y5537200D01*
X2870200D01*
Y5688330D01*
D02*
G37*
G36*
X8661400D02*
X8657964D01*
X8626312Y5682034D01*
X8596497Y5669684D01*
X8569664Y5651755D01*
X8546845Y5628936D01*
X8528916Y5602103D01*
X8516566Y5572288D01*
X8510270Y5540636D01*
Y5537200D01*
X8661400D01*
Y5688330D01*
D02*
G37*
G36*
X7952115Y5511800D02*
X7886700D01*
Y5446385D01*
X7904393Y5451126D01*
X7922347Y5461492D01*
X7937008Y5476153D01*
X7947374Y5494107D01*
X7952115Y5511800D01*
D02*
G37*
G36*
X7698115D02*
X7632700D01*
Y5446385D01*
X7650393Y5451126D01*
X7668347Y5461492D01*
X7683008Y5476153D01*
X7693374Y5494107D01*
X7698115Y5511800D01*
D02*
G37*
G36*
X7444115D02*
X7378700D01*
Y5446385D01*
X7396393Y5451126D01*
X7414347Y5461492D01*
X7429008Y5476153D01*
X7439374Y5494107D01*
X7444115Y5511800D01*
D02*
G37*
G36*
X7190115D02*
X7124700D01*
Y5446385D01*
X7142393Y5451126D01*
X7160347Y5461492D01*
X7175008Y5476153D01*
X7185374Y5494107D01*
X7190115Y5511800D01*
D02*
G37*
G36*
X6936115D02*
X6870700D01*
Y5446385D01*
X6888393Y5451126D01*
X6906347Y5461492D01*
X6921008Y5476153D01*
X6931374Y5494107D01*
X6936115Y5511800D01*
D02*
G37*
G36*
X6682115D02*
X6616700D01*
Y5446385D01*
X6634393Y5451126D01*
X6652347Y5461492D01*
X6667008Y5476153D01*
X6677374Y5494107D01*
X6682115Y5511800D01*
D02*
G37*
G36*
X6428115D02*
X6362700D01*
Y5446385D01*
X6380393Y5451126D01*
X6398347Y5461492D01*
X6413008Y5476153D01*
X6423374Y5494107D01*
X6428115Y5511800D01*
D02*
G37*
G36*
X6174115D02*
X6108700D01*
Y5446385D01*
X6126393Y5451126D01*
X6144347Y5461492D01*
X6159008Y5476153D01*
X6169374Y5494107D01*
X6174115Y5511800D01*
D02*
G37*
G36*
X5920115D02*
X5854700D01*
Y5446385D01*
X5872393Y5451126D01*
X5890347Y5461492D01*
X5905008Y5476153D01*
X5915374Y5494107D01*
X5920115Y5511800D01*
D02*
G37*
G36*
X5666115D02*
X5600700D01*
Y5446385D01*
X5618393Y5451126D01*
X5636347Y5461492D01*
X5651008Y5476153D01*
X5661374Y5494107D01*
X5666115Y5511800D01*
D02*
G37*
G36*
X5412115D02*
X5346700D01*
Y5446385D01*
X5364393Y5451126D01*
X5382347Y5461492D01*
X5397008Y5476153D01*
X5407374Y5494107D01*
X5412115Y5511800D01*
D02*
G37*
G36*
X5158115D02*
X5092700D01*
Y5446385D01*
X5110393Y5451126D01*
X5128347Y5461492D01*
X5143008Y5476153D01*
X5153374Y5494107D01*
X5158115Y5511800D01*
D02*
G37*
G36*
X4904115D02*
X4838700D01*
Y5446385D01*
X4856393Y5451126D01*
X4874347Y5461492D01*
X4889008Y5476153D01*
X4899374Y5494107D01*
X4904115Y5511800D01*
D02*
G37*
G36*
X4650115D02*
X4584700D01*
Y5446385D01*
X4602393Y5451126D01*
X4620347Y5461492D01*
X4635008Y5476153D01*
X4645374Y5494107D01*
X4650115Y5511800D01*
D02*
G37*
G36*
X4396115D02*
X4330700D01*
Y5446385D01*
X4348393Y5451126D01*
X4366347Y5461492D01*
X4381008Y5476153D01*
X4391374Y5494107D01*
X4396115Y5511800D01*
D02*
G37*
G36*
X4142115D02*
X4076700D01*
Y5446385D01*
X4094393Y5451126D01*
X4112347Y5461492D01*
X4127008Y5476153D01*
X4137374Y5494107D01*
X4142115Y5511800D01*
D02*
G37*
G36*
X3888115D02*
X3822700D01*
Y5446385D01*
X3840393Y5451126D01*
X3858347Y5461492D01*
X3873008Y5476153D01*
X3883374Y5494107D01*
X3888115Y5511800D01*
D02*
G37*
G36*
X7861300D02*
X7795885D01*
X7800626Y5494107D01*
X7810992Y5476153D01*
X7825653Y5461492D01*
X7843607Y5451126D01*
X7861300Y5446385D01*
Y5511800D01*
D02*
G37*
G36*
X7607300D02*
X7541885D01*
X7546626Y5494107D01*
X7556992Y5476153D01*
X7571653Y5461492D01*
X7589607Y5451126D01*
X7607300Y5446385D01*
Y5511800D01*
D02*
G37*
G36*
X7353300D02*
X7287885D01*
X7292626Y5494107D01*
X7302992Y5476153D01*
X7317653Y5461492D01*
X7335607Y5451126D01*
X7353300Y5446385D01*
Y5511800D01*
D02*
G37*
G36*
X7099300D02*
X7033885D01*
X7038626Y5494107D01*
X7048992Y5476153D01*
X7063653Y5461492D01*
X7081607Y5451126D01*
X7099300Y5446385D01*
Y5511800D01*
D02*
G37*
G36*
X6845300D02*
X6779885D01*
X6784626Y5494107D01*
X6794992Y5476153D01*
X6809653Y5461492D01*
X6827607Y5451126D01*
X6845300Y5446385D01*
Y5511800D01*
D02*
G37*
G36*
X6591300D02*
X6525885D01*
X6530626Y5494107D01*
X6540992Y5476153D01*
X6555653Y5461492D01*
X6573607Y5451126D01*
X6591300Y5446385D01*
Y5511800D01*
D02*
G37*
G36*
X6337300D02*
X6271885D01*
X6276626Y5494107D01*
X6286992Y5476153D01*
X6301653Y5461492D01*
X6319607Y5451126D01*
X6337300Y5446385D01*
Y5511800D01*
D02*
G37*
G36*
X6083300D02*
X6017885D01*
X6022626Y5494107D01*
X6032992Y5476153D01*
X6047653Y5461492D01*
X6065607Y5451126D01*
X6083300Y5446385D01*
Y5511800D01*
D02*
G37*
G36*
X5829300D02*
X5763885D01*
X5768626Y5494107D01*
X5778992Y5476153D01*
X5793653Y5461492D01*
X5811607Y5451126D01*
X5829300Y5446385D01*
Y5511800D01*
D02*
G37*
G36*
X5575300D02*
X5509885D01*
X5514626Y5494107D01*
X5524992Y5476153D01*
X5539653Y5461492D01*
X5557607Y5451126D01*
X5575300Y5446385D01*
Y5511800D01*
D02*
G37*
G36*
X5321300D02*
X5255885D01*
X5260626Y5494107D01*
X5270992Y5476153D01*
X5285653Y5461492D01*
X5303607Y5451126D01*
X5321300Y5446385D01*
Y5511800D01*
D02*
G37*
G36*
X5067300D02*
X5001885D01*
X5006626Y5494107D01*
X5016992Y5476153D01*
X5031653Y5461492D01*
X5049607Y5451126D01*
X5067300Y5446385D01*
Y5511800D01*
D02*
G37*
G36*
X4813300D02*
X4747885D01*
X4752626Y5494107D01*
X4762992Y5476153D01*
X4777653Y5461492D01*
X4795607Y5451126D01*
X4813300Y5446385D01*
Y5511800D01*
D02*
G37*
G36*
X4559300D02*
X4493885D01*
X4498626Y5494107D01*
X4508992Y5476153D01*
X4523653Y5461492D01*
X4541607Y5451126D01*
X4559300Y5446385D01*
Y5511800D01*
D02*
G37*
G36*
X4305300D02*
X4239885D01*
X4244626Y5494107D01*
X4254992Y5476153D01*
X4269653Y5461492D01*
X4287607Y5451126D01*
X4305300Y5446385D01*
Y5511800D01*
D02*
G37*
G36*
X4051300D02*
X3985885D01*
X3990626Y5494107D01*
X4000992Y5476153D01*
X4015653Y5461492D01*
X4033607Y5451126D01*
X4051300Y5446385D01*
Y5511800D01*
D02*
G37*
G36*
X3797300D02*
X3731885D01*
X3736626Y5494107D01*
X3746992Y5476153D01*
X3761653Y5461492D01*
X3779607Y5451126D01*
X3797300Y5446385D01*
Y5511800D01*
D02*
G37*
G36*
X8837930D02*
X8686800D01*
Y5360670D01*
X8690236D01*
X8721888Y5366966D01*
X8751703Y5379316D01*
X8778536Y5397245D01*
X8801355Y5420064D01*
X8819284Y5446897D01*
X8831634Y5476712D01*
X8837930Y5508364D01*
Y5511800D01*
D02*
G37*
G36*
X8661400D02*
X8510270D01*
Y5508364D01*
X8516566Y5476712D01*
X8528916Y5446897D01*
X8546845Y5420064D01*
X8569664Y5397245D01*
X8596497Y5379316D01*
X8626312Y5366966D01*
X8657964Y5360670D01*
X8661400D01*
Y5511800D01*
D02*
G37*
G36*
X3046730D02*
X2895600D01*
Y5360670D01*
X2899036D01*
X2930688Y5366966D01*
X2960503Y5379316D01*
X2987336Y5397245D01*
X3010155Y5420064D01*
X3028084Y5446897D01*
X3040434Y5476712D01*
X3046730Y5508364D01*
Y5511800D01*
D02*
G37*
G36*
X2870200D02*
X2719070D01*
Y5508364D01*
X2725366Y5476712D01*
X2737716Y5446897D01*
X2755645Y5420064D01*
X2778464Y5397245D01*
X2805297Y5379316D01*
X2835112Y5366966D01*
X2866764Y5360670D01*
X2870200D01*
Y5511800D01*
D02*
G37*
G36*
X5727700Y5412115D02*
Y5346700D01*
X5793115D01*
X5788374Y5364393D01*
X5778008Y5382347D01*
X5763347Y5397008D01*
X5745393Y5407374D01*
X5727700Y5412115D01*
D02*
G37*
G36*
X5702300D02*
X5684607Y5407374D01*
X5666653Y5397008D01*
X5651992Y5382347D01*
X5641626Y5364393D01*
X5636885Y5346700D01*
X5702300D01*
Y5412115D01*
D02*
G37*
G36*
X5793115Y5321300D02*
X5727700D01*
Y5255885D01*
X5745393Y5260626D01*
X5763347Y5270992D01*
X5778008Y5285653D01*
X5788374Y5303607D01*
X5793115Y5321300D01*
D02*
G37*
G36*
X5702300D02*
X5636885D01*
X5641626Y5303607D01*
X5651992Y5285653D01*
X5666653Y5270992D01*
X5684607Y5260626D01*
X5702300Y5255885D01*
Y5321300D01*
D02*
G37*
G36*
X7757366Y5412740D02*
X7736634D01*
X7716607Y5407374D01*
X7698653Y5397008D01*
X7683992Y5382347D01*
X7673626Y5364393D01*
X7668260Y5344366D01*
Y5323634D01*
X7673626Y5303607D01*
X7683992Y5285653D01*
X7698653Y5270992D01*
X7716607Y5260626D01*
X7736634Y5255260D01*
X7757366D01*
X7777393Y5260626D01*
X7795347Y5270992D01*
X7810008Y5285653D01*
X7820374Y5303607D01*
X7825740Y5323634D01*
Y5344366D01*
X7820374Y5364393D01*
X7810008Y5382347D01*
X7795347Y5397008D01*
X7777393Y5407374D01*
X7757366Y5412740D01*
D02*
G37*
G36*
X7503366D02*
X7482634D01*
X7462607Y5407374D01*
X7444653Y5397008D01*
X7429992Y5382347D01*
X7419626Y5364393D01*
X7414260Y5344366D01*
Y5323634D01*
X7419626Y5303607D01*
X7429992Y5285653D01*
X7444653Y5270992D01*
X7462607Y5260626D01*
X7482634Y5255260D01*
X7503366D01*
X7523393Y5260626D01*
X7541347Y5270992D01*
X7556008Y5285653D01*
X7566374Y5303607D01*
X7571740Y5323634D01*
Y5344366D01*
X7566374Y5364393D01*
X7556008Y5382347D01*
X7541347Y5397008D01*
X7523393Y5407374D01*
X7503366Y5412740D01*
D02*
G37*
G36*
X7249366D02*
X7228634D01*
X7208607Y5407374D01*
X7190653Y5397008D01*
X7175992Y5382347D01*
X7165626Y5364393D01*
X7160260Y5344366D01*
Y5323634D01*
X7165626Y5303607D01*
X7175992Y5285653D01*
X7190653Y5270992D01*
X7208607Y5260626D01*
X7228634Y5255260D01*
X7249366D01*
X7269393Y5260626D01*
X7287347Y5270992D01*
X7302008Y5285653D01*
X7312374Y5303607D01*
X7317740Y5323634D01*
Y5344366D01*
X7312374Y5364393D01*
X7302008Y5382347D01*
X7287347Y5397008D01*
X7269393Y5407374D01*
X7249366Y5412740D01*
D02*
G37*
G36*
X6995366D02*
X6974634D01*
X6954607Y5407374D01*
X6936653Y5397008D01*
X6921992Y5382347D01*
X6911626Y5364393D01*
X6906260Y5344366D01*
Y5323634D01*
X6911626Y5303607D01*
X6921992Y5285653D01*
X6936653Y5270992D01*
X6954607Y5260626D01*
X6974634Y5255260D01*
X6995366D01*
X7015393Y5260626D01*
X7033347Y5270992D01*
X7048008Y5285653D01*
X7058374Y5303607D01*
X7063740Y5323634D01*
Y5344366D01*
X7058374Y5364393D01*
X7048008Y5382347D01*
X7033347Y5397008D01*
X7015393Y5407374D01*
X6995366Y5412740D01*
D02*
G37*
G36*
X6741366D02*
X6720634D01*
X6700607Y5407374D01*
X6682653Y5397008D01*
X6667992Y5382347D01*
X6657626Y5364393D01*
X6652260Y5344366D01*
Y5323634D01*
X6657626Y5303607D01*
X6667992Y5285653D01*
X6682653Y5270992D01*
X6700607Y5260626D01*
X6720634Y5255260D01*
X6741366D01*
X6761393Y5260626D01*
X6779347Y5270992D01*
X6794008Y5285653D01*
X6804374Y5303607D01*
X6809740Y5323634D01*
Y5344366D01*
X6804374Y5364393D01*
X6794008Y5382347D01*
X6779347Y5397008D01*
X6761393Y5407374D01*
X6741366Y5412740D01*
D02*
G37*
G36*
X6487366D02*
X6466634D01*
X6446607Y5407374D01*
X6428653Y5397008D01*
X6413992Y5382347D01*
X6403626Y5364393D01*
X6398260Y5344366D01*
Y5323634D01*
X6403626Y5303607D01*
X6413992Y5285653D01*
X6428653Y5270992D01*
X6446607Y5260626D01*
X6466634Y5255260D01*
X6487366D01*
X6507393Y5260626D01*
X6525347Y5270992D01*
X6540008Y5285653D01*
X6550374Y5303607D01*
X6555740Y5323634D01*
Y5344366D01*
X6550374Y5364393D01*
X6540008Y5382347D01*
X6525347Y5397008D01*
X6507393Y5407374D01*
X6487366Y5412740D01*
D02*
G37*
G36*
X6233366D02*
X6212634D01*
X6192607Y5407374D01*
X6174653Y5397008D01*
X6159992Y5382347D01*
X6149626Y5364393D01*
X6144260Y5344366D01*
Y5323634D01*
X6149626Y5303607D01*
X6159992Y5285653D01*
X6174653Y5270992D01*
X6192607Y5260626D01*
X6212634Y5255260D01*
X6233366D01*
X6253393Y5260626D01*
X6271347Y5270992D01*
X6286008Y5285653D01*
X6296374Y5303607D01*
X6301740Y5323634D01*
Y5344366D01*
X6296374Y5364393D01*
X6286008Y5382347D01*
X6271347Y5397008D01*
X6253393Y5407374D01*
X6233366Y5412740D01*
D02*
G37*
G36*
X5979366D02*
X5958634D01*
X5938607Y5407374D01*
X5920653Y5397008D01*
X5905992Y5382347D01*
X5895626Y5364393D01*
X5890260Y5344366D01*
Y5323634D01*
X5895626Y5303607D01*
X5905992Y5285653D01*
X5920653Y5270992D01*
X5938607Y5260626D01*
X5958634Y5255260D01*
X5979366D01*
X5999393Y5260626D01*
X6017347Y5270992D01*
X6032008Y5285653D01*
X6042374Y5303607D01*
X6047740Y5323634D01*
Y5344366D01*
X6042374Y5364393D01*
X6032008Y5382347D01*
X6017347Y5397008D01*
X5999393Y5407374D01*
X5979366Y5412740D01*
D02*
G37*
G36*
X5471366D02*
X5450634D01*
X5430607Y5407374D01*
X5412653Y5397008D01*
X5397992Y5382347D01*
X5387626Y5364393D01*
X5382260Y5344366D01*
Y5323634D01*
X5387626Y5303607D01*
X5397992Y5285653D01*
X5412653Y5270992D01*
X5430607Y5260626D01*
X5450634Y5255260D01*
X5471366D01*
X5491393Y5260626D01*
X5509347Y5270992D01*
X5524008Y5285653D01*
X5534374Y5303607D01*
X5539740Y5323634D01*
Y5344366D01*
X5534374Y5364393D01*
X5524008Y5382347D01*
X5509347Y5397008D01*
X5491393Y5407374D01*
X5471366Y5412740D01*
D02*
G37*
G36*
X5217366D02*
X5196634D01*
X5176607Y5407374D01*
X5158653Y5397008D01*
X5143992Y5382347D01*
X5133626Y5364393D01*
X5128260Y5344366D01*
Y5323634D01*
X5133626Y5303607D01*
X5143992Y5285653D01*
X5158653Y5270992D01*
X5176607Y5260626D01*
X5196634Y5255260D01*
X5217366D01*
X5237393Y5260626D01*
X5255347Y5270992D01*
X5270008Y5285653D01*
X5280374Y5303607D01*
X5285740Y5323634D01*
Y5344366D01*
X5280374Y5364393D01*
X5270008Y5382347D01*
X5255347Y5397008D01*
X5237393Y5407374D01*
X5217366Y5412740D01*
D02*
G37*
G36*
X4963366D02*
X4942634D01*
X4922607Y5407374D01*
X4904653Y5397008D01*
X4889992Y5382347D01*
X4879626Y5364393D01*
X4874260Y5344366D01*
Y5323634D01*
X4879626Y5303607D01*
X4889992Y5285653D01*
X4904653Y5270992D01*
X4922607Y5260626D01*
X4942634Y5255260D01*
X4963366D01*
X4983393Y5260626D01*
X5001347Y5270992D01*
X5016008Y5285653D01*
X5026374Y5303607D01*
X5031740Y5323634D01*
Y5344366D01*
X5026374Y5364393D01*
X5016008Y5382347D01*
X5001347Y5397008D01*
X4983393Y5407374D01*
X4963366Y5412740D01*
D02*
G37*
G36*
X4709366D02*
X4688634D01*
X4668607Y5407374D01*
X4650653Y5397008D01*
X4635992Y5382347D01*
X4625626Y5364393D01*
X4620260Y5344366D01*
Y5323634D01*
X4625626Y5303607D01*
X4635992Y5285653D01*
X4650653Y5270992D01*
X4668607Y5260626D01*
X4688634Y5255260D01*
X4709366D01*
X4729393Y5260626D01*
X4747347Y5270992D01*
X4762008Y5285653D01*
X4772374Y5303607D01*
X4777740Y5323634D01*
Y5344366D01*
X4772374Y5364393D01*
X4762008Y5382347D01*
X4747347Y5397008D01*
X4729393Y5407374D01*
X4709366Y5412740D01*
D02*
G37*
G36*
X4455366D02*
X4434634D01*
X4414607Y5407374D01*
X4396653Y5397008D01*
X4381992Y5382347D01*
X4371626Y5364393D01*
X4366260Y5344366D01*
Y5323634D01*
X4371626Y5303607D01*
X4381992Y5285653D01*
X4396653Y5270992D01*
X4414607Y5260626D01*
X4434634Y5255260D01*
X4455366D01*
X4475393Y5260626D01*
X4493347Y5270992D01*
X4508008Y5285653D01*
X4518374Y5303607D01*
X4523740Y5323634D01*
Y5344366D01*
X4518374Y5364393D01*
X4508008Y5382347D01*
X4493347Y5397008D01*
X4475393Y5407374D01*
X4455366Y5412740D01*
D02*
G37*
G36*
X4201366D02*
X4180634D01*
X4160607Y5407374D01*
X4142653Y5397008D01*
X4127992Y5382347D01*
X4117626Y5364393D01*
X4112260Y5344366D01*
Y5323634D01*
X4117626Y5303607D01*
X4127992Y5285653D01*
X4142653Y5270992D01*
X4160607Y5260626D01*
X4180634Y5255260D01*
X4201366D01*
X4221393Y5260626D01*
X4239347Y5270992D01*
X4254008Y5285653D01*
X4264374Y5303607D01*
X4269740Y5323634D01*
Y5344366D01*
X4264374Y5364393D01*
X4254008Y5382347D01*
X4239347Y5397008D01*
X4221393Y5407374D01*
X4201366Y5412740D01*
D02*
G37*
G36*
X3947366D02*
X3926634D01*
X3906607Y5407374D01*
X3888653Y5397008D01*
X3873992Y5382347D01*
X3863626Y5364393D01*
X3858260Y5344366D01*
Y5323634D01*
X3863626Y5303607D01*
X3873992Y5285653D01*
X3888653Y5270992D01*
X3906607Y5260626D01*
X3926634Y5255260D01*
X3947366D01*
X3967393Y5260626D01*
X3985347Y5270992D01*
X4000008Y5285653D01*
X4010374Y5303607D01*
X4015740Y5323634D01*
Y5344366D01*
X4010374Y5364393D01*
X4000008Y5382347D01*
X3985347Y5397008D01*
X3967393Y5407374D01*
X3947366Y5412740D01*
D02*
G37*
G36*
X3693366D02*
X3672634D01*
X3652607Y5407374D01*
X3634653Y5397008D01*
X3619992Y5382347D01*
X3609626Y5364393D01*
X3604260Y5344366D01*
Y5323634D01*
X3609626Y5303607D01*
X3619992Y5285653D01*
X3634653Y5270992D01*
X3652607Y5260626D01*
X3672634Y5255260D01*
X3693366D01*
X3713393Y5260626D01*
X3731347Y5270992D01*
X3746008Y5285653D01*
X3756374Y5303607D01*
X3761740Y5323634D01*
Y5344366D01*
X3756374Y5364393D01*
X3746008Y5382347D01*
X3731347Y5397008D01*
X3713393Y5407374D01*
X3693366Y5412740D01*
D02*
G37*
G36*
X5854700Y5221615D02*
Y5156200D01*
X5920115D01*
X5915374Y5173893D01*
X5905008Y5191847D01*
X5890347Y5206508D01*
X5872393Y5216874D01*
X5854700Y5221615D01*
D02*
G37*
G36*
X5829300D02*
X5811607Y5216874D01*
X5793653Y5206508D01*
X5778992Y5191847D01*
X5768626Y5173893D01*
X5763885Y5156200D01*
X5829300D01*
Y5221615D01*
D02*
G37*
G36*
X5920115Y5130800D02*
X5854700D01*
Y5065385D01*
X5872393Y5070126D01*
X5890347Y5080492D01*
X5905008Y5095153D01*
X5915374Y5113107D01*
X5920115Y5130800D01*
D02*
G37*
G36*
X5829300D02*
X5763885D01*
X5768626Y5113107D01*
X5778992Y5095153D01*
X5793653Y5080492D01*
X5811607Y5070126D01*
X5829300Y5065385D01*
Y5130800D01*
D02*
G37*
G36*
X7630366Y5222240D02*
X7609634D01*
X7589607Y5216874D01*
X7571653Y5206508D01*
X7556992Y5191847D01*
X7546626Y5173893D01*
X7541260Y5153866D01*
Y5133134D01*
X7546626Y5113107D01*
X7556992Y5095153D01*
X7571653Y5080492D01*
X7574679Y5078745D01*
Y3430091D01*
X7549279Y3420576D01*
X7541347Y3428508D01*
X7523393Y3438874D01*
X7505700Y3443615D01*
Y3365500D01*
X7480300D01*
Y3443615D01*
X7462607Y3438874D01*
X7444653Y3428508D01*
X7436721Y3420576D01*
X7411321Y3430091D01*
Y5078745D01*
X7414347Y5080492D01*
X7429008Y5095153D01*
X7439374Y5113107D01*
X7444740Y5133134D01*
Y5153866D01*
X7439374Y5173893D01*
X7429008Y5191847D01*
X7414347Y5206508D01*
X7396393Y5216874D01*
X7376366Y5222240D01*
X7355634D01*
X7335607Y5216874D01*
X7317653Y5206508D01*
X7302992Y5191847D01*
X7292626Y5173893D01*
X7287260Y5153866D01*
Y5133134D01*
X7292626Y5113107D01*
X7302992Y5095153D01*
X7317653Y5080492D01*
X7320679Y5078745D01*
Y3430091D01*
X7295279Y3420576D01*
X7287347Y3428508D01*
X7269393Y3438874D01*
X7251700Y3443615D01*
Y3365500D01*
X7226300D01*
Y3443615D01*
X7208607Y3438874D01*
X7190653Y3428508D01*
X7182721Y3420576D01*
X7157321Y3430091D01*
Y5078745D01*
X7160347Y5080492D01*
X7175008Y5095153D01*
X7185374Y5113107D01*
X7190740Y5133134D01*
Y5153866D01*
X7185374Y5173893D01*
X7175008Y5191847D01*
X7160347Y5206508D01*
X7142393Y5216874D01*
X7122366Y5222240D01*
X7101634D01*
X7081607Y5216874D01*
X7063653Y5206508D01*
X7048992Y5191847D01*
X7038626Y5173893D01*
X7033260Y5153866D01*
Y5133134D01*
X7038626Y5113107D01*
X7048992Y5095153D01*
X7063653Y5080492D01*
X7066679Y5078745D01*
Y3430091D01*
X7041279Y3420576D01*
X7033347Y3428508D01*
X7015393Y3438874D01*
X6997700Y3443615D01*
Y3365500D01*
X6972300D01*
Y3443615D01*
X6954607Y3438874D01*
X6936653Y3428508D01*
X6928721Y3420576D01*
X6903321Y3430091D01*
Y5078745D01*
X6906347Y5080492D01*
X6921008Y5095153D01*
X6931374Y5113107D01*
X6936740Y5133134D01*
Y5153866D01*
X6931374Y5173893D01*
X6921008Y5191847D01*
X6906347Y5206508D01*
X6888393Y5216874D01*
X6868366Y5222240D01*
X6847634D01*
X6827607Y5216874D01*
X6809653Y5206508D01*
X6794992Y5191847D01*
X6784626Y5173893D01*
X6779260Y5153866D01*
Y5133134D01*
X6784626Y5113107D01*
X6794992Y5095153D01*
X6809653Y5080492D01*
X6812679Y5078745D01*
Y3430091D01*
X6787279Y3420576D01*
X6779347Y3428508D01*
X6761393Y3438874D01*
X6743700Y3443615D01*
Y3365500D01*
X6718300D01*
Y3443615D01*
X6700607Y3438874D01*
X6682653Y3428508D01*
X6674721Y3420576D01*
X6649321Y3430091D01*
Y5078745D01*
X6652347Y5080492D01*
X6667008Y5095153D01*
X6677374Y5113107D01*
X6682740Y5133134D01*
Y5153866D01*
X6677374Y5173893D01*
X6667008Y5191847D01*
X6652347Y5206508D01*
X6634393Y5216874D01*
X6614366Y5222240D01*
X6593634D01*
X6573607Y5216874D01*
X6555653Y5206508D01*
X6540992Y5191847D01*
X6530626Y5173893D01*
X6525260Y5153866D01*
Y5133134D01*
X6530626Y5113107D01*
X6540992Y5095153D01*
X6555653Y5080492D01*
X6558679Y5078745D01*
Y3430091D01*
X6533279Y3420576D01*
X6525347Y3428508D01*
X6507393Y3438874D01*
X6489700Y3443615D01*
Y3365500D01*
X6464300D01*
Y3443615D01*
X6446607Y3438874D01*
X6428653Y3428508D01*
X6420721Y3420576D01*
X6395321Y3430091D01*
Y5078745D01*
X6398347Y5080492D01*
X6413008Y5095153D01*
X6423374Y5113107D01*
X6428740Y5133134D01*
Y5153866D01*
X6423374Y5173893D01*
X6413008Y5191847D01*
X6398347Y5206508D01*
X6380393Y5216874D01*
X6360366Y5222240D01*
X6339634D01*
X6319607Y5216874D01*
X6301653Y5206508D01*
X6286992Y5191847D01*
X6276626Y5173893D01*
X6271260Y5153866D01*
Y5133134D01*
X6276626Y5113107D01*
X6286992Y5095153D01*
X6301653Y5080492D01*
X6304679Y5078745D01*
Y3430091D01*
X6279279Y3420576D01*
X6271347Y3428508D01*
X6253393Y3438874D01*
X6235700Y3443615D01*
Y3365500D01*
X6210300D01*
Y3443615D01*
X6192607Y3438874D01*
X6174653Y3428508D01*
X6166721Y3420576D01*
X6141321Y3430091D01*
Y5078745D01*
X6144347Y5080492D01*
X6159008Y5095153D01*
X6169374Y5113107D01*
X6174740Y5133134D01*
Y5153866D01*
X6169374Y5173893D01*
X6159008Y5191847D01*
X6144347Y5206508D01*
X6126393Y5216874D01*
X6106366Y5222240D01*
X6085634D01*
X6065607Y5216874D01*
X6047653Y5206508D01*
X6032992Y5191847D01*
X6022626Y5173893D01*
X6017260Y5153866D01*
Y5133134D01*
X6022626Y5113107D01*
X6032992Y5095153D01*
X6047653Y5080492D01*
X6050679Y5078745D01*
Y3430091D01*
X6025279Y3420576D01*
X6017347Y3428508D01*
X5999393Y3438874D01*
X5981700Y3443615D01*
Y3365500D01*
Y3287385D01*
X5999393Y3292126D01*
X6017347Y3302492D01*
X6027681Y3312825D01*
X6048018Y3310696D01*
X6055798Y3307559D01*
X6063953Y3295353D01*
X6081331Y3277976D01*
X6073024Y3250361D01*
X6065607Y3248374D01*
X6047653Y3238008D01*
X6032992Y3223347D01*
X6022626Y3205393D01*
X6017885Y3187700D01*
X6096000D01*
Y3162300D01*
X6017885D01*
X6022626Y3144607D01*
X6032992Y3126653D01*
X6047653Y3111992D01*
X6065607Y3101626D01*
X6083040Y3096955D01*
X6087901Y3088298D01*
X6092867Y3070860D01*
X6063953Y3041947D01*
X6059732Y3035628D01*
X6034666Y3033114D01*
X6034333Y3033146D01*
X6030594Y3034261D01*
X6017347Y3047508D01*
X5999393Y3057874D01*
X5979366Y3063240D01*
X5958634D01*
X5938607Y3057874D01*
X5920653Y3047508D01*
X5905992Y3032847D01*
X5895626Y3014893D01*
X5890260Y2994866D01*
Y2974134D01*
X5895626Y2954107D01*
X5905992Y2936153D01*
X5920653Y2921492D01*
X5938607Y2911126D01*
X5958634Y2905760D01*
X5979366D01*
X5999393Y2911126D01*
X6017347Y2921492D01*
X6025279Y2929424D01*
X6050679Y2919909D01*
Y2858755D01*
X6047653Y2857008D01*
X6032992Y2842347D01*
X6022626Y2824393D01*
X6017260Y2804366D01*
Y2783634D01*
X6022626Y2763607D01*
X6032992Y2745653D01*
X6047653Y2730992D01*
X6065607Y2720626D01*
X6085634Y2715260D01*
X6106366D01*
X6126393Y2720626D01*
X6144347Y2730992D01*
X6159008Y2745653D01*
X6169374Y2763607D01*
X6174740Y2783634D01*
Y2804366D01*
X6169374Y2824393D01*
X6159008Y2842347D01*
X6144347Y2857008D01*
X6141321Y2858755D01*
Y2919909D01*
X6166721Y2929424D01*
X6174653Y2921492D01*
X6192607Y2911126D01*
X6212634Y2905760D01*
X6233366D01*
X6253393Y2911126D01*
X6271347Y2921492D01*
X6279279Y2929424D01*
X6304679Y2919909D01*
Y2858755D01*
X6301653Y2857008D01*
X6286992Y2842347D01*
X6276626Y2824393D01*
X6271260Y2804366D01*
Y2783634D01*
X6276626Y2763607D01*
X6286992Y2745653D01*
X6301653Y2730992D01*
X6319607Y2720626D01*
X6339634Y2715260D01*
X6360366D01*
X6380393Y2720626D01*
X6398347Y2730992D01*
X6413008Y2745653D01*
X6423374Y2763607D01*
X6428740Y2783634D01*
Y2804366D01*
X6423374Y2824393D01*
X6413008Y2842347D01*
X6398347Y2857008D01*
X6395321Y2858755D01*
Y2919909D01*
X6420721Y2929424D01*
X6428653Y2921492D01*
X6446607Y2911126D01*
X6466634Y2905760D01*
X6487366D01*
X6507393Y2911126D01*
X6525347Y2921492D01*
X6533279Y2929424D01*
X6558679Y2919909D01*
Y2858755D01*
X6555653Y2857008D01*
X6540992Y2842347D01*
X6530626Y2824393D01*
X6525260Y2804366D01*
Y2783634D01*
X6530626Y2763607D01*
X6540992Y2745653D01*
X6555653Y2730992D01*
X6573607Y2720626D01*
X6593634Y2715260D01*
X6614366D01*
X6634393Y2720626D01*
X6652347Y2730992D01*
X6667008Y2745653D01*
X6677374Y2763607D01*
X6682740Y2783634D01*
Y2804366D01*
X6677374Y2824393D01*
X6667008Y2842347D01*
X6652347Y2857008D01*
X6649321Y2858755D01*
Y2919909D01*
X6674721Y2929424D01*
X6682653Y2921492D01*
X6700607Y2911126D01*
X6720634Y2905760D01*
X6741366D01*
X6761393Y2911126D01*
X6779347Y2921492D01*
X6787279Y2929424D01*
X6812679Y2919909D01*
Y2858755D01*
X6809653Y2857008D01*
X6794992Y2842347D01*
X6784626Y2824393D01*
X6779260Y2804366D01*
Y2783634D01*
X6784626Y2763607D01*
X6794992Y2745653D01*
X6809653Y2730992D01*
X6827607Y2720626D01*
X6847634Y2715260D01*
X6868366D01*
X6888393Y2720626D01*
X6906347Y2730992D01*
X6921008Y2745653D01*
X6931374Y2763607D01*
X6936740Y2783634D01*
Y2804366D01*
X6931374Y2824393D01*
X6921008Y2842347D01*
X6906347Y2857008D01*
X6903321Y2858755D01*
Y2919909D01*
X6928721Y2929424D01*
X6936653Y2921492D01*
X6954607Y2911126D01*
X6974634Y2905760D01*
X6995366D01*
X7015393Y2911126D01*
X7033347Y2921492D01*
X7041279Y2929424D01*
X7066679Y2919909D01*
Y2858755D01*
X7063653Y2857008D01*
X7048992Y2842347D01*
X7038626Y2824393D01*
X7033260Y2804366D01*
Y2783634D01*
X7038626Y2763607D01*
X7048992Y2745653D01*
X7063653Y2730992D01*
X7081607Y2720626D01*
X7101634Y2715260D01*
X7122366D01*
X7142393Y2720626D01*
X7160347Y2730992D01*
X7175008Y2745653D01*
X7185374Y2763607D01*
X7190740Y2783634D01*
Y2804366D01*
X7185374Y2824393D01*
X7175008Y2842347D01*
X7160347Y2857008D01*
X7157321Y2858755D01*
Y2919909D01*
X7182721Y2929424D01*
X7190653Y2921492D01*
X7208607Y2911126D01*
X7228634Y2905760D01*
X7249366D01*
X7269393Y2911126D01*
X7287347Y2921492D01*
X7295279Y2929424D01*
X7320679Y2919909D01*
Y2858755D01*
X7317653Y2857008D01*
X7302992Y2842347D01*
X7292626Y2824393D01*
X7287260Y2804366D01*
Y2783634D01*
X7292626Y2763607D01*
X7302992Y2745653D01*
X7317653Y2730992D01*
X7335607Y2720626D01*
X7355634Y2715260D01*
X7376366D01*
X7396393Y2720626D01*
X7414347Y2730992D01*
X7429008Y2745653D01*
X7439374Y2763607D01*
X7444740Y2783634D01*
Y2804366D01*
X7439374Y2824393D01*
X7429008Y2842347D01*
X7414347Y2857008D01*
X7411321Y2858755D01*
Y2919909D01*
X7436721Y2929424D01*
X7444653Y2921492D01*
X7462607Y2911126D01*
X7482634Y2905760D01*
X7503366D01*
X7523393Y2911126D01*
X7541347Y2921492D01*
X7549279Y2929424D01*
X7574679Y2919909D01*
Y2858755D01*
X7571653Y2857008D01*
X7556992Y2842347D01*
X7546626Y2824393D01*
X7541260Y2804366D01*
Y2783634D01*
X7546626Y2763607D01*
X7556992Y2745653D01*
X7571653Y2730992D01*
X7589607Y2720626D01*
X7609634Y2715260D01*
X7630366D01*
X7650393Y2720626D01*
X7668347Y2730992D01*
X7683008Y2745653D01*
X7693374Y2763607D01*
X7698740Y2783634D01*
Y2804366D01*
X7693374Y2824393D01*
X7683008Y2842347D01*
X7668347Y2857008D01*
X7665321Y2858755D01*
Y2919909D01*
X7690721Y2929424D01*
X7698653Y2921492D01*
X7716607Y2911126D01*
X7736634Y2905760D01*
X7757366D01*
X7777393Y2911126D01*
X7795347Y2921492D01*
X7810008Y2936153D01*
X7820374Y2954107D01*
X7825740Y2974134D01*
Y2994866D01*
X7820374Y3014893D01*
X7810008Y3032847D01*
X7795347Y3047508D01*
X7777393Y3057874D01*
X7769976Y3059861D01*
X7761669Y3087476D01*
X7779046Y3104853D01*
X7779047Y3104853D01*
X7787202Y3117059D01*
X7794982Y3120196D01*
X7815319Y3122325D01*
X7825653Y3111992D01*
X7843607Y3101626D01*
X7861300Y3096885D01*
Y3175000D01*
Y3253115D01*
X7843607Y3248374D01*
X7825653Y3238008D01*
X7812406Y3224761D01*
X7808667Y3223646D01*
X7807742Y3223558D01*
X7783959Y3225095D01*
X7779047Y3232447D01*
X7779046Y3232447D01*
X7750133Y3261360D01*
X7755099Y3278798D01*
X7759960Y3287455D01*
X7777393Y3292126D01*
X7795347Y3302492D01*
X7810008Y3317153D01*
X7820374Y3335107D01*
X7825115Y3352800D01*
X7747000D01*
Y3365500D01*
X7734300D01*
Y3443615D01*
X7716607Y3438874D01*
X7698653Y3428508D01*
X7690721Y3420576D01*
X7665321Y3430091D01*
Y5078745D01*
X7668347Y5080492D01*
X7683008Y5095153D01*
X7693374Y5113107D01*
X7698740Y5133134D01*
Y5153866D01*
X7693374Y5173893D01*
X7683008Y5191847D01*
X7668347Y5206508D01*
X7650393Y5216874D01*
X7630366Y5222240D01*
D02*
G37*
G36*
X5598366D02*
X5577634D01*
X5557607Y5216874D01*
X5539653Y5206508D01*
X5524992Y5191847D01*
X5514626Y5173893D01*
X5509260Y5153866D01*
Y5133134D01*
X5514626Y5113107D01*
X5524992Y5095153D01*
X5539653Y5080492D01*
X5542679Y5078745D01*
Y3430091D01*
X5517279Y3420576D01*
X5509347Y3428508D01*
X5491393Y3438874D01*
X5473700Y3443615D01*
Y3365500D01*
X5448300D01*
Y3443615D01*
X5430607Y3438874D01*
X5412653Y3428508D01*
X5404721Y3420576D01*
X5379321Y3430091D01*
Y5078745D01*
X5382347Y5080492D01*
X5397008Y5095153D01*
X5407374Y5113107D01*
X5412740Y5133134D01*
Y5153866D01*
X5407374Y5173893D01*
X5397008Y5191847D01*
X5382347Y5206508D01*
X5364393Y5216874D01*
X5344366Y5222240D01*
X5323634D01*
X5303607Y5216874D01*
X5285653Y5206508D01*
X5270992Y5191847D01*
X5260626Y5173893D01*
X5255260Y5153866D01*
Y5133134D01*
X5260626Y5113107D01*
X5270992Y5095153D01*
X5285653Y5080492D01*
X5288679Y5078745D01*
Y3430091D01*
X5263279Y3420576D01*
X5255347Y3428508D01*
X5237393Y3438874D01*
X5219700Y3443615D01*
Y3365500D01*
X5194300D01*
Y3443615D01*
X5176607Y3438874D01*
X5158653Y3428508D01*
X5150721Y3420576D01*
X5125321Y3430091D01*
Y5078745D01*
X5128347Y5080492D01*
X5143008Y5095153D01*
X5153374Y5113107D01*
X5158740Y5133134D01*
Y5153866D01*
X5153374Y5173893D01*
X5143008Y5191847D01*
X5128347Y5206508D01*
X5110393Y5216874D01*
X5090366Y5222240D01*
X5069634D01*
X5049607Y5216874D01*
X5031653Y5206508D01*
X5016992Y5191847D01*
X5006626Y5173893D01*
X5001260Y5153866D01*
Y5133134D01*
X5006626Y5113107D01*
X5016992Y5095153D01*
X5031653Y5080492D01*
X5034679Y5078745D01*
Y3430091D01*
X5009279Y3420576D01*
X5001347Y3428508D01*
X4983393Y3438874D01*
X4965700Y3443615D01*
Y3365500D01*
X4940300D01*
Y3443615D01*
X4922607Y3438874D01*
X4904653Y3428508D01*
X4896721Y3420576D01*
X4871321Y3430091D01*
Y5078745D01*
X4874347Y5080492D01*
X4889008Y5095153D01*
X4899374Y5113107D01*
X4904740Y5133134D01*
Y5153866D01*
X4899374Y5173893D01*
X4889008Y5191847D01*
X4874347Y5206508D01*
X4856393Y5216874D01*
X4836366Y5222240D01*
X4815634D01*
X4795607Y5216874D01*
X4777653Y5206508D01*
X4762992Y5191847D01*
X4752626Y5173893D01*
X4747260Y5153866D01*
Y5133134D01*
X4752626Y5113107D01*
X4762992Y5095153D01*
X4777653Y5080492D01*
X4780679Y5078745D01*
Y3430091D01*
X4755279Y3420576D01*
X4747347Y3428508D01*
X4729393Y3438874D01*
X4711700Y3443615D01*
Y3365500D01*
X4686300D01*
Y3443615D01*
X4668607Y3438874D01*
X4650653Y3428508D01*
X4642721Y3420576D01*
X4617321Y3430091D01*
Y5078745D01*
X4620347Y5080492D01*
X4635008Y5095153D01*
X4645374Y5113107D01*
X4650740Y5133134D01*
Y5153866D01*
X4645374Y5173893D01*
X4635008Y5191847D01*
X4620347Y5206508D01*
X4602393Y5216874D01*
X4582366Y5222240D01*
X4561634D01*
X4541607Y5216874D01*
X4523653Y5206508D01*
X4508992Y5191847D01*
X4498626Y5173893D01*
X4493260Y5153866D01*
Y5133134D01*
X4498626Y5113107D01*
X4508992Y5095153D01*
X4523653Y5080492D01*
X4526679Y5078745D01*
Y3430091D01*
X4501279Y3420576D01*
X4493347Y3428508D01*
X4475393Y3438874D01*
X4457700Y3443615D01*
Y3365500D01*
X4432300D01*
Y3443615D01*
X4414607Y3438874D01*
X4396653Y3428508D01*
X4388721Y3420576D01*
X4363321Y3430091D01*
Y5078745D01*
X4366347Y5080492D01*
X4381008Y5095153D01*
X4391374Y5113107D01*
X4396740Y5133134D01*
Y5153866D01*
X4391374Y5173893D01*
X4381008Y5191847D01*
X4366347Y5206508D01*
X4348393Y5216874D01*
X4328366Y5222240D01*
X4307634D01*
X4287607Y5216874D01*
X4269653Y5206508D01*
X4254992Y5191847D01*
X4244626Y5173893D01*
X4239260Y5153866D01*
Y5133134D01*
X4244626Y5113107D01*
X4254992Y5095153D01*
X4269653Y5080492D01*
X4272679Y5078745D01*
Y3430091D01*
X4247279Y3420576D01*
X4239347Y3428508D01*
X4221393Y3438874D01*
X4203700Y3443615D01*
Y3365500D01*
X4178300D01*
Y3443615D01*
X4160607Y3438874D01*
X4142653Y3428508D01*
X4134721Y3420576D01*
X4109321Y3430091D01*
Y5078745D01*
X4112347Y5080492D01*
X4127008Y5095153D01*
X4137374Y5113107D01*
X4142740Y5133134D01*
Y5153866D01*
X4137374Y5173893D01*
X4127008Y5191847D01*
X4112347Y5206508D01*
X4094393Y5216874D01*
X4074366Y5222240D01*
X4053634D01*
X4033607Y5216874D01*
X4015653Y5206508D01*
X4000992Y5191847D01*
X3990626Y5173893D01*
X3985260Y5153866D01*
Y5133134D01*
X3990626Y5113107D01*
X4000992Y5095153D01*
X4015653Y5080492D01*
X4018679Y5078745D01*
Y3430091D01*
X3993279Y3420576D01*
X3985347Y3428508D01*
X3967393Y3438874D01*
X3949700Y3443615D01*
Y3365500D01*
X3924300D01*
Y3443615D01*
X3906607Y3438874D01*
X3888653Y3428508D01*
X3880721Y3420576D01*
X3855321Y3430091D01*
Y5078745D01*
X3858347Y5080492D01*
X3873008Y5095153D01*
X3883374Y5113107D01*
X3888740Y5133134D01*
Y5153866D01*
X3883374Y5173893D01*
X3873008Y5191847D01*
X3858347Y5206508D01*
X3840393Y5216874D01*
X3820366Y5222240D01*
X3799634D01*
X3779607Y5216874D01*
X3761653Y5206508D01*
X3746992Y5191847D01*
X3736626Y5173893D01*
X3731260Y5153866D01*
Y5133134D01*
X3736626Y5113107D01*
X3746992Y5095153D01*
X3761653Y5080492D01*
X3764679Y5078745D01*
Y3430091D01*
X3739279Y3420576D01*
X3731347Y3428508D01*
X3713393Y3438874D01*
X3695700Y3443615D01*
Y3365500D01*
Y3287385D01*
X3713393Y3292126D01*
X3731347Y3302492D01*
X3741681Y3312825D01*
X3762018Y3310696D01*
X3769798Y3307559D01*
X3777953Y3295353D01*
X3795331Y3277976D01*
X3787024Y3250361D01*
X3779607Y3248374D01*
X3761653Y3238008D01*
X3746992Y3223347D01*
X3736626Y3205393D01*
X3731885Y3187700D01*
X3810000D01*
Y3162300D01*
X3731885D01*
X3736626Y3144607D01*
X3746992Y3126653D01*
X3761653Y3111992D01*
X3779607Y3101626D01*
X3797040Y3096955D01*
X3801901Y3088298D01*
X3806867Y3070860D01*
X3777953Y3041947D01*
X3773732Y3035628D01*
X3748666Y3033114D01*
X3748333Y3033146D01*
X3744594Y3034261D01*
X3731347Y3047508D01*
X3713393Y3057874D01*
X3693366Y3063240D01*
X3672634D01*
X3652607Y3057874D01*
X3634653Y3047508D01*
X3619992Y3032847D01*
X3609626Y3014893D01*
X3604260Y2994866D01*
Y2974134D01*
X3609626Y2954107D01*
X3619992Y2936153D01*
X3634653Y2921492D01*
X3652607Y2911126D01*
X3672634Y2905760D01*
X3693366D01*
X3713393Y2911126D01*
X3731347Y2921492D01*
X3739279Y2929424D01*
X3764679Y2919909D01*
Y2858755D01*
X3761653Y2857008D01*
X3746992Y2842347D01*
X3736626Y2824393D01*
X3731260Y2804366D01*
Y2783634D01*
X3736626Y2763607D01*
X3746992Y2745653D01*
X3761653Y2730992D01*
X3779607Y2720626D01*
X3799634Y2715260D01*
X3820366D01*
X3840393Y2720626D01*
X3858347Y2730992D01*
X3873008Y2745653D01*
X3883374Y2763607D01*
X3888740Y2783634D01*
Y2804366D01*
X3883374Y2824393D01*
X3873008Y2842347D01*
X3858347Y2857008D01*
X3855321Y2858755D01*
Y2919909D01*
X3880721Y2929424D01*
X3888653Y2921492D01*
X3906607Y2911126D01*
X3926634Y2905760D01*
X3947366D01*
X3967393Y2911126D01*
X3985347Y2921492D01*
X3993279Y2929424D01*
X4018679Y2919909D01*
Y2858755D01*
X4015653Y2857008D01*
X4000992Y2842347D01*
X3990626Y2824393D01*
X3985260Y2804366D01*
Y2783634D01*
X3990626Y2763607D01*
X4000992Y2745653D01*
X4015653Y2730992D01*
X4033607Y2720626D01*
X4053634Y2715260D01*
X4074366D01*
X4094393Y2720626D01*
X4112347Y2730992D01*
X4127008Y2745653D01*
X4137374Y2763607D01*
X4142740Y2783634D01*
Y2804366D01*
X4137374Y2824393D01*
X4127008Y2842347D01*
X4112347Y2857008D01*
X4109321Y2858755D01*
Y2919909D01*
X4134721Y2929424D01*
X4142653Y2921492D01*
X4160607Y2911126D01*
X4180634Y2905760D01*
X4201366D01*
X4221393Y2911126D01*
X4239347Y2921492D01*
X4247279Y2929424D01*
X4272679Y2919909D01*
Y2858755D01*
X4269653Y2857008D01*
X4254992Y2842347D01*
X4244626Y2824393D01*
X4239260Y2804366D01*
Y2783634D01*
X4244626Y2763607D01*
X4254992Y2745653D01*
X4269653Y2730992D01*
X4287607Y2720626D01*
X4307634Y2715260D01*
X4328366D01*
X4348393Y2720626D01*
X4366347Y2730992D01*
X4381008Y2745653D01*
X4391374Y2763607D01*
X4396740Y2783634D01*
Y2804366D01*
X4391374Y2824393D01*
X4381008Y2842347D01*
X4366347Y2857008D01*
X4363321Y2858755D01*
Y2919909D01*
X4388721Y2929424D01*
X4396653Y2921492D01*
X4414607Y2911126D01*
X4434634Y2905760D01*
X4455366D01*
X4475393Y2911126D01*
X4493347Y2921492D01*
X4501279Y2929424D01*
X4526679Y2919909D01*
Y2858755D01*
X4523653Y2857008D01*
X4508992Y2842347D01*
X4498626Y2824393D01*
X4493260Y2804366D01*
Y2783634D01*
X4498626Y2763607D01*
X4508992Y2745653D01*
X4523653Y2730992D01*
X4541607Y2720626D01*
X4561634Y2715260D01*
X4582366D01*
X4602393Y2720626D01*
X4620347Y2730992D01*
X4635008Y2745653D01*
X4645374Y2763607D01*
X4650740Y2783634D01*
Y2804366D01*
X4645374Y2824393D01*
X4635008Y2842347D01*
X4620347Y2857008D01*
X4617321Y2858755D01*
Y2919909D01*
X4642721Y2929424D01*
X4650653Y2921492D01*
X4668607Y2911126D01*
X4688634Y2905760D01*
X4709366D01*
X4729393Y2911126D01*
X4747347Y2921492D01*
X4755279Y2929424D01*
X4780679Y2919909D01*
Y2858755D01*
X4777653Y2857008D01*
X4762992Y2842347D01*
X4752626Y2824393D01*
X4747260Y2804366D01*
Y2783634D01*
X4752626Y2763607D01*
X4762992Y2745653D01*
X4777653Y2730992D01*
X4795607Y2720626D01*
X4815634Y2715260D01*
X4836366D01*
X4856393Y2720626D01*
X4874347Y2730992D01*
X4889008Y2745653D01*
X4899374Y2763607D01*
X4904740Y2783634D01*
Y2804366D01*
X4899374Y2824393D01*
X4889008Y2842347D01*
X4874347Y2857008D01*
X4871321Y2858755D01*
Y2919909D01*
X4896721Y2929424D01*
X4904653Y2921492D01*
X4922607Y2911126D01*
X4942634Y2905760D01*
X4963366D01*
X4983393Y2911126D01*
X5001347Y2921492D01*
X5009279Y2929424D01*
X5034679Y2919909D01*
Y2858755D01*
X5031653Y2857008D01*
X5016992Y2842347D01*
X5006626Y2824393D01*
X5001260Y2804366D01*
Y2783634D01*
X5006626Y2763607D01*
X5016992Y2745653D01*
X5031653Y2730992D01*
X5049607Y2720626D01*
X5069634Y2715260D01*
X5090366D01*
X5110393Y2720626D01*
X5128347Y2730992D01*
X5143008Y2745653D01*
X5153374Y2763607D01*
X5158740Y2783634D01*
Y2804366D01*
X5153374Y2824393D01*
X5143008Y2842347D01*
X5128347Y2857008D01*
X5125321Y2858755D01*
Y2919909D01*
X5150721Y2929424D01*
X5158653Y2921492D01*
X5176607Y2911126D01*
X5196634Y2905760D01*
X5217366D01*
X5237393Y2911126D01*
X5255347Y2921492D01*
X5263279Y2929424D01*
X5288679Y2919909D01*
Y2858755D01*
X5285653Y2857008D01*
X5270992Y2842347D01*
X5260626Y2824393D01*
X5255260Y2804366D01*
Y2783634D01*
X5260626Y2763607D01*
X5270992Y2745653D01*
X5285653Y2730992D01*
X5303607Y2720626D01*
X5323634Y2715260D01*
X5344366D01*
X5364393Y2720626D01*
X5382347Y2730992D01*
X5397008Y2745653D01*
X5407374Y2763607D01*
X5412740Y2783634D01*
Y2804366D01*
X5407374Y2824393D01*
X5397008Y2842347D01*
X5382347Y2857008D01*
X5379321Y2858755D01*
Y2919909D01*
X5404721Y2929424D01*
X5412653Y2921492D01*
X5430607Y2911126D01*
X5450634Y2905760D01*
X5471366D01*
X5491393Y2911126D01*
X5509347Y2921492D01*
X5517279Y2929424D01*
X5542679Y2919909D01*
Y2858755D01*
X5539653Y2857008D01*
X5524992Y2842347D01*
X5514626Y2824393D01*
X5509260Y2804366D01*
Y2783634D01*
X5514626Y2763607D01*
X5524992Y2745653D01*
X5539653Y2730992D01*
X5557607Y2720626D01*
X5577634Y2715260D01*
X5598366D01*
X5618393Y2720626D01*
X5636347Y2730992D01*
X5651008Y2745653D01*
X5661374Y2763607D01*
X5666740Y2783634D01*
Y2804366D01*
X5661374Y2824393D01*
X5651008Y2842347D01*
X5636347Y2857008D01*
X5633321Y2858755D01*
Y2919909D01*
X5658721Y2929424D01*
X5666653Y2921492D01*
X5684607Y2911126D01*
X5702300Y2906385D01*
Y2984500D01*
X5715000D01*
Y2997200D01*
X5793115D01*
X5788374Y3014893D01*
X5778008Y3032847D01*
X5763347Y3047508D01*
X5745393Y3057874D01*
X5737976Y3059861D01*
X5729669Y3087476D01*
X5747046Y3104853D01*
X5747047Y3104853D01*
X5755202Y3117059D01*
X5762982Y3120196D01*
X5783319Y3122325D01*
X5793653Y3111992D01*
X5811607Y3101626D01*
X5829300Y3096885D01*
Y3175000D01*
Y3253115D01*
X5811607Y3248374D01*
X5793653Y3238008D01*
X5780406Y3224761D01*
X5776667Y3223646D01*
X5775742Y3223558D01*
X5751959Y3225095D01*
X5747047Y3232447D01*
X5747046Y3232447D01*
X5718133Y3261360D01*
X5723099Y3278798D01*
X5727960Y3287455D01*
X5745393Y3292126D01*
X5763347Y3302492D01*
X5778008Y3317153D01*
X5788374Y3335107D01*
X5793115Y3352800D01*
X5715000D01*
Y3365500D01*
X5702300D01*
Y3443615D01*
X5684607Y3438874D01*
X5666653Y3428508D01*
X5658721Y3420576D01*
X5633321Y3430091D01*
Y5078745D01*
X5636347Y5080492D01*
X5651008Y5095153D01*
X5661374Y5113107D01*
X5666740Y5133134D01*
Y5153866D01*
X5661374Y5173893D01*
X5651008Y5191847D01*
X5636347Y5206508D01*
X5618393Y5216874D01*
X5598366Y5222240D01*
D02*
G37*
G36*
X7759700Y3443615D02*
Y3378200D01*
X7825115D01*
X7820374Y3395893D01*
X7810008Y3413847D01*
X7795347Y3428508D01*
X7777393Y3438874D01*
X7759700Y3443615D01*
D02*
G37*
G36*
X5956300D02*
X5938607Y3438874D01*
X5920653Y3428508D01*
X5905992Y3413847D01*
X5895626Y3395893D01*
X5890885Y3378200D01*
X5956300D01*
Y3443615D01*
D02*
G37*
G36*
X5727700D02*
Y3378200D01*
X5793115D01*
X5788374Y3395893D01*
X5778008Y3413847D01*
X5763347Y3428508D01*
X5745393Y3438874D01*
X5727700Y3443615D01*
D02*
G37*
G36*
X3670300D02*
X3652607Y3438874D01*
X3634653Y3428508D01*
X3619992Y3413847D01*
X3609626Y3395893D01*
X3604885Y3378200D01*
X3670300D01*
Y3443615D01*
D02*
G37*
G36*
X5956300Y3352800D02*
X5890885D01*
X5895626Y3335107D01*
X5905992Y3317153D01*
X5920653Y3302492D01*
X5938607Y3292126D01*
X5956300Y3287385D01*
Y3352800D01*
D02*
G37*
G36*
X3670300D02*
X3604885D01*
X3609626Y3335107D01*
X3619992Y3317153D01*
X3634653Y3302492D01*
X3652607Y3292126D01*
X3670300Y3287385D01*
Y3352800D01*
D02*
G37*
G36*
X7886700Y3253115D02*
Y3187700D01*
X7952115D01*
X7947374Y3205393D01*
X7937008Y3223347D01*
X7922347Y3238008D01*
X7904393Y3248374D01*
X7886700Y3253115D01*
D02*
G37*
G36*
X5854700D02*
Y3187700D01*
X5920115D01*
X5915374Y3205393D01*
X5905008Y3223347D01*
X5890347Y3238008D01*
X5872393Y3248374D01*
X5854700Y3253115D01*
D02*
G37*
G36*
X7952115Y3162300D02*
X7886700D01*
Y3096885D01*
X7904393Y3101626D01*
X7922347Y3111992D01*
X7937008Y3126653D01*
X7947374Y3144607D01*
X7952115Y3162300D01*
D02*
G37*
G36*
X5920115D02*
X5854700D01*
Y3096885D01*
X5872393Y3101626D01*
X5890347Y3111992D01*
X5905008Y3126653D01*
X5915374Y3144607D01*
X5920115Y3162300D01*
D02*
G37*
G36*
X8690236Y3148330D02*
X8686800D01*
Y2997200D01*
X8837930D01*
Y3000636D01*
X8831634Y3032288D01*
X8819284Y3062103D01*
X8801355Y3088936D01*
X8778536Y3111755D01*
X8751703Y3129684D01*
X8721888Y3142034D01*
X8690236Y3148330D01*
D02*
G37*
G36*
X8661400D02*
X8657964D01*
X8626312Y3142034D01*
X8596497Y3129684D01*
X8569664Y3111755D01*
X8546845Y3088936D01*
X8528916Y3062103D01*
X8516566Y3032288D01*
X8510270Y3000636D01*
Y2997200D01*
X8661400D01*
Y3148330D01*
D02*
G37*
G36*
X2899036D02*
X2895600D01*
Y2997200D01*
X3046730D01*
Y3000636D01*
X3040434Y3032288D01*
X3028084Y3062103D01*
X3010155Y3088936D01*
X2987336Y3111755D01*
X2960503Y3129684D01*
X2930688Y3142034D01*
X2899036Y3148330D01*
D02*
G37*
G36*
X2870200D02*
X2866764D01*
X2835112Y3142034D01*
X2805297Y3129684D01*
X2778464Y3111755D01*
X2755645Y3088936D01*
X2737716Y3062103D01*
X2725366Y3032288D01*
X2719070Y3000636D01*
Y2997200D01*
X2870200D01*
Y3148330D01*
D02*
G37*
G36*
X5793115Y2971800D02*
X5727700D01*
Y2906385D01*
X5745393Y2911126D01*
X5763347Y2921492D01*
X5778008Y2936153D01*
X5788374Y2954107D01*
X5793115Y2971800D01*
D02*
G37*
G36*
X7884366Y5222240D02*
X7863634D01*
X7843607Y5216874D01*
X7825653Y5206508D01*
X7810992Y5191847D01*
X7800626Y5173893D01*
X7795260Y5153866D01*
Y5133134D01*
X7800626Y5113107D01*
X7810992Y5095153D01*
X7825653Y5080492D01*
X7843607Y5070126D01*
X7863634Y5064760D01*
X7884366D01*
X7887742Y5065664D01*
X8019179Y4934227D01*
Y3003273D01*
X7887742Y2871836D01*
X7884366Y2872740D01*
X7863634D01*
X7843607Y2867374D01*
X7825653Y2857008D01*
X7810992Y2842347D01*
X7800626Y2824393D01*
X7795260Y2804366D01*
Y2783634D01*
X7800626Y2763607D01*
X7810992Y2745653D01*
X7825653Y2730992D01*
X7843607Y2720626D01*
X7863634Y2715260D01*
X7884366D01*
X7904393Y2720626D01*
X7922347Y2730992D01*
X7937008Y2745653D01*
X7947374Y2763607D01*
X7952740Y2783634D01*
Y2804366D01*
X7951836Y2807742D01*
X8096547Y2952453D01*
X8106371Y2967156D01*
X8109821Y2984500D01*
Y4953000D01*
X8106371Y4970344D01*
X8096547Y4985047D01*
X7951836Y5129758D01*
X7952740Y5133134D01*
Y5153866D01*
X7947374Y5173893D01*
X7937008Y5191847D01*
X7922347Y5206508D01*
X7904393Y5216874D01*
X7884366Y5222240D01*
D02*
G37*
G36*
X8837930Y2971800D02*
X8686800D01*
Y2820670D01*
X8690236D01*
X8721888Y2826966D01*
X8751703Y2839316D01*
X8778536Y2857245D01*
X8801355Y2880064D01*
X8819284Y2906897D01*
X8831634Y2936712D01*
X8837930Y2968364D01*
Y2971800D01*
D02*
G37*
G36*
X8661400D02*
X8510270D01*
Y2968364D01*
X8516566Y2936712D01*
X8528916Y2906897D01*
X8546845Y2880064D01*
X8569664Y2857245D01*
X8596497Y2839316D01*
X8626312Y2826966D01*
X8657964Y2820670D01*
X8661400D01*
Y2971800D01*
D02*
G37*
G36*
X3046730D02*
X2895600D01*
Y2820670D01*
X2899036D01*
X2930688Y2826966D01*
X2960503Y2839316D01*
X2987336Y2857245D01*
X3010155Y2880064D01*
X3028084Y2906897D01*
X3040434Y2936712D01*
X3046730Y2968364D01*
Y2971800D01*
D02*
G37*
G36*
X2870200D02*
X2719070D01*
Y2968364D01*
X2725366Y2936712D01*
X2737716Y2906897D01*
X2755645Y2880064D01*
X2778464Y2857245D01*
X2805297Y2839316D01*
X2835112Y2826966D01*
X2866764Y2820670D01*
X2870200D01*
Y2971800D01*
D02*
G37*
G36*
X5854700Y2872115D02*
Y2806700D01*
X5920115D01*
X5915374Y2824393D01*
X5905008Y2842347D01*
X5890347Y2857008D01*
X5872393Y2867374D01*
X5854700Y2872115D01*
D02*
G37*
G36*
X5829300D02*
X5811607Y2867374D01*
X5793653Y2857008D01*
X5778992Y2842347D01*
X5768626Y2824393D01*
X5763885Y2806700D01*
X5829300D01*
Y2872115D01*
D02*
G37*
G36*
X5920115Y2781300D02*
X5854700D01*
Y2715885D01*
X5872393Y2720626D01*
X5890347Y2730992D01*
X5905008Y2745653D01*
X5915374Y2763607D01*
X5920115Y2781300D01*
D02*
G37*
G36*
X5829300D02*
X5763885D01*
X5768626Y2763607D01*
X5778992Y2745653D01*
X5793653Y2730992D01*
X5811607Y2720626D01*
X5829300Y2715885D01*
Y2781300D01*
D02*
G37*
%LPD*%
D10*
X3810000Y2794000D02*
Y3009900D01*
X3937000Y3136900D02*
Y3200400D01*
X3810000Y3009900D02*
X3937000Y3136900D01*
X3810000Y3327400D02*
Y5143500D01*
Y3327400D02*
X3937000Y3200400D01*
X4064000Y2794000D02*
Y3009900D01*
X4191000Y3136900D02*
Y3200400D01*
X4064000Y3009900D02*
X4191000Y3136900D01*
X4064000Y3327400D02*
Y5143500D01*
Y3327400D02*
X4191000Y3200400D01*
X4318000Y2794000D02*
Y3009900D01*
X4445000Y3136900D02*
Y3200400D01*
X4318000Y3009900D02*
X4445000Y3136900D01*
X4318000Y3327400D02*
Y5143500D01*
Y3327400D02*
X4445000Y3200400D01*
X4572000Y2794000D02*
Y3009900D01*
X4699000Y3136900D02*
Y3200400D01*
X4572000Y3009900D02*
X4699000Y3136900D01*
X4572000Y3327400D02*
Y5143500D01*
Y3327400D02*
X4699000Y3200400D01*
X4826000Y2794000D02*
Y3009900D01*
X4953000Y3136900D02*
Y3200400D01*
X4826000Y3009900D02*
X4953000Y3136900D01*
X4826000Y3327400D02*
Y5143500D01*
Y3327400D02*
X4953000Y3200400D01*
X5080000Y2794000D02*
Y3009900D01*
X5207000Y3136900D02*
Y3200400D01*
X5080000Y3009900D02*
X5207000Y3136900D01*
X5080000Y3327400D02*
Y5143500D01*
Y3327400D02*
X5207000Y3200400D01*
X5334000Y2794000D02*
Y3009900D01*
X5461000Y3136900D02*
Y3200400D01*
X5334000Y3009900D02*
X5461000Y3136900D01*
X5334000Y3327400D02*
Y5143500D01*
Y3327400D02*
X5461000Y3200400D01*
X5588000Y2794000D02*
Y3009900D01*
X5715000Y3136900D02*
Y3200400D01*
X5588000Y3009900D02*
X5715000Y3136900D01*
X5588000Y3327400D02*
Y5143500D01*
Y3327400D02*
X5715000Y3200400D01*
X6096000Y2794000D02*
Y3009900D01*
X6223000Y3136900D02*
Y3200400D01*
X6096000Y3009900D02*
X6223000Y3136900D01*
X6096000Y3327400D02*
Y5143500D01*
Y3327400D02*
X6223000Y3200400D01*
X6350000Y2794000D02*
Y3009900D01*
X6477000Y3136900D02*
Y3200400D01*
X6350000Y3009900D02*
X6477000Y3136900D01*
X6350000Y3327400D02*
Y5143500D01*
Y3327400D02*
X6477000Y3200400D01*
X6604000Y2794000D02*
Y3009900D01*
X6731000Y3136900D02*
Y3200400D01*
X6604000Y3009900D02*
X6731000Y3136900D01*
X6604000Y3327400D02*
Y5143500D01*
Y3327400D02*
X6731000Y3200400D01*
X6858000Y2794000D02*
Y3009900D01*
X6985000Y3136900D02*
Y3200400D01*
X6858000Y3009900D02*
X6985000Y3136900D01*
X6858000Y3327400D02*
Y5143500D01*
Y3327400D02*
X6985000Y3200400D01*
X7112000Y2794000D02*
Y3009900D01*
X7239000Y3136900D02*
Y3200400D01*
X7112000Y3009900D02*
X7239000Y3136900D01*
X7112000Y3327400D02*
Y5143500D01*
Y3327400D02*
X7239000Y3200400D01*
X7366000Y2794000D02*
Y3009900D01*
X7493000Y3136900D02*
Y3200400D01*
X7366000Y3009900D02*
X7493000Y3136900D01*
X7366000Y3327400D02*
Y5143500D01*
Y3327400D02*
X7493000Y3200400D01*
X7620000Y3327400D02*
X7747000Y3200400D01*
X7620000Y3327400D02*
Y5143500D01*
Y3009900D02*
X7747000Y3136900D01*
Y3200400D01*
X7620000Y2794000D02*
Y3009900D01*
X8064500Y2984500D02*
Y4953000D01*
X7874000Y5143500D02*
X8064500Y4953000D01*
X7874000Y2794000D02*
X8064500Y2984500D01*
D11*
X2882900Y5524500D02*
D03*
X8674100D02*
D03*
Y2984500D02*
D03*
X2882900D02*
D03*
D12*
X3683000Y5334000D02*
D03*
X3937000D02*
D03*
X3810000Y5143500D02*
D03*
X4191000Y5334000D02*
D03*
X4064000Y5143500D02*
D03*
X4445000Y5334000D02*
D03*
X4318000Y5143500D02*
D03*
X4699000Y5334000D02*
D03*
X4572000Y5143500D02*
D03*
X4953000Y5334000D02*
D03*
X4826000Y5143500D02*
D03*
X5207000Y5334000D02*
D03*
X5080000Y5143500D02*
D03*
X5461000Y5334000D02*
D03*
X5334000Y5143500D02*
D03*
X5715000Y5334000D02*
D03*
X5588000Y5143500D02*
D03*
X5969000Y5334000D02*
D03*
X5842000Y5143500D02*
D03*
X6223000Y5334000D02*
D03*
X6096000Y5143500D02*
D03*
X6477000Y5334000D02*
D03*
X6350000Y5143500D02*
D03*
X6731000Y5334000D02*
D03*
X6604000Y5143500D02*
D03*
X6985000Y5334000D02*
D03*
X6858000Y5143500D02*
D03*
X7239000Y5334000D02*
D03*
X7112000Y5143500D02*
D03*
X7493000Y5334000D02*
D03*
X7366000Y5143500D02*
D03*
X7747000Y5334000D02*
D03*
X7620000Y5143500D02*
D03*
X7874000D02*
D03*
X3683000Y5715000D02*
D03*
X3937000D02*
D03*
X3810000Y5524500D02*
D03*
X4191000Y5715000D02*
D03*
X4064000Y5524500D02*
D03*
X4445000Y5715000D02*
D03*
X4318000Y5524500D02*
D03*
X4699000Y5715000D02*
D03*
X4572000Y5524500D02*
D03*
X4953000Y5715000D02*
D03*
X4826000Y5524500D02*
D03*
X5207000Y5715000D02*
D03*
X5080000Y5524500D02*
D03*
X5461000Y5715000D02*
D03*
X5334000Y5524500D02*
D03*
X5715000Y5715000D02*
D03*
X5588000Y5524500D02*
D03*
X5969000Y5715000D02*
D03*
X5842000Y5524500D02*
D03*
X6223000Y5715000D02*
D03*
X6096000Y5524500D02*
D03*
X6477000Y5715000D02*
D03*
X6350000Y5524500D02*
D03*
X6731000Y5715000D02*
D03*
X6604000Y5524500D02*
D03*
X6985000Y5715000D02*
D03*
X6858000Y5524500D02*
D03*
X7239000Y5715000D02*
D03*
X7112000Y5524500D02*
D03*
X7493000Y5715000D02*
D03*
X7366000Y5524500D02*
D03*
X7747000Y5715000D02*
D03*
X7620000Y5524500D02*
D03*
X7874000D02*
D03*
Y3175000D02*
D03*
X7620000D02*
D03*
X7747000Y3365500D02*
D03*
X7366000Y3175000D02*
D03*
X7493000Y3365500D02*
D03*
X7112000Y3175000D02*
D03*
X7239000Y3365500D02*
D03*
X6858000Y3175000D02*
D03*
X6985000Y3365500D02*
D03*
X6604000Y3175000D02*
D03*
X6731000Y3365500D02*
D03*
X6350000Y3175000D02*
D03*
X6477000Y3365500D02*
D03*
X6096000Y3175000D02*
D03*
X6223000Y3365500D02*
D03*
X5842000Y3175000D02*
D03*
X5969000Y3365500D02*
D03*
X5588000Y3175000D02*
D03*
X5715000Y3365500D02*
D03*
X5334000Y3175000D02*
D03*
X5461000Y3365500D02*
D03*
X5080000Y3175000D02*
D03*
X5207000Y3365500D02*
D03*
X4826000Y3175000D02*
D03*
X4953000Y3365500D02*
D03*
X4572000Y3175000D02*
D03*
X4699000Y3365500D02*
D03*
X4318000Y3175000D02*
D03*
X4445000Y3365500D02*
D03*
X4064000Y3175000D02*
D03*
X4191000Y3365500D02*
D03*
X3810000Y3175000D02*
D03*
X3937000Y3365500D02*
D03*
X3683000D02*
D03*
X7874000Y2794000D02*
D03*
X7620000D02*
D03*
X7747000Y2984500D02*
D03*
X7366000Y2794000D02*
D03*
X7493000Y2984500D02*
D03*
X7112000Y2794000D02*
D03*
X7239000Y2984500D02*
D03*
X6858000Y2794000D02*
D03*
X6985000Y2984500D02*
D03*
X6604000Y2794000D02*
D03*
X6731000Y2984500D02*
D03*
X6350000Y2794000D02*
D03*
X6477000Y2984500D02*
D03*
X6096000Y2794000D02*
D03*
X6223000Y2984500D02*
D03*
X5842000Y2794000D02*
D03*
X5969000Y2984500D02*
D03*
X5588000Y2794000D02*
D03*
X5715000Y2984500D02*
D03*
X5334000Y2794000D02*
D03*
X5461000Y2984500D02*
D03*
X5080000Y2794000D02*
D03*
X5207000Y2984500D02*
D03*
X4826000Y2794000D02*
D03*
X4953000Y2984500D02*
D03*
X4572000Y2794000D02*
D03*
X4699000Y2984500D02*
D03*
X4318000Y2794000D02*
D03*
X4445000Y2984500D02*
D03*
X4064000Y2794000D02*
D03*
X4191000Y2984500D02*
D03*
X3810000Y2794000D02*
D03*
X3937000Y2984500D02*
D03*
X3683000D02*
D03*
%TF.MD5,a6e90192b55d15dc885e117f44baa8b5*%
M02*
