%TF.GenerationSoftware,Altium Limited,Altium Designer,25.0.2 (28)*%
G04 Layer_Color=65535*
%FSLAX45Y45*%
%MOMM*%
%TF.SameCoordinates,44E48E83-7C08-43AE-99C3-F3FE45A01566*%
%TF.FilePolarity,Positive*%
%TF.FileFunction,Legend,Top*%
%TF.Part,Single*%
G01*
G75*
%TA.AperFunction,NonConductor*%
%ADD13C,0.25400*%
D13*
X2908329Y5003775D02*
X2857545D01*
X2882937D01*
Y4876817D01*
X2857545Y4851425D01*
X2832154D01*
X2806762Y4876817D01*
X2959112Y5003775D02*
X3009896D01*
X2984504D01*
Y4851425D01*
X2959112D01*
X3009896D01*
X3086071D02*
Y5003775D01*
X3187639Y4851425D01*
Y5003775D01*
X2870167Y3657551D02*
X2819383D01*
X2844775D01*
Y3530592D01*
X2819383Y3505200D01*
X2793992D01*
X2768600Y3530592D01*
X2997126Y3657551D02*
X2946343D01*
X2920951Y3632159D01*
Y3530592D01*
X2946343Y3505200D01*
X2997126D01*
X3022518Y3530592D01*
Y3632159D01*
X2997126Y3657551D01*
X3073301D02*
Y3530592D01*
X3098693Y3505200D01*
X3149477D01*
X3174869Y3530592D01*
Y3657551D01*
X3225652D02*
X3327219D01*
X3276436D01*
Y3505200D01*
%TF.MD5,e2cf66bb0f4bab36ae1e015dba9eb401*%
M02*
