%TF.GenerationSoftware,Altium Limited,Altium Designer,25.0.2 (28)*%
G04 Layer_Color=8388736*
%FSLAX45Y45*%
%MOMM*%
%TF.SameCoordinates,44E48E83-7C08-43AE-99C3-F3FE45A01566*%
%TF.FilePolarity,Negative*%
%TF.FileFunction,Soldermask,Top*%
%TF.Part,Single*%
G01*
G75*
%TA.AperFunction,ComponentPad*%
%ADD14C,2.74320*%
%ADD15C,1.27000*%
D14*
X2882900Y5524500D02*
D03*
X8674100D02*
D03*
Y2984500D02*
D03*
X2882900D02*
D03*
D15*
X3683000Y5334000D02*
D03*
X3937000D02*
D03*
X3810000Y5143500D02*
D03*
X4191000Y5334000D02*
D03*
X4064000Y5143500D02*
D03*
X4445000Y5334000D02*
D03*
X4318000Y5143500D02*
D03*
X4699000Y5334000D02*
D03*
X4572000Y5143500D02*
D03*
X4953000Y5334000D02*
D03*
X4826000Y5143500D02*
D03*
X5207000Y5334000D02*
D03*
X5080000Y5143500D02*
D03*
X5461000Y5334000D02*
D03*
X5334000Y5143500D02*
D03*
X5715000Y5334000D02*
D03*
X5588000Y5143500D02*
D03*
X5969000Y5334000D02*
D03*
X5842000Y5143500D02*
D03*
X6223000Y5334000D02*
D03*
X6096000Y5143500D02*
D03*
X6477000Y5334000D02*
D03*
X6350000Y5143500D02*
D03*
X6731000Y5334000D02*
D03*
X6604000Y5143500D02*
D03*
X6985000Y5334000D02*
D03*
X6858000Y5143500D02*
D03*
X7239000Y5334000D02*
D03*
X7112000Y5143500D02*
D03*
X7493000Y5334000D02*
D03*
X7366000Y5143500D02*
D03*
X7747000Y5334000D02*
D03*
X7620000Y5143500D02*
D03*
X7874000D02*
D03*
X3683000Y5715000D02*
D03*
X3937000D02*
D03*
X3810000Y5524500D02*
D03*
X4191000Y5715000D02*
D03*
X4064000Y5524500D02*
D03*
X4445000Y5715000D02*
D03*
X4318000Y5524500D02*
D03*
X4699000Y5715000D02*
D03*
X4572000Y5524500D02*
D03*
X4953000Y5715000D02*
D03*
X4826000Y5524500D02*
D03*
X5207000Y5715000D02*
D03*
X5080000Y5524500D02*
D03*
X5461000Y5715000D02*
D03*
X5334000Y5524500D02*
D03*
X5715000Y5715000D02*
D03*
X5588000Y5524500D02*
D03*
X5969000Y5715000D02*
D03*
X5842000Y5524500D02*
D03*
X6223000Y5715000D02*
D03*
X6096000Y5524500D02*
D03*
X6477000Y5715000D02*
D03*
X6350000Y5524500D02*
D03*
X6731000Y5715000D02*
D03*
X6604000Y5524500D02*
D03*
X6985000Y5715000D02*
D03*
X6858000Y5524500D02*
D03*
X7239000Y5715000D02*
D03*
X7112000Y5524500D02*
D03*
X7493000Y5715000D02*
D03*
X7366000Y5524500D02*
D03*
X7747000Y5715000D02*
D03*
X7620000Y5524500D02*
D03*
X7874000D02*
D03*
Y3175000D02*
D03*
X7620000D02*
D03*
X7747000Y3365500D02*
D03*
X7366000Y3175000D02*
D03*
X7493000Y3365500D02*
D03*
X7112000Y3175000D02*
D03*
X7239000Y3365500D02*
D03*
X6858000Y3175000D02*
D03*
X6985000Y3365500D02*
D03*
X6604000Y3175000D02*
D03*
X6731000Y3365500D02*
D03*
X6350000Y3175000D02*
D03*
X6477000Y3365500D02*
D03*
X6096000Y3175000D02*
D03*
X6223000Y3365500D02*
D03*
X5842000Y3175000D02*
D03*
X5969000Y3365500D02*
D03*
X5588000Y3175000D02*
D03*
X5715000Y3365500D02*
D03*
X5334000Y3175000D02*
D03*
X5461000Y3365500D02*
D03*
X5080000Y3175000D02*
D03*
X5207000Y3365500D02*
D03*
X4826000Y3175000D02*
D03*
X4953000Y3365500D02*
D03*
X4572000Y3175000D02*
D03*
X4699000Y3365500D02*
D03*
X4318000Y3175000D02*
D03*
X4445000Y3365500D02*
D03*
X4064000Y3175000D02*
D03*
X4191000Y3365500D02*
D03*
X3810000Y3175000D02*
D03*
X3937000Y3365500D02*
D03*
X3683000D02*
D03*
X7874000Y2794000D02*
D03*
X7620000D02*
D03*
X7747000Y2984500D02*
D03*
X7366000Y2794000D02*
D03*
X7493000Y2984500D02*
D03*
X7112000Y2794000D02*
D03*
X7239000Y2984500D02*
D03*
X6858000Y2794000D02*
D03*
X6985000Y2984500D02*
D03*
X6604000Y2794000D02*
D03*
X6731000Y2984500D02*
D03*
X6350000Y2794000D02*
D03*
X6477000Y2984500D02*
D03*
X6096000Y2794000D02*
D03*
X6223000Y2984500D02*
D03*
X5842000Y2794000D02*
D03*
X5969000Y2984500D02*
D03*
X5588000Y2794000D02*
D03*
X5715000Y2984500D02*
D03*
X5334000Y2794000D02*
D03*
X5461000Y2984500D02*
D03*
X5080000Y2794000D02*
D03*
X5207000Y2984500D02*
D03*
X4826000Y2794000D02*
D03*
X4953000Y2984500D02*
D03*
X4572000Y2794000D02*
D03*
X4699000Y2984500D02*
D03*
X4318000Y2794000D02*
D03*
X4445000Y2984500D02*
D03*
X4064000Y2794000D02*
D03*
X4191000Y2984500D02*
D03*
X3810000Y2794000D02*
D03*
X3937000Y2984500D02*
D03*
X3683000D02*
D03*
%TF.MD5,12b42690eed9200c607462172afaeb30*%
M02*
