%TF.GenerationSoftware,Altium Limited,Altium Designer,25.0.2 (28)*%
G04 Layer_Physical_Order=2*
G04 Layer_Color=16711680*
%FSLAX45Y45*%
%MOMM*%
%TF.SameCoordinates,B98E361C-49A8-4C36-954A-03D76396FE22*%
%TF.FilePolarity,Positive*%
%TF.FileFunction,Copper,L2,Bot,Signal*%
%TF.Part,Single*%
G01*
G75*
%TA.AperFunction,ConnectorPad*%
%ADD16R,4.57200X1.27000*%
%ADD18R,1.27000X4.57200*%
%TA.AperFunction,SMDPad,CuDef*%
%ADD21R,1.45000X1.20000*%
%TA.AperFunction,Conductor*%
%ADD26C,0.93980*%
%TA.AperFunction,ComponentPad*%
%ADD35C,1.52400*%
%TA.AperFunction,ViaPad*%
%ADD36C,1.34620*%
%ADD37C,1.39700*%
%ADD38C,1.01600*%
%ADD39C,0.50000*%
%ADD40C,0.60960*%
%TA.AperFunction,Conductor*%
%ADD41C,1.01600*%
G36*
X8242300Y2552700D02*
X2552700D01*
Y6845300D01*
X8242300D01*
Y2552700D01*
D02*
G37*
%LPC*%
G36*
X7384057Y5598160D02*
X7347943D01*
X7313058Y5588813D01*
X7281782Y5570755D01*
X7256245Y5545218D01*
X7238187Y5513942D01*
X7228840Y5479057D01*
Y5442943D01*
X7238187Y5408058D01*
X7256245Y5376782D01*
X7281782Y5351245D01*
X7313058Y5333187D01*
X7347943Y5323840D01*
X7384057D01*
X7418942Y5333187D01*
X7450218Y5351245D01*
X7475755Y5376782D01*
X7493813Y5408058D01*
X7503160Y5442943D01*
Y5479057D01*
X7493813Y5513942D01*
X7475755Y5545218D01*
X7450218Y5570755D01*
X7418942Y5588813D01*
X7384057Y5598160D01*
D02*
G37*
G36*
X4995287Y5246370D02*
X4961513D01*
X4928890Y5237629D01*
X4899640Y5220742D01*
X4875758Y5196860D01*
X4858871Y5167610D01*
X4850130Y5134987D01*
Y5101213D01*
X4858871Y5068590D01*
X4875758Y5039340D01*
X4899640Y5015458D01*
X4928890Y4998571D01*
X4961513Y4989830D01*
X4995287D01*
X5027910Y4998571D01*
X5057160Y5015458D01*
X5081042Y5039340D01*
X5097929Y5068590D01*
X5106670Y5101213D01*
Y5134987D01*
X5097929Y5167610D01*
X5081042Y5196860D01*
X5057160Y5220742D01*
X5027910Y5237629D01*
X4995287Y5246370D01*
D02*
G37*
G36*
X4529694Y5056160D02*
X4515706D01*
X4502783Y5050807D01*
X4492893Y5040917D01*
X4487540Y5027994D01*
Y5014006D01*
X4492893Y5001083D01*
X4502783Y4991193D01*
X4515706Y4985840D01*
X4529694D01*
X4542617Y4991193D01*
X4552507Y5001083D01*
X4557860Y5014006D01*
Y5027994D01*
X4552507Y5040917D01*
X4542617Y5050807D01*
X4529694Y5056160D01*
D02*
G37*
G36*
X4399694D02*
X4385706D01*
X4372783Y5050807D01*
X4362893Y5040917D01*
X4357540Y5027994D01*
Y5014006D01*
X4362893Y5001083D01*
X4372783Y4991193D01*
X4385706Y4985840D01*
X4399694D01*
X4412617Y4991193D01*
X4422507Y5001083D01*
X4427860Y5014006D01*
Y5027994D01*
X4422507Y5040917D01*
X4412617Y5050807D01*
X4399694Y5056160D01*
D02*
G37*
G36*
X4529694Y4926160D02*
X4515706D01*
X4502783Y4920807D01*
X4492893Y4910917D01*
X4487540Y4897994D01*
Y4884006D01*
X4492893Y4871083D01*
X4502783Y4861193D01*
X4515706Y4855840D01*
X4529694D01*
X4542617Y4861193D01*
X4552507Y4871083D01*
X4557860Y4884006D01*
Y4897994D01*
X4552507Y4910917D01*
X4542617Y4920807D01*
X4529694Y4926160D01*
D02*
G37*
G36*
X4399694D02*
X4385706D01*
X4372783Y4920807D01*
X4362893Y4910917D01*
X4357540Y4897994D01*
Y4884006D01*
X4362893Y4871083D01*
X4372783Y4861193D01*
X4385706Y4855840D01*
X4399694D01*
X4412617Y4861193D01*
X4422507Y4871083D01*
X4427860Y4884006D01*
Y4897994D01*
X4422507Y4910917D01*
X4412617Y4920807D01*
X4399694Y4926160D01*
D02*
G37*
G36*
X4518532Y5279601D02*
X4498468D01*
X4479088Y5274408D01*
X4461712Y5264376D01*
X4447525Y5250189D01*
X4437493Y5232813D01*
X4432300Y5213433D01*
Y5193369D01*
X4437493Y5173989D01*
X4447525Y5156613D01*
X4461712Y5142426D01*
X4472371Y5136271D01*
X4638685Y4969957D01*
Y4922500D01*
X4613800D01*
Y4751700D01*
X4809600D01*
Y4922500D01*
X4784715D01*
Y5000201D01*
X4782227Y5019098D01*
X4774933Y5036708D01*
X4763329Y5051830D01*
X4575629Y5239530D01*
X4569475Y5250189D01*
X4555288Y5264376D01*
X4537912Y5274408D01*
X4518532Y5279601D01*
D02*
G37*
G36*
X4529694Y4796160D02*
X4515706D01*
X4502783Y4790807D01*
X4492893Y4780917D01*
X4487540Y4767994D01*
Y4754006D01*
X4492893Y4741083D01*
X4502783Y4731193D01*
X4515706Y4725840D01*
X4529694D01*
X4542617Y4731193D01*
X4552507Y4741083D01*
X4557860Y4754006D01*
Y4767994D01*
X4552507Y4780917D01*
X4542617Y4790807D01*
X4529694Y4796160D01*
D02*
G37*
G36*
X4399694D02*
X4385706D01*
X4372783Y4790807D01*
X4362893Y4780917D01*
X4357540Y4767994D01*
Y4754006D01*
X4362893Y4741083D01*
X4372783Y4731193D01*
X4385706Y4725840D01*
X4399694D01*
X4412617Y4731193D01*
X4422507Y4741083D01*
X4427860Y4754006D01*
Y4767994D01*
X4422507Y4780917D01*
X4412617Y4790807D01*
X4399694Y4796160D01*
D02*
G37*
G36*
X4529694Y4666160D02*
X4515706D01*
X4502783Y4660807D01*
X4492893Y4650917D01*
X4487540Y4637994D01*
Y4624006D01*
X4492893Y4611083D01*
X4502783Y4601193D01*
X4515706Y4595840D01*
X4529694D01*
X4542617Y4601193D01*
X4552507Y4611083D01*
X4557860Y4624006D01*
Y4637994D01*
X4552507Y4650917D01*
X4542617Y4660807D01*
X4529694Y4666160D01*
D02*
G37*
G36*
X4399694D02*
X4385706D01*
X4372783Y4660807D01*
X4362893Y4650917D01*
X4357540Y4637994D01*
Y4624006D01*
X4362893Y4611083D01*
X4372783Y4601193D01*
X4385706Y4595840D01*
X4399694D01*
X4412617Y4601193D01*
X4422507Y4611083D01*
X4427860Y4624006D01*
Y4637994D01*
X4422507Y4650917D01*
X4412617Y4660807D01*
X4399694Y4666160D01*
D02*
G37*
G36*
X4809600Y4722500D02*
X4613800D01*
Y4551700D01*
X4809600D01*
Y4558642D01*
X4876800D01*
X4881795Y4559300D01*
X4886832D01*
X4891697Y4560604D01*
X4896692Y4561261D01*
X4901347Y4563189D01*
X4906212Y4564493D01*
X4910575Y4567012D01*
X4915229Y4568939D01*
X4919225Y4572006D01*
X4923588Y4574525D01*
X4927150Y4578087D01*
X4931147Y4581153D01*
X4934213Y4585150D01*
X4937775Y4588712D01*
X4940294Y4593075D01*
X4943361Y4597071D01*
X4945288Y4601725D01*
X4947807Y4606088D01*
X4949111Y4610953D01*
X4951039Y4615608D01*
X4951696Y4620603D01*
X4953000Y4625468D01*
Y4630505D01*
X4953658Y4635500D01*
X4953000Y4640495D01*
Y4645532D01*
X4951696Y4650397D01*
X4951039Y4655392D01*
X4949111Y4660047D01*
X4947807Y4664912D01*
X4945288Y4669275D01*
X4943361Y4673929D01*
X4940294Y4677925D01*
X4937775Y4682288D01*
X4934213Y4685850D01*
X4931147Y4689847D01*
X4927150Y4692913D01*
X4923588Y4696475D01*
X4919225Y4698994D01*
X4915229Y4702061D01*
X4910575Y4703988D01*
X4906212Y4706507D01*
X4901347Y4707811D01*
X4896692Y4709739D01*
X4891697Y4710396D01*
X4886832Y4711700D01*
X4881795D01*
X4876800Y4712358D01*
X4809600D01*
Y4722500D01*
D02*
G37*
G36*
X6368057Y4582160D02*
X6331943D01*
X6297058Y4572813D01*
X6265782Y4554755D01*
X6240245Y4529218D01*
X6222187Y4497942D01*
X6212840Y4463057D01*
Y4426943D01*
X6222187Y4392058D01*
X6240245Y4360782D01*
X6265782Y4335245D01*
X6297058Y4317187D01*
X6331943Y4307840D01*
X6368057D01*
X6402942Y4317187D01*
X6434218Y4335245D01*
X6459755Y4360782D01*
X6477813Y4392058D01*
X6487160Y4426943D01*
Y4463057D01*
X6477813Y4497942D01*
X6459755Y4529218D01*
X6434218Y4554755D01*
X6402942Y4572813D01*
X6368057Y4582160D01*
D02*
G37*
G36*
X4017721Y4550410D02*
X3983279D01*
X3950009Y4541496D01*
X3920181Y4524274D01*
X3895826Y4499919D01*
X3878604Y4470091D01*
X3869690Y4436821D01*
Y4402379D01*
X3878604Y4369109D01*
X3895826Y4339281D01*
X3920181Y4314926D01*
X3950009Y4297704D01*
X3983279Y4288790D01*
X4017721D01*
X4050991Y4297704D01*
X4080819Y4314926D01*
X4105174Y4339281D01*
X4122396Y4369109D01*
X4131310Y4402379D01*
Y4436821D01*
X4122396Y4470091D01*
X4105174Y4499919D01*
X4080819Y4524274D01*
X4050991Y4541496D01*
X4017721Y4550410D01*
D02*
G37*
G36*
X7384057Y4074160D02*
X7347943D01*
X7313058Y4064813D01*
X7281782Y4046755D01*
X7256245Y4021218D01*
X7238187Y3989942D01*
X7228840Y3955057D01*
Y3918943D01*
X7238187Y3884058D01*
X7256245Y3852782D01*
X7281782Y3827245D01*
X7313058Y3809187D01*
X7347943Y3799840D01*
X7384057D01*
X7418942Y3809187D01*
X7450218Y3827245D01*
X7475755Y3852782D01*
X7493813Y3884058D01*
X7503160Y3918943D01*
Y3955057D01*
X7493813Y3989942D01*
X7475755Y4021218D01*
X7450218Y4046755D01*
X7418942Y4064813D01*
X7384057Y4074160D01*
D02*
G37*
%LPD*%
D16*
X2781300Y5016500D02*
D03*
Y4508500D02*
D03*
D18*
X7620000Y6616700D02*
D03*
X7112000D02*
D03*
Y2781300D02*
D03*
X7620000D02*
D03*
D21*
X4711700Y4637100D02*
D03*
Y4837100D02*
D03*
D26*
X4508500Y5203401D02*
X4711700Y5000201D01*
Y4837100D02*
Y5000201D01*
D35*
X7874000Y3937000D02*
D03*
Y4445000D02*
D03*
Y4953000D02*
D03*
Y5461000D02*
D03*
X7366000Y3937000D02*
D03*
Y4445000D02*
D03*
Y4953000D02*
D03*
Y5461000D02*
D03*
X6858000Y3937000D02*
D03*
Y4445000D02*
D03*
Y4953000D02*
D03*
Y5461000D02*
D03*
X6350000Y3937000D02*
D03*
Y4445000D02*
D03*
Y4953000D02*
D03*
Y5461000D02*
D03*
D36*
X4978400Y5118100D02*
D03*
D37*
X4000500Y4419600D02*
D03*
D38*
X4508500Y5203401D02*
D03*
X4876800Y4635500D02*
D03*
D39*
X4522700Y5021000D02*
D03*
X4392700D02*
D03*
X4522700Y4631000D02*
D03*
X4392700D02*
D03*
X4522700Y4761000D02*
D03*
X4392700D02*
D03*
X4522700Y4891000D02*
D03*
X4392700D02*
D03*
D40*
X7570954Y2601400D02*
D03*
Y2687760D02*
D03*
Y2774120D02*
D03*
Y2860480D02*
D03*
Y2946840D02*
D03*
Y3033200D02*
D03*
X7161046Y2592909D02*
D03*
Y2679269D02*
D03*
Y2765629D02*
D03*
Y2851989D02*
D03*
Y2938349D02*
D03*
Y3024709D02*
D03*
X7262150Y4112690D02*
D03*
X7198659Y4054150D02*
D03*
X7165108Y3974573D02*
D03*
X7161046Y3888309D02*
D03*
Y3801949D02*
D03*
Y3715589D02*
D03*
Y3629229D02*
D03*
Y3542869D02*
D03*
Y3456509D02*
D03*
Y3370149D02*
D03*
Y3283789D02*
D03*
Y3197429D02*
D03*
Y3111069D02*
D03*
X7570954Y3119560D02*
D03*
Y3205920D02*
D03*
Y3292280D02*
D03*
Y3378640D02*
D03*
Y3465000D02*
D03*
Y3551360D02*
D03*
Y3637720D02*
D03*
Y3724080D02*
D03*
Y3810440D02*
D03*
Y3896800D02*
D03*
X7564963Y3982952D02*
D03*
X7528061Y4061031D02*
D03*
X7462323Y4117036D02*
D03*
X7379376Y4141077D02*
D03*
X7161046Y6677811D02*
D03*
Y6591451D02*
D03*
Y6505091D02*
D03*
Y6418731D02*
D03*
X7159293Y6764171D02*
D03*
X7569200Y6716105D02*
D03*
Y6629745D02*
D03*
Y6543385D02*
D03*
Y6457025D02*
D03*
X7567446Y6802466D02*
D03*
X7569200Y6370665D02*
D03*
X7161046Y6332371D02*
D03*
Y6246011D02*
D03*
Y6159651D02*
D03*
Y6073291D02*
D03*
Y5986931D02*
D03*
Y5900571D02*
D03*
Y5814211D02*
D03*
Y5727851D02*
D03*
Y5641491D02*
D03*
Y5555131D02*
D03*
Y5468771D02*
D03*
X7177042Y5383905D02*
D03*
X7225779Y5312612D02*
D03*
X7299511Y5267649D02*
D03*
X7385296Y5257702D02*
D03*
X7467559Y5283987D02*
D03*
X7531743Y5341767D02*
D03*
X7566510Y5420819D02*
D03*
X7570954Y5507065D02*
D03*
Y5593425D02*
D03*
Y5679785D02*
D03*
Y5766145D02*
D03*
Y5852505D02*
D03*
Y5938865D02*
D03*
Y6025225D02*
D03*
Y6111585D02*
D03*
Y6197945D02*
D03*
Y6284305D02*
D03*
D41*
X4711700Y4637100D02*
X4713300Y4635500D01*
X4876800D01*
%TF.MD5,02c441124617791b8585da77704030ef*%
M02*
