%TF.GenerationSoftware,Altium Limited,Altium Designer,25.0.2 (28)*%
G04 Layer_Physical_Order=1*
G04 Layer_Color=255*
%FSLAX45Y45*%
%MOMM*%
%TF.SameCoordinates,B98E361C-49A8-4C36-954A-03D76396FE22*%
%TF.FilePolarity,Positive*%
%TF.FileFunction,Copper,L1,Top,Signal*%
%TF.Part,Single*%
G01*
G75*
%TA.AperFunction,SMDPad,SMDef*%
G04:AMPARAMS|DCode=10|XSize=2.74681mm|YSize=4.9mm|CornerRadius=0.05494mm|HoleSize=0mm|Usage=FLASHONLY|Rotation=0.000|XOffset=0mm|YOffset=0mm|HoleType=Round|Shape=RoundedRectangle|*
%AMROUNDEDRECTD10*
21,1,2.74681,4.79013,0,0,0.0*
21,1,2.63694,4.90000,0,0,0.0*
1,1,0.10987,1.31847,-2.39507*
1,1,0.10987,-1.31847,-2.39507*
1,1,0.10987,-1.31847,2.39507*
1,1,0.10987,1.31847,2.39507*
%
%ADD10ROUNDEDRECTD10*%
%TA.AperFunction,SMDPad,CuDef*%
G04:AMPARAMS|DCode=11|XSize=0.55mm|YSize=1.25mm|CornerRadius=0.0495mm|HoleSize=0mm|Usage=FLASHONLY|Rotation=90.000|XOffset=0mm|YOffset=0mm|HoleType=Round|Shape=RoundedRectangle|*
%AMROUNDEDRECTD11*
21,1,0.55000,1.15100,0,0,90.0*
21,1,0.45100,1.25000,0,0,90.0*
1,1,0.09900,0.57550,0.22550*
1,1,0.09900,0.57550,-0.22550*
1,1,0.09900,-0.57550,-0.22550*
1,1,0.09900,-0.57550,0.22550*
%
%ADD11ROUNDEDRECTD11*%
%ADD12R,3.04800X2.28600*%
%ADD13R,1.20000X1.45000*%
%ADD14R,0.95000X1.40000*%
%ADD15R,1.40000X0.95000*%
%TA.AperFunction,ConnectorPad*%
%ADD16R,4.57200X1.27000*%
%ADD17R,4.57200X2.03200*%
%ADD18R,1.27000X4.57200*%
%ADD19R,2.03200X4.57200*%
%TA.AperFunction,SMDPad,CuDef*%
%ADD20R,2.28600X3.04800*%
%ADD21R,1.45000X1.20000*%
%ADD22R,1.00000X1.35000*%
%TA.AperFunction,Conductor*%
%ADD23C,1.19380*%
%ADD24C,1.52400*%
%ADD25C,0.55880*%
%ADD26C,0.93980*%
%ADD27C,1.34620*%
%ADD28C,1.24460*%
%ADD29C,2.03200*%
%ADD30C,0.63500*%
%ADD31C,0.76200*%
%ADD32C,1.39700*%
%ADD33C,0.95250*%
%ADD34C,0.53340*%
%TA.AperFunction,ComponentPad*%
%ADD35C,1.52400*%
%TA.AperFunction,ViaPad*%
%ADD36C,1.34620*%
%ADD37C,1.39700*%
%ADD38C,1.01600*%
%ADD39C,0.50000*%
%ADD40C,0.60960*%
G36*
X8242300Y2552700D02*
X7528560D01*
Y2773313D01*
X7529347Y2781300D01*
Y3937000D01*
X7526208Y3968867D01*
X7516913Y3999510D01*
X7501818Y4027751D01*
X7481503Y4052503D01*
X7456751Y4072818D01*
X7428510Y4087913D01*
X7397867Y4097208D01*
X7366000Y4100347D01*
X7334133Y4097208D01*
X7303490Y4087913D01*
X7275249Y4072818D01*
X7250497Y4052503D01*
X7230182Y4027751D01*
X7215087Y3999510D01*
X7205792Y3968867D01*
X7202653Y3937000D01*
Y2781300D01*
X7203440Y2773313D01*
Y2552700D01*
X2552700D01*
Y4635500D01*
X3008626D01*
X3009595Y4635307D01*
X3010564Y4635500D01*
X3011083D01*
X3011913Y4635411D01*
X3012215Y4635500D01*
X3035300D01*
Y4653328D01*
X3037534Y4654457D01*
X3048392Y4657850D01*
X3063633Y4660985D01*
X3174207Y4668961D01*
X3177488Y4668990D01*
X3251200D01*
X3255834Y4669600D01*
X3350900D01*
Y4855400D01*
X3255834D01*
X3251200Y4856010D01*
X3195588D01*
X3140007Y4857049D01*
X3084990Y4861018D01*
X3064457Y4863845D01*
X3048392Y4867150D01*
X3037535Y4870543D01*
X3035300Y4871672D01*
Y4889500D01*
X3012215D01*
X3011913Y4889589D01*
X3011083Y4889500D01*
X3010564D01*
X3009595Y4889693D01*
X3008626Y4889500D01*
X2552700D01*
Y6845300D01*
X7203440D01*
Y6624687D01*
X7202653Y6616700D01*
Y5461000D01*
X7205792Y5429133D01*
X7215087Y5398490D01*
X7230182Y5370249D01*
X7250497Y5345497D01*
X7275249Y5325182D01*
X7303490Y5310087D01*
X7334133Y5300792D01*
X7366000Y5297653D01*
X7397867Y5300792D01*
X7428510Y5310087D01*
X7456751Y5325182D01*
X7481503Y5345497D01*
X7501818Y5370249D01*
X7516913Y5398490D01*
X7526208Y5429133D01*
X7529347Y5461000D01*
Y6616700D01*
X7528560Y6624687D01*
Y6845300D01*
X8242300D01*
Y2552700D01*
D02*
G37*
G36*
X3011614Y4857338D02*
X3017672Y4851561D01*
X3027769Y4846463D01*
X3041904Y4842045D01*
X3060078Y4838306D01*
X3082290Y4835248D01*
X3138830Y4831169D01*
X3211525Y4829810D01*
Y4695190D01*
X3173158Y4694850D01*
X3060078Y4686694D01*
X3041904Y4682955D01*
X3027769Y4678537D01*
X3017672Y4673439D01*
X3011614Y4667662D01*
X3009595Y4661205D01*
Y4863795D01*
X3011614Y4857338D01*
D02*
G37*
%LPC*%
G36*
X5588000Y6039891D02*
X4702000D01*
X4670504Y6035745D01*
X4641154Y6023588D01*
X4615951Y6004249D01*
X4034503Y5422800D01*
X4033994Y5422479D01*
X3987504Y5378314D01*
X3948087Y5345548D01*
X3932012Y5333963D01*
X3917580Y5324822D01*
X3905665Y5318483D01*
X3896775Y5314811D01*
X3891557Y5313395D01*
X3884020Y5312641D01*
X3882115Y5312060D01*
X3828940D01*
Y5250918D01*
X3828328Y5244931D01*
X3828375Y5244775D01*
X3828359Y5244611D01*
X3828940Y5242705D01*
Y5087340D01*
X3821510Y5080410D01*
X3812016Y5081073D01*
X3806500Y5081788D01*
Y5089000D01*
X3781764D01*
X3780795Y5089193D01*
X3779826Y5089000D01*
X3635700D01*
Y4994324D01*
X3635276Y4991100D01*
X3635700Y4987876D01*
Y4893200D01*
X3779826D01*
X3780795Y4893007D01*
X3781764Y4893200D01*
X3806500D01*
Y4898526D01*
X3924625Y4905276D01*
X3945141D01*
X4025329Y4851259D01*
X4025544Y4851044D01*
X4043188Y4839255D01*
X4064000Y4835115D01*
X4195200D01*
X4199677Y4836006D01*
X4252750D01*
X4264592Y4838361D01*
X4274631Y4845069D01*
X4281339Y4855108D01*
X4283695Y4866950D01*
Y4912050D01*
X4281339Y4923892D01*
X4274631Y4933931D01*
X4264592Y4940639D01*
X4252750Y4942994D01*
X4199677D01*
X4195200Y4943885D01*
X4086527D01*
X4086037Y4944375D01*
X4070975Y4961238D01*
X4064522Y4969501D01*
X4060300Y4975692D01*
Y5070140D01*
X4095860D01*
Y5108819D01*
X4208609Y5252712D01*
X4752406Y5796509D01*
X5537594D01*
X5593309Y5740794D01*
Y4843960D01*
X5586124Y4836776D01*
X5086859Y4836854D01*
Y4911695D01*
X5087281Y4914900D01*
Y5001001D01*
X5087543Y5002285D01*
X5087603Y5014148D01*
X5088479Y5042690D01*
X5089261Y5051871D01*
X5090444Y5053412D01*
X5093689Y5061246D01*
X5097929Y5068590D01*
X5100123Y5076780D01*
X5103369Y5084615D01*
X5104475Y5093023D01*
X5106670Y5101213D01*
Y5109692D01*
X5107777Y5118100D01*
Y5311140D01*
X5153660D01*
Y5737860D01*
X4803140D01*
Y5311140D01*
X4849023D01*
Y5118100D01*
X4850130Y5109692D01*
Y5101213D01*
X4852325Y5093023D01*
X4853431Y5084615D01*
X4856677Y5076780D01*
X4858871Y5068590D01*
X4863111Y5061246D01*
X4866356Y5053412D01*
X4866872Y5052739D01*
X4869201Y5013270D01*
X4869256Y5002285D01*
X4869518Y5001001D01*
Y4979167D01*
X4815663D01*
X4807775Y4989327D01*
X4808694Y4993950D01*
Y5039050D01*
X4807397Y5045572D01*
X4808586Y5054600D01*
Y5130500D01*
X4815599D01*
Y5276300D01*
X4721075D01*
X4720199Y5276415D01*
X4650893D01*
X4650504Y5276493D01*
X4650485Y5276489D01*
X4650466Y5276493D01*
X4597055Y5276415D01*
X4530420D01*
X4518532Y5279601D01*
X4498468D01*
X4479088Y5274408D01*
X4461712Y5264376D01*
X4447525Y5250189D01*
X4437493Y5232813D01*
X4432300Y5213433D01*
Y5193369D01*
X4437493Y5173989D01*
X4447525Y5156613D01*
X4461712Y5142426D01*
X4479088Y5132394D01*
X4498468Y5127201D01*
X4518532D01*
X4530420Y5130386D01*
X4578198D01*
X4593737Y5127722D01*
X4607437Y5124754D01*
X4615733Y5122265D01*
X4621821Y5118391D01*
X4625695Y5112302D01*
X4628184Y5104007D01*
X4631152Y5090308D01*
X4631813Y5086452D01*
Y5054600D01*
X4633002Y5045569D01*
X4631705Y5039050D01*
Y4993950D01*
X4634061Y4982108D01*
X4635138Y4980495D01*
X4632189Y4970773D01*
X4629411Y4969622D01*
X4615642Y4959057D01*
X4605078Y4945289D01*
X4598436Y4929256D01*
X4596171Y4912050D01*
Y4866950D01*
X4598436Y4849744D01*
X4605078Y4833711D01*
X4610994Y4826000D01*
X4605078Y4818289D01*
X4598436Y4802256D01*
X4596171Y4785050D01*
Y4739950D01*
X4598436Y4722744D01*
X4605078Y4706711D01*
X4615642Y4692943D01*
X4629411Y4682378D01*
X4632189Y4681227D01*
X4635138Y4671504D01*
X4634061Y4669892D01*
X4631705Y4658050D01*
Y4612950D01*
X4634061Y4601108D01*
X4640769Y4591069D01*
X4650808Y4584361D01*
X4662650Y4582006D01*
X4715723D01*
X4720200Y4581115D01*
X4800129D01*
X4812276Y4579908D01*
X4817193Y4579073D01*
X4821548Y4578076D01*
X4825019Y4577031D01*
X4827571Y4576031D01*
X4829191Y4575205D01*
X4829614Y4574922D01*
X4830012Y4574525D01*
X4847388Y4564493D01*
X4866768Y4559300D01*
X4886832D01*
X4906212Y4564493D01*
X4923588Y4574525D01*
X4937775Y4588712D01*
X4947807Y4606088D01*
X4953000Y4625468D01*
Y4645532D01*
X4951486Y4651184D01*
X4960407Y4657145D01*
X4970218Y4649617D01*
X4992771Y4640275D01*
X5016973Y4637090D01*
X5018029Y4637229D01*
X5019497Y4637035D01*
X5644915Y4636937D01*
X5934676Y4347176D01*
X5963328Y4325191D01*
X5996694Y4311370D01*
X6032500Y4306656D01*
X6350000D01*
X6358991Y4307840D01*
X6368057D01*
X6376816Y4310187D01*
X6385806Y4311370D01*
X6394183Y4314840D01*
X6402942Y4317187D01*
X6410795Y4321721D01*
X6419172Y4325191D01*
X6426365Y4330711D01*
X6434218Y4335245D01*
X6440630Y4341656D01*
X6447824Y4347176D01*
X6453344Y4354370D01*
X6459755Y4360782D01*
X6464289Y4368635D01*
X6469809Y4375828D01*
X6473279Y4384205D01*
X6477813Y4392058D01*
X6480160Y4400817D01*
X6483630Y4409194D01*
X6484813Y4418184D01*
X6487160Y4426943D01*
Y4436009D01*
X6488344Y4445000D01*
X6487160Y4453991D01*
Y4463057D01*
X6484813Y4471816D01*
X6483630Y4480806D01*
X6480160Y4489183D01*
X6477813Y4497942D01*
X6473279Y4505795D01*
X6469809Y4514172D01*
X6464289Y4521365D01*
X6459755Y4529218D01*
X6453344Y4535630D01*
X6447824Y4542824D01*
X6440630Y4548344D01*
X6434218Y4554755D01*
X6426365Y4559289D01*
X6419172Y4564809D01*
X6410795Y4568279D01*
X6402942Y4572813D01*
X6394183Y4575160D01*
X6385806Y4578630D01*
X6376816Y4579813D01*
X6368057Y4582160D01*
X6358991D01*
X6350000Y4583344D01*
X6089804D01*
X5836691Y4836456D01*
Y5791200D01*
X5832545Y5822696D01*
X5820388Y5852046D01*
X5801049Y5877249D01*
X5674049Y6004249D01*
X5648846Y6023588D01*
X5619496Y6035745D01*
X5588000Y6039891D01*
D02*
G37*
G36*
X3505195Y4855593D02*
X3504226Y4855400D01*
X3380100D01*
Y4669600D01*
X3504226D01*
X3505195Y4669407D01*
X3505528Y4669474D01*
X3505864Y4669416D01*
X3506680Y4669600D01*
X3530900D01*
Y4681831D01*
X3532232Y4682170D01*
X3621973Y4688789D01*
X3629748Y4688845D01*
X3683000D01*
X3688736Y4689600D01*
X3751726D01*
X3752695Y4689407D01*
X3753664Y4689600D01*
X3778400D01*
Y4705346D01*
X3779246Y4705611D01*
X3785277Y4706877D01*
X3814898Y4709410D01*
X4081175D01*
X4086186Y4699250D01*
X4080078Y4691289D01*
X4073436Y4675256D01*
X4071171Y4658050D01*
Y4612950D01*
X4073436Y4595744D01*
X4080078Y4579711D01*
X4085678Y4572412D01*
Y4572282D01*
X4083740Y4560975D01*
X4082188Y4553812D01*
X4075025Y4552260D01*
X4070817Y4551539D01*
X4000500D01*
X3991926Y4550410D01*
X3983279D01*
X3974925Y4548172D01*
X3966352Y4547043D01*
X3958363Y4543734D01*
X3950009Y4541496D01*
X3942520Y4537172D01*
X3934531Y4533862D01*
X3927670Y4528598D01*
X3920181Y4524274D01*
X3914066Y4518159D01*
X3907205Y4512895D01*
X3901941Y4506034D01*
X3895826Y4499919D01*
X3891502Y4492430D01*
X3886238Y4485569D01*
X3882928Y4477580D01*
X3878604Y4470091D01*
X3876366Y4461737D01*
X3873057Y4453748D01*
X3871928Y4445175D01*
X3869690Y4436821D01*
Y4428174D01*
X3868561Y4419600D01*
X3869690Y4411026D01*
Y4402379D01*
X3871928Y4394025D01*
X3873057Y4385452D01*
X3876366Y4377463D01*
X3878604Y4369109D01*
X3882928Y4361620D01*
X3886238Y4353631D01*
X3891502Y4346770D01*
X3895826Y4339281D01*
X3901941Y4333166D01*
X3907205Y4326305D01*
X3914066Y4321041D01*
X3920181Y4314926D01*
X3927670Y4310602D01*
X3934531Y4305338D01*
X3942520Y4302028D01*
X3950009Y4297704D01*
X3958363Y4295466D01*
X3966352Y4292157D01*
X3974925Y4291028D01*
X3981841Y4289175D01*
Y3964940D01*
X4408561D01*
Y4315460D01*
X4304722D01*
Y4419600D01*
X4304722Y4419602D01*
Y4572413D01*
X4310322Y4579711D01*
X4316963Y4595744D01*
X4319229Y4612950D01*
Y4658050D01*
X4316963Y4675256D01*
X4310322Y4691289D01*
X4299757Y4705057D01*
X4285989Y4715622D01*
X4283211Y4716773D01*
X4280261Y4726496D01*
X4281339Y4728108D01*
X4283695Y4739950D01*
Y4785050D01*
X4281339Y4796892D01*
X4274631Y4806931D01*
X4264592Y4813639D01*
X4252750Y4815994D01*
X4137650D01*
X4135617Y4815590D01*
X3813387D01*
X3794503Y4816801D01*
X3785938Y4817984D01*
X3779246Y4819389D01*
X3778400Y4819654D01*
Y4835400D01*
X3753664D01*
X3752695Y4835593D01*
X3751726Y4835400D01*
X3688736D01*
X3683000Y4836155D01*
X3639552D01*
X3597594Y4836794D01*
X3558833Y4839069D01*
X3544497Y4840676D01*
X3533395Y4842534D01*
X3530900Y4843169D01*
Y4855400D01*
X3506679D01*
X3505864Y4855584D01*
X3505529Y4855526D01*
X3505195Y4855593D01*
D02*
G37*
%LPD*%
G36*
X4161217Y5293002D02*
X4034595Y5131405D01*
X3890205Y5250795D01*
X3902866Y5252061D01*
X3916861Y5255860D01*
X3932188Y5262191D01*
X3948849Y5271055D01*
X3966842Y5282451D01*
X3986168Y5296379D01*
X4028819Y5331833D01*
X4076802Y5377417D01*
X4161217Y5293002D01*
D02*
G37*
G36*
X4650504Y5160934D02*
X4664710Y5161280D01*
X4662170Y5057140D01*
X4659630Y5077460D01*
X4656582Y5095240D01*
X4653280Y5110480D01*
X4649470Y5123180D01*
X4640580Y5137150D01*
X4626610Y5146040D01*
X4613910Y5149850D01*
X4598670Y5153152D01*
X4580890Y5156200D01*
X4580027Y5156308D01*
X4509534Y5156411D01*
Y5250391D01*
X4650504Y5250595D01*
Y5160934D01*
D02*
G37*
G36*
X5031737Y5077041D02*
X5030531Y5074812D01*
X5029452Y5071425D01*
X5028500Y5066878D01*
X5027675Y5061172D01*
X5026405Y5046284D01*
X5025453Y5015257D01*
X5025390Y5002597D01*
X4937975Y5002597D01*
X4940300Y4907280D01*
X4836160Y4909820D01*
X4856480Y4912360D01*
X4874260Y4915408D01*
X4889500Y4918710D01*
X4902200Y4922520D01*
X4916170Y4931410D01*
X4925060Y4945380D01*
X4928870Y4958080D01*
X4932172Y4973320D01*
X4935220Y4991100D01*
X4936657Y5002597D01*
X4931410D01*
X4931346Y5015257D01*
X4928300Y5066878D01*
X4927348Y5071425D01*
X4926269Y5074813D01*
X4925063Y5077041D01*
X5031737Y5077041D01*
D02*
G37*
G36*
X3782586Y5060919D02*
X3787958Y5058793D01*
X3796911Y5056917D01*
X3809446Y5055292D01*
X3845260Y5052791D01*
X3959865Y5050790D01*
Y4937002D01*
X4034290Y4988746D01*
X4031597Y4985735D01*
X4030602Y4981627D01*
X4031304Y4976421D01*
X4033704Y4970118D01*
X4037802Y4962717D01*
X4043597Y4954220D01*
X4051090Y4944625D01*
X4071170Y4922143D01*
X4083757Y4909257D01*
X4044243Y4869743D01*
X3952737Y4931384D01*
X3925842Y4931285D01*
X3787958Y4923407D01*
X3782586Y4921281D01*
X3780795Y4918905D01*
Y5063295D01*
X3782586Y5060919D01*
D02*
G37*
G36*
X5664200Y4762500D02*
X5560060Y4765040D01*
X5580380Y4767580D01*
X5598160Y4770628D01*
X5613400Y4773930D01*
X5626100Y4777740D01*
X5640070Y4786630D01*
X5648960Y4800600D01*
X5652770Y4813300D01*
X5656072Y4828540D01*
X5659120Y4846320D01*
X5661660Y4866640D01*
X5664200Y4762500D01*
D02*
G37*
G36*
X4845812Y4595246D02*
X4842310Y4597586D01*
X4838204Y4599679D01*
X4833492Y4601526D01*
X4828176Y4603127D01*
X4822254Y4604482D01*
X4815728Y4605590D01*
X4800861Y4607067D01*
X4792520Y4607437D01*
X4783574Y4607560D01*
Y4663440D01*
X4792520Y4663563D01*
X4815728Y4665410D01*
X4822254Y4666518D01*
X4828176Y4667873D01*
X4833492Y4669474D01*
X4838204Y4671321D01*
X4842310Y4673414D01*
X4845812Y4675754D01*
Y4595246D01*
D02*
G37*
G36*
X3753495Y4805795D02*
X3755895Y4802306D01*
X3759896Y4799227D01*
X3765497Y4796559D01*
X3772698Y4794301D01*
X3781499Y4792454D01*
X3791900Y4791017D01*
X3817503Y4789375D01*
X3832705Y4789170D01*
Y4735830D01*
X3817503Y4735625D01*
X3781499Y4732546D01*
X3772698Y4730699D01*
X3765497Y4728441D01*
X3759896Y4725773D01*
X3755895Y4722694D01*
X3753495Y4719205D01*
X3752695Y4715305D01*
Y4809695D01*
X3753495Y4805795D01*
D02*
G37*
G36*
X3506624Y4825977D02*
X3510910Y4822650D01*
X3518054Y4819715D01*
X3528055Y4817170D01*
X3540914Y4815018D01*
X3556630Y4813256D01*
X3596635Y4810908D01*
X3648070Y4810125D01*
Y4714875D01*
X3620924Y4714679D01*
X3528055Y4707830D01*
X3518054Y4705285D01*
X3510910Y4702350D01*
X3506624Y4699023D01*
X3505195Y4695305D01*
Y4829695D01*
X3506624Y4825977D01*
D02*
G37*
G36*
X4152900Y4483100D02*
X4048760Y4485640D01*
X4069080Y4488180D01*
X4086860Y4491228D01*
X4102100Y4494530D01*
X4114800Y4498340D01*
X4128770Y4507230D01*
X4137660Y4521200D01*
X4141470Y4533900D01*
X4144772Y4549140D01*
X4147820Y4566920D01*
X4150360Y4587240D01*
X4152900Y4483100D01*
D02*
G37*
G36*
X4149090Y4250690D02*
X4146550Y4271010D01*
X4143502Y4288790D01*
X4140200Y4304030D01*
X4136390Y4316730D01*
X4127500Y4330700D01*
X4113530Y4339590D01*
X4100830Y4343400D01*
X4085590Y4346702D01*
X4067810Y4349750D01*
X4047490Y4352290D01*
X4151630Y4354830D01*
X4149090Y4250690D01*
D02*
G37*
D10*
X4457700Y4826000D02*
D03*
D11*
X4195200Y5016500D02*
D03*
Y4889500D02*
D03*
Y4762500D02*
D03*
Y4635500D02*
D03*
X4720200Y5016500D02*
D03*
Y4889500D02*
D03*
Y4762500D02*
D03*
Y4635500D02*
D03*
D12*
X4195201Y3683000D02*
D03*
Y4140200D02*
D03*
D13*
X3521100Y4991100D02*
D03*
X3721100D02*
D03*
D14*
X4380200Y4419600D02*
D03*
X4195200D02*
D03*
X4978399Y4927600D02*
D03*
X5163399D02*
D03*
D15*
X3683000Y4762500D02*
D03*
Y4577501D02*
D03*
X4720199Y5203400D02*
D03*
Y5388400D02*
D03*
D16*
X2781300Y4508500D02*
D03*
Y5016500D02*
D03*
D17*
Y4762500D02*
D03*
D18*
X7112000Y6616700D02*
D03*
X7620000D02*
D03*
Y2781300D02*
D03*
X7112000D02*
D03*
D19*
X7366000Y6616700D02*
D03*
Y2781300D02*
D03*
D20*
X4978400Y5524500D02*
D03*
X5435600D02*
D03*
D21*
X3962400Y5191100D02*
D03*
Y4991100D02*
D03*
D22*
X3275500Y4762500D02*
D03*
X3455500D02*
D03*
D23*
X3962400Y5191100D02*
X3974900D01*
X4702000Y5918200D01*
X5715000Y4762500D02*
Y5791200D01*
X5588000Y5918200D02*
X5715000Y5791200D01*
X4702000Y5918200D02*
X5588000D01*
X3721100Y4991100D02*
X3962400D01*
D24*
X5727700Y4749800D02*
X6032500Y4445000D01*
X6350000D01*
D25*
X4720200Y4889500D02*
X4978399D01*
X4720200D02*
X4978399D01*
X4720200Y4635500D02*
X4876800D01*
X4720200Y4762500D02*
X4985071D01*
X4720200D02*
X4720640Y4762060D01*
X5683100Y4730600D02*
X5715000Y4762500D01*
X4006960Y4946540D02*
X4064000Y4889500D01*
X4195200D01*
X3962400Y4991100D02*
X3974900D01*
D26*
X4978400Y4914900D02*
Y5118100D01*
X4508500Y5203401D02*
X4720199D01*
D27*
X4978400Y5118100D02*
Y5524500D01*
X2781300Y4762500D02*
X3251200D01*
D28*
X4720199Y5054600D02*
Y5181600D01*
D29*
X7366000Y5461000D02*
Y6616700D01*
Y2781300D02*
Y3937000D01*
D30*
X4988880Y4758690D02*
X5016971Y4730600D01*
D31*
X5019512Y4736950D02*
X5683100Y4736846D01*
D32*
X4000500Y4419600D02*
X4165600D01*
D33*
X4195200Y4419600D02*
X4195200Y4419600D01*
X4195200Y4419600D02*
Y4610100D01*
X4195200Y4140201D02*
X4195201Y4140200D01*
X4195200Y4140201D02*
Y4419600D01*
X3455500Y4762500D02*
X3683000D01*
D34*
X4195200D01*
D35*
X7874000Y3937000D02*
D03*
Y4445000D02*
D03*
Y4953000D02*
D03*
Y5461000D02*
D03*
X7366000Y3937000D02*
D03*
Y4445000D02*
D03*
Y4953000D02*
D03*
Y5461000D02*
D03*
X6858000Y3937000D02*
D03*
Y4445000D02*
D03*
Y4953000D02*
D03*
Y5461000D02*
D03*
X6350000Y3937000D02*
D03*
Y4445000D02*
D03*
Y4953000D02*
D03*
Y5461000D02*
D03*
D36*
X4978400Y5118100D02*
D03*
D37*
X4000500Y4419600D02*
D03*
D38*
X4508500Y5203401D02*
D03*
X4876800Y4635500D02*
D03*
D39*
X4522700Y5021000D02*
D03*
X4392700D02*
D03*
X4522700Y4631000D02*
D03*
X4392700D02*
D03*
X4522700Y4761000D02*
D03*
X4392700D02*
D03*
X4522700Y4891000D02*
D03*
X4392700D02*
D03*
D40*
X7570954Y2601400D02*
D03*
Y2687760D02*
D03*
Y2774120D02*
D03*
Y2860480D02*
D03*
Y2946840D02*
D03*
Y3033200D02*
D03*
X7161046Y2592909D02*
D03*
Y2679269D02*
D03*
Y2765629D02*
D03*
Y2851989D02*
D03*
Y2938349D02*
D03*
Y3024709D02*
D03*
X7262150Y4112690D02*
D03*
X7198659Y4054150D02*
D03*
X7165108Y3974573D02*
D03*
X7161046Y3888309D02*
D03*
Y3801949D02*
D03*
Y3715589D02*
D03*
Y3629229D02*
D03*
Y3542869D02*
D03*
Y3456509D02*
D03*
Y3370149D02*
D03*
Y3283789D02*
D03*
Y3197429D02*
D03*
Y3111069D02*
D03*
X7570954Y3119560D02*
D03*
Y3205920D02*
D03*
Y3292280D02*
D03*
Y3378640D02*
D03*
Y3465000D02*
D03*
Y3551360D02*
D03*
Y3637720D02*
D03*
Y3724080D02*
D03*
Y3810440D02*
D03*
Y3896800D02*
D03*
X7564963Y3982952D02*
D03*
X7528061Y4061031D02*
D03*
X7462323Y4117036D02*
D03*
X7379376Y4141077D02*
D03*
X7161046Y6677811D02*
D03*
Y6591451D02*
D03*
Y6505091D02*
D03*
Y6418731D02*
D03*
X7159293Y6764171D02*
D03*
X7569200Y6716105D02*
D03*
Y6629745D02*
D03*
Y6543385D02*
D03*
Y6457025D02*
D03*
X7567446Y6802466D02*
D03*
X7569200Y6370665D02*
D03*
X7161046Y6332371D02*
D03*
Y6246011D02*
D03*
Y6159651D02*
D03*
Y6073291D02*
D03*
Y5986931D02*
D03*
Y5900571D02*
D03*
Y5814211D02*
D03*
Y5727851D02*
D03*
Y5641491D02*
D03*
Y5555131D02*
D03*
Y5468771D02*
D03*
X7177042Y5383905D02*
D03*
X7225779Y5312612D02*
D03*
X7299511Y5267649D02*
D03*
X7385296Y5257702D02*
D03*
X7467559Y5283987D02*
D03*
X7531743Y5341767D02*
D03*
X7566510Y5420819D02*
D03*
X7570954Y5507065D02*
D03*
Y5593425D02*
D03*
Y5679785D02*
D03*
Y5766145D02*
D03*
Y5852505D02*
D03*
Y5938865D02*
D03*
Y6025225D02*
D03*
Y6111585D02*
D03*
Y6197945D02*
D03*
Y6284305D02*
D03*
%TF.MD5,27f23171071729fd6c1e5f26170cfb9d*%
M02*
