%TF.GenerationSoftware,Altium Limited,Altium Designer,25.0.2 (28)*%
G04 Layer_Color=65535*
%FSLAX45Y45*%
%MOMM*%
%TF.SameCoordinates,B88DCB4E-FD68-4634-876E-9F1E0B8218E1*%
%TF.FilePolarity,Positive*%
%TF.FileFunction,Legend,Top*%
%TF.Part,Single*%
G01*
G75*
%TA.AperFunction,NonConductor*%
%ADD62C,0.25000*%
%ADD63C,0.25400*%
%ADD64C,0.20000*%
%ADD65C,0.08000*%
%ADD66C,0.30480*%
%ADD67C,0.40640*%
%ADD68C,0.20320*%
D62*
X11755700Y25021201D02*
G03*
X11755700Y25021201I-12500J0D01*
G01*
X6180400Y5488600D02*
G03*
X6180400Y5488600I-12500J0D01*
G01*
D63*
X15659100Y18008600D02*
X17042699Y16625002D01*
X20307300D01*
X14363699Y10769600D02*
X14389101Y10795000D01*
Y10807700D01*
X13563600Y9969500D02*
X14363699Y10769600D01*
X10833100Y9969500D02*
X13563600D01*
X8483600Y9334500D02*
X10198100Y9334500D01*
X10833100Y9969500D01*
X14389101Y10807700D02*
Y11569700D01*
X16674400Y13855000D01*
X20307300D01*
X8483600Y13093700D02*
X8915400D01*
X9944100Y14122400D01*
X16141701D01*
X16428300Y14409000D01*
X20307300D01*
X10261600Y15798801D02*
X13297185Y15798801D01*
X14409984Y14686000D01*
X20307300D01*
X8483600Y16979900D02*
X9537700D01*
X9753600Y16764000D01*
X10375900D01*
X10706100Y16433800D01*
X14541499D01*
X15181300Y15794000D01*
X20307300D01*
X10261600Y19443700D02*
X10337800D01*
X10629900Y19151601D01*
Y18630901D02*
Y19151601D01*
Y18630901D02*
X11734800Y17525999D01*
X14922501D01*
X16377499Y16071001D01*
X20307300D01*
X14478000Y18008600D02*
X15659100D01*
X13373100Y19113499D02*
X14478000Y18008600D01*
X13373100Y19113499D02*
Y20434300D01*
Y22606000D01*
X12725400Y23253700D02*
X13373100Y22606000D01*
X10261600Y23253700D02*
X12725400Y23253700D01*
X11315700Y24218900D02*
Y24295100D01*
Y24218900D02*
X11391900D01*
X11315700Y24904700D02*
X11391900D01*
X11315700Y24828500D02*
Y24904700D01*
X11925300Y24828500D02*
Y24904700D01*
X11849100D02*
X11925300D01*
X11849100Y24218900D02*
X11925300D01*
Y24295100D01*
X11849100Y25641299D02*
Y25717499D01*
Y25641299D02*
X11925300D01*
X11849100Y26327100D02*
X11925300D01*
X11849100Y26250900D02*
Y26327100D01*
X12458700Y26250900D02*
Y26327100D01*
X12382500D02*
X12458700D01*
X12382500Y25641299D02*
X12458700D01*
Y25717499D01*
X6553200Y4762500D02*
X6629400D01*
Y4838700D01*
X5943600Y4762500D02*
Y4838700D01*
Y4762500D02*
X6019800D01*
X5943600Y5372100D02*
X6019800D01*
X5943600Y5295900D02*
Y5372100D01*
X6629400Y5295900D02*
Y5372100D01*
X6553200D02*
X6629400D01*
X20307300Y15595599D02*
X20370799Y15659100D01*
X20485100D01*
X20624800Y15519400D01*
X20789900D01*
X20916901Y15392400D01*
Y15074899D02*
Y15392400D01*
X20802600Y14960600D02*
X20916901Y15074899D01*
X20624800Y14960600D02*
X20802600D01*
X20485100Y14820900D02*
X20624800Y14960600D01*
X20370799Y14820900D02*
X20485100D01*
X20307300Y14884399D02*
X20370799Y14820900D01*
X20307300Y14884399D02*
Y15595599D01*
X2857500Y14224001D02*
Y14338300D01*
X2933700Y14414500D01*
X3009900D01*
X3136900Y14541499D01*
X3225800D01*
X3276600Y14592300D01*
Y16395700D01*
X3441700Y16560800D01*
X3594100D01*
X3670300Y16484599D01*
Y12344400D02*
Y16484599D01*
X3467100Y12141200D02*
X3670300Y12344400D01*
X3327400Y12141200D02*
X3467100D01*
X3263900Y12204700D02*
X3327400Y12141200D01*
X3263900Y12204700D02*
Y14236700D01*
X3225800Y14274800D02*
X3263900Y14236700D01*
X3136900Y14274800D02*
X3225800D01*
X3022600Y14160500D02*
X3136900Y14274800D01*
X2921000Y14160500D02*
X3022600D01*
X2857500Y14224001D02*
X2921000Y14160500D01*
X10109200Y8039100D02*
Y8115300D01*
X10033000Y8039100D02*
X10109200D01*
X10033000Y8724900D02*
X10109200D01*
Y8648700D02*
Y8724900D01*
X9499600Y8648700D02*
Y8724900D01*
X9575800D01*
X9499600Y8039100D02*
X9575800D01*
X9499600D02*
Y8115300D01*
X10109200Y11849100D02*
Y11925300D01*
X10033000Y11849100D02*
X10109200D01*
X10033000Y12534900D02*
X10109200D01*
Y12458700D02*
Y12534900D01*
X9499600Y12458700D02*
Y12534900D01*
X9575800D01*
X9499600Y11849100D02*
X9575800D01*
X9499600D02*
Y11925300D01*
X10109200Y23279100D02*
Y23355299D01*
X10033000Y23279100D02*
X10109200D01*
X10033000Y23964900D02*
X10109200D01*
Y23888699D02*
Y23964900D01*
X9499600Y23888699D02*
Y23964900D01*
X9575800D01*
X9499600Y23279100D02*
X9575800D01*
X9499600D02*
Y23355299D01*
X10109200Y19469099D02*
Y19545300D01*
X10033000Y19469099D02*
X10109200D01*
X10033000Y20154900D02*
X10109200D01*
Y20078700D02*
Y20154900D01*
X9499600Y20078700D02*
Y20154900D01*
X9575800D01*
X9499600Y19469099D02*
X9575800D01*
X9499600D02*
Y19545300D01*
X8318500Y7404100D02*
Y7480300D01*
X8394700D01*
X8318500Y6794500D02*
X8394700D01*
X8318500D02*
Y6870700D01*
X8928100Y6794500D02*
Y6870700D01*
X8851900Y6794500D02*
X8928100D01*
X8851900Y7480300D02*
X8928100D01*
Y7404100D02*
Y7480300D01*
X8318500Y11214100D02*
Y11290300D01*
X8394700D01*
X8318500Y10604500D02*
X8394700D01*
X8318500D02*
Y10680700D01*
X8928100Y10604500D02*
Y10680700D01*
X8851900Y10604500D02*
X8928100D01*
X8851900Y11290300D02*
X8928100D01*
Y11214100D02*
Y11290300D01*
X8318500Y22644099D02*
Y22720300D01*
X8394700D01*
X8318500Y22034500D02*
X8394700D01*
X8318500D02*
Y22110699D01*
X8928100Y22034500D02*
Y22110699D01*
X8851900Y22034500D02*
X8928100D01*
X8851900Y22720300D02*
X8928100D01*
Y22644099D02*
Y22720300D01*
X8318500Y18834100D02*
Y18910300D01*
X8394700D01*
X8318500Y18224500D02*
X8394700D01*
X8318500D02*
Y18300700D01*
X8928100Y18224500D02*
Y18300700D01*
X8851900Y18224500D02*
X8928100D01*
X8851900Y18910300D02*
X8928100D01*
Y18834100D02*
Y18910300D01*
X8318500Y15024100D02*
Y15100301D01*
X8394700D01*
X8318500Y14414500D02*
X8394700D01*
X8318500D02*
Y14490700D01*
X8928100Y14414500D02*
Y14490700D01*
X8851900Y14414500D02*
X8928100D01*
X8851900Y15100301D02*
X8928100D01*
Y15024100D02*
Y15100301D01*
X10109200Y15659100D02*
Y15735300D01*
X10033000Y15659100D02*
X10109200D01*
X10033000Y16344901D02*
X10109200D01*
Y16268700D02*
Y16344901D01*
X9499600Y16268700D02*
Y16344901D01*
X9575800D01*
X9499600Y15659100D02*
X9575800D01*
X9499600D02*
Y15735300D01*
X8331200Y9309100D02*
Y9385300D01*
X8255000Y9309100D02*
X8331200D01*
X8255000Y9994900D02*
X8331200D01*
Y9918700D02*
Y9994900D01*
X7721600Y9918700D02*
Y9994900D01*
X7797800D01*
X7721600Y9309100D02*
X7797800D01*
X7721600D02*
Y9385300D01*
X8331200Y13119099D02*
Y13195300D01*
X8255000Y13119099D02*
X8331200D01*
X8255000Y13804900D02*
X8331200D01*
Y13728700D02*
Y13804900D01*
X7721600Y13728700D02*
Y13804900D01*
X7797800D01*
X7721600Y13119099D02*
X7797800D01*
X7721600D02*
Y13195300D01*
X8331200Y24549100D02*
Y24625301D01*
X8255000Y24549100D02*
X8331200D01*
X8255000Y25234900D02*
X8331200D01*
Y25158701D02*
Y25234900D01*
X7721600Y25158701D02*
Y25234900D01*
X7797800D01*
X7721600Y24549100D02*
X7797800D01*
X7721600D02*
Y24625301D01*
X8331200Y20739101D02*
Y20815300D01*
X8255000Y20739101D02*
X8331200D01*
X8255000Y21424899D02*
X8331200D01*
Y21348700D02*
Y21424899D01*
X7721600Y21348700D02*
Y21424899D01*
X7797800D01*
X7721600Y20739101D02*
X7797800D01*
X7721600D02*
Y20815300D01*
X8331200Y16929100D02*
Y17005299D01*
X8255000Y16929100D02*
X8331200D01*
X8255000Y17614900D02*
X8331200D01*
Y17538699D02*
Y17614900D01*
X7721600Y17538699D02*
Y17614900D01*
X7797800D01*
X7721600Y16929100D02*
X7797800D01*
X7721600D02*
Y17005299D01*
X6540500Y8674100D02*
Y8750300D01*
X6616700D01*
X6540500Y8064500D02*
X6616700D01*
X6540500D02*
Y8140700D01*
X7150100Y8064500D02*
Y8140700D01*
X7073900Y8064500D02*
X7150100D01*
X7073900Y8750300D02*
X7150100D01*
Y8674100D02*
Y8750300D01*
X6540500Y12484100D02*
Y12560300D01*
X6616700D01*
X6540500Y11874500D02*
X6616700D01*
X6540500D02*
Y11950700D01*
X7150100Y11874500D02*
Y11950700D01*
X7073900Y11874500D02*
X7150100D01*
X7073900Y12560300D02*
X7150100D01*
Y12484100D02*
Y12560300D01*
X6540500Y23914101D02*
Y23990300D01*
X6616700D01*
X6540500Y23304500D02*
X6616700D01*
X6540500D02*
Y23380701D01*
X7150100Y23304500D02*
Y23380701D01*
X7073900Y23304500D02*
X7150100D01*
X7073900Y23990300D02*
X7150100D01*
Y23914101D02*
Y23990300D01*
X6540500Y20104100D02*
Y20180299D01*
X6616700D01*
X6540500Y19494501D02*
X6616700D01*
X6540500D02*
Y19570700D01*
X7150100Y19494501D02*
Y19570700D01*
X7073900Y19494501D02*
X7150100D01*
X7073900Y20180299D02*
X7150100D01*
Y20104100D02*
Y20180299D01*
X6540500Y16294099D02*
Y16370300D01*
X6616700D01*
X6540500Y15684500D02*
X6616700D01*
X6540500D02*
Y15760699D01*
X7150100Y15684500D02*
Y15760699D01*
X7073900Y15684500D02*
X7150100D01*
X7073900Y16370300D02*
X7150100D01*
Y16294099D02*
Y16370300D01*
X17271967Y16243259D02*
X17246574Y16268651D01*
X17195792D01*
X17170399Y16243259D01*
Y16141692D01*
X17195792Y16116299D01*
X17246574D01*
X17271967Y16141692D01*
X17322751Y16268651D02*
Y16116299D01*
Y16192474D01*
X17424318D01*
Y16268651D01*
Y16116299D01*
X17475101D02*
Y16217867D01*
X17525885Y16268651D01*
X17576669Y16217867D01*
Y16116299D01*
Y16192474D01*
X17475101D01*
X17627452Y16116299D02*
Y16268651D01*
X17729019Y16116299D01*
Y16268651D01*
X17779803Y16116299D02*
Y16268651D01*
X17881371Y16116299D01*
Y16268651D01*
X18033720D02*
X17932153D01*
Y16116299D01*
X18033720D01*
X17932153Y16192474D02*
X17982938D01*
X18084505Y16268651D02*
Y16116299D01*
X18186072D01*
X18465381D02*
Y16268651D01*
X18389206Y16192474D01*
X18490773D01*
X17271967Y16802058D02*
X17246574Y16827451D01*
X17195792D01*
X17170399Y16802058D01*
Y16700491D01*
X17195792Y16675101D01*
X17246574D01*
X17271967Y16700491D01*
X17322751Y16827451D02*
Y16675101D01*
Y16751276D01*
X17424318D01*
Y16827451D01*
Y16675101D01*
X17475101D02*
Y16776666D01*
X17525885Y16827451D01*
X17576669Y16776666D01*
Y16675101D01*
Y16751276D01*
X17475101D01*
X17627452Y16675101D02*
Y16827451D01*
X17729019Y16675101D01*
Y16827451D01*
X17779803Y16675101D02*
Y16827451D01*
X17881371Y16675101D01*
Y16827451D01*
X18033720D02*
X17932153D01*
Y16675101D01*
X18033720D01*
X17932153Y16751276D02*
X17982938D01*
X18084505Y16827451D02*
Y16675101D01*
X18186072D01*
X18490773D02*
X18389206D01*
X18490773Y16776666D01*
Y16802058D01*
X18465381Y16827451D01*
X18414598D01*
X18389206Y16802058D01*
X13703259Y22974333D02*
X13728651Y22999725D01*
Y23050508D01*
X13703259Y23075900D01*
X13601692D01*
X13576300Y23050508D01*
Y22999725D01*
X13601692Y22974333D01*
X13728651Y22923549D02*
X13576300D01*
X13652475D01*
Y22821982D01*
X13728651D01*
X13576300D01*
Y22771199D02*
X13677867D01*
X13728651Y22720415D01*
X13677867Y22669630D01*
X13576300D01*
X13652475D01*
Y22771199D01*
X13576300Y22618848D02*
X13728651D01*
X13576300Y22517281D01*
X13728651D01*
X13576300Y22466496D02*
X13728651D01*
X13576300Y22364931D01*
X13728651D01*
Y22212579D02*
Y22314146D01*
X13576300D01*
Y22212579D01*
X13652475Y22314146D02*
Y22263364D01*
X13728651Y22161797D02*
X13576300D01*
Y22060228D01*
Y21857094D02*
Y21806311D01*
Y21831702D01*
X13728651D01*
X13703259Y21857094D01*
X13576300Y21527000D02*
X13627083Y21577785D01*
X13677867D01*
X13728651Y21527000D01*
Y21450826D02*
Y21349258D01*
Y21400043D01*
X13576300D01*
Y21298476D02*
X13627083Y21247691D01*
X13677867D01*
X13728651Y21298476D01*
X4165600Y6578600D02*
Y6680167D01*
Y6730951D02*
Y6832518D01*
Y6883301D02*
Y6984869D01*
Y7035652D02*
Y7137219D01*
Y7188003D02*
Y7289570D01*
Y7340354D02*
Y7441921D01*
Y7492704D02*
Y7594272D01*
Y7645055D02*
Y7746622D01*
Y7797406D02*
Y7898973D01*
Y7949757D02*
Y8051324D01*
Y8102107D02*
Y8203674D01*
Y8254458D02*
Y8356025D01*
Y8406809D02*
Y8508376D01*
X2819400Y8534400D02*
X2920967D01*
X2971751D02*
X3073318D01*
X3124101D02*
X3225669D01*
X3276452D02*
X3378019D01*
X3428803D02*
X3530370D01*
X3581154D02*
X3682721D01*
X3733504D02*
X3835072D01*
X3885855D02*
X3987422D01*
X4038206D02*
X4139773D01*
X2768600Y6591300D02*
Y6692867D01*
Y6743651D02*
Y6845218D01*
Y6896001D02*
Y6997569D01*
Y7048352D02*
Y7149919D01*
Y7200703D02*
Y7302270D01*
Y7353054D02*
Y7454621D01*
Y7505404D02*
Y7606972D01*
Y7657755D02*
Y7759322D01*
Y7810106D02*
Y7911673D01*
Y7962457D02*
Y8064024D01*
Y8114807D02*
Y8216374D01*
Y8267158D02*
Y8368725D01*
Y8419509D02*
Y8521076D01*
X2806700Y6565900D02*
X2908267D01*
X2959051D02*
X3060618D01*
X3111401D02*
X3212969D01*
X3263752D02*
X3365319D01*
X3416103D02*
X3517670D01*
X3568454D02*
X3670021D01*
X3720804D02*
X3822372D01*
X3873155D02*
X3974722D01*
X4025506D02*
X4127073D01*
X11264900Y24701483D02*
X11366467D01*
X11315683Y24752267D02*
Y24650700D01*
X12407900Y25844482D02*
X12509467D01*
X12458683Y25895267D02*
Y25793701D01*
X12687300Y26479501D02*
Y26377933D01*
Y26327148D02*
Y26225583D01*
Y26174799D02*
Y26073230D01*
Y26022449D02*
Y25920880D01*
Y25870096D02*
Y25768530D01*
Y25717746D02*
Y25616180D01*
Y25565395D02*
Y25463828D01*
Y25413045D02*
Y25311478D01*
Y25260693D02*
Y25159126D01*
Y25108344D02*
Y25006776D01*
Y24955994D02*
Y24854425D01*
Y24803642D02*
Y24702075D01*
Y24651291D02*
Y24549724D01*
Y24498940D02*
Y24397372D01*
Y24346590D02*
Y24245023D01*
Y24194238D02*
Y24092673D01*
X10756900Y24091901D02*
X10858467D01*
X10909251D02*
X11010818D01*
X11061601D02*
X11163169D01*
X11213952D02*
X11315519D01*
X11366303D02*
X11467870D01*
X11518654D02*
X11620221D01*
X11671004D02*
X11772572D01*
X11823355D02*
X11924922D01*
X11975706D02*
X12077273D01*
X12128057D02*
X12229624D01*
X12280407D02*
X12381974D01*
X12432758D02*
X12534325D01*
X12585109D02*
X12686676D01*
X10005421Y24841200D02*
X10077240Y24769382D01*
X10113149Y24733472D02*
X10184968Y24661653D01*
X10220877Y24625745D02*
X10292696Y24553925D01*
X10328605Y24518015D02*
X10400424Y24446196D01*
X10436334Y24410287D02*
X10508153Y24338467D01*
X10544062Y24302559D02*
X10615881Y24230740D01*
X10651790Y24194830D02*
X10723609Y24123012D01*
X9982200Y26517599D02*
X10083767D01*
X10134551D02*
X10236118D01*
X10286901D02*
X10388469D01*
X10439252D02*
X10540819D01*
X10591603D02*
X10693170D01*
X10743954D02*
X10845521D01*
X10896304D02*
X10997872D01*
X11048655D02*
X11150222D01*
X11201006D02*
X11302573D01*
X11353357D02*
X11454924D01*
X11505707D02*
X11607274D01*
X11658058D02*
X11759625D01*
X11810409D02*
X11911976D01*
X11962759D02*
X12064327D01*
X12115110D02*
X12216677D01*
X12267461D02*
X12369028D01*
X12419812D02*
X12521379D01*
X12572162D02*
X12673730D01*
X9982200Y26492200D02*
Y26390634D01*
Y26339850D02*
Y26238281D01*
Y26187497D02*
Y26085931D01*
Y26035147D02*
Y25933578D01*
Y25882797D02*
Y25781229D01*
Y25730447D02*
Y25628879D01*
Y25578094D02*
Y25476527D01*
Y25425745D02*
Y25324178D01*
Y25273393D02*
Y25171828D01*
Y25121043D02*
Y25019476D01*
Y24968694D02*
Y24867125D01*
X4318000Y4610100D02*
X4419567D01*
X4470351D02*
X4571918D01*
X4622701D02*
X4724269D01*
X4775052D02*
X4876619D01*
X4927403D02*
X5028970D01*
X5079754D02*
X5181321D01*
X5232104D02*
X5333672D01*
X5384455D02*
X5486022D01*
X5536806D02*
X5638373D01*
X5689157D02*
X5790724D01*
X5841507D02*
X5943074D01*
X5993858D02*
X6095425D01*
X6146209D02*
X6247776D01*
X6298559D02*
X6400127D01*
X6450910D02*
X6552477D01*
X6603261D02*
X6704828D01*
X6755612D02*
X6857179D01*
X6907962D02*
X7009530D01*
X7060313D02*
X7161880D01*
X7212664D02*
X7314231D01*
X7353300Y6540500D02*
Y6438933D01*
Y6388149D02*
Y6286582D01*
Y6235798D02*
Y6134231D01*
Y6083448D02*
Y5981880D01*
Y5931097D02*
Y5829530D01*
Y5778746D02*
Y5677179D01*
Y5626395D02*
Y5524828D01*
Y5474045D02*
Y5372477D01*
Y5321694D02*
Y5220127D01*
Y5169343D02*
Y5067776D01*
Y5016993D02*
Y4915425D01*
Y4864642D02*
Y4763075D01*
Y4712291D02*
Y4610724D01*
X6601821Y7302500D02*
X6673640Y7230681D01*
X6709549Y7194772D02*
X6781368Y7122953D01*
X6817277Y7087044D02*
X6889096Y7015225D01*
X6925005Y6979315D02*
X6996824Y6907496D01*
X7032734Y6871587D02*
X7104553Y6799768D01*
X7140462Y6763859D02*
X7212281Y6692040D01*
X7248190Y6656131D02*
X7320009Y6584312D01*
X4318000Y7315200D02*
X4419567D01*
X4470351D02*
X4571918D01*
X4622701D02*
X4724269D01*
X4775052D02*
X4876619D01*
X4927403D02*
X5028970D01*
X5079754D02*
X5181321D01*
X5232104D02*
X5333672D01*
X5384455D02*
X5486022D01*
X5536806D02*
X5638373D01*
X5689157D02*
X5790724D01*
X5841507D02*
X5943074D01*
X5993858D02*
X6095425D01*
X6146209D02*
X6247776D01*
X6298559D02*
X6400127D01*
X6450910D02*
X6552477D01*
X5803900Y7924800D02*
Y8026367D01*
Y8077150D02*
Y8178718D01*
Y8229501D02*
Y8331068D01*
Y8381852D02*
Y8483419D01*
Y8534203D02*
Y8635770D01*
Y8686553D02*
Y8788121D01*
Y8838904D02*
Y8940471D01*
Y8991255D02*
Y9092822D01*
Y9143606D02*
Y9245173D01*
Y9295956D02*
Y9397523D01*
Y9448307D02*
Y9549874D01*
Y9600658D02*
Y9702225D01*
Y9753008D02*
Y9854576D01*
Y9905359D02*
Y10006926D01*
Y10057710D02*
Y10159277D01*
Y10210061D02*
Y10311628D01*
X4279900Y4610100D02*
Y4711667D01*
Y4762451D02*
Y4864018D01*
Y4914801D02*
Y5016369D01*
Y5067152D02*
Y5168719D01*
Y5219503D02*
Y5321070D01*
Y5371854D02*
Y5473421D01*
Y5524204D02*
Y5625772D01*
Y5676555D02*
Y5778122D01*
Y5828906D02*
Y5930473D01*
Y5981257D02*
Y6082824D01*
Y6133607D02*
Y6235174D01*
Y6285958D02*
Y6387525D01*
Y6438309D02*
Y6539876D01*
Y6590659D02*
Y6692227D01*
Y6743010D02*
Y6844577D01*
Y6895361D02*
Y6996928D01*
Y7047712D02*
Y7149279D01*
Y7200062D02*
Y7301630D01*
X6108700Y4762483D02*
X6210267D01*
X6159483Y4813267D02*
Y4711700D01*
X5626100Y6070583D02*
X5727667D01*
X5676883Y6121367D02*
Y6019800D01*
X20802600Y20485100D02*
X20954951D01*
X20904167Y20434317D01*
X20954951Y20383533D01*
X20802600D01*
X18643600Y19977100D02*
X18795950D01*
X18745168Y19926317D01*
X18795950Y19875533D01*
X18643600D01*
X16484599Y20993100D02*
X16636951D01*
X16586166Y20942317D01*
X16636951Y20891533D01*
X16484599D01*
X12186746Y8414413D02*
X12150836D01*
X12114926Y8378504D01*
Y8342594D01*
X12186745Y8270776D01*
X12222655D01*
X12258564Y8306685D01*
Y8342595D01*
X12204700Y8468277D02*
X12312428Y8360549D01*
X12258564Y8414413D01*
X12330383Y8486232D01*
X12276519Y8540096D01*
X12384247Y8432368D01*
X12420157Y8468277D02*
X12348338Y8540096D01*
Y8611915D01*
X12420157Y8611915D01*
X12491975Y8540096D01*
X12438111Y8593960D01*
X12366292Y8522141D01*
X12527885Y8576006D02*
X12420157Y8683734D01*
X12599704Y8647824D01*
X12491975Y8755553D01*
X12635613Y8683734D02*
X12527885Y8791462D01*
X12707432Y8755553D01*
X12599704Y8863281D01*
X12707432Y8971009D02*
X12635613Y8899190D01*
X12743341Y8791462D01*
X12815160Y8863281D01*
X12689477Y8845326D02*
X12725386Y8881235D01*
X12743341Y9006918D02*
X12851070Y8899190D01*
X12922888Y8971009D01*
X13066525Y9114647D02*
X13102435Y9150556D01*
X13084480Y9132601D01*
X12976752Y9240330D01*
Y9204420D01*
X13066525Y9294194D02*
Y9330103D01*
X13102435Y9366013D01*
X13138345D01*
X13210162Y9294194D01*
Y9258284D01*
X13174254Y9222375D01*
X13138345D01*
X13066525Y9294194D01*
X13407664Y9455786D02*
X13335846D01*
X13299937Y9491696D01*
Y9563514D01*
X13353801Y9617378D02*
X13425620Y9689197D01*
X13389709Y9653288D01*
X13497440Y9545560D01*
X13569257Y9617378D02*
Y9689197D01*
X13533348Y9725107D01*
X13461530D01*
X10058400Y8242283D02*
X10159967D01*
X10109183Y8293067D02*
Y8191500D01*
X8877300Y6997683D02*
X8978867D01*
X8928083Y7048467D02*
Y6946900D01*
X8280400Y9512283D02*
X8381967D01*
X8331183Y9563067D02*
Y9461500D01*
X7099300Y8267683D02*
X7200867D01*
X7150083Y8318467D02*
Y8216900D01*
X10058400Y12052283D02*
X10159967D01*
X10109183Y12103067D02*
Y12001500D01*
X8877300Y10807683D02*
X8978867D01*
X8928083Y10858467D02*
Y10756900D01*
X8280400Y13322282D02*
X8381967D01*
X8331183Y13373067D02*
Y13271500D01*
X7099300Y12077683D02*
X7200867D01*
X7150083Y12128467D02*
Y12026900D01*
X10058400Y15862283D02*
X10159967D01*
X10109183Y15913068D02*
Y15811501D01*
X8877300Y14617683D02*
X8978867D01*
X8928083Y14668468D02*
Y14566901D01*
X8280400Y17132283D02*
X8381967D01*
X8331183Y17183067D02*
Y17081500D01*
X7099300Y15887683D02*
X7200867D01*
X7150083Y15938467D02*
Y15836900D01*
X10058400Y19672282D02*
X10159967D01*
X10109183Y19723067D02*
Y19621500D01*
X8877300Y18427682D02*
X8978867D01*
X8928083Y18478467D02*
Y18376900D01*
X7099300Y19697684D02*
X7200867D01*
X7150083Y19748466D02*
Y19646899D01*
X8280400Y20942284D02*
X8381967D01*
X8331183Y20993066D02*
Y20891499D01*
X10058400Y23482283D02*
X10159967D01*
X10109183Y23533067D02*
Y23431500D01*
X8877300Y22237683D02*
X8978867D01*
X8928083Y22288467D02*
Y22186900D01*
X8280400Y24752283D02*
X8381967D01*
X8331183Y24803067D02*
Y24701500D01*
X7099300Y23507683D02*
X7200867D01*
X7150083Y23558467D02*
Y23456900D01*
X18510913Y17632854D02*
Y17668764D01*
X18475005Y17704674D01*
X18439095D01*
X18367276Y17632855D01*
Y17596945D01*
X18403185Y17561037D01*
X18439095D01*
X18564778Y17614900D02*
X18457050Y17507172D01*
X18510913Y17561037D01*
X18582732Y17489217D01*
X18636597Y17543082D01*
X18528868Y17435353D01*
X18564778Y17399443D02*
X18636597Y17471262D01*
X18708415D01*
X18708415Y17399443D01*
X18636597Y17327625D01*
X18690462Y17381490D01*
X18618642Y17453308D01*
X18672507Y17291714D02*
X18780234Y17399443D01*
X18744325Y17219896D01*
X18852052Y17327625D01*
X18780234Y17183987D02*
X18887962Y17291714D01*
X18852052Y17112167D01*
X18959781Y17219896D01*
X19067509Y17112167D02*
X18995689Y17183987D01*
X18887962Y17076259D01*
X18959781Y17004440D01*
X18941826Y17130122D02*
X18977736Y17094214D01*
X19103419Y17076259D02*
X18995689Y16968530D01*
X19067509Y16896712D01*
X19300922Y16842848D02*
X19336830D01*
X19372739Y16806938D01*
Y16771030D01*
X19354785Y16753075D01*
X19318875D01*
X19300922Y16771030D01*
X19318875Y16753075D01*
Y16717165D01*
X19300922Y16699210D01*
X19265012D01*
X19229102Y16735120D01*
Y16771030D01*
X18422446Y12910213D02*
X18386536D01*
X18350626Y12874304D01*
Y12838396D01*
X18422446Y12766576D01*
X18458356D01*
X18494264Y12802486D01*
Y12838396D01*
X18440401Y12964078D02*
X18548128Y12856349D01*
X18494264Y12910213D01*
X18566083Y12982031D01*
X18512219Y13035896D01*
X18619946Y12928168D01*
X18655856Y12964078D02*
X18584038Y13035896D01*
Y13107715D01*
X18655856Y13107715D01*
X18727675Y13035896D01*
X18673811Y13089761D01*
X18601991Y13017941D01*
X18763585Y13071806D02*
X18655856Y13179533D01*
X18835403Y13143625D01*
X18727675Y13251353D01*
X18871313Y13179533D02*
X18763585Y13287262D01*
X18943132Y13251353D01*
X18835403Y13359081D01*
X18943132Y13466809D02*
X18871313Y13394991D01*
X18979041Y13287262D01*
X19050861Y13359081D01*
X18925177Y13341125D02*
X18961086Y13377036D01*
X18979041Y13502719D02*
X19086769Y13394991D01*
X19158588Y13466809D01*
X19212453Y13700221D02*
Y13736130D01*
X19248363Y13772038D01*
X19284271D01*
X19302226Y13754085D01*
Y13718175D01*
X19338135D01*
X19356090Y13700221D01*
Y13664311D01*
X19320181Y13628403D01*
X19284271D01*
X19266318Y13646358D01*
Y13682266D01*
X19230408D01*
X19212453Y13700221D01*
X19266318Y13682266D02*
X19302226Y13718175D01*
X20891499Y16692880D02*
X20942284D01*
X20916891D01*
Y16845232D01*
X20891499Y16819839D01*
X21018459Y16692880D02*
X21069241D01*
X21043851D01*
Y16845232D01*
X21018459Y16819839D01*
X20866100Y16421100D02*
X20916882D01*
X20891492D01*
Y16573451D01*
X20866100Y16548059D01*
X21094626Y16421100D02*
X20993059D01*
X21094626Y16522667D01*
Y16548059D01*
X21069234Y16573451D01*
X21018451D01*
X20993059Y16548059D01*
X20866100Y16144099D02*
X20916882D01*
X20891492D01*
Y16296451D01*
X20866100Y16271059D01*
X20993059D02*
X21018451Y16296451D01*
X21069234D01*
X21094626Y16271059D01*
Y16245667D01*
X21069234Y16220274D01*
X21043842D01*
X21069234D01*
X21094626Y16194884D01*
Y16169492D01*
X21069234Y16144099D01*
X21018451D01*
X20993059Y16169492D01*
X20866100Y15867101D02*
X20916882D01*
X20891492D01*
Y16019450D01*
X20866100Y15994060D01*
X21069234Y15867101D02*
Y16019450D01*
X20993059Y15943275D01*
X21094626D01*
X20866100Y15590100D02*
X20916882D01*
X20891492D01*
Y15742451D01*
X20866100Y15717059D01*
X21094626Y15742451D02*
X20993059D01*
Y15666277D01*
X21043842Y15691667D01*
X21069234D01*
X21094626Y15666277D01*
Y15615492D01*
X21069234Y15590100D01*
X21018451D01*
X20993059Y15615492D01*
X20866100Y14759100D02*
X20916882D01*
X20891492D01*
Y14911452D01*
X20866100Y14886060D01*
X21094626Y14911452D02*
X21043842Y14886060D01*
X20993059Y14835275D01*
Y14784492D01*
X21018451Y14759100D01*
X21069234D01*
X21094626Y14784492D01*
Y14809885D01*
X21069234Y14835275D01*
X20993059D01*
X20866100Y14482100D02*
X20916882D01*
X20891492D01*
Y14634451D01*
X20866100Y14609059D01*
X20993059Y14634451D02*
X21094626D01*
Y14609059D01*
X20993059Y14507492D01*
Y14482100D01*
X20866100Y14205099D02*
X20916882D01*
X20891492D01*
Y14357451D01*
X20866100Y14332059D01*
X20993059D02*
X21018451Y14357451D01*
X21069234D01*
X21094626Y14332059D01*
Y14306667D01*
X21069234Y14281274D01*
X21094626Y14255882D01*
Y14230492D01*
X21069234Y14205099D01*
X21018451D01*
X20993059Y14230492D01*
Y14255882D01*
X21018451Y14281274D01*
X20993059Y14306667D01*
Y14332059D01*
X21018451Y14281274D02*
X21069234D01*
X20866100Y13928101D02*
X20916882D01*
X20891492D01*
Y14080450D01*
X20866100Y14055058D01*
X20993059Y13953493D02*
X21018451Y13928101D01*
X21069234D01*
X21094626Y13953493D01*
Y14055058D01*
X21069234Y14080450D01*
X21018451D01*
X20993059Y14055058D01*
Y14029668D01*
X21018451Y14004276D01*
X21094626D01*
X20942267Y13639799D02*
X20840700D01*
X20942267Y13741367D01*
Y13766759D01*
X20916875Y13792151D01*
X20866092D01*
X20840700Y13766759D01*
X20993051D02*
X21018443Y13792151D01*
X21069226D01*
X21094618Y13766759D01*
Y13665192D01*
X21069226Y13639799D01*
X21018443D01*
X20993051Y13665192D01*
Y13766759D01*
X20218367Y15287659D02*
X20192975Y15313051D01*
X20142192D01*
X20116800Y15287659D01*
Y15186092D01*
X20142192Y15160699D01*
X20192975D01*
X20218367Y15186092D01*
Y15236876D01*
X20167583D01*
X19989799Y13500101D02*
X20040582D01*
X20015192D01*
Y13652451D01*
X19989799Y13627058D01*
X20116759D02*
X20142151Y13652451D01*
X20192934D01*
X20218326Y13627058D01*
Y13525491D01*
X20192934Y13500101D01*
X20142151D01*
X20116759Y13525491D01*
Y13627058D01*
X20142200Y16827499D02*
X20192982D01*
X20167592D01*
Y16979851D01*
X20142200Y16954459D01*
X20218367Y16560800D02*
X20116800D01*
X20218367Y16662367D01*
Y16687759D01*
X20192975Y16713152D01*
X20142192D01*
X20116800Y16687759D01*
Y16395659D02*
X20142192Y16421051D01*
X20192975D01*
X20218367Y16395659D01*
Y16370267D01*
X20192975Y16344875D01*
X20167583D01*
X20192975D01*
X20218367Y16319482D01*
Y16294092D01*
X20192975Y16268700D01*
X20142192D01*
X20116800Y16294092D01*
X20192975Y15991701D02*
Y16144051D01*
X20116800Y16067876D01*
X20218367D01*
Y15867052D02*
X20116800D01*
Y15790875D01*
X20167583Y15816267D01*
X20192975D01*
X20218367Y15790875D01*
Y15740092D01*
X20192975Y15714700D01*
X20142192D01*
X20116800Y15740092D01*
X20218367Y14759052D02*
X20167583Y14733659D01*
X20116800Y14682875D01*
Y14632092D01*
X20142192Y14606700D01*
X20192975D01*
X20218367Y14632092D01*
Y14657484D01*
X20192975Y14682875D01*
X20116800D01*
Y14482051D02*
X20218367D01*
Y14456659D01*
X20116800Y14355092D01*
Y14329700D01*
Y14179659D02*
X20142192Y14205051D01*
X20192975D01*
X20218367Y14179659D01*
Y14154266D01*
X20192975Y14128876D01*
X20218367Y14103484D01*
Y14078091D01*
X20192975Y14052699D01*
X20142192D01*
X20116800Y14078091D01*
Y14103484D01*
X20142192Y14128876D01*
X20116800Y14154266D01*
Y14179659D01*
X20142192Y14128876D02*
X20192975D01*
X20116800Y13804892D02*
X20142192Y13779500D01*
X20192975D01*
X20218367Y13804892D01*
Y13906459D01*
X20192975Y13931851D01*
X20142192D01*
X20116800Y13906459D01*
Y13881067D01*
X20142192Y13855675D01*
X20218367D01*
X3149600Y16586200D02*
X3200383D01*
X3174992D01*
Y16738551D01*
X3149600Y16713159D01*
X3035267Y16459200D02*
X2933700D01*
X3035267Y16560767D01*
Y16586159D01*
X3009875Y16611551D01*
X2959092D01*
X2933700Y16586159D01*
X2819375Y15989301D02*
Y16141650D01*
X2743200Y16065475D01*
X2844767D01*
Y15887651D02*
X2793983Y15862259D01*
X2743200Y15811475D01*
Y15760692D01*
X2768592Y15735300D01*
X2819375D01*
X2844767Y15760692D01*
Y15786082D01*
X2819375Y15811475D01*
X2743200D01*
Y15608260D02*
X2768592Y15633652D01*
X2819375D01*
X2844767Y15608260D01*
Y15582867D01*
X2819375Y15557475D01*
X2844767Y15532083D01*
Y15506693D01*
X2819375Y15481300D01*
X2768592D01*
X2743200Y15506693D01*
Y15532083D01*
X2768592Y15557475D01*
X2743200Y15582867D01*
Y15608260D01*
X2768592Y15557475D02*
X2819375D01*
X2616200Y15227299D02*
X2666983D01*
X2641592D01*
Y15379651D01*
X2616200Y15354259D01*
X2743159D02*
X2768551Y15379651D01*
X2819334D01*
X2844726Y15354259D01*
Y15252692D01*
X2819334Y15227299D01*
X2768551D01*
X2743159Y15252692D01*
Y15354259D01*
X2616200Y14973300D02*
X2666983D01*
X2641592D01*
Y15125652D01*
X2616200Y15100259D01*
X2844726Y14973300D02*
X2743159D01*
X2844726Y15074867D01*
Y15100259D01*
X2819334Y15125652D01*
X2768551D01*
X2743159Y15100259D01*
X2616200Y14719299D02*
X2666983D01*
X2641592D01*
Y14871651D01*
X2616200Y14846259D01*
X2819334Y14719299D02*
Y14871651D01*
X2743159Y14795474D01*
X2844726D01*
X2616200Y14465300D02*
X2666983D01*
X2641592D01*
Y14617651D01*
X2616200Y14592259D01*
X2844726Y14617651D02*
X2793942Y14592259D01*
X2743159Y14541475D01*
Y14490692D01*
X2768551Y14465300D01*
X2819334D01*
X2844726Y14490692D01*
Y14516083D01*
X2819334Y14541475D01*
X2743159D01*
X2616200Y13957300D02*
X2666983D01*
X2641592D01*
Y14109651D01*
X2616200Y14084259D01*
X2743159D02*
X2768551Y14109651D01*
X2819334D01*
X2844726Y14084259D01*
Y14058867D01*
X2819334Y14033475D01*
X2844726Y14008083D01*
Y13982692D01*
X2819334Y13957300D01*
X2768551D01*
X2743159Y13982692D01*
Y14008083D01*
X2768551Y14033475D01*
X2743159Y14058867D01*
Y14084259D01*
X2768551Y14033475D02*
X2819334D01*
X2692367Y13703300D02*
X2590800D01*
X2692367Y13804868D01*
Y13830260D01*
X2666975Y13855650D01*
X2616192D01*
X2590800Y13830260D01*
X2743151D02*
X2768543Y13855650D01*
X2819326D01*
X2844718Y13830260D01*
Y13728693D01*
X2819326Y13703300D01*
X2768543D01*
X2743151Y13728693D01*
Y13830260D01*
X2768567Y14338258D02*
X2743175Y14363651D01*
X2692392D01*
X2667000Y14338258D01*
Y14236691D01*
X2692392Y14211301D01*
X2743175D01*
X2768567Y14236691D01*
Y14287476D01*
X2717783D01*
X3365500Y23126700D02*
X3467067D01*
X3517851D02*
X3619418D01*
X3670201D02*
X3771769D01*
X3822552D02*
X3924119D01*
X3974903D02*
X4076470D01*
X4127254D02*
X4228821D01*
X4279604D02*
X4381172D01*
X4431955D02*
X4533522D01*
X4584306D02*
X4685873D01*
X3327400Y23152100D02*
Y23253667D01*
Y23304449D02*
Y23406018D01*
Y23456801D02*
Y23558368D01*
Y23609152D02*
Y23710719D01*
Y23761504D02*
Y23863071D01*
Y23913853D02*
Y24015421D01*
Y24066203D02*
Y24167770D01*
Y24218555D02*
Y24320122D01*
Y24370906D02*
Y24472473D01*
Y24523256D02*
Y24624823D01*
Y24675607D02*
Y24777174D01*
Y24827959D02*
Y24929526D01*
Y24980309D02*
Y25081876D01*
X3378200Y25095200D02*
X3479767D01*
X3530551D02*
X3632118D01*
X3682901D02*
X3784469D01*
X3835252D02*
X3936819D01*
X3987603D02*
X4089170D01*
X4139954D02*
X4241521D01*
X4292304D02*
X4393872D01*
X4444655D02*
X4546222D01*
X4597006D02*
X4698573D01*
X4724400Y23139400D02*
Y23240967D01*
Y23291750D02*
Y23393318D01*
Y23444101D02*
Y23545668D01*
Y23596452D02*
Y23698019D01*
Y23748804D02*
Y23850369D01*
Y23901154D02*
Y24002721D01*
Y24053503D02*
Y24155070D01*
Y24205855D02*
Y24307422D01*
Y24358206D02*
Y24459773D01*
Y24510556D02*
Y24612123D01*
Y24662907D02*
Y24764474D01*
Y24815257D02*
Y24916824D01*
Y24967609D02*
Y25069176D01*
X4241800Y10020300D02*
Y10121867D01*
Y10172651D02*
Y10274218D01*
Y10325001D02*
Y10426569D01*
Y10477352D02*
Y10578919D01*
Y10629703D02*
Y10731270D01*
Y10782054D02*
Y10883621D01*
X4254500Y9982200D02*
X4356067D01*
X4406851D02*
X4508418D01*
X4559201D02*
X4660769D01*
X4711552D02*
X4813119D01*
X4863903D02*
X4965470D01*
X4991100Y10020300D02*
Y10121867D01*
Y10172651D02*
Y10274218D01*
Y10325001D02*
Y10426569D01*
Y10477352D02*
Y10578919D01*
Y10629703D02*
Y10731270D01*
Y10782054D02*
Y10883621D01*
X4254500Y10909300D02*
X4356067D01*
X4406851D02*
X4508418D01*
X4559201D02*
X4660769D01*
X4711552D02*
X4813119D01*
X4863903D02*
X4965470D01*
X4241800Y11290300D02*
Y11391867D01*
Y11442650D02*
Y11544218D01*
Y11595001D02*
Y11696568D01*
Y11747352D02*
Y11848919D01*
Y11899703D02*
Y12001270D01*
Y12052053D02*
Y12153621D01*
X4254500Y11252200D02*
X4356067D01*
X4406851D02*
X4508418D01*
X4559201D02*
X4660769D01*
X4711552D02*
X4813119D01*
X4863903D02*
X4965470D01*
X4991100Y11290300D02*
Y11391867D01*
Y11442650D02*
Y11544218D01*
Y11595001D02*
Y11696568D01*
Y11747352D02*
Y11848919D01*
Y11899703D02*
Y12001270D01*
Y12052053D02*
Y12153621D01*
X4254500Y12179300D02*
X4356067D01*
X4406851D02*
X4508418D01*
X4559201D02*
X4660769D01*
X4711552D02*
X4813119D01*
X4863903D02*
X4965470D01*
X4241800Y12560300D02*
Y12661867D01*
Y12712651D02*
Y12814218D01*
Y12865001D02*
Y12966570D01*
Y13017352D02*
Y13118919D01*
Y13169704D02*
Y13271271D01*
Y13322054D02*
Y13423621D01*
X4254500Y12522200D02*
X4356067D01*
X4406851D02*
X4508418D01*
X4559201D02*
X4660769D01*
X4711552D02*
X4813119D01*
X4863903D02*
X4965470D01*
X4991100Y12560300D02*
Y12661867D01*
Y12712651D02*
Y12814218D01*
Y12865001D02*
Y12966570D01*
Y13017352D02*
Y13118919D01*
Y13169704D02*
Y13271271D01*
Y13322054D02*
Y13423621D01*
X4254500Y13449300D02*
X4356067D01*
X4406851D02*
X4508418D01*
X4559201D02*
X4660769D01*
X4711552D02*
X4813119D01*
X4863903D02*
X4965470D01*
X4241800Y13830299D02*
Y13931866D01*
Y13982651D02*
Y14084218D01*
Y14135001D02*
Y14236568D01*
Y14287352D02*
Y14388919D01*
Y14439703D02*
Y14541270D01*
Y14592053D02*
Y14693620D01*
X4254500Y13792200D02*
X4356067D01*
X4406851D02*
X4508418D01*
X4559201D02*
X4660769D01*
X4711552D02*
X4813119D01*
X4863903D02*
X4965470D01*
X4991100Y13830299D02*
Y13931866D01*
Y13982651D02*
Y14084218D01*
Y14135001D02*
Y14236568D01*
Y14287352D02*
Y14388919D01*
Y14439703D02*
Y14541270D01*
Y14592053D02*
Y14693620D01*
X4254500Y14719299D02*
X4356067D01*
X4406851D02*
X4508418D01*
X4559201D02*
X4660769D01*
X4711552D02*
X4813119D01*
X4863903D02*
X4965470D01*
X4241800Y15100301D02*
Y15201868D01*
Y15252650D02*
Y15354218D01*
Y15405000D02*
Y15506569D01*
Y15557352D02*
Y15658919D01*
Y15709703D02*
Y15811270D01*
Y15862054D02*
Y15963622D01*
X4254500Y15062199D02*
X4356067D01*
X4406851D02*
X4508418D01*
X4559201D02*
X4660769D01*
X4711552D02*
X4813119D01*
X4863903D02*
X4965470D01*
X4991100Y15100301D02*
Y15201868D01*
Y15252650D02*
Y15354218D01*
Y15405000D02*
Y15506569D01*
Y15557352D02*
Y15658919D01*
Y15709703D02*
Y15811270D01*
Y15862054D02*
Y15963622D01*
X4254500Y15989301D02*
X4356067D01*
X4406851D02*
X4508418D01*
X4559201D02*
X4660769D01*
X4711552D02*
X4813119D01*
X4863903D02*
X4965470D01*
X4241800Y16370300D02*
Y16471867D01*
Y16522650D02*
Y16624219D01*
Y16675002D02*
Y16776569D01*
Y16827351D02*
Y16928918D01*
Y16979703D02*
Y17081270D01*
Y17132053D02*
Y17233621D01*
X4254500Y16332201D02*
X4356067D01*
X4406851D02*
X4508418D01*
X4559201D02*
X4660769D01*
X4711552D02*
X4813119D01*
X4863903D02*
X4965470D01*
X4991100Y16370300D02*
Y16471867D01*
Y16522650D02*
Y16624219D01*
Y16675002D02*
Y16776569D01*
Y16827351D02*
Y16928918D01*
Y16979703D02*
Y17081270D01*
Y17132053D02*
Y17233621D01*
X4254500Y17259300D02*
X4356067D01*
X4406851D02*
X4508418D01*
X4559201D02*
X4660769D01*
X4711552D02*
X4813119D01*
X4863903D02*
X4965470D01*
X4241800Y17640300D02*
Y17741867D01*
Y17792651D02*
Y17894218D01*
Y17945001D02*
Y18046568D01*
Y18097353D02*
Y18198920D01*
Y18249702D02*
Y18351270D01*
Y18402054D02*
Y18503621D01*
X4254500Y17602200D02*
X4356067D01*
X4406851D02*
X4508418D01*
X4559201D02*
X4660769D01*
X4711552D02*
X4813119D01*
X4863903D02*
X4965470D01*
X4991100Y17640300D02*
Y17741867D01*
Y17792651D02*
Y17894218D01*
Y17945001D02*
Y18046568D01*
Y18097353D02*
Y18198920D01*
Y18249702D02*
Y18351270D01*
Y18402054D02*
Y18503621D01*
X4254500Y18529300D02*
X4356067D01*
X4406851D02*
X4508418D01*
X4559201D02*
X4660769D01*
X4711552D02*
X4813119D01*
X4863903D02*
X4965470D01*
X4241800Y18910300D02*
Y19011867D01*
Y19062650D02*
Y19164218D01*
Y19215001D02*
Y19316568D01*
Y19367352D02*
Y19468919D01*
Y19519704D02*
Y19621271D01*
Y19672054D02*
Y19773621D01*
X4254500Y18872200D02*
X4356067D01*
X4406851D02*
X4508418D01*
X4559201D02*
X4660769D01*
X4711552D02*
X4813119D01*
X4863903D02*
X4965470D01*
X4991100Y18910300D02*
Y19011867D01*
Y19062650D02*
Y19164218D01*
Y19215001D02*
Y19316568D01*
Y19367352D02*
Y19468919D01*
Y19519704D02*
Y19621271D01*
Y19672054D02*
Y19773621D01*
X4254500Y19799300D02*
X4356067D01*
X4406851D02*
X4508418D01*
X4559201D02*
X4660769D01*
X4711552D02*
X4813119D01*
X4863903D02*
X4965470D01*
X4241800Y20180299D02*
Y20281866D01*
Y20332651D02*
Y20434218D01*
Y20485001D02*
Y20586569D01*
Y20637352D02*
Y20738919D01*
Y20789703D02*
Y20891270D01*
Y20942055D02*
Y21043620D01*
X4254500Y20142200D02*
X4356067D01*
X4406851D02*
X4508418D01*
X4559201D02*
X4660769D01*
X4711552D02*
X4813119D01*
X4863903D02*
X4965470D01*
X4991100Y20180299D02*
Y20281866D01*
Y20332651D02*
Y20434218D01*
Y20485001D02*
Y20586569D01*
Y20637352D02*
Y20738919D01*
Y20789703D02*
Y20891270D01*
Y20942055D02*
Y21043620D01*
X4254500Y21069299D02*
X4356067D01*
X4406851D02*
X4508418D01*
X4559201D02*
X4660769D01*
X4711552D02*
X4813119D01*
X4863903D02*
X4965470D01*
X4254500Y22339301D02*
X4356067D01*
X4406851D02*
X4508418D01*
X4559201D02*
X4660769D01*
X4711552D02*
X4813119D01*
X4863903D02*
X4965470D01*
X4991100Y21450301D02*
Y21551868D01*
Y21602650D02*
Y21704218D01*
Y21755000D02*
Y21856567D01*
Y21907352D02*
Y22008919D01*
Y22059703D02*
Y22161270D01*
Y22212053D02*
Y22313622D01*
X4254500Y21412199D02*
X4356067D01*
X4406851D02*
X4508418D01*
X4559201D02*
X4660769D01*
X4711552D02*
X4813119D01*
X4863903D02*
X4965470D01*
X4241800Y21450301D02*
Y21551868D01*
Y21602650D02*
Y21704218D01*
Y21755000D02*
Y21856567D01*
Y21907352D02*
Y22008919D01*
Y22059703D02*
Y22161270D01*
Y22212053D02*
Y22313622D01*
X5829300Y10337800D02*
X5930867D01*
X5981651D02*
X6083218D01*
X6134001D02*
X6235569D01*
X6286352D02*
X6387919D01*
X6438703D02*
X6540270D01*
X6591054D02*
X6692621D01*
X6743404D02*
X6844972D01*
X6895755D02*
X6997322D01*
X7048106D02*
X7149673D01*
X7200457D02*
X7302024D01*
X7352807D02*
X7454374D01*
X7505158D02*
X7606725D01*
X7657509D02*
X7759076D01*
X7809859D02*
X7911427D01*
X7962210D02*
X8063777D01*
X8114561D02*
X8216128D01*
X8266912D02*
X8368479D01*
X8419262D02*
X8520830D01*
X5803900Y7874000D02*
X5905467D01*
X5956251D02*
X6057818D01*
X6108601D02*
X6210169D01*
X6260952D02*
X6362519D01*
X6413303D02*
X6514870D01*
X6565654D02*
X6667221D01*
X6718004D02*
X6819572D01*
X6870355D02*
X6971922D01*
X7022706D02*
X7124273D01*
X7162800Y7897221D02*
X7234619Y7969040D01*
X7270528Y8004949D02*
X7342347Y8076768D01*
X7378256Y8112677D02*
X7450075Y8184496D01*
X7485985Y8220406D02*
X7557804Y8292225D01*
X7593713Y8328134D02*
X7665532Y8399953D01*
X7701441Y8435862D02*
X7773260Y8507681D01*
X7809169Y8543590D02*
X7880988Y8615409D01*
X7916898Y8651319D02*
X7988716Y8723137D01*
X8024626Y8759047D02*
X8096445Y8830866D01*
X8132354Y8866775D02*
X8204173Y8938594D01*
X8240082Y8974503D02*
X8311901Y9046322D01*
X8347810Y9082232D02*
X8419629Y9154051D01*
X8455539Y9189960D02*
X8527358Y9261779D01*
X8559800Y9296400D02*
Y9397967D01*
Y9448751D02*
Y9550318D01*
Y9601101D02*
Y9702669D01*
Y9753452D02*
Y9855019D01*
Y9905803D02*
Y10007370D01*
Y10058154D02*
Y10159721D01*
Y10210504D02*
Y10312072D01*
X8369300Y9029700D02*
X8470867D01*
X8521651D02*
X8623218D01*
X8674001D02*
X8775569D01*
X8826352D02*
X8927919D01*
X8978703D02*
X9080270D01*
X9131054D02*
X9232621D01*
X9283404D02*
X9384972D01*
X9435755D02*
X9537322D01*
X9588106D02*
X9689673D01*
X9740457D02*
X9842024D01*
X9892807D02*
X9994374D01*
X10045158D02*
X10146725D01*
X10197509D02*
X10299076D01*
X7581900Y6604000D02*
X7683467D01*
X7734251D02*
X7835818D01*
X7886601D02*
X7988169D01*
X8038952D02*
X8140519D01*
X8191303D02*
X8292870D01*
X8343654D02*
X8445221D01*
X8496004D02*
X8597572D01*
X8648355D02*
X8749922D01*
X8800706D02*
X8902273D01*
X10337800Y8013700D02*
Y8115267D01*
Y8166050D02*
Y8267618D01*
Y8318401D02*
Y8419968D01*
Y8470752D02*
Y8572319D01*
Y8623103D02*
Y8724670D01*
Y8775453D02*
Y8877021D01*
Y8927804D02*
Y9029371D01*
X8940800Y6627221D02*
X9012619Y6699040D01*
X9048528Y6734949D02*
X9120347Y6806768D01*
X9156256Y6842677D02*
X9228075Y6914496D01*
X9263985Y6950406D02*
X9335804Y7022225D01*
X9371713Y7058134D02*
X9443532Y7129953D01*
X9479441Y7165862D02*
X9551260Y7237681D01*
X9587169Y7273590D02*
X9658988Y7345409D01*
X9694898Y7381319D02*
X9766716Y7453137D01*
X9802626Y7489047D02*
X9874445Y7560866D01*
X9910354Y7596775D02*
X9982173Y7668594D01*
X10018082Y7704503D02*
X10089901Y7776322D01*
X10125810Y7812232D02*
X10197629Y7884051D01*
X10233539Y7919960D02*
X10305358Y7991779D01*
X7543800Y6629400D02*
Y6730967D01*
Y6781751D02*
Y6883318D01*
Y6934101D02*
Y7035669D01*
Y7086452D02*
Y7188019D01*
Y7238803D02*
Y7340370D01*
Y7391154D02*
Y7492721D01*
Y7543504D02*
Y7645072D01*
Y7695855D02*
Y7797422D01*
Y7848206D02*
Y7949773D01*
Y8000557D02*
Y8102124D01*
Y8152907D02*
Y8254474D01*
X5829300Y14147800D02*
X5930867D01*
X5981651D02*
X6083218D01*
X6134001D02*
X6235569D01*
X6286352D02*
X6387919D01*
X6438703D02*
X6540270D01*
X6591054D02*
X6692621D01*
X6743404D02*
X6844972D01*
X6895755D02*
X6997322D01*
X7048106D02*
X7149673D01*
X7200457D02*
X7302024D01*
X7352807D02*
X7454374D01*
X7505158D02*
X7606725D01*
X7657509D02*
X7759076D01*
X7809859D02*
X7911427D01*
X7962210D02*
X8063777D01*
X8114561D02*
X8216128D01*
X8266912D02*
X8368479D01*
X8419262D02*
X8520830D01*
X5803900Y11734800D02*
Y11836367D01*
Y11887150D02*
Y11988718D01*
Y12039501D02*
Y12141068D01*
Y12191852D02*
Y12293419D01*
Y12344203D02*
Y12445770D01*
Y12496553D02*
Y12598121D01*
Y12648904D02*
Y12750471D01*
Y12801254D02*
Y12902821D01*
Y12953606D02*
Y13055173D01*
Y13105956D02*
Y13207523D01*
Y13258307D02*
Y13359874D01*
Y13410658D02*
Y13512225D01*
Y13563008D02*
Y13664577D01*
Y13715359D02*
Y13816927D01*
Y13867709D02*
Y13969276D01*
Y14020061D02*
Y14121628D01*
X5803900Y11684000D02*
X5905467D01*
X5956251D02*
X6057818D01*
X6108601D02*
X6210169D01*
X6260952D02*
X6362519D01*
X6413303D02*
X6514870D01*
X6565654D02*
X6667221D01*
X6718004D02*
X6819572D01*
X6870355D02*
X6971922D01*
X7022706D02*
X7124273D01*
X7162800Y11707221D02*
X7234619Y11779040D01*
X7270528Y11814949D02*
X7342347Y11886768D01*
X7378256Y11922677D02*
X7450075Y11994496D01*
X7485985Y12030406D02*
X7557804Y12102225D01*
X7593713Y12138134D02*
X7665532Y12209953D01*
X7701441Y12245862D02*
X7773260Y12317681D01*
X7809169Y12353590D02*
X7880988Y12425409D01*
X7916898Y12461319D02*
X7988716Y12533137D01*
X8024626Y12569047D02*
X8096445Y12640866D01*
X8132354Y12676775D02*
X8204173Y12748594D01*
X8240082Y12784503D02*
X8311901Y12856322D01*
X8347810Y12892232D02*
X8419629Y12964050D01*
X8455539Y12999960D02*
X8527358Y13071779D01*
X8559800Y13106400D02*
Y13207967D01*
Y13258749D02*
Y13360318D01*
Y13411101D02*
Y13512668D01*
Y13563452D02*
Y13665019D01*
Y13715804D02*
Y13817371D01*
Y13868153D02*
Y13969720D01*
Y14020505D02*
Y14122070D01*
X8369300Y12839700D02*
X8470867D01*
X8521651D02*
X8623218D01*
X8674001D02*
X8775569D01*
X8826352D02*
X8927919D01*
X8978703D02*
X9080270D01*
X9131054D02*
X9232621D01*
X9283404D02*
X9384972D01*
X9435755D02*
X9537322D01*
X9588106D02*
X9689673D01*
X9740457D02*
X9842024D01*
X9892807D02*
X9994374D01*
X10045158D02*
X10146725D01*
X10197509D02*
X10299076D01*
X7581900Y10414000D02*
X7683467D01*
X7734251D02*
X7835818D01*
X7886601D02*
X7988169D01*
X8038952D02*
X8140519D01*
X8191303D02*
X8292870D01*
X8343654D02*
X8445221D01*
X8496004D02*
X8597572D01*
X8648355D02*
X8749922D01*
X8800706D02*
X8902273D01*
X10337800Y11823700D02*
Y11925267D01*
Y11976051D02*
Y12077618D01*
Y12128401D02*
Y12229969D01*
Y12280752D02*
Y12382319D01*
Y12433103D02*
Y12534670D01*
Y12585454D02*
Y12687021D01*
Y12737804D02*
Y12839372D01*
X8940800Y10437221D02*
X9012619Y10509040D01*
X9048528Y10544949D02*
X9120347Y10616768D01*
X9156256Y10652677D02*
X9228075Y10724496D01*
X9263985Y10760406D02*
X9335804Y10832225D01*
X9371713Y10868134D02*
X9443532Y10939953D01*
X9479441Y10975862D02*
X9551260Y11047681D01*
X9587169Y11083590D02*
X9658988Y11155409D01*
X9694898Y11191319D02*
X9766716Y11263137D01*
X9802626Y11299047D02*
X9874445Y11370866D01*
X9910354Y11406775D02*
X9982173Y11478594D01*
X10018082Y11514503D02*
X10089901Y11586322D01*
X10125810Y11622232D02*
X10197629Y11694051D01*
X10233539Y11729960D02*
X10305358Y11801779D01*
X7543800Y10439400D02*
Y10540967D01*
Y10591750D02*
Y10693318D01*
Y10744101D02*
Y10845668D01*
Y10896452D02*
Y10998019D01*
Y11048803D02*
Y11150370D01*
Y11201153D02*
Y11302721D01*
Y11353504D02*
Y11455071D01*
Y11505855D02*
Y11607422D01*
Y11658206D02*
Y11759773D01*
Y11810556D02*
Y11912123D01*
Y11962907D02*
Y12064474D01*
X7531100Y14325600D02*
X7632667D01*
X7683451D02*
X7785018D01*
X7835801D02*
X7937369D01*
X7988152D02*
X8089719D01*
X8140503D02*
X8242070D01*
X8292854D02*
X8394421D01*
X8445204D02*
X8546772D01*
X8597555D02*
X8699122D01*
X8749906D02*
X8851473D01*
X5829300Y17957800D02*
X5930867D01*
X5981651D02*
X6083218D01*
X6134001D02*
X6235569D01*
X6286352D02*
X6387919D01*
X6438703D02*
X6540270D01*
X6591054D02*
X6692621D01*
X6743404D02*
X6844972D01*
X6895755D02*
X6997322D01*
X7048106D02*
X7149673D01*
X7200457D02*
X7302024D01*
X7352807D02*
X7454374D01*
X7505158D02*
X7606725D01*
X7657509D02*
X7759076D01*
X7809859D02*
X7911427D01*
X7962210D02*
X8063777D01*
X8114561D02*
X8216128D01*
X8266912D02*
X8368479D01*
X8419262D02*
X8520830D01*
X5803900Y15544800D02*
Y15646367D01*
Y15697151D02*
Y15798718D01*
Y15849501D02*
Y15951070D01*
Y16001852D02*
Y16103419D01*
Y16154202D02*
Y16255769D01*
Y16306554D02*
Y16408121D01*
Y16458904D02*
Y16560472D01*
Y16611255D02*
Y16712822D01*
Y16763606D02*
Y16865173D01*
Y16915958D02*
Y17017525D01*
Y17068307D02*
Y17169875D01*
Y17220657D02*
Y17322224D01*
Y17373009D02*
Y17474576D01*
Y17525359D02*
Y17626927D01*
Y17677710D02*
Y17779277D01*
Y17830061D02*
Y17931628D01*
Y15494000D02*
X5905467D01*
X5956251D02*
X6057818D01*
X6108601D02*
X6210169D01*
X6260952D02*
X6362519D01*
X6413303D02*
X6514870D01*
X6565654D02*
X6667221D01*
X6718004D02*
X6819572D01*
X6870355D02*
X6971922D01*
X7022706D02*
X7124273D01*
X7162800Y15517221D02*
X7234619Y15589040D01*
X7270528Y15624950D02*
X7342347Y15696768D01*
X7378256Y15732677D02*
X7450075Y15804495D01*
X7485985Y15840405D02*
X7557804Y15912225D01*
X7593713Y15948134D02*
X7665532Y16019952D01*
X7701441Y16055862D02*
X7773260Y16127681D01*
X7809169Y16163589D02*
X7880988Y16235410D01*
X7916898Y16271320D02*
X7988716Y16343137D01*
X8024626Y16379047D02*
X8096445Y16450867D01*
X8132354Y16486775D02*
X8204173Y16558594D01*
X8240082Y16594502D02*
X8311901Y16666322D01*
X8347810Y16702232D02*
X8419629Y16774051D01*
X8455539Y16809959D02*
X8527358Y16881779D01*
X8559800Y16916400D02*
Y17017967D01*
Y17068752D02*
Y17170319D01*
Y17221101D02*
Y17322668D01*
Y17373453D02*
Y17475018D01*
Y17525803D02*
Y17627370D01*
Y17678154D02*
Y17779721D01*
Y17830504D02*
Y17932072D01*
X8369300Y16649699D02*
X8470867D01*
X8521651D02*
X8623218D01*
X8674001D02*
X8775569D01*
X8826352D02*
X8927919D01*
X8978703D02*
X9080270D01*
X9131054D02*
X9232621D01*
X9283404D02*
X9384972D01*
X9435755D02*
X9537322D01*
X9588106D02*
X9689673D01*
X9740457D02*
X9842024D01*
X9892807D02*
X9994374D01*
X10045158D02*
X10146725D01*
X10197509D02*
X10299076D01*
X10299700Y15735300D02*
Y15836867D01*
Y15887651D02*
Y15989218D01*
Y16040001D02*
Y16141570D01*
Y16192352D02*
Y16293919D01*
Y16344704D02*
Y16446271D01*
Y16497054D02*
Y16598621D01*
X8902700Y14323421D02*
X8974519Y14395239D01*
X9010428Y14431149D02*
X9082247Y14502968D01*
X9118156Y14538876D02*
X9189975Y14610696D01*
X9225885Y14646606D02*
X9297704Y14718425D01*
X9333613Y14754333D02*
X9405432Y14826154D01*
X9441341Y14862062D02*
X9513160Y14933881D01*
X9549069Y14969791D02*
X9620888Y15041609D01*
X9656798Y15077519D02*
X9728616Y15149336D01*
X9764526Y15185246D02*
X9836345Y15257066D01*
X9872254Y15292975D02*
X9944073Y15364793D01*
X9979982Y15400703D02*
X10051801Y15472522D01*
X10087710Y15508432D02*
X10159529Y15580251D01*
X10195439Y15616161D02*
X10267258Y15687979D01*
X7493000Y14325600D02*
Y14427167D01*
Y14477950D02*
Y14579518D01*
Y14630301D02*
Y14731868D01*
Y14782652D02*
Y14884219D01*
Y14935004D02*
Y15036571D01*
Y15087354D02*
Y15188921D01*
Y15239703D02*
Y15341270D01*
Y15392055D02*
Y15493622D01*
Y15544406D02*
Y15645973D01*
Y15696756D02*
Y15798323D01*
X5829300Y21767799D02*
X5930867D01*
X5981651D02*
X6083218D01*
X6134001D02*
X6235569D01*
X6286352D02*
X6387919D01*
X6438703D02*
X6540270D01*
X6591054D02*
X6692621D01*
X6743404D02*
X6844972D01*
X6895755D02*
X6997322D01*
X7048106D02*
X7149673D01*
X7200457D02*
X7302024D01*
X7352807D02*
X7454374D01*
X7505158D02*
X7606725D01*
X7657509D02*
X7759076D01*
X7809859D02*
X7911427D01*
X7962210D02*
X8063777D01*
X8114561D02*
X8216128D01*
X8266912D02*
X8368479D01*
X8419262D02*
X8520830D01*
X5791200Y19227800D02*
Y19329367D01*
Y19380150D02*
Y19481718D01*
Y19532501D02*
Y19634068D01*
Y19684853D02*
Y19786420D01*
Y19837202D02*
Y19938770D01*
Y19989552D02*
Y20091121D01*
Y20141904D02*
Y20243471D01*
Y20294255D02*
Y20395822D01*
Y20446606D02*
Y20548174D01*
Y20598956D02*
Y20700523D01*
Y20751308D02*
Y20852875D01*
Y20903658D02*
Y21005225D01*
Y21056007D02*
Y21157576D01*
Y21208359D02*
Y21309926D01*
Y21360710D02*
Y21462277D01*
Y21513062D02*
Y21614629D01*
Y21665411D02*
Y21766978D01*
X5791200Y19189700D02*
X5892767D01*
X5943551D02*
X6045118D01*
X6095901D02*
X6197469D01*
X6248252D02*
X6349819D01*
X6400603D02*
X6502170D01*
X6552954D02*
X6654521D01*
X6705304D02*
X6806872D01*
X6857655D02*
X6959222D01*
X7010006D02*
X7111573D01*
X7150100Y19187521D02*
X7221919Y19259340D01*
X7257828Y19295248D02*
X7329647Y19367068D01*
X7365556Y19402977D02*
X7437375Y19474796D01*
X7473285Y19510706D02*
X7545104Y19582526D01*
X7581013Y19618434D02*
X7652832Y19690253D01*
X7688741Y19726163D02*
X7760560Y19797981D01*
X7796469Y19833890D02*
X7868288Y19905708D01*
X7904198Y19941618D02*
X7976016Y20013437D01*
X8011926Y20049347D02*
X8083745Y20121165D01*
X8119654Y20157076D02*
X8191473Y20228894D01*
X8227382Y20264803D02*
X8299201Y20336623D01*
X8335110Y20372533D02*
X8406929Y20444351D01*
X8442839Y20480260D02*
X8514658Y20552078D01*
X8534400Y20599400D02*
Y20700967D01*
Y20751752D02*
Y20853317D01*
Y20904102D02*
Y21005669D01*
Y21056451D02*
Y21158018D01*
Y21208803D02*
Y21310370D01*
Y21361154D02*
Y21462721D01*
Y21513504D02*
Y21615073D01*
Y21665855D02*
Y21767422D01*
X8483600Y20459700D02*
X8585167D01*
X8635951D02*
X8737518D01*
X8788301D02*
X8889869D01*
X8940652D02*
X9042219D01*
X9093003D02*
X9194570D01*
X9245354D02*
X9346921D01*
X9397704D02*
X9499272D01*
X9550055D02*
X9651622D01*
X9702406D02*
X9803973D01*
X9854757D02*
X9956324D01*
X10007107D02*
X10108674D01*
X10159458D02*
X10261025D01*
X7543800Y18021300D02*
X7645367D01*
X7696151D02*
X7797718D01*
X7848501D02*
X7950069D01*
X8000852D02*
X8102419D01*
X8153203D02*
X8254770D01*
X8305554D02*
X8407121D01*
X8457904D02*
X8559472D01*
X8610255D02*
X8711822D01*
X8762606D02*
X8864173D01*
X10299700Y19443700D02*
Y19545267D01*
Y19596049D02*
Y19697618D01*
Y19748401D02*
Y19849968D01*
Y19900752D02*
Y20002319D01*
Y20053104D02*
Y20154671D01*
Y20205453D02*
Y20307021D01*
Y20357803D02*
Y20459370D01*
X8915400Y18031821D02*
X8987219Y18103641D01*
X9023128Y18139549D02*
X9094947Y18211368D01*
X9130856Y18247276D02*
X9202675Y18319096D01*
X9238585Y18355006D02*
X9310404Y18426825D01*
X9346313Y18462733D02*
X9418132Y18534554D01*
X9454041Y18570462D02*
X9525860Y18642281D01*
X9561769Y18678191D02*
X9633588Y18750009D01*
X9669498Y18785919D02*
X9741316Y18857738D01*
X9777226Y18893646D02*
X9849045Y18965466D01*
X9884954Y19001375D02*
X9956773Y19073193D01*
X9992682Y19109103D02*
X10064501Y19180922D01*
X10100410Y19216832D02*
X10172229Y19288651D01*
X10208139Y19324561D02*
X10279958Y19396379D01*
X7543800Y18059399D02*
Y18160966D01*
Y18211749D02*
Y18313318D01*
Y18364101D02*
Y18465668D01*
Y18516452D02*
Y18618019D01*
Y18668803D02*
Y18770370D01*
Y18821153D02*
Y18922720D01*
Y18973505D02*
Y19075072D01*
Y19125854D02*
Y19227422D01*
Y19278206D02*
Y19379773D01*
Y19430556D02*
Y19532123D01*
X7543800Y21869400D02*
Y21970967D01*
Y22021751D02*
Y22123318D01*
Y22174101D02*
Y22275668D01*
Y22326453D02*
Y22428020D01*
Y22478802D02*
Y22580370D01*
Y22631154D02*
Y22732721D01*
Y22783504D02*
Y22885072D01*
Y22935855D02*
Y23037422D01*
Y23088206D02*
Y23189774D01*
Y23240556D02*
Y23342123D01*
Y23392908D02*
Y23494473D01*
X8940800Y21867221D02*
X9012619Y21939040D01*
X9048528Y21974950D02*
X9120347Y22046768D01*
X9156256Y22082677D02*
X9228075Y22154495D01*
X9263985Y22190405D02*
X9335804Y22262225D01*
X9371713Y22298134D02*
X9443532Y22369952D01*
X9479441Y22405862D02*
X9551260Y22477681D01*
X9587169Y22513589D02*
X9658988Y22585410D01*
X9694898Y22621320D02*
X9766716Y22693137D01*
X9802626Y22729047D02*
X9874445Y22800867D01*
X9910354Y22836775D02*
X9982173Y22908594D01*
X10018082Y22944502D02*
X10089901Y23016322D01*
X10125810Y23052232D02*
X10197629Y23124051D01*
X10233539Y23159959D02*
X10305358Y23231779D01*
X10337800Y23253700D02*
Y23355267D01*
Y23406050D02*
Y23507619D01*
Y23558401D02*
Y23659969D01*
Y23710751D02*
Y23812318D01*
Y23863103D02*
Y23964670D01*
Y24015453D02*
Y24117021D01*
Y24167804D02*
Y24269371D01*
X7581900Y21844000D02*
X7683467D01*
X7734251D02*
X7835818D01*
X7886601D02*
X7988169D01*
X8038952D02*
X8140519D01*
X8191303D02*
X8292870D01*
X8343654D02*
X8445221D01*
X8496004D02*
X8597572D01*
X8648355D02*
X8749922D01*
X8800706D02*
X8902273D01*
X8369300Y24269701D02*
X8470867D01*
X8521651D02*
X8623218D01*
X8674001D02*
X8775569D01*
X8826352D02*
X8927919D01*
X8978703D02*
X9080270D01*
X9131054D02*
X9232621D01*
X9283404D02*
X9384972D01*
X9435755D02*
X9537322D01*
X9588106D02*
X9689673D01*
X9740457D02*
X9842024D01*
X9892807D02*
X9994374D01*
X10045158D02*
X10146725D01*
X10197509D02*
X10299076D01*
X8559800Y24536400D02*
Y24637967D01*
Y24688751D02*
Y24790318D01*
Y24841101D02*
Y24942670D01*
Y24993452D02*
Y25095020D01*
Y25145802D02*
Y25247369D01*
Y25298154D02*
Y25399721D01*
Y25450504D02*
Y25552072D01*
X7162800Y23137221D02*
X7234619Y23209039D01*
X7270528Y23244949D02*
X7342347Y23316768D01*
X7378256Y23352676D02*
X7450075Y23424496D01*
X7485985Y23460406D02*
X7557804Y23532225D01*
X7593713Y23568134D02*
X7665532Y23639954D01*
X7701441Y23675862D02*
X7773260Y23747681D01*
X7809169Y23783591D02*
X7880988Y23855409D01*
X7916898Y23891319D02*
X7988716Y23963136D01*
X8024626Y23999046D02*
X8096445Y24070866D01*
X8132354Y24106775D02*
X8204173Y24178593D01*
X8240082Y24214503D02*
X8311901Y24286322D01*
X8347810Y24322232D02*
X8419629Y24394051D01*
X8455539Y24429961D02*
X8527358Y24501779D01*
X5803900Y23114000D02*
X5905467D01*
X5956251D02*
X6057818D01*
X6108601D02*
X6210169D01*
X6260952D02*
X6362519D01*
X6413303D02*
X6514870D01*
X6565654D02*
X6667221D01*
X6718004D02*
X6819572D01*
X6870355D02*
X6971922D01*
X7022706D02*
X7124273D01*
X5803900Y23164799D02*
Y23266367D01*
Y23317151D02*
Y23418718D01*
Y23469501D02*
Y23571069D01*
Y23621852D02*
Y23723419D01*
Y23774203D02*
Y23875771D01*
Y23926553D02*
Y24028120D01*
Y24078905D02*
Y24180472D01*
Y24231255D02*
Y24332822D01*
Y24383606D02*
Y24485173D01*
Y24535957D02*
Y24637524D01*
Y24688307D02*
Y24789874D01*
Y24840659D02*
Y24942226D01*
Y24993008D02*
Y25094576D01*
Y25145358D02*
Y25246927D01*
Y25297710D02*
Y25399277D01*
Y25450061D02*
Y25551628D01*
X5829300Y25577800D02*
X5930867D01*
X5981651D02*
X6083218D01*
X6134001D02*
X6235569D01*
X6286352D02*
X6387919D01*
X6438703D02*
X6540270D01*
X6591054D02*
X6692621D01*
X6743404D02*
X6844972D01*
X6895755D02*
X6997322D01*
X7048106D02*
X7149673D01*
X7200457D02*
X7302024D01*
X7352807D02*
X7454374D01*
X7505158D02*
X7606725D01*
X7657509D02*
X7759076D01*
X7809859D02*
X7911427D01*
X7962210D02*
X8063777D01*
X8114561D02*
X8216128D01*
X8266912D02*
X8368479D01*
X8419262D02*
X8520830D01*
X17271967Y14020760D02*
X17246574Y14046152D01*
X17195792D01*
X17170399Y14020760D01*
Y13919193D01*
X17195792Y13893800D01*
X17246574D01*
X17271967Y13919193D01*
X17322751Y14046152D02*
Y13893800D01*
Y13969975D01*
X17424318D01*
Y14046152D01*
Y13893800D01*
X17475101D02*
Y13995367D01*
X17525885Y14046152D01*
X17576669Y13995367D01*
Y13893800D01*
Y13969975D01*
X17475101D01*
X17627452Y13893800D02*
Y14046152D01*
X17729019Y13893800D01*
Y14046152D01*
X17779803Y13893800D02*
Y14046152D01*
X17881371Y13893800D01*
Y14046152D01*
X18033720D02*
X17932153D01*
Y13893800D01*
X18033720D01*
X17932153Y13969975D02*
X17982938D01*
X18084505Y14046152D02*
Y13893800D01*
X18186072D01*
X18389206Y13919193D02*
X18414598Y13893800D01*
X18465381D01*
X18490773Y13919193D01*
Y14020760D01*
X18465381Y14046152D01*
X18414598D01*
X18389206Y14020760D01*
Y13995367D01*
X18414598Y13969975D01*
X18490773D01*
X12725367Y11988759D02*
X12699975Y12014151D01*
X12649192D01*
X12623800Y11988759D01*
Y11887192D01*
X12649192Y11861800D01*
X12699975D01*
X12725367Y11887192D01*
X12776151Y12014151D02*
Y11861800D01*
Y11937975D01*
X12877718D01*
Y12014151D01*
Y11861800D01*
X12928500D02*
Y11963367D01*
X12979285Y12014151D01*
X13030069Y11963367D01*
Y11861800D01*
Y11937975D01*
X12928500D01*
X13080852Y11861800D02*
Y12014151D01*
X13182419Y11861800D01*
Y12014151D01*
X13233203Y11861800D02*
Y12014151D01*
X13334770Y11861800D01*
Y12014151D01*
X13487122D02*
X13385555D01*
Y11861800D01*
X13487122D01*
X13385555Y11937975D02*
X13436337D01*
X13537904Y12014151D02*
Y11861800D01*
X13639471D01*
X13842606Y11988759D02*
X13867998Y12014151D01*
X13918781D01*
X13944173Y11988759D01*
Y11963367D01*
X13918781Y11937975D01*
X13944173Y11912583D01*
Y11887192D01*
X13918781Y11861800D01*
X13867998D01*
X13842606Y11887192D01*
Y11912583D01*
X13867998Y11937975D01*
X13842606Y11963367D01*
Y11988759D01*
X13867998Y11937975D02*
X13918781D01*
X14198091Y11861800D02*
X14147307Y11912583D01*
Y11963367D01*
X14198091Y12014151D01*
X14274266D02*
X14375833D01*
X14325050D01*
Y11861800D01*
X14426617D02*
X14477400Y11912583D01*
Y11963367D01*
X14426617Y12014151D01*
X17271967Y14579559D02*
X17246574Y14604951D01*
X17195792D01*
X17170399Y14579559D01*
Y14477992D01*
X17195792Y14452600D01*
X17246574D01*
X17271967Y14477992D01*
X17322751Y14604951D02*
Y14452600D01*
Y14528775D01*
X17424318D01*
Y14604951D01*
Y14452600D01*
X17475101D02*
Y14554167D01*
X17525885Y14604951D01*
X17576669Y14554167D01*
Y14452600D01*
Y14528775D01*
X17475101D01*
X17627452Y14452600D02*
Y14604951D01*
X17729019Y14452600D01*
Y14604951D01*
X17779803Y14452600D02*
Y14604951D01*
X17881371Y14452600D01*
Y14604951D01*
X18033720D02*
X17932153D01*
Y14452600D01*
X18033720D01*
X17932153Y14528775D02*
X17982938D01*
X18084505Y14604951D02*
Y14452600D01*
X18186072D01*
X18389206Y14604951D02*
X18490773D01*
Y14579559D01*
X18389206Y14477992D01*
Y14452600D01*
X17271967Y14858958D02*
X17246574Y14884351D01*
X17195792D01*
X17170399Y14858958D01*
Y14757391D01*
X17195792Y14732001D01*
X17246574D01*
X17271967Y14757391D01*
X17322751Y14884351D02*
Y14732001D01*
Y14808176D01*
X17424318D01*
Y14884351D01*
Y14732001D01*
X17475101D02*
Y14833566D01*
X17525885Y14884351D01*
X17576669Y14833566D01*
Y14732001D01*
Y14808176D01*
X17475101D01*
X17627452Y14732001D02*
Y14884351D01*
X17729019Y14732001D01*
Y14884351D01*
X17779803Y14732001D02*
Y14884351D01*
X17881371Y14732001D01*
Y14884351D01*
X18033720D02*
X17932153D01*
Y14732001D01*
X18033720D01*
X17932153Y14808176D02*
X17982938D01*
X18084505Y14884351D02*
Y14732001D01*
X18186072D01*
X18490773Y14884351D02*
X18439989Y14858958D01*
X18389206Y14808176D01*
Y14757391D01*
X18414598Y14732001D01*
X18465381D01*
X18490773Y14757391D01*
Y14782784D01*
X18465381Y14808176D01*
X18389206D01*
X17271967Y15963860D02*
X17246574Y15989252D01*
X17195792D01*
X17170399Y15963860D01*
Y15862292D01*
X17195792Y15836900D01*
X17246574D01*
X17271967Y15862292D01*
X17322751Y15989252D02*
Y15836900D01*
Y15913075D01*
X17424318D01*
Y15989252D01*
Y15836900D01*
X17475101D02*
Y15938467D01*
X17525885Y15989252D01*
X17576669Y15938467D01*
Y15836900D01*
Y15913075D01*
X17475101D01*
X17627452Y15836900D02*
Y15989252D01*
X17729019Y15836900D01*
Y15989252D01*
X17779803Y15836900D02*
Y15989252D01*
X17881371Y15836900D01*
Y15989252D01*
X18033720D02*
X17932153D01*
Y15836900D01*
X18033720D01*
X17932153Y15913075D02*
X17982938D01*
X18084505Y15989252D02*
Y15836900D01*
X18186072D01*
X18490773Y15989252D02*
X18389206D01*
Y15913075D01*
X18439989Y15938467D01*
X18465381D01*
X18490773Y15913075D01*
Y15862292D01*
X18465381Y15836900D01*
X18414598D01*
X18389206Y15862292D01*
X14668468Y18592760D02*
X14643076Y18618150D01*
X14592291D01*
X14566901Y18592760D01*
Y18491193D01*
X14592291Y18465800D01*
X14643076D01*
X14668468Y18491193D01*
X14719250Y18618150D02*
Y18465800D01*
Y18541975D01*
X14820818D01*
Y18618150D01*
Y18465800D01*
X14871600D02*
Y18567368D01*
X14922385Y18618150D01*
X14973169Y18567368D01*
Y18465800D01*
Y18541975D01*
X14871600D01*
X15023952Y18465800D02*
Y18618150D01*
X15125519Y18465800D01*
Y18618150D01*
X15176303Y18465800D02*
Y18618150D01*
X15277870Y18465800D01*
Y18618150D01*
X15430222D02*
X15328654D01*
Y18465800D01*
X15430222D01*
X15328654Y18541975D02*
X15379437D01*
X15481004Y18618150D02*
Y18465800D01*
X15582571D01*
X15785706Y18592760D02*
X15811098Y18618150D01*
X15861880D01*
X15887273Y18592760D01*
Y18567368D01*
X15861880Y18541975D01*
X15836488D01*
X15861880D01*
X15887273Y18516583D01*
Y18491193D01*
X15861880Y18465800D01*
X15811098D01*
X15785706Y18491193D01*
X16141191Y18465800D02*
X16090407Y18516583D01*
Y18567368D01*
X16141191Y18618150D01*
X16217366D02*
X16318933D01*
X16268150D01*
Y18465800D01*
X16369717D02*
X16420500Y18516583D01*
Y18567368D01*
X16369717Y18618150D01*
X2992087Y17688512D02*
X2941303D01*
X2966695D01*
Y17561552D01*
X2941303Y17536160D01*
X2915912D01*
X2890520Y17561552D01*
X3042871Y17688512D02*
X3093654D01*
X3068263D01*
Y17536160D01*
X3042871D01*
X3093654D01*
X3169830D02*
Y17688512D01*
X3271397Y17536160D01*
Y17688512D01*
X14612621Y21074332D02*
X14714188D01*
X14663403D01*
Y20921980D01*
X14764970D02*
X14815755D01*
X14790363D01*
Y21074332D01*
X14764970Y21048940D01*
X14993497Y20921980D02*
X14891930D01*
X14993497Y21023547D01*
Y21048940D01*
X14968105Y21074332D01*
X14917320D01*
X14891930Y21048940D01*
X4429760Y10650220D02*
Y10802571D01*
X4505935D01*
X4531327Y10777179D01*
Y10726395D01*
X4505935Y10701003D01*
X4429760D01*
X4480543D02*
X4531327Y10650220D01*
X4582111D02*
X4632894D01*
X4607503D01*
Y10802571D01*
X4582111Y10777179D01*
X4709070D02*
X4734461Y10802571D01*
X4785245D01*
X4810637Y10777179D01*
Y10675612D01*
X4785245Y10650220D01*
X4734461D01*
X4709070Y10675612D01*
Y10777179D01*
X4429760Y11920220D02*
Y12072571D01*
X4505935D01*
X4531327Y12047179D01*
Y11996395D01*
X4505935Y11971003D01*
X4429760D01*
X4480543D02*
X4531327Y11920220D01*
X4582111Y11945612D02*
X4607503Y11920220D01*
X4658286D01*
X4683678Y11945612D01*
Y12047179D01*
X4658286Y12072571D01*
X4607503D01*
X4582111Y12047179D01*
Y12021787D01*
X4607503Y11996395D01*
X4683678D01*
X4429760Y13190221D02*
Y13342570D01*
X4505935D01*
X4531327Y13317178D01*
Y13266396D01*
X4505935Y13241003D01*
X4429760D01*
X4480543D02*
X4531327Y13190221D01*
X4582111Y13317178D02*
X4607503Y13342570D01*
X4658286D01*
X4683678Y13317178D01*
Y13291788D01*
X4658286Y13266396D01*
X4683678Y13241003D01*
Y13215611D01*
X4658286Y13190221D01*
X4607503D01*
X4582111Y13215611D01*
Y13241003D01*
X4607503Y13266396D01*
X4582111Y13291788D01*
Y13317178D01*
X4607503Y13266396D02*
X4658286D01*
X4429760Y14460220D02*
Y14612572D01*
X4505935D01*
X4531327Y14587180D01*
Y14536395D01*
X4505935Y14511003D01*
X4429760D01*
X4480543D02*
X4531327Y14460220D01*
X4582111Y14612572D02*
X4683678D01*
Y14587180D01*
X4582111Y14485612D01*
Y14460220D01*
X4429760Y15730220D02*
Y15882571D01*
X4505935D01*
X4531327Y15857179D01*
Y15806395D01*
X4505935Y15781003D01*
X4429760D01*
X4480543D02*
X4531327Y15730220D01*
X4683678Y15882571D02*
X4632894Y15857179D01*
X4582111Y15806395D01*
Y15755612D01*
X4607503Y15730220D01*
X4658286D01*
X4683678Y15755612D01*
Y15781003D01*
X4658286Y15806395D01*
X4582111D01*
X4429760Y17000220D02*
Y17152571D01*
X4505935D01*
X4531327Y17127179D01*
Y17076395D01*
X4505935Y17051003D01*
X4429760D01*
X4480543D02*
X4531327Y17000220D01*
X4683678Y17152571D02*
X4582111D01*
Y17076395D01*
X4632894Y17101787D01*
X4658286D01*
X4683678Y17076395D01*
Y17025612D01*
X4658286Y17000220D01*
X4607503D01*
X4582111Y17025612D01*
X4429760Y18270219D02*
Y18422571D01*
X4505935D01*
X4531327Y18397179D01*
Y18346394D01*
X4505935Y18321004D01*
X4429760D01*
X4480543D02*
X4531327Y18270219D01*
X4658286D02*
Y18422571D01*
X4582111Y18346394D01*
X4683678D01*
X4429760Y19540221D02*
Y19692570D01*
X4505935D01*
X4531327Y19667178D01*
Y19616396D01*
X4505935Y19591003D01*
X4429760D01*
X4480543D02*
X4531327Y19540221D01*
X4582111Y19667178D02*
X4607503Y19692570D01*
X4658286D01*
X4683678Y19667178D01*
Y19641788D01*
X4658286Y19616396D01*
X4632894D01*
X4658286D01*
X4683678Y19591003D01*
Y19565611D01*
X4658286Y19540221D01*
X4607503D01*
X4582111Y19565611D01*
X4429760Y20810220D02*
Y20962572D01*
X4505935D01*
X4531327Y20937180D01*
Y20886395D01*
X4505935Y20861003D01*
X4429760D01*
X4480543D02*
X4531327Y20810220D01*
X4683678D02*
X4582111D01*
X4683678Y20911787D01*
Y20937180D01*
X4658286Y20962572D01*
X4607503D01*
X4582111Y20937180D01*
X4429760Y22080220D02*
Y22232571D01*
X4505935D01*
X4531327Y22207179D01*
Y22156395D01*
X4505935Y22131003D01*
X4429760D01*
X4480543D02*
X4531327Y22080220D01*
X4582111D02*
X4632894D01*
X4607503D01*
Y22232571D01*
X4582111Y22207179D01*
X20510529Y9677375D02*
X20459744D01*
X20485136D01*
Y9550417D01*
X20459744Y9525025D01*
X20434354D01*
X20408961Y9550417D01*
X20561311Y9525025D02*
X20612096D01*
X20586703D01*
Y9677375D01*
X20561311Y9651983D01*
X20688271D02*
X20713663Y9677375D01*
X20764447D01*
X20789839Y9651983D01*
Y9550417D01*
X20764447Y9525025D01*
X20713663D01*
X20688271Y9550417D01*
Y9651983D01*
X19913600Y20954974D02*
X19862817D01*
X19888208D01*
Y20828017D01*
X19862817Y20802625D01*
X19837425D01*
X19812033Y20828017D01*
X19964384Y20802625D02*
X20015167D01*
X19989777D01*
Y20954974D01*
X19964384Y20929584D01*
X4610129Y10172683D02*
X4584737Y10198075D01*
X4533954D01*
X4508562Y10172683D01*
Y10071117D01*
X4533954Y10045725D01*
X4584737D01*
X4610129Y10071117D01*
X4660912Y10045725D02*
X4711696D01*
X4686304D01*
Y10198075D01*
X4660912Y10172683D01*
X4787871D02*
X4813263Y10198075D01*
X4864047D01*
X4889439Y10172683D01*
Y10071117D01*
X4864047Y10045725D01*
X4813263D01*
X4787871Y10071117D01*
Y10172683D01*
X4762508Y11429983D02*
X4737117Y11455375D01*
X4686333D01*
X4660941Y11429983D01*
Y11328417D01*
X4686333Y11303025D01*
X4737117D01*
X4762508Y11328417D01*
X4813292D02*
X4838684Y11303025D01*
X4889467D01*
X4914859Y11328417D01*
Y11429983D01*
X4889467Y11455375D01*
X4838684D01*
X4813292Y11429983D01*
Y11404592D01*
X4838684Y11379200D01*
X4914859D01*
X4749808Y12712683D02*
X4724417Y12738075D01*
X4673633D01*
X4648241Y12712683D01*
Y12611117D01*
X4673633Y12585725D01*
X4724417D01*
X4749808Y12611117D01*
X4800592Y12712683D02*
X4825984Y12738075D01*
X4876767D01*
X4902159Y12712683D01*
Y12687292D01*
X4876767Y12661900D01*
X4902159Y12636508D01*
Y12611117D01*
X4876767Y12585725D01*
X4825984D01*
X4800592Y12611117D01*
Y12636508D01*
X4825984Y12661900D01*
X4800592Y12687292D01*
Y12712683D01*
X4825984Y12661900D02*
X4876767D01*
X4762508Y13969983D02*
X4737117Y13995375D01*
X4686333D01*
X4660941Y13969983D01*
Y13868417D01*
X4686333Y13843025D01*
X4737117D01*
X4762508Y13868417D01*
X4813292Y13995375D02*
X4914859D01*
Y13969983D01*
X4813292Y13868417D01*
Y13843025D01*
X4762508Y15239983D02*
X4737117Y15265375D01*
X4686333D01*
X4660941Y15239983D01*
Y15138417D01*
X4686333Y15113025D01*
X4737117D01*
X4762508Y15138417D01*
X4914859Y15265375D02*
X4864075Y15239983D01*
X4813292Y15189200D01*
Y15138417D01*
X4838684Y15113025D01*
X4889467D01*
X4914859Y15138417D01*
Y15163808D01*
X4889467Y15189200D01*
X4813292D01*
X4737108Y16509982D02*
X4711717Y16535374D01*
X4660933D01*
X4635541Y16509982D01*
Y16408417D01*
X4660933Y16383025D01*
X4711717D01*
X4737108Y16408417D01*
X4889459Y16535374D02*
X4787892D01*
Y16459200D01*
X4838675Y16484592D01*
X4864067D01*
X4889459Y16459200D01*
Y16408417D01*
X4864067Y16383025D01*
X4813284D01*
X4787892Y16408417D01*
X4749808Y17779984D02*
X4724417Y17805376D01*
X4673633D01*
X4648241Y17779984D01*
Y17678416D01*
X4673633Y17653024D01*
X4724417D01*
X4749808Y17678416D01*
X4876767Y17653024D02*
Y17805376D01*
X4800592Y17729201D01*
X4902159D01*
X4762508Y19062683D02*
X4737117Y19088075D01*
X4686333D01*
X4660941Y19062683D01*
Y18961118D01*
X4686333Y18935725D01*
X4737117D01*
X4762508Y18961118D01*
X4813292Y19062683D02*
X4838684Y19088075D01*
X4889467D01*
X4914859Y19062683D01*
Y19037292D01*
X4889467Y19011900D01*
X4864075D01*
X4889467D01*
X4914859Y18986508D01*
Y18961118D01*
X4889467Y18935725D01*
X4838684D01*
X4813292Y18961118D01*
X4749808Y20319983D02*
X4724417Y20345375D01*
X4673633D01*
X4648241Y20319983D01*
Y20218417D01*
X4673633Y20193025D01*
X4724417D01*
X4749808Y20218417D01*
X4902159Y20193025D02*
X4800592D01*
X4902159Y20294592D01*
Y20319983D01*
X4876767Y20345375D01*
X4825984D01*
X4800592Y20319983D01*
X4800600Y21589983D02*
X4775208Y21615375D01*
X4724425D01*
X4699033Y21589983D01*
Y21488417D01*
X4724425Y21463025D01*
X4775208D01*
X4800600Y21488417D01*
X4851384Y21463025D02*
X4902167D01*
X4876776D01*
Y21615375D01*
X4851384Y21589983D01*
X20388547Y18145711D02*
X20337762D01*
X20363155D01*
Y18018752D01*
X20337762Y17993359D01*
X20312372D01*
X20286980Y18018752D01*
X20515506Y18145711D02*
X20464723D01*
X20439331Y18120319D01*
Y18018752D01*
X20464723Y17993359D01*
X20515506D01*
X20540898Y18018752D01*
Y18120319D01*
X20515506Y18145711D01*
X20591681D02*
Y18018752D01*
X20617073Y17993359D01*
X20667857D01*
X20693250Y18018752D01*
Y18145711D01*
X20744032D02*
X20845599D01*
X20794817D01*
Y17993359D01*
X16771620Y20058331D02*
X16873187D01*
X16822403D01*
Y19905980D01*
X16923972Y20032939D02*
X16949364Y20058331D01*
X17000146D01*
X17025539Y20032939D01*
Y20007547D01*
X17000146Y19982155D01*
X16974754D01*
X17000146D01*
X17025539Y19956763D01*
Y19931372D01*
X17000146Y19905980D01*
X16949364D01*
X16923972Y19931372D01*
X18935733Y20523175D02*
X19037300D01*
X18986517D01*
Y20370825D01*
X19088084D02*
X19138867D01*
X19113477D01*
Y20523175D01*
X19088084Y20497783D01*
D64*
X12006700Y25391000D02*
X12021700D01*
X12006700Y25536000D02*
X12021700D01*
X11398200Y24956200D02*
Y25996201D01*
X11348200Y24956200D02*
X11808200D01*
Y24956200D02*
Y25996201D01*
X11348200D02*
X11808200D01*
X11348200Y24956200D02*
Y25996201D01*
X5772900Y5423600D02*
Y6463600D01*
X6232900D01*
Y5423600D02*
Y6463600D01*
X5772900Y5423600D02*
X6232900D01*
X5822900Y5423600D02*
Y6463600D01*
X6879600Y6127394D02*
Y6227394D01*
X7039600Y6127394D02*
Y6227394D01*
X6460600Y6279000D02*
Y6294000D01*
X6315600Y6279000D02*
Y6294000D01*
X6734800Y5817400D02*
Y5917400D01*
X6574800Y5817400D02*
Y5917400D01*
X6450600Y5806600D02*
Y5826600D01*
X6325600Y5806600D02*
Y5826600D01*
X6704600Y24691499D02*
Y24711501D01*
X6579600Y24691499D02*
Y24711501D01*
X6276500Y24550101D02*
X6296500D01*
X6276500Y24675101D02*
X6296500D01*
X7269600Y24832201D02*
X7284600D01*
X7269600Y24977200D02*
X7284600D01*
X20284200Y12585000D02*
Y17895000D01*
Y12585000D02*
X21524200D01*
Y17895000D01*
X20284200D02*
X21524200D01*
X8357600Y8181500D02*
Y8201500D01*
X8482600Y8181500D02*
Y8201500D01*
X8357600Y11991500D02*
Y12011500D01*
X8482600Y11991500D02*
Y12011500D01*
X8357600Y23421500D02*
Y23441499D01*
X8482600Y23421500D02*
Y23441499D01*
X8357600Y19611501D02*
Y19631500D01*
X8482600Y19611501D02*
Y19631500D01*
X8054500Y8165100D02*
X8074500D01*
X8054500Y8040100D02*
X8074500D01*
X8054500Y11975100D02*
X8074500D01*
X8054500Y11850100D02*
X8074500D01*
X8054500Y23405099D02*
X8074500D01*
X8054500Y23280099D02*
X8074500D01*
X8054500Y19595100D02*
X8074500D01*
X8054500Y19470100D02*
X8074500D01*
X8526900Y22787500D02*
X8541900D01*
X8526900Y22932500D02*
X8541900D01*
X8526900Y18977499D02*
X8541900D01*
X8526900Y19122501D02*
X8541900D01*
X8526900Y7547500D02*
X8541900D01*
X8526900Y7692500D02*
X8541900D01*
X8526900Y11357500D02*
X8541900D01*
X8526900Y11502500D02*
X8541900D01*
X8582500Y8251000D02*
X8802500D01*
X8770000D02*
X9010000D01*
X8777500Y7753500D02*
X9002500D01*
X9047600Y8467200D02*
X9062600D01*
X9047600Y8322200D02*
X9062600D01*
X9047600Y12277200D02*
X9062600D01*
X9047600Y12132200D02*
X9062600D01*
X9047600Y23707201D02*
X9062600D01*
X9047600Y23562199D02*
X9062600D01*
X9047600Y19897200D02*
X9062600D01*
X9047600Y19752200D02*
X9062600D01*
X9287400Y23411301D02*
Y23426300D01*
X9432400Y23411301D02*
Y23426300D01*
X9287400Y19601300D02*
Y19616299D01*
X9432400Y19601300D02*
Y19616299D01*
X9287400Y8171300D02*
Y8186300D01*
X9432400Y8171300D02*
Y8186300D01*
X9287400Y11981300D02*
Y11996300D01*
X9432400Y11981300D02*
Y11996300D01*
X8582500Y23491000D02*
X8802500D01*
X8770000D02*
X9010000D01*
X8777500Y22993500D02*
X9002500D01*
X8582500Y19681000D02*
X8802500D01*
X8770000D02*
X9010000D01*
X8777500Y19183501D02*
X9002500D01*
X8582500Y12061000D02*
X8802500D01*
X8770000D02*
X9010000D01*
X8777500Y11563500D02*
X9002500D01*
X9248300Y22909801D02*
X9268300D01*
X9248300Y22784801D02*
X9268300D01*
X9248300Y19099800D02*
X9268300D01*
X9248300Y18974800D02*
X9268300D01*
X9248300Y7669800D02*
X9268300D01*
X9248300Y7544800D02*
X9268300D01*
X9248300Y11479800D02*
X9268300D01*
X9248300Y11354800D02*
X9268300D01*
X8582500Y15871001D02*
X8802500D01*
X8770000D02*
X9010000D01*
X8777500Y15373500D02*
X9002500D01*
X8526900Y15167500D02*
X8541900D01*
X8526900Y15312500D02*
X8541900D01*
X9047600Y16087199D02*
X9062600D01*
X9047600Y15942200D02*
X9062600D01*
X9287400Y15791299D02*
Y15806300D01*
X9432400Y15791299D02*
Y15806300D01*
X8054500Y15785100D02*
X8074500D01*
X8054500Y15660100D02*
X8074500D01*
X8357600Y15801500D02*
Y15821500D01*
X8482600Y15801500D02*
Y15821500D01*
X9248300Y15289799D02*
X9268300D01*
X9248300Y15164799D02*
X9268300D01*
X6748900Y12627500D02*
X6763900D01*
X6748900Y12772500D02*
X6763900D01*
X7509400Y24681300D02*
Y24696300D01*
X7654400Y24681300D02*
Y24696300D01*
X7509400Y20871300D02*
Y20886301D01*
X7654400Y20871300D02*
Y20886301D01*
X7509400Y9441300D02*
Y9456300D01*
X7654400Y9441300D02*
Y9456300D01*
X7509400Y13251300D02*
Y13266299D01*
X7654400Y13251300D02*
Y13266299D01*
X7269600Y13547200D02*
X7284600D01*
X7269600Y13402200D02*
X7284600D01*
X7269600Y9737200D02*
X7284600D01*
X7269600Y9592200D02*
X7284600D01*
X7269600Y21167200D02*
X7284600D01*
X7269600Y21022200D02*
X7284600D01*
X6804500Y24761000D02*
X7024500D01*
X6992000D02*
X7232000D01*
X6999500Y24263499D02*
X7224500D01*
X6804500Y20950999D02*
X7024500D01*
X6992000D02*
X7232000D01*
X6999500Y20453500D02*
X7224500D01*
X6804500Y9521000D02*
X7024500D01*
X6992000D02*
X7232000D01*
X6999500Y9023500D02*
X7224500D01*
X6804500Y13331000D02*
X7024500D01*
X6992000D02*
X7232000D01*
X6999500Y12833501D02*
X7224500D01*
X6579600Y9451500D02*
Y9471500D01*
X6704600Y9451500D02*
Y9471500D01*
X6579600Y13261501D02*
Y13281500D01*
X6704600Y13261501D02*
Y13281500D01*
X6579600Y20881500D02*
Y20901500D01*
X6704600Y20881500D02*
Y20901500D01*
X6276500Y9435100D02*
X6296500D01*
X6276500Y9310100D02*
X6296500D01*
X6276500Y20865100D02*
X6296500D01*
X6276500Y20740100D02*
X6296500D01*
X6276500Y13245100D02*
X6296500D01*
X6276500Y13120100D02*
X6296500D01*
X7470300Y8939800D02*
X7490300D01*
X7470300Y8814800D02*
X7490300D01*
X7470300Y12749800D02*
X7490300D01*
X7470300Y12624800D02*
X7490300D01*
X7470300Y24179800D02*
X7490300D01*
X7470300Y24054800D02*
X7490300D01*
X7470300Y20369800D02*
X7490300D01*
X7470300Y20244800D02*
X7490300D01*
X6748900Y8817500D02*
X6763900D01*
X6748900Y8962500D02*
X6763900D01*
X6748900Y24057500D02*
X6763900D01*
X6748900Y24202499D02*
X6763900D01*
X6748900Y20247501D02*
X6763900D01*
X6748900Y20392500D02*
X6763900D01*
X6748900Y16437500D02*
X6763900D01*
X6748900Y16582500D02*
X6763900D01*
X7509400Y17061301D02*
Y17076300D01*
X7654400Y17061301D02*
Y17076300D01*
X7470300Y16559801D02*
X7490300D01*
X7470300Y16434801D02*
X7490300D01*
X6804500Y17141000D02*
X7024500D01*
X6992000D02*
X7232000D01*
X6999500Y16643500D02*
X7224500D01*
X7269600Y17357201D02*
X7284600D01*
X7269600Y17212199D02*
X7284600D01*
X6579600Y17071500D02*
Y17091499D01*
X6704600Y17071500D02*
Y17091499D01*
X6276500Y17055099D02*
X6296500D01*
X6276500Y16930099D02*
X6296500D01*
X4562000Y15500000D02*
X4582000D01*
X4562000Y15614999D02*
X4582000D01*
X4562000Y21964999D02*
X4582000D01*
X4562000Y21850000D02*
X4582000D01*
X4562000Y14345000D02*
X4582000D01*
X4562000Y14230000D02*
X4582000D01*
X4562000Y20695000D02*
X4582000D01*
X4562000Y20580000D02*
X4582000D01*
X4562000Y13075000D02*
X4582000D01*
X4562000Y12960001D02*
X4582000D01*
X4562000Y19425000D02*
X4582000D01*
X4562000Y19310001D02*
X4582000D01*
X4562000Y11805000D02*
X4582000D01*
X4562000Y11690000D02*
X4582000D01*
X4562000Y18155000D02*
X4582000D01*
X4562000Y18039999D02*
X4582000D01*
X4562000Y10535000D02*
X4582000D01*
X4562000Y10420000D02*
X4582000D01*
X4562000Y16885001D02*
X4582000D01*
X4562000Y16770000D02*
X4582000D01*
D65*
X14592300Y18783299D02*
Y20840700D01*
Y18783299D02*
X16649699D01*
Y20840700D01*
X14592300D02*
X16649699D01*
X18910300Y18275301D02*
Y20332700D01*
Y18275301D02*
X20967700D01*
Y20332700D01*
X18910300D02*
X20967700D01*
X16751300Y17767300D02*
Y19824699D01*
Y17767300D02*
X18808701D01*
Y19824699D01*
X16751300D02*
X18808701D01*
D66*
X3205480Y8323547D02*
X3340903D01*
X3510181Y8221980D02*
Y8425114D01*
X3408614Y8323547D01*
X3544037D01*
X3611748Y8255836D02*
X3645604Y8221980D01*
X3713316D01*
X3747171Y8255836D01*
Y8391259D01*
X3713316Y8425114D01*
X3645604D01*
X3611748Y8391259D01*
Y8357403D01*
X3645604Y8323547D01*
X3747171D01*
X3814883Y8425114D02*
Y8289691D01*
X3882594Y8221980D01*
X3950306Y8289691D01*
Y8425114D01*
X3205480Y6824947D02*
X3340903D01*
X3273191Y6892659D02*
Y6757236D01*
X3544037Y6926514D02*
X3408614D01*
Y6824947D01*
X3476326Y6858803D01*
X3510181D01*
X3544037Y6824947D01*
Y6757236D01*
X3510181Y6723380D01*
X3442470D01*
X3408614Y6757236D01*
X3611748Y6926514D02*
Y6791091D01*
X3679460Y6723380D01*
X3747171Y6791091D01*
Y6926514D01*
X3340903Y7629259D02*
X3307047Y7663114D01*
X3239336D01*
X3205480Y7629259D01*
Y7493836D01*
X3239336Y7459980D01*
X3307047D01*
X3340903Y7493836D01*
Y7561547D01*
X3273191D01*
X3408614Y7459980D02*
Y7663114D01*
X3544037Y7459980D01*
Y7663114D01*
X3611748D02*
Y7459980D01*
X3713316D01*
X3747171Y7493836D01*
Y7629259D01*
X3713316Y7663114D01*
X3611748D01*
X2921803Y6448159D02*
X2887947Y6482014D01*
X2820236D01*
X2786380Y6448159D01*
Y6414303D01*
X2820236Y6380447D01*
X2887947D01*
X2921803Y6346591D01*
Y6312736D01*
X2887947Y6278880D01*
X2820236D01*
X2786380Y6312736D01*
X3023370Y6278880D02*
X3091081D01*
X3124937Y6312736D01*
Y6380447D01*
X3091081Y6414303D01*
X3023370D01*
X2989514Y6380447D01*
Y6312736D01*
X3023370Y6278880D01*
X3192648Y6414303D02*
Y6312736D01*
X3226504Y6278880D01*
X3328071D01*
Y6414303D01*
X3395783D02*
Y6278880D01*
Y6346591D01*
X3429638Y6380447D01*
X3463494Y6414303D01*
X3497350D01*
X3734340D02*
X3632773D01*
X3598917Y6380447D01*
Y6312736D01*
X3632773Y6278880D01*
X3734340D01*
X3903618D02*
X3835907D01*
X3802051Y6312736D01*
Y6380447D01*
X3835907Y6414303D01*
X3903618D01*
X3937474Y6380447D01*
Y6346591D01*
X3802051D01*
X4005185Y6278880D02*
X4106753D01*
X4140608Y6312736D01*
X4106753Y6346591D01*
X4039041D01*
X4005185Y6380447D01*
X4039041Y6414303D01*
X4140608D01*
X12781280Y24770047D02*
X12916702D01*
X13119836Y24871614D02*
X12984415D01*
Y24770047D01*
X13052126Y24803903D01*
X13085982D01*
X13119836Y24770047D01*
Y24702336D01*
X13085982Y24668480D01*
X13018269D01*
X12984415Y24702336D01*
X13322971Y24871614D02*
X13187547D01*
Y24770047D01*
X13255260Y24803903D01*
X13289116D01*
X13322971Y24770047D01*
Y24702336D01*
X13289116Y24668480D01*
X13221404D01*
X13187547Y24702336D01*
X13390683Y24871614D02*
Y24736191D01*
X13458394Y24668480D01*
X13526106Y24736191D01*
Y24871614D01*
X11130280Y23817580D02*
Y24020714D01*
X11231847D01*
X11265703Y23986859D01*
Y23919147D01*
X11231847Y23885291D01*
X11130280D01*
X11197991D02*
X11265703Y23817580D01*
X11468837Y24020714D02*
X11333414D01*
Y23817580D01*
X11468837D01*
X11333414Y23919147D02*
X11401126D01*
X11671971Y23986859D02*
X11638116Y24020714D01*
X11570404D01*
X11536548Y23986859D01*
Y23851436D01*
X11570404Y23817580D01*
X11638116D01*
X11671971Y23851436D01*
Y23919147D01*
X11604260D01*
X11942817D02*
X12078240D01*
X12247518Y23817580D02*
Y24020714D01*
X12145951Y23919147D01*
X12281374D01*
X12349085Y23851436D02*
X12382941Y23817580D01*
X12450653D01*
X12484508Y23851436D01*
Y23986859D01*
X12450653Y24020714D01*
X12382941D01*
X12349085Y23986859D01*
Y23953003D01*
X12382941Y23919147D01*
X12484508D01*
X12552219Y24020714D02*
Y23885291D01*
X12619931Y23817580D01*
X12687642Y23885291D01*
Y24020714D01*
X4297680Y4323080D02*
Y4526214D01*
X4399247D01*
X4433103Y4492359D01*
Y4424647D01*
X4399247Y4390791D01*
X4297680D01*
X4365391D02*
X4433103Y4323080D01*
X4636237Y4526214D02*
X4500814D01*
Y4323080D01*
X4636237D01*
X4500814Y4424647D02*
X4568526D01*
X4839371Y4492359D02*
X4805516Y4526214D01*
X4737804D01*
X4703948Y4492359D01*
Y4356936D01*
X4737804Y4323080D01*
X4805516D01*
X4839371Y4356936D01*
Y4424647D01*
X4771660D01*
X5110217D02*
X5245640D01*
X5177928Y4492359D02*
Y4356936D01*
X5414918Y4323080D02*
Y4526214D01*
X5313351Y4424647D01*
X5448774D01*
X5516485Y4356936D02*
X5550341Y4323080D01*
X5618053D01*
X5651908Y4356936D01*
Y4492359D01*
X5618053Y4526214D01*
X5550341D01*
X5516485Y4492359D01*
Y4458503D01*
X5550341Y4424647D01*
X5651908D01*
X5719619Y4526214D02*
Y4390791D01*
X5787331Y4323080D01*
X5855042Y4390791D01*
Y4526214D01*
X6050280Y6786847D02*
X6185703D01*
X6117991Y6854559D02*
Y6719136D01*
X6388837Y6888414D02*
X6253414D01*
Y6786847D01*
X6321126Y6820703D01*
X6354981D01*
X6388837Y6786847D01*
Y6719136D01*
X6354981Y6685280D01*
X6287270D01*
X6253414Y6719136D01*
X6591971Y6888414D02*
X6456548D01*
Y6786847D01*
X6524260Y6820703D01*
X6558116D01*
X6591971Y6786847D01*
Y6719136D01*
X6558116Y6685280D01*
X6490404D01*
X6456548Y6719136D01*
X6659683Y6888414D02*
Y6752991D01*
X6727394Y6685280D01*
X6795106Y6752991D01*
Y6888414D01*
X5821680Y22831190D02*
Y22966614D01*
X5889391Y23034326D01*
X5957103Y22966614D01*
Y22831190D01*
Y22932759D01*
X5821680D01*
X6024814Y22831190D02*
Y22966614D01*
X6058670D01*
X6092526Y22932759D01*
Y22831190D01*
Y22932759D01*
X6126381Y22966614D01*
X6160237Y22932759D01*
Y22831190D01*
X6227948Y22763480D02*
Y22966614D01*
X6329516D01*
X6363371Y22932759D01*
Y22865047D01*
X6329516Y22831190D01*
X6227948D01*
X6634217D02*
X6701928D01*
X6668073D01*
Y23034326D01*
X6634217Y23000470D01*
X9212580Y9165991D02*
Y9301414D01*
X9280291Y9369126D01*
X9348003Y9301414D01*
Y9165991D01*
Y9267559D01*
X9212580D01*
X9415714Y9165991D02*
Y9301414D01*
X9449570D01*
X9483426Y9267559D01*
Y9165991D01*
Y9267559D01*
X9517281Y9301414D01*
X9551137Y9267559D01*
Y9165991D01*
X9618848Y9098280D02*
Y9301414D01*
X9720416D01*
X9754271Y9267559D01*
Y9199847D01*
X9720416Y9165991D01*
X9618848D01*
X10025117D02*
X10092828D01*
X10058973D01*
Y9369126D01*
X10025117Y9335270D01*
X10194395D02*
X10228251Y9369126D01*
X10295963D01*
X10329818Y9335270D01*
Y9199847D01*
X10295963Y9165991D01*
X10228251D01*
X10194395Y9199847D01*
Y9335270D01*
X5808980Y7591191D02*
Y7726614D01*
X5876691Y7794326D01*
X5944403Y7726614D01*
Y7591191D01*
Y7692759D01*
X5808980D01*
X6012114Y7591191D02*
Y7726614D01*
X6045970D01*
X6079826Y7692759D01*
Y7591191D01*
Y7692759D01*
X6113681Y7726614D01*
X6147537Y7692759D01*
Y7591191D01*
X6215248Y7523480D02*
Y7726614D01*
X6316816D01*
X6350671Y7692759D01*
Y7625047D01*
X6316816Y7591191D01*
X6215248D01*
X6621517Y7625047D02*
X6655373Y7591191D01*
X6723084D01*
X6756940Y7625047D01*
Y7760470D01*
X6723084Y7794326D01*
X6655373D01*
X6621517Y7760470D01*
Y7726614D01*
X6655373Y7692759D01*
X6756940D01*
X9390380Y12975990D02*
Y13111414D01*
X9458091Y13179126D01*
X9525803Y13111414D01*
Y12975990D01*
Y13077559D01*
X9390380D01*
X9593514Y12975990D02*
Y13111414D01*
X9627370D01*
X9661226Y13077559D01*
Y12975990D01*
Y13077559D01*
X9695081Y13111414D01*
X9728937Y13077559D01*
Y12975990D01*
X9796648Y12908279D02*
Y13111414D01*
X9898216D01*
X9932071Y13077559D01*
Y13009846D01*
X9898216Y12975990D01*
X9796648D01*
X10202917Y13145270D02*
X10236773Y13179126D01*
X10304484D01*
X10338340Y13145270D01*
Y13111414D01*
X10304484Y13077559D01*
X10338340Y13043703D01*
Y13009846D01*
X10304484Y12975990D01*
X10236773D01*
X10202917Y13009846D01*
Y13043703D01*
X10236773Y13077559D01*
X10202917Y13111414D01*
Y13145270D01*
X10236773Y13077559D02*
X10304484D01*
X5808980Y11388491D02*
Y11523914D01*
X5876691Y11591626D01*
X5944403Y11523914D01*
Y11388491D01*
Y11490059D01*
X5808980D01*
X6012114Y11388491D02*
Y11523914D01*
X6045970D01*
X6079826Y11490059D01*
Y11388491D01*
Y11490059D01*
X6113681Y11523914D01*
X6147537Y11490059D01*
Y11388491D01*
X6215248Y11320780D02*
Y11523914D01*
X6316816D01*
X6350671Y11490059D01*
Y11422347D01*
X6316816Y11388491D01*
X6215248D01*
X6621517Y11591626D02*
X6756940D01*
Y11557770D01*
X6621517Y11422347D01*
Y11388491D01*
X5821680Y15211191D02*
Y15346614D01*
X5889391Y15414326D01*
X5957103Y15346614D01*
Y15211191D01*
Y15312759D01*
X5821680D01*
X6024814Y15211191D02*
Y15346614D01*
X6058670D01*
X6092526Y15312759D01*
Y15211191D01*
Y15312759D01*
X6126381Y15346614D01*
X6160237Y15312759D01*
Y15211191D01*
X6227948Y15143480D02*
Y15346614D01*
X6329516D01*
X6363371Y15312759D01*
Y15245047D01*
X6329516Y15211191D01*
X6227948D01*
X6769640Y15414326D02*
X6634217D01*
Y15312759D01*
X6701928Y15346614D01*
X6735784D01*
X6769640Y15312759D01*
Y15245047D01*
X6735784Y15211191D01*
X6668073D01*
X6634217Y15245047D01*
X8374380Y16392291D02*
Y16527715D01*
X8442091Y16595425D01*
X8509803Y16527715D01*
Y16392291D01*
Y16493858D01*
X8374380D01*
X8577514Y16392291D02*
Y16527715D01*
X8611370D01*
X8645226Y16493858D01*
Y16392291D01*
Y16493858D01*
X8679081Y16527715D01*
X8712937Y16493858D01*
Y16392291D01*
X8780648Y16324580D02*
Y16527715D01*
X8882216D01*
X8916071Y16493858D01*
Y16426147D01*
X8882216Y16392291D01*
X8780648D01*
X9322340Y16595425D02*
X9254628Y16561571D01*
X9186917Y16493858D01*
Y16426147D01*
X9220773Y16392291D01*
X9288484D01*
X9322340Y16426147D01*
Y16460004D01*
X9288484Y16493858D01*
X9186917D01*
X5808980Y18919591D02*
Y19055014D01*
X5876691Y19122726D01*
X5944403Y19055014D01*
Y18919591D01*
Y19021159D01*
X5808980D01*
X6012114Y18919591D02*
Y19055014D01*
X6045970D01*
X6079826Y19021159D01*
Y18919591D01*
Y19021159D01*
X6113681Y19055014D01*
X6147537Y19021159D01*
Y18919591D01*
X6215248Y18851880D02*
Y19055014D01*
X6316816D01*
X6350671Y19021159D01*
Y18953447D01*
X6316816Y18919591D01*
X6215248D01*
X6621517Y19088870D02*
X6655373Y19122726D01*
X6723084D01*
X6756940Y19088870D01*
Y19055014D01*
X6723084Y19021159D01*
X6689228D01*
X6723084D01*
X6756940Y18987303D01*
Y18953447D01*
X6723084Y18919591D01*
X6655373D01*
X6621517Y18953447D01*
X9339580Y20595992D02*
Y20731413D01*
X9407291Y20799126D01*
X9475003Y20731413D01*
Y20595992D01*
Y20697559D01*
X9339580D01*
X9542714Y20595992D02*
Y20731413D01*
X9576570D01*
X9610426Y20697559D01*
Y20595992D01*
Y20697559D01*
X9644281Y20731413D01*
X9678137Y20697559D01*
Y20595992D01*
X9745848Y20528281D02*
Y20731413D01*
X9847416D01*
X9881271Y20697559D01*
Y20629848D01*
X9847416Y20595992D01*
X9745848D01*
X10253684D02*
Y20799126D01*
X10152117Y20697559D01*
X10287540D01*
X8882380Y24456792D02*
Y24592213D01*
X8950091Y24659926D01*
X9017803Y24592213D01*
Y24456792D01*
Y24558359D01*
X8882380D01*
X9085514Y24456792D02*
Y24592213D01*
X9119370D01*
X9153226Y24558359D01*
Y24456792D01*
Y24558359D01*
X9187081Y24592213D01*
X9220937Y24558359D01*
Y24456792D01*
X9288648Y24389079D02*
Y24592213D01*
X9390216D01*
X9424071Y24558359D01*
Y24490646D01*
X9390216Y24456792D01*
X9288648D01*
X9830340D02*
X9694917D01*
X9830340Y24592213D01*
Y24626070D01*
X9796484Y24659926D01*
X9728773D01*
X9694917Y24626070D01*
X3480603Y23008958D02*
X3446747Y23042815D01*
X3379036D01*
X3345180Y23008958D01*
Y22975104D01*
X3379036Y22941248D01*
X3446747D01*
X3480603Y22907391D01*
Y22873537D01*
X3446747Y22839680D01*
X3379036D01*
X3345180Y22873537D01*
X3582170Y22839680D02*
X3649881D01*
X3683737Y22873537D01*
Y22941248D01*
X3649881Y22975104D01*
X3582170D01*
X3548314Y22941248D01*
Y22873537D01*
X3582170Y22839680D01*
X3751448Y22975104D02*
Y22873537D01*
X3785304Y22839680D01*
X3886871D01*
Y22975104D01*
X3954583D02*
Y22839680D01*
Y22907391D01*
X3988438Y22941248D01*
X4022294Y22975104D01*
X4056150D01*
X4293140D02*
X4191573D01*
X4157717Y22941248D01*
Y22873537D01*
X4191573Y22839680D01*
X4293140D01*
X4462418D02*
X4394707D01*
X4360851Y22873537D01*
Y22941248D01*
X4394707Y22975104D01*
X4462418D01*
X4496274Y22941248D01*
Y22907391D01*
X4360851D01*
X4563985Y22839680D02*
X4665553D01*
X4699408Y22873537D01*
X4665553Y22907391D01*
X4597841D01*
X4563985Y22941248D01*
X4597841Y22975104D01*
X4699408D01*
X3899703Y24190059D02*
X3865847Y24223914D01*
X3798136D01*
X3764280Y24190059D01*
Y24054636D01*
X3798136Y24020779D01*
X3865847D01*
X3899703Y24054636D01*
Y24122346D01*
X3831991D01*
X3967414Y24020779D02*
Y24223914D01*
X4102837Y24020779D01*
Y24223914D01*
X4170548D02*
Y24020779D01*
X4272116D01*
X4305971Y24054636D01*
Y24190059D01*
X4272116Y24223914D01*
X4170548D01*
X3764280Y23385747D02*
X3899703D01*
X3831991Y23453459D02*
Y23318036D01*
X4102837Y23487314D02*
X3967414D01*
Y23385747D01*
X4035126Y23419603D01*
X4068981D01*
X4102837Y23385747D01*
Y23318036D01*
X4068981Y23284180D01*
X4001270D01*
X3967414Y23318036D01*
X4170548Y23487314D02*
Y23351891D01*
X4238260Y23284180D01*
X4305971Y23351891D01*
Y23487314D01*
X3764280Y24884348D02*
X3899703D01*
X3831991Y24952058D02*
Y24816637D01*
X4068981Y24782780D02*
Y24985915D01*
X3967414Y24884348D01*
X4102837D01*
X4170548Y24816637D02*
X4204404Y24782780D01*
X4272116D01*
X4305971Y24816637D01*
Y24952058D01*
X4272116Y24985915D01*
X4204404D01*
X4170548Y24952058D01*
Y24918204D01*
X4204404Y24884348D01*
X4305971D01*
X4373683Y24985915D02*
Y24850491D01*
X4441394Y24782780D01*
X4509106Y24850491D01*
Y24985915D01*
D67*
X7470140Y4557497D02*
X7639419D01*
Y4515178D01*
X7470140Y4345899D01*
Y4303579D01*
X7639419D01*
X7724058D02*
X7808697D01*
X7766378D01*
Y4472858D01*
X7724058D01*
X7935656Y4218940D02*
X7977976D01*
X8020296Y4261260D01*
Y4472858D01*
X8189574D02*
Y4345899D01*
X8231894Y4303579D01*
X8358853D01*
Y4472858D01*
X8570451Y4303579D02*
X8485812D01*
X8443492Y4345899D01*
Y4430538D01*
X8485812Y4472858D01*
X8570451D01*
X8612771Y4430538D01*
Y4388219D01*
X8443492D01*
X8951328Y4557497D02*
Y4303579D01*
X9120607D01*
X9205246Y4472858D02*
Y4345899D01*
X9247566Y4303579D01*
X9374525D01*
Y4472858D01*
X9501484Y4303579D02*
X9586123D01*
X9628443Y4345899D01*
Y4430538D01*
X9586123Y4472858D01*
X9501484D01*
X9459164Y4430538D01*
Y4345899D01*
X9501484Y4303579D01*
X10093959Y4388219D02*
Y4430538D01*
X10051639D01*
Y4388219D01*
X10093959D01*
X10136278Y4430538D01*
Y4515178D01*
X10093959Y4557497D01*
X10009320D01*
X9967000Y4515178D01*
Y4345899D01*
X10009320Y4303579D01*
X10136278D01*
X10220918Y4557497D02*
Y4345899D01*
X10263238Y4303579D01*
X10347877D01*
X10390196Y4345899D01*
Y4557497D01*
X10644114Y4515178D02*
X10601795Y4557497D01*
X10517155D01*
X10474836Y4515178D01*
Y4345899D01*
X10517155Y4303579D01*
X10601795D01*
X10644114Y4345899D01*
X10728754Y4303579D02*
Y4557497D01*
X10855713D01*
X10898032Y4515178D01*
Y4430538D01*
X10855713Y4388219D01*
X10728754D01*
X10813393D02*
X10898032Y4303579D01*
X11405868D02*
X11236590D01*
X11405868Y4472858D01*
Y4515178D01*
X11363549Y4557497D01*
X11278909D01*
X11236590Y4515178D01*
X11490508D02*
X11532827Y4557497D01*
X11617466D01*
X11659786Y4515178D01*
Y4345899D01*
X11617466Y4303579D01*
X11532827D01*
X11490508Y4345899D01*
Y4515178D01*
X11913704Y4303579D02*
X11744426D01*
X11913704Y4472858D01*
Y4515178D01*
X11871384Y4557497D01*
X11786745D01*
X11744426Y4515178D01*
X12167622Y4557497D02*
X11998344D01*
Y4430538D01*
X12082983Y4472858D01*
X12125302D01*
X12167622Y4430538D01*
Y4345899D01*
X12125302Y4303579D01*
X12040663D01*
X11998344Y4345899D01*
X12252261Y4303579D02*
X12421540Y4472858D01*
X12506179Y4515178D02*
X12548499Y4557497D01*
X12633138D01*
X12675458Y4515178D01*
Y4345899D01*
X12633138Y4303579D01*
X12548499D01*
X12506179Y4345899D01*
Y4515178D01*
X12887056Y4303579D02*
Y4557497D01*
X12760097Y4430538D01*
X12929376D01*
X13014015Y4303579D02*
X13183295Y4472858D01*
X13437212Y4303579D02*
X13267934D01*
X13437212Y4472858D01*
Y4515178D01*
X13394891Y4557497D01*
X13310252D01*
X13267934Y4515178D01*
X13648810Y4303579D02*
Y4557497D01*
X13521851Y4430538D01*
X13691130D01*
X4231599Y25918979D02*
X4146960D01*
X4104640Y25961298D01*
Y26045938D01*
X4146960Y26088257D01*
X4231599D01*
X4273919Y26045938D01*
Y26003619D01*
X4104640D01*
X4358558Y26045938D02*
X4527837D01*
X4612476Y26172897D02*
X4781754D01*
X4697115D01*
Y25918979D01*
X4866394Y26088257D02*
Y25918979D01*
Y26003619D01*
X4908714Y26045938D01*
X4951033Y26088257D01*
X4993353D01*
X5162632D02*
X5247271D01*
X5289590Y26045938D01*
Y25918979D01*
X5162632D01*
X5120312Y25961298D01*
X5162632Y26003619D01*
X5289590D01*
X5374230Y25834341D02*
Y26088257D01*
X5501189D01*
X5543508Y26045938D01*
Y25961298D01*
X5501189Y25918979D01*
X5374230D01*
X6051344Y26130579D02*
X6009025Y26172897D01*
X5924385D01*
X5882066Y26130579D01*
Y26088257D01*
X5924385Y26045938D01*
X6009025D01*
X6051344Y26003619D01*
Y25961298D01*
X6009025Y25918979D01*
X5924385D01*
X5882066Y25961298D01*
X6135984Y26088257D02*
Y25961298D01*
X6178303Y25918979D01*
X6305262D01*
Y26088257D01*
X6389902Y25834341D02*
Y26088257D01*
X6516860D01*
X6559180Y26045938D01*
Y25961298D01*
X6516860Y25918979D01*
X6389902D01*
X6643820Y25834341D02*
Y26088257D01*
X6770778D01*
X6813098Y26045938D01*
Y25961298D01*
X6770778Y25918979D01*
X6643820D01*
X6897738D02*
X6982377D01*
X6940057D01*
Y26172897D01*
X6897738D01*
X7109336Y26088257D02*
Y25961298D01*
X7151655Y25918979D01*
X7278614D01*
Y25876660D01*
X7236295Y25834341D01*
X7193975D01*
X7278614Y25918979D02*
Y26088257D01*
X7617172Y26172897D02*
Y25918979D01*
X7744131D01*
X7786450Y25961298D01*
Y26003619D01*
X7744131Y26045938D01*
X7617172D01*
X7744131D01*
X7786450Y26088257D01*
Y26130579D01*
X7744131Y26172897D01*
X7617172D01*
X7913409Y25918979D02*
X7998049D01*
X8040368Y25961298D01*
Y26045938D01*
X7998049Y26088257D01*
X7913409D01*
X7871090Y26045938D01*
Y25961298D01*
X7913409Y25918979D01*
X8125008Y26088257D02*
X8294286Y25918979D01*
X8209647Y26003619D01*
X8294286Y26088257D01*
X8125008Y25918979D01*
X8717483D02*
X8632844Y26003619D01*
Y26088257D01*
X8717483Y26172897D01*
X8844442Y26088257D02*
X8929081Y25918979D01*
X9013720Y26088257D01*
X9225319Y25918979D02*
Y26172897D01*
X9098360Y26045938D01*
X9267638D01*
X9352278Y25918979D02*
X9436917Y26003619D01*
Y26088257D01*
X9352278Y26172897D01*
D68*
X15590520Y19537680D02*
X15742871D01*
Y19461505D01*
X15717479Y19436113D01*
X15666695D01*
X15641302Y19461505D01*
Y19537680D01*
Y19486897D02*
X15590520Y19436113D01*
X15742871Y19283762D02*
Y19385329D01*
X15666695D01*
Y19334546D01*
Y19385329D01*
X15590520D01*
X15666695Y19232979D02*
Y19131412D01*
X15717479Y19182195D02*
X15615912D01*
X15742871Y19080627D02*
X15590520D01*
Y19004453D01*
X15615912Y18979060D01*
X15717479D01*
X15742871Y19004453D01*
Y19080627D01*
X15717479Y18826711D02*
X15742871Y18852103D01*
Y18902885D01*
X15717479Y18928278D01*
X15615912D01*
X15590520Y18902885D01*
Y18852103D01*
X15615912Y18826711D01*
X15590520Y20807680D02*
X15742871D01*
Y20731505D01*
X15717479Y20706113D01*
X15666695D01*
X15641302Y20731505D01*
Y20807680D01*
Y20756897D02*
X15590520Y20706113D01*
X15742871Y20553761D02*
Y20655328D01*
X15666695D01*
Y20604546D01*
Y20655328D01*
X15590520D01*
X14942770Y19436079D02*
X14790421D01*
Y19359904D01*
X14815813Y19334512D01*
X14917380D01*
X14942770Y19359904D01*
Y19436079D01*
X14917380Y19182162D02*
X14942770Y19207555D01*
Y19258337D01*
X14917380Y19283730D01*
X14815813D01*
X14790421Y19258337D01*
Y19207555D01*
X14815813Y19182162D01*
X19908519Y19029681D02*
X20060870D01*
Y18953505D01*
X20035478Y18928113D01*
X19984695D01*
X19959303Y18953505D01*
Y19029681D01*
Y18978897D02*
X19908519Y18928113D01*
X20060870Y18775763D02*
Y18877330D01*
X19984695D01*
Y18826546D01*
Y18877330D01*
X19908519D01*
X19984695Y18724979D02*
Y18623412D01*
X20035478Y18674196D02*
X19933911D01*
X20060870Y18572627D02*
X19908519D01*
Y18496452D01*
X19933911Y18471062D01*
X20035478D01*
X20060870Y18496452D01*
Y18572627D01*
X20035478Y18318710D02*
X20060870Y18344102D01*
Y18394885D01*
X20035478Y18420277D01*
X19933911D01*
X19908519Y18394885D01*
Y18344102D01*
X19933911Y18318710D01*
X19908521Y20299680D02*
X20060870D01*
Y20223505D01*
X20035480Y20198112D01*
X19984695D01*
X19959303Y20223505D01*
Y20299680D01*
Y20248895D02*
X19908521Y20198112D01*
X20060870Y20045763D02*
Y20147330D01*
X19984695D01*
Y20096545D01*
Y20147330D01*
X19908521D01*
X19260771Y18928081D02*
X19108420D01*
Y18851904D01*
X19133812Y18826514D01*
X19235379D01*
X19260771Y18851904D01*
Y18928081D01*
X19235379Y18674162D02*
X19260771Y18699554D01*
Y18750337D01*
X19235379Y18775729D01*
X19133812D01*
X19108420Y18750337D01*
Y18699554D01*
X19133812Y18674162D01*
X17749519Y18521681D02*
X17901871D01*
Y18445505D01*
X17876479Y18420113D01*
X17825694D01*
X17800304Y18445505D01*
Y18521681D01*
Y18470897D02*
X17749519Y18420113D01*
X17901871Y18267763D02*
Y18369330D01*
X17825694D01*
Y18318546D01*
Y18369330D01*
X17749519D01*
X17825694Y18216978D02*
Y18115411D01*
X17876479Y18166196D02*
X17774911D01*
X17901871Y18064629D02*
X17749519D01*
Y17988454D01*
X17774911Y17963062D01*
X17876479D01*
X17901871Y17988454D01*
Y18064629D01*
X17876479Y17810710D02*
X17901871Y17836102D01*
Y17886887D01*
X17876479Y17912279D01*
X17774911D01*
X17749519Y17886887D01*
Y17836102D01*
X17774911Y17810710D01*
X17749521Y19791679D02*
X17901871D01*
Y19715504D01*
X17876479Y19690112D01*
X17825696D01*
X17800304Y19715504D01*
Y19791679D01*
Y19740897D02*
X17749521Y19690112D01*
X17901871Y19537762D02*
Y19639330D01*
X17825696D01*
Y19588545D01*
Y19639330D01*
X17749521D01*
X17101772Y18420081D02*
X16949420D01*
Y18343906D01*
X16974812Y18318513D01*
X17076379D01*
X17101772Y18343906D01*
Y18420081D01*
X17076379Y18166162D02*
X17101772Y18191554D01*
Y18242337D01*
X17076379Y18267729D01*
X16974812D01*
X16949420Y18242337D01*
Y18191554D01*
X16974812Y18166162D01*
X11857601Y25082478D02*
Y24976680D01*
X11878761Y24955521D01*
X11921080D01*
X11942240Y24976680D01*
Y25082478D01*
X11984560Y25019000D02*
X12069199D01*
X5774301Y6642079D02*
Y6536280D01*
X5795461Y6515121D01*
X5837780D01*
X5858940Y6536280D01*
Y6642079D01*
X5901260Y6578600D02*
X5985899D01*
X5943579Y6620920D02*
Y6536280D01*
X6879221Y6451621D02*
Y6578579D01*
X6942701D01*
X6963861Y6557420D01*
Y6515100D01*
X6942701Y6493940D01*
X6879221D01*
X6921541D02*
X6963861Y6451621D01*
X7006180Y6557420D02*
X7027340Y6578579D01*
X7069660D01*
X7090820Y6557420D01*
Y6536260D01*
X7069660Y6515100D01*
X7048500D01*
X7069660D01*
X7090820Y6493940D01*
Y6472780D01*
X7069660Y6451621D01*
X7027340D01*
X7006180Y6472780D01*
X7133139Y6515100D02*
X7217779D01*
X7175459Y6557420D02*
Y6472780D01*
X6828421Y5664221D02*
Y5791179D01*
X6891901D01*
X6913061Y5770020D01*
Y5727700D01*
X6891901Y5706540D01*
X6828421D01*
X6870741D02*
X6913061Y5664221D01*
X7040020D02*
X6955380D01*
X7040020Y5748860D01*
Y5770020D01*
X7018860Y5791179D01*
X6976540D01*
X6955380Y5770020D01*
X7082339Y5727700D02*
X7166979D01*
X7124659Y5770020D02*
Y5685380D01*
X6331001Y5461021D02*
Y5587979D01*
X6394481D01*
X6415641Y5566820D01*
Y5524500D01*
X6394481Y5503340D01*
X6331001D01*
X6373321D02*
X6415641Y5461021D01*
X6457960D02*
X6500280D01*
X6479120D01*
Y5587979D01*
X6457960Y5566820D01*
X6563759Y5524500D02*
X6648399D01*
X6606079Y5566820D02*
Y5482180D01*
X11305182Y26305920D02*
X11284022Y26327078D01*
X11241702D01*
X11220542Y26305920D01*
Y26221280D01*
X11241702Y26200122D01*
X11284022D01*
X11305182Y26221280D01*
X11368661Y26200122D02*
X11410981D01*
X11432141Y26221280D01*
Y26263599D01*
X11410981Y26284760D01*
X11368661D01*
X11347501Y26263599D01*
Y26221280D01*
X11368661Y26200122D01*
X11474460Y26284760D02*
Y26221280D01*
X11495620Y26200122D01*
X11559100D01*
Y26284760D01*
X11622579Y26305920D02*
Y26284760D01*
X11601419D01*
X11643739D01*
X11622579D01*
Y26221280D01*
X11643739Y26200122D01*
X11707218Y26263599D02*
X11791858D01*
X11965561Y25315320D02*
X11944401Y25336479D01*
X11902082D01*
X11880922Y25315320D01*
Y25230679D01*
X11902082Y25209521D01*
X11944401D01*
X11965561Y25230679D01*
X12007881Y25209521D02*
X12050200D01*
X12029040D01*
Y25294160D01*
X12007881D01*
X12113680Y25209521D02*
Y25294160D01*
X12177159D01*
X12198319Y25273000D01*
Y25209521D01*
X12240639Y25273000D02*
X12325278D01*
X6402961Y6595520D02*
X6381801Y6616679D01*
X6339482D01*
X6318322Y6595520D01*
Y6510880D01*
X6339482Y6489721D01*
X6381801D01*
X6402961Y6510880D01*
X6445281Y6489721D02*
X6487600D01*
X6466440D01*
Y6574360D01*
X6445281D01*
X6551080Y6489721D02*
Y6574360D01*
X6614559D01*
X6635719Y6553200D01*
Y6489721D01*
X6678039Y6553200D02*
X6762678D01*
X6720358Y6595520D02*
Y6510880D01*
X12069302Y24320480D02*
X12048142Y24341640D01*
X12005822D01*
X11984663Y24320480D01*
Y24235840D01*
X12005822Y24214680D01*
X12048142D01*
X12069302Y24235840D01*
X12132781Y24299319D02*
X12175101D01*
X12196261Y24278160D01*
Y24214680D01*
X12132781D01*
X12111621Y24235840D01*
X12132781Y24257001D01*
X12196261D01*
X12323220Y24341640D02*
Y24214680D01*
X12259740D01*
X12238580Y24235840D01*
Y24278160D01*
X12259740Y24299319D01*
X12323220D01*
X12365539Y24172362D02*
X12386699D01*
X12407859Y24193521D01*
Y24299319D01*
X12492498Y24278160D02*
X12577137D01*
X6760702Y4864080D02*
X6739542Y4885239D01*
X6697222D01*
X6676063Y4864080D01*
Y4779440D01*
X6697222Y4758281D01*
X6739542D01*
X6760702Y4779440D01*
X6824181Y4842920D02*
X6866501D01*
X6887661Y4821760D01*
Y4758281D01*
X6824181D01*
X6803021Y4779440D01*
X6824181Y4800600D01*
X6887661D01*
X7014620Y4885239D02*
Y4758281D01*
X6951140D01*
X6929980Y4779440D01*
Y4821760D01*
X6951140Y4842920D01*
X7014620D01*
X7056939Y4715961D02*
X7078099D01*
X7099259Y4737121D01*
Y4842920D01*
X7183898Y4821760D02*
X7268537D01*
X7226218Y4864080D02*
Y4779440D01*
X8553501Y8432779D02*
Y8326980D01*
X8574661Y8305821D01*
X8616981D01*
X8638141Y8326980D01*
Y8432779D01*
X8680460Y8305821D02*
X8722780D01*
X8701620D01*
Y8432779D01*
X8680460Y8411620D01*
X8786259D02*
X8807419Y8432779D01*
X8849739D01*
X8870899Y8411620D01*
Y8326980D01*
X8849739Y8305821D01*
X8807419D01*
X8786259Y8326980D01*
Y8411620D01*
X6841101Y9715479D02*
Y9609680D01*
X6862261Y9588521D01*
X6904580D01*
X6925740Y9609680D01*
Y9715479D01*
X6968060Y9609680D02*
X6989219Y9588521D01*
X7031539D01*
X7052699Y9609680D01*
Y9694320D01*
X7031539Y9715479D01*
X6989219D01*
X6968060Y9694320D01*
Y9673160D01*
X6989219Y9652000D01*
X7052699D01*
X8619101Y12255479D02*
Y12149680D01*
X8640261Y12128521D01*
X8682580D01*
X8703740Y12149680D01*
Y12255479D01*
X8746060Y12234320D02*
X8767219Y12255479D01*
X8809539D01*
X8830699Y12234320D01*
Y12213160D01*
X8809539Y12192000D01*
X8830699Y12170840D01*
Y12149680D01*
X8809539Y12128521D01*
X8767219D01*
X8746060Y12149680D01*
Y12170840D01*
X8767219Y12192000D01*
X8746060Y12213160D01*
Y12234320D01*
X8767219Y12192000D02*
X8809539D01*
X6828401Y13538179D02*
Y13432381D01*
X6849561Y13411221D01*
X6891880D01*
X6913040Y13432381D01*
Y13538179D01*
X6955360D02*
X7039999D01*
Y13517020D01*
X6955360Y13432381D01*
Y13411221D01*
X8619101Y16065479D02*
Y15959680D01*
X8640261Y15938521D01*
X8682580D01*
X8703740Y15959680D01*
Y16065479D01*
X8830699D02*
X8788379Y16044321D01*
X8746060Y16002000D01*
Y15959680D01*
X8767219Y15938521D01*
X8809539D01*
X8830699Y15959680D01*
Y15980840D01*
X8809539Y16002000D01*
X8746060D01*
X6841101Y17335480D02*
Y17229680D01*
X6862261Y17208521D01*
X6904580D01*
X6925740Y17229680D01*
Y17335480D01*
X7052699D02*
X6968060D01*
Y17272000D01*
X7010379Y17293159D01*
X7031539D01*
X7052699Y17272000D01*
Y17229680D01*
X7031539Y17208521D01*
X6989219D01*
X6968060Y17229680D01*
X8619101Y19875479D02*
Y19769679D01*
X8640261Y19748521D01*
X8682580D01*
X8703740Y19769679D01*
Y19875479D01*
X8809539Y19748521D02*
Y19875479D01*
X8746060Y19812000D01*
X8830699D01*
X6853801Y21145479D02*
Y21039680D01*
X6874961Y21018521D01*
X6917280D01*
X6938440Y21039680D01*
Y21145479D01*
X6980760Y21124319D02*
X7001919Y21145479D01*
X7044239D01*
X7065399Y21124319D01*
Y21103160D01*
X7044239Y21082001D01*
X7023079D01*
X7044239D01*
X7065399Y21060840D01*
Y21039680D01*
X7044239Y21018521D01*
X7001919D01*
X6980760Y21039680D01*
X8619101Y23672778D02*
Y23566980D01*
X8640261Y23545821D01*
X8682580D01*
X8703740Y23566980D01*
Y23672778D01*
X8830699Y23545821D02*
X8746060D01*
X8830699Y23630460D01*
Y23651620D01*
X8809539Y23672778D01*
X8767219D01*
X8746060Y23651620D01*
X6874961Y24968179D02*
Y24862379D01*
X6896121Y24841222D01*
X6938440D01*
X6959600Y24862379D01*
Y24968179D01*
X7001920Y24841222D02*
X7044239D01*
X7023079D01*
Y24968179D01*
X7001920Y24947020D01*
X7816922Y7818981D02*
Y7945939D01*
X7880401D01*
X7901561Y7924780D01*
Y7882460D01*
X7880401Y7861300D01*
X7816922D01*
X7859242D02*
X7901561Y7818981D01*
X7986200Y7776661D02*
X8007360D01*
X8028520Y7797821D01*
Y7903620D01*
X7965040D01*
X7943881Y7882460D01*
Y7840140D01*
X7965040Y7818981D01*
X8028520D01*
X8070840D02*
X8113159D01*
X8091999D01*
Y7945939D01*
X8070840Y7924780D01*
X8176639D02*
X8197798Y7945939D01*
X8240118D01*
X8261278Y7924780D01*
Y7840140D01*
X8240118Y7818981D01*
X8197798D01*
X8176639Y7840140D01*
Y7924780D01*
X6091821Y9088981D02*
Y9215939D01*
X6155301D01*
X6176461Y9194780D01*
Y9152460D01*
X6155301Y9131300D01*
X6091821D01*
X6134141D02*
X6176461Y9088981D01*
X6261100Y9046661D02*
X6282260D01*
X6303420Y9067821D01*
Y9173620D01*
X6239940D01*
X6218780Y9152460D01*
Y9110140D01*
X6239940Y9088981D01*
X6303420D01*
X6345739Y9110140D02*
X6366899Y9088981D01*
X6409219D01*
X6430379Y9110140D01*
Y9194780D01*
X6409219Y9215939D01*
X6366899D01*
X6345739Y9194780D01*
Y9173620D01*
X6366899Y9152460D01*
X6430379D01*
X7895221Y11616281D02*
Y11743239D01*
X7958701D01*
X7979861Y11722080D01*
Y11679760D01*
X7958701Y11658600D01*
X7895221D01*
X7937541D02*
X7979861Y11616281D01*
X8064500Y11573961D02*
X8085660D01*
X8106820Y11595121D01*
Y11700920D01*
X8043340D01*
X8022180Y11679760D01*
Y11637440D01*
X8043340Y11616281D01*
X8106820D01*
X8149139Y11722080D02*
X8170299Y11743239D01*
X8212619D01*
X8233779Y11722080D01*
Y11700920D01*
X8212619Y11679760D01*
X8233779Y11658600D01*
Y11637440D01*
X8212619Y11616281D01*
X8170299D01*
X8149139Y11637440D01*
Y11658600D01*
X8170299Y11679760D01*
X8149139Y11700920D01*
Y11722080D01*
X8170299Y11679760D02*
X8212619D01*
X6117221Y12886281D02*
Y13013239D01*
X6180701D01*
X6201861Y12992081D01*
Y12949760D01*
X6180701Y12928600D01*
X6117221D01*
X6159541D02*
X6201861Y12886281D01*
X6286500Y12843961D02*
X6307660D01*
X6328820Y12865121D01*
Y12970920D01*
X6265340D01*
X6244180Y12949760D01*
Y12907440D01*
X6265340Y12886281D01*
X6328820D01*
X6371139Y13013239D02*
X6455779D01*
Y12992081D01*
X6371139Y12907440D01*
Y12886281D01*
X7895221Y15426282D02*
Y15553239D01*
X7958701D01*
X7979861Y15532080D01*
Y15489760D01*
X7958701Y15468600D01*
X7895221D01*
X7937541D02*
X7979861Y15426282D01*
X8064500Y15383961D02*
X8085660D01*
X8106820Y15405121D01*
Y15510921D01*
X8043340D01*
X8022180Y15489760D01*
Y15447440D01*
X8043340Y15426282D01*
X8106820D01*
X8233779Y15553239D02*
X8191459Y15532080D01*
X8149139Y15489760D01*
Y15447440D01*
X8170299Y15426282D01*
X8212619D01*
X8233779Y15447440D01*
Y15468600D01*
X8212619Y15489760D01*
X8149139D01*
X6117221Y16696281D02*
Y16823239D01*
X6180701D01*
X6201861Y16802080D01*
Y16759760D01*
X6180701Y16738600D01*
X6117221D01*
X6159541D02*
X6201861Y16696281D01*
X6286500Y16653961D02*
X6307660D01*
X6328820Y16675121D01*
Y16780920D01*
X6265340D01*
X6244180Y16759760D01*
Y16717439D01*
X6265340Y16696281D01*
X6328820D01*
X6455779Y16823239D02*
X6371139D01*
Y16759760D01*
X6413459Y16780920D01*
X6434619D01*
X6455779Y16759760D01*
Y16717439D01*
X6434619Y16696281D01*
X6392299D01*
X6371139Y16717439D01*
X7895221Y19236281D02*
Y19363239D01*
X7958701D01*
X7979861Y19342081D01*
Y19299760D01*
X7958701Y19278600D01*
X7895221D01*
X7937541D02*
X7979861Y19236281D01*
X8064500Y19193961D02*
X8085660D01*
X8106820Y19215121D01*
Y19320920D01*
X8043340D01*
X8022180Y19299760D01*
Y19257440D01*
X8043340Y19236281D01*
X8106820D01*
X8212619D02*
Y19363239D01*
X8149139Y19299760D01*
X8233779D01*
X6091821Y20506281D02*
Y20633240D01*
X6155301D01*
X6176461Y20612080D01*
Y20569760D01*
X6155301Y20548599D01*
X6091821D01*
X6134141D02*
X6176461Y20506281D01*
X6261100Y20463960D02*
X6282260D01*
X6303420Y20485121D01*
Y20590919D01*
X6239940D01*
X6218780Y20569760D01*
Y20527440D01*
X6239940Y20506281D01*
X6303420D01*
X6345739Y20612080D02*
X6366899Y20633240D01*
X6409219D01*
X6430379Y20612080D01*
Y20590919D01*
X6409219Y20569760D01*
X6388059D01*
X6409219D01*
X6430379Y20548599D01*
Y20527440D01*
X6409219Y20506281D01*
X6366899D01*
X6345739Y20527440D01*
X7869821Y23046281D02*
Y23173239D01*
X7933301D01*
X7954461Y23152080D01*
Y23109760D01*
X7933301Y23088600D01*
X7869821D01*
X7912141D02*
X7954461Y23046281D01*
X8039100Y23003961D02*
X8060260D01*
X8081420Y23025121D01*
Y23130920D01*
X8017940D01*
X7996780Y23109760D01*
Y23067439D01*
X8017940Y23046281D01*
X8081420D01*
X8208379D02*
X8123739D01*
X8208379Y23130920D01*
Y23152080D01*
X8187219Y23173239D01*
X8144899D01*
X8123739Y23152080D01*
X6087581Y24328981D02*
Y24455939D01*
X6151061D01*
X6172221Y24434779D01*
Y24392461D01*
X6151061Y24371300D01*
X6087581D01*
X6129901D02*
X6172221Y24328981D01*
X6256860Y24286661D02*
X6278020D01*
X6299180Y24307822D01*
Y24413620D01*
X6235700D01*
X6214540Y24392461D01*
Y24350140D01*
X6235700Y24328981D01*
X6299180D01*
X6341499D02*
X6383819D01*
X6362659D01*
Y24455939D01*
X6341499Y24434779D01*
X8094202Y8445521D02*
Y8572479D01*
X8157681D01*
X8178841Y8551320D01*
Y8509000D01*
X8157681Y8487840D01*
X8094202D01*
X8136521D02*
X8178841Y8445521D01*
X8242320D02*
Y8551320D01*
Y8509000D01*
X8221161D01*
X8263480D01*
X8242320D01*
Y8551320D01*
X8263480Y8572479D01*
X8326960Y8445521D02*
X8369279D01*
X8348119D01*
Y8572479D01*
X8326960Y8551320D01*
X8432759D02*
X8453919Y8572479D01*
X8496238D01*
X8517398Y8551320D01*
Y8466680D01*
X8496238Y8445521D01*
X8453919D01*
X8432759Y8466680D01*
Y8551320D01*
X6432601Y9715521D02*
Y9842479D01*
X6496081D01*
X6517241Y9821320D01*
Y9779000D01*
X6496081Y9757840D01*
X6432601D01*
X6474921D02*
X6517241Y9715521D01*
X6580720D02*
Y9821320D01*
Y9779000D01*
X6559560D01*
X6601880D01*
X6580720D01*
Y9821320D01*
X6601880Y9842479D01*
X6665359Y9736680D02*
X6686519Y9715521D01*
X6728839D01*
X6749999Y9736680D01*
Y9821320D01*
X6728839Y9842479D01*
X6686519D01*
X6665359Y9821320D01*
Y9800160D01*
X6686519Y9779000D01*
X6749999D01*
X8223301Y12255521D02*
Y12382479D01*
X8286781D01*
X8307941Y12361320D01*
Y12319000D01*
X8286781Y12297840D01*
X8223301D01*
X8265621D02*
X8307941Y12255521D01*
X8371420D02*
Y12361320D01*
Y12319000D01*
X8350260D01*
X8392580D01*
X8371420D01*
Y12361320D01*
X8392580Y12382479D01*
X8456059Y12361320D02*
X8477219Y12382479D01*
X8519539D01*
X8540699Y12361320D01*
Y12340160D01*
X8519539Y12319000D01*
X8540699Y12297840D01*
Y12276680D01*
X8519539Y12255521D01*
X8477219D01*
X8456059Y12276680D01*
Y12297840D01*
X8477219Y12319000D01*
X8456059Y12340160D01*
Y12361320D01*
X8477219Y12319000D02*
X8519539D01*
X6407201Y13538222D02*
Y13665179D01*
X6470681D01*
X6491841Y13644020D01*
Y13601700D01*
X6470681Y13580540D01*
X6407201D01*
X6449521D02*
X6491841Y13538222D01*
X6555320D02*
Y13644020D01*
Y13601700D01*
X6534160D01*
X6576480D01*
X6555320D01*
Y13644020D01*
X6576480Y13665179D01*
X6639959D02*
X6724599D01*
Y13644020D01*
X6639959Y13559380D01*
Y13538222D01*
X8223301Y16065521D02*
Y16192479D01*
X8286781D01*
X8307941Y16171320D01*
Y16128999D01*
X8286781Y16107840D01*
X8223301D01*
X8265621D02*
X8307941Y16065521D01*
X8371420D02*
Y16171320D01*
Y16128999D01*
X8350260D01*
X8392580D01*
X8371420D01*
Y16171320D01*
X8392580Y16192479D01*
X8540699D02*
X8498379Y16171320D01*
X8456059Y16128999D01*
Y16086681D01*
X8477219Y16065521D01*
X8519539D01*
X8540699Y16086681D01*
Y16107840D01*
X8519539Y16128999D01*
X8456059D01*
X6445301Y17335521D02*
Y17462479D01*
X6508781D01*
X6529941Y17441319D01*
Y17399001D01*
X6508781Y17377840D01*
X6445301D01*
X6487621D02*
X6529941Y17335521D01*
X6593420D02*
Y17441319D01*
Y17399001D01*
X6572260D01*
X6614580D01*
X6593420D01*
Y17441319D01*
X6614580Y17462479D01*
X6762699D02*
X6678059D01*
Y17399001D01*
X6720379Y17420160D01*
X6741539D01*
X6762699Y17399001D01*
Y17356680D01*
X6741539Y17335521D01*
X6699219D01*
X6678059Y17356680D01*
X8210601Y19875520D02*
Y20002480D01*
X8274081D01*
X8295241Y19981320D01*
Y19939000D01*
X8274081Y19917841D01*
X8210601D01*
X8252921D02*
X8295241Y19875520D01*
X8358720D02*
Y19981320D01*
Y19939000D01*
X8337560D01*
X8379880D01*
X8358720D01*
Y19981320D01*
X8379880Y20002480D01*
X8506839Y19875520D02*
Y20002480D01*
X8443359Y19939000D01*
X8527999D01*
X6445301Y21145522D02*
Y21272479D01*
X6508781D01*
X6529941Y21251320D01*
Y21209000D01*
X6508781Y21187840D01*
X6445301D01*
X6487621D02*
X6529941Y21145522D01*
X6593420D02*
Y21251320D01*
Y21209000D01*
X6572260D01*
X6614580D01*
X6593420D01*
Y21251320D01*
X6614580Y21272479D01*
X6678059Y21251320D02*
X6699219Y21272479D01*
X6741539D01*
X6762699Y21251320D01*
Y21230161D01*
X6741539Y21209000D01*
X6720379D01*
X6741539D01*
X6762699Y21187840D01*
Y21166679D01*
X6741539Y21145522D01*
X6699219D01*
X6678059Y21166679D01*
X8223301Y23685521D02*
Y23812479D01*
X8286781D01*
X8307941Y23791319D01*
Y23749001D01*
X8286781Y23727840D01*
X8223301D01*
X8265621D02*
X8307941Y23685521D01*
X8371420D02*
Y23791319D01*
Y23749001D01*
X8350260D01*
X8392580D01*
X8371420D01*
Y23791319D01*
X8392580Y23812479D01*
X8540699Y23685521D02*
X8456059D01*
X8540699Y23770160D01*
Y23791319D01*
X8519539Y23812479D01*
X8477219D01*
X8456059Y23791319D01*
X6479161Y24942821D02*
Y25069778D01*
X6542641D01*
X6563801Y25048621D01*
Y25006300D01*
X6542641Y24985139D01*
X6479161D01*
X6521481D02*
X6563801Y24942821D01*
X6627280D02*
Y25048621D01*
Y25006300D01*
X6606120D01*
X6648440D01*
X6627280D01*
Y25048621D01*
X6648440Y25069778D01*
X6711919Y24942821D02*
X6754239D01*
X6733079D01*
Y25069778D01*
X6711919Y25048621D01*
X9112322Y7340621D02*
Y7467579D01*
X9175801D01*
X9196961Y7446420D01*
Y7404100D01*
X9175801Y7382940D01*
X9112322D01*
X9154642D02*
X9196961Y7340621D01*
X9302760D02*
X9260440D01*
X9239281Y7361780D01*
Y7404100D01*
X9260440Y7425260D01*
X9302760D01*
X9323920Y7404100D01*
Y7382940D01*
X9239281D01*
X9366240Y7340621D02*
X9408559D01*
X9387399D01*
Y7467579D01*
X9366240Y7446420D01*
X9472039D02*
X9493198Y7467579D01*
X9535518D01*
X9556678Y7446420D01*
Y7361780D01*
X9535518Y7340621D01*
X9493198D01*
X9472039Y7361780D01*
Y7446420D01*
X7285621Y8585221D02*
Y8712179D01*
X7349101D01*
X7370261Y8691020D01*
Y8648700D01*
X7349101Y8627540D01*
X7285621D01*
X7327941D02*
X7370261Y8585221D01*
X7476060D02*
X7433740D01*
X7412580Y8606380D01*
Y8648700D01*
X7433740Y8669860D01*
X7476060D01*
X7497220Y8648700D01*
Y8627540D01*
X7412580D01*
X7539539Y8606380D02*
X7560699Y8585221D01*
X7603019D01*
X7624179Y8606380D01*
Y8691020D01*
X7603019Y8712179D01*
X7560699D01*
X7539539Y8691020D01*
Y8669860D01*
X7560699Y8648700D01*
X7624179D01*
X9063621Y11125221D02*
Y11252179D01*
X9127101D01*
X9148261Y11231020D01*
Y11188700D01*
X9127101Y11167540D01*
X9063621D01*
X9105941D02*
X9148261Y11125221D01*
X9254060D02*
X9211740D01*
X9190580Y11146380D01*
Y11188700D01*
X9211740Y11209860D01*
X9254060D01*
X9275220Y11188700D01*
Y11167540D01*
X9190580D01*
X9317539Y11231020D02*
X9338699Y11252179D01*
X9381019D01*
X9402179Y11231020D01*
Y11209860D01*
X9381019Y11188700D01*
X9402179Y11167540D01*
Y11146380D01*
X9381019Y11125221D01*
X9338699D01*
X9317539Y11146380D01*
Y11167540D01*
X9338699Y11188700D01*
X9317539Y11209860D01*
Y11231020D01*
X9338699Y11188700D02*
X9381019D01*
X7311021Y12382521D02*
Y12509479D01*
X7374501D01*
X7395661Y12488320D01*
Y12446000D01*
X7374501Y12424840D01*
X7311021D01*
X7353341D02*
X7395661Y12382521D01*
X7501460D02*
X7459140D01*
X7437980Y12403680D01*
Y12446000D01*
X7459140Y12467160D01*
X7501460D01*
X7522620Y12446000D01*
Y12424840D01*
X7437980D01*
X7564939Y12509479D02*
X7649579D01*
Y12488320D01*
X7564939Y12403680D01*
Y12382521D01*
X9063621Y14935220D02*
Y15062180D01*
X9127101D01*
X9148261Y15041020D01*
Y14998700D01*
X9127101Y14977541D01*
X9063621D01*
X9105941D02*
X9148261Y14935220D01*
X9254060D02*
X9211740D01*
X9190580Y14956380D01*
Y14998700D01*
X9211740Y15019859D01*
X9254060D01*
X9275220Y14998700D01*
Y14977541D01*
X9190580D01*
X9402179Y15062180D02*
X9359859Y15041020D01*
X9317539Y14998700D01*
Y14956380D01*
X9338699Y14935220D01*
X9381019D01*
X9402179Y14956380D01*
Y14977541D01*
X9381019Y14998700D01*
X9317539D01*
X7285621Y16205222D02*
Y16332179D01*
X7349101D01*
X7370261Y16311020D01*
Y16268700D01*
X7349101Y16247540D01*
X7285621D01*
X7327941D02*
X7370261Y16205222D01*
X7476060D02*
X7433740D01*
X7412580Y16226379D01*
Y16268700D01*
X7433740Y16289861D01*
X7476060D01*
X7497220Y16268700D01*
Y16247540D01*
X7412580D01*
X7624179Y16332179D02*
X7539539D01*
Y16268700D01*
X7581859Y16289861D01*
X7603019D01*
X7624179Y16268700D01*
Y16226379D01*
X7603019Y16205222D01*
X7560699D01*
X7539539Y16226379D01*
X9063621Y18745221D02*
Y18872179D01*
X9127101D01*
X9148261Y18851019D01*
Y18808701D01*
X9127101Y18787540D01*
X9063621D01*
X9105941D02*
X9148261Y18745221D01*
X9254060D02*
X9211740D01*
X9190580Y18766380D01*
Y18808701D01*
X9211740Y18829860D01*
X9254060D01*
X9275220Y18808701D01*
Y18787540D01*
X9190580D01*
X9381019Y18745221D02*
Y18872179D01*
X9317539Y18808701D01*
X9402179D01*
X7285621Y20002521D02*
Y20129478D01*
X7349101D01*
X7370261Y20108321D01*
Y20066000D01*
X7349101Y20044839D01*
X7285621D01*
X7327941D02*
X7370261Y20002521D01*
X7476060D02*
X7433740D01*
X7412580Y20023680D01*
Y20066000D01*
X7433740Y20087160D01*
X7476060D01*
X7497220Y20066000D01*
Y20044839D01*
X7412580D01*
X7539539Y20108321D02*
X7560699Y20129478D01*
X7603019D01*
X7624179Y20108321D01*
Y20087160D01*
X7603019Y20066000D01*
X7581859D01*
X7603019D01*
X7624179Y20044839D01*
Y20023680D01*
X7603019Y20002521D01*
X7560699D01*
X7539539Y20023680D01*
X9063621Y22555222D02*
Y22682179D01*
X9127101D01*
X9148261Y22661020D01*
Y22618700D01*
X9127101Y22597540D01*
X9063621D01*
X9105941D02*
X9148261Y22555222D01*
X9254060D02*
X9211740D01*
X9190580Y22576379D01*
Y22618700D01*
X9211740Y22639861D01*
X9254060D01*
X9275220Y22618700D01*
Y22597540D01*
X9190580D01*
X9402179Y22555222D02*
X9317539D01*
X9402179Y22639861D01*
Y22661020D01*
X9381019Y22682179D01*
X9338699D01*
X9317539Y22661020D01*
X7281381Y23825221D02*
Y23952179D01*
X7344861D01*
X7366021Y23931020D01*
Y23888699D01*
X7344861Y23867540D01*
X7281381D01*
X7323701D02*
X7366021Y23825221D01*
X7471820D02*
X7429500D01*
X7408340Y23846381D01*
Y23888699D01*
X7429500Y23909860D01*
X7471820D01*
X7492980Y23888699D01*
Y23867540D01*
X7408340D01*
X7535299Y23825221D02*
X7577619D01*
X7556459D01*
Y23952179D01*
X7535299Y23931020D01*
X8841361Y8652920D02*
X8820201Y8674079D01*
X8777882D01*
X8756722Y8652920D01*
Y8568280D01*
X8777882Y8547121D01*
X8820201D01*
X8841361Y8568280D01*
X8947160Y8547121D02*
X8904840D01*
X8883681Y8568280D01*
Y8610600D01*
X8904840Y8631760D01*
X8947160D01*
X8968320Y8610600D01*
Y8589440D01*
X8883681D01*
X9010640Y8547121D02*
X9052959D01*
X9031799D01*
Y8674079D01*
X9010640Y8652920D01*
X9116439D02*
X9137598Y8674079D01*
X9179918D01*
X9201078Y8652920D01*
Y8568280D01*
X9179918Y8547121D01*
X9137598D01*
X9116439Y8568280D01*
Y8652920D01*
X7217861Y9935620D02*
X7196701Y9956779D01*
X7154381D01*
X7133221Y9935620D01*
Y9850980D01*
X7154381Y9829821D01*
X7196701D01*
X7217861Y9850980D01*
X7323660Y9829821D02*
X7281340D01*
X7260180Y9850980D01*
Y9893300D01*
X7281340Y9914460D01*
X7323660D01*
X7344820Y9893300D01*
Y9872140D01*
X7260180D01*
X7387139Y9850980D02*
X7408299Y9829821D01*
X7450619D01*
X7471779Y9850980D01*
Y9935620D01*
X7450619Y9956779D01*
X7408299D01*
X7387139Y9935620D01*
Y9914460D01*
X7408299Y9893300D01*
X7471779D01*
X8995861Y12475620D02*
X8974701Y12496779D01*
X8932381D01*
X8911221Y12475620D01*
Y12390980D01*
X8932381Y12369821D01*
X8974701D01*
X8995861Y12390980D01*
X9101660Y12369821D02*
X9059340D01*
X9038180Y12390980D01*
Y12433300D01*
X9059340Y12454460D01*
X9101660D01*
X9122820Y12433300D01*
Y12412140D01*
X9038180D01*
X9165139Y12475620D02*
X9186299Y12496779D01*
X9228619D01*
X9249779Y12475620D01*
Y12454460D01*
X9228619Y12433300D01*
X9249779Y12412140D01*
Y12390980D01*
X9228619Y12369821D01*
X9186299D01*
X9165139Y12390980D01*
Y12412140D01*
X9186299Y12433300D01*
X9165139Y12454460D01*
Y12475620D01*
X9186299Y12433300D02*
X9228619D01*
X7243261Y13758321D02*
X7222101Y13779478D01*
X7179781D01*
X7158621Y13758321D01*
Y13673680D01*
X7179781Y13652521D01*
X7222101D01*
X7243261Y13673680D01*
X7349060Y13652521D02*
X7306740D01*
X7285580Y13673680D01*
Y13716000D01*
X7306740Y13737160D01*
X7349060D01*
X7370220Y13716000D01*
Y13694839D01*
X7285580D01*
X7412539Y13779478D02*
X7497179D01*
Y13758321D01*
X7412539Y13673680D01*
Y13652521D01*
X8995861Y16285620D02*
X8974701Y16306779D01*
X8932381D01*
X8911221Y16285620D01*
Y16200980D01*
X8932381Y16179820D01*
X8974701D01*
X8995861Y16200980D01*
X9101660Y16179820D02*
X9059340D01*
X9038180Y16200980D01*
Y16243300D01*
X9059340Y16264461D01*
X9101660D01*
X9122820Y16243300D01*
Y16222141D01*
X9038180D01*
X9249779Y16306779D02*
X9207459Y16285620D01*
X9165139Y16243300D01*
Y16200980D01*
X9186299Y16179820D01*
X9228619D01*
X9249779Y16200980D01*
Y16222141D01*
X9228619Y16243300D01*
X9165139D01*
X7217861Y17555620D02*
X7196701Y17576779D01*
X7154381D01*
X7133221Y17555620D01*
Y17470979D01*
X7154381Y17449821D01*
X7196701D01*
X7217861Y17470979D01*
X7323660Y17449821D02*
X7281340D01*
X7260180Y17470979D01*
Y17513300D01*
X7281340Y17534460D01*
X7323660D01*
X7344820Y17513300D01*
Y17492140D01*
X7260180D01*
X7471779Y17576779D02*
X7387139D01*
Y17513300D01*
X7429459Y17534460D01*
X7450619D01*
X7471779Y17513300D01*
Y17470979D01*
X7450619Y17449821D01*
X7408299D01*
X7387139Y17470979D01*
X8995861Y20082919D02*
X8974701Y20104079D01*
X8932381D01*
X8911221Y20082919D01*
Y19998280D01*
X8932381Y19977121D01*
X8974701D01*
X8995861Y19998280D01*
X9101660Y19977121D02*
X9059340D01*
X9038180Y19998280D01*
Y20040601D01*
X9059340Y20061760D01*
X9101660D01*
X9122820Y20040601D01*
Y20019440D01*
X9038180D01*
X9228619Y19977121D02*
Y20104079D01*
X9165139Y20040601D01*
X9249779D01*
X7217861Y21365620D02*
X7196701Y21386778D01*
X7154381D01*
X7133221Y21365620D01*
Y21280980D01*
X7154381Y21259821D01*
X7196701D01*
X7217861Y21280980D01*
X7323660Y21259821D02*
X7281340D01*
X7260180Y21280980D01*
Y21323300D01*
X7281340Y21344460D01*
X7323660D01*
X7344820Y21323300D01*
Y21302139D01*
X7260180D01*
X7387139Y21365620D02*
X7408299Y21386778D01*
X7450619D01*
X7471779Y21365620D01*
Y21344460D01*
X7450619Y21323300D01*
X7429459D01*
X7450619D01*
X7471779Y21302139D01*
Y21280980D01*
X7450619Y21259821D01*
X7408299D01*
X7387139Y21280980D01*
X8995861Y23905620D02*
X8974701Y23926779D01*
X8932381D01*
X8911221Y23905620D01*
Y23820979D01*
X8932381Y23799821D01*
X8974701D01*
X8995861Y23820979D01*
X9101660Y23799821D02*
X9059340D01*
X9038180Y23820979D01*
Y23863300D01*
X9059340Y23884460D01*
X9101660D01*
X9122820Y23863300D01*
Y23842140D01*
X9038180D01*
X9249779Y23799821D02*
X9165139D01*
X9249779Y23884460D01*
Y23905620D01*
X9228619Y23926779D01*
X9186299D01*
X9165139Y23905620D01*
X7213621Y25175620D02*
X7192461Y25196779D01*
X7150141D01*
X7128981Y25175620D01*
Y25090981D01*
X7150141Y25069821D01*
X7192461D01*
X7213621Y25090981D01*
X7319420Y25069821D02*
X7277100D01*
X7255940Y25090981D01*
Y25133299D01*
X7277100Y25154460D01*
X7319420D01*
X7340580Y25133299D01*
Y25112140D01*
X7255940D01*
X7382899Y25069821D02*
X7425219D01*
X7404059D01*
Y25196779D01*
X7382899Y25175620D01*
X7838082Y7636920D02*
X7816922Y7658079D01*
X7774602D01*
X7753442Y7636920D01*
Y7552280D01*
X7774602Y7531121D01*
X7816922D01*
X7838082Y7552280D01*
X7965041Y7658079D02*
Y7531121D01*
X7901561D01*
X7880401Y7552280D01*
Y7594600D01*
X7901561Y7615760D01*
X7965041D01*
X8007360Y7531121D02*
X8049680D01*
X8028520D01*
Y7658079D01*
X8007360Y7636920D01*
X8113159D02*
X8134319Y7658079D01*
X8176639D01*
X8197799Y7636920D01*
Y7552280D01*
X8176639Y7531121D01*
X8134319D01*
X8113159Y7552280D01*
Y7636920D01*
X8303598Y7531121D02*
Y7658079D01*
X8240118Y7594600D01*
X8324758D01*
X7774582Y6913020D02*
X7753422Y6934179D01*
X7711102D01*
X7689942Y6913020D01*
Y6828380D01*
X7711102Y6807221D01*
X7753422D01*
X7774582Y6828380D01*
X7901541Y6934179D02*
Y6807221D01*
X7838061D01*
X7816901Y6828380D01*
Y6870700D01*
X7838061Y6891860D01*
X7901541D01*
X7943860Y6807221D02*
X7986180D01*
X7965020D01*
Y6934179D01*
X7943860Y6913020D01*
X8049659D02*
X8070819Y6934179D01*
X8113139D01*
X8134299Y6913020D01*
Y6828380D01*
X8113139Y6807221D01*
X8070819D01*
X8049659Y6828380D01*
Y6913020D01*
X8176618D02*
X8197778Y6934179D01*
X8240098D01*
X8261258Y6913020D01*
Y6891860D01*
X8240098Y6870700D01*
X8218938D01*
X8240098D01*
X8261258Y6849540D01*
Y6828380D01*
X8240098Y6807221D01*
X8197778D01*
X8176618Y6828380D01*
X9349382Y7941720D02*
X9328222Y7962879D01*
X9285902D01*
X9264742Y7941720D01*
Y7857080D01*
X9285902Y7835921D01*
X9328222D01*
X9349382Y7857080D01*
X9476341Y7962879D02*
Y7835921D01*
X9412861D01*
X9391701Y7857080D01*
Y7899400D01*
X9412861Y7920560D01*
X9476341D01*
X9518660Y7835921D02*
X9560980D01*
X9539820D01*
Y7962879D01*
X9518660Y7941720D01*
X9624459D02*
X9645619Y7962879D01*
X9687939D01*
X9709099Y7941720D01*
Y7857080D01*
X9687939Y7835921D01*
X9645619D01*
X9624459Y7857080D01*
Y7941720D01*
X9836058Y7835921D02*
X9751418D01*
X9836058Y7920560D01*
Y7941720D01*
X9814898Y7962879D01*
X9772578D01*
X9751418Y7941720D01*
X9586442Y8906920D02*
X9565282Y8928079D01*
X9522962D01*
X9501802Y8906920D01*
Y8822280D01*
X9522962Y8801121D01*
X9565282D01*
X9586442Y8822280D01*
X9713401Y8928079D02*
Y8801121D01*
X9649921D01*
X9628761Y8822280D01*
Y8864600D01*
X9649921Y8885760D01*
X9713401D01*
X9755720Y8801121D02*
X9798040D01*
X9776880D01*
Y8928079D01*
X9755720Y8906920D01*
X9861519D02*
X9882679Y8928079D01*
X9924999D01*
X9946159Y8906920D01*
Y8822280D01*
X9924999Y8801121D01*
X9882679D01*
X9861519Y8822280D01*
Y8906920D01*
X9988478Y8801121D02*
X10030798D01*
X10009638D01*
Y8928079D01*
X9988478Y8906920D01*
X6151081Y8957720D02*
X6129921Y8978879D01*
X6087602D01*
X6066442Y8957720D01*
Y8873080D01*
X6087602Y8851921D01*
X6129921D01*
X6151081Y8873080D01*
X6278040Y8978879D02*
Y8851921D01*
X6214561D01*
X6193401Y8873080D01*
Y8915400D01*
X6214561Y8936560D01*
X6278040D01*
X6320360Y8873080D02*
X6341519Y8851921D01*
X6383839D01*
X6404999Y8873080D01*
Y8957720D01*
X6383839Y8978879D01*
X6341519D01*
X6320360Y8957720D01*
Y8936560D01*
X6341519Y8915400D01*
X6404999D01*
X6510798Y8851921D02*
Y8978879D01*
X6447319Y8915400D01*
X6531958D01*
X6087581Y8170320D02*
X6066421Y8191479D01*
X6024102D01*
X6002942Y8170320D01*
Y8085680D01*
X6024102Y8064521D01*
X6066421D01*
X6087581Y8085680D01*
X6214540Y8191479D02*
Y8064521D01*
X6151061D01*
X6129901Y8085680D01*
Y8128000D01*
X6151061Y8149160D01*
X6214540D01*
X6256860Y8085680D02*
X6278019Y8064521D01*
X6320339D01*
X6341499Y8085680D01*
Y8170320D01*
X6320339Y8191479D01*
X6278019D01*
X6256860Y8170320D01*
Y8149160D01*
X6278019Y8128000D01*
X6341499D01*
X6383819Y8170320D02*
X6404978Y8191479D01*
X6447298D01*
X6468458Y8170320D01*
Y8149160D01*
X6447298Y8128000D01*
X6426138D01*
X6447298D01*
X6468458Y8106840D01*
Y8085680D01*
X6447298Y8064521D01*
X6404978D01*
X6383819Y8085680D01*
X7611581Y9224420D02*
X7590421Y9245579D01*
X7548102D01*
X7526942Y9224420D01*
Y9139780D01*
X7548102Y9118621D01*
X7590421D01*
X7611581Y9139780D01*
X7738540Y9245579D02*
Y9118621D01*
X7675061D01*
X7653901Y9139780D01*
Y9182100D01*
X7675061Y9203260D01*
X7738540D01*
X7780860Y9139780D02*
X7802019Y9118621D01*
X7844339D01*
X7865499Y9139780D01*
Y9224420D01*
X7844339Y9245579D01*
X7802019D01*
X7780860Y9224420D01*
Y9203260D01*
X7802019Y9182100D01*
X7865499D01*
X7992458Y9118621D02*
X7907819D01*
X7992458Y9203260D01*
Y9224420D01*
X7971298Y9245579D01*
X7928978D01*
X7907819Y9224420D01*
X7810541Y10176920D02*
X7789381Y10198079D01*
X7747062D01*
X7725902Y10176920D01*
Y10092280D01*
X7747062Y10071121D01*
X7789381D01*
X7810541Y10092280D01*
X7937500Y10198079D02*
Y10071121D01*
X7874021D01*
X7852861Y10092280D01*
Y10134600D01*
X7874021Y10155760D01*
X7937500D01*
X7979820Y10092280D02*
X8000979Y10071121D01*
X8043299D01*
X8064459Y10092280D01*
Y10176920D01*
X8043299Y10198079D01*
X8000979D01*
X7979820Y10176920D01*
Y10155760D01*
X8000979Y10134600D01*
X8064459D01*
X8106779Y10071121D02*
X8149098D01*
X8127938D01*
Y10198079D01*
X8106779Y10176920D01*
X7929081Y11497720D02*
X7907921Y11518879D01*
X7865602D01*
X7844442Y11497720D01*
Y11413080D01*
X7865602Y11391921D01*
X7907921D01*
X7929081Y11413080D01*
X8056040Y11518879D02*
Y11391921D01*
X7992561D01*
X7971401Y11413080D01*
Y11455400D01*
X7992561Y11476560D01*
X8056040D01*
X8098360Y11497720D02*
X8119519Y11518879D01*
X8161839D01*
X8182999Y11497720D01*
Y11476560D01*
X8161839Y11455400D01*
X8182999Y11434240D01*
Y11413080D01*
X8161839Y11391921D01*
X8119519D01*
X8098360Y11413080D01*
Y11434240D01*
X8119519Y11455400D01*
X8098360Y11476560D01*
Y11497720D01*
X8119519Y11455400D02*
X8161839D01*
X8288798Y11391921D02*
Y11518879D01*
X8225319Y11455400D01*
X8309958D01*
X7865581Y10710320D02*
X7844421Y10731479D01*
X7802102D01*
X7780942Y10710320D01*
Y10625680D01*
X7802102Y10604521D01*
X7844421D01*
X7865581Y10625680D01*
X7992540Y10731479D02*
Y10604521D01*
X7929061D01*
X7907901Y10625680D01*
Y10668000D01*
X7929061Y10689160D01*
X7992540D01*
X8034860Y10710320D02*
X8056019Y10731479D01*
X8098339D01*
X8119499Y10710320D01*
Y10689160D01*
X8098339Y10668000D01*
X8119499Y10646840D01*
Y10625680D01*
X8098339Y10604521D01*
X8056019D01*
X8034860Y10625680D01*
Y10646840D01*
X8056019Y10668000D01*
X8034860Y10689160D01*
Y10710320D01*
X8056019Y10668000D02*
X8098339D01*
X8161819Y10710320D02*
X8182978Y10731479D01*
X8225298D01*
X8246458Y10710320D01*
Y10689160D01*
X8225298Y10668000D01*
X8204138D01*
X8225298D01*
X8246458Y10646840D01*
Y10625680D01*
X8225298Y10604521D01*
X8182978D01*
X8161819Y10625680D01*
X9389581Y11764420D02*
X9368421Y11785579D01*
X9326102D01*
X9304942Y11764420D01*
Y11679780D01*
X9326102Y11658621D01*
X9368421D01*
X9389581Y11679780D01*
X9516540Y11785579D02*
Y11658621D01*
X9453061D01*
X9431901Y11679780D01*
Y11722100D01*
X9453061Y11743260D01*
X9516540D01*
X9558860Y11764420D02*
X9580019Y11785579D01*
X9622339D01*
X9643499Y11764420D01*
Y11743260D01*
X9622339Y11722100D01*
X9643499Y11700940D01*
Y11679780D01*
X9622339Y11658621D01*
X9580019D01*
X9558860Y11679780D01*
Y11700940D01*
X9580019Y11722100D01*
X9558860Y11743260D01*
Y11764420D01*
X9580019Y11722100D02*
X9622339D01*
X9770458Y11658621D02*
X9685819D01*
X9770458Y11743260D01*
Y11764420D01*
X9749298Y11785579D01*
X9706978D01*
X9685819Y11764420D01*
X9588541Y12704220D02*
X9567381Y12725379D01*
X9525062D01*
X9503902Y12704220D01*
Y12619580D01*
X9525062Y12598421D01*
X9567381D01*
X9588541Y12619580D01*
X9715500Y12725379D02*
Y12598421D01*
X9652021D01*
X9630861Y12619580D01*
Y12661900D01*
X9652021Y12683060D01*
X9715500D01*
X9757820Y12704220D02*
X9778979Y12725379D01*
X9821299D01*
X9842459Y12704220D01*
Y12683060D01*
X9821299Y12661900D01*
X9842459Y12640740D01*
Y12619580D01*
X9821299Y12598421D01*
X9778979D01*
X9757820Y12619580D01*
Y12640740D01*
X9778979Y12661900D01*
X9757820Y12683060D01*
Y12704220D01*
X9778979Y12661900D02*
X9821299D01*
X9884779Y12598421D02*
X9927098D01*
X9905938D01*
Y12725379D01*
X9884779Y12704220D01*
X6125681Y12742320D02*
X6104521Y12763479D01*
X6062202D01*
X6041042Y12742320D01*
Y12657680D01*
X6062202Y12636521D01*
X6104521D01*
X6125681Y12657680D01*
X6252640Y12763479D02*
Y12636521D01*
X6189161D01*
X6168001Y12657680D01*
Y12700000D01*
X6189161Y12721160D01*
X6252640D01*
X6294960Y12763479D02*
X6379599D01*
Y12742320D01*
X6294960Y12657680D01*
Y12636521D01*
X6485398D02*
Y12763479D01*
X6421919Y12700000D01*
X6506558D01*
X6049481Y12005720D02*
X6028321Y12026879D01*
X5986002D01*
X5964842Y12005720D01*
Y11921080D01*
X5986002Y11899921D01*
X6028321D01*
X6049481Y11921080D01*
X6176440Y12026879D02*
Y11899921D01*
X6112961D01*
X6091801Y11921080D01*
Y11963400D01*
X6112961Y11984560D01*
X6176440D01*
X6218760Y12026879D02*
X6303399D01*
Y12005720D01*
X6218760Y11921080D01*
Y11899921D01*
X6345719Y12005720D02*
X6366878Y12026879D01*
X6409198D01*
X6430358Y12005720D01*
Y11984560D01*
X6409198Y11963400D01*
X6388038D01*
X6409198D01*
X6430358Y11942240D01*
Y11921080D01*
X6409198Y11899921D01*
X6366878D01*
X6345719Y11921080D01*
X7624281Y13021719D02*
X7603121Y13042879D01*
X7560802D01*
X7539642Y13021719D01*
Y12937080D01*
X7560802Y12915921D01*
X7603121D01*
X7624281Y12937080D01*
X7751240Y13042879D02*
Y12915921D01*
X7687761D01*
X7666601Y12937080D01*
Y12979401D01*
X7687761Y13000560D01*
X7751240D01*
X7793560Y13042879D02*
X7878199D01*
Y13021719D01*
X7793560Y12937080D01*
Y12915921D01*
X8005158D02*
X7920519D01*
X8005158Y13000560D01*
Y13021719D01*
X7983998Y13042879D01*
X7941678D01*
X7920519Y13021719D01*
X7861341Y14012320D02*
X7840181Y14033479D01*
X7797862D01*
X7776702Y14012320D01*
Y13927679D01*
X7797862Y13906522D01*
X7840181D01*
X7861341Y13927679D01*
X7988300Y14033479D02*
Y13906522D01*
X7924821D01*
X7903661Y13927679D01*
Y13970000D01*
X7924821Y13991161D01*
X7988300D01*
X8030620Y14033479D02*
X8115259D01*
Y14012320D01*
X8030620Y13927679D01*
Y13906522D01*
X8157579D02*
X8199898D01*
X8178738D01*
Y14033479D01*
X8157579Y14012320D01*
X7941781Y15307719D02*
X7920621Y15328879D01*
X7878302D01*
X7857142Y15307719D01*
Y15223080D01*
X7878302Y15201921D01*
X7920621D01*
X7941781Y15223080D01*
X8068740Y15328879D02*
Y15201921D01*
X8005261D01*
X7984101Y15223080D01*
Y15265401D01*
X8005261Y15286560D01*
X8068740D01*
X8195699Y15328879D02*
X8153379Y15307719D01*
X8111060Y15265401D01*
Y15223080D01*
X8132219Y15201921D01*
X8174539D01*
X8195699Y15223080D01*
Y15244240D01*
X8174539Y15265401D01*
X8111060D01*
X8301498Y15201921D02*
Y15328879D01*
X8238019Y15265401D01*
X8322658D01*
X7865581Y14520320D02*
X7844421Y14541479D01*
X7802102D01*
X7780942Y14520320D01*
Y14435680D01*
X7802102Y14414520D01*
X7844421D01*
X7865581Y14435680D01*
X7992540Y14541479D02*
Y14414520D01*
X7929061D01*
X7907901Y14435680D01*
Y14478000D01*
X7929061Y14499159D01*
X7992540D01*
X8119499Y14541479D02*
X8077179Y14520320D01*
X8034860Y14478000D01*
Y14435680D01*
X8056019Y14414520D01*
X8098339D01*
X8119499Y14435680D01*
Y14456841D01*
X8098339Y14478000D01*
X8034860D01*
X8161819Y14520320D02*
X8182978Y14541479D01*
X8225298D01*
X8246458Y14520320D01*
Y14499159D01*
X8225298Y14478000D01*
X8204138D01*
X8225298D01*
X8246458Y14456841D01*
Y14435680D01*
X8225298Y14414520D01*
X8182978D01*
X8161819Y14435680D01*
X9389581Y15574420D02*
X9368421Y15595580D01*
X9326102D01*
X9304942Y15574420D01*
Y15489780D01*
X9326102Y15468620D01*
X9368421D01*
X9389581Y15489780D01*
X9516540Y15595580D02*
Y15468620D01*
X9453061D01*
X9431901Y15489780D01*
Y15532100D01*
X9453061Y15553259D01*
X9516540D01*
X9643499Y15595580D02*
X9601179Y15574420D01*
X9558860Y15532100D01*
Y15489780D01*
X9580019Y15468620D01*
X9622339D01*
X9643499Y15489780D01*
Y15510941D01*
X9622339Y15532100D01*
X9558860D01*
X9770458Y15468620D02*
X9685819D01*
X9770458Y15553259D01*
Y15574420D01*
X9749298Y15595580D01*
X9706978D01*
X9685819Y15574420D01*
X9588541Y16526920D02*
X9567381Y16548079D01*
X9525062D01*
X9503902Y16526920D01*
Y16442281D01*
X9525062Y16421121D01*
X9567381D01*
X9588541Y16442281D01*
X9715500Y16548079D02*
Y16421121D01*
X9652021D01*
X9630861Y16442281D01*
Y16484599D01*
X9652021Y16505760D01*
X9715500D01*
X9842459Y16548079D02*
X9800139Y16526920D01*
X9757820Y16484599D01*
Y16442281D01*
X9778979Y16421121D01*
X9821299D01*
X9842459Y16442281D01*
Y16463440D01*
X9821299Y16484599D01*
X9757820D01*
X9884779Y16421121D02*
X9927098D01*
X9905938D01*
Y16548079D01*
X9884779Y16526920D01*
X6151081Y16577721D02*
X6129921Y16598878D01*
X6087602D01*
X6066442Y16577721D01*
Y16493080D01*
X6087602Y16471921D01*
X6129921D01*
X6151081Y16493080D01*
X6278040Y16598878D02*
Y16471921D01*
X6214561D01*
X6193401Y16493080D01*
Y16535400D01*
X6214561Y16556560D01*
X6278040D01*
X6404999Y16598878D02*
X6320360D01*
Y16535400D01*
X6362679Y16556560D01*
X6383839D01*
X6404999Y16535400D01*
Y16493080D01*
X6383839Y16471921D01*
X6341519D01*
X6320360Y16493080D01*
X6510798Y16471921D02*
Y16598878D01*
X6447319Y16535400D01*
X6531958D01*
X6087581Y15790320D02*
X6066421Y15811479D01*
X6024102D01*
X6002942Y15790320D01*
Y15705679D01*
X6024102Y15684521D01*
X6066421D01*
X6087581Y15705679D01*
X6214540Y15811479D02*
Y15684521D01*
X6151061D01*
X6129901Y15705679D01*
Y15748000D01*
X6151061Y15769160D01*
X6214540D01*
X6341499Y15811479D02*
X6256860D01*
Y15748000D01*
X6299179Y15769160D01*
X6320339D01*
X6341499Y15748000D01*
Y15705679D01*
X6320339Y15684521D01*
X6278019D01*
X6256860Y15705679D01*
X6383819Y15790320D02*
X6404978Y15811479D01*
X6447298D01*
X6468458Y15790320D01*
Y15769160D01*
X6447298Y15748000D01*
X6426138D01*
X6447298D01*
X6468458Y15726840D01*
Y15705679D01*
X6447298Y15684521D01*
X6404978D01*
X6383819Y15705679D01*
X7611581Y16844420D02*
X7590421Y16865579D01*
X7548102D01*
X7526942Y16844420D01*
Y16759779D01*
X7548102Y16738622D01*
X7590421D01*
X7611581Y16759779D01*
X7738540Y16865579D02*
Y16738622D01*
X7675061D01*
X7653901Y16759779D01*
Y16802100D01*
X7675061Y16823260D01*
X7738540D01*
X7865499Y16865579D02*
X7780860D01*
Y16802100D01*
X7823179Y16823260D01*
X7844339D01*
X7865499Y16802100D01*
Y16759779D01*
X7844339Y16738622D01*
X7802019D01*
X7780860Y16759779D01*
X7992458Y16738622D02*
X7907819D01*
X7992458Y16823260D01*
Y16844420D01*
X7971298Y16865579D01*
X7928978D01*
X7907819Y16844420D01*
X7810541Y17784219D02*
X7789381Y17805379D01*
X7747062D01*
X7725902Y17784219D01*
Y17699580D01*
X7747062Y17678421D01*
X7789381D01*
X7810541Y17699580D01*
X7937500Y17805379D02*
Y17678421D01*
X7874021D01*
X7852861Y17699580D01*
Y17741901D01*
X7874021Y17763060D01*
X7937500D01*
X8064459Y17805379D02*
X7979820D01*
Y17741901D01*
X8022139Y17763060D01*
X8043299D01*
X8064459Y17741901D01*
Y17699580D01*
X8043299Y17678421D01*
X8000979D01*
X7979820Y17699580D01*
X8106779Y17678421D02*
X8149098D01*
X8127938D01*
Y17805379D01*
X8106779Y17784219D01*
X7929081Y19130420D02*
X7907921Y19151579D01*
X7865602D01*
X7844442Y19130420D01*
Y19045779D01*
X7865602Y19024622D01*
X7907921D01*
X7929081Y19045779D01*
X8056040Y19151579D02*
Y19024622D01*
X7992561D01*
X7971401Y19045779D01*
Y19088100D01*
X7992561Y19109261D01*
X8056040D01*
X8161839Y19024622D02*
Y19151579D01*
X8098360Y19088100D01*
X8182999D01*
X8288798Y19024622D02*
Y19151579D01*
X8225319Y19088100D01*
X8309958D01*
X7878281Y18330321D02*
X7857121Y18351479D01*
X7814802D01*
X7793642Y18330321D01*
Y18245680D01*
X7814802Y18224521D01*
X7857121D01*
X7878281Y18245680D01*
X8005240Y18351479D02*
Y18224521D01*
X7941761D01*
X7920601Y18245680D01*
Y18288000D01*
X7941761Y18309160D01*
X8005240D01*
X8111039Y18224521D02*
Y18351479D01*
X8047560Y18288000D01*
X8132199D01*
X8174519Y18330321D02*
X8195678Y18351479D01*
X8237998D01*
X8259158Y18330321D01*
Y18309160D01*
X8237998Y18288000D01*
X8216838D01*
X8237998D01*
X8259158Y18266840D01*
Y18245680D01*
X8237998Y18224521D01*
X8195678D01*
X8174519Y18245680D01*
X9389581Y19384419D02*
X9368421Y19405579D01*
X9326102D01*
X9304942Y19384419D01*
Y19299780D01*
X9326102Y19278621D01*
X9368421D01*
X9389581Y19299780D01*
X9516540Y19405579D02*
Y19278621D01*
X9453061D01*
X9431901Y19299780D01*
Y19342101D01*
X9453061Y19363260D01*
X9516540D01*
X9622339Y19278621D02*
Y19405579D01*
X9558860Y19342101D01*
X9643499D01*
X9770458Y19278621D02*
X9685819D01*
X9770458Y19363260D01*
Y19384419D01*
X9749298Y19405579D01*
X9706978D01*
X9685819Y19384419D01*
X9588541Y20324220D02*
X9567381Y20345380D01*
X9525062D01*
X9503902Y20324220D01*
Y20239580D01*
X9525062Y20218420D01*
X9567381D01*
X9588541Y20239580D01*
X9715500Y20345380D02*
Y20218420D01*
X9652021D01*
X9630861Y20239580D01*
Y20281900D01*
X9652021Y20303059D01*
X9715500D01*
X9821299Y20218420D02*
Y20345380D01*
X9757820Y20281900D01*
X9842459D01*
X9884779Y20218420D02*
X9927098D01*
X9905938D01*
Y20345380D01*
X9884779Y20324220D01*
X6151081Y20387720D02*
X6129921Y20408879D01*
X6087602D01*
X6066442Y20387720D01*
Y20303081D01*
X6087602Y20281921D01*
X6129921D01*
X6151081Y20303081D01*
X6278040Y20408879D02*
Y20281921D01*
X6214561D01*
X6193401Y20303081D01*
Y20345399D01*
X6214561Y20366560D01*
X6278040D01*
X6320360Y20387720D02*
X6341519Y20408879D01*
X6383839D01*
X6404999Y20387720D01*
Y20366560D01*
X6383839Y20345399D01*
X6362679D01*
X6383839D01*
X6404999Y20324240D01*
Y20303081D01*
X6383839Y20281921D01*
X6341519D01*
X6320360Y20303081D01*
X6510798Y20281921D02*
Y20408879D01*
X6447319Y20345399D01*
X6531958D01*
X6100281Y19613020D02*
X6079121Y19634180D01*
X6036802D01*
X6015642Y19613020D01*
Y19528380D01*
X6036802Y19507220D01*
X6079121D01*
X6100281Y19528380D01*
X6227240Y19634180D02*
Y19507220D01*
X6163761D01*
X6142601Y19528380D01*
Y19570700D01*
X6163761Y19591859D01*
X6227240D01*
X6269560Y19613020D02*
X6290719Y19634180D01*
X6333039D01*
X6354199Y19613020D01*
Y19591859D01*
X6333039Y19570700D01*
X6311879D01*
X6333039D01*
X6354199Y19549541D01*
Y19528380D01*
X6333039Y19507220D01*
X6290719D01*
X6269560Y19528380D01*
X6396519Y19613020D02*
X6417678Y19634180D01*
X6459998D01*
X6481158Y19613020D01*
Y19591859D01*
X6459998Y19570700D01*
X6438838D01*
X6459998D01*
X6481158Y19549541D01*
Y19528380D01*
X6459998Y19507220D01*
X6417678D01*
X6396519Y19528380D01*
X7611581Y20667120D02*
X7590421Y20688280D01*
X7548102D01*
X7526942Y20667120D01*
Y20582480D01*
X7548102Y20561320D01*
X7590421D01*
X7611581Y20582480D01*
X7738540Y20688280D02*
Y20561320D01*
X7675061D01*
X7653901Y20582480D01*
Y20624800D01*
X7675061Y20645959D01*
X7738540D01*
X7780860Y20667120D02*
X7802019Y20688280D01*
X7844339D01*
X7865499Y20667120D01*
Y20645959D01*
X7844339Y20624800D01*
X7823179D01*
X7844339D01*
X7865499Y20603641D01*
Y20582480D01*
X7844339Y20561320D01*
X7802019D01*
X7780860Y20582480D01*
X7992458Y20561320D02*
X7907819D01*
X7992458Y20645959D01*
Y20667120D01*
X7971298Y20688280D01*
X7928978D01*
X7907819Y20667120D01*
X7810541Y21594220D02*
X7789381Y21615379D01*
X7747062D01*
X7725902Y21594220D01*
Y21509579D01*
X7747062Y21488422D01*
X7789381D01*
X7810541Y21509579D01*
X7937500Y21615379D02*
Y21488422D01*
X7874021D01*
X7852861Y21509579D01*
Y21551900D01*
X7874021Y21573061D01*
X7937500D01*
X7979820Y21594220D02*
X8000979Y21615379D01*
X8043299D01*
X8064459Y21594220D01*
Y21573061D01*
X8043299Y21551900D01*
X8022139D01*
X8043299D01*
X8064459Y21530740D01*
Y21509579D01*
X8043299Y21488422D01*
X8000979D01*
X7979820Y21509579D01*
X8106779Y21488422D02*
X8149098D01*
X8127938D01*
Y21615379D01*
X8106779Y21594220D01*
X7941781Y22940421D02*
X7920621Y22961578D01*
X7878302D01*
X7857142Y22940421D01*
Y22855780D01*
X7878302Y22834621D01*
X7920621D01*
X7941781Y22855780D01*
X8068740Y22961578D02*
Y22834621D01*
X8005261D01*
X7984101Y22855780D01*
Y22898100D01*
X8005261Y22919260D01*
X8068740D01*
X8195699Y22834621D02*
X8111060D01*
X8195699Y22919260D01*
Y22940421D01*
X8174539Y22961578D01*
X8132219D01*
X8111060Y22940421D01*
X8301498Y22834621D02*
Y22961578D01*
X8238019Y22898100D01*
X8322658D01*
X7878281Y22153020D02*
X7857121Y22174179D01*
X7814802D01*
X7793642Y22153020D01*
Y22068381D01*
X7814802Y22047221D01*
X7857121D01*
X7878281Y22068381D01*
X8005240Y22174179D02*
Y22047221D01*
X7941761D01*
X7920601Y22068381D01*
Y22110699D01*
X7941761Y22131860D01*
X8005240D01*
X8132199Y22047221D02*
X8047560D01*
X8132199Y22131860D01*
Y22153020D01*
X8111039Y22174179D01*
X8068719D01*
X8047560Y22153020D01*
X8174519D02*
X8195678Y22174179D01*
X8237998D01*
X8259158Y22153020D01*
Y22131860D01*
X8237998Y22110699D01*
X8216838D01*
X8237998D01*
X8259158Y22089540D01*
Y22068381D01*
X8237998Y22047221D01*
X8195678D01*
X8174519Y22068381D01*
X9376881Y23194420D02*
X9355721Y23215579D01*
X9313402D01*
X9292242Y23194420D01*
Y23109779D01*
X9313402Y23088622D01*
X9355721D01*
X9376881Y23109779D01*
X9503840Y23215579D02*
Y23088622D01*
X9440361D01*
X9419201Y23109779D01*
Y23152100D01*
X9440361Y23173260D01*
X9503840D01*
X9630799Y23088622D02*
X9546160D01*
X9630799Y23173260D01*
Y23194420D01*
X9609639Y23215579D01*
X9567319D01*
X9546160Y23194420D01*
X9757758Y23088622D02*
X9673119D01*
X9757758Y23173260D01*
Y23194420D01*
X9736598Y23215579D01*
X9694278D01*
X9673119Y23194420D01*
X9601241Y24134219D02*
X9580081Y24155379D01*
X9537762D01*
X9516602Y24134219D01*
Y24049580D01*
X9537762Y24028421D01*
X9580081D01*
X9601241Y24049580D01*
X9728200Y24155379D02*
Y24028421D01*
X9664721D01*
X9643561Y24049580D01*
Y24091901D01*
X9664721Y24113060D01*
X9728200D01*
X9855159Y24028421D02*
X9770520D01*
X9855159Y24113060D01*
Y24134219D01*
X9833999Y24155379D01*
X9791679D01*
X9770520Y24134219D01*
X9897479Y24028421D02*
X9939798D01*
X9918638D01*
Y24155379D01*
X9897479Y24134219D01*
X6187061Y24197720D02*
X6165901Y24218880D01*
X6123582D01*
X6102422Y24197720D01*
Y24113080D01*
X6123582Y24091920D01*
X6165901D01*
X6187061Y24113080D01*
X6314020Y24218880D02*
Y24091920D01*
X6250540D01*
X6229381Y24113080D01*
Y24155400D01*
X6250540Y24176559D01*
X6314020D01*
X6356340Y24091920D02*
X6398659D01*
X6377499D01*
Y24218880D01*
X6356340Y24197720D01*
X6525618Y24091920D02*
Y24218880D01*
X6462139Y24155400D01*
X6546778D01*
X6110861Y23410320D02*
X6089701Y23431479D01*
X6047382D01*
X6026222Y23410320D01*
Y23325681D01*
X6047382Y23304521D01*
X6089701D01*
X6110861Y23325681D01*
X6237820Y23431479D02*
Y23304521D01*
X6174340D01*
X6153181Y23325681D01*
Y23367999D01*
X6174340Y23389160D01*
X6237820D01*
X6280140Y23304521D02*
X6322459D01*
X6301299D01*
Y23431479D01*
X6280140Y23410320D01*
X6385939D02*
X6407098Y23431479D01*
X6449418D01*
X6470578Y23410320D01*
Y23389160D01*
X6449418Y23367999D01*
X6428258D01*
X6449418D01*
X6470578Y23346840D01*
Y23325681D01*
X6449418Y23304521D01*
X6407098D01*
X6385939Y23325681D01*
X7609461Y24464420D02*
X7588301Y24485579D01*
X7545982D01*
X7524822Y24464420D01*
Y24379781D01*
X7545982Y24358621D01*
X7588301D01*
X7609461Y24379781D01*
X7736420Y24485579D02*
Y24358621D01*
X7672940D01*
X7651781Y24379781D01*
Y24422099D01*
X7672940Y24443260D01*
X7736420D01*
X7778740Y24358621D02*
X7821059D01*
X7799899D01*
Y24485579D01*
X7778740Y24464420D01*
X7969178Y24358621D02*
X7884539D01*
X7969178Y24443260D01*
Y24464420D01*
X7948018Y24485579D01*
X7905698D01*
X7884539Y24464420D01*
X7808421Y25416920D02*
X7787261Y25438078D01*
X7744942D01*
X7723782Y25416920D01*
Y25332280D01*
X7744942Y25311121D01*
X7787261D01*
X7808421Y25332280D01*
X7935380Y25438078D02*
Y25311121D01*
X7871900D01*
X7850741Y25332280D01*
Y25374600D01*
X7871900Y25395760D01*
X7935380D01*
X7977700Y25311121D02*
X8020019D01*
X7998859D01*
Y25438078D01*
X7977700Y25416920D01*
X8083499Y25311121D02*
X8125818D01*
X8104658D01*
Y25438078D01*
X8083499Y25416920D01*
%TF.MD5,048e4b8b6acc71180d4a3fb62592a755*%
M02*
