%TF.GenerationSoftware,Altium Limited,Altium Designer,25.0.2 (28)*%
G04 Layer_Color=8421504*
%FSLAX45Y45*%
%MOMM*%
%TF.SameCoordinates,97F7605E-EDA1-4B57-83DE-D803DCB7673D*%
%TF.FilePolarity,Positive*%
%TF.FileFunction,Paste,Top*%
%TF.Part,Single*%
G01*
G75*
%TA.AperFunction,SMDPad,CuDef*%
%ADD10R,1.45000X1.20000*%
%ADD11R,1.20000X1.45000*%
%ADD12R,0.95000X1.40000*%
%ADD13R,2.03200X4.57200*%
G04:AMPARAMS|DCode=15|XSize=0.55mm|YSize=1.25mm|CornerRadius=0.0495mm|HoleSize=0mm|Usage=FLASHONLY|Rotation=90.000|XOffset=0mm|YOffset=0mm|HoleType=Round|Shape=RoundedRectangle|*
%AMROUNDEDRECTD15*
21,1,0.55000,1.15100,0,0,90.0*
21,1,0.45100,1.25000,0,0,90.0*
1,1,0.09900,0.57550,0.22550*
1,1,0.09900,0.57550,-0.22550*
1,1,0.09900,-0.57550,-0.22550*
1,1,0.09900,-0.57550,0.22550*
%
%ADD15ROUNDEDRECTD15*%
%ADD16R,3.04800X2.28600*%
%ADD17R,1.40000X0.95000*%
%ADD18R,1.45000X1.30000*%
%ADD19R,1.00000X1.35000*%
%TA.AperFunction,OtherPad,Pad U10-9 (88.9mm,80.01mm)*%
G04:AMPARAMS|DCode=55|XSize=2.49mm|YSize=3mm|CornerRadius=0.0498mm|HoleSize=0mm|Usage=FLASHONLY|Rotation=0.000|XOffset=0mm|YOffset=0mm|HoleType=Round|Shape=RoundedRectangle|*
%AMROUNDEDRECTD55*
21,1,2.49000,2.90040,0,0,0.0*
21,1,2.39040,3.00000,0,0,0.0*
1,1,0.09960,1.19520,-1.45020*
1,1,0.09960,-1.19520,-1.45020*
1,1,0.09960,-1.19520,1.45020*
1,1,0.09960,1.19520,1.45020*
%
%ADD55ROUNDEDRECTD55*%
%TA.AperFunction,OtherPad,Pad U2-9 (88.9mm,232.41mm)*%
G04:AMPARAMS|DCode=56|XSize=2.49mm|YSize=3mm|CornerRadius=0.0498mm|HoleSize=0mm|Usage=FLASHONLY|Rotation=0.000|XOffset=0mm|YOffset=0mm|HoleType=Round|Shape=RoundedRectangle|*
%AMROUNDEDRECTD56*
21,1,2.49000,2.90040,0,0,0.0*
21,1,2.39040,3.00000,0,0,0.0*
1,1,0.09960,1.19520,-1.45020*
1,1,0.09960,-1.19520,-1.45020*
1,1,0.09960,-1.19520,1.45020*
1,1,0.09960,1.19520,1.45020*
%
%ADD56ROUNDEDRECTD56*%
%TA.AperFunction,OtherPad,Pad U4-9 (88.9mm,194.31mm)*%
G04:AMPARAMS|DCode=57|XSize=2.49mm|YSize=3mm|CornerRadius=0.0498mm|HoleSize=0mm|Usage=FLASHONLY|Rotation=0.000|XOffset=0mm|YOffset=0mm|HoleType=Round|Shape=RoundedRectangle|*
%AMROUNDEDRECTD57*
21,1,2.49000,2.90040,0,0,0.0*
21,1,2.39040,3.00000,0,0,0.0*
1,1,0.09960,1.19520,-1.45020*
1,1,0.09960,-1.19520,-1.45020*
1,1,0.09960,-1.19520,1.45020*
1,1,0.09960,1.19520,1.45020*
%
%ADD57ROUNDEDRECTD57*%
%TA.AperFunction,OtherPad,Pad U8-9 (88.9mm,118.11mm)*%
G04:AMPARAMS|DCode=58|XSize=2.49mm|YSize=3mm|CornerRadius=0.0498mm|HoleSize=0mm|Usage=FLASHONLY|Rotation=0.000|XOffset=0mm|YOffset=0mm|HoleType=Round|Shape=RoundedRectangle|*
%AMROUNDEDRECTD58*
21,1,2.49000,2.90040,0,0,0.0*
21,1,2.39040,3.00000,0,0,0.0*
1,1,0.09960,1.19520,-1.45020*
1,1,0.09960,-1.19520,-1.45020*
1,1,0.09960,-1.19520,1.45020*
1,1,0.09960,1.19520,1.45020*
%
%ADD58ROUNDEDRECTD58*%
%TA.AperFunction,OtherPad,Pad U6-9 (88.9mm,156.21mm)*%
G04:AMPARAMS|DCode=59|XSize=2.49mm|YSize=3mm|CornerRadius=0.0498mm|HoleSize=0mm|Usage=FLASHONLY|Rotation=0.000|XOffset=0mm|YOffset=0mm|HoleType=Round|Shape=RoundedRectangle|*
%AMROUNDEDRECTD59*
21,1,2.49000,2.90040,0,0,0.0*
21,1,2.39040,3.00000,0,0,0.0*
1,1,0.09960,1.19520,-1.45020*
1,1,0.09960,-1.19520,-1.45020*
1,1,0.09960,-1.19520,1.45020*
1,1,0.09960,1.19520,1.45020*
%
%ADD59ROUNDEDRECTD59*%
%TA.AperFunction,OtherPad,Pad U1-9 (71.12mm,245.11mm)*%
G04:AMPARAMS|DCode=60|XSize=2.49mm|YSize=3mm|CornerRadius=0.0498mm|HoleSize=0mm|Usage=FLASHONLY|Rotation=0.000|XOffset=0mm|YOffset=0mm|HoleType=Round|Shape=RoundedRectangle|*
%AMROUNDEDRECTD60*
21,1,2.49000,2.90040,0,0,0.0*
21,1,2.39040,3.00000,0,0,0.0*
1,1,0.09960,1.19520,-1.45020*
1,1,0.09960,-1.19520,-1.45020*
1,1,0.09960,-1.19520,1.45020*
1,1,0.09960,1.19520,1.45020*
%
%ADD60ROUNDEDRECTD60*%
%TA.AperFunction,OtherPad,Pad U3-9 (71.12mm,207.01mm)*%
G04:AMPARAMS|DCode=61|XSize=2.49mm|YSize=3mm|CornerRadius=0.0498mm|HoleSize=0mm|Usage=FLASHONLY|Rotation=0.000|XOffset=0mm|YOffset=0mm|HoleType=Round|Shape=RoundedRectangle|*
%AMROUNDEDRECTD61*
21,1,2.49000,2.90040,0,0,0.0*
21,1,2.39040,3.00000,0,0,0.0*
1,1,0.09960,1.19520,-1.45020*
1,1,0.09960,-1.19520,-1.45020*
1,1,0.09960,-1.19520,1.45020*
1,1,0.09960,1.19520,1.45020*
%
%ADD61ROUNDEDRECTD61*%
%TA.AperFunction,OtherPad,Pad U9-9 (71.12mm,92.71mm)*%
G04:AMPARAMS|DCode=62|XSize=2.49mm|YSize=3mm|CornerRadius=0.0498mm|HoleSize=0mm|Usage=FLASHONLY|Rotation=0.000|XOffset=0mm|YOffset=0mm|HoleType=Round|Shape=RoundedRectangle|*
%AMROUNDEDRECTD62*
21,1,2.49000,2.90040,0,0,0.0*
21,1,2.39040,3.00000,0,0,0.0*
1,1,0.09960,1.19520,-1.45020*
1,1,0.09960,-1.19520,-1.45020*
1,1,0.09960,-1.19520,1.45020*
1,1,0.09960,1.19520,1.45020*
%
%ADD62ROUNDEDRECTD62*%
%TA.AperFunction,OtherPad,Pad U7-9 (71.12mm,130.81mm)*%
G04:AMPARAMS|DCode=63|XSize=2.49mm|YSize=3mm|CornerRadius=0.0498mm|HoleSize=0mm|Usage=FLASHONLY|Rotation=0.000|XOffset=0mm|YOffset=0mm|HoleType=Round|Shape=RoundedRectangle|*
%AMROUNDEDRECTD63*
21,1,2.49000,2.90040,0,0,0.0*
21,1,2.39040,3.00000,0,0,0.0*
1,1,0.09960,1.19520,-1.45020*
1,1,0.09960,-1.19520,-1.45020*
1,1,0.09960,-1.19520,1.45020*
1,1,0.09960,1.19520,1.45020*
%
%ADD63ROUNDEDRECTD63*%
%TA.AperFunction,OtherPad,Pad U5-9 (71.12mm,168.91mm)*%
G04:AMPARAMS|DCode=64|XSize=2.49mm|YSize=3mm|CornerRadius=0.0498mm|HoleSize=0mm|Usage=FLASHONLY|Rotation=0.000|XOffset=0mm|YOffset=0mm|HoleType=Round|Shape=RoundedRectangle|*
%AMROUNDEDRECTD64*
21,1,2.49000,2.90040,0,0,0.0*
21,1,2.39040,3.00000,0,0,0.0*
1,1,0.09960,1.19520,-1.45020*
1,1,0.09960,-1.19520,-1.45020*
1,1,0.09960,-1.19520,1.45020*
1,1,0.09960,1.19520,1.45020*
%
%ADD64ROUNDEDRECTD64*%
D10*
X6642100Y24801500D02*
D03*
Y24601500D02*
D03*
X8420100Y8091500D02*
D03*
Y8291500D02*
D03*
Y11901500D02*
D03*
Y12101500D02*
D03*
Y23331500D02*
D03*
Y23531500D02*
D03*
Y19521500D02*
D03*
Y19721500D02*
D03*
Y15711501D02*
D03*
Y15911501D02*
D03*
X6642100Y9361500D02*
D03*
Y9561500D02*
D03*
Y13171500D02*
D03*
Y13371500D02*
D03*
Y20791499D02*
D03*
Y20991499D02*
D03*
Y16981500D02*
D03*
Y17181500D02*
D03*
D11*
X6386500Y24612601D02*
D03*
X6186500D02*
D03*
X7964500Y8102600D02*
D03*
X8164500D02*
D03*
X7964500Y11912600D02*
D03*
X8164500D02*
D03*
X7964500Y23342599D02*
D03*
X8164500D02*
D03*
X7964500Y19532600D02*
D03*
X8164500D02*
D03*
X9158300Y22847301D02*
D03*
X9358300D02*
D03*
X9158300Y19037300D02*
D03*
X9358300D02*
D03*
X9158300Y7607300D02*
D03*
X9358300D02*
D03*
X9158300Y11417300D02*
D03*
X9358300D02*
D03*
X7964500Y15722600D02*
D03*
X8164500D02*
D03*
X9158300Y15227299D02*
D03*
X9358300D02*
D03*
X6186500Y9372600D02*
D03*
X6386500D02*
D03*
X6186500Y20802600D02*
D03*
X6386500D02*
D03*
X6186500Y13182600D02*
D03*
X6386500D02*
D03*
X7380300Y8877300D02*
D03*
X7580300D02*
D03*
X7380300Y12687300D02*
D03*
X7580300D02*
D03*
X7380300Y24117300D02*
D03*
X7580300D02*
D03*
X7380300Y20307300D02*
D03*
X7580300D02*
D03*
X7380300Y16497301D02*
D03*
X7580300D02*
D03*
X6186500Y16992599D02*
D03*
X6386500D02*
D03*
D12*
X7369600Y24904700D02*
D03*
X7184600D02*
D03*
X8626900Y22860001D02*
D03*
X8441900D02*
D03*
X8626900Y19050000D02*
D03*
X8441900D02*
D03*
X8626900Y7620000D02*
D03*
X8441900D02*
D03*
X8626900Y11430000D02*
D03*
X8441900D02*
D03*
X8962600Y8394700D02*
D03*
X9147600D02*
D03*
X8962600Y12204700D02*
D03*
X9147600D02*
D03*
X8962600Y23634700D02*
D03*
X9147600D02*
D03*
X8962600Y19824699D02*
D03*
X9147600D02*
D03*
X8626900Y15239999D02*
D03*
X8441900D02*
D03*
X8962600Y16014700D02*
D03*
X9147600D02*
D03*
X6848900Y12700000D02*
D03*
X6663900D02*
D03*
X7184600Y13474699D02*
D03*
X7369600D02*
D03*
X7184600Y9664700D02*
D03*
X7369600D02*
D03*
X7184600Y21094701D02*
D03*
X7369600D02*
D03*
X6848900Y8890000D02*
D03*
X6663900D02*
D03*
X6848900Y24130000D02*
D03*
X6663900D02*
D03*
X6848900Y20320000D02*
D03*
X6663900D02*
D03*
X6848900Y16510001D02*
D03*
X6663900D02*
D03*
X7184600Y17284700D02*
D03*
X7369600D02*
D03*
D13*
X15582899Y9182100D02*
D03*
X16167099D02*
D03*
X17741901D02*
D03*
X18326100D02*
D03*
X19900900D02*
D03*
X20485100D02*
D03*
X20192999D02*
D03*
X19900900Y21297900D02*
D03*
X20485100D02*
D03*
X20192999D02*
D03*
X17741901D02*
D03*
X18326100D02*
D03*
X16167101D02*
D03*
X15582899D02*
D03*
D15*
X8627500Y8191500D02*
D03*
Y8064500D02*
D03*
Y7937500D02*
D03*
Y7810500D02*
D03*
X9152500Y8191500D02*
D03*
Y8064500D02*
D03*
Y7937500D02*
D03*
Y7810500D02*
D03*
X8627500Y23431500D02*
D03*
Y23304500D02*
D03*
Y23177499D02*
D03*
Y23050500D02*
D03*
X9152500Y23431500D02*
D03*
Y23304500D02*
D03*
Y23177499D02*
D03*
Y23050500D02*
D03*
X8627500Y19621500D02*
D03*
Y19494501D02*
D03*
Y19367500D02*
D03*
Y19240500D02*
D03*
X9152500Y19621500D02*
D03*
Y19494501D02*
D03*
Y19367500D02*
D03*
Y19240500D02*
D03*
X8627500Y12001500D02*
D03*
Y11874500D02*
D03*
Y11747500D02*
D03*
Y11620500D02*
D03*
X9152500Y12001500D02*
D03*
Y11874500D02*
D03*
Y11747500D02*
D03*
Y11620500D02*
D03*
X8627500Y15811501D02*
D03*
Y15684500D02*
D03*
Y15557500D02*
D03*
Y15430499D02*
D03*
X9152500Y15811501D02*
D03*
Y15684500D02*
D03*
Y15557500D02*
D03*
Y15430499D02*
D03*
X6849500Y24701500D02*
D03*
Y24574500D02*
D03*
Y24447501D02*
D03*
Y24320500D02*
D03*
X7374500Y24701500D02*
D03*
Y24574500D02*
D03*
Y24447501D02*
D03*
Y24320500D02*
D03*
X6849500Y20891499D02*
D03*
Y20764500D02*
D03*
Y20637500D02*
D03*
Y20510500D02*
D03*
X7374500Y20891499D02*
D03*
Y20764500D02*
D03*
Y20637500D02*
D03*
Y20510500D02*
D03*
X6849500Y9461500D02*
D03*
Y9334500D02*
D03*
Y9207500D02*
D03*
Y9080500D02*
D03*
X7374500Y9461500D02*
D03*
Y9334500D02*
D03*
Y9207500D02*
D03*
Y9080500D02*
D03*
X6849500Y13271500D02*
D03*
Y13144501D02*
D03*
Y13017500D02*
D03*
Y12890500D02*
D03*
X7374500Y13271500D02*
D03*
Y13144501D02*
D03*
Y13017500D02*
D03*
Y12890500D02*
D03*
X6849500Y17081500D02*
D03*
Y16954500D02*
D03*
Y16827499D02*
D03*
Y16700500D02*
D03*
X7374500Y17081500D02*
D03*
Y16954500D02*
D03*
Y16827499D02*
D03*
Y16700500D02*
D03*
D16*
X9804400Y8610600D02*
D03*
Y8153400D02*
D03*
Y12420600D02*
D03*
Y11963400D02*
D03*
Y23850600D02*
D03*
Y23393401D02*
D03*
Y20040601D02*
D03*
Y19583400D02*
D03*
X8623300Y6908800D02*
D03*
Y7366000D02*
D03*
Y10718800D02*
D03*
Y11176000D02*
D03*
Y22148801D02*
D03*
Y22606000D02*
D03*
Y18338800D02*
D03*
Y18796001D02*
D03*
Y14528799D02*
D03*
Y14986000D02*
D03*
X9804400Y16230600D02*
D03*
Y15773399D02*
D03*
X8026400Y9880600D02*
D03*
Y9423400D02*
D03*
Y13690601D02*
D03*
Y13233400D02*
D03*
Y25120599D02*
D03*
Y24663400D02*
D03*
Y21310600D02*
D03*
Y20853400D02*
D03*
Y17500600D02*
D03*
Y17043401D02*
D03*
X6845300Y8178800D02*
D03*
Y8636000D02*
D03*
Y11988800D02*
D03*
Y12446000D02*
D03*
Y23418800D02*
D03*
Y23875999D02*
D03*
Y19608800D02*
D03*
Y20066000D02*
D03*
Y15798801D02*
D03*
Y16256000D02*
D03*
D17*
X9359900Y23326300D02*
D03*
Y23511301D02*
D03*
Y19516299D02*
D03*
Y19701300D02*
D03*
Y8086300D02*
D03*
Y8271300D02*
D03*
Y11896300D02*
D03*
Y12081300D02*
D03*
Y15706300D02*
D03*
Y15891299D02*
D03*
X7581900Y24596300D02*
D03*
Y24781300D02*
D03*
Y20786301D02*
D03*
Y20971300D02*
D03*
Y9356300D02*
D03*
Y9541300D02*
D03*
Y13166299D02*
D03*
Y13351300D02*
D03*
Y16976300D02*
D03*
Y17161301D02*
D03*
D18*
X4826000Y21742500D02*
D03*
Y21907500D02*
D03*
Y20472501D02*
D03*
Y20637502D02*
D03*
Y19202501D02*
D03*
Y19367500D02*
D03*
Y17932501D02*
D03*
Y18097501D02*
D03*
Y16662502D02*
D03*
Y16827501D02*
D03*
Y15392500D02*
D03*
Y15557501D02*
D03*
Y14122501D02*
D03*
Y14287502D02*
D03*
Y12852501D02*
D03*
Y13017500D02*
D03*
Y11582501D02*
D03*
Y11747501D02*
D03*
Y10312501D02*
D03*
Y10477501D02*
D03*
D19*
X4662000Y15557500D02*
D03*
X4482000D02*
D03*
Y21907500D02*
D03*
X4662000D02*
D03*
X4482000Y14287500D02*
D03*
X4662000D02*
D03*
X4482000Y20637500D02*
D03*
X4662000D02*
D03*
X4482000Y13017500D02*
D03*
X4662000D02*
D03*
X4482000Y19367500D02*
D03*
X4662000D02*
D03*
X4482000Y11747500D02*
D03*
X4662000D02*
D03*
X4482000Y18097501D02*
D03*
X4662000D02*
D03*
X4482000Y10477500D02*
D03*
X4662000D02*
D03*
X4482000Y16827499D02*
D03*
X4662000D02*
D03*
D55*
X8890000Y8001000D02*
D03*
D56*
Y23241000D02*
D03*
D57*
Y19431000D02*
D03*
D58*
Y11811000D02*
D03*
D59*
Y15621001D02*
D03*
D60*
X7112000Y24511000D02*
D03*
D61*
Y20700999D02*
D03*
D62*
Y9271000D02*
D03*
D63*
Y13081000D02*
D03*
D64*
Y16891000D02*
D03*
%TF.MD5,a538fe885e0bda6f90db06bba4b6bcfd*%
M02*
