%TF.GenerationSoftware,Altium Limited,Altium Designer,25.0.2 (28)*%
G04 Layer_Color=8388736*
%FSLAX45Y45*%
%MOMM*%
%TF.SameCoordinates,97F7605E-EDA1-4B57-83DE-D803DCB7673D*%
%TF.FilePolarity,Negative*%
%TF.FileFunction,Soldermask,Top*%
%TF.Part,Single*%
G01*
G75*
%TA.AperFunction,SMDPad,CuDef*%
%ADD12R,0.95000X1.40000*%
%ADD17R,1.40000X0.95000*%
%TA.AperFunction,ViaPad*%
%ADD47C,1.47320*%
%TA.AperFunction,OtherPad,Pad U10-9 (88.9mm,80.01mm)*%
G04:AMPARAMS|DCode=55|XSize=2.49mm|YSize=3mm|CornerRadius=0.0498mm|HoleSize=0mm|Usage=FLASHONLY|Rotation=0.000|XOffset=0mm|YOffset=0mm|HoleType=Round|Shape=RoundedRectangle|*
%AMROUNDEDRECTD55*
21,1,2.49000,2.90040,0,0,0.0*
21,1,2.39040,3.00000,0,0,0.0*
1,1,0.09960,1.19520,-1.45020*
1,1,0.09960,-1.19520,-1.45020*
1,1,0.09960,-1.19520,1.45020*
1,1,0.09960,1.19520,1.45020*
%
%ADD55ROUNDEDRECTD55*%
%TA.AperFunction,OtherPad,Pad U2-9 (88.9mm,232.41mm)*%
G04:AMPARAMS|DCode=56|XSize=2.49mm|YSize=3mm|CornerRadius=0.0498mm|HoleSize=0mm|Usage=FLASHONLY|Rotation=0.000|XOffset=0mm|YOffset=0mm|HoleType=Round|Shape=RoundedRectangle|*
%AMROUNDEDRECTD56*
21,1,2.49000,2.90040,0,0,0.0*
21,1,2.39040,3.00000,0,0,0.0*
1,1,0.09960,1.19520,-1.45020*
1,1,0.09960,-1.19520,-1.45020*
1,1,0.09960,-1.19520,1.45020*
1,1,0.09960,1.19520,1.45020*
%
%ADD56ROUNDEDRECTD56*%
%TA.AperFunction,OtherPad,Pad U4-9 (88.9mm,194.31mm)*%
G04:AMPARAMS|DCode=57|XSize=2.49mm|YSize=3mm|CornerRadius=0.0498mm|HoleSize=0mm|Usage=FLASHONLY|Rotation=0.000|XOffset=0mm|YOffset=0mm|HoleType=Round|Shape=RoundedRectangle|*
%AMROUNDEDRECTD57*
21,1,2.49000,2.90040,0,0,0.0*
21,1,2.39040,3.00000,0,0,0.0*
1,1,0.09960,1.19520,-1.45020*
1,1,0.09960,-1.19520,-1.45020*
1,1,0.09960,-1.19520,1.45020*
1,1,0.09960,1.19520,1.45020*
%
%ADD57ROUNDEDRECTD57*%
%TA.AperFunction,OtherPad,Pad U8-9 (88.9mm,118.11mm)*%
G04:AMPARAMS|DCode=58|XSize=2.49mm|YSize=3mm|CornerRadius=0.0498mm|HoleSize=0mm|Usage=FLASHONLY|Rotation=0.000|XOffset=0mm|YOffset=0mm|HoleType=Round|Shape=RoundedRectangle|*
%AMROUNDEDRECTD58*
21,1,2.49000,2.90040,0,0,0.0*
21,1,2.39040,3.00000,0,0,0.0*
1,1,0.09960,1.19520,-1.45020*
1,1,0.09960,-1.19520,-1.45020*
1,1,0.09960,-1.19520,1.45020*
1,1,0.09960,1.19520,1.45020*
%
%ADD58ROUNDEDRECTD58*%
%TA.AperFunction,OtherPad,Pad U6-9 (88.9mm,156.21mm)*%
G04:AMPARAMS|DCode=59|XSize=2.49mm|YSize=3mm|CornerRadius=0.0498mm|HoleSize=0mm|Usage=FLASHONLY|Rotation=0.000|XOffset=0mm|YOffset=0mm|HoleType=Round|Shape=RoundedRectangle|*
%AMROUNDEDRECTD59*
21,1,2.49000,2.90040,0,0,0.0*
21,1,2.39040,3.00000,0,0,0.0*
1,1,0.09960,1.19520,-1.45020*
1,1,0.09960,-1.19520,-1.45020*
1,1,0.09960,-1.19520,1.45020*
1,1,0.09960,1.19520,1.45020*
%
%ADD59ROUNDEDRECTD59*%
%TA.AperFunction,OtherPad,Pad U1-9 (71.12mm,245.11mm)*%
G04:AMPARAMS|DCode=60|XSize=2.49mm|YSize=3mm|CornerRadius=0.0498mm|HoleSize=0mm|Usage=FLASHONLY|Rotation=0.000|XOffset=0mm|YOffset=0mm|HoleType=Round|Shape=RoundedRectangle|*
%AMROUNDEDRECTD60*
21,1,2.49000,2.90040,0,0,0.0*
21,1,2.39040,3.00000,0,0,0.0*
1,1,0.09960,1.19520,-1.45020*
1,1,0.09960,-1.19520,-1.45020*
1,1,0.09960,-1.19520,1.45020*
1,1,0.09960,1.19520,1.45020*
%
%ADD60ROUNDEDRECTD60*%
%TA.AperFunction,OtherPad,Pad U3-9 (71.12mm,207.01mm)*%
G04:AMPARAMS|DCode=61|XSize=2.49mm|YSize=3mm|CornerRadius=0.0498mm|HoleSize=0mm|Usage=FLASHONLY|Rotation=0.000|XOffset=0mm|YOffset=0mm|HoleType=Round|Shape=RoundedRectangle|*
%AMROUNDEDRECTD61*
21,1,2.49000,2.90040,0,0,0.0*
21,1,2.39040,3.00000,0,0,0.0*
1,1,0.09960,1.19520,-1.45020*
1,1,0.09960,-1.19520,-1.45020*
1,1,0.09960,-1.19520,1.45020*
1,1,0.09960,1.19520,1.45020*
%
%ADD61ROUNDEDRECTD61*%
%TA.AperFunction,OtherPad,Pad U9-9 (71.12mm,92.71mm)*%
G04:AMPARAMS|DCode=62|XSize=2.49mm|YSize=3mm|CornerRadius=0.0498mm|HoleSize=0mm|Usage=FLASHONLY|Rotation=0.000|XOffset=0mm|YOffset=0mm|HoleType=Round|Shape=RoundedRectangle|*
%AMROUNDEDRECTD62*
21,1,2.49000,2.90040,0,0,0.0*
21,1,2.39040,3.00000,0,0,0.0*
1,1,0.09960,1.19520,-1.45020*
1,1,0.09960,-1.19520,-1.45020*
1,1,0.09960,-1.19520,1.45020*
1,1,0.09960,1.19520,1.45020*
%
%ADD62ROUNDEDRECTD62*%
%TA.AperFunction,OtherPad,Pad U7-9 (71.12mm,130.81mm)*%
G04:AMPARAMS|DCode=63|XSize=2.49mm|YSize=3mm|CornerRadius=0.0498mm|HoleSize=0mm|Usage=FLASHONLY|Rotation=0.000|XOffset=0mm|YOffset=0mm|HoleType=Round|Shape=RoundedRectangle|*
%AMROUNDEDRECTD63*
21,1,2.49000,2.90040,0,0,0.0*
21,1,2.39040,3.00000,0,0,0.0*
1,1,0.09960,1.19520,-1.45020*
1,1,0.09960,-1.19520,-1.45020*
1,1,0.09960,-1.19520,1.45020*
1,1,0.09960,1.19520,1.45020*
%
%ADD63ROUNDEDRECTD63*%
%TA.AperFunction,OtherPad,Pad U5-9 (71.12mm,168.91mm)*%
G04:AMPARAMS|DCode=64|XSize=2.49mm|YSize=3mm|CornerRadius=0.0498mm|HoleSize=0mm|Usage=FLASHONLY|Rotation=0.000|XOffset=0mm|YOffset=0mm|HoleType=Round|Shape=RoundedRectangle|*
%AMROUNDEDRECTD64*
21,1,2.49000,2.90040,0,0,0.0*
21,1,2.39040,3.00000,0,0,0.0*
1,1,0.09960,1.19520,-1.45020*
1,1,0.09960,-1.19520,-1.45020*
1,1,0.09960,-1.19520,1.45020*
1,1,0.09960,1.19520,1.45020*
%
%ADD64ROUNDEDRECTD64*%
%TA.AperFunction,SMDPad,CuDef*%
%ADD65R,1.65320X1.40320*%
%ADD66R,1.40320X1.65320*%
%ADD67R,2.23520X4.77520*%
G04:AMPARAMS|DCode=68|XSize=0.7532mm|YSize=1.4532mm|CornerRadius=0.1511mm|HoleSize=0mm|Usage=FLASHONLY|Rotation=90.000|XOffset=0mm|YOffset=0mm|HoleType=Round|Shape=RoundedRectangle|*
%AMROUNDEDRECTD68*
21,1,0.75320,1.15100,0,0,90.0*
21,1,0.45100,1.45320,0,0,90.0*
1,1,0.30220,0.57550,0.22550*
1,1,0.30220,0.57550,-0.22550*
1,1,0.30220,-0.57550,-0.22550*
1,1,0.30220,-0.57550,0.22550*
%
%ADD68ROUNDEDRECTD68*%
%ADD69R,3.25120X2.48920*%
%ADD70R,1.65320X1.50320*%
%ADD71R,1.20320X1.55320*%
%TA.AperFunction,ComponentPad*%
%ADD72C,1.27000*%
%ADD73C,2.74320*%
%ADD74C,1.72720*%
%TA.AperFunction,ViaPad*%
%ADD75C,1.72720*%
%TA.AperFunction,ComponentPad*%
%ADD76C,1.85320*%
%ADD77C,5.00320*%
%TA.AperFunction,ViaPad*%
%ADD78C,5.28320*%
%ADD79C,0.81280*%
%ADD80C,0.70320*%
D12*
X7369600Y24904700D02*
D03*
X7184600D02*
D03*
X8626900Y22860001D02*
D03*
X8441900D02*
D03*
X8626900Y19050000D02*
D03*
X8441900D02*
D03*
X8626900Y7620000D02*
D03*
X8441900D02*
D03*
X8626900Y11430000D02*
D03*
X8441900D02*
D03*
X8962600Y8394700D02*
D03*
X9147600D02*
D03*
X8962600Y12204700D02*
D03*
X9147600D02*
D03*
X8962600Y23634700D02*
D03*
X9147600D02*
D03*
X8962600Y19824699D02*
D03*
X9147600D02*
D03*
X8626900Y15239999D02*
D03*
X8441900D02*
D03*
X8962600Y16014700D02*
D03*
X9147600D02*
D03*
X6848900Y12700000D02*
D03*
X6663900D02*
D03*
X7184600Y13474699D02*
D03*
X7369600D02*
D03*
X7184600Y9664700D02*
D03*
X7369600D02*
D03*
X7184600Y21094701D02*
D03*
X7369600D02*
D03*
X6848900Y8890000D02*
D03*
X6663900D02*
D03*
X6848900Y24130000D02*
D03*
X6663900D02*
D03*
X6848900Y20320000D02*
D03*
X6663900D02*
D03*
X6848900Y16510001D02*
D03*
X6663900D02*
D03*
X7184600Y17284700D02*
D03*
X7369600D02*
D03*
D17*
X9359900Y23326300D02*
D03*
Y23511301D02*
D03*
Y19516299D02*
D03*
Y19701300D02*
D03*
Y8086300D02*
D03*
Y8271300D02*
D03*
Y11896300D02*
D03*
Y12081300D02*
D03*
Y15706300D02*
D03*
Y15891299D02*
D03*
X7581900Y24596300D02*
D03*
Y24781300D02*
D03*
Y20786301D02*
D03*
Y20971300D02*
D03*
Y9356300D02*
D03*
Y9541300D02*
D03*
Y13166299D02*
D03*
Y13351300D02*
D03*
Y16976300D02*
D03*
Y17161301D02*
D03*
D47*
X7670800Y13538200D02*
D03*
X8026400Y25120599D02*
D03*
X9804400Y23850600D02*
D03*
X8026400Y21310600D02*
D03*
X9804400Y20040601D02*
D03*
X8026400Y17500600D02*
D03*
X9804400Y16230600D02*
D03*
Y12420600D02*
D03*
X8026400Y9880600D02*
D03*
X9804400Y8610600D02*
D03*
X11074400Y5372100D02*
D03*
X12852400Y6642100D02*
D03*
X11074400Y9182100D02*
D03*
X12852400Y10452100D02*
D03*
Y21882100D02*
D03*
X11074400Y20612100D02*
D03*
X12852400Y18072099D02*
D03*
X11074400Y16802100D02*
D03*
X12852400Y14262100D02*
D03*
X11074400Y12992101D02*
D03*
X12852400Y22339301D02*
D03*
X11010900Y22745700D02*
D03*
X12852400Y18529300D02*
D03*
X11010900Y18935699D02*
D03*
X12852400Y14719299D02*
D03*
X11010900Y15125700D02*
D03*
X12852400Y10909300D02*
D03*
X11010900Y11315700D02*
D03*
X12852400Y7099300D02*
D03*
X11010900Y7505700D02*
D03*
X8623300Y7366000D02*
D03*
X9804400Y8153400D02*
D03*
X8623300Y11176000D02*
D03*
X9804400Y11963400D02*
D03*
X8623300Y22606000D02*
D03*
X9804400Y23393401D02*
D03*
X8623300Y14986000D02*
D03*
X9804400Y15773399D02*
D03*
Y19583400D02*
D03*
X8623300Y18796001D02*
D03*
X11074400Y5829300D02*
D03*
Y9639300D02*
D03*
Y21069299D02*
D03*
Y17259300D02*
D03*
X9232900Y6235700D02*
D03*
Y10045700D02*
D03*
Y21475700D02*
D03*
Y17665700D02*
D03*
Y13855701D02*
D03*
X11074400Y13449300D02*
D03*
X8026400Y9423400D02*
D03*
Y13233400D02*
D03*
Y24663400D02*
D03*
Y20853400D02*
D03*
X6845300Y8636000D02*
D03*
Y12446000D02*
D03*
Y20066000D02*
D03*
Y23875999D02*
D03*
Y16256000D02*
D03*
X8026400Y17043401D02*
D03*
D55*
X8890000Y8001000D02*
D03*
D56*
Y23241000D02*
D03*
D57*
Y19431000D02*
D03*
D58*
Y11811000D02*
D03*
D59*
Y15621001D02*
D03*
D60*
X7112000Y24511000D02*
D03*
D61*
Y20700999D02*
D03*
D62*
Y9271000D02*
D03*
D63*
Y13081000D02*
D03*
D64*
Y16891000D02*
D03*
D65*
X6642100Y24801500D02*
D03*
Y24601500D02*
D03*
X8420100Y8091500D02*
D03*
Y8291500D02*
D03*
Y11901500D02*
D03*
Y12101500D02*
D03*
Y23331500D02*
D03*
Y23531500D02*
D03*
Y19521500D02*
D03*
Y19721500D02*
D03*
Y15711501D02*
D03*
Y15911501D02*
D03*
X6642100Y9361500D02*
D03*
Y9561500D02*
D03*
Y13171500D02*
D03*
Y13371500D02*
D03*
Y20791499D02*
D03*
Y20991499D02*
D03*
Y16981500D02*
D03*
Y17181500D02*
D03*
D66*
X6386500Y24612601D02*
D03*
X6186500D02*
D03*
X7964500Y8102600D02*
D03*
X8164500D02*
D03*
X7964500Y11912600D02*
D03*
X8164500D02*
D03*
X7964500Y23342599D02*
D03*
X8164500D02*
D03*
X7964500Y19532600D02*
D03*
X8164500D02*
D03*
X9158300Y22847301D02*
D03*
X9358300D02*
D03*
X9158300Y19037300D02*
D03*
X9358300D02*
D03*
X9158300Y7607300D02*
D03*
X9358300D02*
D03*
X9158300Y11417300D02*
D03*
X9358300D02*
D03*
X7964500Y15722600D02*
D03*
X8164500D02*
D03*
X9158300Y15227299D02*
D03*
X9358300D02*
D03*
X6186500Y9372600D02*
D03*
X6386500D02*
D03*
X6186500Y20802600D02*
D03*
X6386500D02*
D03*
X6186500Y13182600D02*
D03*
X6386500D02*
D03*
X7380300Y8877300D02*
D03*
X7580300D02*
D03*
X7380300Y12687300D02*
D03*
X7580300D02*
D03*
X7380300Y24117300D02*
D03*
X7580300D02*
D03*
X7380300Y20307300D02*
D03*
X7580300D02*
D03*
X7380300Y16497301D02*
D03*
X7580300D02*
D03*
X6186500Y16992599D02*
D03*
X6386500D02*
D03*
D67*
X15582899Y9182100D02*
D03*
X16167099D02*
D03*
X17741901D02*
D03*
X18326100D02*
D03*
X19900900D02*
D03*
X20485100D02*
D03*
X20192999D02*
D03*
X19900900Y21297900D02*
D03*
X20485100D02*
D03*
X20192999D02*
D03*
X17741901D02*
D03*
X18326100D02*
D03*
X16167101D02*
D03*
X15582899D02*
D03*
D68*
X8627500Y8191500D02*
D03*
Y8064500D02*
D03*
Y7937500D02*
D03*
Y7810500D02*
D03*
X9152500Y8191500D02*
D03*
Y8064500D02*
D03*
Y7937500D02*
D03*
Y7810500D02*
D03*
X8627500Y23431500D02*
D03*
Y23304500D02*
D03*
Y23177499D02*
D03*
Y23050500D02*
D03*
X9152500Y23431500D02*
D03*
Y23304500D02*
D03*
Y23177499D02*
D03*
Y23050500D02*
D03*
X8627500Y19621500D02*
D03*
Y19494501D02*
D03*
Y19367500D02*
D03*
Y19240500D02*
D03*
X9152500Y19621500D02*
D03*
Y19494501D02*
D03*
Y19367500D02*
D03*
Y19240500D02*
D03*
X8627500Y12001500D02*
D03*
Y11874500D02*
D03*
Y11747500D02*
D03*
Y11620500D02*
D03*
X9152500Y12001500D02*
D03*
Y11874500D02*
D03*
Y11747500D02*
D03*
Y11620500D02*
D03*
X8627500Y15811501D02*
D03*
Y15684500D02*
D03*
Y15557500D02*
D03*
Y15430499D02*
D03*
X9152500Y15811501D02*
D03*
Y15684500D02*
D03*
Y15557500D02*
D03*
Y15430499D02*
D03*
X6849500Y24701500D02*
D03*
Y24574500D02*
D03*
Y24447501D02*
D03*
Y24320500D02*
D03*
X7374500Y24701500D02*
D03*
Y24574500D02*
D03*
Y24447501D02*
D03*
Y24320500D02*
D03*
X6849500Y20891499D02*
D03*
Y20764500D02*
D03*
Y20637500D02*
D03*
Y20510500D02*
D03*
X7374500Y20891499D02*
D03*
Y20764500D02*
D03*
Y20637500D02*
D03*
Y20510500D02*
D03*
X6849500Y9461500D02*
D03*
Y9334500D02*
D03*
Y9207500D02*
D03*
Y9080500D02*
D03*
X7374500Y9461500D02*
D03*
Y9334500D02*
D03*
Y9207500D02*
D03*
Y9080500D02*
D03*
X6849500Y13271500D02*
D03*
Y13144501D02*
D03*
Y13017500D02*
D03*
Y12890500D02*
D03*
X7374500Y13271500D02*
D03*
Y13144501D02*
D03*
Y13017500D02*
D03*
Y12890500D02*
D03*
X6849500Y17081500D02*
D03*
Y16954500D02*
D03*
Y16827499D02*
D03*
Y16700500D02*
D03*
X7374500Y17081500D02*
D03*
Y16954500D02*
D03*
Y16827499D02*
D03*
Y16700500D02*
D03*
D69*
X9804400Y8610600D02*
D03*
Y8153400D02*
D03*
Y12420600D02*
D03*
Y11963400D02*
D03*
Y23850600D02*
D03*
Y23393401D02*
D03*
Y20040601D02*
D03*
Y19583400D02*
D03*
X8623300Y6908800D02*
D03*
Y7366000D02*
D03*
Y10718800D02*
D03*
Y11176000D02*
D03*
Y22148801D02*
D03*
Y22606000D02*
D03*
Y18338800D02*
D03*
Y18796001D02*
D03*
Y14528799D02*
D03*
Y14986000D02*
D03*
X9804400Y16230600D02*
D03*
Y15773399D02*
D03*
X8026400Y9880600D02*
D03*
Y9423400D02*
D03*
Y13690601D02*
D03*
Y13233400D02*
D03*
Y25120599D02*
D03*
Y24663400D02*
D03*
Y21310600D02*
D03*
Y20853400D02*
D03*
Y17500600D02*
D03*
Y17043401D02*
D03*
X6845300Y8178800D02*
D03*
Y8636000D02*
D03*
Y11988800D02*
D03*
Y12446000D02*
D03*
Y23418800D02*
D03*
Y23875999D02*
D03*
Y19608800D02*
D03*
Y20066000D02*
D03*
Y15798801D02*
D03*
Y16256000D02*
D03*
D70*
X4826000Y21742500D02*
D03*
Y21907500D02*
D03*
Y20472501D02*
D03*
Y20637502D02*
D03*
Y19202501D02*
D03*
Y19367500D02*
D03*
Y17932501D02*
D03*
Y18097501D02*
D03*
Y16662502D02*
D03*
Y16827501D02*
D03*
Y15392500D02*
D03*
Y15557501D02*
D03*
Y14122501D02*
D03*
Y14287502D02*
D03*
Y12852501D02*
D03*
Y13017500D02*
D03*
Y11582501D02*
D03*
Y11747501D02*
D03*
Y10312501D02*
D03*
Y10477501D02*
D03*
D71*
X4662000Y15557500D02*
D03*
X4482000D02*
D03*
Y21907500D02*
D03*
X4662000D02*
D03*
X4482000Y14287500D02*
D03*
X4662000D02*
D03*
X4482000Y20637500D02*
D03*
X4662000D02*
D03*
X4482000Y13017500D02*
D03*
X4662000D02*
D03*
X4482000Y19367500D02*
D03*
X4662000D02*
D03*
X4482000Y11747500D02*
D03*
X4662000D02*
D03*
X4482000Y18097501D02*
D03*
X4662000D02*
D03*
X4482000Y10477500D02*
D03*
X4662000D02*
D03*
X4482000Y16827499D02*
D03*
X4662000D02*
D03*
D72*
X3365500Y12255500D02*
D03*
Y12509500D02*
D03*
X3556000Y12382500D02*
D03*
X3365500Y12763500D02*
D03*
X3556000Y12636500D02*
D03*
X3365500Y13017500D02*
D03*
X3556000Y12890500D02*
D03*
X3365500Y13271500D02*
D03*
X3556000Y13144501D02*
D03*
X3365500Y13525500D02*
D03*
X3556000Y13398500D02*
D03*
X3365500Y13779500D02*
D03*
X3556000Y13652499D02*
D03*
X3365500Y14033501D02*
D03*
X3556000Y13906500D02*
D03*
X3365500Y14287500D02*
D03*
X3556000Y14160500D02*
D03*
X3365500Y14541499D02*
D03*
X3556000Y14414500D02*
D03*
X3365500Y14795500D02*
D03*
X3556000Y14668500D02*
D03*
X3365500Y15049500D02*
D03*
X3556000Y14922501D02*
D03*
X3365500Y15303500D02*
D03*
X3556000Y15176500D02*
D03*
X3365500Y15557500D02*
D03*
X3556000Y15430499D02*
D03*
X3365500Y15811501D02*
D03*
X3556000Y15684500D02*
D03*
X3365500Y16065500D02*
D03*
X3556000Y15938499D02*
D03*
X3365500Y16319501D02*
D03*
X3556000Y16192500D02*
D03*
Y16446500D02*
D03*
X2984500Y12255500D02*
D03*
Y12509500D02*
D03*
X3175000Y12382500D02*
D03*
X2984500Y12763500D02*
D03*
X3175000Y12636500D02*
D03*
X2984500Y13017500D02*
D03*
X3175000Y12890500D02*
D03*
X2984500Y13271500D02*
D03*
X3175000Y13144501D02*
D03*
X2984500Y13525500D02*
D03*
X3175000Y13398500D02*
D03*
X2984500Y13779500D02*
D03*
X3175000Y13652499D02*
D03*
X2984500Y14033501D02*
D03*
X3175000Y13906500D02*
D03*
X2984500Y14287500D02*
D03*
X3175000Y14160500D02*
D03*
X2984500Y14541499D02*
D03*
X3175000Y14414500D02*
D03*
X2984500Y14795500D02*
D03*
X3175000Y14668500D02*
D03*
X2984500Y15049500D02*
D03*
X3175000Y14922501D02*
D03*
X2984500Y15303500D02*
D03*
X3175000Y15176500D02*
D03*
X2984500Y15557500D02*
D03*
X3175000Y15430499D02*
D03*
X2984500Y15811501D02*
D03*
X3175000Y15684500D02*
D03*
X2984500Y16065500D02*
D03*
X3175000Y15938499D02*
D03*
X2984500Y16319501D02*
D03*
X3175000Y16192500D02*
D03*
Y16446500D02*
D03*
D73*
Y11455400D02*
D03*
Y17246600D02*
D03*
D74*
X16383000Y19050000D02*
D03*
Y19558000D02*
D03*
Y20066000D02*
D03*
Y20574001D02*
D03*
X15875000Y19050000D02*
D03*
Y19558000D02*
D03*
Y20066000D02*
D03*
Y20574001D02*
D03*
X15367000Y19050000D02*
D03*
Y19558000D02*
D03*
Y20066000D02*
D03*
Y20574001D02*
D03*
X14859000Y19050000D02*
D03*
Y19558000D02*
D03*
Y20066000D02*
D03*
Y20574001D02*
D03*
X18542000Y12446000D02*
D03*
Y11938000D02*
D03*
Y11430000D02*
D03*
Y10922000D02*
D03*
X18034000Y12446000D02*
D03*
Y11938000D02*
D03*
Y11430000D02*
D03*
Y10922000D02*
D03*
X17525999Y12446000D02*
D03*
Y11938000D02*
D03*
Y11430000D02*
D03*
Y10922000D02*
D03*
X17017999Y12446000D02*
D03*
Y11938000D02*
D03*
Y11430000D02*
D03*
Y10922000D02*
D03*
X20700999Y11938000D02*
D03*
Y11430000D02*
D03*
Y10922000D02*
D03*
Y10414000D02*
D03*
X20192999Y11938000D02*
D03*
Y11430000D02*
D03*
Y10922000D02*
D03*
Y10414000D02*
D03*
X19685001Y11938000D02*
D03*
Y11430000D02*
D03*
Y10922000D02*
D03*
Y10414000D02*
D03*
X19177000Y11938000D02*
D03*
Y11430000D02*
D03*
Y10922000D02*
D03*
Y10414000D02*
D03*
X20700999Y18542000D02*
D03*
Y19050000D02*
D03*
Y19558000D02*
D03*
Y20066000D02*
D03*
X20192999Y18542000D02*
D03*
Y19050000D02*
D03*
Y19558000D02*
D03*
Y20066000D02*
D03*
X19685001Y18542000D02*
D03*
Y19050000D02*
D03*
Y19558000D02*
D03*
Y20066000D02*
D03*
X19177000Y18542000D02*
D03*
Y19050000D02*
D03*
Y19558000D02*
D03*
Y20066000D02*
D03*
X16383000Y11430000D02*
D03*
Y10922000D02*
D03*
Y10414000D02*
D03*
Y9906000D02*
D03*
X15875000Y11430000D02*
D03*
Y10922000D02*
D03*
Y10414000D02*
D03*
Y9906000D02*
D03*
X15367000Y11430000D02*
D03*
Y10922000D02*
D03*
Y10414000D02*
D03*
Y9906000D02*
D03*
X14859000Y11430000D02*
D03*
Y10922000D02*
D03*
Y10414000D02*
D03*
Y9906000D02*
D03*
X18542000Y18034000D02*
D03*
Y18542000D02*
D03*
Y19050000D02*
D03*
Y19558000D02*
D03*
X18034000Y18034000D02*
D03*
Y18542000D02*
D03*
Y19050000D02*
D03*
Y19558000D02*
D03*
X17525999Y18034000D02*
D03*
Y18542000D02*
D03*
Y19050000D02*
D03*
Y19558000D02*
D03*
X17017999Y18034000D02*
D03*
Y18542000D02*
D03*
Y19050000D02*
D03*
Y19558000D02*
D03*
D75*
X3556000Y7112000D02*
D03*
Y23367999D02*
D03*
Y24892000D02*
D03*
X5080000D02*
D03*
Y23367999D02*
D03*
X3556000Y5588000D02*
D03*
X5080000D02*
D03*
Y7112000D02*
D03*
D76*
X20716200Y13716499D02*
D03*
Y13993500D02*
D03*
Y14270500D02*
D03*
Y14547501D02*
D03*
Y14824500D02*
D03*
Y15101500D02*
D03*
Y15378500D02*
D03*
Y15655499D02*
D03*
Y15932500D02*
D03*
Y16209500D02*
D03*
Y16486501D02*
D03*
Y16763499D02*
D03*
X20432201Y13578000D02*
D03*
Y13855000D02*
D03*
Y14132001D02*
D03*
Y14409000D02*
D03*
Y14686000D02*
D03*
Y14963000D02*
D03*
Y16625000D02*
D03*
Y16902000D02*
D03*
Y16071001D02*
D03*
Y16348000D02*
D03*
Y15794000D02*
D03*
Y15517000D02*
D03*
Y15239999D02*
D03*
D77*
X20574200Y17595000D02*
D03*
Y12885001D02*
D03*
D78*
X19050000Y20828000D02*
D03*
Y9652000D02*
D03*
X3556000Y20574001D02*
D03*
Y9906000D02*
D03*
Y25654001D02*
D03*
X12953999D02*
D03*
Y4826000D02*
D03*
X3556000D02*
D03*
D79*
X10629900Y9508700D02*
D03*
X10609490Y17018510D02*
D03*
X10574990Y5423410D02*
D03*
X12352990Y6693410D02*
D03*
X12352480Y10503920D02*
D03*
X10574480Y13043919D02*
D03*
X12352990Y14313409D02*
D03*
X12352480Y18123920D02*
D03*
X10574480Y20663921D02*
D03*
X12352990Y21933411D02*
D03*
X7526990Y13564110D02*
D03*
X9254740Y8540036D02*
D03*
X7539690Y9741410D02*
D03*
X9295380Y12358120D02*
D03*
X9295890Y16167610D02*
D03*
X7517380Y17438120D02*
D03*
X9295380Y19978120D02*
D03*
X7518400Y21247099D02*
D03*
X9295890Y23787610D02*
D03*
X7518400Y25057100D02*
D03*
X10528300Y19507201D02*
D03*
X4102100Y10426700D02*
D03*
X4572000Y23367999D02*
D03*
X19812000Y13208000D02*
D03*
X14732001Y21336000D02*
D03*
X16764000Y13208000D02*
D03*
X11176000Y16256000D02*
D03*
X16764000Y11176000D02*
D03*
X5080000Y8128000D02*
D03*
X3556000Y19303999D02*
D03*
X11684000Y5080000D02*
D03*
X13208000Y12192000D02*
D03*
X5588000Y17272000D02*
D03*
X6096000Y26416000D02*
D03*
X5080000Y4064000D02*
D03*
X14732001Y9144000D02*
D03*
X20828000Y11176000D02*
D03*
X18288000Y18288000D02*
D03*
X10668000Y15239999D02*
D03*
X12700000Y19303999D02*
D03*
X4572000Y7112000D02*
D03*
X5080000Y22352000D02*
D03*
X13716000Y5080000D02*
D03*
X4064000Y4064000D02*
D03*
X6096000D02*
D03*
X3556000Y9144000D02*
D03*
X5080000Y26416000D02*
D03*
X15748000Y15239999D02*
D03*
X5588000D02*
D03*
X11176000Y20320000D02*
D03*
X9652000Y7112000D02*
D03*
X12700000Y21336000D02*
D03*
X3048000Y10160000D02*
D03*
X20828000Y15239999D02*
D03*
X9144000Y26416000D02*
D03*
X12192000Y4064000D02*
D03*
X13208000D02*
D03*
X10668000Y7112000D02*
D03*
X5080000Y18288000D02*
D03*
X6604000Y21336000D02*
D03*
X10160000Y4064000D02*
D03*
X19303999Y20320000D02*
D03*
X3048000Y24384000D02*
D03*
X5080000D02*
D03*
X7620000Y23367999D02*
D03*
X8128000Y20320000D02*
D03*
X7112000Y4064000D02*
D03*
X13208000Y20320000D02*
D03*
X16764000Y15239999D02*
D03*
X4064000Y22352000D02*
D03*
X17780000Y19303999D02*
D03*
X10668000Y9144000D02*
D03*
X11176000Y12192000D02*
D03*
X17780000Y13208000D02*
D03*
X13208000Y24384000D02*
D03*
X8636000Y25400000D02*
D03*
X5588000Y19303999D02*
D03*
X16256000Y18288000D02*
D03*
X13208000Y26416000D02*
D03*
X15748000Y13208000D02*
D03*
X13716000Y9144000D02*
D03*
X6096000Y20320000D02*
D03*
X13716000Y25400000D02*
D03*
X17780000Y11176000D02*
D03*
X6604000Y15239999D02*
D03*
X15239999Y12192000D02*
D03*
X15748000Y19303999D02*
D03*
X7112000Y22352000D02*
D03*
X4064000Y26416000D02*
D03*
X15748000Y11176000D02*
D03*
X6096000Y14224001D02*
D03*
X3048000Y22352000D02*
D03*
X19812000Y15239999D02*
D03*
X5588000Y13208000D02*
D03*
X16764000Y17272000D02*
D03*
X8636000Y21336000D02*
D03*
X14732001Y17272000D02*
D03*
X4064000Y8128000D02*
D03*
X10668000Y13208000D02*
D03*
X5588000Y25400000D02*
D03*
X7112000Y26416000D02*
D03*
X11709400Y21336000D02*
D03*
X5588000Y7112000D02*
D03*
X19812000Y11176000D02*
D03*
X7112000Y20320000D02*
D03*
X12217400D02*
D03*
X12192000Y26416000D02*
D03*
X16764000Y19303999D02*
D03*
X12192000Y12192000D02*
D03*
X6604000Y5080000D02*
D03*
X13208000Y16256000D02*
D03*
X3556000Y21336000D02*
D03*
X12700000Y9144000D02*
D03*
X3048000Y4064000D02*
D03*
X9144000Y24384000D02*
D03*
X8128000Y14224001D02*
D03*
X19303999Y10160000D02*
D03*
X11239500D02*
D03*
X8636000Y7112000D02*
D03*
X11176000Y8140700D02*
D03*
X7620000Y11176000D02*
D03*
X8636000Y9144000D02*
D03*
X9652000Y5080000D02*
D03*
X7620000Y21336000D02*
D03*
X13716000Y13208000D02*
D03*
X14224001Y12192000D02*
D03*
X5588000Y9144000D02*
D03*
X12700000Y15239999D02*
D03*
X3048000Y6096000D02*
D03*
X10160000Y26416000D02*
D03*
X6604000Y7112000D02*
D03*
X16764000Y9144000D02*
D03*
X11684000Y25400000D02*
D03*
X6096000Y18288000D02*
D03*
X10160000Y10160000D02*
D03*
X7620000Y7112000D02*
D03*
X9652000Y9144000D02*
D03*
X15239999Y16256000D02*
D03*
X8636000Y17272000D02*
D03*
X4064000Y6096000D02*
D03*
X5588000Y5080000D02*
D03*
X12700000Y25400000D02*
D03*
X18796001Y15239999D02*
D03*
X11176000Y26416000D02*
D03*
X7112000Y8128000D02*
D03*
X9652000Y25400000D02*
D03*
X11684000Y13208000D02*
D03*
X16764000Y21336000D02*
D03*
X20828000Y17272000D02*
D03*
X8636000Y5080000D02*
D03*
X18796001Y9144000D02*
D03*
X11684000Y15239999D02*
D03*
X4572000Y5080000D02*
D03*
X7112000Y6096000D02*
D03*
X11684000Y19303999D02*
D03*
X14732001Y15239999D02*
D03*
X9144000Y14224001D02*
D03*
X14732001Y19303999D02*
D03*
X7112000Y10160000D02*
D03*
X19303999Y12192000D02*
D03*
X8128000Y6096000D02*
D03*
X10668000Y25400000D02*
D03*
X4572000Y9144000D02*
D03*
X12192000Y14224001D02*
D03*
X6096000Y10160000D02*
D03*
X5080000Y12192000D02*
D03*
X20828000Y13208000D02*
D03*
X19812000Y17272000D02*
D03*
X8128000Y16256000D02*
D03*
X14224001Y18288000D02*
D03*
X8128000Y12192000D02*
D03*
X11684000Y9144000D02*
D03*
X7620000Y19303999D02*
D03*
X18796001Y21336000D02*
D03*
X15239999Y18288000D02*
D03*
X4064000Y24384000D02*
D03*
X6096000Y6096000D02*
D03*
X5080000Y20320000D02*
D03*
X4572000Y13208000D02*
D03*
X12192000Y16256000D02*
D03*
X17272000Y18288000D02*
D03*
X7620000Y17272000D02*
D03*
X18288000Y12192000D02*
D03*
X6096000Y8128000D02*
D03*
X8128000Y10160000D02*
D03*
X12192000Y24384000D02*
D03*
X6604000Y19303999D02*
D03*
X10160000Y24384000D02*
D03*
X11176000Y4064000D02*
D03*
X7112000Y14224001D02*
D03*
X17780000Y17272000D02*
D03*
X12700000Y13208000D02*
D03*
X12192000Y6096000D02*
D03*
X20828000Y19303999D02*
D03*
X3048000Y26416000D02*
D03*
X7620000Y15239999D02*
D03*
X4572000Y25400000D02*
D03*
X8128000Y18288000D02*
D03*
X3048000Y8128000D02*
D03*
X9144000Y4064000D02*
D03*
X3556000Y11176000D02*
D03*
X9144000Y16256000D02*
D03*
X7620000Y5080000D02*
D03*
X17780000Y15239999D02*
D03*
X19303999Y18288000D02*
D03*
X4572000Y21336000D02*
D03*
X8128000Y26416000D02*
D03*
X6096000Y22352000D02*
D03*
X8128000Y4064000D02*
D03*
X12700000Y5080000D02*
D03*
X16256000Y12192000D02*
D03*
X5588000Y23367999D02*
D03*
X9652000Y15239999D02*
D03*
X17272000Y12192000D02*
D03*
X11684000Y17272000D02*
D03*
X5080000Y6096000D02*
D03*
X8636000Y13208000D02*
D03*
X19812000Y19303999D02*
D03*
X6604000Y25400000D02*
D03*
X13716000Y17272000D02*
D03*
X14224001Y16256000D02*
D03*
X4572000Y15239999D02*
D03*
X14732001Y11176000D02*
D03*
X11176000Y24384000D02*
D03*
X12192000Y8128000D02*
D03*
X13271500Y18262601D02*
D03*
X3517900Y19850101D02*
D03*
X11468100Y5956300D02*
D03*
Y9766300D02*
D03*
X13246100Y11036300D02*
D03*
X11468100Y13576300D02*
D03*
X13246100Y22466299D02*
D03*
X11468100Y17386301D02*
D03*
X13246100Y14846300D02*
D03*
X10417600Y5575300D02*
D03*
X10628300Y6362700D02*
D03*
X12195600Y6845300D02*
D03*
X12406300Y7632700D02*
D03*
X10417600Y9385300D02*
D03*
X10628300Y10172700D02*
D03*
X12195600Y10655300D02*
D03*
X12406300Y11442700D02*
D03*
X10417600Y13195300D02*
D03*
X10628300Y13982700D02*
D03*
X12195600Y14465300D02*
D03*
X12406300Y15252699D02*
D03*
X10417090Y17005811D02*
D03*
X10628300Y17792700D02*
D03*
X12195090Y18275810D02*
D03*
X12406300Y19062700D02*
D03*
X10417600Y20815300D02*
D03*
X10628300Y21602699D02*
D03*
X12195600Y22085300D02*
D03*
X12406300Y22872701D02*
D03*
X9357790Y7607810D02*
D03*
X9147090Y8395210D02*
D03*
X7579790Y8877810D02*
D03*
X7369090Y9665210D02*
D03*
X9357790Y11417810D02*
D03*
X9147090Y12205210D02*
D03*
X7579790Y12687810D02*
D03*
X7369090Y13475211D02*
D03*
X9357790Y15227811D02*
D03*
X9147090Y16015210D02*
D03*
X7579790Y16497810D02*
D03*
X7369090Y17285210D02*
D03*
X9357790Y19037810D02*
D03*
X9147090Y19825211D02*
D03*
X7579790Y20307809D02*
D03*
X7369090Y21095210D02*
D03*
X9357790Y22847810D02*
D03*
X9147600Y23634700D02*
D03*
X7579790Y24117810D02*
D03*
X7369600Y24904700D02*
D03*
X3517900Y11912600D02*
D03*
X3784600Y17348199D02*
D03*
D80*
X12003000Y7304000D02*
D03*
X11873000D02*
D03*
X12003000Y7174000D02*
D03*
X11873000D02*
D03*
X12003000Y11114000D02*
D03*
X11873000D02*
D03*
X12003000Y10984000D02*
D03*
X11873000D02*
D03*
X12003000Y22544000D02*
D03*
X11873000D02*
D03*
X12003000Y22414000D02*
D03*
X11873000D02*
D03*
X12003000Y18734000D02*
D03*
X11873000D02*
D03*
X12003000Y18603999D02*
D03*
X11873000D02*
D03*
X12003000Y14924001D02*
D03*
X11873000D02*
D03*
X12003000Y14794000D02*
D03*
X11873000D02*
D03*
X8955000Y7936000D02*
D03*
X8825000D02*
D03*
X8955000Y8066000D02*
D03*
X8825000D02*
D03*
X8955000Y23175999D02*
D03*
X8825000D02*
D03*
X8955000Y23306000D02*
D03*
X8825000D02*
D03*
X8955000Y19366000D02*
D03*
X8825000D02*
D03*
X8955000Y19496001D02*
D03*
X8825000D02*
D03*
X8955000Y11746000D02*
D03*
X8825000D02*
D03*
X8955000Y11876000D02*
D03*
X8825000D02*
D03*
X8955000Y15556000D02*
D03*
X8825000D02*
D03*
X8955000Y15686000D02*
D03*
X8825000D02*
D03*
X10225000Y6034000D02*
D03*
X10095000D02*
D03*
X10225000Y5904000D02*
D03*
X10095000D02*
D03*
X10225000Y9844000D02*
D03*
X10095000D02*
D03*
X10225000Y9714000D02*
D03*
X10095000D02*
D03*
X10225000Y21274001D02*
D03*
X10095000D02*
D03*
X10225000Y21144000D02*
D03*
X10095000D02*
D03*
X10225000Y17464000D02*
D03*
X10095000D02*
D03*
X10225000Y17334000D02*
D03*
X10095000D02*
D03*
X10225000Y13653999D02*
D03*
X10095000D02*
D03*
X10225000Y13524001D02*
D03*
X10095000D02*
D03*
X7177000Y24446001D02*
D03*
X7047000D02*
D03*
X7177000Y24575999D02*
D03*
X7047000D02*
D03*
X7177000Y20636000D02*
D03*
X7047000D02*
D03*
X7177000Y20766000D02*
D03*
X7047000D02*
D03*
X7177000Y9206000D02*
D03*
X7047000D02*
D03*
X7177000Y9336000D02*
D03*
X7047000D02*
D03*
X7177000Y13016000D02*
D03*
X7047000D02*
D03*
X7177000Y13146001D02*
D03*
X7047000D02*
D03*
X7177000Y16825999D02*
D03*
X7047000D02*
D03*
X7177000Y16956000D02*
D03*
X7047000D02*
D03*
%TF.MD5,4f431842db2bcb094731c27589f9383a*%
M02*
